<svg xmlns="http://www.w3.org/2000/svg" xmlns:xlink="http://www.w3.org/1999/xlink" width="44px" height="44px" viewBox="0 0 44 44"><title>logo-icon-blue</title><desc>Created with Sketch.</desc><g id="Page-1" stroke="none" stroke-width="1" fill="none" fill-rule="evenodd"><g id="Products-Copy-4" transform="translate(-131.000000, -2161.000000)"><g id="logo-icon-blue" transform="translate(131.000000, 2161.000000)"><path d="M44,22 C44,34.15 34.15,44 22,44 C9.85,44 0,34.15 0,22 C0,9.85 9.85,0 22,0 C34.15,0 44,9.85 44,22" id="Fill-17" fill="#00E8B4"></path><polygon id="Fill-18" fill="#242828" points="17.6358 8.9062 17.6358 18.6352 13.2718 23.0002 13.2718 13.2712"></polygon><path d="M30.7295,26.3652 C30.7295,31.1852 26.8215,35.0942 22.0005,35.0942 C17.1785,35.0942 13.2715,31.1852 13.2715,26.3652 L13.2715,21.0002 L17.6355,21.0002 L17.6355,26.3652 C17.6355,28.7712 19.5935,30.7292 22.0005,30.7292 C24.4075,30.7292 26.3655,28.7712 26.3655,26.3652 L30.7295,26.3652 Z" id="Fill-19" fill="#242828"></path><polygon id="Fill-20" fill="#242828" points="30.7295 17.6357 26.3655 21.9997 13.2715 21.9997 17.6355 17.6357"></polygon></g></g></g></svg>