<svg xmlns="http://www.w3.org/2000/svg" viewBox="0 0 185.66 44"><defs><style>.cls-1{fill:#242828;}.cls-2{fill:#fff;}.cls-3{fill:#00e8b4;}</style></defs><title>logo 1</title><g id="Layer_2" data-name="Layer 2"><g id="Layer_1-2" data-name="Layer 1"><path class="cls-1" d="M64.78,30.69v-14H59.43V13.63H73.9V16.7H68.55v14Z"></path><path class="cls-1" d="M76.06,30.12A5.35,5.35,0,0,1,73.85,28a6.67,6.67,0,0,1-.77-3.27,6.68,6.68,0,0,1,.77-3.28,5.24,5.24,0,0,1,2.21-2.14,7.68,7.68,0,0,1,6.62,0,5.24,5.24,0,0,1,2.21,2.14,6.68,6.68,0,0,1,.77,3.28A6.67,6.67,0,0,1,84.89,28a5.35,5.35,0,0,1-2.21,2.16,7.59,7.59,0,0,1-6.62,0Zm6-5.43a4,4,0,0,0-.69-2.57,2.42,2.42,0,0,0-2-.85q-2.66,0-2.66,3.42t2.66,3.41Q82,28.1,82,24.69Z"></path><path class="cls-1" d="M105.55,19.75a6,6,0,0,1,1,3.77v7.17h-3.65v-7a3.13,3.13,0,0,0-.38-1.75,1.45,1.45,0,0,0-1.27-.53,2,2,0,0,0-1.62.73,3.15,3.15,0,0,0-.58,2v6.56H95.39v-7A3.13,3.13,0,0,0,95,21.9a1.45,1.45,0,0,0-1.27-.53,2,2,0,0,0-1.62.73,3.15,3.15,0,0,0-.58,2v6.56H87.89V18.81h3.55V20.4A3.71,3.71,0,0,1,92.93,19a4.62,4.62,0,0,1,2.14-.48,3.44,3.44,0,0,1,3.53,2.2,4.2,4.2,0,0,1,1.63-1.61,4.49,4.49,0,0,1,2.29-.59A3.66,3.66,0,0,1,105.55,19.75Z"></path><path class="cls-1" d="M111.69,30.12a5.39,5.39,0,0,1-2.2-2.16,6.67,6.67,0,0,1-.77-3.27,6.68,6.68,0,0,1,.77-3.28,5.28,5.28,0,0,1,2.2-2.14,7.7,7.7,0,0,1,6.63,0,5.3,5.3,0,0,1,2.21,2.14,6.68,6.68,0,0,1,.77,3.28,6.67,6.67,0,0,1-.77,3.27,5.41,5.41,0,0,1-2.21,2.16,7.61,7.61,0,0,1-6.63,0Zm6-5.43a4,4,0,0,0-.69-2.57,2.42,2.42,0,0,0-2-.85c-1.78,0-2.66,1.14-2.66,3.42s.88,3.41,2.66,3.41S117.67,27,117.67,24.69Z"></path><path class="cls-1" d="M127.31,29.81a7.34,7.34,0,0,1-3-3.07,9.77,9.77,0,0,1-1-4.59,9.78,9.78,0,0,1,1-4.6,7.32,7.32,0,0,1,3-3.06,9.07,9.07,0,0,1,4.51-1.08,10.1,10.1,0,0,1,3.25.52,7.1,7.1,0,0,1,2.54,1.44l-1.21,2.69a8.14,8.14,0,0,0-2.22-1.24,6.74,6.74,0,0,0-2.28-.38,4.3,4.3,0,0,0-3.5,1.45,6.46,6.46,0,0,0-1.22,4.26,6.55,6.55,0,0,0,1.22,4.27,4.31,4.31,0,0,0,3.5,1.46,6.74,6.74,0,0,0,2.28-.39,8.37,8.37,0,0,0,2.22-1.23l1.21,2.68a6.81,6.81,0,0,1-2.54,1.44,10.1,10.1,0,0,1-3.25.52A9,9,0,0,1,127.31,29.81Z"></path><path class="cls-1" d="M150.55,19.76a5.8,5.8,0,0,1,1,3.76v7.17h-3.65v-7a2.79,2.79,0,0,0-.45-1.76,1.68,1.68,0,0,0-1.39-.56,2.39,2.39,0,0,0-1.83.73,2.68,2.68,0,0,0-.69,1.93v6.66h-3.65V13.63h3.65v6.75A4.07,4.07,0,0,1,145.19,19a4.89,4.89,0,0,1,2.19-.47A3.89,3.89,0,0,1,150.55,19.76Z"></path><path class="cls-1" d="M163.53,19.77a5.28,5.28,0,0,1,1.27,3.9v7h-3.46V28.92a2.89,2.89,0,0,1-1.21,1.44,3.66,3.66,0,0,1-2,.52A4.89,4.89,0,0,1,156,30.4,3.87,3.87,0,0,1,154.41,29a3.44,3.44,0,0,1-.57-1.93,3,3,0,0,1,.67-2.06A4,4,0,0,1,156.65,24a18.6,18.6,0,0,1,4-.34h.63v-.43a2,2,0,0,0-.46-1.5,2.32,2.32,0,0,0-1.6-.44,7.28,7.28,0,0,0-1.94.31,9.11,9.11,0,0,0-2,.88l-1-2.45a9.92,9.92,0,0,1,2.51-1,10.19,10.19,0,0,1,2.77-.42A5.44,5.44,0,0,1,163.53,19.77Zm-2.87,7.88a2.62,2.62,0,0,0,.66-1.85v-.41h-.41a8.29,8.29,0,0,0-2.75.31,1.15,1.15,0,0,0-.79,1.14,1.46,1.46,0,0,0,.45,1.09,1.55,1.55,0,0,0,1.13.43A2.18,2.18,0,0,0,160.66,27.65Z"></path><path class="cls-1" d="M167.41,13.1h3.92v3.41h-3.92Zm.12,17.59V18.81h3.66V30.69Z"></path><path class="cls-1" d="M184.62,19.76a5.8,5.8,0,0,1,1,3.76v7.17H182v-7a2.86,2.86,0,0,0-.44-1.76,1.7,1.7,0,0,0-1.4-.56,2.38,2.38,0,0,0-1.82.73,2.68,2.68,0,0,0-.69,1.93v6.66H174V18.81h3.56V20.5A4.14,4.14,0,0,1,179.18,19a5.08,5.08,0,0,1,2.27-.5A3.9,3.9,0,0,1,184.62,19.76Z"></path><circle class="cls-1" cx="22" cy="22" r="22"></circle><polygon class="cls-2" points="17.64 8.91 17.64 17.64 13.27 22 13.27 13.27 17.64 8.91"></polygon><path class="cls-2" d="M30.73,26.36a8.73,8.73,0,0,1-17.46,0V22h4.37v4.36a4.36,4.36,0,1,0,8.72,0Z"></path><polygon class="cls-3" points="30.73 17.64 26.36 22 13.27 22 17.64 17.64 30.73 17.64"></polygon></g></g></svg>