<svg xmlns="http://www.w3.org/2000/svg" xmlns:xlink="http://www.w3.org/1999/xlink" width="685px" height="685px" viewBox="0 0 685 685"><title>ani-logo-item-1</title><desc>Created with Sketch.</desc><g id="Page-1" stroke="none" stroke-width="1" fill="none" fill-rule="evenodd" opacity="0.05"><g id="Home-Copy-20" transform="translate(-362.000000, -3347.000000)" fill="#FFFFFF" stroke="#FFFFFF" stroke-width="0.5"><path d="M388.186924,3561.07969 C371.54148,3602.05692 363.099435,3645.80839 363,3689.55985 L363,3690.99172 C363.059661,3722.96012 367.58396,3754.90864 376.622616,3785.76336 C379.048833,3794.05625 387.739466,3798.79931 396.032357,3796.37309 C404.325249,3793.93693 409.068306,3785.25624 406.642088,3776.96335 C387.083194,3710.20259 390.821955,3637.70442 417.182214,3572.86276 C443.910383,3507.08641 492.971687,3452.00928 555.337414,3417.77375 C628.034453,3377.85054 711.92789,3368.6329 791.55556,3391.82118 C871.193173,3414.99951 937.029187,3467.79958 976.9524,3540.49662 C1059.35431,3690.57409 1004.29707,3879.71964 854.219592,3962.1116 C788.801206,3998.04747 712.63388,4009.21404 639.757857,3993.57289 C631.30587,3991.76317 623.003034,3997.13266 621.183371,4005.57471 C619.373651,4014.0267 624.753093,4022.33948 633.205081,4024.15914 C656.870647,4029.23033 680.844462,4031.74604 704.758616,4031.74604 C761.864224,4031.7361 818.512429,4017.40749 869.274074,3989.54576 C949.309428,3945.60537 1007.41933,3873.12709 1032.94433,3785.475 C1058.45939,3697.81297 1048.30706,3605.46755 1004.36667,3525.44214 C960.426278,3445.41673 887.967883,3387.28694 800.305853,3361.77188 C768.655644,3352.56418 736.369051,3348 704.291271,3348 C647.54363,3347.99016 591.402543,3362.26905 540.282932,3390.3396 C471.632903,3428.03546 417.629672,3488.66107 388.186924,3561.07969 Z" id="ani-logo-item-1"></path></g></g></svg>