<svg xmlns="http://www.w3.org/2000/svg" xmlns:xlink="http://www.w3.org/1999/xlink" width="507px" height="513px" viewBox="0 0 507 513"><title>ani-logo-item-2</title><desc>Created with Sketch.</desc><g id="Page-1" stroke="none" stroke-width="1" fill="none" fill-rule="evenodd" opacity="0.05"><g id="Home-Copy-20" transform="translate(-451.000000, -3433.000000)" fill="#FFFFFF" stroke="#FFFFFF" stroke-width="0.5"><path d="M707.582574,3945.69486 C766.199596,3945.69486 823.454356,3925.38026 868.83656,3888.47987 C913.562491,3852.1065 944.993942,3801.25536 957.343788,3745.27337 C959.213169,3736.83132 953.873501,3728.48872 945.4414,3726.61933 C937.0093,3724.7599 928.656747,3730.09956 926.79731,3738.53167 C915.958878,3787.64269 888.365623,3832.26918 849.088739,3864.19781 C809.274904,3896.5739 759.030322,3914.41256 707.582574,3914.41256 C583.825585,3914.41256 483.127607,3813.71458 483.127607,3689.93771 C483.127607,3566.17077 583.825585,3465.4728 707.582574,3465.4728 C781.950124,3465.4728 851.345916,3502.20414 893.257833,3563.74456 C898.120212,3570.89394 907.854913,3572.73349 914.994357,3567.86117 C922.133801,3563.00874 923.983295,3553.28398 919.110972,3546.13459 C871.362213,3476.04275 792.29138,3434.18055 707.582574,3434.18055 C566.563642,3434.18055 451.835364,3548.91878 451.835364,3689.93771 C451.835364,3830.97653 566.563642,3945.69486 707.582574,3945.69486 Z" id="ani-logo-item-2"></path></g></g></svg>