<svg xmlns="http://www.w3.org/2000/svg" xmlns:xlink="http://www.w3.org/1999/xlink" width="215px" height="276px" viewBox="0 0 215 276"><title>ani-logo-item-3</title><desc>Created with Sketch.</desc><g id="Page-1" stroke="none" stroke-width="1" fill="none" fill-rule="evenodd" opacity="0.05"><g id="Home-Copy-20" transform="translate(-588.000000, -3552.000000)" fill="#FFFFFF" stroke="#FFFFFF" stroke-width="0.5"><path d="M635.979322,3600.15771 L605.363238,3600.15771 C596.324583,3600.15771 588.996213,3607.48608 588.996213,3616.51479 C588.996213,3625.55345 596.324583,3632.88182 605.363238,3632.88182 L635.979322,3632.88182 L635.979322,3732.59539 C635.979322,3769.37645 656.661833,3802.09061 689.952722,3817.96046 C702.998614,3824.18511 716.839987,3827.23776 730.571981,3827.23776 C751.47325,3827.23776 772.086157,3820.13809 789.139286,3806.32655 C791.396464,3804.49695 793.663585,3802.52813 795.890932,3800.49965 C803.507665,3793.50936 804.014784,3781.67658 797.04438,3774.06979 C790.064033,3766.45306 778.23125,3765.93599 770.62446,3772.91634 C768.944006,3774.44764 767.253609,3775.90934 765.573155,3777.26166 C748.410648,3791.18258 726.157061,3793.77784 706.051273,3784.19229 C685.587519,3774.44764 673.386826,3755.15722 673.386826,3732.59539 L673.386826,3632.88182 L785.36075,3632.88182 C794.399405,3632.88182 801.727776,3625.55345 801.727776,3616.51479 C801.727776,3607.48608 794.399405,3600.15771 785.36075,3600.15771 L673.386826,3600.15771 L673.386826,3571.20219 C673.386826,3560.88082 664.994499,3552.49844 654.683074,3552.49844 C644.341818,3552.49844 635.979322,3560.88082 635.979322,3571.20219 L635.979322,3600.15771 Z" id="ani-logo-item-3"></path></g></g></svg>