<svg xmlns="http://www.w3.org/2000/svg" viewBox="0 0 58.06 27.87"><defs><style>.cls-1{fill:#fff;}.cls-1,.cls-2{fill-rule:evenodd;}.cls-2{fill:#00e8b4;}</style></defs><title>Asset 15</title><g id="Layer_2" data-name="Layer 2"><g id="Layer_1-2" data-name="Layer 1"><path id="Fill-5324" class="cls-1" d="M1.59,8.54A3.64,3.64,0,0,1,.32,7.81.87.87,0,0,1,0,7.17a.69.69,0,0,1,.2-.48.64.64,0,0,1,.5-.21.59.59,0,0,1,.4.14A3.94,3.94,0,0,0,2,7.2a3,3,0,0,0,1.08.18,2.15,2.15,0,0,0,1.16-.3.87.87,0,0,0,.49-.75,1,1,0,0,0-.48-.85A4.28,4.28,0,0,0,2.76,5C1,4.76.13,4,.13,2.57a2.22,2.22,0,0,1,.4-1.32A2.49,2.49,0,0,1,1.61.4,3.9,3.9,0,0,1,3.14.11,4.19,4.19,0,0,1,4.56.34a3.46,3.46,0,0,1,1.11.6A.79.79,0,0,1,6,1.57a.67.67,0,0,1-.21.49.63.63,0,0,1-.48.21A.46.46,0,0,1,5,2.16a3.18,3.18,0,0,0-.87-.46,2.94,2.94,0,0,0-1-.21A2.08,2.08,0,0,0,2,1.77a.88.88,0,0,0-.41.74A.86.86,0,0,0,2,3.29a4,4,0,0,0,1.35.43A7,7,0,0,1,5,4.19,2.11,2.11,0,0,1,5.9,5a2.32,2.32,0,0,1,.31,1.29,2.11,2.11,0,0,1-.43,1.32,2.69,2.69,0,0,1-1.13.88,3.7,3.7,0,0,1-1.53.31,4.79,4.79,0,0,1-1.53-.22"></path><path id="Fill-5326" class="cls-1" d="M8.62,8.43a.68.68,0,0,1-.51.21.7.7,0,0,1-.52-.21.71.71,0,0,1-.2-.52v-5a.69.69,0,0,1,.2-.52.7.7,0,0,1,.52-.21.68.68,0,0,1,.51.21.7.7,0,0,1,.21.52v5a.72.72,0,0,1-.21.52M7.52,1.3A.58.58,0,0,1,7.35.83V.6A.56.56,0,0,1,7.53.13,1.06,1.06,0,0,1,8.11,0,1.07,1.07,0,0,1,8.7.13.58.58,0,0,1,8.86.6V.83a.53.53,0,0,1-.17.47,1,1,0,0,1-.59.13.94.94,0,0,1-.58-.13"></path><path id="Fill-5328" class="cls-1" d="M15.44,2.82a3.69,3.69,0,0,1,.46,2V7.91a.75.75,0,0,1-.2.52.7.7,0,0,1-.52.21.66.66,0,0,1-.51-.21.72.72,0,0,1-.21-.52V4.83a1.69,1.69,0,0,0-.28-1,1.09,1.09,0,0,0-.94-.38,1.51,1.51,0,0,0-1.1.4,1.41,1.41,0,0,0-.39,1V7.91a.72.72,0,0,1-.21.52.68.68,0,0,1-.51.21.7.7,0,0,1-.52-.21.71.71,0,0,1-.2-.52v-5a.69.69,0,0,1,.2-.52A.7.7,0,0,1,11,2.21a.68.68,0,0,1,.51.21.7.7,0,0,1,.21.52v.21a2.92,2.92,0,0,1,.84-.75,2.18,2.18,0,0,1,1.15-.31,1.87,1.87,0,0,1,1.7.73"></path><path id="Fill-5330" class="cls-1" d="M21.61,6.87a2.1,2.1,0,0,0,.51-1.44A2.08,2.08,0,0,0,21.61,4,1.77,1.77,0,0,0,19,4a2.08,2.08,0,0,0-.51,1.44A2.1,2.1,0,0,0,19,6.87a1.81,1.81,0,0,0,2.62,0M23.3,2.3a.69.69,0,0,1,.21.52V8.17a2.59,2.59,0,0,1-.91,2.17,3.62,3.62,0,0,1-2.3.7,5.64,5.64,0,0,1-1-.12,4.53,4.53,0,0,1-.9-.24c-.39-.17-.58-.4-.58-.7a.74.74,0,0,1,0-.19.71.71,0,0,1,.25-.4.59.59,0,0,1,.37-.14.56.56,0,0,1,.23,0,6.29,6.29,0,0,1,.6.22,2.75,2.75,0,0,0,1,.21,2.09,2.09,0,0,0,1.33-.36,1.21,1.21,0,0,0,.43-1V7.79a2.45,2.45,0,0,1-.79.67,2.32,2.32,0,0,1-1.15.3,2.81,2.81,0,0,1-1.53-.43A3,3,0,0,1,17.5,7.15a3.61,3.61,0,0,1-.4-1.72,3.69,3.69,0,0,1,.39-1.72,3,3,0,0,1,1.07-1.19,2.76,2.76,0,0,1,1.51-.43,2.72,2.72,0,0,1,1.14.25,2.67,2.67,0,0,1,.85.62V2.82a.72.72,0,0,1,.72-.73.69.69,0,0,1,.52.21"></path><path id="Fill-5332" class="cls-1" d="M29.06,6.87a2.18,2.18,0,0,0,.49-1.44A2.16,2.16,0,0,0,29.06,4a1.6,1.6,0,0,0-1.28-.58A1.57,1.57,0,0,0,26.52,4,2.11,2.11,0,0,0,26,5.43a2.13,2.13,0,0,0,.49,1.44,1.56,1.56,0,0,0,1.26.56,1.61,1.61,0,0,0,1.28-.56M30.73,2.3a.72.72,0,0,1,.2.52V7.91a.75.75,0,0,1-.2.52.7.7,0,0,1-.52.21.66.66,0,0,1-.51-.21.76.76,0,0,1-.21-.51,2.43,2.43,0,0,1-.81.59,2.38,2.38,0,0,1-1.08.25,2.71,2.71,0,0,1-1.5-.43A3,3,0,0,1,25,7.15a3.72,3.72,0,0,1-.39-1.72A3.82,3.82,0,0,1,25,3.71a3,3,0,0,1,1-1.19,2.66,2.66,0,0,1,1.47-.43,2.83,2.83,0,0,1,1.94.75v0a.73.73,0,0,1,.2-.52.75.75,0,0,1,1,0"></path><path id="Fill-5334" class="cls-1" d="M36.9,6.86a2.13,2.13,0,0,0,.49-1.44A2.16,2.16,0,0,0,36.91,4a1.7,1.7,0,0,0-2.54,0,2.12,2.12,0,0,0-.5,1.44,2.14,2.14,0,0,0,.5,1.44,1.67,1.67,0,0,0,2.53,0m.42-4.34A3,3,0,0,1,38.38,3.7a3.72,3.72,0,0,1,.39,1.72,3.72,3.72,0,0,1-.38,1.72,3,3,0,0,1-1,1.19,2.66,2.66,0,0,1-1.47.43,2.52,2.52,0,0,1-1.09-.24A2.75,2.75,0,0,1,33.93,8v2.36a.73.73,0,0,1-.2.52.7.7,0,0,1-.52.21.66.66,0,0,1-.51-.21.69.69,0,0,1-.21-.52V2.94a.7.7,0,0,1,.21-.52.66.66,0,0,1,.51-.21.7.7,0,0,1,.52.21.73.73,0,0,1,.2.52V3a2.53,2.53,0,0,1,.81-.63,2.28,2.28,0,0,1,1.08-.27,2.71,2.71,0,0,1,1.5.43"></path><path id="Fill-5336" class="cls-1" d="M44.46,4.38a1.77,1.77,0,0,0-.66-.72,1.82,1.82,0,0,0-1.84,0,1.92,1.92,0,0,0-.66.72,2.26,2.26,0,0,0-.24,1,2.26,2.26,0,0,0,.24,1.05,1.86,1.86,0,0,0,.66.7,1.78,1.78,0,0,0,2.5-.7,2.33,2.33,0,0,0,0-2.1m1.26,2.77a3.09,3.09,0,0,1-1.19,1.19,3.47,3.47,0,0,1-3.31,0,3.11,3.11,0,0,1-1.17-1.19,3.41,3.41,0,0,1-.44-1.72,3.41,3.41,0,0,1,.44-1.72,3.11,3.11,0,0,1,1.17-1.19,3.4,3.4,0,0,1,3.31,0,3.09,3.09,0,0,1,1.19,1.19,3.51,3.51,0,0,1,.43,1.72,3.51,3.51,0,0,1-.43,1.72"></path><path id="Fill-5338" class="cls-1" d="M51.3,2.29a.63.63,0,0,1,.24.49.76.76,0,0,1-.19.56.65.65,0,0,1-.46.18,1.4,1.4,0,0,1-.41-.08l-.16,0a.77.77,0,0,0-.27,0,1.12,1.12,0,0,0-.6.19,1.42,1.42,0,0,0-.47.59,2.06,2.06,0,0,0-.19.93V7.91a.75.75,0,0,1-.2.52.75.75,0,0,1-1,0,.75.75,0,0,1-.2-.52v-5a.75.75,0,0,1,.2-.52.75.75,0,0,1,1,0,.75.75,0,0,1,.2.52V3.1a1.84,1.84,0,0,1,.79-.75,2.51,2.51,0,0,1,1.11-.26,1,1,0,0,1,.61.2"></path><path id="Fill-5340" class="cls-1" d="M53.38,4.72h3.15V4.64a1.23,1.23,0,0,0-.5-.87,1.54,1.54,0,0,0-1-.36,1.49,1.49,0,0,0-1.64,1.31m4.46,1a.79.79,0,0,1-.51.18h-4A1.78,1.78,0,0,0,54,7a1.82,1.82,0,0,0,1.17.4A2.59,2.59,0,0,0,56,7.35a1.83,1.83,0,0,0,.44-.2L56.62,7A.84.84,0,0,1,57,6.91a.58.58,0,0,1,.43.18.58.58,0,0,1,.18.42.76.76,0,0,1-.33.59,3.15,3.15,0,0,1-.9.47,3.78,3.78,0,0,1-1.14.19,3.53,3.53,0,0,1-1.76-.42,2.88,2.88,0,0,1-1.16-1.16,3.31,3.31,0,0,1-.41-1.67,3.67,3.67,0,0,1,.43-1.81,3.14,3.14,0,0,1,1.14-1.2A3,3,0,0,1,55,2.09a2.89,2.89,0,0,1,1.5.43,3.22,3.22,0,0,1,1.12,1.17,3,3,0,0,1,.42,1.58.59.59,0,0,1-.22.47"></path><path id="Fill-5538" class="cls-2" d="M31.23,24.89a5.4,5.4,0,0,0,1.86-3,.39.39,0,0,0-.29-.45.42.42,0,0,0-.29.05.4.4,0,0,0-.16.24,4.61,4.61,0,1,1-.69-3.59.4.4,0,0,0,.24.16.45.45,0,0,0,.28-.06.38.38,0,0,0,.16-.24.38.38,0,0,0-.06-.29,5.37,5.37,0,1,0-4.43,8.39,5.41,5.41,0,0,0,3.38-1.2"></path><path id="Fill-5540" class="cls-2" d="M34.06,17.28a7.15,7.15,0,0,0-9.72-2.83,7.15,7.15,0,0,0-3.42,8.28.39.39,0,0,0,.18.22.37.37,0,0,0,.29,0,.39.39,0,0,0,.22-.18.37.37,0,0,0,0-.29,6.41,6.41,0,0,1,3.07-7.4A6.4,6.4,0,1,1,26.45,27a.38.38,0,0,0-.4.57.4.4,0,0,0,.24.16,6.89,6.89,0,0,0,1.5.16,7.15,7.15,0,0,0,6.27-10.59"></path><path id="Fill-5542" class="cls-2" d="M27.46,23.43a2,2,0,0,0,2.11-.25l.14-.12a.44.44,0,1,0-.59-.65l-.1.08a1.08,1.08,0,0,1-1.18.14,1.1,1.1,0,0,1-.65-1v-2h2.27a.4.4,0,0,0,0-.79H27.19v-.55a.44.44,0,0,0-.44-.44.44.44,0,0,0-.44.44v.55h-.59a.4.4,0,0,0,0,.79h.59v2a2,2,0,0,0,1.15,1.82"></path></g></g></svg>