<svg xmlns="http://www.w3.org/2000/svg" xmlns:xlink="http://www.w3.org/1999/xlink" width="74px" height="92px" viewBox="0 0 74 92"><title>Blockchain</title><desc>Created with Sketch.</desc><g id="Page-1" stroke="none" stroke-width="1" fill="none" fill-rule="evenodd"><g id="Home-Copy-23" transform="translate(-734.000000, -1606.000000)"><g id="Blockchain" transform="translate(734.321757, 1608.000000)"><g id="Group-30" transform="translate(0.687796, 34.522670)"><polygon id="Fill-1" fill="#00E8B4" points="57.9046484 9.77044995 29.6386023 0.349568015 1.37444532 9.77044995 1.37444532 43.6884207 29.6386023 53.1111916 57.9046484 43.6884207"></polygon><g id="Group-10" transform="translate(1.001176, 0.081102)"><polygon id="Fill-2" fill="#000000" opacity="0.149999991" points="28.636368 19.1118926 0.37296658 9.68949948 0.37296658 43.6074702 28.6375014 53.0302411 28.6375014 19.1118926"></polygon><polygon id="Fill-4" fill="#FFFFFF" opacity="0.25" points="0.373155482 9.68934836 28.6376903 0.268466422 56.9033585 9.68934836 28.6384459 19.1117415"></polygon><polygon id="Stroke-6" stroke="#242828" stroke-width="3.5" stroke-linecap="square" points="0.373155482 43.6074324 28.6376903 53.0302034 56.9033585 43.608188 56.9033585 9.6894617 28.6376903 0.268579763 0.373155482 9.6894617"></polygon><path d="M28.6384081,19.1118926 L28.6384081,52.2733745 M1.30068055,10.1787486 L28.6384081,19.1118926 L55.9636089,10.1787486" id="Stroke-8" stroke="#242828" stroke-width="3.5" stroke-linecap="square"></path></g></g><g id="Group-30-Copy" transform="translate(54.586720, 16.225352) scale(-1, 1) translate(-54.586720, -16.225352) translate(37.347284, 0.000000)"><polygon id="Fill-1" fill="#E8D4D4" points="33.2098129 5.63829 16.8981624 0.201727234 0.587602027 5.63829 0.587602027 25.2115293 16.8981624 30.6491822 33.2098129 25.2115293"></polygon><g id="Group-10" transform="translate(0.577755, 0.046802)"><polygon id="Fill-2" fill="#000000" opacity="0.149999991" points="16.3197972 11.0290103 0.00967290555 5.59157544 0.00967290555 25.1648147 16.3204513 30.6024676 16.3204513 11.0290103"></polygon><polygon id="Fill-4" fill="#FFFFFF" opacity="0.25" points="0.00978191587 5.59148823 16.3205603 0.154925469 32.6319928 5.59148823 16.3209964 11.0289231"></polygon><polygon id="Stroke-6" stroke="#242828" stroke-width="3" stroke-linecap="square" points="0.00978191587 25.1647929 16.3205603 30.6024458 32.6319928 25.165229 32.6319928 5.59155364 16.3205603 0.154990875 0.00978191587 5.59155364"></polygon><path d="M16.3209746,11.0290103 L16.3209746,30.1656982 M0.545034165,5.87390925 L16.3209746,11.0290103 L32.089686,5.87390925" id="Stroke-8" stroke="#242828" stroke-width="3" stroke-linecap="square"></path></g></g></g></g></g></svg>