<svg xmlns="http://www.w3.org/2000/svg" xmlns:xlink="http://www.w3.org/1999/xlink" width="79px" height="64px" viewBox="0 0 79 64"><title>DEX</title><desc>Created with Sketch.</desc><g id="Page-1" stroke="none" stroke-width="1" fill="none" fill-rule="evenodd"><g id="Home-Copy-23" transform="translate(-727.000000, -1816.000000)"><g id="DEX" transform="translate(729.000000, 1818.000000)"><polygon id="Fill-1" fill="#00E8B4" points="0 59.4359092 74.2948865 59.4359092 74.2948865 0 0 0"></polygon><polygon id="Fill-1-Copy" fill="#E8D4D4" points="0 15 74.2948865 15 74.2948865 0 0 0"></polygon><polygon id="Fill-2" fill="#000000" opacity="0.149999991" points="0 0 37.1474432 0 37.1474432 59.4030956 0 59.4030956"></polygon><polygon id="Stroke-4" stroke="#242828" stroke-width="3.5" stroke-linecap="square" points="0 59.4359092 74.2948865 59.4359092 74.2948865 0 0 0"></polygon><path d="M8.19124054,5.1912715 C9.29574054,5.1912715 10.1912405,6.0867715 10.1912405,7.1912715 C10.1912405,8.2957715 9.29574054,9.1912715 8.19124054,9.1912715 C7.08674054,9.1912715 6.19124054,8.2957715 6.19124054,7.1912715 C6.19124054,6.0867715 7.08674054,5.1912715 8.19124054,5.1912715 Z" id="Stroke-6" fill="#242828"></path><path d="M15.1912405,5.1912715 C16.2957405,5.1912715 17.1912405,6.0867715 17.1912405,7.1912715 C17.1912405,8.2957715 16.2957405,9.1912715 15.1912405,9.1912715 C14.0867405,9.1912715 13.1912405,8.2957715 13.1912405,7.1912715 C13.1912405,6.0867715 14.0867405,5.1912715 15.1912405,5.1912715 Z" id="Stroke-7" fill="#242828"></path><path d="M22.1912405,5.1912715 C23.2957405,5.1912715 24.1912405,6.0867715 24.1912405,7.1912715 C24.1912405,8.2957715 23.2957405,9.1912715 22.1912405,9.1912715 C21.0867405,9.1912715 20.1912405,8.2957715 20.1912405,7.1912715 C20.1912405,6.0867715 21.0867405,5.1912715 22.1912405,5.1912715 Z" id="Stroke-8" fill="#242828"></path><polyline id="Stroke-9" stroke="#242828" stroke-width="3.5" stroke-linecap="square" points="12.4028227 36.5350606 18.7042758 36.5350606 23.0006951 46.8465811 33.9805601 27.8465811 44.7694288 42.3591654 51.6435855 30.0426112 57.6586867 36.0577124 63.5778614 36.0577124"></polyline><line x1="0" y1="14.8727838" x2="74.2948865" y2="14.8727838" id="Stroke-10" stroke="#242828" stroke-width="3.5" stroke-linecap="square"></line></g></g></g></svg>