<svg xmlns="http://www.w3.org/2000/svg" xmlns:xlink="http://www.w3.org/1999/xlink" width="85px" height="68px" viewBox="0 0 85 68"><title>friendly</title><desc>Created with Sketch.</desc><g id="Page-1" stroke="none" stroke-width="1" fill="none" fill-rule="evenodd"><g id="Home-Copy-23" transform="translate(-131.000000, -1812.000000)"><g id="friendly" transform="translate(134.000000, 1814.000000)"><path d="M31.8895271,2.83245508 C30.180344,4.54163819 29.4567192,5.47824937 26.5807408,5.47824937 C24.2087862,5.47824937 21.3777864,2.19481865 21.3777864,2.19481865 L0.17703671,23.3902767 L8.7070775,31.9242862 L6.9463014,33.6837394 C4.90044097,35.7709404 4.93384412,39.1208467 7.02104509,41.1667071 C9.07517363,43.1804873 12.3619116,43.1841252 14.4206703,41.1753059 L12.5686143,43.0273619 C10.5475582,45.138375 10.6206482,48.4879506 12.7316613,50.5090067 C14.7775218,52.4675559 18.0030757,52.4678867 20.0495976,50.5096682 L21.9109139,48.647029 C19.8921729,50.7600265 19.9685702,54.109602 22.0815676,56.1286738 C24.1297431,58.0852387 27.3556278,58.0819314 29.3998346,56.1213979 L30.8682505,54.6490133 C28.851163,56.7639951 28.9302062,60.11324 31.045188,62.1303274 C33.0950171,64.0855694 36.3212325,64.0796164 38.3637857,62.1167677 L40.0081468,60.4684379 L41.6511851,62.1167677 C43.7119281,64.1778415 47.0529049,64.1781722 49.1139786,62.1174292 C51.0516922,60.1800463 51.1843126,57.0821519 49.4192371,54.9863521 L49.4496638,54.9532797 L50.6230735,56.1266894 C52.742024,58.1391467 56.0912689,58.0528277 58.1040569,55.9335465 C60.0440855,53.8909933 60.0434241,50.6866057 58.102734,48.6443832 L59.9719877,50.5162827 C62.0400066,52.5833094 65.3918973,52.5823173 67.458924,50.5142983 C69.5259508,48.4462794 69.5249587,45.094058 67.4569397,43.0273619 L62.8704553,38.4408775 L62.8704553,38.4329401 L65.5929776,41.1567854 C67.659343,43.2234814 71.0099107,43.2234814 73.0766068,41.1567854 C75.1429721,39.09042 75.1429721,35.7398523 73.0766068,33.6731562 L71.3171536,31.9150259 L79.5508654,23.682637 L56.0204939,0.165494433 L50.4471282,0.165494433 C47.4583728,0.286539522 44.6247272,1.52807849 42.5097453,3.64339103 C38.9696726,0.10199537 34.7046522,0.0199757469 31.8895271,2.83245508 Z" id="Fill-1" fill="#00E8B4"></path><path d="M21.3069452,35.5267866 C18.9349906,35.5267866 17.9818102,30.111884 17.9818102,30.111884 L13.6900482,28.2713835 L8.7070775,31.9242862 L6.9463014,33.6837394 C4.90044097,35.7709404 4.93384412,39.1208467 7.02104509,41.1667071 C9.07517363,43.1804873 12.3619116,43.1841252 14.4206703,41.1753059 L12.5686143,43.0273619 C10.5475582,45.138375 10.6206482,48.4879506 12.7316613,50.5090067 C14.7775218,52.4675559 18.0030757,52.4678867 20.0495976,50.5096682 L21.9109139,48.647029 C19.8921729,50.7600265 19.9685702,54.109602 22.0815676,56.1286738 C24.1297431,58.0852387 27.3556278,58.0819314 29.3998346,56.1213979 L30.8682505,54.6490133 C28.851163,56.7639951 28.9302062,60.11324 31.045188,62.1303274 C33.0950171,64.0855694 36.3212325,64.0796164 38.3637857,62.1167677 L40.0081468,60.4684379 L40.3483629,52.0658749 C42.4091059,54.1269487 32.3656708,52.5756986 34.4267446,50.5149556 C36.3644582,48.5775727 31.1576994,45.1231617 29.3926238,43.0273619 L26.2691544,37 L25.3828751,37.614166 C27.5018256,39.6266233 22.6657914,37.9899101 24.6785794,35.8706289 M36.7877258,16.7493403 L37.5604087,18.6404581 C39.6284277,20.7074849 41.5354647,19.3465439 43.6024915,17.278525 C45.6695182,15.210506 48.9538088,16.1734622 46.8857899,14.1067661 L53.3398664,15 L58.1040569,19.653003 L62.2081085,22.9984695 C64.2744738,25.0651656 64.6132384,30.3380795 66.6799345,28.2713835 C68.7462998,26.2050181 75.1429721,35.7398523 73.0766068,33.6731562 L71.3171536,31.9150259 L79.5508654,23.682637 L56.0204939,0.165494433 L50.4471282,0.165494433 C47.4583728,0.286539522 44.6247272,1.52807849 42.5097453,3.64339103 C37.5873696,8.56653645 38.1578065,7.82317599 34.9382641,13.4072175" id="Shape" fill="#E8D4D4"></path><g id="Group-7" transform="translate(5.291589, 7.213097)" fill="#000000" opacity="0.149999991"><path d="M46.4280675,35.0457612 L46.1846544,35.5550766 C48.3145188,37.389935 50.5793187,39.3861867 51.7699261,40.5767942 C54.2530041,43.061195 50.9087201,47.8752177 46.1118951,49.5500055 C48.5473487,51.1652629 51.8311101,50.5001764 53.4466983,48.0650535 C54.8284643,45.9811597 54.5635542,43.2146511 52.8110462,41.4313857 L46.4280675,35.0457612 Z M31.000441,42.0161063 L29.148385,43.858902 L29.135156,43.8747768 L30.9991181,42.0094918 L31.000441,42.0161063 Z M12.8952706,30.1973432 L15.1971117,27.8941793 L12.8820417,30.2079264 L12.6902216,30.4010693 L12.7047735,30.3891633 L12.8952706,30.1973432 Z" id="Fill-3"></path><path d="M46.4784368,0.889747547 C43.8326425,-1.75604674 39.8639511,3.53554184 35.8952596,6.18133613 C32.3578327,8.54006174 29.8774005,6.69462022 29.3786683,5.32939036 C28.8306581,8.20007717 30.7134715,10.971216 33.5841583,11.5195568 C35.3029324,11.8476353 37.0729688,11.3049168 38.3121927,10.0693308 L43.0150921,5.36378569 L66.0189505,24.7111564 L69.8937162,20.8377136 C63.3850623,15.3979605 48.5355418,2.94685261 46.4784368,0.889747547 L46.4784368,0.889747547 Z M45.1555396,49.8369419 C42.8894168,53.2381105 37.7208577,51.7855694 36.2841914,51.2921288 L35.3078933,52.2697498 C32.704101,53.5850402 29.526502,52.5409437 28.2112116,49.9368206 C27.1935729,47.9230405 27.5676221,45.4856025 29.1418697,43.8693529 L27.6655165,45.3483519 L27.645673,45.3642267 C25.5174622,47.3670929 22.1685481,47.2655606 20.1656818,45.1373498 C18.243843,43.0954581 18.2488039,39.9089296 20.1765957,37.8726601 L20.3710616,37.6768713 L23.9243634,34.1222467 L20.3631242,37.6848087 L20.1845331,37.8633998 L18.3007276,39.752497 C16.1672252,41.7497409 12.8186418,41.639279 10.8213979,39.5057767 C8.91311873,37.4675229 8.91708742,34.2971999 10.8303274,32.2635762 L11.6359718,31.456609 L12.6942895,30.3982913 C10.5640944,32.3991732 7.21518024,32.2943336 5.21429831,30.1641385 C3.29444383,28.1199317 3.30271194,24.9330724 5.2331496,22.8987873 L1.66132731,26.4679638 C-0.35542939,28.5829457 -0.275724837,31.9325212 1.83925697,33.9492779 C3.8781722,35.893606 7.08322125,35.8992283 9.12908169,33.9621762 L7.27702569,35.8142322 C5.25596957,37.9252453 5.32905964,41.2748209 7.44007276,43.295877 C9.48593319,45.2547569 12.7114872,45.2550876 14.758009,43.2965384 L16.6193253,41.4338992 C14.6005843,43.5468967 14.6769816,46.8964723 16.7899791,48.915544 C18.8381546,50.8721089 22.0640392,50.8691324 24.1082461,48.9082681 L25.5766619,47.4358836 C23.5595745,49.5508654 23.6386176,52.9001102 25.7535994,54.9171977 C27.8034285,56.8724396 31.0296439,56.8664866 33.0721971,54.903638 L34.7165583,53.2553081 L36.3595965,54.903638 C38.4137251,56.9690111 41.7530482,56.9782714 43.8187521,54.9241429 C45.1571933,53.5926469 45.6820527,51.6476574 45.1952265,49.8237129 L45.1555396,49.8369419 Z" id="Fill-5"></path></g><path d="M58.4176166,33.9801014 L65.5969794,41.1647558 C67.6636754,43.2314519 71.0139125,43.2314519 73.0806085,41.1647558 C75.1469739,39.0983905 75.1469739,35.7478227 73.0806085,33.6811267 L55.3154228,15.9080035 C52.0862308,12.6801345 48.5197001,12.3732224 44.7110793,16.1831661 L43.6024915,17.278525 C41.4911476,19.2989196 38.1412413,19.2254988 36.1208467,17.114155 C34.1622974,15.0676331 34.1626282,11.8420792 36.1215081,9.79621872 L39.8639841,6.05903429 C44.1845662,1.73448352 46.6425091,0.165527505 50.2791533,0.165527505 L56.020527,0.165527505 L79.5508985,23.68267 L71.3092493,31.9243193" id="Stroke-8" stroke="#242828" stroke-width="3.5" stroke-linecap="square"></path><path d="M58.4029324,33.9788116 L67.4568405,43.0274281 C69.5248594,45.0941241 69.5258516,48.4463455 67.4588248,50.5143645 C65.391798,52.5823834 62.0399074,52.5830449 59.9718884,50.5163488 L51.7183331,42.2588248" id="Stroke-10" stroke="#242828" stroke-width="3.5" stroke-linecap="square"></path><path d="M51.719656,42.2588579 L58.1026348,48.6444824 C60.2444052,50.6327968 60.3687576,53.9810495 58.3801124,56.1224893 C56.391798,58.2645905 53.0435454,58.3886121 50.9017749,56.4002977 C50.8065263,56.3116635 50.7142542,56.2193915 50.6256201,56.1241429 L46.8857899,52.3829897" id="Stroke-12" stroke="#242828" stroke-width="3.5" stroke-linecap="square"></path><path d="M8.70965715,31.9243523 L0.176970566,23.3903429 L21.3711057,2.19091611 C21.3711057,2.19091611 24.1915224,5.47434682 26.5621541,5.47434682 C29.4381325,5.47434682 30.1419138,4.54038144 31.8537427,2.82855253 C34.6635762,0.0160732003 38.4895294,-0.187611075 42.0348938,3.35246168 M47.2932753,52.7917319 L49.1321023,54.6332047 C51.1458825,56.751163 51.0612171,60.1004079 48.9432587,62.1141881 C46.901367,64.0552089 43.6969794,64.0565318 41.6537647,62.1168339 L39.8639511,60.7322383" id="Stroke-14" stroke="#242828" stroke-width="3.5" stroke-linecap="square"></path><path d="M18.1684048,37.4223459 C20.2999228,35.4227869 20.4067468,32.0742035 18.4075185,29.9426855 C16.4079594,27.8111675 13.059376,27.7043435 10.927858,29.7035718 C10.8458384,29.7802999 10.7667953,29.8596737 10.6900672,29.9413626 L6.95288281,33.6811928 C4.9222357,35.7826149 4.97978172,39.1328519 7.08153456,41.1634991 C9.13169441,43.1445375 12.3827141,43.1448683 14.4338662,41.164822 L18.1684048,37.4223459 Z" id="Stroke-16" stroke="#242828" stroke-width="3.5" stroke-linecap="square"></path><path d="M33.1317606,52.3867931 C35.1382648,50.2622203 35.0423548,46.9129754 32.9177819,44.9064712 C30.8791974,42.9813251 27.6929997,42.9806637 25.653423,44.9044868 L21.9135928,48.6443171 C19.90775,50.769882 20.0046522,54.1187962 22.1298865,56.124639 C24.1691324,58.0491236 27.3556609,58.0487929 29.3945761,56.1239775 L33.1317606,52.3867931 Z M25.653423,44.9044868 C27.7197883,42.83746 27.7194576,39.4868923 25.6527615,37.4201962 C23.5857348,35.3538309 20.2348363,35.3541616 18.168471,37.4208577 L12.5620329,43.0272958 C10.5409767,45.1383089 10.6140668,48.4878845 12.7250799,50.5089406 C14.7709404,52.4678205 17.9964943,52.4681513 20.0430162,50.509602 L25.653423,44.9044868 Z" id="Stroke-18" stroke="#242828" stroke-width="3.5" stroke-linecap="square"></path><path d="M40.2051593,60.273972 C42.2715246,58.2069452 42.2708632,54.8567082 40.2038364,52.7903429 C38.1371403,50.7243082 34.7865726,50.724639 32.7202073,52.7916657 L30.8787344,54.6331386 C28.8480873,56.7348914 28.9056333,60.0847977 31.0073862,62.1154448 C33.057546,64.0964833 36.3088965,64.0971447 38.3597178,62.1167677 L40.2051593,60.273972 Z" id="Stroke-20" stroke="#242828" stroke-width="3.5" stroke-linecap="square"></path></g></g></g></svg>