<svg xmlns="http://www.w3.org/2000/svg" xmlns:xlink="http://www.w3.org/1999/xlink" width="169px" height="44px" viewBox="0 0 169 44"><title>logo-tomochain-white</title><desc>Created with Sketch.</desc><defs><path d="M10.8902372,2.60085455 C6.67316405,4.91645775 3.35582273,8.64060248 1.54719675,13.0891749 L1.54719675,13.0891749 C0.524690885,15.6063474 0.00610815931,18.2939375 0,20.9815276 L0,20.9815276 L0,21.069485 C0.00366489559,23.0332583 0.281586144,24.9958099 0.836817826,26.8911717 L0.836817826,26.8911717 C0.985856913,27.4005922 1.51971004,27.6919514 2.02913052,27.5429123 L2.02913052,27.5429123 C2.53855101,27.3932624 2.82991021,26.8600201 2.68087112,26.3505996 L2.68087112,26.3505996 C1.47939619,22.2495814 1.70906298,17.7961225 3.32833601,13.8129918 L3.32833601,13.8129918 C4.97020923,9.7724444 7.98397504,6.38913496 11.8150126,4.28609571 L11.8150126,4.28609571 C16.2806878,1.83366974 21.4341418,1.26744338 26.3255558,2.69186613 L26.3255558,2.69186613 C31.2175806,4.11567806 35.2617929,7.35911066 37.7142189,11.8247859 L37.7142189,11.8247859 C42.7760505,21.0438308 39.3939627,32.6627714 30.1749178,37.7239922 L30.1749178,37.7239922 C26.1563598,39.931481 21.4775098,40.6174273 17.0008398,39.6566138 L17.0008398,39.6566138 C16.4816463,39.5454453 15.971615,39.8752859 15.8598357,40.3938687 L15.8598357,40.3938687 C15.7486672,40.9130622 16.0791186,41.4237043 16.5983121,41.5354836 L16.5983121,41.5354836 C18.052054,41.8469998 19.5247312,42.0015362 20.9937436,42.0015362 L20.9937436,42.0015362 C24.5016594,42.0009254 27.9814778,41.1207396 31.0996931,39.4092334 L31.0996931,39.4092334 C36.0161506,36.7100378 39.5857589,32.2578005 41.1537234,26.873458 L41.1537234,26.873458 C42.721077,21.4885048 42.097434,15.8158572 39.3982384,10.9000106 L39.3982384,10.9000106 C36.6990428,5.984164 32.2480271,2.41333406 26.8630738,0.845980384 L26.8630738,0.845980384 C24.9188467,0.280364831 22.9355274,-3.55271368e-15 20.9650352,-3.55271368e-15 L20.9650352,-3.55271368e-15 C17.4791087,-0.000610497132 14.0304419,0.87652118 10.8902372,2.60085455 M5.45702953,21.0047386 C5.45702953,29.6685517 12.5046237,36.7155351 21.1672153,36.7155351 L21.1672153,36.7155351 C24.7679752,36.7155351 28.2850533,35.4676382 31.0728172,33.2009003 L31.0728172,33.2009003 C33.8202673,30.9665356 35.7510565,27.8428229 36.5096898,24.4039292 L36.5096898,24.4039292 C36.6245232,23.8853465 36.2965151,23.3728719 35.7785432,23.2580385 L35.7785432,23.2580385 C35.2605713,23.143816 34.7474859,23.4718241 34.6332633,23.989796 L34.6332633,23.989796 C33.9674739,27.0066159 32.2724597,29.7479578 29.8597368,31.7092878 L29.8597368,31.7092878 C27.4140298,33.6981044 24.3275769,34.7939082 21.1672153,34.7939082 L21.1672153,34.7939082 C13.5650002,34.7939082 7.37926726,28.6081753 7.37926726,21.0047386 L7.37926726,21.0047386 C7.37926726,13.4019127 13.5650002,7.21617973 21.1672153,7.21617973 L21.1672153,7.21617973 C25.7355076,7.21617973 29.998392,9.47253378 32.5729812,13.2528736 L32.5729812,13.2528736 C32.8716702,13.6920502 33.4696589,13.8050512 33.9082248,13.5057514 L33.9082248,13.5057514 C34.3467906,13.2076732 34.4604024,12.6102952 34.1611026,12.1711186 L34.1611026,12.1711186 C31.2279645,7.86547706 26.3707562,5.29394199 21.1672153,5.29394199 L21.1672153,5.29394199 C12.5046237,5.29394199 5.45702953,12.342147 5.45702953,21.0047386 M16.7687298,13.7109855 L16.7687298,15.4896815 L14.8880275,15.4896815 C14.3327958,15.4896815 13.8826245,15.9398529 13.8826245,16.4944737 L13.8826245,16.4944737 C13.8826245,17.0497054 14.3327958,17.4998767 14.8880275,17.4998767 L14.8880275,17.4998767 L16.7687298,17.4998767 L16.7687298,23.6251389 C16.7687298,25.884547 18.0392269,27.8941314 20.0842386,28.8689937 L20.0842386,28.8689937 C20.8856291,29.2513644 21.7358849,29.4388849 22.5794217,29.4388849 L22.5794217,29.4388849 C23.8633568,29.4388849 25.1295782,29.0027624 26.1771275,28.154339 L26.1771275,28.154339 C26.3157828,28.0419489 26.4550488,27.9210073 26.5918716,27.7964009 L26.5918716,27.7964009 C27.0597566,27.3669973 27.0909082,26.6401263 26.6627262,26.1728522 L26.6627262,26.1728522 C26.2339334,25.7049672 25.5070625,25.6732047 25.0397883,26.1019975 L25.0397883,26.1019975 C24.9365604,26.1960632 24.8327217,26.2858531 24.7294938,26.3689241 L24.7294938,26.3689241 C23.6752255,27.2240664 22.3082194,27.3834893 21.0731496,26.7946628 L21.0731496,26.7946628 C19.8160904,26.1960632 19.0666193,25.0110803 19.0666193,23.6251389 L19.0666193,23.6251389 L19.0666193,17.4998767 L25.9450175,17.4998767 C26.5002492,17.4998767 26.9504205,17.0497054 26.9504205,16.4944737 L26.9504205,16.4944737 C26.9504205,15.9398529 26.5002492,15.4896815 25.9450175,15.4896815 L25.9450175,15.4896815 L19.0666193,15.4896815 L19.0666193,13.7109855 C19.0666193,13.0769586 18.5510906,12.5620408 17.9176745,12.5620408 L17.9176745,12.5620408 C17.282426,12.5620408 16.7687298,13.0769586 16.7687298,13.7109855" id="path-1"></path></defs><g id="Page-1" stroke="none" stroke-width="1" fill="none" fill-rule="evenodd"><g id="Home-Copy-23" transform="translate(-134.000000, -80.000000)"><g id="logo-tomochain-white" transform="translate(135.000000, 81.000000)"><path d="M58.208,31 L58.208,17.822 L53.148,17.822 L53.148,15.49 L66.106,15.49 L66.106,17.822 L61.046,17.822 L61.046,31 L58.208,31 Z M72.706,31.176 C71.6059945,31.176 70.6416708,30.9486689 69.813,30.494 C68.9843292,30.0393311 68.3426689,29.3866709 67.888,28.536 C67.4333311,27.6853291 67.206,26.695339 67.206,25.566 C67.206,24.436661 67.4333311,23.4503376 67.888,22.607 C68.3426689,21.7636625 68.9843292,21.1146689 69.813,20.66 C70.6416708,20.2053311 71.6059945,19.978 72.706,19.978 C73.8060055,19.978 74.7703292,20.2053311 75.599,20.66 C76.4276708,21.1146689 77.0656644,21.7636625 77.513,22.607 C77.9603356,23.4503376 78.184,24.436661 78.184,25.566 C78.184,26.695339 77.9603356,27.6853291 77.513,28.536 C77.0656644,29.3866709 76.4276708,30.0393311 75.599,30.494 C74.7703292,30.9486689 73.8060055,31.176 72.706,31.176 Z M72.684,29.042 C73.5786711,29.042 74.2606643,28.7486696 74.73,28.162 C75.1993357,27.5753304 75.434,26.7100057 75.434,25.566 C75.434,24.436661 75.1993357,23.575003 74.73,22.981 C74.2606643,22.386997 73.5860044,22.09 72.706,22.09 C71.8259956,22.09 71.147669,22.386997 70.671,22.981 C70.1943309,23.575003 69.956,24.436661 69.956,25.566 C69.956,26.7100057 70.1906643,27.5753304 70.66,28.162 C71.1293357,28.7486696 71.8039956,29.042 72.684,29.042 Z M93.232,19.978 C94.4493394,19.978 95.3586637,20.3409964 95.96,21.067 C96.5613363,21.7930036 96.862,22.9039925 96.862,24.4 L96.862,31 L94.112,31 L94.112,24.51 C94.112,23.6886626 93.9726681,23.0910019 93.694,22.717 C93.4153319,22.3429981 92.9680031,22.156 92.352,22.156 C91.618663,22.156 91.0466687,22.4053308 90.636,22.904 C90.2253313,23.4026692 90.02,24.0993289 90.02,24.994 L90.02,31 L87.27,31 L87.27,24.51 C87.27,23.6886626 87.1343347,23.0910019 86.863,22.717 C86.5916653,22.3429981 86.1406698,22.156 85.51,22.156 C84.7913297,22.156 84.2266687,22.4053308 83.816,22.904 C83.4053313,23.4026692 83.2,24.0993289 83.2,24.994 L83.2,31 L80.45,31 L80.45,20.242 L83.134,20.242 L83.134,21.76 C83.4566683,21.1733304 83.9039971,20.7296682 84.476,20.429 C85.0480029,20.1283318 85.700663,19.978 86.434,19.978 C88.0620081,19.978 89.1399974,20.6526599 89.668,22.002 C90.005335,21.3713302 90.4893302,20.8763351 91.12,20.517 C91.7506698,20.1576649 92.4546628,19.978 93.232,19.978 Z M104.562,31.176 C103.461994,31.176 102.497671,30.9486689 101.669,30.494 C100.840329,30.0393311 100.198669,29.3866709 99.744,28.536 C99.2893311,27.6853291 99.062,26.695339 99.062,25.566 C99.062,24.436661 99.2893311,23.4503376 99.744,22.607 C100.198669,21.7636625 100.840329,21.1146689 101.669,20.66 C102.497671,20.2053311 103.461994,19.978 104.562,19.978 C105.662005,19.978 106.626329,20.2053311 107.455,20.66 C108.283671,21.1146689 108.921664,21.7636625 109.369,22.607 C109.816336,23.4503376 110.04,24.436661 110.04,25.566 C110.04,26.695339 109.816336,27.6853291 109.369,28.536 C108.921664,29.3866709 108.283671,30.0393311 107.455,30.494 C106.626329,30.9486689 105.662005,31.176 104.562,31.176 Z M104.54,29.042 C105.434671,29.042 106.116664,28.7486696 106.586,28.162 C107.055336,27.5753304 107.29,26.7100057 107.29,25.566 C107.29,24.436661 107.055336,23.575003 106.586,22.981 C106.116664,22.386997 105.442004,22.09 104.562,22.09 C103.681996,22.09 103.003669,22.386997 102.527,22.981 C102.050331,23.575003 101.812,24.436661 101.812,25.566 C101.812,26.7100057 102.046664,27.5753304 102.516,28.162 C102.985336,28.7486696 103.659996,29.042 104.54,29.042 Z M119.588,31.198 C118.062659,31.198 116.731672,30.8716699 115.595,30.219 C114.458328,29.5663301 113.58567,28.6386727 112.977,27.436 C112.36833,26.2333273 112.064,24.8326747 112.064,23.234 C112.064,21.6353253 112.36833,20.2383393 112.977,19.043 C113.58567,17.8476607 114.458328,16.9236699 115.595,16.271 C116.731672,15.6183301 118.062659,15.292 119.588,15.292 C120.629339,15.292 121.611995,15.4533317 122.536,15.776 C123.460005,16.0986683 124.23733,16.5533304 124.868,17.14 L123.922,19.208 C123.217996,18.6506639 122.521337,18.243668 121.832,17.987 C121.142663,17.7303321 120.409337,17.602 119.632,17.602 C118.135993,17.602 116.981004,18.0859952 116.167,19.054 C115.352996,20.0220048 114.946,21.4153242 114.946,23.234 C114.946,25.0673425 115.352996,26.4679952 116.167,27.436 C116.981004,28.4040048 118.135993,28.888 119.632,28.888 C120.409337,28.888 121.142663,28.759668 121.832,28.503 C122.521337,28.2463321 123.217996,27.8393361 123.922,27.282 L124.868,29.35 C124.23733,29.9366696 123.460005,30.3913317 122.536,30.714 C121.611995,31.0366683 120.629339,31.198 119.588,31.198 Z M133.47,19.978 C134.760673,19.978 135.72133,20.344663 136.352,21.078 C136.98267,21.811337 137.298,22.9186593 137.298,24.4 L137.298,31 L134.548,31 L134.548,24.554 C134.548,23.7179958 134.390335,23.1093352 134.075,22.728 C133.759665,22.3466648 133.26467,22.156 132.59,22.156 C131.797996,22.156 131.163669,22.4053308 130.687,22.904 C130.210331,23.4026692 129.972,24.0699958 129.972,24.906 L129.972,31 L127.222,31 L127.222,15.49 L129.972,15.49 L129.972,21.738 C130.338668,21.1659971 130.82633,20.7296682 131.435,20.429 C132.04367,20.1283318 132.722,19.978 133.47,19.978 Z M144.712,19.978 C146.222674,19.978 147.344663,20.344663 148.078,21.078 C148.811337,21.811337 149.178,22.940659 149.178,24.466 L149.178,31 L146.56,31 L146.56,29.35 C146.310665,29.9220029 145.918336,30.3693317 145.383,30.692 C144.847664,31.0146683 144.228004,31.176 143.524,31.176 C142.80533,31.176 142.15267,31.0293348 141.566,30.736 C140.97933,30.4426652 140.517335,30.0393359 140.18,29.526 C139.842665,29.0126641 139.674,28.4406698 139.674,27.81 C139.674,27.017996 139.875665,26.3946689 140.279,25.94 C140.682335,25.4853311 141.338662,25.1553344 142.248,24.95 C143.157338,24.7446656 144.411325,24.642 146.01,24.642 L146.56,24.642 L146.56,24.136 C146.56,23.402663 146.402335,22.8746683 146.087,22.552 C145.771665,22.2293317 145.247337,22.068 144.514,22.068 C143.941997,22.068 143.344336,22.166999 142.721,22.365 C142.097664,22.563001 141.485336,22.8379982 140.884,23.19 L140.114,21.298 C140.715336,20.9166648 141.441329,20.6013346 142.292,20.352 C143.142671,20.1026654 143.94933,19.978 144.712,19.978 Z M144.074,29.196 C144.807337,29.196 145.404998,28.9503358 145.867,28.459 C146.329002,27.9676642 146.56,27.3333372 146.56,26.556 L146.56,26.094 L146.164,26.094 C145.181328,26.094 144.418669,26.1379996 143.876,26.226 C143.333331,26.3140004 142.944668,26.4679989 142.71,26.688 C142.475332,26.9080011 142.358,27.2086648 142.358,27.59 C142.358,28.0593357 142.519332,28.4443318 142.842,28.745 C143.164668,29.0456682 143.575331,29.196 144.074,29.196 Z M151.972,31 L151.972,20.242 L154.722,20.242 L154.722,31 L151.972,31 Z M151.818,15.248 L154.854,15.248 L154.854,17.954 L151.818,17.954 L151.818,15.248 Z M163.808,19.978 C165.098673,19.978 166.05933,20.344663 166.69,21.078 C167.32067,21.811337 167.636,22.9186593 167.636,24.4 L167.636,31 L164.886,31 L164.886,24.554 C164.886,23.7179958 164.728335,23.1093352 164.413,22.728 C164.097665,22.3466648 163.60267,22.156 162.928,22.156 C162.135996,22.156 161.501669,22.4053308 161.025,22.904 C160.548331,23.4026692 160.31,24.0699958 160.31,24.906 L160.31,31 L157.56,31 L157.56,20.242 L160.244,20.242 L160.244,21.848 C160.610668,21.2466637 161.101997,20.7846683 161.718,20.462 C162.334003,20.1393317 163.030663,19.978 163.808,19.978 Z" id="TomoChain" fill="#FFFFFF" fill-rule="nonzero"></path><mask id="mask-2" fill="white"><use xlink:href="#path-1"></use></mask><use id="Clip-18" stroke="#00E8B4" stroke-width="0.5" fill="#00E8B4" xlink:href="#path-1"></use></g></g></g></svg>