<svg xmlns="http://www.w3.org/2000/svg" xmlns:xlink="http://www.w3.org/1999/xlink" width="81px" height="78px" viewBox="0 0 81 78"><title>Privacy</title><desc>Created with Sketch.</desc><g id="Page-1" stroke="none" stroke-width="1" fill="none" fill-rule="evenodd"><g id="Home-Copy-23" transform="translate(-723.000000, -1428.000000)"><g id="Privacy" transform="translate(726.000000, 1430.000000)"><path d="M37.4012342,65.9500972 C42.2212647,61.1300667 45.9158058,57.9077418 48.6292138,55.4292185 L47.5722325,51.9071709 C50.6122771,48.4459853 52.386452,44.0550477 52.6039039,39.4533867 C56.3045618,39.4081224 57.7787093,34.4902233 57.7787093,33.3365968 C57.7787093,32.1829702 57.7946118,27.2846448 54.1086342,27.2198068 L54.1086342,26.352446 C49.1112168,26.8491294 43.3687745,27.2210302 37.3486298,27.2210302 C31.1180676,27.2210302 25.0856894,26.8222155 19.8546107,26.2986183 L19.8546107,27.2295937 C16.1845368,27.2650711 16.0365104,31.8563336 16.0365104,33.0111835 C16.0365104,34.1660335 16.7852055,39.4533867 20.5103306,39.4533867 C20.5103306,43.5161585 22.7784363,48.0572633 25.5811494,51.2624613 L24.5302849,55.9234552 C27.6180405,58.7212749 32.0331394,62.0402451 37.1883699,66.0406257 L37.4012342,65.9500972 Z" id="Fill-1" fill="#E8D4D4"></path><path d="M59.6662883,60.4951439 L54.0388416,49.2402505 C52.3542777,52.9470252 47.1880369,56.1656801 37.4011731,65.9525439 L37.1895321,66.0455191 C27.1310828,58.2404952 19.8545495,53.0106398 19.8545495,49.2402505 L14.3347583,60.283503 C0.280821825,62.9895709 0.280821825,73.7074102 0.280821825,73.7074102 L73.6823007,73.7074102 C73.6823007,73.7074102 73.6761839,63.6758747 59.6662883,60.4951439 M2.72753779,23.8359987 C14.1460554,25.9976722 25.7352314,27.1301959 37.3559088,27.2198068 C48.7306913,27.1607798 60.0739724,26.0279503 71.2355848,23.8359987 C71.2355848,23.8359987 60.2498301,19.565256 54.4939308,15.1636139 C51.5126074,8.79358892 48.1263525,0.305931247 46.7023638,0.305931247 C45.2783751,0.305931247 39.8601226,4.15828553 36.9815613,4.15828553 C34.1029999,4.15828553 28.3434306,0.305931247 27.1237427,0.305931247 C25.9040548,0.305931247 19.9438547,15.1636139 19.264891,15.7043382 C18.5859273,16.2450624 2.72753779,23.8359987 2.72753779,23.8359987" id="Fill-3" fill="#00E8B4"></path><path d="M39.1505444,27.21002 L39.1505444,27.2210302 C39.1505444,32.2367979 41.7501801,34.5611781 46.643612,34.5611781 C51.50646,34.5611781 54.0791818,29.7325841 54.1122125,26.3536694 C49.6090318,26.7989717 44.5088524,27.145182 39.1505444,27.21002 L39.1505444,27.21002 Z M19.724843,26.2851613 C19.724843,29.6665228 22.3012349,34.5599547 27.1946668,34.5599547 C32.0880988,34.5599547 34.6877345,32.2355746 34.6877345,27.2198068 L34.6950746,27.1941163 C29.6936814,27.095636 24.698099,26.7919374 19.7211729,26.283938 L19.724843,26.2851613 Z" id="Fill-5" fill="#242828"></path><g id="Group-11" transform="translate(0.000000, 0.099398)" fill="#000000" opacity="0.149999991"><path d="M27.806407,17.4865261 C27.806407,17.4865261 29.641444,4.36601172 35.7582339,4.36601172 L35.7582339,4.06017222 C35.8597726,4.0506912 35.9606996,4.0360109 36.0604033,4.01613133 C33.052166,3.58795604 28.0938961,0.206594579 26.9500564,0.206594579 C25.7266984,0.206594579 19.8545801,15.0642773 19.1780632,15.6050015 C18.5015462,16.1457257 2.68352748,23.736662 2.68352748,23.736662 C2.68352748,23.736662 7.5219083,24.7557192 14.9978489,25.6756844 C14.5598868,24.184411 27.806407,17.4865261 27.806407,17.4865261 L27.806407,17.4865261 Z M19.7224575,26.1858247 C18.2033527,26.0319874 16.6857771,25.861329 15.1703424,25.674461 C15.2253935,25.8628582 15.4859688,25.9729604 16.0328098,25.9729604 C17.2696247,26.0108845 18.5036871,26.1121174 19.7297976,26.2763532 C19.7297976,26.2482159 19.7224575,26.2151853 19.7224575,26.1858247 L19.7224575,26.1858247 Z M35.2688907,27.1057899 L34.689019,27.0947797 L34.7012526,27.0947797 L35.2688907,27.1057899 Z" id="Fill-7"></path><path d="M56.5565123,65.0445676 L51.4404293,67.031301 L50.4397224,73.6080735 L54.1097964,73.6080735 L54.1097964,71.1613575 L58.6973888,69.9379995 L56.5565123,65.0445676 Z M54.6908914,27.2623797 C54.8921338,26.8837504 55.0630981,26.4898291 55.2022551,26.084286 C55.2209113,26.0335166 55.2389558,25.9824414 55.2560828,25.9313662 C39.2998247,28.9236998 26.5499878,27.0641957 19.729767,26.2726831 C19.7352721,26.5592547 19.7566809,26.8449088 19.7933816,27.1290337 C16.1869223,27.2171155 16.0376726,31.7569969 16.0376726,32.9045067 C16.0376726,34.0520165 16.7851444,39.35405 20.5102694,39.35405 C20.5102694,43.4168219 22.7783751,47.9579267 25.5810882,51.1631246 L24.5302237,55.8241185 C24.2647551,55.5794469 24.0054032,55.3457855 23.7607316,55.1133475 C23.6579695,55.0167022 23.5637709,54.9225037 23.4646789,54.8270817 C23.260684,54.6288978 23.064335,54.4334663 22.8750204,54.2410933 L22.6083283,53.9682844 C22.3694677,53.7168844 22.1449815,53.4725186 21.9354815,53.2342697 C21.8633033,53.1510813 21.797242,53.0703397 21.7299573,52.9895981 C21.5669449,52.7938608 21.4134134,52.6017936 21.2699747,52.4133964 C21.2185937,52.3448884 21.1623192,52.275157 21.1133849,52.206649 C20.9026615,51.9148781 20.7078417,51.6117911 20.5298431,51.2989173 C20.4270811,51.1172487 20.3325767,50.9312983 20.2460241,50.7410661 C20.2240036,50.6921318 20.1970898,50.6419741 20.177516,50.5942631 C20.093716,50.3890448 20.025208,50.1780156 19.9719919,49.9630104 C19.9557824,49.8969491 19.9411021,49.8302761 19.927951,49.7636031 C19.8900269,49.5779585 19.8683123,49.3892555 19.863113,49.199635 C19.863113,49.1800613 19.251434,49.1592642 19.251434,49.1396905 C17.4887614,52.6611353 15.6459764,56.3426273 13.7230793,60.1841663 C13.7059523,60.1841663 13.9971115,60.1915065 13.9799845,60.1951766 C13.5603727,60.2771416 13.3046909,60.3652233 12.9095463,60.4606453 C12.898536,60.4606453 12.963374,60.7628147 12.9523638,60.7664847 C12.5511024,60.86313 12.2379227,61.3781637 11.8623518,61.3781637 C7.62096972,62.5978516 4.92958216,64.3839543 3.22666784,66.4893534 C3.22666784,66.4954702 3.21565762,66.3560074 3.20954083,66.3670176 C3.06273788,66.5505213 2.92082835,66.6594001 2.78870569,66.8429038 C2.77402539,66.8637009 2.76056845,66.8429038 2.74588816,66.867371 C2.62355236,67.0374178 2.50121656,67.1891142 2.39600778,67.3567142 C2.37031726,67.3946383 2.34829681,67.4239989 2.32382965,67.461923 C2.22840773,67.612396 2.13420917,67.7579756 2.04735075,67.9072253 C2.00575658,67.9781801 1.9702792,68.0454647 1.92501495,68.1151961 C1.86017698,68.2301918 1.79411565,68.3451874 1.73417111,68.4601831 C1.67422657,68.5751787 1.62529225,68.6791642 1.5714645,68.788043 C1.53598711,68.8614445 1.49806302,68.9336226 1.46503235,69.0045774 C1.39163087,69.1611672 1.32556954,69.314087 1.26073157,69.4670067 C1.2509447,69.4890272 1.23993448,70.1251733 1.23137098,70.1459704 C0.715113908,71.2356765 0.39306492,72.4073476 0.280821825,73.6080735 L24.4042179,73.6080735 L24.7479815,72.9963945 L22.3012655,66.419622 L19.8545495,65.1216392 L23.5246235,55.6247112 C23.5246235,55.6247112 23.864717,56.4810617 24.5400106,56.4810617 L24.5400106,55.9953886 C26.7261513,57.2863371 28.8358322,58.7026798 30.8586546,60.2367707 C36.9754445,65.1302027 41.8590895,58.9779354 43.0824475,54.0845035 C27.1763471,60.2012934 24.7112807,41.8203397 24.7112807,32.0334758 C47.3813275,34.1927027 52.8729815,30.6510813 54.6908914,27.2623797 Z" id="Fill-9"></path></g><path d="M12.9645823,61.4738915 C-1.23738052,64.1285783 0.280852409,73.7075325 0.280852409,73.7075325 L73.6823313,73.7075325 C73.6823313,73.7075325 74.6410401,63.8105853 60.6825255,60.621291 M44.6312493,54.4641114 C48.717265,51.9684612 52.6026499,45.2240886 52.6026499,39.4522856 C56.3033078,39.4082448 57.778679,34.4903457 57.778679,33.3367191 C57.778679,32.1830925 57.7958046,27.2847672 54.1086036,27.2199292 M19.3774705,27.229716 C15.6523454,27.2651934 15.797925,31.8564559 15.797925,33.0113059 C15.797925,34.1661558 16.6665092,39.453509 20.3916343,39.453509 C20.3916343,45.2204185 25.0795421,51.9660144 29.1655577,54.4604414" id="Stroke-12" stroke="#242828" stroke-width="3.2" stroke-linecap="square"></path><path d="M19.8545801,49.2403117 C19.8545801,54.1337436 32.0881599,61.4738915 46.7684557,73.7074713 L24.748012,73.7074713 L22.3012961,66.3673234 L12.5144322,63.9206075 L19.8545801,49.2403117 Z" id="Stroke-14" stroke="#242828" stroke-width="3.2" stroke-linecap="square"></path><path d="M54.1086036,26.3525378 C54.1086036,29.7326759 51.5322117,34.5600465 46.6387798,34.5600465 C41.7453478,34.5600465 39.1457121,32.2356663 39.1457121,27.2198986 M19.7249042,26.2852531 C19.7249042,29.6666146 22.3012961,34.5600465 27.194728,34.5600465 C32.0881599,34.5600465 34.6877956,32.2356663 34.6877956,27.2198986 M49.3876652,73.2544342 L51.5897095,66.367354 L61.3765734,63.920638 L54.0364255,49.2403423 C52.3518615,52.947117 47.1856208,56.1657718 37.3987569,65.9526357" id="Stroke-16" stroke="#242828" stroke-width="3.2" stroke-linecap="square"></path><path d="M2.72756837,23.8360904 C14.1466976,25.997764 25.7367911,27.1302876 37.3583861,27.2198986 C48.7319453,27.1605657 60.0749205,26.0277362 71.2356153,23.8360904 C71.2356153,23.8360904 60.2498607,19.5653477 54.492738,15.1637057 C51.5150847,8.79368068 48.1288298,0.306022999 46.7048411,0.306022999 C45.2808524,0.306022999 39.8625999,4.15837728 36.9815919,4.15837728 C34.1005838,4.15837728 28.3459079,0.306022999 27.12622,0.306022999 C25.9065321,0.306022999 19.946332,15.1637057 19.2673683,15.7044299 C18.5884046,16.2451541 2.72756837,23.8360904 2.72756837,23.8360904 Z" id="Stroke-18" stroke="#242828" stroke-width="3.5" stroke-linecap="square"></path><path d="M20.1497977,14.9862882 C25.7995707,16.4090535 31.1590807,17.2290092 36.981653,17.4330042 C42.8794619,17.235126 48.3554569,16.2992571 54.1086036,14.9862882" id="Stroke-20" stroke="#242828" stroke-width="3" stroke-linecap="square"></path></g></g></g></svg>