<svg xmlns="http://www.w3.org/2000/svg" xmlns:xlink="http://www.w3.org/1999/xlink" width="64px" height="73px" viewBox="0 0 64 73"><title>Security</title><desc>Created with Sketch.</desc><g id="Page-1" stroke="none" stroke-width="1" fill="none" fill-rule="evenodd"><g id="Home-Copy-23" transform="translate(-133.000000, -1430.000000)"><g id="Security" transform="translate(135.000000, 1432.000000)"><g id="Group-11"><path d="M59.85511,0.142133971 L59.85511,25.479933 C59.6197033,36.6359139 55.54889,47.0942871 48.6905167,55.3249091 L11.3067847,55.3249091 C4.44554067,47.0942871 0.374727273,36.6359139 0.142191388,25.479933 L0.142191388,0.142133971 L59.85511,0.142133971 Z" id="Fill-3" fill="#00E8B4"></path><path d="M48.3837321,55 C43.4602871,60.908134 37.0985646,65.6679426 29.6861244,68.7167464 C22.2794258,65.6708134 15.9177033,60.908134 11,55 L48.3837321,55 Z" id="Fill-1" fill="#E8D4D4"></path><path d="M0.143598086,0.14354067 L0.143598086,25.4801914 C0.544650718,44.6451675 12.2653206,61.7503349 29.9931675,69.0430622 L30.0000574,69.0407656 L30.0000574,0.14354067 L0.143598086,0.14354067 Z" id="Fill-5" fill="#000000" opacity="0.149999991"></path><path d="M0.143598086,0.14354067 L59.8565167,0.14354067 L59.8565167,25.4801914 C59.451445,44.6480383 47.7253206,61.7534928 29.9931675,69.0430622 C12.2653206,61.7503349 0.544650718,44.6451675 0.143598086,25.4801914 L0.143598086,0.14354067 Z" id="Stroke-7" stroke="#242828" stroke-width="3.5" stroke-linecap="square"></path><polyline id="Stroke-9" stroke="#242828" stroke-width="3.5" stroke-linecap="square" points="44.4987847 19.9957512 28.4222297 36.0723062 20.3839522 28.0340287"></polyline></g><path d="M49.6904593,54.5 C49.6904593,54.5 36.384937,54.5 9.77389239,54.5 C36.384937,54.5 49.6904593,54.5 49.6904593,54.5 Z" id="Triangle-Copy" stroke="#242828" stroke-width="3.5"></path></g></g></g></svg>