<?xml version="1.0" encoding="UTF-8"?>
<svg width="493px" height="372px" viewBox="0 0 493 372" version="1.1" xmlns="http://www.w3.org/2000/svg" xmlns:xlink="http://www.w3.org/1999/xlink">
    <!-- Generator: Sketch 57.1 (83088) - https://sketch.com -->
    <title>visual-maintain</title>
    <defs>
		<style>

        @keyframes spin1 {
            from {
                transform: rotate(0deg);
                transform-origin: 41% 43.5%;
            }
            to {
                transform: rotate(360deg);
                transform-origin: 41% 43.5%;
            }
        }
        .spin1 {
            animation-name: spin1;
            animation-duration: 5s;
            animation-iteration-count: infinite;
            animation-timing-function: linear;
        }
        @keyframes spin2 {
            from {
                transform: rotate(0deg);
                transform-origin: 56.5% 36.5%;
            }
            to {
                transform: rotate(-360deg);
                transform-origin: 56.5% 36.5%;
            }
        }
        .spin2 {
            animation-name: spin2;
            animation-duration: 5s;
            animation-iteration-count: infinite;
            animation-timing-function: linear;
        }
        @keyframes iconPC {
            0% {
                transform: translate(-10px,-10px);
            }
            50% {
                transform: translate(-10px,10px);
            }
            100% {
                transform: translate(-10px,-10px);
            }
        }
        .iconPC {
            animation-name: iconPC;
            animation-iteration-count: infinite;
            animation-duration: 5s;
        }

        @keyframes cl_red {
            0% {
                transform: translateX(10px) rotateY(0deg);
            }
            50% {
                transform: translateX(10px) rotateY(40deg);
            }
            100% {
                transform: translateX(10px) rotateY(0deg);
            }
        }
        @keyframes cl_green {
            0% {
                transform: translateX(10px) rotateY(0deg);
            }
            50% {
                transform: translateX(10px) rotateY(40deg);
            }
            100% {
                transform: translateX(10px) rotateY(0deg);
            }
        }
        @keyframes cl_blue {
            0% {
                transform: translateX(10px) rotateY(0deg);
            }
            50% {
                transform: translateX(10px) rotateY(40deg);
            }
            100% {
                transform: translateX(10px) rotateY(0deg);
            }
        }
        .code_ani .cls-23 {
            transform: translateX(10px) rotateY(0deg);
            animation-name: cl_red;
            animation-iteration-count: infinite;
            animation-duration: 8s;
        }
        .code_ani .cls-26 {
            transform: translateX(10px) rotateY(0deg);
            animation-name: cl_green;
            animation-iteration-count: infinite;
            animation-duration: 8s;
            animation-delay: 1.5s;
        }
        .code_ani .cls-20 {
            transform: translateX(10px) rotateY(0deg);
            animation-name: cl_blue;
            animation-iteration-count: infinite;
            animation-duration: 8s;
            animation-delay: 2.5s;
        }

        @keyframes cl_13 {
            0% {
                transform: translateX(15px) rotateY(-10deg);
            }
            50% {
                transform: translateX(15px) rotateY(20deg);
            }
            100% {
                transform: translateX(15px) rotateY(-10deg);
            }
        }
        @keyframes cl_16 {
            0% {
                transform: rotateY(-10deg);
            }
            50% {
                transform: rotateY(10deg);
            }
            100% {
                transform: rotateY(-10deg);
            }
        }
        @keyframes cl_10 {
            0% {
                transform: translateX(15px) rotateY(-10deg);
            }
            50% {
                transform: translateX(15px) rotateY(20deg);
            }
            100% {
                transform: translateX(15px) rotateY(-10deg);
            }
        }
        .code_ani .cls-13 {
            transform: translateX(15px) rotateY(-10deg);
            animation-name: cl_13;
            animation-iteration-count: infinite;
            animation-duration: 8s;
        }
        .code_ani .cls-16 {
            transform: rotateY(-10deg);
            animation-name: cl_16;
            animation-iteration-count: infinite;
            animation-duration: 8s;
            animation-delay: 1.5s;
        }
        .code_ani .cls-10 {
            transform: translateX(15px) rotateY(-10deg);
            animation-name: cl_10;
            animation-iteration-count: infinite;
            animation-duration: 8s;
            animation-delay: 2.5s;
        }
        @keyframes TomoPlus1 {
            0% {
                transform: translate(10px,20px);
            }
            50% {
                transform: translate(50px,0px);
            }
            100% {
                transform: translate(10px,20px);
            }
        }
        .plus1 {
            animation-name: TomoPlus1;
            animation-iteration-count: infinite;
            animation-duration: 6s;
        }
        @keyframes LeftToRight {
            0% {
                transform: translateX(-50px);
            }
            50% {
                transform: translateX(0px);
            }
            100% {
                transform: translateX(-50px);
            }
        }
        .left-to-right {
            animation-name: LeftToRight;
            animation-iteration-count: infinite;
            animation-duration: 4s;
        }
        .left-to-right2 {
            animation-name: LeftToRight;
            animation-iteration-count: infinite;
            animation-duration: 6s;
        }
        @keyframes RightToLeft {
            0% {
                transform: translateX(50px);
            }
            50% {
                transform: translateX(0px);
            }
            100% {
                transform: translateX(50px);
            }
        }
        .right-to-left {
            animation-name: RightToLeft;
            animation-iteration-count: infinite;
            animation-duration: 5s;
        }
    </style>
    </defs>
    <g id="Page-1" stroke="none" stroke-width="1" fill="none" fill-rule="evenodd">
        <g id="Maintenance-Copy" transform="translate(-824.000000, -237.000000)">
            <g id="visual-maintain" transform="translate(824.000000, 238.000000)">
                <polygon id="Clip-8" points="11 356.309463 481 356.309463 481 57 11 57"></polygon>
                <g class="left-to-right2">
                    <polygon id="Fill-9" fill="#fabc45" points="239 326 294.294118 326 294.294118 299 239 299"></polygon>
                </g>
                <path d="M220,346 L274,346 L274,286 L220,286 L220,346 Z M219,347 L275,347 L275,285 L219,285 L219,347 Z" id="Fill-13" stroke="#FFFFFF" stroke-width="3" fill="#FFFFFF"></path>
                <path d="M386.038363,285.98977 L109.567775,285.98977 C102.956522,285.98977 97.5473146,280.580563 97.5473146,273.969309 L97.5473146,69.6214834 C97.5473146,63.0102302 102.956522,57.601023 109.567775,57.601023 L386.038363,57.601023 C392.649616,57.601023 398.058824,63.0102302 398.058824,69.6214834 L398.058824,273.969309 C398.058824,280.580563 392.649616,285.98977 386.038363,285.98977" id="Fill-1" fill="#242828"></path>
                <path d="M109.567775,229.493606 L109.567775,76.8337596 C109.567775,72.8513811 112.797673,69.6214834 116.780051,69.6214834 L378.826087,69.6214834 C382.808465,69.6214834 386.038363,72.8513811 386.038363,76.8337596 L386.038363,229.493606 C386.038363,233.475985 382.808465,236.705882 378.826087,236.705882 L116.780051,236.705882 C112.797673,236.705882 109.567775,233.475985 109.567775,229.493606" id="Fill-3" fill="rgb(250, 188, 69)"></path>
                <path d="M109.567775,76.8337596 L109.567775,211.459309 C130.378798,221.841381 153.847545,227.690537 178.685422,227.690537 C264.325192,227.690537 333.749361,158.266368 333.749361,72.6265985 C333.749361,71.621688 333.730128,70.6215857 333.712097,69.6214834 L116.780051,69.6214834 C112.797673,69.6214834 109.567775,72.8513811 109.567775,76.8337596" id="Fill-5" fill="#FFFFFF"></path>
                <polygon id="Fill-10" stroke="#FFFFFF" stroke-width="3" fill="#FFFFFF" points="23 348.202046 459.342711 348.202046 459.342711 347 23 347"></polygon>
                <path d="M109.407631,58 C103.117823,58 98,63.1189101 98,69.4100529 L98,273.589947 C98,279.88109 103.117823,285 109.407631,285 L385.592369,285 C391.882177,285 397,279.88109 397,273.589947 L397,69.4100529 C397,63.1189101 391.882177,58 385.592369,58 L109.407631,58 Z M386.366534,286 L109.633466,286 C102.667012,286 97,280.352932 97,273.410995 L97,69.5890052 C97,62.6470681 102.667012,57 109.633466,57 L386.366534,57 C393.332988,57 399,62.6470681 399,69.5890052 L399,273.410995 C399,280.352932 393.332988,286 386.366534,286 L386.366534,286 Z" id="Fill-11" stroke="#FFFFFF" stroke-width="3" fill="#FFFFFF"></path>
                <path d="M116.780051,70.2225064 C113.135448,70.2225064 110.168798,73.187954 110.168798,76.8337596 L110.168798,229.493606 C110.168798,233.13821 113.135448,236.104859 116.780051,236.104859 L378.826087,236.104859 C382.470691,236.104859 385.43734,233.13821 385.43734,229.493606 L385.43734,76.8337596 C385.43734,73.187954 382.470691,70.2225064 378.826087,70.2225064 L116.780051,70.2225064 Z M378.826087,237.306905 L116.780051,237.306905 C112.471918,237.306905 108.966752,233.801739 108.966752,229.493606 L108.966752,76.8337596 C108.966752,72.5256266 112.471918,69.0204604 116.780051,69.0204604 L378.826087,69.0204604 C383.13422,69.0204604 386.639386,72.5256266 386.639386,76.8337596 L386.639386,229.493606 C386.639386,233.801739 383.13422,237.306905 378.826087,237.306905 L378.826087,237.306905 Z" id="Fill-12" stroke="#fabc45" stroke-width="3" fill="#fabc45"></path>
                <g class="spin1">
                    <path d="M255.015345,169.21232 L255.015345,152.741885 C255.015345,150.651527 253.32046,148.956642 251.230102,148.956642 L249.238312,148.956642 C247.650409,148.956642 246.225985,147.966156 245.693478,146.470811 C244.939795,144.35521 244.038261,142.311731 243.003299,140.349992 C242.231586,138.888304 242.506854,137.097256 243.674041,135.928867 L244.497442,135.106668 C245.974757,133.628151 245.974757,131.231271 244.497442,129.752754 L232.85202,118.107332 C231.372302,116.628816 228.976624,116.628816 227.496905,118.107332 L226.323708,119.281731 C225.180563,120.424877 223.443606,120.706156 221.990332,120.000555 C219.940844,119.002857 217.807212,118.150606 215.603862,117.457026 C214.024373,116.960581 212.943734,115.508509 212.943734,113.85209 L212.943734,113.074366 C212.943734,110.984008 211.248849,109.289123 209.158491,109.289123 L192.688056,109.289123 C190.597698,109.289123 188.902813,110.984008 188.902813,113.074366 L188.902813,114.253573 C188.902813,115.871527 187.87266,117.303164 186.341253,117.826054 C184.042941,118.609788 181.823964,119.565414 179.702353,120.680913 C178.232251,121.453829 176.437596,121.191783 175.263197,120.017384 L175.052839,119.807026 C173.574322,118.328509 171.177442,118.328509 169.698926,119.807026 L158.053504,131.45365 C156.574987,132.930964 156.574987,135.329046 158.053504,136.806361 L158.629284,137.383343 C159.768824,138.52168 160.057315,140.255031 159.351714,141.703496 C158.271074,143.929685 157.359923,146.254442 156.636292,148.660939 C156.156675,150.260862 154.691381,151.360734 153.020537,151.360734 C150.930179,151.360734 149.235294,153.055619 149.235294,155.145977 L149.235294,171.616412 C149.235294,173.70677 150.930179,175.401655 153.020537,175.401655 L153.809079,175.401655 C155.405396,175.401655 156.826215,176.404161 157.362327,177.907921 C158.20376,180.269941 159.227903,182.544212 160.420332,184.713905 C161.231714,186.192422 160.981688,188.021936 159.789258,189.214366 L159.753197,189.251629 C158.275882,190.730146 158.275882,193.127026 159.753197,194.605542 L171.398619,206.250964 C172.878338,207.728279 175.274015,207.728279 176.752532,206.250964 L177.539872,205.464826 C178.661381,204.342115 180.361074,204.044008 181.799923,204.712345 C183.967212,205.717256 186.223453,206.55989 188.55422,207.228228 C190.179386,207.694621 191.306905,209.170734 191.306905,210.860811 L191.306905,211.283931 C191.306905,213.374289 193.00179,215.069174 195.092148,215.069174 L211.562583,215.069174 C213.652941,215.069174 215.347826,213.374289 215.347826,211.283931 L215.347826,209.68521 C215.347826,208.105721 216.332302,206.696923 217.814425,206.146386 C219.973299,205.344621 222.054041,204.387793 224.049437,203.290325 C225.53156,202.475338 227.365882,202.719353 228.561918,203.915389 L229.197801,204.551271 C230.676317,206.028586 233.071995,206.028586 234.551714,204.551271 L246.197136,192.904647 C247.675652,191.42613 247.675652,189.029251 246.197136,187.551936 L244.808772,186.163573 C243.693274,185.046872 243.381944,183.356795 244.046675,181.926361 C244.979463,179.91654 245.772813,177.83099 246.418312,175.679327 C246.894322,174.085414 248.363223,172.997563 250.028056,172.997563 L251.230102,172.997563 C253.32046,172.997563 255.015345,171.302678 255.015345,169.21232" id="Fill-14" fill="#fabc45" opacity="0.05"></path>
                    <path d="M163.26087,162.179028 C163.26087,141.046508 180.391776,123.915601 201.524297,123.915601 C222.656817,123.915601 239.787724,141.046508 239.787724,162.179028 C239.787724,183.311548 222.656817,200.442455 201.524297,200.442455 C180.391776,200.442455 163.26087,183.311548 163.26087,162.179028" id="Fill-15" fill="rgb(250, 188, 69, .4)"></path>
                    <path d="M167.867008,162.179028 C167.867008,143.590588 182.935857,128.521739 201.524297,128.521739 C220.112737,128.521739 235.181586,143.590588 235.181586,162.179028 C235.181586,180.767468 220.112737,195.836317 201.524297,195.836317 C182.935857,195.836317 167.867008,180.767468 167.867008,162.179028" id="Fill-16" fill="#FFFFFF"></path>
                    <path d="M201.524297,129.122762 C183.297673,129.122762 168.468031,143.951202 168.468031,162.179028 C168.468031,180.406854 183.297673,195.235294 201.524297,195.235294 C219.750921,195.235294 234.580563,180.406854 234.580563,162.179028 C234.580563,143.951202 219.750921,129.122762 201.524297,129.122762 M201.524297,196.43734 C182.634143,196.43734 167.265985,181.069182 167.265985,162.179028 C167.265985,143.288875 182.634143,127.920716 201.524297,127.920716 C220.41445,127.920716 235.782609,143.288875 235.782609,162.179028 C235.782609,181.069182 220.41445,196.43734 201.524297,196.43734" id="Fill-17" stroke="#fabc45" fill="#fabc45"></path>
                    <path d="M180.213824,203.762248 C180.837685,203.762248 181.465153,203.893271 182.052954,204.167338 C184.196202,205.160228 186.43922,205.99565 188.719501,206.650765 C190.597097,207.189281 191.908529,208.920228 191.908529,210.86033 L191.908529,211.28345 C191.908529,213.039639 193.33656,214.46767 195.092749,214.46767 L211.561982,214.46767 C213.318171,214.46767 214.747404,213.039639 214.747404,211.28345 L214.747404,209.685931 C214.747404,207.867235 215.895358,206.218028 217.604668,205.583348 C219.711854,204.799614 221.78298,203.851199 223.760345,202.763348 C225.497302,201.808923 227.598478,202.103425 228.986841,203.489384 L229.622724,204.126468 C230.865639,205.368182 232.883875,205.368182 234.12679,204.126468 L245.772212,192.479844 C247.013926,191.23813 247.013926,189.217491 245.772212,187.97698 L244.383849,186.587414 C243.09165,185.295215 242.737046,183.319051 243.501547,181.67345 C244.423517,179.68767 245.210857,177.612939 245.843133,175.506954 C246.398478,173.646187 248.080141,172.396059 250.027455,172.396059 L251.229501,172.396059 C252.985691,172.396059 254.414923,170.968028 254.414923,169.211839 L254.414923,152.741404 C254.414923,150.986417 252.985691,149.557184 251.229501,149.557184 L249.238913,149.557184 C247.394974,149.557184 245.742161,148.39721 245.127916,146.671072 C244.393465,144.610765 243.497941,142.578105 242.471394,140.629588 C241.573465,138.927491 241.885997,136.868386 243.249118,135.504064 L244.072519,134.681864 C245.313031,133.440151 245.313031,131.419512 244.072519,130.177798 L232.427097,118.532376 C231.184182,117.290662 229.164744,117.291864 227.921829,118.532376 L226.748632,119.706775 C225.427583,121.024217 223.408146,121.357184 221.727685,120.540995 C219.699834,119.554115 217.578223,118.709077 215.422954,118.031123 C213.581419,117.450535 212.343312,115.771276 212.343312,113.851609 L212.343312,113.073885 C212.343312,111.318898 210.914079,109.889665 209.15789,109.889665 L192.688657,109.889665 C190.932468,109.889665 189.504437,111.318898 189.504437,113.073885 L189.504437,114.253092 C189.504437,116.124678 188.310806,117.789512 186.535384,118.394141 C184.281547,119.16345 182.076995,120.111864 179.981829,121.212939 C178.271317,122.114473 176.202596,121.806749 174.838274,120.442427 L174.627916,120.232069 C173.42587,119.027619 171.325895,119.028821 170.123849,120.232069 L158.478427,131.878693 C157.236714,133.119205 157.236714,135.139844 158.478427,136.381558 L159.054207,136.957338 C160.37165,138.275982 160.708223,140.288207 159.893235,141.966263 C158.819808,144.17322 157.918274,146.484754 157.211471,148.834754 C156.650115,150.705138 154.966049,151.961276 153.021138,151.961276 C151.264949,151.961276 149.836918,153.390509 149.836918,155.145496 L149.836918,171.615931 C149.836918,173.37212 151.264949,174.800151 153.021138,174.800151 L153.808478,174.800151 C155.653619,174.800151 157.308836,175.96854 157.92789,177.706698 C158.751292,180.014627 159.765818,182.275675 160.94743,184.424934 C161.882621,186.128233 161.58211,188.272683 160.214182,189.639409 C158.937609,190.917184 158.937609,192.939026 160.17812,194.179537 L171.824744,205.826161 C173.06766,207.066673 175.087097,207.064269 176.328811,205.826161 L177.114949,205.038821 C177.950371,204.203399 179.075486,203.762248 180.213824,203.762248 M211.561982,215.669716 L195.092749,215.669716 C192.673031,215.669716 190.706483,213.703169 190.706483,211.28345 L190.706483,210.86033 C190.706483,209.452734 189.753261,208.196596 188.388939,207.805931 C186.048555,207.135189 183.745435,206.276928 181.546893,205.256391 C180.338836,204.698642 178.901189,204.951072 177.964795,205.888668 L177.178657,206.676008 C175.469348,208.385317 172.685409,208.385317 170.973696,206.676008 L159.328274,195.029384 C157.618964,193.318872 157.618964,190.537338 159.328274,188.826826 C160.37165,187.782248 160.584412,186.26166 159.893235,185.00432 C158.682775,182.798565 157.640601,180.478616 156.796765,178.110586 C156.347199,176.849639 155.146355,176.002197 153.808478,176.002197 L153.021138,176.002197 C150.601419,176.002197 148.634872,174.03565 148.634872,171.615931 L148.634872,155.145496 C148.634872,152.72698 150.601419,150.75923 153.021138,150.75923 C154.43234,150.75923 155.652417,149.846877 156.061113,148.488565 C156.785946,146.077261 157.711522,143.705624 158.812596,141.440969 C159.404003,140.223297 159.159987,138.762811 158.204361,137.807184 L157.628581,137.231404 C155.918069,135.520893 155.918069,132.739358 157.628581,131.028847 L169.274003,119.382223 C170.931624,117.724601 173.820141,117.724601 175.477762,119.382223 L175.68812,119.592581 C176.677404,120.580662 178.175153,120.805445 179.422877,120.149128 C181.572136,119.019205 183.835588,118.045547 186.148325,117.257005 C187.435716,116.817056 188.302391,115.610202 188.302391,114.253092 L188.302391,113.073885 C188.302391,110.655368 190.268939,108.687619 192.688657,108.687619 L209.15789,108.687619 C211.577609,108.687619 213.545358,110.655368 213.545358,113.073885 L213.545358,113.851609 C213.545358,115.243578 214.445691,116.462453 215.78477,116.884371 C217.996535,117.580355 220.172238,118.447031 222.254182,119.459153 C223.477864,120.052964 224.941957,119.812555 225.898785,118.856928 L227.071982,117.682529 C228.781292,115.972018 231.56523,115.972018 233.276944,117.682529 L244.922366,129.327951 C246.631675,131.038463 246.631675,133.821199 244.922366,135.531711 L244.098964,136.35391 C243.110882,137.343194 242.883696,138.836136 243.535205,140.069435 C244.589399,142.067235 245.505358,144.152785 246.259041,146.267184 C246.703798,147.51611 247.902238,148.355138 249.238913,148.355138 L251.229501,148.355138 C253.64922,148.355138 255.616969,150.322887 255.616969,152.741404 L255.616969,169.211839 C255.616969,171.631558 253.64922,173.598105 251.229501,173.598105 L250.027455,173.598105 C248.615051,173.598105 247.397379,174.504448 246.994693,175.851941 C246.34679,178.01322 245.539015,180.142043 244.591803,182.178309 C244.038862,183.370739 244.297302,184.801174 245.233696,185.737568 L246.622059,187.127133 C248.33257,188.836442 248.33257,191.619179 246.622059,193.329691 L234.976637,204.976315 C233.267327,206.685624 230.482187,206.685624 228.772877,204.976315 L228.136995,204.33923 C227.128478,203.331916 225.60188,203.120355 224.339731,203.817542 C222.310678,204.934243 220.18546,205.906698 218.02298,206.709665 C216.782468,207.171251 215.94945,208.367286 215.94945,209.685931 L215.94945,211.28345 C215.94945,213.703169 213.981701,215.669716 211.561982,215.669716" id="Fill-18" stroke="#fabc45" fill="#fabc45"></path>
                </g>
                <g class="spin2">
                    <path d="M303.097187,138.931097 L303.097187,131.443552 C303.097187,130.493936 302.326675,129.723425 301.375857,129.723425 L300.470716,129.723425 C299.749488,129.723425 299.102788,129.273859 298.859974,128.593501 C298.517391,127.633066 298.108696,126.703885 297.637494,125.811967 C297.286496,125.147235 297.411509,124.33345 297.942813,123.802146 L298.315448,123.428309 C298.988593,122.756366 298.988593,121.667312 298.315448,120.995368 L293.022839,115.701558 C292.350895,115.029614 291.260639,115.029614 290.589898,115.701558 L290.054987,116.235266 C289.535703,116.75455 288.747161,116.883169 288.086036,116.562223 C287.15445,116.109051 286.185601,115.72079 285.183095,115.405854 C284.464271,115.17987 283.973836,114.519946 283.973836,113.767465 L283.973836,113.412862 C283.973836,112.463246 283.203325,111.692734 282.252506,111.692734 L274.767366,111.692734 C273.816547,111.692734 273.046036,112.463246 273.046036,113.412862 L273.046036,113.950176 C273.046036,114.684627 272.577238,115.336136 271.881253,115.572939 C270.836675,115.929946 269.828159,116.365087 268.864118,116.871148 C268.19578,117.222146 267.379591,117.103143 266.847084,116.569435 L266.750921,116.474473 C266.078977,115.802529 264.989923,115.802529 264.316777,116.474473 L259.022967,121.768284 C258.351023,122.440228 258.351023,123.529281 259.022967,124.201225 L259.286215,124.463271 C259.803095,124.981353 259.934118,125.768693 259.614373,126.427414 C259.121535,127.438335 258.708031,128.496136 258.379872,129.589997 C258.1611,130.317235 257.495166,130.817286 256.736675,130.817286 C255.785857,130.817286 255.015345,131.586596 255.015345,132.537414 L255.015345,140.023757 C255.015345,140.974575 255.785857,141.743885 256.736675,141.743885 L257.093683,141.743885 C257.819719,141.743885 258.465217,142.200662 258.709233,142.883425 C259.091483,143.958054 259.556675,144.991813 260.098798,145.977491 C260.467826,146.649435 260.354834,147.481251 259.812711,148.022171 L259.797084,148.040202 C259.123939,148.712146 259.123939,149.801199 259.797084,150.473143 L265.089693,155.766954 C265.761637,156.438898 266.851893,156.438898 267.522634,155.766954 L267.880844,155.408744 C268.390512,154.899077 269.163427,154.763246 269.81734,155.067363 C270.803018,155.524141 271.827161,155.907593 272.887366,156.210509 C273.626624,156.423271 274.138696,157.092811 274.138696,157.86212 L274.138696,158.054448 C274.138696,159.005266 274.909207,159.774575 275.860026,159.774575 L283.345166,159.774575 C284.295985,159.774575 285.066496,159.005266 285.066496,158.054448 L285.066496,157.328412 C285.066496,156.609588 285.513657,155.9701 286.188005,155.718872 C287.168875,155.355854 288.114885,154.919512 289.021228,154.420662 C289.695575,154.050432 290.529795,154.16102 291.07312,154.705547 L291.361611,154.994038 C292.033555,155.665982 293.122609,155.665982 293.795754,154.994038 L299.089565,149.700228 C299.761509,149.028284 299.761509,147.93923 299.089565,147.267286 L298.458491,146.636212 C297.951228,146.128949 297.809386,145.359639 298.112302,144.710535 C298.535422,143.79698 298.896036,142.848565 299.189335,141.8701 C299.406905,141.146468 300.072839,140.651225 300.830128,140.651225 L301.375857,140.651225 C302.326675,140.651225 303.097187,139.881916 303.097187,138.931097" id="Fill-19" fill="#F2FEFB"></path>
                    <path d="M260.84489,135.734015 C260.84489,125.827426 268.876331,117.795985 278.782921,117.795985 C288.68951,117.795985 296.720951,125.827426 296.720951,135.734015 C296.720951,145.640605 288.68951,153.672046 278.782921,153.672046 C268.876331,153.672046 260.84489,145.640605 260.84489,135.734015" id="Fill-20" fill="rgb(250, 188, 69, .4)"></path>
                    <path d="M263.484841,135.734015 C263.484841,127.284834 270.332898,120.434373 278.783281,120.434373 C287.232463,120.434373 294.081721,127.284834 294.081721,135.734015 C294.081721,144.183197 287.232463,151.033657 278.783281,151.033657 C270.332898,151.033657 263.484841,144.183197 263.484841,135.734015" id="Fill-21" stroke="#fabc45" stroke-width="2" fill="#FFFFFF"></path>
                    <path d="M278.782801,121.036478 C270.678606,121.036478 264.085384,127.629701 264.085384,135.733895 C264.085384,143.83809 270.678606,150.431312 278.782801,150.431312 C286.886995,150.431312 293.481419,143.83809 293.481419,135.733895 C293.481419,127.629701 286.886995,121.036478 278.782801,121.036478 M278.782801,151.633358 C270.016279,151.633358 262.883338,144.501619 262.883338,135.733895 C262.883338,126.967373 270.016279,119.834432 278.782801,119.834432 C287.550524,119.834432 294.683465,126.967373 294.683465,135.733895 C294.683465,144.501619 287.550524,151.633358 278.782801,151.633358" id="Fill-22" fill="#fabc45"></path>
                    <path d="M269.097074,154.30767 C269.426435,154.30767 269.759402,154.377389 270.070731,154.521634 C271.031166,154.967593 272.034875,155.34143 273.053008,155.633527 C274.045898,155.91721 274.739478,156.834371 274.739478,157.86212 L274.739478,158.054448 C274.739478,158.672299 275.241934,159.173552 275.859785,159.173552 L283.346128,159.173552 C283.962777,159.173552 284.465233,158.672299 284.465233,158.054448 L284.465233,157.328412 C284.465233,156.365573 285.073468,155.492887 285.978609,155.156315 C286.919811,154.806519 287.846588,154.382197 288.731294,153.894166 C289.635233,153.397721 290.772368,153.556391 291.498404,154.280023 L291.786895,154.569716 C292.223238,155.006059 292.933647,155.006059 293.36999,154.568514 L298.665003,149.274703 C299.100143,148.838361 299.101345,148.127951 298.665003,147.692811 L298.032726,147.060535 C297.34756,146.375368 297.160041,145.328386 297.567535,144.455701 C297.977432,143.569793 298.329632,142.641813 298.614517,141.698207 C298.909018,140.712529 299.799734,140.050202 300.829887,140.050202 L301.376818,140.050202 C301.993468,140.050202 302.495923,139.548949 302.495923,138.931097 L302.495923,131.443552 C302.495923,130.826903 301.993468,130.324448 301.376818,130.324448 L300.471678,130.324448 C299.495616,130.324448 298.620527,129.710202 298.29357,128.795445 C297.965412,127.873476 297.566332,126.963527 297.105949,126.092043 C296.628737,125.190509 296.794619,124.099051 297.518251,123.377824 L297.890885,123.003987 C298.102445,122.791225 298.220246,122.509946 298.220246,122.211839 C298.220246,121.912529 298.102445,121.631251 297.890885,121.419691 L292.598276,116.12588 C292.175156,115.703962 291.4371,115.703962 291.01398,116.12588 L290.480271,116.66079 C289.783084,117.357977 288.715668,117.537082 287.822547,117.101941 C286.916205,116.66079 285.966588,116.283348 285.001345,115.97923 C284.027688,115.671506 283.372573,114.783194 283.372573,113.767465 L283.372573,113.412862 C283.372573,112.796212 282.870118,112.293757 282.252266,112.293757 L274.767125,112.293757 C274.149274,112.293757 273.646818,112.796212 273.646818,113.412862 L273.646818,113.948974 C273.646818,114.940662 273.015744,115.821762 272.075744,116.142708 C271.067228,116.486494 270.080348,116.910816 269.142752,117.403655 C268.236409,117.879665 267.143749,117.716187 266.42132,116.994959 L266.325156,116.898795 C265.886409,116.461251 265.176,116.463655 264.742061,116.898795 L259.448251,122.192606 C259.011908,122.628949 259.010706,123.339358 259.448251,123.775701 L259.710297,124.037747 C260.407483,124.734934 260.586588,125.799946 260.156256,126.68946 C259.676639,127.671532 259.272752,128.705292 258.95421,129.763092 C258.657304,130.752376 257.766588,131.418309 256.736435,131.418309 C256.118583,131.418309 255.616128,131.919563 255.616128,132.537414 L255.616128,140.023757 C255.616128,140.641609 256.118583,141.142862 256.736435,141.142862 L257.094645,141.142862 C258.069504,141.142862 258.946997,141.760714 259.275156,142.681481 C259.645386,143.718847 260.09976,144.730969 260.626256,145.687798 C261.120297,146.590535 260.960425,147.725266 260.237995,148.447696 C260.009606,148.676084 259.893008,148.957363 259.893008,149.256673 C259.893008,149.55478 260.009606,149.836059 260.221166,150.048821 L265.514977,155.34143 C265.936895,155.76455 266.674951,155.76455 267.098072,155.34143 L267.456281,154.98322 C267.898634,154.542069 268.493647,154.30767 269.097074,154.30767 M283.346128,160.375598 L275.859785,160.375598 C274.579606,160.375598 273.537432,159.334627 273.537432,158.054448 L273.537432,157.86212 C273.537432,157.368079 273.202061,156.926928 272.722445,156.788693 C271.64421,156.479767 270.581601,156.084294 269.565872,155.61189 C269.142752,155.415957 268.636691,155.504908 268.306128,155.834269 L267.947918,156.191276 C267.071627,157.06877 265.542624,157.06877 264.663928,156.191276 L259.37132,150.898668 C258.932573,150.459921 258.690962,149.876928 258.690962,149.256673 C258.690962,148.636417 258.932573,148.053425 259.37132,147.614678 C259.74155,147.244448 259.814875,146.709537 259.572061,146.265982 C259.015514,145.253859 258.534696,144.182836 258.144031,143.085368 C257.985361,142.643015 257.563442,142.344908 257.094645,142.344908 L256.736435,142.344908 C255.455054,142.344908 254.414082,141.303936 254.414082,140.023757 L254.414082,132.537414 C254.414082,131.257235 255.455054,130.216263 256.736435,130.216263 C257.231678,130.216263 257.659606,129.894115 257.803852,129.416903 C258.140425,128.297798 258.567151,127.203936 259.074414,126.162964 C259.281166,125.736238 259.195821,125.222964 258.86045,124.887593 L258.598404,124.626749 C257.693263,123.721609 257.693263,122.249102 258.598404,121.34276 L263.892215,116.048949 C264.79976,115.142606 266.272266,115.14501 267.175003,116.048949 L267.271166,116.145113 C267.618558,116.492504 268.143852,116.570637 268.583801,116.339844 C269.575488,115.818156 270.620066,115.368591 271.687483,115.004371 C272.140655,114.850509 272.444772,114.426187 272.444772,113.948974 L272.444772,113.412862 C272.444772,112.133885 273.485744,111.091711 274.767125,111.091711 L282.252266,111.091711 C283.533647,111.091711 284.574619,112.133885 284.574619,113.412862 L284.574619,113.767465 C284.574619,114.256698 284.891959,114.684627 285.363161,114.832478 C286.3849,115.154627 287.388609,115.553706 288.349043,116.021302 C288.78178,116.232862 289.296256,116.145113 289.630425,115.810944 L290.164133,115.276033 C291.040425,114.399742 292.569427,114.399742 293.448123,115.276033 L298.740731,120.569844 C299.179478,121.008591 299.422292,121.591583 299.422292,122.211839 C299.422292,122.832095 299.179478,123.415087 298.740731,123.853834 L298.368097,124.22767 C298.020706,124.575061 297.940169,125.097951 298.16976,125.53189 C298.656588,126.453859 299.078506,127.415496 299.424696,128.391558 C299.580962,128.829102 300.001678,129.122402 300.471678,129.122402 L301.376818,129.122402 C302.656997,129.122402 303.697969,130.164575 303.697969,131.443552 L303.697969,138.931097 C303.697969,140.211276 302.656997,141.252248 301.376818,141.252248 L300.829887,141.252248 C300.334645,141.252248 299.906716,141.569588 299.764875,142.043194 C299.465565,143.042095 299.091729,144.024166 298.656588,144.962964 C298.463059,145.380074 298.553212,145.881327 298.882573,146.210688 L299.514849,146.842964 C300.41999,147.746903 300.41999,149.219409 299.514849,150.125752 L294.219836,155.419563 C293.313494,156.325905 291.839785,156.323501 290.937049,155.419563 L290.648558,155.12987 C290.293954,154.775266 289.754235,154.703143 289.31068,154.947159 C288.374286,155.462836 287.394619,155.912402 286.396921,156.282632 C285.960578,156.444908 285.667279,156.864422 285.667279,157.328412 L285.667279,158.054448 C285.667279,159.334627 284.626307,160.375598 283.346128,160.375598" id="Fill-23" stroke="#fabc45" fill="#fabc45"></path>
                </g>
                <path d="M137.214834,161.578005 L136.012788,161.578005 C136.012788,144.32023 142.666113,128.031304 154.747877,115.711535 C166.811611,103.409795 182.931049,96.4379284 200.138338,96.0809207 L200.163581,97.2829668 C165.453299,98.0029923 137.214834,126.846087 137.214834,161.578005" id="Fill-24" stroke="#fabc45" fill="#fabc45"></path>
                <polygon id="Fill-25" stroke="#fabc45" fill="#fabc45" points="197.864187 98.8926266 199.797077 96.7541867 197.657435 94.8224987 199.387179 94.7347494 201.524417 96.6676394 199.591527 98.8060793"></polygon>
                <path d="M310.477064,132.387003 C309.766655,116.628179 296.843458,104.284368 281.055785,104.284368 L281.055785,103.082322 C297.487754,103.082322 310.93865,115.930992 311.676706,132.33291 L310.477064,132.387003 Z" id="Fill-26" stroke="#fabc45" fill="#fabc45"></path>
                <polygon id="Fill-27" stroke="#fabc45" fill="#fabc45" points="308.881708 130.073304 311.020148 132.007396 312.953038 129.867754 313.039586 131.596297 311.107898 133.733535 308.969458 131.800645"></polygon>
                <path d="M313.138478,140.150092 C311.044514,140.223417 310.056432,142.778967 311.537353,144.259887 L323.501317,156.223852 C324.440115,157.16265 324.440115,158.68444 323.501317,159.62444 L304.801087,178.323468 C303.862289,179.262266 302.341701,179.262266 301.401701,178.323468 L289.438939,166.360706 C287.949604,164.870169 285.398862,165.882292 285.326739,167.987074 C285.041854,176.287202 288.316228,184.685898 295.16188,190.693724 C304.637609,199.01068 318.494795,199.987944 329.022315,193.672394 C329.987558,193.09421 331.222059,193.267304 331.993772,194.085898 L375.185691,240.57022 C377.860243,243.44912 382.38835,243.532061 385.167481,240.752931 C387.912954,238.00866 387.868478,233.544261 385.070115,230.85288 L339.275767,186.826742 C338.457174,186.05623 338.280473,184.820527 338.859859,183.85889 C345.554054,172.767611 344.122417,158.145923 334.550524,148.574031 C328.659297,142.682803 320.855614,139.877228 313.138478,140.150092" id="Fill-28" fill="#FFFFFF"></path>
                <path d="M313.138478,140.150092 C311.044514,140.223417 310.056432,142.778967 311.537353,144.259887 L323.501317,156.223852 C324.440115,157.16265 324.440115,158.68444 323.501317,159.62444 L313.301957,169.823801 L384.675844,241.197688 C384.84413,241.057049 385.008811,240.911601 385.167481,240.752931 C387.912954,238.00866 387.868478,233.544261 385.070115,230.85288 L339.275767,186.826742 C338.457174,186.05623 338.280473,184.820527 338.859859,183.85889 C345.554054,172.767611 344.122417,158.145923 334.550524,148.574031 C328.659297,142.682803 320.855614,139.877228 313.138478,140.150092" id="Fill-29" fill="#F2FEFB"></path>
                <path d="M376.62502,237.397299 C375.216223,235.988501 375.216223,233.705816 376.62502,232.297018 C378.032616,230.88822 380.315302,230.88822 381.7241,232.297018 C383.132898,233.705816 383.132898,235.988501 381.7241,237.397299 C380.315302,238.804895 378.032616,238.804895 376.62502,237.397299" id="Fill-30" fill="#FFFFFF"></path>
                <path d="M379.17468,231.841322 C378.371714,231.841322 377.616829,232.153854 377.049463,232.72122 C375.87867,233.893215 375.87867,235.800862 377.049463,236.972857 C378.219054,238.142448 380.125499,238.144852 381.299898,236.972857 C382.470691,235.800862 382.470691,233.893215 381.299898,232.72122 C380.73133,232.153854 379.976445,231.841322 379.17468,231.841322 M379.17468,239.052396 C378.097647,239.052396 377.019412,238.641297 376.199616,237.822703 C374.558824,236.180708 374.558824,233.513368 376.199616,231.871373 C377.787519,230.283471 380.559437,230.282269 382.149744,231.871373 C383.790537,233.513368 383.790537,236.180708 382.149744,237.822703 C381.328747,238.641297 380.251714,239.052396 379.17468,239.052396" id="Fill-31" stroke="#fabc45" fill="#fabc45"></path>
                <path d="M330.255854,192.726744 C331.056417,192.726744 331.843757,193.051297 332.431558,193.673957 L375.62588,240.160683 C376.807491,241.43365 378.413425,242.150069 380.147977,242.182524 C381.923399,242.229404 383.51611,241.555056 384.742197,240.328969 C385.955061,239.117307 386.613783,237.505363 386.597269,235.791246 C386.580125,234.074724 385.890151,232.474801 384.653246,231.285977 L338.858898,187.259839 C337.843169,186.304212 337.625598,184.741552 338.345624,183.547921 C345.066263,172.412166 343.331711,158.205184 334.126442,148.999916 C328.607849,143.481322 320.952018,140.482217 313.159153,140.750274 C312.428309,140.776719 311.830893,141.201041 311.560432,141.887409 C311.348872,142.423522 311.344064,143.216872 311.961916,143.834724 L323.92588,155.798688 C325.097875,156.970683 325.097875,158.877128 323.92588,160.049123 L305.226852,178.748151 C304.053655,179.920146 302.14721,179.917742 300.977619,178.748151 L289.013655,166.785389 C288.398207,166.168739 287.608463,166.172345 287.074754,166.383905 C286.539844,166.594263 285.956852,167.13278 285.928003,168.00787 C285.635905,176.509941 289.14588,184.612934 295.558795,190.242115 C304.642657,198.217691 318.278668,199.41613 328.713629,193.157077 C329.19565,192.867384 329.729358,192.726744 330.255854,192.726744 M380.269384,243.385772 C380.221302,243.385772 380.17322,243.385772 380.12634,243.38457 C378.062427,243.346105 376.151174,242.49145 374.745982,240.979276 L331.552862,194.494954 C330.973476,193.879506 330.059921,193.753292 329.330279,194.188432 C318.455368,200.71434 304.23877,199.461808 294.765445,191.146054 C288.080867,185.277665 284.421839,176.829685 284.725957,167.967 C284.768028,166.748125 285.498872,165.713164 286.633604,165.264801 C287.768335,164.816437 289.006442,165.074877 289.863501,165.935542 L301.827465,177.898304 C302.52946,178.601501 303.67501,178.601501 304.377005,177.898304 L323.076033,159.199276 C323.417414,158.859097 323.604934,158.405926 323.604934,157.923905 C323.604934,157.441885 323.417414,156.989916 323.076033,156.648535 L311.112069,144.68457 C310.250202,143.823905 309.995368,142.583394 310.442529,141.446258 C310.886084,140.318739 311.910228,139.591501 313.117082,139.54943 C321.265752,139.252524 329.224499,142.397077 334.976289,148.150069 C344.573425,157.746003 346.381302,172.558816 339.374575,184.169379 C338.945445,184.88099 339.07767,185.81498 339.688309,186.389558 L385.486263,230.419302 C386.957568,231.835312 387.778565,233.738151 387.799346,235.779225 C387.818233,237.819097 387.034499,239.736361 385.592043,241.178816 C384.166417,242.604442 382.280407,243.385772 380.269384,243.385772" id="Fill-32" stroke="#fabc45" fill="#fabc45"></path>
                <polygon id="Fill-33" stroke="#fabc45" fill="#fabc45" points="321.801624 178.323348 317.551189 174.074115 318.401036 173.224269 322.651471 177.473501"></polygon>
                <polygon id="Fill-34" stroke="#fabc45" fill="#fabc45" points="326.900944 173.223427 322.651711 168.974194 323.501558 168.124348 327.75079 172.373581"></polygon>
                <polygon id="Fill-35" stroke="#fabc45" fill="#fabc45" points="316.701223 183.423148 312.45199 179.173916 313.301836 178.324069 317.551069 182.573302"></polygon>
                <path d="M372.815857,79.4347826 C371.821765,79.4347826 371.012788,80.2437596 371.012788,81.2378517 C371.012788,82.2319437 371.821765,83.0409207 372.815857,83.0409207 C373.809949,83.0409207 374.618926,82.2319437 374.618926,81.2378517 C374.618926,80.2437596 373.809949,79.4347826 372.815857,79.4347826 M372.815857,84.2429668 C371.158235,84.2429668 369.810742,82.8942711 369.810742,81.2378517 C369.810742,79.5814322 371.158235,78.2327366 372.815857,78.2327366 C374.473478,78.2327366 375.820972,79.5814322 375.820972,81.2378517 C375.820972,82.8942711 374.473478,84.2429668 372.815857,84.2429668" id="Fill-36" stroke="#fabc45" fill="#fabc45"></path>
                <path d="M363.401535,79.4347826 C362.407442,79.4347826 361.598465,80.2437596 361.598465,81.2378517 C361.598465,82.2319437 362.407442,83.0409207 363.401535,83.0409207 C364.395627,83.0409207 365.204604,82.2319437 365.204604,81.2378517 C365.204604,80.2437596 364.395627,79.4347826 363.401535,79.4347826 M363.401535,84.2429668 C361.743913,84.2429668 360.396419,82.8942711 360.396419,81.2378517 C360.396419,79.5814322 361.743913,78.2327366 363.401535,78.2327366 C365.059156,78.2327366 366.40665,79.5814322 366.40665,81.2378517 C366.40665,82.8942711 365.059156,84.2429668 363.401535,84.2429668" id="Fill-37" stroke="#fabc45" fill="#fabc45"></path>
                <path d="M353.987212,79.4347826 C352.99312,79.4347826 352.184143,80.2437596 352.184143,81.2378517 C352.184143,82.2319437 352.99312,83.0409207 353.987212,83.0409207 C354.981304,83.0409207 355.790281,82.2319437 355.790281,81.2378517 C355.790281,80.2437596 354.981304,79.4347826 353.987212,79.4347826 M353.987212,84.2429668 C352.329591,84.2429668 350.982097,82.8942711 350.982097,81.2378517 C350.982097,79.5814322 352.329591,78.2327366 353.987212,78.2327366 C355.644834,78.2327366 356.992327,79.5814322 356.992327,81.2378517 C356.992327,82.8942711 355.644834,84.2429668 353.987212,84.2429668" id="Fill-38" stroke="#fabc45" fill="#fabc45"></path>
                <polygon id="Fill-39" stroke="#fabc45" stroke-width="2" fill="#fabc45" points="201.524297 173.59335 202.726343 173.59335 202.726343 143.542199 201.524297 143.542199"></polygon>
                <polygon id="Fill-40" stroke="#fabc45" stroke-width="2" fill="#fabc45" points="201.524297 180.805627 202.726343 180.805627 202.726343 178.401535 201.524297 178.401535"></polygon>
                <path d="M453.352941,182.613811 L368.007673,182.613811 C364.702046,182.613811 361.997442,179.909207 361.997442,176.603581 L361.997442,111.693095 C361.997442,108.387468 364.702046,105.682864 368.007673,105.682864 L453.352941,105.682864 C456.658568,105.682864 459.363171,108.387468 459.363171,111.693095 L459.363171,176.603581 C459.363171,179.909207 456.658568,182.613811 453.352941,182.613811" id="Fill-41" fill="#242828"></path>
                <path d="M370.411765,170.59335 L370.411765,124.915601 C370.411765,122.923811 372.026113,121.309463 374.017903,121.309463 L447.342711,121.309463 C449.334501,121.309463 450.948849,122.923811 450.948849,124.915601 L450.948849,170.59335 C450.948849,172.585141 449.334501,174.199488 447.342711,174.199488 L374.017903,174.199488 C372.026113,174.199488 370.411765,172.585141 370.411765,170.59335" id="Fill-42" fill="#FFFFFF"></path>
                <path d="M368.007673,106.283887 C365.025396,106.283887 362.598465,108.710818 362.598465,111.693095 L362.598465,176.603581 C362.598465,179.585857 365.025396,182.012788 368.007673,182.012788 L453.352941,182.012788 C456.335217,182.012788 458.762148,179.585857 458.762148,176.603581 L458.762148,111.693095 C458.762148,108.710818 456.335217,106.283887 453.352941,106.283887 L368.007673,106.283887 Z M453.352941,183.214834 L368.007673,183.214834 C364.363069,183.214834 361.396419,180.249386 361.396419,176.603581 L361.396419,111.693095 C361.396419,108.047289 364.363069,105.081841 368.007673,105.081841 L453.352941,105.081841 C456.997545,105.081841 459.964194,108.047289 459.964194,111.693095 L459.964194,176.603581 C459.964194,180.249386 456.997545,183.214834 453.352941,183.214834 L453.352941,183.214834 Z" id="Fill-44" stroke="#fabc45" fill="#fabc45"></path>
                <path d="M374.017903,121.910486 C372.360281,121.910486 371.012788,123.259182 371.012788,124.915601 L371.012788,170.59335 C371.012788,172.24977 372.360281,173.598465 374.017903,173.598465 L447.342711,173.598465 C449.000332,173.598465 450.347826,172.24977 450.347826,170.59335 L450.347826,124.915601 C450.347826,123.259182 449.000332,121.910486 447.342711,121.910486 L374.017903,121.910486 Z M447.342711,174.800512 L374.017903,174.800512 C371.697954,174.800512 369.810742,172.913299 369.810742,170.59335 L369.810742,124.915601 C369.810742,122.595652 371.697954,120.70844 374.017903,120.70844 L447.342711,120.70844 C449.66266,120.70844 451.549872,122.595652 451.549872,124.915601 L451.549872,170.59335 C451.549872,172.913299 449.66266,174.800512 447.342711,174.800512 L447.342711,174.800512 Z" id="Fill-45" stroke="#fabc45" fill="#fabc45"></path>
                <g class="code_ani">
                    <polygon id="Fill-46" class="cls-13" fill="#fabc45" points="381.230179 132.7289 384.836317 132.7289 384.836317 131.526854 381.230179 131.526854"></polygon>
                    <polygon id="Fill-49" class="cls-13" fill="#fabc45" points="388.442455 132.7289 428.109974 132.7289 428.109974 131.526854 388.442455 131.526854"></polygon>
                    <polygon id="Fill-50" class="cls-13" fill="#fabc45" points="381.230179 136.335038 411.28133 136.335038 411.28133 135.132992 381.230179 135.132992"></polygon>
                    <polygon id="Fill-51" class="cls-13" fill="#fabc45" points="414.887468 136.335038 434.120205 136.335038 434.120205 135.132992 414.887468 135.132992"></polygon>
                    <polygon id="Fill-52" class="cls-16" fill="#fabc45" points="381.230179 139.941176 392.048593 139.941176 392.048593 138.73913 381.230179 138.73913"></polygon>
                    <polygon id="Fill-53" class="cls-16" fill="#fabc45" points="394.452685 139.941176 399.26087 139.941176 399.26087 138.73913 394.452685 138.73913"></polygon>
                    <polygon id="Fill-54" class="cls-16" fill="#fabc45" points="394.452685 144.749361 424.503836 144.749361 424.503836 143.547315 394.452685 143.547315"></polygon>
                    <polygon id="Fill-55" class="cls-16" fill="#fabc45" points="426.907928 144.749361 432.918159 144.749361 432.918159 143.547315 426.907928 143.547315"></polygon>
                    <polygon id="Fill-56" class="cls-16" fill="#fabc45" points="394.452685 148.355499 424.503836 148.355499 424.503836 147.153453 394.452685 147.153453"></polygon>
                    <polygon id="Fill-57" class="cls-16" fill="#fabc45" points="426.907928 148.355499 432.918159 148.355499 432.918159 147.153453 426.907928 147.153453"></polygon>
                    <polygon id="Fill-58" class="cls-16" fill="#fabc45" points="394.452685 151.961637 424.503836 151.961637 424.503836 150.759591 394.452685 150.759591"></polygon>
                    <polygon id="Fill-59" class="cls-16" fill="#fabc45" points="426.907928 151.961637 432.918159 151.961637 432.918159 150.759591 426.907928 150.759591"></polygon>
                    <polygon id="Fill-47" class="cls-10" fill="#fabc45" points="381.230179 160.375959 384.836317 160.375959 384.836317 159.173913 381.230179 159.173913"></polygon>
                    <polygon id="Fill-48" class="cls-10" fill="#fabc45" points="381.230179 167.588235 384.836317 167.588235 384.836317 166.386189 381.230179 166.386189"></polygon>
                    <polygon id="Fill-60" class="cls-10" fill="#fabc45" points="394.452685 155.567775 424.503836 155.567775 424.503836 154.365729 394.452685 154.365729"></polygon>
                    <polygon id="Fill-61" class="cls-10" fill="#fabc45" points="426.907928 155.567775 432.918159 155.567775 432.918159 154.365729 426.907928 154.365729"></polygon>
                    <polygon id="Fill-62" class="cls-10" fill="#fabc45" points="387.240409 160.375959 419.695652 160.375959 419.695652 159.173913 387.240409 159.173913"></polygon>
                    <polygon id="Fill-63" class="cls-10" fill="#fabc45" points="422.099744 160.375959 432.918159 160.375959 432.918159 159.173913 422.099744 159.173913"></polygon>
                    <polygon id="Fill-64" class="cls-10" fill="#fabc45" points="381.230179 163.982097 396.856777 163.982097 396.856777 162.780051 381.230179 162.780051"></polygon>
                    <polygon id="Fill-65" class="cls-10" fill="#fabc45" points="399.26087 163.982097 425.705882 163.982097 425.705882 162.780051 399.26087 162.780051"></polygon>
                </g>
                <path d="M448.544757,112.895141 C447.881228,112.895141 447.342711,113.434859 447.342711,114.097187 C447.342711,114.759514 447.881228,115.299233 448.544757,115.299233 C449.208286,115.299233 449.746803,114.759514 449.746803,114.097187 C449.746803,113.434859 449.208286,112.895141 448.544757,112.895141 M448.544757,116.501279 C447.2189,116.501279 446.140665,115.423043 446.140665,114.097187 C446.140665,112.77133 447.2189,111.693095 448.544757,111.693095 C449.870614,111.693095 450.948849,112.77133 450.948849,114.097187 C450.948849,115.423043 449.870614,116.501279 448.544757,116.501279" id="Fill-66" stroke="#fabc45" stroke-width="0.5" fill="#fabc45"></path>
                <path d="M440.332481,112.895141 C439.668951,112.895141 439.130435,113.434859 439.130435,114.097187 C439.130435,114.759514 439.668951,115.299233 440.332481,115.299233 C440.99601,115.299233 441.534527,114.759514 441.534527,114.097187 C441.534527,113.434859 440.99601,112.895141 440.332481,112.895141 M440.332481,116.501279 C439.006624,116.501279 437.928389,115.423043 437.928389,114.097187 C437.928389,112.77133 439.006624,111.693095 440.332481,111.693095 C441.658338,111.693095 442.736573,112.77133 442.736573,114.097187 C442.736573,115.423043 441.658338,116.501279 440.332481,116.501279" id="Fill-67" stroke="#fabc45" stroke-width="0.5" fill="#fabc45"></path>
                <path d="M432.120205,112.895141 C431.456675,112.895141 430.918159,113.434859 430.918159,114.097187 C430.918159,114.759514 431.456675,115.299233 432.120205,115.299233 C432.783734,115.299233 433.322251,114.759514 433.322251,114.097187 C433.322251,113.434859 432.783734,112.895141 432.120205,112.895141 M432.120205,116.501279 C430.794348,116.501279 429.716113,115.423043 429.716113,114.097187 C429.716113,112.77133 430.794348,111.693095 432.120205,111.693095 C433.446061,111.693095 434.524297,112.77133 434.524297,114.097187 C434.524297,115.423043 433.446061,116.501279 432.120205,116.501279" id="Fill-68" stroke="#fabc45" stroke-width="0.5" fill="#fabc45"></path>
                <path d="M23.0204604,219.877238 L23.0204604,300.414322 C23.0204604,303.719949 25.7250639,306.424552 29.0306905,306.424552 L150.43734,306.424552 C153.742967,306.424552 156.44757,303.719949 156.44757,300.414322 L156.44757,219.877238 L23.0204604,219.877238 Z" id="Fill-69" fill="#242828"></path>
                <path d="M156.44757,206.654731 C156.44757,203.349105 153.742967,200.644501 150.43734,200.644501 L29.0306905,200.644501 C25.7250639,200.644501 23.0204604,203.349105 23.0204604,206.654731 L23.0204604,219.877238 L156.44757,219.877238 L156.44757,206.654731 Z" id="Fill-70" fill="#FFFFFF"></path>
                <path d="M23.6214834,220.478261 L23.6214834,300.414322 C23.6214834,303.396598 26.0484143,305.823529 29.0306905,305.823529 L150.43734,305.823529 C153.419616,305.823529 155.846547,303.396598 155.846547,300.414322 L155.846547,220.478261 L23.6214834,220.478261 Z M150.43734,307.025575 L29.0306905,307.025575 C25.3848849,307.025575 22.4194373,304.058926 22.4194373,300.414322 L22.4194373,219.276215 L157.048593,219.276215 L157.048593,300.414322 C157.048593,304.058926 154.081944,307.025575 150.43734,307.025575 L150.43734,307.025575 Z" id="Fill-71" stroke="#fabc45" fill="#fabc45"></path>
                <path d="M35.0409207,228.892583 C33.3845013,228.892583 32.0358056,230.240077 32.0358056,231.897698 L32.0358056,294.404092 C32.0358056,296.061714 33.3845013,297.409207 35.0409207,297.409207 L144.42711,297.409207 C146.084731,297.409207 147.432225,296.061714 147.432225,294.404092 L147.432225,231.897698 C147.432225,230.240077 146.084731,228.892583 144.42711,228.892583 L35.0409207,228.892583 Z M144.42711,298.611253 L35.0409207,298.611253 C32.7209719,298.611253 30.8337596,296.724041 30.8337596,294.404092 L30.8337596,231.897698 C30.8337596,229.577749 32.7209719,227.690537 35.0409207,227.690537 L144.42711,227.690537 C146.747059,227.690537 148.634271,229.577749 148.634271,231.897698 L148.634271,294.404092 C148.634271,296.724041 146.747059,298.611253 144.42711,298.611253 L144.42711,298.611253 Z" id="Fill-73" stroke="#fabc45" fill="#fabc45"></path>
                <path d="M23.6214834,219.276215 L155.846547,219.276215 L155.846547,206.654731 C155.846547,203.672455 153.419616,201.245524 150.43734,201.245524 L29.0306905,201.245524 C26.0484143,201.245524 23.6214834,203.672455 23.6214834,206.654731 L23.6214834,219.276215 Z M157.048593,220.478261 L22.4194373,220.478261 L22.4194373,206.654731 C22.4194373,203.010128 25.3848849,200.043478 29.0306905,200.043478 L150.43734,200.043478 C154.081944,200.043478 157.048593,203.010128 157.048593,206.654731 L157.048593,220.478261 Z" id="Fill-74" stroke="#fabc45" fill="#fabc45"></path>
                <path d="M146.831202,210.26087 C146.831202,208.933811 147.908235,207.856777 149.235294,207.856777 C150.562353,207.856777 151.639386,208.933811 151.639386,210.26087 C151.639386,211.587928 150.562353,212.664962 149.235294,212.664962 C147.908235,212.664962 146.831202,211.587928 146.831202,210.26087" id="Fill-75" fill="#FFFFFF"></path>
                <path d="M138.41688,210.26087 C138.41688,208.933811 139.493913,207.856777 140.820972,207.856777 C142.148031,207.856777 143.225064,208.933811 143.225064,210.26087 C143.225064,211.587928 142.148031,212.664962 140.820972,212.664962 C139.493913,212.664962 138.41688,211.587928 138.41688,210.26087" id="Fill-76" fill="#FFFFFF"></path>
                <path d="M130.002558,210.26087 C130.002558,208.933811 131.079591,207.856777 132.40665,207.856777 C133.733708,207.856777 134.810742,208.933811 134.810742,210.26087 C134.810742,211.587928 133.733708,212.664962 132.40665,212.664962 C131.079591,212.664962 130.002558,211.587928 130.002558,210.26087" id="Fill-77" fill="#FFFFFF"></path>
                <path d="M149.235294,208.457801 C148.241202,208.457801 147.432225,209.266777 147.432225,210.26087 C147.432225,211.254962 148.241202,212.063939 149.235294,212.063939 C150.229386,212.063939 151.038363,211.254962 151.038363,210.26087 C151.038363,209.266777 150.229386,208.457801 149.235294,208.457801 M149.235294,213.265985 C147.577673,213.265985 146.230179,211.918491 146.230179,210.26087 C146.230179,208.603248 147.577673,207.255754 149.235294,207.255754 C150.892916,207.255754 152.240409,208.603248 152.240409,210.26087 C152.240409,211.918491 150.892916,213.265985 149.235294,213.265985" id="Fill-78" stroke="#fabc45" fill="#fabc45"></path>
                <path d="M138.820972,208.457801 C137.82688,208.457801 137.017903,209.266777 137.017903,210.26087 C137.017903,211.254962 137.82688,212.063939 138.820972,212.063939 C139.815064,212.063939 140.624041,211.254962 140.624041,210.26087 C140.624041,209.266777 139.815064,208.457801 138.820972,208.457801 M138.820972,213.265985 C137.16335,213.265985 135.815857,211.918491 135.815857,210.26087 C135.815857,208.603248 137.16335,207.255754 138.820972,207.255754 C140.478593,207.255754 141.826087,208.603248 141.826087,210.26087 C141.826087,211.918491 140.478593,213.265985 138.820972,213.265985" id="Fill-79" stroke="#fabc45" fill="#fabc45"></path>
                <path d="M128.40665,208.457801 C127.412558,208.457801 126.603581,209.266777 126.603581,210.26087 C126.603581,211.254962 127.412558,212.063939 128.40665,212.063939 C129.400742,212.063939 130.209719,211.254962 130.209719,210.26087 C130.209719,209.266777 129.400742,208.457801 128.40665,208.457801 M128.40665,213.265985 C126.749028,213.265985 125.401535,211.918491 125.401535,210.26087 C125.401535,208.603248 126.749028,207.255754 128.40665,207.255754 C130.064271,207.255754 131.411765,208.603248 131.411765,210.26087 C131.411765,211.918491 130.064271,213.265985 128.40665,213.265985" id="Fill-80" stroke="#fabc45" fill="#fabc45"></path>
                <g class="code_ani">
                    <polygon id="Fill-81" class="cls-23" stroke="#fabc45" fill="#fabc45" points="39.8491049 268.560102 47.0613811 268.560102 47.0613811 267.358056 39.8491049 267.358056"></polygon>
                    <polygon id="Fill-82" class="cls-23" stroke="#fabc45" fill="#fabc45" points="50.6675192 268.560102 90.3350384 268.560102 90.3350384 267.358056 50.6675192 267.358056"></polygon>
                    <polygon id="Fill-83" class="cls-23" stroke="#FFFFFF" fill="#FFFFFF" points="39.8491049 274.368286 69.9002558 274.368286 69.9002558 273.16624 39.8491049 273.16624"></polygon>
                    <polygon id="Fill-84" class="cls-26" stroke="#fabc45" fill="#fabc45" points="74.7084399 274.368286 126.396419 274.368286 126.396419 273.16624 74.7084399 273.16624"></polygon>
                    <polygon id="Fill-85" class="cls-26" stroke="#FFFFFF" fill="#FFFFFF" points="39.8491049 280.176471 47.0613811 280.176471 47.0613811 278.974425 39.8491049 278.974425"></polygon>
                    <polygon id="Fill-85-Copy" class="cls-20" stroke="#FFFFFF" fill="#FFFFFF" points="128.849105 288.176471 136.061381 288.176471 136.061381 286.974425 128.849105 286.974425"></polygon>
                    <polygon id="Fill-86" class="cls-20" stroke="#fabc45" fill="#fabc45" points="51.8695652 280.176471 99.9514066 280.176471 99.9514066 278.974425 51.8695652 278.974425"></polygon>
                    <polygon id="Fill-87" class="cls-20" stroke="#fabc45" fill="#fabc45" points="39.8491049 285.984655 68.6982097 285.984655 68.6982097 284.782609 39.8491049 284.782609"></polygon>
                </g>
                <path d="M41.6521739,243.317136 L53.6726343,243.317136 C54.9996931,243.317136 56.0767263,244.394169 56.0767263,245.721228 L56.0767263,257.741688 C56.0767263,259.068747 54.9996931,260.14578 53.6726343,260.14578 L41.6521739,260.14578 C40.3251151,260.14578 39.2480818,259.068747 39.2480818,257.741688 L39.2480818,245.721228 C39.2480818,244.394169 40.3251151,243.317136 41.6521739,243.317136" id="Fill-88" fill="#FFFFFF"></path>
                <g class="right-to-left">
                    <polygon id="Fill-89" stroke="#fabc45" stroke-width="2" fill="#fabc45" points="411.473146 78.2429668 439.120205 78.2429668 439.120205 77.0409207 411.473146 77.0409207"></polygon>
                </g>
                <g class="left-to-right">
                    <polygon id="Fill-90" stroke="#FFFFFF" stroke-width="2" fill="#FFFFFF" points="424.695652 93.0613811 486 93.0613811 486 91.859335 424.695652 91.859335"></polygon>
                </g>
                <g class="left-to-right2">
                    <polygon id="Fill-89-Copy-2" stroke="#fabc45" stroke-width="2" fill="#fabc45" points="102 1.20204604 122.647059 1.20204604 122.647059 -1.49436019e-13 102 -1.49436019e-13"></polygon>
                </g>
                <polygon id="Fill-89-Copy-3" stroke="#fabc45" stroke-width="2" fill="#fabc45" points="276 253.202046 296.647059 253.202046 296.647059 252 276 252"></polygon>
                <polygon id="Fill-90-Copy" stroke="#FFFFFF" stroke-width="2" fill="#FFFFFF" points="193 268.02046 254.304348 268.02046 254.304348 266.818414 193 266.818414"></polygon>
                <g class="left-to-right">
                    <polygon id="Fill-92" stroke="#fabc45" stroke-width="2" fill="#fabc45" points="63.8900256 187.204604 84.3248082 187.204604 84.3248082 186.002558 63.8900256 186.002558"></polygon>
                </g>
                <g class="right-to-left">
                    <polygon id="Fill-93" stroke="#FFFFFF" stroke-width="2" fill="#FFFFFF" points="74.1176471 175.795396 72.915601 175.795396 72.915601 172.790281 24.2327366 172.790281 24.2327366 171.588235 74.1176471 171.588235"></polygon>
                </g>
                <path d="M62.3043478,146.168798 L62.3043478,146.168798 C58.9854987,146.168798 56.2941176,143.477417 56.2941176,140.158568 L56.2941176,102.895141 L68.314578,102.895141 L68.314578,140.158568 C68.314578,143.477417 65.6231969,146.168798 62.3043478,146.168798" id="Fill-94" fill="#242828"></path>
                <path d="M68.915601,102.895141 L55.6930946,102.895141 C54.6965985,102.895141 53.8900256,102.088568 53.8900256,101.092072 C53.8900256,100.095575 54.6965985,99.2890026 55.6930946,99.2890026 L68.915601,99.2890026 C69.9120972,99.2890026 70.7186701,100.095575 70.7186701,101.092072 C70.7186701,102.088568 69.9120972,102.895141 68.915601,102.895141" id="Fill-96" fill="#FFFFFF"></path>
                <polygon id="Fill-98" fill="#FFFFFF" points="64.7084399 64.6317136 59.9002558 64.6317136 58.6982097 50.2071611 65.9104859 50.2071611"></polygon>
                <path d="M56.8951407,103.496164 L56.8951407,140.158568 C56.8951407,143.140844 59.3220716,145.567775 62.3043478,145.567775 C65.286624,145.567775 67.713555,143.140844 67.713555,140.158568 L67.713555,103.496164 L56.8951407,103.496164 Z M62.3043478,146.769821 C58.6585422,146.769821 55.6930946,143.804373 55.6930946,140.158568 L55.6930946,102.294118 L68.915601,102.294118 L68.915601,140.158568 C68.915601,143.804373 65.9501535,146.769821 62.3043478,146.769821 L62.3043478,146.769821 Z" id="Fill-99" stroke="#fabc45" fill="#fabc45"></path>
                <path d="M55.6930946,99.8900256 C55.0307673,99.8900256 54.4910486,100.429744 54.4910486,101.092072 C54.4910486,101.754399 55.0307673,102.294118 55.6930946,102.294118 L68.915601,102.294118 C69.5779284,102.294118 70.1176471,101.754399 70.1176471,101.092072 C70.1176471,100.429744 69.5779284,99.8900256 68.915601,99.8900256 L55.6930946,99.8900256 Z M68.915601,103.496164 L55.6930946,103.496164 C54.3672379,103.496164 53.2890026,102.417928 53.2890026,101.092072 C53.2890026,99.7662148 54.3672379,98.6879795 55.6930946,98.6879795 L68.915601,98.6879795 C70.2414578,98.6879795 71.3196931,99.7662148 71.3196931,101.092072 C71.3196931,102.417928 70.2414578,103.496164 68.915601,103.496164 L68.915601,103.496164 Z" id="Fill-100" stroke="#fabc45" fill="#fabc45"></path>
                <path d="M61.7033248,98.6879795 L62.9053708,98.6879795 L62.9053708,66.2327366 L61.7033248,66.2327366 L61.7033248,98.6879795 Z M60.5012788,99.8900256 L64.1074169,99.8900256 L64.1074169,65.0306905 L60.5012788,65.0306905 L60.5012788,99.8900256 Z" id="Fill-101" stroke="#fabc45" fill="#fabc45"></path>
                <path d="M60.4531969,65.0306905 L64.1554987,65.0306905 L65.2577749,51.8081841 L59.3509207,51.8081841 L60.4531969,65.0306905 Z M65.2613811,66.2327366 L59.3473146,66.2327366 L58.0454987,50.6061381 L66.5631969,50.6061381 L65.2613811,66.2327366 Z" id="Fill-102" stroke="#fabc45" fill="#fabc45"></path>
                <path d="M468.958407,202.048593 L440.918279,202.048593 L440.918279,221.28133 L484.191936,221.28133 L484.191936,210.462916 C477.77301,210.462916 472.153445,207.099591 468.958407,202.048593" id="Fill-104" fill="#242828"></path>
                <path d="M440.918159,223.685422 L434.907928,223.685422 C434.243197,223.685422 433.705882,223.148107 433.705882,222.483376 L433.705882,200.846547 C433.705882,200.181816 434.243197,199.644501 434.907928,199.644501 L440.918159,199.644501 L440.918159,223.685422 Z" id="Fill-105" fill="#F2FEFB"></path>
                <path d="M440.918159,208.659847 L434.907928,208.659847 C434.243197,208.659847 433.705882,208.122532 433.705882,207.457801 L433.705882,200.846547 C433.705882,200.181816 434.243197,199.644501 434.907928,199.644501 L440.918159,199.644501 L440.918159,208.659847 Z" id="Fill-106" fill="#FFFFFF"></path>
                <path d="M452.337596,222.882353 L452.337596,279.97954 C452.337596,281.637161 453.68509,282.984655 455.342711,282.984655 C457.000332,282.984655 458.347826,281.637161 458.347826,279.97954 L458.347826,222.882353 L452.337596,222.882353 Z M455.342711,284.186701 C453.022762,284.186701 451.13555,282.299488 451.13555,279.97954 L451.13555,221.680307 L459.549872,221.680307 L459.549872,279.97954 C459.549872,282.299488 457.66266,284.186701 455.342711,284.186701 L455.342711,284.186701 Z" id="Fill-107" stroke="#fabc45" stroke-width="2" fill="#fabc45"></path>
                <path d="M440.918159,202.048593 L440.918159,218.246164 C441.120102,218.250972 441.316036,218.276215 441.519182,218.276215 C451.361535,218.276215 459.575115,211.315166 461.516419,202.048593 L440.918159,202.048593 Z" id="Fill-108" fill="#FFFFFF"></path>
                <path d="M441.519182,220.680307 L483.590793,220.680307 L483.590793,211.054322 C477.522864,210.861995 471.988645,207.75711 468.63133,202.649616 L441.519182,202.649616 L441.519182,220.680307 Z M484.792839,221.882353 L440.317136,221.882353 L440.317136,201.44757 L469.290051,201.44757 L469.466752,201.726445 C472.689437,206.820716 478.194808,209.861893 484.191816,209.861893 L484.792839,209.861893 L484.792839,221.882353 Z" id="Fill-109" stroke="#fabc45" stroke-width="2" fill="#fabc45"></path>
                <path d="M434.907928,200.245524 C434.577366,200.245524 434.306905,200.515985 434.306905,200.846547 L434.306905,222.483376 C434.306905,222.813939 434.577366,223.084399 434.907928,223.084399 L440.317136,223.084399 L440.317136,200.245524 L434.907928,200.245524 Z M441.519182,224.286445 L434.907928,224.286445 C433.913836,224.286445 433.104859,223.477468 433.104859,222.483376 L433.104859,200.846547 C433.104859,199.852455 433.913836,199.043478 434.907928,199.043478 L441.519182,199.043478 L441.519182,224.286445 Z" id="Fill-110" stroke="#fabc45" stroke-width="2" fill="#fabc45"></path>
                <polygon id="Fill-111" stroke="#fabc45" stroke-width="2" fill="#fabc45" points="446.726343 209.457801 458.726343 209.457801 458.726343 208.255754 446.726343 208.255754"></polygon>
                <path d="M458.948849,292 L451.736573,292 C450.409514,292 449.332481,290.922967 449.332481,289.595908 L449.332481,270.363171 C449.332481,269.036113 450.409514,267.959079 451.736573,267.959079 L458.948849,267.959079 C460.275908,267.959079 461.352941,269.036113 461.352941,270.363171 L461.352941,289.595908 C461.352941,290.922967 460.275908,292 458.948849,292" id="Fill-112" fill="#F2FEFB"></path>
                <path d="M451.736573,268.560102 C450.742481,268.560102 449.933504,269.369079 449.933504,270.363171 L449.933504,289.595908 C449.933504,290.59 450.742481,291.398977 451.736573,291.398977 L458.948849,291.398977 C459.942941,291.398977 460.751918,290.59 460.751918,289.595908 L460.751918,270.363171 C460.751918,269.369079 459.942941,268.560102 458.948849,268.560102 L451.736573,268.560102 Z M458.948849,292.601023 L451.736573,292.601023 C450.078951,292.601023 448.731458,291.253529 448.731458,289.595908 L448.731458,270.363171 C448.731458,268.70555 450.078951,267.358056 451.736573,267.358056 L458.948849,267.358056 C460.606471,267.358056 461.953964,268.70555 461.953964,270.363171 L461.953964,289.595908 C461.953964,291.253529 460.606471,292.601023 458.948849,292.601023 L458.948849,292.601023 Z" id="Fill-113" stroke="#fabc45" stroke-width="2" fill="#fabc45"></path>
                <path d="M424.503836,348.092072 L370.411765,348.092072 C367.106138,348.092072 364.401535,345.387468 364.401535,342.081841 L364.401535,259.140665 C364.401535,255.835038 367.106138,253.130435 370.411765,253.130435 L424.503836,253.130435 C427.809463,253.130435 430.514066,255.835038 430.514066,259.140665 L430.514066,342.081841 C430.514066,345.387468 427.809463,348.092072 424.503836,348.092072" id="Fill-114" fill="#242828"></path>
                <g id="Group" transform="translate(372.007673, 269.751918)">
                    <path d="M9.87627013,40.5446879 C30.5457441,40.5446879 47.3021359,23.7882961 47.3021359,3.11882215 C47.3021359,2.24347273 47.2615912,1.379559 47.2023336,0.519803691 L48.3417433,0.519803691 C49.4894698,0.519803691 50.420958,1.45129191 50.420958,2.59901846 L50.420958,60.8170319 C50.420958,61.9647584 49.4894698,62.8962466 48.3417433,62.8962466 L2.59901846,62.8962466 C1.45129191,62.8962466 0.519803691,61.9647584 0.519803691,60.8170319 L0.519803691,39.3657731 C3.51075413,40.1350826 6.64621,40.5446879 9.87627013,40.5446879 Z" id="Combined-Shape" fill="#FFFFFF"></path>
                    <path d="M2.59901846,1.03960738 C1.73926315,1.03960738 1.03960738,1.73926315 1.03960738,2.59901846 L1.03960738,60.8170319 C1.03960738,61.6767872 1.73926315,62.3764429 2.59901846,62.3764429 L48.3417433,62.3764429 C49.2014986,62.3764429 49.9011544,61.6767872 49.9011544,60.8170319 L49.9011544,2.59901846 C49.9011544,1.73926315 49.2014986,1.03960738 48.3417433,1.03960738 L2.59901846,1.03960738 Z M48.3417433,63.4160503 L2.59901846,63.4160503 C1.16539988,63.4160503 7.37428137e-14,62.2506504 7.37428137e-14,60.8170319 L7.37428137e-14,2.59901846 C7.37428137e-14,1.16539988 1.16539988,-1.22904689e-13 2.59901846,-1.22904689e-13 L48.3417433,-1.22904689e-13 C49.7753619,-1.22904689e-13 50.9407617,1.16539988 50.9407617,2.59901846 L50.9407617,60.8170319 C50.9407617,62.2506504 49.7753619,63.4160503 48.3417433,63.4160503 L48.3417433,63.4160503 Z" id="Fill-118" stroke="#fabc45" fill="#fabc45"></path>
                </g>
                <path d="M370.411765,253.731458 C367.429488,253.731458 365.002558,256.158389 365.002558,259.140665 L365.002558,342.081841 C365.002558,345.064118 367.429488,347.491049 370.411765,347.491049 L424.503836,347.491049 C427.486113,347.491049 429.913043,345.064118 429.913043,342.081841 L429.913043,259.140665 C429.913043,256.158389 427.486113,253.731458 424.503836,253.731458 L370.411765,253.731458 Z M424.503836,348.693095 L370.411765,348.693095 C366.767161,348.693095 363.800512,345.726445 363.800512,342.081841 L363.800512,259.140665 C363.800512,255.496061 366.767161,252.529412 370.411765,252.529412 L424.503836,252.529412 C428.14844,252.529412 431.11509,255.496061 431.11509,259.140665 L431.11509,342.081841 C431.11509,345.726445 428.14844,348.693095 424.503836,348.693095 L424.503836,348.693095 Z" id="Fill-116" stroke="#FFFFFF" stroke-width="2" fill="#FFFFFF"></path>
                <polygon id="Fill-119" stroke="#fabc45" stroke-width="3" fill="#fabc45" points="53.455243 369.309463 313.097187 369.309463 313.097187 368.107417 53.455243 368.107417"></polygon>
                <polygon id="Fill-120" stroke="#fabc45" stroke-width="3" fill="#fabc45" points="332.713555 369.309463 414.452685 369.309463 414.452685 368.107417 332.713555 368.107417"></polygon>
                <path d="M493,324.998832 C493,327.208467 491.208467,329 489.001168,329 C486.791533,329 485,327.208467 485,324.998832 C485,322.789197 486.791533,321 489.001168,321 C491.208467,321 493,322.789197 493,324.998832" id="Fill-29" fill="#FFFFFF"></path>
                <path d="M189,322.998832 C189,325.208467 187.208467,327 185.001168,327 C182.791533,327 181,325.208467 181,322.998832 C181,320.789197 182.791533,319 185.001168,319 C187.208467,319 189,320.789197 189,322.998832" id="Fill-29-Copy" fill="#fabc45"></path>
                <g class="plus1">
                    <path d="M15.2778753,323.063153 L2.28118784,323.063153 C1.02197215,323.063153 2.66453526e-14,322.041181 2.66453526e-14,320.781965 C2.66453526e-14,319.522749 1.02197215,318.500777 2.28118784,318.500777 L15.2778753,318.500777 C16.537091,318.500777 17.5590632,319.522749 17.5590632,320.781965 C17.5590632,322.041181 16.537091,323.063153 15.2778753,323.063153" id="Fill-54" fill="#FFFFFF"></path>
                    <path d="M8.77892327,329.562105 C7.51970759,329.562105 6.49773544,328.540133 6.49773544,327.280917 L6.49773544,314.281188 C6.49773544,313.021972 7.51970759,312 8.77892327,312 C10.038139,312 11.0601111,313.021972 11.0601111,314.281188 L11.0601111,327.280917 C11.0601111,328.540133 10.038139,329.562105 8.77892327,329.562105" id="Fill-55" fill="#FFFFFF"></path>
                </g>
                <path d="M426.281948,37.7563231 C425.697964,37.7563231 425.11398,37.5342874 424.669909,37.0871746 C423.778725,36.1959906 423.778725,34.7542799 424.669909,33.8630958 L433.861575,24.668388 C434.752759,23.777204 436.197511,23.777204 437.088695,24.668388 C437.979879,25.5595721 437.979879,27.0043244 437.088695,27.8955084 L427.893988,37.0871746 C427.449916,37.5342874 426.865932,37.7563231 426.281948,37.7563231" id="Fill-60" fill="#fabc45"></path>
                <path d="M435.475135,37.7563231 C434.891151,37.7563231 434.307167,37.5342874 433.863096,37.0871746 L424.668388,27.8955084 C423.777204,27.0043244 423.777204,25.5595721 424.668388,24.668388 C425.559572,23.777204 427.004324,23.777204 427.895508,24.668388 L437.087175,33.8630958 C437.978359,34.7542799 437.978359,36.1959906 437.087175,37.0871746 C436.643103,37.5342874 436.059119,37.7563231 435.475135,37.7563231" id="Fill-61" fill="#fabc45"></path>
                <g class="right-to-left">
                    <polygon id="Fill-148-Copy" fill="#fabc45" points="241.230165 10 177.147036 10 159.061779 10 159.061779 33.3248082 263.366811 33.3248082 263.366811 10"></polygon>
                </g>
                <g class="left-to-right">
                    <polygon id="Fill-90-Copy-2" stroke="#FFFFFF" stroke-width="2" fill="#FFFFFF" points="126 25.202046 237.304348 25.202046 237.304348 24 126 24"></polygon>
                </g>
            </g>
        </g>
    </g>
</svg>