<svg xmlns="http://www.w3.org/2000/svg" viewBox="0 0 26.58 27.86"><defs><style>.cls-1{fill:#fff;}.cls-1,.cls-2{fill-rule:evenodd;}.cls-2{fill:#00e8b4;}</style></defs><title>Asset 12</title><g id="Layer_2" data-name="Layer 2"><g id="Layer_1-2" data-name="Layer 1"><path id="Fill-5356" class="cls-1" d="M1.27,8.68a.73.73,0,0,1-.52.21.73.73,0,0,1-.54-.21A.72.72,0,0,1,0,8.16V1.21A.69.69,0,0,1,.22.69.74.74,0,0,1,.77.48a.73.73,0,0,1,.52.21.72.72,0,0,1,.21.52v7a.66.66,0,0,1-.23.52"></path><path id="Fill-5358" class="cls-1" d="M8.31,3.07a3.71,3.71,0,0,1,.47,2V8.16a.75.75,0,0,1-.2.52.75.75,0,0,1-1,0,.75.75,0,0,1-.2-.52V5.08a1.69,1.69,0,0,0-.28-1,1.1,1.1,0,0,0-.95-.38A1.51,1.51,0,0,0,5,4.06a1.44,1.44,0,0,0-.4,1V8.16a.71.71,0,0,1-.2.52.69.69,0,0,1-.52.21.66.66,0,0,1-.51-.21.72.72,0,0,1-.21-.52v-5a.72.72,0,0,1,.21-.52.66.66,0,0,1,.51-.21.69.69,0,0,1,.52.21.71.71,0,0,1,.2.52V3.4a3,3,0,0,1,.85-.75,2.28,2.28,0,0,1,1.15-.31,1.84,1.84,0,0,1,1.69.73"></path><path id="Fill-5360" class="cls-1" d="M14.39,7.12a2.11,2.11,0,0,0,.49-1.44,2.13,2.13,0,0,0-.49-1.44,1.61,1.61,0,0,0-1.27-.58,1.58,1.58,0,0,0-1.26.58,2.14,2.14,0,0,0-.5,1.44,2.16,2.16,0,0,0,.49,1.44,1.7,1.7,0,0,0,2.54,0M16.06.2a.72.72,0,0,1,.2.53V8.16a.71.71,0,0,1-.2.52.7.7,0,0,1-.52.21.69.69,0,0,1-.51-.2.79.79,0,0,1-.21-.52,2.43,2.43,0,0,1-.81.59A2.37,2.37,0,0,1,12.94,9a2.66,2.66,0,0,1-1.5-.43A3,3,0,0,1,10.37,7.4,3.69,3.69,0,0,1,10,5.68,3.72,3.72,0,0,1,10.37,4a2.83,2.83,0,0,1,1.05-1.19,2.69,2.69,0,0,1,1.47-.43A2.81,2.81,0,0,1,14,2.55a2.69,2.69,0,0,1,.85.54V.73A.72.72,0,0,1,15,.21.66.66,0,0,1,15.54,0a.73.73,0,0,1,.52.2"></path><path id="Fill-5362" class="cls-1" d="M19,8.68a.7.7,0,0,1-.52.21A.66.66,0,0,1,18,8.68a.72.72,0,0,1-.21-.52v-5A.72.72,0,0,1,18,2.67a.66.66,0,0,1,.51-.21.7.7,0,0,1,.52.21.75.75,0,0,1,.2.52v5a.75.75,0,0,1-.2.52M17.87,1.55a.57.57,0,0,1-.16-.47V.85a.56.56,0,0,1,.18-.47,1.36,1.36,0,0,1,1.16,0,.58.58,0,0,1,.17.47v.23a.56.56,0,0,1-.18.48,1.06,1.06,0,0,1-.59.12,1,1,0,0,1-.58-.13"></path><path id="Fill-5364" class="cls-1" d="M24.71,7.12a2.11,2.11,0,0,0,.49-1.44,2.13,2.13,0,0,0-.49-1.44,1.61,1.61,0,0,0-1.27-.58,1.58,1.58,0,0,0-1.26.58,2.14,2.14,0,0,0-.5,1.44,2.11,2.11,0,0,0,.49,1.44,1.57,1.57,0,0,0,1.27.57,1.6,1.6,0,0,0,1.27-.57m1.67-4.57a.72.72,0,0,1,.2.52V8.16a.75.75,0,0,1-.2.52.7.7,0,0,1-.52.21.69.69,0,0,1-.51-.2.79.79,0,0,1-.21-.52,2.43,2.43,0,0,1-.81.59A2.37,2.37,0,0,1,23.26,9a2.72,2.72,0,0,1-1.51-.43A3,3,0,0,1,20.69,7.4a3.69,3.69,0,0,1-.39-1.72A3.85,3.85,0,0,1,20.68,4a2.93,2.93,0,0,1,1.06-1.19,2.69,2.69,0,0,1,1.47-.43,2.83,2.83,0,0,1,1.93.75v0a.75.75,0,0,1,.2-.52.75.75,0,0,1,1,0"></path><path id="Fill-5526" class="cls-2" d="M16.67,24.88a5.4,5.4,0,0,0,1.86-3,.39.39,0,0,0-.29-.45.39.39,0,0,0-.28,0,.37.37,0,0,0-.17.24,4.61,4.61,0,1,1-.69-3.59.43.43,0,0,0,.24.16.49.49,0,0,0,.29-.06.35.35,0,0,0,.15-.24.38.38,0,0,0-.06-.29,5.37,5.37,0,1,0-1,7.19"></path><path id="Fill-5528" class="cls-2" d="M19.5,17.27A7.16,7.16,0,0,0,6.36,22.72a.39.39,0,0,0,.18.22.37.37,0,0,0,.29,0,.33.33,0,0,0,.22-.18.35.35,0,0,0,0-.28A6.47,6.47,0,0,1,7.3,18.3,6.39,6.39,0,0,1,15,14.57a6.31,6.31,0,0,1,3.82,3.06A6.4,6.4,0,0,1,11.89,27a.39.39,0,0,0-.45.29.39.39,0,0,0,.05.28.36.36,0,0,0,.24.16,6.89,6.89,0,0,0,1.5.16A7.15,7.15,0,0,0,19.5,17.27"></path><path id="Fill-5530" class="cls-2" d="M12.9,23.42A2,2,0,0,0,15,23.17l.14-.12a.44.44,0,1,0-.6-.65l-.1.09a1.13,1.13,0,0,1-1.83-.89v-2H14.9a.4.4,0,1,0,0-.79H12.63v-.54a.44.44,0,1,0-.88,0v.54h-.59a.4.4,0,0,0,0,.79h.59v2a2,2,0,0,0,1.15,1.82"></path></g></g></svg>