<svg xmlns="http://www.w3.org/2000/svg" viewBox="0 0 43.71 27.24"><defs><style>.cls-1{fill:#fff;}.cls-1,.cls-2{fill-rule:evenodd;}.cls-2{fill:#00e8b4;}</style></defs><title>Asset 5</title><g id="Layer_2" data-name="Layer 2"><g id="Layer_1-2" data-name="Layer 1"><path id="Fill-5452" class="cls-1" d="M1.59,8.79A3.64,3.64,0,0,1,.32,8.06.85.85,0,0,1,0,7.42a.69.69,0,0,1,.2-.48.67.67,0,0,1,.5-.21.59.59,0,0,1,.4.14A3.64,3.64,0,0,0,2,7.45a3,3,0,0,0,1.08.18,2.15,2.15,0,0,0,1.16-.3.87.87,0,0,0,.49-.75,1,1,0,0,0-.48-.85,4.28,4.28,0,0,0-1.53-.46C1,5,.13,4.2.13,2.82a2.17,2.17,0,0,1,.4-1.31A2.36,2.36,0,0,1,1.61.66,3.72,3.72,0,0,1,3.13.36,4.46,4.46,0,0,1,4.56.59a3.46,3.46,0,0,1,1.11.6A.81.81,0,0,1,6,1.83a.66.66,0,0,1-.21.48.63.63,0,0,1-.48.21A.46.46,0,0,1,5,2.41,3.47,3.47,0,0,0,4.14,2a2.94,2.94,0,0,0-1-.21A2.15,2.15,0,0,0,2,2a.88.88,0,0,0-.41.74A.85.85,0,0,0,2,3.54,4.23,4.23,0,0,0,3.32,4,7.08,7.08,0,0,1,5,4.44a2.11,2.11,0,0,1,.93.77A2.32,2.32,0,0,1,6.21,6.5a2.14,2.14,0,0,1-.43,1.33,2.67,2.67,0,0,1-1.13.87A3.7,3.7,0,0,1,3.12,9a4.79,4.79,0,0,1-1.53-.22"></path><path id="Fill-5454" class="cls-1" d="M15.36,2.67a.76.76,0,0,1,.19.54,1,1,0,0,1,0,.27L13.67,8.43a.6.6,0,0,1-.26.34.66.66,0,0,1-.4.13h-.1a.72.72,0,0,1-.61-.46l-1-2.95-1,2.95a.73.73,0,0,1-.62.46H9.6a.69.69,0,0,1-.41-.13.58.58,0,0,1-.25-.34L7.1,3.48a.81.81,0,0,1,0-.27.75.75,0,0,1,.2-.52.65.65,0,0,1,.52-.23.69.69,0,0,1,.41.12.59.59,0,0,1,.25.34l1.3,3.52.95-2.57a.67.67,0,0,1,.66-.45.62.62,0,0,1,.39.11.81.81,0,0,1,.23.34l.93,2.51,1.28-3.46a.6.6,0,0,1,.26-.34.76.76,0,0,1,.44-.12.67.67,0,0,1,.49.21"></path><path id="Fill-5456" class="cls-1" d="M17.78,5h3.14V4.89A1.22,1.22,0,0,0,20.43,4a1.56,1.56,0,0,0-1-.36A1.48,1.48,0,0,0,17.78,5m4.45,1a.75.75,0,0,1-.5.18h-4a1.77,1.77,0,0,0,.67,1.11,1.83,1.83,0,0,0,1.16.41,2.57,2.57,0,0,0,.77-.09,2,2,0,0,0,.44-.2L21,7.27a.93.93,0,0,1,.41-.11.58.58,0,0,1,.43.18.58.58,0,0,1,.18.42.76.76,0,0,1-.33.59,3.09,3.09,0,0,1-.91.47A3.68,3.68,0,0,1,19.66,9a3.55,3.55,0,0,1-1.76-.42,3,3,0,0,1-1.16-1.16,3.4,3.4,0,0,1-.4-1.66A3.68,3.68,0,0,1,16.77,4a3,3,0,0,1,1.14-1.19,2.88,2.88,0,0,1,3,0A3.22,3.22,0,0,1,22,3.94a3.15,3.15,0,0,1,.42,1.59.59.59,0,0,1-.23.46"></path><path id="Fill-5458" class="cls-1" d="M27.71,7.12a2.11,2.11,0,0,0,.49-1.44,2.13,2.13,0,0,0-.49-1.44,1.61,1.61,0,0,0-1.27-.58,1.58,1.58,0,0,0-1.26.58,2.14,2.14,0,0,0-.5,1.44,2.16,2.16,0,0,0,.49,1.44,1.7,1.7,0,0,0,2.54,0M29.38.2a.72.72,0,0,1,.21.53V8.16a.72.72,0,0,1-.21.52.7.7,0,0,1-.52.21.71.71,0,0,1-.51-.2.79.79,0,0,1-.21-.52,2.43,2.43,0,0,1-.81.59A2.37,2.37,0,0,1,26.26,9a2.66,2.66,0,0,1-1.5-.43A3,3,0,0,1,23.69,7.4a3.69,3.69,0,0,1-.39-1.72A3.72,3.72,0,0,1,23.69,4a2.83,2.83,0,0,1,1-1.19,2.69,2.69,0,0,1,1.47-.43,2.81,2.81,0,0,1,1.08.21,2.69,2.69,0,0,1,.85.54V.73a.72.72,0,0,1,.21-.52A.68.68,0,0,1,28.86,0a.73.73,0,0,1,.52.2"></path><path id="Fill-5460" class="cls-1" d="M32.23,5h3.14V4.89A1.22,1.22,0,0,0,34.88,4a1.56,1.56,0,0,0-1-.36A1.49,1.49,0,0,0,32.23,5m4.45,1a.75.75,0,0,1-.5.18h-4a1.72,1.72,0,0,0,.66,1.11A1.83,1.83,0,0,0,34,7.69a2.57,2.57,0,0,0,.77-.09,1.83,1.83,0,0,0,.44-.2l.22-.13a1,1,0,0,1,.41-.11.58.58,0,0,1,.43.18.58.58,0,0,1,.18.42.76.76,0,0,1-.33.59,3.09,3.09,0,0,1-.91.47A3.68,3.68,0,0,1,34.11,9a3.55,3.55,0,0,1-1.76-.42,3,3,0,0,1-1.16-1.16,3.4,3.4,0,0,1-.4-1.66A3.68,3.68,0,0,1,31.22,4a3,3,0,0,1,1.14-1.19,2.88,2.88,0,0,1,3,0,3.22,3.22,0,0,1,1.12,1.17,3.15,3.15,0,0,1,.42,1.59.59.59,0,0,1-.23.46"></path><path id="Fill-5462" class="cls-1" d="M43.24,3.07a3.71,3.71,0,0,1,.47,2V8.16a.75.75,0,0,1-.2.52.75.75,0,0,1-1,0,.75.75,0,0,1-.2-.52V5.08A1.69,1.69,0,0,0,42,4a1.1,1.1,0,0,0-1-.38,1.49,1.49,0,0,0-1.09.4,1.44,1.44,0,0,0-.4,1V8.16a.71.71,0,0,1-.2.52.7.7,0,0,1-.52.21.66.66,0,0,1-.51-.21.72.72,0,0,1-.21-.52v-5a.72.72,0,0,1,.21-.52.66.66,0,0,1,.51-.21.7.7,0,0,1,.52.21.71.71,0,0,1,.2.52V3.4a3,3,0,0,1,.85-.75,2.28,2.28,0,0,1,1.15-.31,1.85,1.85,0,0,1,1.69.73"></path><path id="Fill-5514" class="cls-2" d="M36.27,24.25a5.38,5.38,0,0,0,1.86-3,.37.37,0,0,0-.29-.45.4.4,0,0,0-.28.05.37.37,0,0,0-.16.24,4.66,4.66,0,0,1-1.6,2.58,4.61,4.61,0,1,1,.91-6.17.36.36,0,0,0,.24.15.39.39,0,0,0,.28,0,.42.42,0,0,0,.16-.25.36.36,0,0,0-.06-.28,5.37,5.37,0,1,0-1.06,7.18"></path><path id="Fill-5516" class="cls-2" d="M39.1,16.65a7.14,7.14,0,0,0-9.71-2.83A7.15,7.15,0,0,0,26,22.09a.37.37,0,0,0,.46.26.38.38,0,0,0,.23-.18.37.37,0,0,0,0-.29,6.39,6.39,0,1,1,4.8,4.47.36.36,0,0,0-.44.29.32.32,0,0,0,.05.28.37.37,0,0,0,.24.16,6.8,6.8,0,0,0,1.49.16A7.15,7.15,0,0,0,39.1,16.65"></path><path id="Fill-5518" class="cls-2" d="M32.5,22.79a1.91,1.91,0,0,0,.87.2,2,2,0,0,0,1.25-.44l.14-.13a.44.44,0,0,0-.59-.65l-.11.09a1.08,1.08,0,0,1-1.18.14,1.11,1.11,0,0,1-.65-1V19h2.28a.39.39,0,0,0,.39-.39.4.4,0,0,0-.39-.39H32.23v-.55a.44.44,0,0,0-.44-.44.44.44,0,0,0-.44.44v.55h-.58a.39.39,0,0,0-.39.39.38.38,0,0,0,.39.39h.58v2a2,2,0,0,0,1.15,1.82"></path></g></g></svg>