<svg xmlns="http://www.w3.org/2000/svg" viewBox="0 0 22.17 28.39"><defs><style>.cls-1{fill:#fff;}.cls-1,.cls-2{fill-rule:evenodd;}.cls-2{fill:#00e8b4;}</style></defs><title>Asset 3</title><g id="Layer_2" data-name="Layer 2"><g id="Layer_1-2" data-name="Layer 1"><path id="Fill-5366" class="cls-1" d="M6.47.31a.76.76,0,0,1,.2.53V5.19A3.65,3.65,0,0,1,6.25,7a3.09,3.09,0,0,1-1.18,1.2,3.42,3.42,0,0,1-1.73.43A3.45,3.45,0,0,1,1.6,8.16,3,3,0,0,1,.42,7,3.65,3.65,0,0,1,0,5.19V.84A.7.7,0,0,1,.21.32.78.78,0,0,1,.77.11a.69.69,0,0,1,.5.21.67.67,0,0,1,.22.52V5.19a2.07,2.07,0,0,0,.25,1,1.74,1.74,0,0,0,.68.69,1.83,1.83,0,0,0,.92.24,2.08,2.08,0,0,0,1-.24A1.9,1.9,0,0,0,5,6.22a2,2,0,0,0,.27-1V.84A.79.79,0,0,1,5.48.31.63.63,0,0,1,6,.11a.65.65,0,0,1,.5.2"></path><path id="Fill-5368" class="cls-1" d="M9.51,8.43A3.54,3.54,0,0,1,8.25,7.7a.85.85,0,0,1-.32-.64.65.65,0,0,1,.2-.48.67.67,0,0,1,.49-.21A.66.66,0,0,1,9,6.51a3.33,3.33,0,0,0,.94.58,2.91,2.91,0,0,0,1.08.18A2.18,2.18,0,0,0,12.21,7a.89.89,0,0,0,.49-.75.94.94,0,0,0-.48-.84,4.06,4.06,0,0,0-1.53-.47C8.94,4.66,8.06,3.84,8.06,2.46a2.17,2.17,0,0,1,.4-1.31A2.42,2.42,0,0,1,9.54.3,3.72,3.72,0,0,1,11.06,0a4.46,4.46,0,0,1,1.43.23,3.46,3.46,0,0,1,1.11.6.81.81,0,0,1,.35.64.66.66,0,0,1-.21.48.64.64,0,0,1-.48.21.46.46,0,0,1-.32-.11,3.39,3.39,0,0,0-.88-.46,2.85,2.85,0,0,0-1-.21,2.06,2.06,0,0,0-1.17.29.85.85,0,0,0-.41.73.88.88,0,0,0,.42.79,4.19,4.19,0,0,0,1.34.43,6.8,6.8,0,0,1,1.65.46,2.08,2.08,0,0,1,.94.77,2.41,2.41,0,0,1,.31,1.29,2.14,2.14,0,0,1-.43,1.33,2.67,2.67,0,0,1-1.13.87,3.74,3.74,0,0,1-1.53.31,4.85,4.85,0,0,1-1.54-.22"></path><path id="Fill-5370" class="cls-1" d="M17.22,5.26h2.41L18.41,2.45Zm5,2.62a.69.69,0,0,1-.2.51.67.67,0,0,1-.47.2.63.63,0,0,1-.39-.13.82.82,0,0,1-.27-.36l-.62-1.46H16.64L16,8.11a.72.72,0,0,1-.26.35.58.58,0,0,1-.37.13.65.65,0,0,1-.48-.17A.61.61,0,0,1,14.74,8a.91.91,0,0,1,0-.23l3-7.19a.91.91,0,0,1,.29-.37.79.79,0,0,1,.84,0,.74.74,0,0,1,.27.35l2.95,7a.83.83,0,0,1,.06.29Z"></path><path id="Fill-5484" class="cls-2" d="M14.53,25.4a5.41,5.41,0,0,0,1.85-3A.36.36,0,0,0,16.1,22a.34.34,0,0,0-.29.05.38.38,0,0,0-.16.23,4.61,4.61,0,0,1-4.51,3.62A4.62,4.62,0,1,1,15,18.64a.36.36,0,0,0,.24.16.35.35,0,0,0,.28-.06.37.37,0,0,0,.16-.24.35.35,0,0,0-.06-.28,5.36,5.36,0,1,0-4.44,8.38,5.44,5.44,0,0,0,3.39-1.2"></path><path id="Fill-5486" class="cls-2" d="M17.35,17.79A7.15,7.15,0,0,0,4.22,23.24a.33.33,0,0,0,.18.22.42.42,0,0,0,.29,0,.41.41,0,0,0,.22-.19.34.34,0,0,0,0-.28A6.43,6.43,0,0,1,8,15.62a6.4,6.4,0,0,1,6.16,11.22,6.29,6.29,0,0,1-4.42.65.38.38,0,1,0-.15.74,7.47,7.47,0,0,0,1.49.16,7.31,7.31,0,0,0,3.45-.88,7.17,7.17,0,0,0,2.82-9.72"></path><path id="Fill-5488" class="cls-2" d="M10.75,23.94a2,2,0,0,0,.87.2,2,2,0,0,0,1.25-.45l.14-.12a.44.44,0,0,0-.59-.65l-.1.09a1.1,1.1,0,0,1-1.19.14,1.14,1.14,0,0,1-.65-1v-2h2.28a.39.39,0,0,0,.39-.39.38.38,0,0,0-.39-.39H10.48v-.55a.43.43,0,0,0-.44-.44.44.44,0,0,0-.44.44v.55H9a.38.38,0,0,0-.39.39A.39.39,0,0,0,9,20.1H9.6v2a2,2,0,0,0,1.15,1.82"></path></g></g></svg>