<svg xmlns="http://www.w3.org/2000/svg" viewBox="0 0 47.43 27.87"><defs><style>.cls-1{fill:#fff;}.cls-1,.cls-2{fill-rule:evenodd;}.cls-2{fill:#00e8b4;}</style></defs><title>Asset 13</title><g id="Layer_2" data-name="Layer 2"><g id="Layer_1-2" data-name="Layer 1"><path id="Fill-5342" class="cls-1" d="M7.2.41A.64.64,0,0,1,7.42.9a.82.82,0,0,1-.07.33l-3,6.94a.79.79,0,0,1-.3.35.75.75,0,0,1-.41.12.72.72,0,0,1-.37-.13A.73.73,0,0,1,3,8.18l-3-7A.67.67,0,0,1,0,.91.64.64,0,0,1,.24.39.77.77,0,0,1,.73.19a.69.69,0,0,1,.39.12.74.74,0,0,1,.27.35L3.81,6.34,6,.66A.82.82,0,0,1,6.29.32.78.78,0,0,1,6.68.2.73.73,0,0,1,7.2.41"></path><path id="Fill-5344" class="cls-1" d="M9.72,8.43a.75.75,0,0,1-1,0,.75.75,0,0,1-.2-.52v-5a.73.73,0,0,1,.2-.52.75.75,0,0,1,1,0,.73.73,0,0,1,.2.52v5a.75.75,0,0,1-.2.52M8.61,1.3A.58.58,0,0,1,8.44.83V.6A.56.56,0,0,1,8.62.13,1.08,1.08,0,0,1,9.2,0a1,1,0,0,1,.59.13A.58.58,0,0,1,10,.6V.83a.53.53,0,0,1-.18.47,1,1,0,0,1-.59.13,1,1,0,0,1-.58-.13"></path><path id="Fill-5346" class="cls-1" d="M12.48,4.72h3.15V4.64a1.23,1.23,0,0,0-.5-.87,1.54,1.54,0,0,0-1-.36,1.49,1.49,0,0,0-1.64,1.31m4.46,1a.79.79,0,0,1-.51.18h-4A1.74,1.74,0,0,0,13.13,7a1.82,1.82,0,0,0,1.16.4,2.62,2.62,0,0,0,.77-.08,1.83,1.83,0,0,0,.44-.2L15.72,7a.84.84,0,0,1,.41-.11.58.58,0,0,1,.43.18.58.58,0,0,1,.18.42.76.76,0,0,1-.33.59,3.15,3.15,0,0,1-.9.47,3.8,3.8,0,0,1-1.15.19,3.51,3.51,0,0,1-1.75-.42,2.88,2.88,0,0,1-1.16-1.16A3.31,3.31,0,0,1,11,5.51a3.67,3.67,0,0,1,.43-1.81,3.14,3.14,0,0,1,1.14-1.2,3,3,0,0,1,1.51-.41,2.89,2.89,0,0,1,1.5.43,3.22,3.22,0,0,1,1.12,1.17,3.11,3.11,0,0,1,.42,1.58.59.59,0,0,1-.22.47"></path><path id="Fill-5348" class="cls-1" d="M21.77,7.44a.65.65,0,0,1-.21,1,1.58,1.58,0,0,1-.8.22,2.36,2.36,0,0,1-1.26-.32Q19,8,19,7V3.65h-.55A.65.65,0,0,1,18,3.46a.66.66,0,0,1-.2-.48.61.61,0,0,1,.2-.46.65.65,0,0,1,.48-.19H19V1.56a.72.72,0,0,1,.73-.73.69.69,0,0,1,.51.21.73.73,0,0,1,.2.52v.77h.85a.7.7,0,0,1,.49.19A.69.69,0,0,1,22,3a.67.67,0,0,1-.19.47.69.69,0,0,1-.49.18h-.85V6.91a.48.48,0,0,0,.13.36.52.52,0,0,0,.36.12,1.12,1.12,0,0,0,.27,0,.7.7,0,0,1,.27-.06.38.38,0,0,1,.31.16"></path><path id="Fill-5350" class="cls-1" d="M28.41,2.82a3.69,3.69,0,0,1,.47,2V7.91a.72.72,0,0,1-.21.52.68.68,0,0,1-.51.21.7.7,0,0,1-.52-.21.72.72,0,0,1-.21-.52V4.83a1.76,1.76,0,0,0-.27-1,1.11,1.11,0,0,0-.95-.38,1.49,1.49,0,0,0-1.09.4,1.38,1.38,0,0,0-.4,1V7.91a.75.75,0,0,1-.2.52.75.75,0,0,1-1,0,.75.75,0,0,1-.2-.52v-5a.73.73,0,0,1,.2-.52.75.75,0,0,1,1,0,.73.73,0,0,1,.2.52v.21a3,3,0,0,1,.85-.75,2.17,2.17,0,0,1,1.14-.31,1.85,1.85,0,0,1,1.7.73"></path><path id="Fill-5352" class="cls-1" d="M34.49,6.87A2.18,2.18,0,0,0,35,5.43,2.16,2.16,0,0,0,34.49,4a1.6,1.6,0,0,0-1.28-.58A1.57,1.57,0,0,0,32,4a2.11,2.11,0,0,0-.49,1.44A2.13,2.13,0,0,0,32,6.87a1.56,1.56,0,0,0,1.26.56,1.61,1.61,0,0,0,1.28-.56M36.16,2.3a.72.72,0,0,1,.2.52V7.91a.75.75,0,0,1-.2.52.7.7,0,0,1-.52.21.66.66,0,0,1-.51-.21.76.76,0,0,1-.21-.51,2.43,2.43,0,0,1-.81.59A2.38,2.38,0,0,1,33,8.76a2.71,2.71,0,0,1-1.5-.43,3,3,0,0,1-1.06-1.18,3.72,3.72,0,0,1-.39-1.72,3.82,3.82,0,0,1,.38-1.72,3,3,0,0,1,1.05-1.19A2.66,2.66,0,0,1,33,2.09a2.83,2.83,0,0,1,1.94.75v0a.73.73,0,0,1,.2-.52.75.75,0,0,1,1,0"></path><path id="Fill-5354" class="cls-1" d="M47,2.82a3.79,3.79,0,0,1,.45,2V7.91a.71.71,0,0,1-.2.52.7.7,0,0,1-.52.21.68.68,0,0,1-.51-.21A.72.72,0,0,1,46,7.91V4.83a1.84,1.84,0,0,0-.25-1,1,1,0,0,0-.91-.38A1.34,1.34,0,0,0,43.4,4.83V7.91a.72.72,0,0,1-.21.52.66.66,0,0,1-.51.21.7.7,0,0,1-.52-.21.75.75,0,0,1-.2-.52V4.83a1.84,1.84,0,0,0-.26-1,1,1,0,0,0-.91-.38,1.39,1.39,0,0,0-1,.4,1.45,1.45,0,0,0-.38,1V7.91a.75.75,0,0,1-.2.52.7.7,0,0,1-.52.21.66.66,0,0,1-.51-.21.72.72,0,0,1-.21-.52v-5a.7.7,0,0,1,.21-.52.66.66,0,0,1,.51-.21.7.7,0,0,1,.52.21.73.73,0,0,1,.2.52v.2a2.92,2.92,0,0,1,.82-.74,2.08,2.08,0,0,1,1.12-.31,1.81,1.81,0,0,1,1.93,1.32,2.75,2.75,0,0,1,.84-.91,2.09,2.09,0,0,1,1.26-.41A1.8,1.8,0,0,1,47,2.82"></path><path id="Fill-5532" class="cls-2" d="M38.57,24.88a5.41,5.41,0,0,0,1.85-3,.36.36,0,0,0-.28-.44.34.34,0,0,0-.29.05.35.35,0,0,0-.16.23A4.61,4.61,0,1,1,39,18.12a.37.37,0,0,0,.24.16.35.35,0,0,0,.28-.06.4.4,0,0,0,.16-.24.35.35,0,0,0-.06-.28,5.36,5.36,0,1,0-4.44,8.38,5.44,5.44,0,0,0,3.39-1.2"></path><path id="Fill-5534" class="cls-2" d="M41.39,17.27a7.17,7.17,0,0,0-9.71-2.83,7.17,7.17,0,0,0-3.42,8.28.33.33,0,0,0,.18.22.38.38,0,0,0,.51-.15.34.34,0,0,0,0-.28A6.39,6.39,0,1,1,33.78,27a.38.38,0,0,0-.44.29.34.34,0,0,0,0,.28.35.35,0,0,0,.24.17,7.47,7.47,0,0,0,1.49.16A7.2,7.2,0,0,0,38.57,27a7.15,7.15,0,0,0,2.82-9.71"></path><path id="Fill-5536" class="cls-2" d="M34.79,23.42a2,2,0,0,0,.87.2,2,2,0,0,0,1.25-.45l.14-.12a.44.44,0,0,0-.59-.65l-.1.09a1.12,1.12,0,0,1-1.19.14,1.14,1.14,0,0,1-.65-1v-2H36.8a.4.4,0,0,0,.39-.39.39.39,0,0,0-.39-.39H34.52v-.55a.43.43,0,0,0-.44-.44.44.44,0,0,0-.44.44v.55h-.58a.38.38,0,0,0-.39.39.39.39,0,0,0,.39.39h.58v2a2,2,0,0,0,1.15,1.82"></path></g></g></svg>