<svg xmlns="http://www.w3.org/2000/svg" viewBox="0 0 34.98 28.97"><defs><style>.cls-1{fill:#fff;}.cls-1,.cls-2{fill-rule:evenodd;}.cls-2{fill:#00e8b4;}</style></defs><title>Asset 10</title><g id="Layer_2" data-name="Layer 2"><g id="Layer_1-2" data-name="Layer 1"><path id="Fill-5314" class="cls-1" d="M1.1,8.25a2.55,2.55,0,0,1-1-.79A.78.78,0,0,1,0,7a.64.64,0,0,1,.23-.5A.69.69,0,0,1,.7,6.33a1,1,0,0,1,.67.36A1.32,1.32,0,0,0,1.84,7a1.53,1.53,0,0,0,.54.09A1.31,1.31,0,0,0,3,6.91a1.34,1.34,0,0,0,.51-.49,1.18,1.18,0,0,0,.2-.64V.73A.69.69,0,0,1,4,.21.77.77,0,0,1,4.5,0,.7.7,0,0,1,5,.21a.69.69,0,0,1,.21.52V5.78a2.58,2.58,0,0,1-.39,1.36,2.8,2.8,0,0,1-1,1,2.87,2.87,0,0,1-1.44.38A2.92,2.92,0,0,1,1.1,8.25"></path><path id="Fill-5316" class="cls-1" d="M11,6.64a2.11,2.11,0,0,0,.49-1.44A2.15,2.15,0,0,0,11,3.76a1.68,1.68,0,0,0-2.54,0A2.15,2.15,0,0,0,8,5.2a2.11,2.11,0,0,0,.49,1.44,1.57,1.57,0,0,0,1.26.57A1.61,1.61,0,0,0,11,6.64m1.67-4.57a.72.72,0,0,1,.2.53V7.68a.73.73,0,0,1-.2.52.7.7,0,0,1-.52.21.69.69,0,0,1-.51-.2.79.79,0,0,1-.21-.52,2.43,2.43,0,0,1-.81.59,2.38,2.38,0,0,1-1.08.25A2.71,2.71,0,0,1,8,8.1,3,3,0,0,1,7,6.92,3.69,3.69,0,0,1,6.57,5.2,3.85,3.85,0,0,1,7,3.48,3,3,0,0,1,8,2.29a2.75,2.75,0,0,1,1.48-.43,2.83,2.83,0,0,1,1.93.75h0a.76.76,0,0,1,.2-.53.75.75,0,0,1,1,0"></path><path id="Fill-5318" class="cls-1" d="M18.82,6.63a2.11,2.11,0,0,0,.49-1.44,2.18,2.18,0,0,0-.48-1.44,1.7,1.7,0,0,0-2.54,0,2.14,2.14,0,0,0-.5,1.44,2.12,2.12,0,0,0,.5,1.44,1.67,1.67,0,0,0,2.53,0m.42-4.34A3,3,0,0,1,20.3,3.47a3.61,3.61,0,0,1,.4,1.72,3.69,3.69,0,0,1-.39,1.72,2.9,2.9,0,0,1-1,1.19,2.63,2.63,0,0,1-1.47.43,2.52,2.52,0,0,1-1.09-.24,2.92,2.92,0,0,1-.85-.56v2.35a.7.7,0,0,1-.71.73.7.7,0,0,1-.52-.2.71.71,0,0,1-.21-.53V2.72a.72.72,0,0,1,.21-.53A.67.67,0,0,1,15.14,2a.69.69,0,0,1,.51.21.72.72,0,0,1,.2.53v0a2.65,2.65,0,0,1,.81-.63,2.28,2.28,0,0,1,1.08-.27,2.79,2.79,0,0,1,1.5.43"></path><path id="Fill-5320" class="cls-1" d="M25.94,6.64a2.12,2.12,0,0,0,.5-1.44,2.16,2.16,0,0,0-.5-1.44,1.67,1.67,0,0,0-2.53,0,2.15,2.15,0,0,0-.49,1.44,2.16,2.16,0,0,0,.48,1.44,1.7,1.7,0,0,0,2.54,0m1.67-4.57a.69.69,0,0,1,.21.53V7.68a.7.7,0,0,1-.21.52.66.66,0,0,1-.51.21.69.69,0,0,1-.51-.2.74.74,0,0,1-.21-.52,2.64,2.64,0,0,1-1.89.84A2.71,2.71,0,0,1,23,8.1a3,3,0,0,1-1.06-1.18,3.69,3.69,0,0,1-.39-1.72,3.72,3.72,0,0,1,.38-1.72,3,3,0,0,1,1-1.19,2.79,2.79,0,0,1,2.55-.22,2.86,2.86,0,0,1,.86.54h0a.76.76,0,0,1,.2-.53.7.7,0,0,1,.52-.21.66.66,0,0,1,.51.21"></path><path id="Fill-5322" class="cls-1" d="M34.51,2.59a3.71,3.71,0,0,1,.47,2V7.68a.7.7,0,0,1-.21.52.66.66,0,0,1-.51.21.7.7,0,0,1-.52-.21.69.69,0,0,1-.2-.52V4.6a1.76,1.76,0,0,0-.28-1,1.1,1.1,0,0,0-.95-.38,1.46,1.46,0,0,0-1.09.41,1.36,1.36,0,0,0-.4,1V7.68a.73.73,0,0,1-.2.52.7.7,0,0,1-.52.21.66.66,0,0,1-.51-.21.7.7,0,0,1-.21-.52v-5a.72.72,0,0,1,.21-.53A.66.66,0,0,1,30.1,2a.7.7,0,0,1,.52.21.76.76,0,0,1,.2.53v.2a3,3,0,0,1,.85-.75,2.27,2.27,0,0,1,1.14-.31,1.85,1.85,0,0,1,1.7.73"></path><path id="Fill-5556" class="cls-2" d="M21,26a5.42,5.42,0,0,0,1.85-3,.38.38,0,0,0-.28-.45.42.42,0,0,0-.29,0,.4.4,0,0,0-.16.24,4.61,4.61,0,1,1-4.51-5.61,4.6,4.6,0,0,1,3.82,2,.33.33,0,0,0,.24.15.39.39,0,0,0,.28-.05.43.43,0,0,0,.16-.24.37.37,0,0,0-.06-.29A5.37,5.37,0,1,0,21,26"></path><path id="Fill-5558" class="cls-2" d="M23.82,18.38a7.14,7.14,0,0,0-9.71-2.83,7.15,7.15,0,0,0-3.42,8.28.39.39,0,0,0,.18.22.35.35,0,0,0,.28,0,.38.38,0,0,0,.23-.18.37.37,0,0,0,0-.29,6.39,6.39,0,0,1,7.93-7.93,6.31,6.31,0,0,1,3.82,3.06,6.4,6.4,0,0,1-6.94,9.34.37.37,0,0,0-.45.29.34.34,0,0,0,.05.28.37.37,0,0,0,.24.16,6.8,6.8,0,0,0,1.49.16A7.19,7.19,0,0,0,21,28.09a7.15,7.15,0,0,0,2.82-9.71"></path><path id="Fill-5560" class="cls-2" d="M17.22,24.53a2,2,0,0,0,2.12-.25l.14-.13a.44.44,0,1,0-.59-.65.44.44,0,0,1-.11.09,1.08,1.08,0,0,1-1.18.14,1.12,1.12,0,0,1-.65-1v-2h2.28a.39.39,0,0,0,.39-.39.4.4,0,0,0-.39-.39H17v-.55a.44.44,0,0,0-.44-.44.44.44,0,0,0-.44.44v.55h-.58a.39.39,0,0,0-.39.39.38.38,0,0,0,.39.39h.58v2a2,2,0,0,0,1.15,1.82"></path></g></g></svg>