<svg xmlns="http://www.w3.org/2000/svg" viewBox="0 0 61.92 14.31"><defs><style>.cls-1{fill:#fff;}.cls-1,.cls-2{fill-rule:evenodd;}.cls-2{fill:#00e8b4;}</style></defs><title>Asset 7</title><g id="Layer_2" data-name="Layer 2"><g id="Layer_1-2" data-name="Layer 1"><path id="Fill-5464" class="cls-1" d="M23,4.33V6.45h2.59a.75.75,0,0,1,.53.19.7.7,0,0,1,.21.52.62.62,0,0,1-.21.46.72.72,0,0,1-.53.21H23v2.8a.67.67,0,0,1-.22.52.74.74,0,0,1-.53.21.77.77,0,0,1-.54-.2.72.72,0,0,1-.21-.53v-7a.72.72,0,0,1,.21-.52A.7.7,0,0,1,22.22,3h3.9a.76.76,0,0,1,.53.2.66.66,0,0,1,.21.51.64.64,0,0,1-.21.47.76.76,0,0,1-.53.2Z"></path><path id="Fill-5466" class="cls-1" d="M29.27,11.15a.68.68,0,0,1-.51.21.69.69,0,0,1-.52-.21.69.69,0,0,1-.2-.52v-5a.72.72,0,0,1,.2-.53.69.69,0,0,1,.52-.21.68.68,0,0,1,.51.21.72.72,0,0,1,.21.53v5a.7.7,0,0,1-.21.52M28.17,4A.54.54,0,0,1,28,3.55V3.32a.52.52,0,0,1,.18-.46,1,1,0,0,1,.58-.14.93.93,0,0,1,.58.14.52.52,0,0,1,.17.46v.23a.58.58,0,0,1-.17.48,1.12,1.12,0,0,1-.6.12A.92.92,0,0,1,28.17,4"></path><path id="Fill-5468" class="cls-1" d="M36.08,5.54a3.62,3.62,0,0,1,.47,2v3.08a.73.73,0,0,1-.2.52.75.75,0,0,1-1,0,.73.73,0,0,1-.2-.52V7.55a1.69,1.69,0,0,0-.28-1,1.1,1.1,0,0,0-.95-.38,1.47,1.47,0,0,0-1.09.41,1.39,1.39,0,0,0-.39,1v3.08a.7.7,0,0,1-.21.52.68.68,0,0,1-.51.21.69.69,0,0,1-.52-.21.7.7,0,0,1-.21-.52v-5a.72.72,0,0,1,.21-.53.69.69,0,0,1,.52-.21.68.68,0,0,1,.51.21.72.72,0,0,1,.21.53v.2a2.79,2.79,0,0,1,.84-.75,2.28,2.28,0,0,1,1.15-.31,1.84,1.84,0,0,1,1.69.73"></path><path id="Fill-5470" class="cls-1" d="M39.46,11.15a.7.7,0,0,1-.52.21.66.66,0,0,1-.5-.21.7.7,0,0,1-.21-.52V3.2A.72.72,0,0,1,39,2.47a.69.69,0,0,1,.51.21.71.71,0,0,1,.2.52v7.43a.7.7,0,0,1-.21.52"></path><path id="Fill-5472" class="cls-1" d="M45.4,9.59a2.12,2.12,0,0,0,.5-1.44,2.16,2.16,0,0,0-.5-1.44,1.67,1.67,0,0,0-2.53,0,2.15,2.15,0,0,0-.49,1.44,2.16,2.16,0,0,0,.48,1.44,1.7,1.7,0,0,0,2.54,0M47.07,5a.69.69,0,0,1,.21.53v5.08a.7.7,0,0,1-.21.52.68.68,0,0,1-.51.21.69.69,0,0,1-.51-.2.7.7,0,0,1-.21-.52,2.37,2.37,0,0,1-.82.59,2.34,2.34,0,0,1-1.07.25,2.71,2.71,0,0,1-1.5-.43,3.06,3.06,0,0,1-1.07-1.18A3.82,3.82,0,0,1,41,8.15a3.72,3.72,0,0,1,.38-1.72,3,3,0,0,1,1-1.19,2.69,2.69,0,0,1,1.47-.43A2.74,2.74,0,0,1,45,5a2.86,2.86,0,0,1,.86.54h0A.72.72,0,0,1,46,5a.7.7,0,0,1,.52-.21.68.68,0,0,1,.51.21"></path><path id="Fill-5474" class="cls-1" d="M54,5.54a3.71,3.71,0,0,1,.47,2v3.08a.7.7,0,0,1-.21.52.68.68,0,0,1-.51.21.72.72,0,0,1-.73-.73V7.55a1.76,1.76,0,0,0-.27-1,1.1,1.1,0,0,0-.95-.38,1.46,1.46,0,0,0-1.09.41,1.36,1.36,0,0,0-.4,1v3.08a.73.73,0,0,1-.2.52.75.75,0,0,1-1,0,.73.73,0,0,1-.2-.52v-5a.76.76,0,0,1,.2-.53.75.75,0,0,1,1,0,.76.76,0,0,1,.2.53v.2a3,3,0,0,1,.85-.75,2.27,2.27,0,0,1,1.14-.31,1.85,1.85,0,0,1,1.7.73"></path><path id="Fill-5476" class="cls-1" d="M60.05,9.59a2.16,2.16,0,0,0,.49-1.44,2.2,2.2,0,0,0-.49-1.44,1.63,1.63,0,0,0-1.28-.58,1.6,1.6,0,0,0-1.26.58A2.15,2.15,0,0,0,57,8.15a2.11,2.11,0,0,0,.49,1.44,1.57,1.57,0,0,0,1.26.57,1.62,1.62,0,0,0,1.28-.57m1.67-6.91a.72.72,0,0,1,.2.52v7.43a.73.73,0,0,1-.2.52.7.7,0,0,1-.52.21.69.69,0,0,1-.51-.2.79.79,0,0,1-.21-.52,2.43,2.43,0,0,1-.81.59,2.38,2.38,0,0,1-1.08.25,2.71,2.71,0,0,1-1.5-.43A3,3,0,0,1,56,9.87a3.69,3.69,0,0,1-.39-1.72A3.85,3.85,0,0,1,56,6.43a3,3,0,0,1,1-1.19,2.74,2.74,0,0,1,1.47-.43,2.83,2.83,0,0,1,1.94.75V3.2a.75.75,0,0,1,.2-.52.75.75,0,0,1,1,0"></path><path id="Fill-5520" class="cls-2" d="M10.59,11.32a5.38,5.38,0,0,0,1.86-3,.38.38,0,0,0-.29-.45.35.35,0,0,0-.28,0,.38.38,0,0,0-.17.24,4.6,4.6,0,0,1-4.5,3.61A4.62,4.62,0,1,1,11,4.56a.34.34,0,0,0,.24.16.35.35,0,0,0,.28-.06.37.37,0,0,0,.16-.24.39.39,0,0,0-.06-.28,5.37,5.37,0,1,0-1.06,7.18"></path><path id="Fill-5522" class="cls-2" d="M13.42,3.71A7.15,7.15,0,0,0,3.71.89,7.06,7.06,0,0,0,.53,4.46a7.22,7.22,0,0,0-.25,4.7.39.39,0,0,0,.19.23.34.34,0,0,0,.28,0A.38.38,0,0,0,1,9.24.37.37,0,0,0,1,9a6.41,6.41,0,0,1,3.06-7.4,6.39,6.39,0,0,1,8.69,2.53,6.39,6.39,0,0,1-6.95,9.33.38.38,0,0,0-.44.29.34.34,0,0,0,0,.29.38.38,0,0,0,.23.16,7,7,0,0,0,1.5.16,7.24,7.24,0,0,0,3.44-.88,7.15,7.15,0,0,0,2.83-9.72"></path><path id="Fill-5524" class="cls-2" d="M6.82,9.86a2,2,0,0,0,.87.2,2,2,0,0,0,1.25-.45.75.75,0,0,0,.14-.12.44.44,0,1,0-.59-.65l-.11.09a1.08,1.08,0,0,1-1.18.14,1.12,1.12,0,0,1-.65-1V6H8.83a.39.39,0,0,0,.39-.39.4.4,0,0,0-.39-.39H6.55V4.69a.44.44,0,1,0-.88,0v.55H5.09a.39.39,0,0,0-.39.39A.38.38,0,0,0,5.09,6h.58V8A2,2,0,0,0,6.82,9.86"></path></g></g></svg>