<svg xmlns="http://www.w3.org/2000/svg" viewBox="0 0 83.07 14.31"><defs><style>.cls-1{fill:#fff;}.cls-1,.cls-2{fill-rule:evenodd;}.cls-2{fill:#00e8b4;}</style></defs><title>Asset 14</title><g id="Layer_2" data-name="Layer 2"><g id="Layer_1-2" data-name="Layer 1"><path id="Fill-5298" class="cls-1" d="M27.49,2.87a.7.7,0,0,1,.2.53v6.94a.7.7,0,0,1-.21.52.74.74,0,0,1-.56.21.73.73,0,0,1-.73-.73V7.54H22.36v2.8a.68.68,0,0,1-.23.52.72.72,0,0,1-.53.21.69.69,0,0,1-.53-.21.7.7,0,0,1-.21-.52V3.4a.7.7,0,0,1,.21-.52.79.79,0,0,1,.56-.22.7.7,0,0,1,.51.22.67.67,0,0,1,.22.52V6.16h3.83V3.4a.68.68,0,0,1,.23-.52A.77.77,0,0,1,27,2.66a.73.73,0,0,1,.54.21"></path><path id="Fill-5300" class="cls-1" d="M33.86,6.82a1.77,1.77,0,0,0-.66-.72,1.69,1.69,0,0,0-.92-.25,1.72,1.72,0,0,0-.92.25,1.92,1.92,0,0,0-.66.72,2.2,2.2,0,0,0-.24,1,2.19,2.19,0,0,0,.24,1,1.89,1.89,0,0,0,.66.71,1.72,1.72,0,0,0,.92.25,1.69,1.69,0,0,0,.92-.25,1.74,1.74,0,0,0,.66-.71,2.08,2.08,0,0,0,.25-1,2.09,2.09,0,0,0-.25-1m1.26,2.77a3.07,3.07,0,0,1-1.19,1.18,3.4,3.4,0,0,1-3.31,0,3.08,3.08,0,0,1-1.17-1.18A3.41,3.41,0,0,1,29,7.87a3.45,3.45,0,0,1,.44-1.73A3.18,3.18,0,0,1,30.62,5a3.47,3.47,0,0,1,3.31,0,3.16,3.16,0,0,1,1.19,1.19,3.55,3.55,0,0,1,.43,1.73,3.51,3.51,0,0,1-.43,1.72"></path><path id="Fill-5302" class="cls-1" d="M41.88,5.25a3.75,3.75,0,0,1,.47,2v3.07a.7.7,0,0,1-.21.52.63.63,0,0,1-.51.21.67.67,0,0,1-.52-.21.69.69,0,0,1-.2-.52V7.27a1.76,1.76,0,0,0-.28-1,1.1,1.1,0,0,0-1-.38,1.45,1.45,0,0,0-1.09.4,1.38,1.38,0,0,0-.4,1v3.07a.73.73,0,0,1-.2.52.67.67,0,0,1-.52.21.63.63,0,0,1-.51-.21.7.7,0,0,1-.21-.52v-5A.7.7,0,0,1,37,4.86a.66.66,0,0,1,.51-.21.7.7,0,0,1,.52.21.73.73,0,0,1,.2.52v.2A3.09,3.09,0,0,1,39,4.84a2.17,2.17,0,0,1,1.14-.31,1.87,1.87,0,0,1,1.7.72"></path><path id="Fill-5304" class="cls-1" d="M48.06,9.3a2.07,2.07,0,0,0,.51-1.43,2.08,2.08,0,0,0-.51-1.44,1.66,1.66,0,0,0-1.31-.58,1.63,1.63,0,0,0-1.31.58,2.08,2.08,0,0,0-.51,1.44,2.07,2.07,0,0,0,.51,1.43,1.65,1.65,0,0,0,1.31.57,1.68,1.68,0,0,0,1.31-.57m1.69-4.57a.74.74,0,0,1,.2.53v5.35A2.54,2.54,0,0,1,49,12.77a3.62,3.62,0,0,1-2.29.71,5.62,5.62,0,0,1-1-.12,4.38,4.38,0,0,1-.89-.24c-.39-.17-.59-.4-.59-.7a.46.46,0,0,1,0-.19.7.7,0,0,1,.24-.4.58.58,0,0,1,.38-.14.85.85,0,0,1,.23,0l.59.23a3.09,3.09,0,0,0,1,.21,2,2,0,0,0,1.32-.36,1.2,1.2,0,0,0,.44-1v-.58a2.37,2.37,0,0,1-.8.67,2.3,2.3,0,0,1-1.15.3A2.89,2.89,0,0,1,45,10.77,3,3,0,0,1,44,9.58a3.54,3.54,0,0,1-.4-1.71,3.76,3.76,0,0,1,.39-1.73A3.08,3.08,0,0,1,45,5a2.79,2.79,0,0,1,1.51-.42,2.57,2.57,0,0,1,1.14.25,2.77,2.77,0,0,1,.85.61V5.26a.73.73,0,0,1,.2-.52.7.7,0,0,1,.52-.21.73.73,0,0,1,.52.2"></path><path id="Fill-5306" class="cls-1" d="M61.55,10.06a.63.63,0,0,1,.05.26.71.71,0,0,1-.24.54.87.87,0,0,1-.57.21.6.6,0,0,1-.3-.07.69.69,0,0,1-.25-.2l-2.6-3.44L56.5,8.46v1.88a.71.71,0,0,1-.21.53.73.73,0,0,1-.55.2.71.71,0,0,1-.53-.21.7.7,0,0,1-.21-.52V3.4a.7.7,0,0,1,.21-.52.77.77,0,0,1,.55-.21.69.69,0,0,1,.53.2.71.71,0,0,1,.21.53V6.67l3.84-3.79a.84.84,0,0,1,.59-.27.6.6,0,0,1,.47.22.75.75,0,0,1,.19.48.66.66,0,0,1-.21.47l-2.62,2.5,2.68,3.55a1,1,0,0,1,.11.23"></path><path id="Fill-5308" class="cls-1" d="M67,6.82a1.84,1.84,0,0,0-.66-.72,1.82,1.82,0,0,0-1.84,0,1.84,1.84,0,0,0-.66.72,2.31,2.31,0,0,0,0,2.09,1.81,1.81,0,0,0,.66.71,1.82,1.82,0,0,0,1.84,0A1.81,1.81,0,0,0,67,8.91a2.31,2.31,0,0,0,0-2.09m1.25,2.77a3,3,0,0,1-1.18,1.18,3.4,3.4,0,0,1-3.31,0,3.11,3.11,0,0,1-1.18-1.18,3.51,3.51,0,0,1-.43-1.72,3.55,3.55,0,0,1,.43-1.73A3.21,3.21,0,0,1,63.74,5a3.47,3.47,0,0,1,3.31,0,3.07,3.07,0,0,1,1.18,1.19,3.45,3.45,0,0,1,.44,1.73,3.41,3.41,0,0,1-.44,1.72"></path><path id="Fill-5310" class="cls-1" d="M75,5.25a3.75,3.75,0,0,1,.47,2v3.07a.7.7,0,0,1-.21.52.67.67,0,0,1-.52.21.66.66,0,0,1-.51-.21.7.7,0,0,1-.21-.52V7.27a1.76,1.76,0,0,0-.27-1,1.11,1.11,0,0,0-1-.38,1.43,1.43,0,0,0-1.09.4,1.38,1.38,0,0,0-.4,1v3.07a.7.7,0,0,1-.21.52.63.63,0,0,1-.51.21.67.67,0,0,1-.52-.21.73.73,0,0,1-.2-.52v-5a.73.73,0,0,1,.2-.52.7.7,0,0,1,.52-.21.66.66,0,0,1,.51.21.7.7,0,0,1,.21.52v.2a3,3,0,0,1,.85-.74,2.17,2.17,0,0,1,1.14-.31,1.88,1.88,0,0,1,1.7.72"></path><path id="Fill-5312" class="cls-1" d="M81.18,9.3a2.07,2.07,0,0,0,.51-1.43,2.08,2.08,0,0,0-.51-1.44,1.78,1.78,0,0,0-2.63,0,2.12,2.12,0,0,0-.5,1.44,2.11,2.11,0,0,0,.5,1.43,1.8,1.8,0,0,0,2.63,0m1.68-4.57a.71.71,0,0,1,.21.53v5.35a2.57,2.57,0,0,1-.91,2.16,3.63,3.63,0,0,1-2.3.71,5.64,5.64,0,0,1-1-.12,4.2,4.2,0,0,1-.89-.24c-.4-.17-.59-.4-.59-.7a.68.68,0,0,1,0-.19.71.71,0,0,1,.25-.4.56.56,0,0,1,.38-.14.91.91,0,0,1,.23,0l.59.23a3,3,0,0,0,1,.21,2.07,2.07,0,0,0,1.33-.36,1.23,1.23,0,0,0,.44-1v-.58a2.37,2.37,0,0,1-.8.67,2.32,2.32,0,0,1-1.15.3,2.89,2.89,0,0,1-1.53-.42,3.06,3.06,0,0,1-1.09-1.19,3.65,3.65,0,0,1-.39-1.71,3.76,3.76,0,0,1,.39-1.73A3.06,3.06,0,0,1,78.12,5a2.84,2.84,0,0,1,1.51-.42,2.57,2.57,0,0,1,1.14.25,2.7,2.7,0,0,1,.86.61V5.26a.69.69,0,0,1,.2-.52.7.7,0,0,1,.52-.21.69.69,0,0,1,.51.2"></path><path id="Fill-5544" class="cls-2" d="M10.59,11.32a5.38,5.38,0,0,0,1.86-3,.38.38,0,0,0-.57-.4.43.43,0,0,0-.17.24,4.6,4.6,0,0,1-4.5,3.61A4.62,4.62,0,1,1,11,4.56a.34.34,0,0,0,.24.16.35.35,0,0,0,.28-.06.37.37,0,0,0,.16-.24.39.39,0,0,0-.06-.28,5.37,5.37,0,1,0-1.06,7.18"></path><path id="Fill-5546" class="cls-2" d="M13.42,3.71A7.15,7.15,0,0,0,3.71.89,7.06,7.06,0,0,0,.53,4.46a7.22,7.22,0,0,0-.25,4.7.39.39,0,0,0,.19.23.34.34,0,0,0,.28,0A.38.38,0,0,0,1,9.24.37.37,0,0,0,1,9a6.41,6.41,0,0,1,3.06-7.4,6.39,6.39,0,0,1,8.69,2.53,6.39,6.39,0,0,1-6.95,9.33.38.38,0,0,0-.44.29.34.34,0,0,0,0,.29.38.38,0,0,0,.23.16,7,7,0,0,0,1.5.16,7.31,7.31,0,0,0,3.45-.88,7.16,7.16,0,0,0,2.82-9.72"></path><path id="Fill-5548" class="cls-2" d="M6.82,9.86a2,2,0,0,0,.87.2,2,2,0,0,0,1.25-.45.75.75,0,0,0,.14-.12.44.44,0,1,0-.59-.65l-.11.09a1.08,1.08,0,0,1-1.18.14,1.12,1.12,0,0,1-.65-1V6H8.83a.39.39,0,0,0,.39-.39.4.4,0,0,0-.39-.39H6.55V4.69a.44.44,0,0,0-.44-.44.44.44,0,0,0-.44.44v.55H5.09a.39.39,0,0,0-.39.39A.38.38,0,0,0,5.09,6h.58V8A2,2,0,0,0,6.82,9.86"></path></g></g></svg>