<svg xmlns="http://www.w3.org/2000/svg" viewBox="0 0 32.76 27.98"><defs><style>.cls-1{fill:#fff;}.cls-1,.cls-2{fill-rule:evenodd;}.cls-2{fill:#00e8b4;}</style></defs><title>Asset 11</title><g id="Layer_2" data-name="Layer 2"><g id="Layer_1-2" data-name="Layer 1"><path id="Fill-5288" class="cls-1" d="M6.56,7.45a.91.91,0,0,1,.05.26.69.69,0,0,1-.25.54.8.8,0,0,1-.57.22.78.78,0,0,1-.3-.07.61.61,0,0,1-.24-.21L2.64,4.76,1.5,5.85V7.74a.69.69,0,0,1-.21.52.73.73,0,0,1-.54.21.73.73,0,0,1-.54-.21A.7.7,0,0,1,0,7.74V.79A.72.72,0,0,1,.21.27.78.78,0,0,1,.77.06.72.72,0,0,1,1.3.27a.72.72,0,0,1,.2.52V4.06L5.34.28A.82.82,0,0,1,5.93,0,.6.6,0,0,1,6.4.23a.72.72,0,0,1,.19.48.67.67,0,0,1-.21.47L3.76,3.68,6.44,7.22a.71.71,0,0,1,.12.23"></path><path id="Fill-5290" class="cls-1" d="M12,4.21a1.68,1.68,0,0,0-.66-.71,1.76,1.76,0,0,0-1.84,0,1.82,1.82,0,0,0-.66.71,2.26,2.26,0,0,0-.24,1,2.23,2.23,0,0,0,.24,1A2,2,0,0,0,9.48,7,1.77,1.77,0,0,0,12,6.31a2.23,2.23,0,0,0,.25-1,2.26,2.26,0,0,0-.25-1M13.24,7a3.09,3.09,0,0,1-1.19,1.19,3.47,3.47,0,0,1-3.31,0A3.11,3.11,0,0,1,7.57,7a3.39,3.39,0,0,1-.44-1.72,3.41,3.41,0,0,1,.44-1.72A3.11,3.11,0,0,1,8.74,2.35a3.4,3.4,0,0,1,3.31,0,3.09,3.09,0,0,1,1.19,1.19,3.51,3.51,0,0,1,.43,1.72A3.48,3.48,0,0,1,13.24,7"></path><path id="Fill-5292" class="cls-1" d="M18.82,2.13a.6.6,0,0,1,.24.48.75.75,0,0,1-.19.56.64.64,0,0,1-.45.18A1.34,1.34,0,0,1,18,3.27l-.17,0a1,1,0,0,0-.87.16A1.32,1.32,0,0,0,16.5,4a2.2,2.2,0,0,0-.19.93V7.74a.75.75,0,0,1-.2.52.7.7,0,0,1-.52.21.66.66,0,0,1-.51-.21.72.72,0,0,1-.21-.52v-5a.72.72,0,0,1,.21-.52A.66.66,0,0,1,15.59,2a.7.7,0,0,1,.52.21.75.75,0,0,1,.2.52v.16a1.81,1.81,0,0,1,.8-.75,2.44,2.44,0,0,1,1.1-.26.92.92,0,0,1,.61.21"></path><path id="Fill-5294" class="cls-1" d="M20.9,4.55h3.15V4.47a1.23,1.23,0,0,0-.5-.87,1.54,1.54,0,0,0-1-.36A1.49,1.49,0,0,0,20.9,4.55m4.46,1a.79.79,0,0,1-.51.18h-4a1.76,1.76,0,0,0,.66,1.11,1.83,1.83,0,0,0,1.17.41,2.54,2.54,0,0,0,.76-.09,1.83,1.83,0,0,0,.44-.2l.22-.13a1,1,0,0,1,.41-.11.58.58,0,0,1,.43.18.58.58,0,0,1,.18.42.76.76,0,0,1-.33.59,3.15,3.15,0,0,1-.9.47,3.78,3.78,0,0,1-1.14.19A3.53,3.53,0,0,1,21,8.17,2.88,2.88,0,0,1,19.87,7a3.3,3.3,0,0,1-.41-1.66,3.68,3.68,0,0,1,.43-1.82A3,3,0,0,1,21,2.34a2.88,2.88,0,0,1,3,0,3.22,3.22,0,0,1,1.12,1.17,3.05,3.05,0,0,1,.42,1.59.58.58,0,0,1-.22.46"></path><path id="Fill-5296" class="cls-1" d="M30.88,6.7a2.12,2.12,0,0,0,.5-1.44,2.14,2.14,0,0,0-.5-1.44,1.67,1.67,0,0,0-2.53,0,2.13,2.13,0,0,0-.49,1.44,2.16,2.16,0,0,0,.48,1.44,1.7,1.7,0,0,0,2.54,0m1.67-4.57a.69.69,0,0,1,.21.53V7.74a.7.7,0,0,1-.21.52.68.68,0,0,1-.51.21.69.69,0,0,1-.51-.2.7.7,0,0,1-.21-.52,2.37,2.37,0,0,1-.82.59,2.34,2.34,0,0,1-1.07.25,2.71,2.71,0,0,1-1.5-.43A3,3,0,0,1,26.86,7a3.82,3.82,0,0,1-.39-1.72,3.72,3.72,0,0,1,.39-1.72,2.83,2.83,0,0,1,1.05-1.19,2.69,2.69,0,0,1,1.47-.43,2.74,2.74,0,0,1,1.08.21,2.86,2.86,0,0,1,.86.54h0a.72.72,0,0,1,.2-.53A.7.7,0,0,1,32,1.92a.68.68,0,0,1,.51.21"></path><path id="Fill-5550" class="cls-2" d="M18.31,25a5.35,5.35,0,0,0,1.86-3,.39.39,0,0,0-.29-.45.39.39,0,0,0-.28.05.37.37,0,0,0-.17.24,4.61,4.61,0,1,1-.69-3.59.43.43,0,0,0,.24.16.49.49,0,0,0,.29-.06.37.37,0,0,0,.15-.24.38.38,0,0,0-.06-.29A5.37,5.37,0,1,0,18.31,25"></path><path id="Fill-5552" class="cls-2" d="M21.14,17.39a7.14,7.14,0,0,0-9.71-2.83A7.14,7.14,0,0,0,8,22.84a.39.39,0,0,0,.18.22.37.37,0,0,0,.29,0,.33.33,0,0,0,.22-.18.37.37,0,0,0,0-.29,6.41,6.41,0,0,1,3.07-7.4,6.4,6.4,0,1,1,1.74,11.87.37.37,0,0,0-.45.29.39.39,0,0,0,.05.28.4.4,0,0,0,.24.16,6.89,6.89,0,0,0,1.5.16,7.15,7.15,0,0,0,6.27-10.59"></path><path id="Fill-5554" class="cls-2" d="M14.54,23.54a2,2,0,0,0,2.12-.25l.14-.12a.44.44,0,1,0-.6-.65l-.1.08a1.08,1.08,0,0,1-1.18.14,1.1,1.1,0,0,1-.65-1v-2h2.27a.4.4,0,1,0,0-.79H14.27v-.55a.44.44,0,0,0-.88,0v.55H12.8a.4.4,0,0,0,0,.79h.59v2a2,2,0,0,0,1.15,1.82"></path></g></g></svg>