<svg xmlns="http://www.w3.org/2000/svg" viewBox="0 0 115.05 14.31"><defs><style>.cls-1{fill:#fff;}.cls-1,.cls-2{fill-rule:evenodd;}.cls-2{fill:#00e8b4;}</style></defs><title>Asset 8</title><g id="Layer_2" data-name="Layer 2"><g id="Layer_1-2" data-name="Layer 1"><path id="Fill-5410" class="cls-1" d="M26.45,3.14a.69.69,0,0,1,.2.51.67.67,0,0,1-.2.5.79.79,0,0,1-.53.18H24v6.3a.65.65,0,0,1-.23.52.79.79,0,0,1-.56.21.75.75,0,0,1-.55-.21.67.67,0,0,1-.22-.52V4.33H20.58a.71.71,0,0,1-.52-.19.66.66,0,0,1-.21-.5.66.66,0,0,1,.21-.5A.74.74,0,0,1,20.58,3h5.34a.75.75,0,0,1,.53.19"></path><path id="Fill-5412" class="cls-1" d="M32.81,5.54a3.72,3.72,0,0,1,.46,2v3.08a.73.73,0,0,1-.2.52.75.75,0,0,1-1,0,.73.73,0,0,1-.2-.52V7.55a1.84,1.84,0,0,0-.26-1,1,1,0,0,0-.91-.38,1.36,1.36,0,0,0-1.05.41,1.42,1.42,0,0,0-.38,1v3.08a.73.73,0,0,1-.2.52.7.7,0,0,1-.52.21.66.66,0,0,1-.51-.21.7.7,0,0,1-.21-.52V3.2A.72.72,0,0,1,28,2.68a.66.66,0,0,1,.51-.21.7.7,0,0,1,.52.21.75.75,0,0,1,.2.52V5.86a2.92,2.92,0,0,1,.82-.74,2.08,2.08,0,0,1,1.12-.31,1.77,1.77,0,0,1,1.64.73"></path><path id="Fill-5414" class="cls-1" d="M35.91,7.44h3.15V7.36a1.26,1.26,0,0,0-.49-.87,1.58,1.58,0,0,0-1-.36,1.5,1.5,0,0,0-1.65,1.31m4.46,1a.76.76,0,0,1-.51.18h-4a1.8,1.8,0,0,0,.66,1.11,1.83,1.83,0,0,0,1.17.41,2.66,2.66,0,0,0,.77-.09,2.58,2.58,0,0,0,.43-.19l.23-.14a.93.93,0,0,1,.4-.11.6.6,0,0,1,.44.18.58.58,0,0,1,.18.42.77.77,0,0,1-.34.59,2.9,2.9,0,0,1-.9.47,3.78,3.78,0,0,1-1.14.19A3.55,3.55,0,0,1,36,11.06,2.94,2.94,0,0,1,34.88,9.9a3.4,3.4,0,0,1-.41-1.66,3.79,3.79,0,0,1,.43-1.82A3,3,0,0,1,36,5.23a3,3,0,0,1,1.52-.42,2.86,2.86,0,0,1,1.49.43,3.25,3.25,0,0,1,1.13,1.17A3.15,3.15,0,0,1,40.6,8a.63.63,0,0,1-.23.46"></path><path id="Fill-5416" class="cls-1" d="M52.13,3.14a.68.68,0,0,1,.18.48v7a.7.7,0,0,1-.21.52.72.72,0,0,1-.53.21.87.87,0,0,1-.32-.06.46.46,0,0,1-.24-.14L46.6,5.56v5.13a.68.68,0,0,1-.18.48.7.7,0,0,1-.49.19.65.65,0,0,1-.47-.19.68.68,0,0,1-.18-.48v-7A.72.72,0,0,1,46,3a1.15,1.15,0,0,1,.36.07.54.54,0,0,1,.26.2L51,8.79V3.62a.65.65,0,0,1,.19-.48.68.68,0,0,1,.94,0"></path><path id="Fill-5418" class="cls-1" d="M55.07,7.44h3.15V7.36a1.23,1.23,0,0,0-.5-.87,1.54,1.54,0,0,0-1-.36,1.5,1.5,0,0,0-1.65,1.31m4.46,1a.79.79,0,0,1-.51.18h-4a1.76,1.76,0,0,0,.66,1.11,1.83,1.83,0,0,0,1.17.41,2.54,2.54,0,0,0,.76-.09,2.39,2.39,0,0,0,.44-.19l.22-.14a1,1,0,0,1,.41-.11.58.58,0,0,1,.43.18.58.58,0,0,1,.18.42.76.76,0,0,1-.33.59,3.15,3.15,0,0,1-.9.47,3.78,3.78,0,0,1-1.14.19,3.53,3.53,0,0,1-1.76-.42A2.88,2.88,0,0,1,54,9.9a3.3,3.3,0,0,1-.41-1.66,3.68,3.68,0,0,1,.43-1.82A3,3,0,0,1,55.2,5.23a3,3,0,0,1,1.52-.42,2.89,2.89,0,0,1,1.49.43,3.22,3.22,0,0,1,1.12,1.17A3.05,3.05,0,0,1,59.75,8a.58.58,0,0,1-.22.46"></path><path id="Fill-5420" class="cls-1" d="M64.36,10.16a.67.67,0,0,1,.14.43.65.65,0,0,1-.35.55,1.48,1.48,0,0,1-.8.22A2.36,2.36,0,0,1,62.09,11q-.51-.31-.51-1.35V6.37H61a.65.65,0,0,1-.48-.19.63.63,0,0,1-.19-.48.6.6,0,0,1,.19-.46A.69.69,0,0,1,61,5.05h.55V4.29a.72.72,0,0,1,.73-.74.69.69,0,0,1,.51.21.72.72,0,0,1,.2.53v.76h.86a.66.66,0,0,1,.48.2.65.65,0,0,1,.19.47.67.67,0,0,1-.19.47.68.68,0,0,1-.48.18H63V9.63a.5.5,0,0,0,.13.37.57.57,0,0,0,.36.11,1.12,1.12,0,0,0,.27,0,.74.74,0,0,1,.28-.06.41.41,0,0,1,.3.16"></path><path id="Fill-5422" class="cls-1" d="M70.89,5.54a3.81,3.81,0,0,1,.46,2v3.08a.7.7,0,0,1-.21.52.68.68,0,0,1-.51.21.7.7,0,0,1-.52-.21.69.69,0,0,1-.2-.52V7.55a1.84,1.84,0,0,0-.26-1,1,1,0,0,0-.91-.38,1.36,1.36,0,0,0-1,.41,1.42,1.42,0,0,0-.38,1v3.08a.73.73,0,0,1-.2.52.75.75,0,0,1-1,0,.73.73,0,0,1-.2-.52V3.2a.75.75,0,0,1,.2-.52.75.75,0,0,1,1,0,.75.75,0,0,1,.2.52V5.86a2.92,2.92,0,0,1,.82-.74,2.07,2.07,0,0,1,1.11-.31,1.77,1.77,0,0,1,1.65.73"></path><path id="Fill-5424" class="cls-1" d="M74,7.44h3.15V7.36a1.23,1.23,0,0,0-.5-.87,1.54,1.54,0,0,0-1-.36A1.49,1.49,0,0,0,74,7.44m4.46,1a.79.79,0,0,1-.51.18H74a1.76,1.76,0,0,0,.66,1.11,1.83,1.83,0,0,0,1.17.41,2.54,2.54,0,0,0,.76-.09A2.39,2.39,0,0,0,77,9.88l.22-.14a1,1,0,0,1,.41-.11.58.58,0,0,1,.43.18.58.58,0,0,1,.18.42.76.76,0,0,1-.33.59,3.15,3.15,0,0,1-.9.47,3.78,3.78,0,0,1-1.14.19,3.53,3.53,0,0,1-1.76-.42A2.88,2.88,0,0,1,73,9.9a3.3,3.3,0,0,1-.41-1.66A3.68,3.68,0,0,1,73,6.42a3,3,0,0,1,1.14-1.19,2.88,2.88,0,0,1,3,0,3.22,3.22,0,0,1,1.12,1.17A3.05,3.05,0,0,1,78.67,8a.58.58,0,0,1-.22.46"></path><path id="Fill-5426" class="cls-1" d="M83.82,5a.58.58,0,0,1,.25.48.79.79,0,0,1-.19.56.65.65,0,0,1-.46.18A1.34,1.34,0,0,1,83,6.16l-.16,0a1.26,1.26,0,0,0-.27,0,1.05,1.05,0,0,0-.6.2,1.41,1.41,0,0,0-.48.58,2.2,2.2,0,0,0-.18.93v2.85a.72.72,0,0,1-.21.52.66.66,0,0,1-.51.21.7.7,0,0,1-.52-.21.71.71,0,0,1-.2-.52v-5a.72.72,0,0,1,.2-.53.7.7,0,0,1,.52-.21.66.66,0,0,1,.51.21.72.72,0,0,1,.21.53v.15a1.79,1.79,0,0,1,.79-.75,2.45,2.45,0,0,1,1.11-.26.88.88,0,0,1,.6.21"></path><path id="Fill-5428" class="cls-1" d="M86.44,11.15a.72.72,0,0,1-.52.21.69.69,0,0,1-.51-.21.73.73,0,0,1-.2-.52V3.2a.72.72,0,0,1,.21-.52.74.74,0,0,1,1,0,.75.75,0,0,1,.2.52v7.43a.7.7,0,0,1-.21.52"></path><path id="Fill-5430" class="cls-1" d="M92.38,9.59a2.11,2.11,0,0,0,.49-1.44,2.15,2.15,0,0,0-.49-1.44,1.61,1.61,0,0,0-1.27-.58,1.58,1.58,0,0,0-1.26.58,2.16,2.16,0,0,0-.5,1.44,2.11,2.11,0,0,0,.49,1.44,1.7,1.7,0,0,0,2.54,0M94.05,5a.69.69,0,0,1,.2.53v5.08a.69.69,0,0,1-.2.52.7.7,0,0,1-.52.21.69.69,0,0,1-.51-.2.79.79,0,0,1-.21-.52,2.43,2.43,0,0,1-.81.59,2.37,2.37,0,0,1-1.07.25,2.72,2.72,0,0,1-1.51-.43,3,3,0,0,1-1.06-1.18A3.69,3.69,0,0,1,88,8.15a3.85,3.85,0,0,1,.38-1.72,2.93,2.93,0,0,1,1.06-1.19,2.69,2.69,0,0,1,1.47-.43,2.83,2.83,0,0,1,1.93.75h0A.76.76,0,0,1,93,5a.75.75,0,0,1,1,0"></path><path id="Fill-5432" class="cls-1" d="M100.94,5.54a3.62,3.62,0,0,1,.47,2v3.08a.73.73,0,0,1-.2.52.7.7,0,0,1-.52.21.66.66,0,0,1-.51-.21.7.7,0,0,1-.21-.52V7.55a1.69,1.69,0,0,0-.28-1,1.09,1.09,0,0,0-.94-.38,1.48,1.48,0,0,0-1.1.41,1.39,1.39,0,0,0-.39,1v3.08a.7.7,0,0,1-.21.52.68.68,0,0,1-.51.21.69.69,0,0,1-.52-.21.69.69,0,0,1-.2-.52v-5a.72.72,0,0,1,.2-.53.69.69,0,0,1,.52-.21.68.68,0,0,1,.51.21.72.72,0,0,1,.21.53v.2a2.92,2.92,0,0,1,.84-.75,2.28,2.28,0,0,1,1.15-.31,1.84,1.84,0,0,1,1.69.73"></path><path id="Fill-5434" class="cls-1" d="M107,9.59a2.11,2.11,0,0,0,.49-1.44A2.15,2.15,0,0,0,107,6.71a1.67,1.67,0,0,0-2.53,0,2.16,2.16,0,0,0-.5,1.44,2.16,2.16,0,0,0,.49,1.44,1.7,1.7,0,0,0,2.54,0m1.67-6.91a.69.69,0,0,1,.21.52v7.43a.72.72,0,0,1-.73.73.73.73,0,0,1-.51-.2.79.79,0,0,1-.21-.52,2.43,2.43,0,0,1-.81.59,2.37,2.37,0,0,1-1.07.25,2.68,2.68,0,0,1-1.5-.43A3,3,0,0,1,103,9.87a3.69,3.69,0,0,1-.39-1.72A3.72,3.72,0,0,1,103,6.43a2.83,2.83,0,0,1,1-1.19,2.69,2.69,0,0,1,1.47-.43A2.81,2.81,0,0,1,106.6,5a2.69,2.69,0,0,1,.85.54V3.2a.72.72,0,0,1,.21-.52.68.68,0,0,1,.51-.21.7.7,0,0,1,.52.21"></path><path id="Fill-5436" class="cls-1" d="M110,10a.63.63,0,0,1,.31-.53.64.64,0,0,1,.35-.1.67.67,0,0,1,.48.22,2.53,2.53,0,0,0,.75.56,2.22,2.22,0,0,0,.94.18c.63,0,.94-.26.94-.71a.57.57,0,0,0-.32-.53,4.41,4.41,0,0,0-1-.36,8.72,8.72,0,0,1-1.14-.39,1.91,1.91,0,0,1-.75-.58,1.57,1.57,0,0,1-.32-1,1.58,1.58,0,0,1,.33-1,2.06,2.06,0,0,1,.87-.66,2.7,2.7,0,0,1,1.13-.24,3.47,3.47,0,0,1,1.22.23,2.22,2.22,0,0,1,1,.67.71.71,0,0,1,.15.44.53.53,0,0,1-.23.45.58.58,0,0,1-.38.13.57.57,0,0,1-.43-.16,1.48,1.48,0,0,0-.56-.42,1.78,1.78,0,0,0-.78-.16c-.61,0-.91.22-.91.66a.58.58,0,0,0,.17.43,1.06,1.06,0,0,0,.43.25l.72.22a9.51,9.51,0,0,1,1.08.37,2,2,0,0,1,.74.59,1.72,1.72,0,0,1,.3,1.05,1.64,1.64,0,0,1-.35,1,2.16,2.16,0,0,1-.9.66,2.91,2.91,0,0,1-1.12.23,4.22,4.22,0,0,1-1.48-.26,2.57,2.57,0,0,1-1.12-.86A.57.57,0,0,1,110,10"></path><path id="Fill-5508" class="cls-2" d="M10.59,11.32a5.38,5.38,0,0,0,1.86-3,.37.37,0,0,0-.29-.45.36.36,0,0,0-.28,0,.37.37,0,0,0-.16.24,4.62,4.62,0,0,1-4.51,3.61A4.62,4.62,0,1,1,11,4.56a.34.34,0,0,0,.24.16.35.35,0,0,0,.28-.06.37.37,0,0,0,.16-.24.35.35,0,0,0-.06-.28,5.37,5.37,0,1,0-1.06,7.18"></path><path id="Fill-5510" class="cls-2" d="M13.42,3.71A7.15,7.15,0,0,0,3.71.89,7.15,7.15,0,0,0,.29,9.16a.35.35,0,0,0,.18.23.35.35,0,0,0,.28,0A.38.38,0,0,0,1,9.24.37.37,0,0,0,1,9a6.41,6.41,0,0,1,3.06-7.4,6.39,6.39,0,0,1,8.69,2.53,6.39,6.39,0,0,1-6.95,9.33.38.38,0,0,0-.44.29.34.34,0,0,0,0,.29.37.37,0,0,0,.24.16,6.8,6.8,0,0,0,1.49.16,7.24,7.24,0,0,0,3.44-.88,7.15,7.15,0,0,0,2.83-9.72"></path><path id="Fill-5512" class="cls-2" d="M6.82,9.86a2,2,0,0,0,.87.2,2,2,0,0,0,1.25-.45.75.75,0,0,0,.14-.12.44.44,0,1,0-.59-.65l-.11.09a1.08,1.08,0,0,1-1.18.14,1.14,1.14,0,0,1-.65-1V6H8.83a.39.39,0,0,0,.39-.39.4.4,0,0,0-.39-.39H6.55V4.69a.44.44,0,0,0-.44-.44.44.44,0,0,0-.44.44v.55H5.09a.39.39,0,0,0-.39.39A.38.38,0,0,0,5.09,6h.58V8A2,2,0,0,0,6.82,9.86"></path></g></g></svg>