<svg xmlns="http://www.w3.org/2000/svg" viewBox="0 0 71.23 14.31"><defs><style>.cls-1{fill:#fff;}.cls-1,.cls-2{fill-rule:evenodd;}.cls-2{fill:#00e8b4;}</style></defs><title>Asset 9</title><g id="Layer_2" data-name="Layer 2"><g id="Layer_1-2" data-name="Layer 1"><path id="Fill-5396" class="cls-1" d="M26.38,6.74a.69.69,0,0,1,.2.52V9.81a.71.71,0,0,1-.37.65,4.77,4.77,0,0,1-2.58.73,4.28,4.28,0,0,1-2.2-.58A4.41,4.41,0,0,1,19.83,9a4.27,4.27,0,0,1,0-4.33,4.41,4.41,0,0,1,1.6-1.58,4.28,4.28,0,0,1,2.2-.58A4.21,4.21,0,0,1,25.69,3a.73.73,0,0,1,.27.25.69.69,0,0,1,.09.34.74.74,0,0,1-.19.52.65.65,0,0,1-.49.23,1.12,1.12,0,0,1-.4-.1A3.46,3.46,0,0,0,23.63,4a2.71,2.71,0,0,0-1.42.39,2.89,2.89,0,0,0-1.41,2.5,2.87,2.87,0,0,0,.38,1.44,3,3,0,0,0,1,1,2.71,2.71,0,0,0,1.42.39,4.76,4.76,0,0,0,.72-.06A3.47,3.47,0,0,0,25,9.53V8H23.89a.73.73,0,0,1-.52-.2.75.75,0,0,1,0-1,.73.73,0,0,1,.52-.2h2a.7.7,0,0,1,.52.21"></path><path id="Fill-5398" class="cls-1" d="M29,7.15h3.15V7.07a1.24,1.24,0,0,0-.49-.87,1.56,1.56,0,0,0-1-.36A1.5,1.5,0,0,0,29,7.15m4.46,1a.75.75,0,0,1-.5.18H29a1.86,1.86,0,0,0,.66,1.11,1.93,1.93,0,0,0,1.17.4,2.61,2.61,0,0,0,.77-.09A2.74,2.74,0,0,0,32,9.59l.22-.14a.93.93,0,0,1,.41-.11.6.6,0,0,1,.43.18.58.58,0,0,1,.18.42.74.74,0,0,1-.34.59A2.9,2.9,0,0,1,32,11a3.45,3.45,0,0,1-1.14.19,3.55,3.55,0,0,1-1.76-.42A2.94,2.94,0,0,1,28,9.61,3.4,3.4,0,0,1,27.54,8,3.69,3.69,0,0,1,28,6.13a3,3,0,0,1,2.65-1.61A2.76,2.76,0,0,1,32.12,5a3.21,3.21,0,0,1,1.55,2.75.63.63,0,0,1-.23.47"></path><path id="Fill-5400" class="cls-1" d="M38.82,4.73a.61.61,0,0,1,.24.48.75.75,0,0,1-.19.56.65.65,0,0,1-.46.18,1.05,1.05,0,0,1-.4-.08l-.17,0a1.12,1.12,0,0,0-.27,0A1.06,1.06,0,0,0,37,6a1.38,1.38,0,0,0-.47.58,2.06,2.06,0,0,0-.19.93v2.85a.73.73,0,0,1-.2.52.7.7,0,0,1-.52.21.66.66,0,0,1-.51-.21.7.7,0,0,1-.21-.52v-5a.74.74,0,0,1,.21-.53.66.66,0,0,1,.51-.21.7.7,0,0,1,.52.21.78.78,0,0,1,.2.53v.15a1.81,1.81,0,0,1,.8-.75,2.44,2.44,0,0,1,1.1-.26.92.92,0,0,1,.61.21"></path><path id="Fill-5402" class="cls-1" d="M49.14,5.25a3.83,3.83,0,0,1,.46,2v3.08a.7.7,0,0,1-.21.52.68.68,0,0,1-.51.21.7.7,0,0,1-.52-.21.69.69,0,0,1-.2-.52V7.26a1.86,1.86,0,0,0-.26-1A1,1,0,0,0,47,5.84a1.36,1.36,0,0,0-1.05.41,1.42,1.42,0,0,0-.38,1v3.08a.73.73,0,0,1-.2.52.75.75,0,0,1-1,0,.73.73,0,0,1-.2-.52V7.26a1.86,1.86,0,0,0-.26-1A1,1,0,0,0,43,5.84a1.39,1.39,0,0,0-1.05.41,1.42,1.42,0,0,0-.37,1v3.08a.72.72,0,0,1-.72.73.69.69,0,0,1-.52-.21.7.7,0,0,1-.21-.52v-5a.72.72,0,0,1,.21-.53.69.69,0,0,1,.52-.21.69.69,0,0,1,.51.21.72.72,0,0,1,.21.53v.19a2.79,2.79,0,0,1,.82-.74,2.11,2.11,0,0,1,1.11-.31,1.81,1.81,0,0,1,1.93,1.32,2.86,2.86,0,0,1,.84-.91,2.1,2.1,0,0,1,1.27-.41,1.79,1.79,0,0,1,1.64.73"></path><path id="Fill-5404" class="cls-1" d="M55.21,9.3a2.16,2.16,0,0,0,.49-1.44,2.2,2.2,0,0,0-.49-1.44,1.63,1.63,0,0,0-1.28-.58,1.6,1.6,0,0,0-1.26.58,2.15,2.15,0,0,0-.49,1.44,2.11,2.11,0,0,0,.49,1.44,1.57,1.57,0,0,0,1.26.57,1.62,1.62,0,0,0,1.28-.57m1.67-4.57a.72.72,0,0,1,.2.53v5.08a.73.73,0,0,1-.2.52.7.7,0,0,1-.52.21.69.69,0,0,1-.51-.2.79.79,0,0,1-.21-.52,2.43,2.43,0,0,1-.81.59,2.38,2.38,0,0,1-1.08.25,2.71,2.71,0,0,1-1.5-.43,2.9,2.9,0,0,1-1.06-1.18,3.69,3.69,0,0,1-.39-1.72,3.85,3.85,0,0,1,.38-1.72,3,3,0,0,1,1-1.19,2.74,2.74,0,0,1,1.47-.43,2.83,2.83,0,0,1,1.94.75h0a.76.76,0,0,1,.2-.53.75.75,0,0,1,1,0"></path><path id="Fill-5406" class="cls-1" d="M63.77,5.25a3.74,3.74,0,0,1,.47,2v3.08a.73.73,0,0,1-.2.52.75.75,0,0,1-1,0,.73.73,0,0,1-.2-.52V7.26a1.71,1.71,0,0,0-.28-1,1.1,1.1,0,0,0-1-.38,1.46,1.46,0,0,0-1.09.41,1.4,1.4,0,0,0-.4,1v3.08a.69.69,0,0,1-.2.52.7.7,0,0,1-.52.21.66.66,0,0,1-.51-.21.7.7,0,0,1-.21-.52v-5a.72.72,0,0,1,.21-.53.66.66,0,0,1,.51-.21.7.7,0,0,1,.52.21.72.72,0,0,1,.2.53v.2a2.79,2.79,0,0,1,.85-.74,2.19,2.19,0,0,1,1.15-.32,1.87,1.87,0,0,1,1.69.73"></path><path id="Fill-5408" class="cls-1" d="M71,4.85a.78.78,0,0,1,.2.53v5.1a2.85,2.85,0,0,1-.84,2.28,3.39,3.39,0,0,1-2.25.71,5.9,5.9,0,0,1-.83-.06,3.38,3.38,0,0,1-.69-.18c-.39-.17-.59-.4-.59-.69a.54.54,0,0,1,0-.2.73.73,0,0,1,.24-.4.62.62,0,0,1,.38-.14.59.59,0,0,1,.23,0l.29.12.45.14a2.52,2.52,0,0,0,.48.05,1.81,1.81,0,0,0,1.26-.37,1.62,1.62,0,0,0,.4-1.25v-.12a2.34,2.34,0,0,1-1.94.78,2.14,2.14,0,0,1-1.11-.29,2,2,0,0,1-.74-.82,2.59,2.59,0,0,1-.27-1.2V5.38A.74.74,0,0,1,66,4.85a.66.66,0,0,1,.51-.21.7.7,0,0,1,.52.21.73.73,0,0,1,.2.53V8.45a1.5,1.5,0,0,0,.33,1.09,1.33,1.33,0,0,0,1,.33,1.24,1.24,0,0,0,1-.37,1.46,1.46,0,0,0,.34-1.05V5.38a.78.78,0,0,1,.2-.53.75.75,0,0,1,1,0"></path><path id="Fill-5502" class="cls-2" d="M10.59,11.32a5.38,5.38,0,0,0,1.86-3,.37.37,0,0,0-.28-.45.36.36,0,0,0-.29,0,.43.43,0,0,0-.17.24,4.6,4.6,0,0,1-4.5,3.61A4.62,4.62,0,1,1,11,4.56a.34.34,0,0,0,.24.16.35.35,0,0,0,.28-.06.37.37,0,0,0,.16-.24.39.39,0,0,0-.06-.28,5.37,5.37,0,1,0-1.06,7.18"></path><path id="Fill-5504" class="cls-2" d="M13.42,3.71A7.15,7.15,0,0,0,3.71.89,7.15,7.15,0,0,0,.29,9.16a.35.35,0,0,0,.18.23.34.34,0,0,0,.28,0A.38.38,0,0,0,1,9.24.37.37,0,0,0,1,9a6.41,6.41,0,0,1,3.06-7.4,6.39,6.39,0,0,1,8.69,2.53,6.39,6.39,0,0,1-6.95,9.33.38.38,0,0,0-.44.29.34.34,0,0,0,0,.29.38.38,0,0,0,.23.16,7,7,0,0,0,1.5.16,7.24,7.24,0,0,0,3.44-.88,7.15,7.15,0,0,0,2.83-9.72"></path><path id="Fill-5506" class="cls-2" d="M6.82,9.86a2,2,0,0,0,.87.2,2,2,0,0,0,1.25-.45.75.75,0,0,0,.14-.12.44.44,0,1,0-.59-.65l-.11.09a1.08,1.08,0,0,1-1.18.14,1.12,1.12,0,0,1-.65-1V6H8.83a.39.39,0,0,0,.39-.39.4.4,0,0,0-.39-.39H6.55V4.69a.44.44,0,1,0-.88,0v.55H5.09a.39.39,0,0,0-.39.39A.38.38,0,0,0,5.09,6h.58V8A2,2,0,0,0,6.82,9.86"></path></g></g></svg>