<svg xmlns="http://www.w3.org/2000/svg" viewBox="0 0 43.36 27.53"><defs><style>.cls-1{fill:#fff;}.cls-1,.cls-2{fill-rule:evenodd;}.cls-2{fill:#00e8b4;}</style></defs><title>Asset 2</title><g id="Layer_2" data-name="Layer 2"><g id="Layer_1-2" data-name="Layer 1"><path id="Fill-5372" class="cls-1" d="M6.68,1.5A.8.8,0,0,1,6.5,2,.59.59,0,0,1,6,2.25a.87.87,0,0,1-.41-.11,2.89,2.89,0,0,0-1.28-.28,2.87,2.87,0,0,0-1.46.36,2.29,2.29,0,0,0-1,1,3.07,3.07,0,0,0-.34,1.47,2.9,2.9,0,0,0,.76,2.16,2.81,2.81,0,0,0,2,.73A2.72,2.72,0,0,0,5.6,7.29,1,1,0,0,1,6,7.19a.65.65,0,0,1,.53.27A.78.78,0,0,1,6.69,8a.6.6,0,0,1-.1.35.58.58,0,0,1-.27.24,4.46,4.46,0,0,1-2,.47,4.77,4.77,0,0,1-2.16-.5A3.83,3.83,0,0,1,.59,7,4.52,4.52,0,0,1,0,4.68,4.35,4.35,0,0,1,.56,2.49,4,4,0,0,1,2.1,1,4.46,4.46,0,0,1,4.32.42a4.32,4.32,0,0,1,2,.47.65.65,0,0,1,.37.61"></path><path id="Fill-5374" class="cls-1" d="M11.88,7.12a2.11,2.11,0,0,0,.49-1.44,2.13,2.13,0,0,0-.49-1.44,1.61,1.61,0,0,0-1.27-.58,1.58,1.58,0,0,0-1.26.58,2.14,2.14,0,0,0-.5,1.44,2.16,2.16,0,0,0,.49,1.44,1.7,1.7,0,0,0,2.54,0m1.67-4.57a.68.68,0,0,1,.2.52V8.16a.71.71,0,0,1-.2.52.7.7,0,0,1-.52.21.69.69,0,0,1-.51-.2.79.79,0,0,1-.21-.52,2.43,2.43,0,0,1-.81.59A2.37,2.37,0,0,1,10.43,9a2.66,2.66,0,0,1-1.5-.43A3,3,0,0,1,7.86,7.4a3.69,3.69,0,0,1-.39-1.72A3.85,3.85,0,0,1,7.85,4,2.93,2.93,0,0,1,8.91,2.77a2.69,2.69,0,0,1,1.47-.43,2.81,2.81,0,0,1,1.08.21,2.69,2.69,0,0,1,.85.54v0a.72.72,0,0,1,.21-.52A.66.66,0,0,1,13,2.34a.7.7,0,0,1,.52.21"></path><path id="Fill-5376" class="cls-1" d="M20.45,3.07a3.72,3.72,0,0,1,.46,2V8.16a.75.75,0,0,1-.2.52.7.7,0,0,1-.52.21.66.66,0,0,1-.51-.21.72.72,0,0,1-.21-.52V5.08a1.69,1.69,0,0,0-.28-1,1.09,1.09,0,0,0-.94-.38,1.51,1.51,0,0,0-1.1.4,1.43,1.43,0,0,0-.39,1V8.16a.72.72,0,0,1-.21.52.68.68,0,0,1-.51.21.69.69,0,0,1-.52-.21.71.71,0,0,1-.2-.52v-5a.71.71,0,0,1,.2-.52A.69.69,0,0,1,16,2.46a.68.68,0,0,1,.51.21.72.72,0,0,1,.21.52V3.4a2.92,2.92,0,0,1,.84-.75,2.28,2.28,0,0,1,1.15-.31,1.87,1.87,0,0,1,1.7.73"></path><path id="Fill-5378" class="cls-1" d="M26.52,7.12A2.11,2.11,0,0,0,27,5.68a2.13,2.13,0,0,0-.49-1.44,1.67,1.67,0,0,0-2.53,0,2.14,2.14,0,0,0-.5,1.44A2.16,2.16,0,0,0,24,7.12a1.7,1.7,0,0,0,2.54,0m1.67-4.57a.69.69,0,0,1,.21.52V8.16a.72.72,0,0,1-.21.52.69.69,0,0,1-.51.21.73.73,0,0,1-.52-.2A.79.79,0,0,1,27,8.17a2.33,2.33,0,0,1-.81.59A2.37,2.37,0,0,1,25.07,9a2.71,2.71,0,0,1-1.5-.43A3,3,0,0,1,22.5,7.4a3.69,3.69,0,0,1-.39-1.72A3.72,3.72,0,0,1,22.5,4a2.83,2.83,0,0,1,1.05-1.19A2.69,2.69,0,0,1,25,2.34a2.77,2.77,0,0,1,1.08.21,2.69,2.69,0,0,1,.85.54v0a.72.72,0,0,1,.21-.52.69.69,0,0,1,.52-.21.69.69,0,0,1,.51.21"></path><path id="Fill-5380" class="cls-1" d="M34,7.12a2.16,2.16,0,0,0,.49-1.44A2.18,2.18,0,0,0,34,4.24a1.63,1.63,0,0,0-1.28-.58,1.6,1.6,0,0,0-1.26.58A2.13,2.13,0,0,0,31,5.68a2.11,2.11,0,0,0,.49,1.44,1.57,1.57,0,0,0,1.26.57A1.62,1.62,0,0,0,34,7.12M35.68.2a.76.76,0,0,1,.2.53V8.16a.75.75,0,0,1-.2.52.7.7,0,0,1-.52.21.69.69,0,0,1-.51-.2.79.79,0,0,1-.21-.52,2.43,2.43,0,0,1-.81.59A2.38,2.38,0,0,1,32.55,9a2.71,2.71,0,0,1-1.5-.43A3,3,0,0,1,30,7.4a3.69,3.69,0,0,1-.39-1.72A3.85,3.85,0,0,1,30,4,3,3,0,0,1,31,2.77a2.74,2.74,0,0,1,1.47-.43,2.83,2.83,0,0,1,1.94.75V.73a.75.75,0,0,1,.2-.52A.7.7,0,0,1,35.16,0a.73.73,0,0,1,.52.2"></path><path id="Fill-5382" class="cls-1" d="M41.49,7.12A2.11,2.11,0,0,0,42,5.68a2.13,2.13,0,0,0-.49-1.44,1.68,1.68,0,0,0-2.54,0,2.18,2.18,0,0,0-.49,1.44A2.11,2.11,0,0,0,39,7.12a1.57,1.57,0,0,0,1.27.57,1.6,1.6,0,0,0,1.27-.57m1.67-4.57a.72.72,0,0,1,.2.52V8.16a.75.75,0,0,1-.2.52.7.7,0,0,1-.52.21.69.69,0,0,1-.51-.2.79.79,0,0,1-.21-.52,2.43,2.43,0,0,1-.81.59A2.37,2.37,0,0,1,40,9a2.72,2.72,0,0,1-1.51-.43A3,3,0,0,1,37.47,7.4a3.69,3.69,0,0,1-.39-1.72A3.85,3.85,0,0,1,37.46,4a2.93,2.93,0,0,1,1.06-1.19A2.69,2.69,0,0,1,40,2.34a2.83,2.83,0,0,1,1.93.75v0a.75.75,0,0,1,.2-.52.75.75,0,0,1,1,0"></path><path id="Fill-5478" class="cls-2" d="M25.12,24.55a5.4,5.4,0,0,0,1.86-3,.39.39,0,0,0-.29-.45.39.39,0,0,0-.28.05.37.37,0,0,0-.17.24,4.61,4.61,0,1,1-.69-3.59.4.4,0,0,0,.24.16.38.38,0,0,0,.29-.06.35.35,0,0,0,.15-.24.42.42,0,0,0-.05-.29,5.37,5.37,0,1,0-1.06,7.19"></path><path id="Fill-5480" class="cls-2" d="M28,16.94a7.14,7.14,0,0,0-9.71-2.83,7.14,7.14,0,0,0-3.43,8.28.43.43,0,0,0,.18.22.37.37,0,0,0,.29,0,.33.33,0,0,0,.22-.18.35.35,0,0,0,0-.28A6.47,6.47,0,0,1,15.75,18a6.4,6.4,0,1,1,4.59,8.67.38.38,0,0,0-.4.57.41.41,0,0,0,.24.17,7.56,7.56,0,0,0,1.5.15A7.15,7.15,0,0,0,28,16.94"></path><path id="Fill-5482" class="cls-2" d="M21.35,23.09a2,2,0,0,0,2.12-.25l.14-.12a.44.44,0,0,0-.6-.65l-.1.09a1.13,1.13,0,0,1-1.83-.89v-2h2.27a.4.4,0,0,0,.4-.39.39.39,0,0,0-.4-.39H21.08v-.55a.44.44,0,1,0-.88,0v.55h-.59a.39.39,0,0,0-.39.39.4.4,0,0,0,.39.39h.59v2a2,2,0,0,0,1.15,1.82"></path></g></g></svg>