<svg xmlns="http://www.w3.org/2000/svg" viewBox="0 0 69.59 14.31"><defs><style>.cls-1{fill:#fff;}.cls-1,.cls-2{fill-rule:evenodd;}.cls-2{fill:#00e8b4;}</style></defs><title>Asset 4</title><g id="Layer_2" data-name="Layer 2"><g id="Layer_1-2" data-name="Layer 1"><path id="Fill-5438" class="cls-1" d="M5.28,9.26a.68.68,0,0,1,0,1,.79.79,0,0,1-.52.19h-4a.7.7,0,0,1-.52-.21A.72.72,0,0,1,0,9.7V2.75a.7.7,0,0,1,.21-.52A.7.7,0,0,1,.73,2h4a.75.75,0,0,1,.52.2.66.66,0,0,1,.21.51.6.6,0,0,1-.21.48.71.71,0,0,1-.52.19H1.5v2H4.22a.75.75,0,0,1,.52.2A.66.66,0,0,1,5,6.15a.64.64,0,0,1-.21.49.75.75,0,0,1-.52.18H1.5V9.05H4.76a.72.72,0,0,1,.52.21"></path><path id="Fill-5440" class="cls-1" d="M11.88,4.61a3.69,3.69,0,0,1,.47,2V9.7a.72.72,0,0,1-.21.52.68.68,0,0,1-.51.21.7.7,0,0,1-.52-.21.72.72,0,0,1-.21-.52V6.62a1.76,1.76,0,0,0-.27-1,1.1,1.1,0,0,0-1-.38,1.49,1.49,0,0,0-1.09.4,1.38,1.38,0,0,0-.4,1V9.7a.75.75,0,0,1-.2.52.75.75,0,0,1-1,0,.75.75,0,0,1-.2-.52v-5A.75.75,0,0,1,7,4.21a.75.75,0,0,1,1,0,.75.75,0,0,1,.2.52v.21A3,3,0,0,1,9,4.19a2.17,2.17,0,0,1,1.14-.31,1.85,1.85,0,0,1,1.7.73"></path><path id="Fill-5442" class="cls-1" d="M18.06,8.66a2.08,2.08,0,0,0,.51-1.44,2.08,2.08,0,0,0-.51-1.44,1.7,1.7,0,0,0-1.32-.58,1.66,1.66,0,0,0-1.3.58,2.08,2.08,0,0,0-.51,1.44,2.08,2.08,0,0,0,.51,1.44,1.65,1.65,0,0,0,1.3.57,1.69,1.69,0,0,0,1.32-.57m1.69-4.57a.72.72,0,0,1,.2.52V10A2.56,2.56,0,0,1,19,12.13a3.62,3.62,0,0,1-2.3.7,5.64,5.64,0,0,1-1-.12,4.2,4.2,0,0,1-.89-.24c-.39-.17-.59-.4-.59-.7a.74.74,0,0,1,0-.19.77.77,0,0,1,.25-.4.62.62,0,0,1,.38-.14.59.59,0,0,1,.23,0s.23.08.59.22a2.84,2.84,0,0,0,1,.21,2.05,2.05,0,0,0,1.33-.36,1.21,1.21,0,0,0,.44-1V9.58a2.49,2.49,0,0,1-.8.67,2.3,2.3,0,0,1-1.15.3A2.81,2.81,0,0,1,15,10.12,2.94,2.94,0,0,1,14,8.94a3.61,3.61,0,0,1-.4-1.72,3.69,3.69,0,0,1,.39-1.72A3,3,0,0,1,15,4.31a2.72,2.72,0,0,1,1.51-.43,2.75,2.75,0,0,1,1.14.25,2.79,2.79,0,0,1,.85.62V4.61a.73.73,0,0,1,.2-.52.75.75,0,0,1,1,0"></path><path id="Fill-5444" class="cls-1" d="M22.86,10.22a.7.7,0,0,1-.52.21.66.66,0,0,1-.5-.21.72.72,0,0,1-.21-.52V2.27a.7.7,0,0,1,.21-.52.72.72,0,0,1,.52-.21.7.7,0,0,1,.71.73V9.7a.72.72,0,0,1-.21.52"></path><path id="Fill-5446" class="cls-1" d="M28.8,8.66a2.12,2.12,0,0,0,.5-1.44,2.12,2.12,0,0,0-.5-1.44,1.67,1.67,0,0,0-2.53,0,2.11,2.11,0,0,0-.49,1.44,2.16,2.16,0,0,0,.48,1.44,1.7,1.7,0,0,0,2.54,0m1.67-4.57a.69.69,0,0,1,.21.52V9.7a.72.72,0,0,1-.21.52.68.68,0,0,1-.51.21.72.72,0,0,1-.72-.72,2.37,2.37,0,0,1-.82.59,2.34,2.34,0,0,1-1.07.25,2.71,2.71,0,0,1-1.5-.43,3,3,0,0,1-1.07-1.18,3.85,3.85,0,0,1-.38-1.72,3.69,3.69,0,0,1,.38-1.72,2.9,2.9,0,0,1,1-1.19,2.61,2.61,0,0,1,1.47-.43,2.74,2.74,0,0,1,1.08.21,2.86,2.86,0,0,1,.86.54v0a.69.69,0,0,1,.2-.52A.7.7,0,0,1,30,3.88a.68.68,0,0,1,.51.21"></path><path id="Fill-5448" class="cls-1" d="M37.37,4.61a3.69,3.69,0,0,1,.47,2V9.7a.72.72,0,0,1-.21.52.68.68,0,0,1-.51.21.7.7,0,0,1-.52-.21.72.72,0,0,1-.21-.52V6.62a1.76,1.76,0,0,0-.27-1,1.1,1.1,0,0,0-.95-.38,1.49,1.49,0,0,0-1.09.4,1.38,1.38,0,0,0-.4,1V9.7a.75.75,0,0,1-.2.52.75.75,0,0,1-1,0,.75.75,0,0,1-.2-.52v-5a.75.75,0,0,1,.2-.52.75.75,0,0,1,1,0,.75.75,0,0,1,.2.52v.21a3,3,0,0,1,.85-.75,2.17,2.17,0,0,1,1.14-.31,1.85,1.85,0,0,1,1.7.73"></path><path id="Fill-5450" class="cls-1" d="M43.45,8.66a2.16,2.16,0,0,0,.49-1.44,2.16,2.16,0,0,0-.49-1.44,1.63,1.63,0,0,0-1.28-.58,1.6,1.6,0,0,0-1.26.58,2.11,2.11,0,0,0-.49,1.44,2.11,2.11,0,0,0,.49,1.44,1.57,1.57,0,0,0,1.26.57,1.62,1.62,0,0,0,1.28-.57m1.67-6.92a.76.76,0,0,1,.2.53V9.7a.75.75,0,0,1-.2.52.7.7,0,0,1-.52.21.66.66,0,0,1-.51-.21.74.74,0,0,1-.21-.51,2.43,2.43,0,0,1-.81.59,2.38,2.38,0,0,1-1.08.25,2.71,2.71,0,0,1-1.5-.43,3,3,0,0,1-1.06-1.18A3.72,3.72,0,0,1,39,7.22a3.69,3.69,0,0,1,.38-1.72,3,3,0,0,1,1-1.19,2.66,2.66,0,0,1,1.47-.43,2.83,2.83,0,0,1,1.94.75V2.27a.73.73,0,0,1,.2-.52.7.7,0,0,1,.52-.21.73.73,0,0,1,.52.2"></path><path id="Fill-5490" class="cls-2" d="M65.88,11.32a5.38,5.38,0,0,0,1.86-3,.38.38,0,0,0-.29-.45.37.37,0,0,0-.45.28,4.61,4.61,0,1,1-.69-3.59.36.36,0,0,0,.24.16.35.35,0,0,0,.28-.06A.34.34,0,0,0,67,4.42a.35.35,0,0,0-.06-.28,5.36,5.36,0,1,0-1.05,7.18"></path><path id="Fill-5492" class="cls-2" d="M68.71,3.71A7.16,7.16,0,0,0,55.57,9.16a.38.38,0,0,0,.18.23.41.41,0,0,0,.29,0,.4.4,0,0,0,.22-.18.37.37,0,0,0,0-.29,6.47,6.47,0,0,1,.22-4.21,6.38,6.38,0,0,1,2.85-3.19,6.39,6.39,0,0,1,8.69,2.53,6.39,6.39,0,0,1-6.95,9.33.39.39,0,0,0-.45.29.42.42,0,0,0,.05.29.4.4,0,0,0,.24.16,7.57,7.57,0,0,0,1.5.16,7.15,7.15,0,0,0,6.27-10.6"></path><path id="Fill-5494" class="cls-2" d="M62.11,9.86a2,2,0,0,0,2.11-.25l.15-.12a.43.43,0,0,0,0-.62.44.44,0,0,0-.62,0l-.1.09a1.08,1.08,0,0,1-1.18.14,1.12,1.12,0,0,1-.65-1V6h2.27a.39.39,0,1,0,0-.78H61.84V4.69a.44.44,0,0,0-.44-.44.44.44,0,0,0-.44.44v.55h-.59a.39.39,0,0,0,0,.78H61V8a2,2,0,0,0,1.15,1.82"></path></g></g></svg>