<svg xmlns="http://www.w3.org/2000/svg" viewBox="0 0 57.85 14.31"><defs><style>.cls-1{fill:#fff;}.cls-1,.cls-2{fill-rule:evenodd;}.cls-2{fill:#00e8b4;}</style></defs><title>Asset 6</title><g id="Layer_2" data-name="Layer 2"><g id="Layer_1-2" data-name="Layer 1"><path id="Fill-5384" class="cls-1" d="M1.5,3.23V5.35H4.1a.74.74,0,0,1,.52.19.7.7,0,0,1,.21.52.62.62,0,0,1-.21.46.72.72,0,0,1-.52.21H1.5v2.8a.67.67,0,0,1-.22.52.73.73,0,0,1-.52.21.77.77,0,0,1-.55-.2A.72.72,0,0,1,0,9.53V2.58a.72.72,0,0,1,.21-.52.7.7,0,0,1,.52-.21H4.64a.75.75,0,0,1,.52.2.66.66,0,0,1,.21.51A.64.64,0,0,1,5.16,3a.75.75,0,0,1-.52.2Z"></path><path id="Fill-5386" class="cls-1" d="M10.47,3.92a.61.61,0,0,1,.25.48.75.75,0,0,1-.2.56.64.64,0,0,1-.45.18,1.34,1.34,0,0,1-.41-.08L9.49,5a1.09,1.09,0,0,0-.26,0,1.11,1.11,0,0,0-.61.2,1.32,1.32,0,0,0-.47.58A2.2,2.2,0,0,0,8,6.68V9.53a.71.71,0,0,1-.2.52.7.7,0,0,1-.52.21.66.66,0,0,1-.51-.21.72.72,0,0,1-.21-.52v-5A.72.72,0,0,1,6.73,4a.66.66,0,0,1,.51-.21A.7.7,0,0,1,7.76,4a.72.72,0,0,1,.2.53v.15A1.81,1.81,0,0,1,8.76,4a2.44,2.44,0,0,1,1.1-.26.92.92,0,0,1,.61.21"></path><path id="Fill-5388" class="cls-1" d="M15.64,8.49a2.11,2.11,0,0,0,.49-1.44,2.15,2.15,0,0,0-.49-1.44A1.61,1.61,0,0,0,14.37,5a1.58,1.58,0,0,0-1.26.58,2.16,2.16,0,0,0-.5,1.44,2.16,2.16,0,0,0,.49,1.44,1.7,1.7,0,0,0,2.54,0m1.67-4.57a.69.69,0,0,1,.2.53V9.53a.69.69,0,0,1-.2.52.7.7,0,0,1-.52.21.69.69,0,0,1-.51-.2.79.79,0,0,1-.21-.52,2.43,2.43,0,0,1-.81.59,2.37,2.37,0,0,1-1.07.25,2.66,2.66,0,0,1-1.5-.43,3,3,0,0,1-1.07-1.18,3.69,3.69,0,0,1-.39-1.72,3.72,3.72,0,0,1,.39-1.72,2.83,2.83,0,0,1,1.05-1.19,2.69,2.69,0,0,1,1.47-.43,2.81,2.81,0,0,1,1.08.21,2.69,2.69,0,0,1,.85.54h0a.72.72,0,0,1,.21-.53.66.66,0,0,1,.51-.21.7.7,0,0,1,.52.21"></path><path id="Fill-5390" class="cls-1" d="M24.2,4.44a3.62,3.62,0,0,1,.47,2V9.53a.73.73,0,0,1-.2.52.75.75,0,0,1-1,0,.73.73,0,0,1-.2-.52V6.45a1.69,1.69,0,0,0-.28-1A1.09,1.09,0,0,0,22,5a1.48,1.48,0,0,0-1.1.41,1.39,1.39,0,0,0-.39,1V9.53a.7.7,0,0,1-.21.52.68.68,0,0,1-.51.21.69.69,0,0,1-.52-.21.7.7,0,0,1-.21-.52v-5A.72.72,0,0,1,19.28,4a.69.69,0,0,1,.52-.21.68.68,0,0,1,.51.21.72.72,0,0,1,.21.53v.2A2.92,2.92,0,0,1,21.36,4a2.28,2.28,0,0,1,1.15-.31,1.84,1.84,0,0,1,1.69.73"></path><path id="Fill-5392" class="cls-1" d="M30.68,4a1,1,0,0,1,.62.85.75.75,0,0,1-.15.46.51.51,0,0,1-.41.2.87.87,0,0,1-.31,0,1.58,1.58,0,0,1-.24-.15A1.43,1.43,0,0,0,30,5.19a1.45,1.45,0,0,0-.35-.11,2.33,2.33,0,0,0-.38,0,1.82,1.82,0,0,0-1.41.56,2.1,2.1,0,0,0-.52,1.46,2.09,2.09,0,0,0,.52,1.44,1.72,1.72,0,0,0,1.32.57A2,2,0,0,0,30,8.91l.2-.12a1.18,1.18,0,0,1,.23-.14.68.68,0,0,1,.27-.05.63.63,0,0,1,.47.19.68.68,0,0,1-.16,1,2.54,2.54,0,0,1-.89.4,4.49,4.49,0,0,1-1.18.15A3,3,0,0,1,27.35,10a2.88,2.88,0,0,1-1.09-1.2,3.67,3.67,0,0,1-.39-1.7,3.62,3.62,0,0,1,.41-1.73A2.89,2.89,0,0,1,27.4,4.14,3.17,3.17,0,0,1,29,3.71,3.7,3.7,0,0,1,30.68,4"></path><path id="Fill-5394" class="cls-1" d="M33.5,6.34h3.15V6.26a1.23,1.23,0,0,0-.5-.87,1.54,1.54,0,0,0-1-.36A1.5,1.5,0,0,0,33.5,6.34m4.46,1a.79.79,0,0,1-.51.18h-4a1.8,1.8,0,0,0,.66,1.11,1.83,1.83,0,0,0,1.17.41A2.54,2.54,0,0,0,36.08,9a2.39,2.39,0,0,0,.44-.19,2,2,0,0,1,.23-.14.89.89,0,0,1,.4-.11.57.57,0,0,1,.43.18.58.58,0,0,1,.18.42.76.76,0,0,1-.33.59,3,3,0,0,1-.9.47,3.78,3.78,0,0,1-1.14.19A3.55,3.55,0,0,1,33.63,10,2.94,2.94,0,0,1,32.47,8.8a3.4,3.4,0,0,1-.41-1.66,3.68,3.68,0,0,1,.43-1.82,3,3,0,0,1,1.14-1.19,3,3,0,0,1,1.52-.42,2.86,2.86,0,0,1,1.49.43,3.15,3.15,0,0,1,1.12,1.17,3.06,3.06,0,0,1,.43,1.59.63.63,0,0,1-.23.46"></path><path id="Fill-5496" class="cls-2" d="M54.13,11.32a5.38,5.38,0,0,0,1.86-3,.38.38,0,0,0-.29-.45.34.34,0,0,0-.28,0,.39.39,0,0,0-.17.23,4.59,4.59,0,0,1-4.5,3.62,4.62,4.62,0,1,1,3.82-7.21.34.34,0,0,0,.24.16.36.36,0,0,0,.28-.06.37.37,0,0,0,.16-.24.39.39,0,0,0-.06-.28,5.37,5.37,0,1,0-1.06,7.18"></path><path id="Fill-5498" class="cls-2" d="M57,3.71A7.16,7.16,0,0,0,43.82,9.16.38.38,0,1,0,44.55,9a6.41,6.41,0,0,1,3.06-7.4A6.39,6.39,0,0,1,56.3,4.08a6.39,6.39,0,0,1-6.95,9.33.39.39,0,0,0-.45.29A.38.38,0,0,0,49,14a.35.35,0,0,0,.23.16,7,7,0,0,0,1.5.16,7.24,7.24,0,0,0,3.44-.88A7.15,7.15,0,0,0,57,3.71"></path><path id="Fill-5500" class="cls-2" d="M50.36,9.86a2,2,0,0,0,.87.2,2,2,0,0,0,1.25-.45l.14-.12a.44.44,0,0,0,0-.62.45.45,0,0,0-.63,0l-.1.09a1.08,1.08,0,0,1-1.18.14,1.11,1.11,0,0,1-.65-1V6h2.28a.39.39,0,0,0,.39-.39.4.4,0,0,0-.39-.39H50.09V4.69a.44.44,0,0,0-.88,0v.55h-.58a.4.4,0,0,0-.4.39.39.39,0,0,0,.4.39h.58V8a2,2,0,0,0,1.15,1.82"></path></g></g></svg>