<svg xmlns="http://www.w3.org/2000/svg" xmlns:xlink="http://www.w3.org/1999/xlink" width="44px" height="44px" viewBox="0 0 44 44"><title>favicon</title><desc>Created with Sketch.</desc><defs><path d="M10.8902372,2.60085455 C6.67316405,4.91645775 3.35582273,8.64060248 1.54719675,13.0891749 L1.54719675,13.0891749 C0.524690885,15.6063474 0.00610815931,18.2939375 0,20.9815276 L0,20.9815276 L0,21.069485 C0.00366489559,23.0332583 0.281586144,24.9958099 0.836817826,26.8911717 L0.836817826,26.8911717 C0.985856913,27.4005922 1.51971004,27.6919514 2.02913052,27.5429123 L2.02913052,27.5429123 C2.53855101,27.3932624 2.82991021,26.8600201 2.68087112,26.3505996 L2.68087112,26.3505996 C1.47939619,22.2495814 1.70906298,17.7961225 3.32833601,13.8129918 L3.32833601,13.8129918 C4.97020923,9.7724444 7.98397504,6.38913496 11.8150126,4.28609571 L11.8150126,4.28609571 C16.2806878,1.83366974 21.4341418,1.26744338 26.3255558,2.69186613 L26.3255558,2.69186613 C31.2175806,4.11567806 35.2617929,7.35911066 37.7142189,11.8247859 L37.7142189,11.8247859 C42.7760505,21.0438308 39.3939627,32.6627714 30.1749178,37.7239922 L30.1749178,37.7239922 C26.1563598,39.931481 21.4775098,40.6174273 17.0008398,39.6566138 L17.0008398,39.6566138 C16.4816463,39.5454453 15.971615,39.8752859 15.8598357,40.3938687 L15.8598357,40.3938687 C15.7486672,40.9130622 16.0791186,41.4237043 16.5983121,41.5354836 L16.5983121,41.5354836 C18.052054,41.8469998 19.5247312,42.0015362 20.9937436,42.0015362 L20.9937436,42.0015362 C24.5016594,42.0009254 27.9814778,41.1207396 31.0996931,39.4092334 L31.0996931,39.4092334 C36.0161506,36.7100378 39.5857589,32.2578005 41.1537234,26.873458 L41.1537234,26.873458 C42.721077,21.4885048 42.097434,15.8158572 39.3982384,10.9000106 L39.3982384,10.9000106 C36.6990428,5.984164 32.2480271,2.41333406 26.8630738,0.845980384 L26.8630738,0.845980384 C24.9188467,0.280364831 22.9355274,-3.55271368e-15 20.9650352,-3.55271368e-15 L20.9650352,-3.55271368e-15 C17.4791087,-0.000610497132 14.0304419,0.87652118 10.8902372,2.60085455 M5.45702953,21.0047386 C5.45702953,29.6685517 12.5046237,36.7155351 21.1672153,36.7155351 L21.1672153,36.7155351 C24.7679752,36.7155351 28.2850533,35.4676382 31.0728172,33.2009003 L31.0728172,33.2009003 C33.8202673,30.9665356 35.7510565,27.8428229 36.5096898,24.4039292 L36.5096898,24.4039292 C36.6245232,23.8853465 36.2965151,23.3728719 35.7785432,23.2580385 L35.7785432,23.2580385 C35.2605713,23.143816 34.7474859,23.4718241 34.6332633,23.989796 L34.6332633,23.989796 C33.9674739,27.0066159 32.2724597,29.7479578 29.8597368,31.7092878 L29.8597368,31.7092878 C27.4140298,33.6981044 24.3275769,34.7939082 21.1672153,34.7939082 L21.1672153,34.7939082 C13.5650002,34.7939082 7.37926726,28.6081753 7.37926726,21.0047386 L7.37926726,21.0047386 C7.37926726,13.4019127 13.5650002,7.21617973 21.1672153,7.21617973 L21.1672153,7.21617973 C25.7355076,7.21617973 29.998392,9.47253378 32.5729812,13.2528736 L32.5729812,13.2528736 C32.8716702,13.6920502 33.4696589,13.8050512 33.9082248,13.5057514 L33.9082248,13.5057514 C34.3467906,13.2076732 34.4604024,12.6102952 34.1611026,12.1711186 L34.1611026,12.1711186 C31.2279645,7.86547706 26.3707562,5.29394199 21.1672153,5.29394199 L21.1672153,5.29394199 C12.5046237,5.29394199 5.45702953,12.342147 5.45702953,21.0047386 M16.7687298,13.7109855 L16.7687298,15.4896815 L14.8880275,15.4896815 C14.3327958,15.4896815 13.8826245,15.9398529 13.8826245,16.4944737 L13.8826245,16.4944737 C13.8826245,17.0497054 14.3327958,17.4998767 14.8880275,17.4998767 L14.8880275,17.4998767 L16.7687298,17.4998767 L16.7687298,23.6251389 C16.7687298,25.884547 18.0392269,27.8941314 20.0842386,28.8689937 L20.0842386,28.8689937 C20.8856291,29.2513644 21.7358849,29.4388849 22.5794217,29.4388849 L22.5794217,29.4388849 C23.8633568,29.4388849 25.1295782,29.0027624 26.1771275,28.154339 L26.1771275,28.154339 C26.3157828,28.0419489 26.4550488,27.9210073 26.5918716,27.7964009 L26.5918716,27.7964009 C27.0597566,27.3669973 27.0909082,26.6401263 26.6627262,26.1728522 L26.6627262,26.1728522 C26.2339334,25.7049672 25.5070625,25.6732047 25.0397883,26.1019975 L25.0397883,26.1019975 C24.9365604,26.1960632 24.8327217,26.2858531 24.7294938,26.3689241 L24.7294938,26.3689241 C23.6752255,27.2240664 22.3082194,27.3834893 21.0731496,26.7946628 L21.0731496,26.7946628 C19.8160904,26.1960632 19.0666193,25.0110803 19.0666193,23.6251389 L19.0666193,23.6251389 L19.0666193,17.4998767 L25.9450175,17.4998767 C26.5002492,17.4998767 26.9504205,17.0497054 26.9504205,16.4944737 L26.9504205,16.4944737 C26.9504205,15.9398529 26.5002492,15.4896815 25.9450175,15.4896815 L25.9450175,15.4896815 L19.0666193,15.4896815 L19.0666193,13.7109855 C19.0666193,13.0769586 18.5510906,12.5620408 17.9176745,12.5620408 L17.9176745,12.5620408 C17.282426,12.5620408 16.7687298,13.0769586 16.7687298,13.7109855" id="path-1"></path></defs><g id="Page-1" stroke="none" stroke-width="1" fill="none" fill-rule="evenodd"><g id="Home-Copy-20" transform="translate(-134.000000, -4962.000000)"><g id="logo-green" transform="translate(135.000000, 4963.000000)"><mask id="mask-2" fill="white"><use xlink:href="#path-1"></use></mask><use id="favicon" stroke="#00E8B4" stroke-width="0.5" fill="#00E8B4" xlink:href="#path-1"></use></g></g></g></svg>