<svg xmlns="http://www.w3.org/2000/svg" xmlns:xlink="http://www.w3.org/1999/xlink" width="82px" height="85px" viewBox="0 0 82 85"><title>token</title><desc>Created with Sketch.</desc><defs><polygon id="path-1" points="0 -0.000102000126 22.3543476 -0.000102000126 22.3543476 28.6921254 0 28.6921254"></polygon></defs><g id="Page-1" stroke="none" stroke-width="1" fill="none" fill-rule="evenodd"><g id="Home-Copy-23" transform="translate(-130.000000, -1610.000000)"><g id="token" transform="translate(132.000000, 1612.000000)"><g id="Group-12" transform="translate(28.231103, 31.140717)"><path d="M24.9316605,-4.26325641e-14 C38.7010011,-4.26325641e-14 49.8633211,11.16232 49.8633211,24.9316605 C49.8633211,38.7010011 38.7010011,49.8633211 24.9316605,49.8633211 C11.16232,49.8633211 -1.42108547e-12,38.7010011 -1.42108547e-12,24.9316605 C-1.42108547e-12,11.16232 11.16232,-4.26325641e-14 24.9316605,-4.26325641e-14" id="Fill-1" fill="#E8D4D4"></path><path d="M25.7670604,40.6000278 L25.7670604,37.3758064 M20.9307283,40.6000278 L20.9307283,37.3758064 M25.7670604,11.5820352 L25.7670604,8.35781385 M20.9307283,11.5820352 L20.9307283,8.35781385 M17.7065069,22.8668101 L27.3791711,22.8668101 C30.4051029,22.9572899 32.9310788,20.577613 33.0215585,17.5518827 C33.0247827,17.4426622 33.0247827,17.3336432 33.0215585,17.2244227 C33.1120382,14.1986924 30.7323613,11.672515 27.7064295,11.5820352 C27.5974106,11.578811 27.4883916,11.578811 27.3791711,11.5820352 L17.7065069,11.5820352 L17.7065069,37.3758064 L27.9434098,37.3758064 C31.8124755,37.3758064 35.4397246,33.990374 35.4397246,30.1213083 C35.4397246,26.2522426 31.2482367,22.8668101 27.3791711,22.8668101" id="Stroke-13" stroke="#242828" stroke-width="3.5" stroke-linecap="square"></path><path d="M24.9316605,-4.26325641e-14 C38.7010011,-4.26325641e-14 49.8633211,11.16232 49.8633211,24.9316605 C49.8633211,38.7010011 38.7010011,49.8633211 24.9316605,49.8633211 C11.16232,49.8633211 -1.42108547e-12,38.7010011 -1.42108547e-12,24.9316605 C-1.42108547e-12,11.16232 11.16232,-4.26325641e-14 24.9316605,-4.26325641e-14 Z" id="Stroke-3" stroke="#242828" stroke-width="3.5" stroke-linecap="square"></path><path d="M26.7472458,47.0772763 C12.9779052,47.0864179 1.8081058,35.9315774 1.79896419,22.1622368 C1.79501668,15.9465661 4.11262229,9.95361821 8.29781704,5.35829764 C-1.77602817,14.7452756 -2.33283525,30.5211993 7.05393494,40.5950445 C16.4409129,50.6688897 32.2168366,51.2256968 42.2906818,41.8389266 C42.7197142,41.4389812 43.1346185,41.0240769 43.5345639,40.5950445 C38.9450608,44.7773306 32.9562681,47.0899499 26.7472458,47.0772763" id="Fill-7" fill="#000000" opacity="0.149999991"></path></g><g id="Group-8" transform="translate(0.110115, 0.110137)"><path d="M26.9261934,-3.55271368e-14 C41.7970812,-3.55271368e-14 53.8523868,12.0553055 53.8523868,26.9261934 C53.8523868,41.7970812 41.7970812,53.8523868 26.9261934,53.8523868 C12.0553055,53.8523868 -1.4033219e-12,41.7970812 -1.4033219e-12,26.9261934 C-1.4033219e-12,12.0553055 12.0553055,-3.55271368e-14 26.9261934,-3.55271368e-14" id="Fill-9" fill="#00E8B4"></path><g id="Group-3" transform="translate(14.151958, 13.133068)"><mask id="mask-2" fill="white"><use xlink:href="#path-1"></use></mask><g id="Clip-2"></g><path d="M10.501933,27.7164942 C11.8595546,28.364195 13.2987764,28.6926354 14.7777782,28.6926354 C17.003421,28.6926354 19.1933637,27.9102945 20.9457259,26.4904527 C21.1813461,26.2997125 21.4179864,26.0946922 21.6505467,25.882532 C22.5338678,25.071631 22.5940479,23.6956493 21.7851869,22.8113082 C20.9763259,21.9279871 19.5983042,21.868827 18.7139631,22.677688 C18.5466829,22.8317082 18.3763427,22.9775684 18.2100825,23.1122085 C16.5270804,24.4779902 14.3452977,24.7329905 12.3715953,23.7925494 C10.3652528,22.8357882 9.16675132,20.9426659 9.16675132,18.7282431 L9.16675132,8.75569081 L20.3990052,8.75569081 C21.4649065,8.75569081 22.3329276,7.88868974 22.3329276,6.82278842 C22.3329276,5.75586711 21.4649065,4.88784603 20.3990052,4.88784603 L9.16675132,4.88784603 L9.16675132,2.17362268 C9.16675132,0.975121204 8.19163011,-4.61852778e-14 6.99312863,-4.61852778e-14 C5.79462715,-4.61852778e-14 4.81950595,0.975121204 4.81950595,2.17362268 L4.81950595,4.88784603 L1.93392239,4.88784603 C0.868021072,4.88784603 2.80664381e-13,5.75586711 2.80664381e-13,6.82278842 C2.80664381e-13,7.88868974 0.868021072,8.75569081 1.93392239,8.75569081 L4.81950595,8.75569081 L4.81950595,18.7282431 C4.81950595,22.6011879 6.99720864,26.0447122 10.501933,27.7164942" id="Fill-1" fill="#231F20" mask="url(#mask-2)"></path></g><path d="M26.9261934,53.8523868 C12.0553055,53.8523868 -7.03437308e-13,41.7970812 -7.03437308e-13,26.9261934 C-7.03437308e-13,12.0553055 12.0553055,-3.90798505e-14 26.9261934,-3.90798505e-14 L26.9261934,53.8523868 Z" id="Fill-11" fill="#000000" opacity="0.149999991"></path><path d="M26.9261934,-3.90798505e-14 C41.7970812,-3.90798505e-14 53.8523868,12.0553055 53.8523868,26.9261934 C53.8523868,41.7970812 41.7970812,53.8523868 26.9261934,53.8523868 C12.0553055,53.8523868 -1.4033219e-12,41.7970812 -1.4033219e-12,26.9261934 C-1.4033219e-12,12.0553055 12.0553055,-3.90798505e-14 26.9261934,-3.90798505e-14 Z" id="Stroke-15" stroke="#242828" stroke-width="3.5" stroke-linecap="square"></path></g></g></g></g></svg>