<svg xmlns="http://www.w3.org/2000/svg" xmlns:xlink="http://www.w3.org/1999/xlink" width="58px" height="66px" viewBox="0 0 58 66"><title>enterprise-icon-automobile</title><desc>Created with Sketch.</desc><defs><polygon id="path-1" points="0.0838873532 0.108117901 32.2755959 0.108117901 32.2755959 28.2766359 0.0838873532 28.2766359"></polygon></defs><g id="Page-1" stroke="none" stroke-width="1" fill="none" fill-rule="evenodd"><g id="Enterprise-2" transform="translate(-535.000000, -8617.000000)"><g id="enterprise-icon-automobile" transform="translate(535.000000, 8617.000000)"><path d="M15.517689,10.3451107 C14.5659389,10.3451107 13.7935039,9.57267577 13.7935039,8.62092559 C13.7935039,7.6691754 14.5659389,6.89674047 15.517689,6.89674047 L22.4144295,6.89674047 C23.3661797,6.89674047 24.1386146,7.6691754 24.1386146,8.62092559 C24.1386146,9.57267577 23.3661797,10.3451107 22.4144295,10.3451107 L15.517689,10.3451107 Z M17.2418742,47.2312597 C17.2418742,46.2795096 18.0143091,45.5070746 18.9660593,45.5070746 C19.9178095,45.5070746 20.6902444,46.2795096 20.6902444,47.2312597 C20.6902444,48.1830099 19.9178095,48.9554449 18.9660593,48.9554449 C18.0143091,48.9554449 17.2418742,48.1830099 17.2418742,47.2312597 Z M1.72420811,0 C0.771308465,0 2.29891348e-05,0.772434933 2.29891348e-05,1.72418512 L2.29891348e-05,54.1280002 C2.29891348e-05,55.0797504 0.771308465,55.8521853 1.72420811,55.8521853 L22.9580076,55.8521853 L22.9580076,49.1577493 C22.9580076,47.5059799 23.9581499,46.0875503 25.3846257,45.4679931 L27.6420438,37.9424998 C28.1571154,36.2263609 29.7064682,35.0734558 31.4974367,35.0734558 L37.9320956,35.0734558 L37.9320956,1.72418512 C37.9320956,0.772434933 37.1596606,0 36.2079105,0 L1.72420811,0 Z" id="Fill-1" fill="#242828"></path><g id="Group-5" transform="translate(25.632885, 37.494212)"><mask id="mask-2" fill="white"><use xlink:href="#path-1"></use></mask><g id="Clip-4"></g><path d="M24.2270768,19.2223192 C23.1167016,19.2223192 22.2155275,18.3211451 22.2155275,17.2096204 C22.2155275,16.0992452 23.1167016,15.1980711 24.2270768,15.1980711 C25.3386015,15.1980711 26.2397756,16.0992452 26.2397756,17.2096204 C26.2397756,18.3211451 25.3386015,19.2223192 24.2270768,19.2223192 L24.2270768,19.2223192 Z M9.78415282,18.3579277 C9.42092449,18.8809305 8.81516079,19.2223192 8.13123402,19.2223192 C7.44742221,19.2223192 6.84269301,18.8809305 6.47946468,18.3579277 C6.2530217,18.0326314 6.11968472,17.6360689 6.11968472,17.2096204 C6.11968472,16.0992452 7.01970935,15.1980711 8.13123402,15.1980711 C9.2427587,15.1980711 10.1439328,16.0992452 10.1439328,17.2096204 C10.1439328,17.6360689 10.0105958,18.0326314 9.78415282,18.3579277 L9.78415282,18.3579277 Z M8.62320151,4.13236597 L23.7362588,4.13236597 L25.5466532,10.1680484 L6.81165768,10.1680484 L8.62320151,4.13236597 Z M29.8490698,10.5026552 L27.5916517,2.97716194 C27.1777323,1.59999781 26.0983924,0.585027505 24.7627237,0.23915597 C24.433979,0.152946714 24.0904064,0.108117901 23.7362588,0.108117901 L8.62320151,0.108117901 C6.8323479,0.108117901 5.28288021,1.26090807 4.76792359,2.97716194 L2.51039054,10.5026552 C1.08391472,11.1220975 0.0838873532,12.5405271 0.0838873532,14.1922965 L0.0838873532,22.2396431 C0.0838873532,23.3512827 0.983911984,24.2524568 2.09543666,24.2524568 L2.09543666,26.2640061 C2.09543666,27.3755308 2.99661074,28.2767049 4.10698596,28.2767049 L6.11968472,28.2767049 C7.23120939,28.2767049 8.13123402,27.3755308 8.13123402,26.2640061 L8.13123402,24.2524568 L24.2270768,24.2524568 L24.2270768,26.2640061 C24.2270768,27.3755308 25.1282509,28.2767049 26.2397756,28.2767049 L28.2513249,28.2767049 C29.3628496,28.2767049 30.2641386,27.3755308 30.2641386,26.2640061 L30.2641386,24.2524568 C31.3743989,24.2524568 32.2756879,23.3512827 32.2756879,22.2396431 L32.2756879,14.1922965 C32.2756879,12.5405271 31.2745111,11.1220975 29.8490698,10.5026552 L29.8490698,10.5026552 Z" id="Fill-3" fill="#00E8B5" mask="url(#mask-2)"></path></g></g></g></g></svg>