<svg xmlns="http://www.w3.org/2000/svg" xmlns:xlink="http://www.w3.org/1999/xlink" width="73px" height="60px" viewBox="0 0 73 60"><title>enterprise-icon-heart</title><desc>Created with Sketch.</desc><g id="Page-1" stroke="none" stroke-width="1" fill="none" fill-rule="evenodd"><g id="Enterprise-2" transform="translate(-135.000000, -8624.000000)" fill-rule="nonzero"><g id="enterprise-icon-heart" transform="translate(135.000000, 8624.000000)"><path d="M33.943662,59.9156338 C44.5916901,50.7887324 48.3942254,47.6619718 51.8591549,44.5776056 C46.8732394,42.1267606 43.2394366,37.3097183 42.5212676,31.6056338 L39.4788732,31.6056338 L31.8309859,46.9014085 L23.3802817,30 L20.4647887,35.8309859 L7.01394366,35.8309859 C12.8449296,42.6338028 22.1970423,49.8591549 33.943662,59.9156338 L33.943662,59.9156338 Z" id="Path" fill="#00E8B5"></path><path d="M23.3802817,20.5352113 L31.8309859,37.4366197 L36.8591549,27.3802817 L42.5212676,27.3802817 C43.5776056,19.0564789 50.6761972,12.5915493 59.2957746,12.5915493 C62.1690141,12.5915493 64.8309859,13.3943662 67.1971831,14.6195775 C65.2957746,6.08450704 58.4929577,0.0843661972 49.7887324,0.0843661972 C41.2111268,0.0843661972 36.3098592,6.21112676 33.943662,10.5633803 C31.5774648,6.21126761 26.6761972,0.0843661972 18.0985915,0.0843661972 C7.87338028,0.0843661972 0,8.36619718 0,19.3943662 C0,23.8309859 1.30985915,27.7184507 3.84492958,31.6056338 L17.8450704,31.6056338 L23.3802817,20.5352113 Z" id="Path" fill="#242828"></path><path d="M59.2957746,16.8169014 C52.2949296,16.8169014 46.6197183,22.4921127 46.6197183,29.4929577 C46.6197183,36.4938028 52.2949296,42.1690141 59.2957746,42.1690141 C66.2966197,42.1690141 72.1126761,36.4938028 72.1126761,29.4929577 C72.1126761,22.4921127 66.2966197,16.8169014 59.2957746,16.8169014 Z M65.6338028,31.6056338 L61.4084507,31.6056338 L61.4084507,35.8309859 L57.1830986,35.8309859 L57.1830986,31.6056338 L52.9577465,31.6056338 L52.9577465,27.3802817 L57.1830986,27.3802817 L57.1830986,23.1549296 L61.4084507,23.1549296 L61.4084507,27.3802817 L65.6338028,27.3802817 L65.6338028,31.6056338 Z" id="Shape" fill="#00E8B5"></path></g></g></g></svg>