<svg xmlns="http://www.w3.org/2000/svg" xmlns:xlink="http://www.w3.org/1999/xlink" width="69px" height="60px" viewBox="0 0 69 60"><title>enterprise-icon-transgenic</title><desc>Created with Sketch.</desc><g id="Page-1" stroke="none" stroke-width="1" fill="none" fill-rule="evenodd"><g id="enterprise-icon-transgenic" fill-rule="nonzero"><path d="M66.4,16 C65.2945333,16 64.4,16.8945333 64.4,18 L64.4,20 L52.4,20 L52.4,18 C52.4,16.8945333 51.5054667,16 50.4,16 C49.2945333,16 48.4,16.8945333 48.4,18 L48.4,25.0566667 C48.4,29.7708 50.5498667,34.7376 54.7378667,38 C50.5677333,41.2485333 48.4,46.2070667 48.4,50.9433333 L48.4,58 C48.4,59.1054667 49.2945333,60 50.4,60 C51.5054667,60 52.4,59.1054667 52.4,58 L52.4,56 L64.4,56 L64.4,58 C64.4,59.1054667 65.2945333,60 66.4,60 C67.5054667,60 68.4,59.1054667 68.4,58 L68.4,50.9433333 C68.4,46.2734667 66.2918667,41.2949333 62.0621333,38 C66.2322667,34.7514667 68.4,29.7929333 68.4,25.0566667 L68.4,18 C68.4,16.8945333 67.5054667,16 66.4,16 Z M64.4,50.9433333 L64.4,52 L52.4,52 L52.4,50.9433333 C52.4,49.9321333 52.5501333,48.9516 52.7792,48 L64.0212,48 C64.2501333,48.9517333 64.4,49.9321333 64.4,50.9433333 Z M62.1978667,44 L54.6024,44 C55.5945333,42.5341333 56.8326667,41.2282667 58.4,40.2812 C59.9674667,41.2282667 61.2057333,42.5342667 62.1978667,44 Z M58.4,35.7188 C56.8326667,34.7717333 55.5945333,33.4658667 54.6024,31.9986667 L62.1978667,31.9986667 C61.2057333,33.4658667 59.9674667,34.7717333 58.4,35.7188 L58.4,35.7188 Z M64.4,25.0566667 C64.4,26.0678667 64.2501333,27.0484 64.0210667,28 L52.7790667,28 C52.55,27.0484 52.3998667,26.0678667 52.3998667,25.0566667 L52.3998667,24 L64.3998667,24 L64.3998667,25.0566667 L64.4,25.0566667 Z" id="Shape" fill="#00E8B5"></path><path d="M33.9,16.1425333 C31.2028,15.6581333 28.2901333,16.3866667 25.6924,18.2245333 C23.5790667,19.7166667 20.9541333,19.7166667 18.8408,18.2245333 C16.2432,16.3866667 13.4482667,15.6581333 10.7665333,16.1425333 C6.89146667,16.8241333 3.61173333,19.8417333 1.77386667,24.6386667 C0.0708,29.0858667 -0.321866667,34.6249333 0.6684,40.2382667 C2.64453333,51.4592 9.51266667,59.5373333 16.6416,59.6178667 C18.6052,59.6401333 20.5296,59.0708 22.2666667,57.8378667 C23.9465333,59.0302667 25.8236,59.6172 27.7705333,59.6172 C34.9268,59.6172 41.8765333,51.5234667 43.8648,40.2382667 C44.8550667,34.6249333 44.4624,29.0858667 42.7593333,24.6386667 C40.9214667,19.8418667 37.7750667,16.8242667 33.9,16.1425333 Z" id="Path" fill="#242828"></path><path d="M46.4,0 L42.4,0 C33.8761333,0 26.4488,4.8064 22.792,11.8708 C20.5096,7.22973333 15.7777333,4 10.2666667,4 C9.1612,4 8.26666667,4.89453333 8.26666667,6 C8.26666667,7.10546667 9.1612,8 10.2666667,8 C14.2989333,8 17.7610667,10.4116 19.3416,13.8574667 C19.9541333,14.1888 20.562,14.5422667 21.1514667,14.9590667 C21.8713333,15.4677333 22.6474667,15.4770667 23.3858667,14.9570667 C26.6541333,12.6452 30.646,11.4985333 34.6070667,12.2050667 C37.7362667,12.7561333 40.4766667,14.3678667 42.694,16.8434667 C46.2565333,12.9301333 48.4,7.7212 48.4,2 C48.4,0.894533333 47.5054667,0 46.4,0 L46.4,0 Z" id="Path" fill="#00E8B5"></path></g></g></svg>