<svg xmlns="http://www.w3.org/2000/svg" xmlns:xlink="http://www.w3.org/1999/xlink" width="95px" height="104px" viewBox="0 0 95 104"><title>icon-trc21</title><desc>Created with Sketch.</desc><g id="Page-1" stroke="none" stroke-width="1" fill="none" fill-rule="evenodd"><g id="TomoZ-5" transform="translate(-138.000000, -1578.000000)"><g id="icon-trc21" transform="translate(138.000000, 1578.000000)"><circle id="Oval" fill="#00E8B5" cx="75" cy="84" r="20"></circle><text id="TRC21" stroke="#242828" font-family="Helvetica" font-size="26" font-weight="normal" fill="#242828"><tspan x="9" y="52">TRC21</tspan></text><g id="left" fill="#242828" fill-rule="nonzero"><path d="M47,94 C21.0834167,94 0,72.9165833 0,47 C0,21.0834167 21.0834167,0 47,0 C72.9165833,0 94,21.0834167 94,47 C94,72.9165833 72.9165833,94 47,94 Z M47,3.91666667 C23.2454167,3.91666667 3.91666667,23.2454167 3.91666667,47 C3.91666667,70.7545833 23.2454167,90.0833333 47,90.0833333 C70.7545833,90.0833333 90.0833333,70.7545833 90.0833333,47 C90.0833333,23.2454167 70.7545833,3.91666667 47,3.91666667 Z" id="Shape"></path></g></g></g></g></svg>