<svg xmlns="http://www.w3.org/2000/svg" xmlns:xlink="http://www.w3.org/1999/xlink" width="106px" height="96px" viewBox="0 0 106 96"><title>icon-tomox-listing</title><desc>Created with Sketch.</desc><g id="Page-1" stroke="none" stroke-width="1" fill="none" fill-rule="evenodd"><g id="TomoZ-5" transform="translate(-528.000000, -1576.000000)"><g id="icon-tomox-listing" transform="translate(528.000000, 1576.000000)"><circle id="Oval-Copy" fill="#00E8B5" cx="20" cy="20" r="20"></circle><g id="transfer-(3)" transform="translate(12.000000, 10.000000)" fill="#242828" fill-rule="nonzero"><path d="M91.8861302,15.7519377 C92.9809437,15.7519377 93.8411543,16.6478471 93.8411543,17.6995669 C93.8411543,18.7902392 92.9809437,19.647196 91.8861302,19.647196 L89.9311062,19.647196 L89.9311062,15.7519377 L91.8861302,15.7519377 Z" id="Path"></path><polygon id="Path" points="3.9100481 15.7519377 89.9311062 15.7519377 89.9311062 19.647196 3.9100481 19.647196"></polygon><path d="M64.5157936,39.1234876 C65.610607,39.1234876 66.4708176,40.019397 66.4708176,41.0711168 C66.4708176,42.1617891 65.610607,43.0187459 64.5157936,43.0187459 L34.0565189,43.0187459 L32.1014949,41.0711168 L34.0565189,39.1234876 L64.5157936,39.1234876 Z" id="Path"></path><path d="M59.7846354,62.4950375 L61.7396594,60.5474084 L59.7846354,58.5997792 L63.5382816,58.5997792 C64.633095,58.5997792 65.4933056,59.4956886 65.4933056,60.5474084 C65.4933056,61.6380807 64.633095,62.4950375 63.5382816,62.4950375 L59.7846354,62.4950375 Z" id="Path"></path><path d="M61.7396594,60.5474084 L59.7846354,62.4950375 L29.3253607,62.4950375 C28.2305473,62.4950375 27.3703367,61.6380807 27.3703367,60.5474084 C27.3703367,59.4956886 28.2305473,58.5997792 29.3253607,58.5997792 L59.7846354,58.5997792 L61.7396594,60.5474084 Z" id="Path"></path><path d="M58.0642142,51.3935513 L65.8843104,59.1840679 C66.66632,59.9631196 66.66632,61.1706497 65.8843104,61.9497013 L58.0642142,69.740218 C57.7123099,70.0907912 57.2040036,70.2855541 56.6956974,70.2855541 C56.1873911,70.2855541 55.6790849,70.0907912 55.3271806,69.740218 C54.5451709,68.9611663 54.5451709,67.7536362 55.3271806,66.9745846 L59.7846354,62.4950375 L63.5382816,62.4950375 C64.633095,62.4950375 65.4933056,61.6380807 65.4933056,60.5474084 C65.4933056,59.4956886 64.633095,58.5997792 63.5382816,58.5997792 L59.7846354,58.5997792 L55.3271806,54.1591847 C54.5451709,53.3801331 54.5451709,52.172603 55.3271806,51.3935513 C56.0700897,50.6534522 57.3213051,50.6534522 58.0642142,51.3935513 L58.0642142,51.3935513 Z" id="Path"></path><path d="M34.0565189,39.1234876 L32.1014949,41.0711168 L34.0565189,43.0187459 L30.3028727,43.0187459 C29.2080593,43.0187459 28.3478487,42.1617891 28.3478487,41.0711168 C28.3478487,40.019397 29.2080593,39.1234876 30.3028727,39.1234876 L34.0565189,39.1234876 Z" id="Path"></path><path d="M30.3028727,39.1234876 C29.2080593,39.1234876 28.3478487,40.019397 28.3478487,41.0711168 C28.3478487,42.1617891 29.2080593,43.0187459 30.3028727,43.0187459 L34.0565189,43.0187459 L38.5139737,47.498293 C39.2959834,48.2383921 39.2959834,49.4848747 38.5139737,50.2639264 C38.1620694,50.6144996 37.6537632,50.8092626 37.1454569,50.8092626 C36.6371507,50.8092626 36.1288444,50.6144996 35.7769401,50.2639264 L27.9568439,42.4734098 C27.1748343,41.6943581 27.1748343,40.486828 27.9568439,39.7077764 L35.7769401,31.9172597 C36.5198492,31.1771607 37.7710646,31.1771607 38.5139737,31.9172597 C39.2959834,32.6963114 39.2959834,33.9038415 38.5139737,34.6828931 L34.0565189,39.1234876 L30.3028727,39.1234876 Z" id="Path"></path><path d="M3.9100481,15.7519377 L3.9100481,19.647196 L1.95502405,19.647196 C0.860210581,19.647196 0,18.7902392 0,17.6995669 C0,16.6478471 0.860210581,15.7519377 1.95502405,15.7519377 L3.9100481,15.7519377 Z" id="Path"></path><path d="M84.0660341,4.06616277 L9.77512024,4.06616277 C6.52978032,4.06616277 3.9100481,6.71493843 3.9100481,9.90905025 L3.9100481,15.7519377 L1.95502405,15.7519377 C0.860210581,15.7519377 0,16.6478471 0,17.6995669 L0,9.90905025 C0,4.57254636 4.37925387,0.170904459 9.77512024,0.170904459 L84.0660341,0.170904459 C89.4619004,0.170904459 93.8411543,4.57254636 93.8411543,9.90905025 L93.8411543,17.6995669 C93.8411543,16.6478471 92.9809437,15.7519377 91.8861302,15.7519377 L89.9311062,15.7519377 L89.9311062,9.90905025 C89.9311062,6.71493843 87.311374,4.06616277 84.0660341,4.06616277 Z" id="Path"></path><path d="M84.0660341,85.8665874 L9.77512024,85.8665874 C4.37925387,85.8665874 0,81.5038981 0,76.1284416 L0,17.6995669 C0,18.7902392 0.860210581,19.647196 1.95502405,19.647196 L3.9100481,19.647196 L3.9100481,76.1284416 C3.9100481,79.361506 6.52978032,81.9713291 9.77512024,81.9713291 L84.0660341,81.9713291 C87.311374,81.9713291 89.9311062,79.361506 89.9311062,76.1284416 L89.9311062,19.647196 L91.8861302,19.647196 C92.9809437,19.647196 93.8411543,18.7902392 93.8411543,17.6995669 L93.8411543,76.1284416 C93.8411543,81.5038981 89.4619004,85.8665874 84.0660341,85.8665874 Z" id="Path"></path></g></g></g></g></svg>