<svg xmlns="http://www.w3.org/2000/svg" xmlns:xlink="http://www.w3.org/1999/xlink" width="100px" height="90px" viewBox="0 0 100 90"><title>icon-fast-transactions</title><desc>Created with Sketch.</desc><g id="Page-1" stroke="none" stroke-width="1" fill="none" fill-rule="evenodd"><g id="TomoZ-5" transform="translate(-935.000000, -1582.000000)"><g id="icon-fast-transactions" transform="translate(935.000000, 1582.000000)"><circle id="Oval-Copy-6" fill="#00E8B5" cx="80" cy="23" r="20"></circle><g id="energy" fill="#242828" fill-rule="nonzero"><path d="M39.375,71.25 C39.15375,71.25 38.92875,71.2125 38.71125,71.13 C37.875,70.815 37.38,69.94875 37.52625,69.0675 L40.9125,48.75 L31.875,48.75 C31.17,48.75 30.52875,48.36 30.21,47.73375 C29.8875,47.1075 29.94375,46.3575 30.3525,45.78375 L49.1025,19.53375 C49.62,18.81375 50.565,18.555 51.37125,18.90375 C52.18125,19.25625 52.63875,20.12625 52.46625,20.9925 L49.1625,37.5 L58.125,37.5 C58.8075,37.5 59.43375,37.87125 59.7675,38.4675 C60.0975,39.06375 60.07875,39.79125 59.715,40.36875 L40.965,70.36875 C40.61625,70.93125 40.005,71.25 39.375,71.25 L39.375,71.25 Z M35.52,45 L43.125,45 C43.67625,45 44.20125,45.24 44.55375,45.66375 C44.91,46.08375 45.06375,46.63875 44.97375,47.1825 L42.7725,60.40125 L54.7425,41.25 L46.875,41.25 C46.3125,41.25 45.78,40.99875 45.42375,40.56375 C45.0675,40.12875 44.925,39.55875 45.03375,39.0075 L47.07,28.8225 L35.52,45 Z" id="Shape"></path><path d="M2.8875,56.25 C2.02875,56.25 1.25625,55.6575 1.06125,54.7875 C0.35625,51.6675 0,48.375 0,45 C0,20.18625 20.18625,0 45,0 C59.0775,0 72.075,6.41625 80.65125,17.61 C81.28125,18.43125 81.12375,19.60875 80.3025,20.23875 C79.48125,20.86875 78.30375,20.71125 77.67375,19.89 C69.81375,9.63375 57.90375,3.75 45,3.75 C22.25625,3.75 3.75,22.25625 3.75,45 C3.75,48.10125 4.07625,51.11625 4.7175,53.9625 C4.94625,54.975 4.3125,55.97625 3.3,56.205 C3.16125,56.235 3.0225,56.25 2.8875,56.25 Z" id="Path"></path><path d="M45,90 C30.9225,90 17.925,83.58375 9.34875,72.39 C8.71875,71.56875 8.87625,70.39125 9.6975,69.76125 C10.52625,69.135 11.7,69.28875 12.32625,70.11 C20.18625,80.36625 32.09625,86.25 45,86.25 C67.74375,86.25 86.25,67.74375 86.25,45 C86.25,41.8575 85.91625,38.84625 85.2525,36.06 C85.0125,35.05125 85.635,34.03875 86.64375,33.8025 C87.66,33.55875 88.665,34.185 88.90125,35.19375 C89.62875,38.265 90,41.565 90,45 C90,69.81375 69.81375,90 45,90 Z" id="Path"></path><path d="M9.5625,90 C8.535,90 7.69875,89.17125 7.6875,88.14375 L7.4999469,69.39375 C7.49625,68.895 7.69125,68.41125 8.04375,68.05875 C8.39625,67.69875 8.87625,67.5 9.375,67.5 L28.125,67.5 C29.16,67.5 30,68.34 30,69.375 C30,70.41 29.16,71.25 28.125,71.25 L11.26875,71.25 L11.4375,88.10625 C11.44875,89.14125 10.62,89.98875 9.58125,90 C9.5775,90 9.57,90 9.5625,90 L9.5625,90 Z" id="Path"></path><path d="M80.625,22.5 L61.875,22.5 C60.84,22.5 60,21.66 60,20.625 C60,19.59 60.84,18.75 61.875,18.75 L78.75,18.75 L78.75,1.875 C78.75,0.84 79.59,0 80.625,0 C81.66,0 82.5,0.84 82.5,1.875 L82.5,20.625 C82.5,21.66 81.66,22.5 80.625,22.5 Z" id="Path"></path></g></g></g></g></svg>