<svg xmlns="http://www.w3.org/2000/svg" xmlns:xlink="http://www.w3.org/1999/xlink" width="70px" height="74px" viewBox="0 0 70 74"><title>icon-coding</title><desc>Created with Sketch.</desc><g id="Page-1" stroke="none" stroke-width="1" fill="none" fill-rule="evenodd"><g id="TomoZ-5" transform="translate(-735.000000, -3665.000000)" fill="#00E8B5" fill-rule="nonzero"><g id="icon-coding" transform="translate(735.000000, 3665.000000)"><path d="M29.8657025,73.3553719 C27.5516529,73.3553719 25.5847107,71.7789256 25.0785124,69.5082645 L23.7768595,63.7231405 C23.7479339,63.5929752 23.661157,63.4917355 23.5309917,63.4338843 C21.4483471,62.5516529 19.4524793,61.3946281 17.5867769,59.9917355 C17.5144628,59.9338843 17.427686,59.9049587 17.3409091,59.9049587 C17.2975207,59.9049587 17.2541322,59.9049587 17.2107438,59.9194215 L11.5847107,61.6983471 C11.107438,61.8429752 10.6157025,61.9152893 10.1095041,61.9152893 C8.3161157,61.9152893 6.68181818,60.9752066 5.8285124,59.4566116 L0.723140496,50.6053719 C-0.404958678,48.5950413 -0.0289256198,46.0929752 1.64876033,44.5165289 L6.00206612,40.5103306 C6.10330579,40.4235537 6.14669421,40.2933884 6.1322314,40.1632231 C6.00206612,39.0061983 5.92975207,37.8491736 5.92975207,36.7210744 C5.92975207,35.5785124 6.00206612,34.4214876 6.1177686,33.2789256 C6.1322314,33.1487603 6.08884298,33.018595 5.98760331,32.9318182 L1.64876033,28.9400826 C-0.0289256198,27.3636364 -0.419421488,24.8615702 0.694214876,22.8657025 L5.84297521,13.9710744 C6.7107438,12.481405 8.34504132,11.5413223 10.1239669,11.5413223 C10.6301653,11.5413223 11.1219008,11.6136364 11.5991736,11.7727273 L17.2252066,13.5516529 C17.268595,13.5661157 17.3119835,13.5661157 17.3553719,13.5661157 C17.4421488,13.5661157 17.5289256,13.5371901 17.6012397,13.4793388 C19.4669421,12.0764463 21.4628099,10.9194215 23.5454545,10.0371901 C23.661157,9.97933884 23.7623967,9.87809917 23.7913223,9.74793388 L25.0929752,3.96280992 C25.5991736,1.70661157 27.5661157,0.130165289 29.8801653,0.130165289 L40.1487603,0.130165289 C42.4628099,0.130165289 44.4297521,1.70661157 44.9359504,3.97727273 L46.2376033,9.76239669 C46.2665289,9.89256198 46.3533058,9.99380165 46.4834711,10.0516529 C48.5661157,10.9338843 50.5619835,12.0909091 52.427686,13.4938017 C52.5,13.5516529 52.5867769,13.5805785 52.6735537,13.5805785 C52.7169421,13.5805785 52.7603306,13.5805785 52.803719,13.5661157 L58.4297521,11.7871901 C58.9070248,11.642562 59.4132231,11.5557851 59.9049587,11.5557851 C61.6838843,11.5557851 63.3326446,12.4958678 64.1859504,14.0289256 L69.3057851,22.8801653 C70.4338843,24.8904959 70.0578512,27.392562 68.3801653,28.9690083 L64.0268595,32.9752066 C63.9256198,33.0619835 63.8822314,33.1921488 63.8966942,33.322314 C64.0268595,34.464876 64.0847107,35.6219008 64.0847107,36.7644628 C64.0847107,37.9070248 64.0123967,39.0640496 63.8966942,40.2066116 C63.8822314,40.3367769 63.9256198,40.4669421 64.0268595,40.553719 L68.3657025,44.5309917 C68.3657025,44.5309917 68.3801653,44.5454545 68.3801653,44.5454545 C70.0433884,46.107438 70.4338843,48.6095041 69.3057851,50.6053719 L64.1570248,59.5 C63.303719,61.018595 61.6694215,61.9442149 59.8904959,61.9442149 C59.3842975,61.9442149 58.892562,61.8719008 58.4152893,61.7128099 L52.7892562,59.9338843 C52.7458678,59.9194215 52.7024793,59.9194215 52.6590909,59.9194215 C52.572314,59.9194215 52.4855372,59.9483471 52.4132231,60.0061983 C50.5475207,61.4090909 48.5516529,62.5661157 46.4690083,63.4483471 C46.3533058,63.5061983 46.2520661,63.607438 46.2231405,63.7376033 L44.9214876,69.5227273 C44.4152893,71.7789256 42.4483471,73.3698347 40.1342975,73.3698347 L29.8657025,73.3698347 L29.8657025,73.3553719 Z M17.8326446,55.8409091 C18.2665289,55.8409091 18.7004132,56 19.0475207,56.2747934 C21.1880165,58.0392562 23.5454545,59.4132231 26.0330579,60.3243802 C26.6404959,60.5557851 27.088843,61.0619835 27.2334711,61.6983471 L28.8099174,68.6694215 C28.9256198,69.1756198 29.3739669,69.5371901 29.8801653,69.5371901 L40.1487603,69.5371901 C40.6549587,69.5371901 41.1033058,69.1756198 41.2190083,68.6694215 L42.7954545,61.6983471 C42.9400826,61.0619835 43.3884298,60.5557851 43.9958678,60.3243802 C46.4834711,59.3987603 48.8409091,58.0392562 50.9958678,56.2603306 C51.3429752,55.9710744 51.7623967,55.8264463 52.2107438,55.8264463 C52.3987603,55.8264463 52.6012397,55.8553719 52.7892562,55.9132231 L59.5867769,58.053719 C59.7024793,58.0971074 59.8181818,58.1115702 59.9483471,58.1115702 C60.3533058,58.1115702 60.714876,57.9090909 60.8884298,57.5764463 L66.0371901,48.6818182 C66.2830579,48.2334711 66.196281,47.6549587 65.8202479,47.2933884 L60.5557851,42.5206612 C60.0929752,42.0867769 59.8615702,41.464876 59.9628099,40.8429752 C60.1652893,39.4545455 60.2809917,38.0805785 60.2809917,36.75 C60.2809917,35.4049587 60.1797521,34.0165289 59.9628099,32.6570248 C59.8760331,32.035124 60.0929752,31.3987603 60.5557851,30.964876 L65.7768595,26.1632231 C66.1528926,25.8016529 66.2396694,25.2086777 65.9793388,24.7458678 L60.8595041,15.8946281 C60.6714876,15.5475207 60.3099174,15.3450413 59.9049587,15.3450413 C59.7892562,15.3450413 59.6735537,15.3595041 59.5578512,15.4028926 L52.7603306,17.5433884 C52.572314,17.6012397 52.3842975,17.6301653 52.1818182,17.6301653 C51.7479339,17.6301653 51.3140496,17.4710744 50.9669421,17.196281 C48.8119835,15.4173554 46.4690083,14.0578512 43.9669421,13.1322314 C43.3595041,12.9008264 42.911157,12.3946281 42.7665289,11.7582645 C42.7665289,11.7582645 41.1900826,4.77272727 41.1900826,4.77272727 C41.0599174,4.26652893 40.6115702,3.91942149 40.1053719,3.91942149 L29.8367769,3.91942149 C29.3305785,3.91942149 28.8822314,4.28099174 28.7665289,4.78719008 L27.1900826,11.7727273 C27.0454545,12.4090909 26.5971074,12.9152893 25.9896694,13.1466942 C23.5020661,14.072314 21.1446281,15.4318182 19.0041322,17.2107438 C18.6570248,17.4855372 18.2376033,17.6446281 17.7892562,17.6446281 C17.6012397,17.6446281 17.3987603,17.6157025 17.2107438,17.5578512 L10.427686,15.4173554 C10.3119835,15.3739669 10.196281,15.3595041 10.0661157,15.3595041 C9.66115702,15.3595041 9.29958678,15.5619835 9.12603306,15.8946281 L3.97727273,24.7892562 C3.73140496,25.2376033 3.81818182,25.8161157 4.20867769,26.1921488 L9.41528926,30.9793388 C9.87809917,31.4132231 10.1095041,32.035124 10.0082645,32.6570248 C9.80578512,34.0454545 9.69008264,35.4194215 9.69008264,36.75 C9.69008264,38.0950413 9.79132231,39.4834711 10.0082645,40.8429752 C10.0950413,41.464876 9.87809917,42.1012397 9.41528926,42.535124 L4.19421488,47.3367769 C3.81818182,47.6983471 3.73140496,48.2913223 3.99173554,48.7541322 L9.11157025,57.6053719 C9.31404959,57.9524793 9.66115702,58.1549587 10.0661157,58.1549587 L10.0661157,58.1549587 C10.196281,58.1549587 10.3119835,58.1404959 10.427686,58.0971074 L17.2107438,55.9566116 C17.4421488,55.8698347 17.6301653,55.8409091 17.8326446,55.8409091 Z" id="Shape"></path><path d="M32.6859504,48.6673554 C32.5413223,48.6673554 32.3966942,48.6528926 32.2520661,48.6239669 C31.2252066,48.392562 30.588843,47.3657025 30.8202479,46.338843 L35.4483471,26.2789256 C35.6508264,25.4256198 36.4318182,24.803719 37.3140496,24.803719 C37.4586777,24.803719 37.6033058,24.8181818 37.7334711,24.8471074 C38.2252066,24.9628099 38.6446281,25.2665289 38.9194215,25.6859504 C39.1942149,26.1198347 39.2809917,26.6260331 39.1652893,27.1177686 L34.5371901,47.177686 C34.3347107,48.0599174 33.5826446,48.6673554 32.6859504,48.6673554 Z" id="Path"></path><path d="M45.0227273,45.5867769 C44.4731405,45.5867769 43.9669421,45.3698347 43.6053719,44.9504132 C42.911157,44.1694215 42.9690083,42.9690083 43.75,42.2603306 L49.5495868,37.0392562 C49.6363636,36.9669421 49.6797521,36.8512397 49.6797521,36.7355372 C49.6797521,36.6198347 49.6363636,36.5041322 49.5495868,36.4318182 L43.75,31.2107438 C42.9690083,30.5020661 42.911157,29.3016529 43.6053719,28.5206612 C43.9669421,28.1157025 44.4876033,27.8987603 45.0227273,27.8987603 C45.5,27.8987603 45.9483471,28.072314 46.2954545,28.3904959 L54.0041322,35.3326446 C54.4090909,35.6942149 54.6404959,36.214876 54.6404959,36.75 C54.6404959,37.285124 54.4090909,37.8057851 54.0041322,38.1673554 L46.2954545,45.1095041 C45.9483471,45.4132231 45.5,45.5867769 45.0227273,45.5867769 Z" id="Path"></path><path d="M24.9772727,45.5867769 C24.5,45.5867769 24.0516529,45.4132231 23.7045455,45.0950413 L15.9958678,38.1528926 C15.5909091,37.7913223 15.3595041,37.2706612 15.3595041,36.7355372 C15.3595041,36.2004132 15.5909091,35.6797521 15.9958678,35.3181818 L23.7045455,28.3760331 C24.0516529,28.0578512 24.5,27.8842975 24.9772727,27.8842975 C25.5123967,27.8842975 26.0330579,28.1157025 26.3946281,28.5206612 C27.088843,29.3016529 27.0309917,30.5020661 26.25,31.2107438 L20.4504132,36.4318182 C20.3636364,36.5041322 20.3202479,36.6198347 20.3202479,36.7355372 C20.3202479,36.8512397 20.3636364,36.9669421 20.4504132,37.0392562 L26.25,42.2603306 C27.0309917,42.9690083 27.088843,44.1694215 26.3946281,44.9504132 C26.018595,45.3553719 25.5123967,45.5867769 24.9772727,45.5867769 Z" id="Path"></path></g></g></g></svg>