<svg xmlns="http://www.w3.org/2000/svg" xmlns:xlink="http://www.w3.org/1999/xlink" width="70px" height="85px" viewBox="0 0 70 85"><title>icon-donate-trc21</title><desc>Created with Sketch.</desc><g id="Page-1" stroke="none" stroke-width="1" fill="none" fill-rule="evenodd"><g id="TomoZ-5" transform="translate(-735.000000, -3855.000000)" fill="#00E8B5" fill-rule="nonzero"><g id="icon-donate-trc21" transform="translate(735.000000, 3855.000000)"><path d="M61.5146686,21.3043407 L40.393979,10.7439958 C39.9575397,10.5256937 39.4506432,10.5011079 38.9894531,10.6700734 L13.1306338,20.3679351 C11.2754782,21.0649178 9.69142645,22.3849609 8.67416824,24.0817113 L1.36640962,36.261254 C-0.189426185,38.8556338 -0.31268521,42.0201071 1.04250404,44.7235554 L8.11446996,58.8673222 C8.25884968,59.1559166 8.47005657,59.3882442 8.71987473,59.5502795 C8.62829674,61.2927364 9.10351226,63.0175377 10.0961847,64.5065463 C11.6696761,66.8755287 14.2640558,68.1638908 16.9181674,68.1638908 C18.3543743,68.1638908 19.8117019,67.7837183 21.1388402,66.9882274 L33.2339002,59.7332705 C35.127667,59.2720804 44.5369343,56.4560985 51.665167,44.9242019 C59.166477,32.7938308 62.2642881,23.8246329 62.3944774,23.4479256 C62.6797717,22.6138234 62.3032294,21.6985385 61.5146686,21.3043407 Z M48.6661941,43.0797717 C41.7245824,54.3088834 32.3116851,56.3400997 32.2202721,56.3575902 C32.0230907,56.3998316 31.8295393,56.473754 31.6571087,56.5758924 L19.3226259,63.975229 C17.1788759,65.2670562 14.4086005,64.6439958 13.014635,62.5530475 C12.310557,61.493548 12.067669,60.2263066 12.3282126,58.983651 C12.5922212,57.7446255 13.3243501,56.6849609 14.394575,56.0056338 C23.8531789,49.9827721 25.5603246,49.3209355 25.5251785,49.2821592 C26.4967302,49.2821592 27.2781957,48.5780812 27.2816608,47.6065295 C27.4611867,46.5047885 30.6680664,41.3513402 33.811419,38.2078226 C34.3148505,37.7043912 34.4661604,36.9476765 34.1915915,36.289305 C33.9204876,35.6310985 33.2763066,35.2015894 32.5652984,35.2015894 C27.0915746,35.2015894 23.1489359,32.1003132 23.1103246,32.0686321 C22.754738,31.7869679 22.3217639,31.6074421 21.8887897,31.6074421 C21.6741177,31.6074421 21.4629108,31.6531486 21.2622643,31.7518218 C20.6497643,32.0440463 20.2766871,32.5509429 20.2766871,33.226805 C19.6570919,34.7369343 12.8984712,38.556314 11.4447737,38.7216494 C10.719575,38.7216494 10.075394,39.1651839 9.81138537,39.8410459 C9.54737675,40.516908 9.7234375,41.2843481 10.2549199,41.7770541 C10.2831358,41.80164 13.2083513,44.5473296 13.2083513,47.5218817 C13.2083513,48.4934335 13.9581358,49.2783641 14.9296875,49.2783641 C15.2288423,49.3522865 15.7674199,49.9402007 16.2568258,50.6723296 C15.1514547,51.358752 13.9089642,52.1436827 12.5079034,53.0343817 C11.5962487,53.6152007 10.8217134,54.3509597 10.2163086,55.2063477 L4.18981681,43.149899 C3.37667026,41.527071 3.44712756,39.629839 4.38336813,38.0738382 L11.6911268,25.8942955 C12.3036268,24.8734072 13.2540578,24.0850114 14.3663591,23.6660628 L39.4999798,14.2427701 L58.5191608,23.7505455 C57.3573579,26.7252627 54.2491514,34.0506769 48.6661941,43.0797717 Z M16.6120824,46.1808829 C16.2952721,44.2589002 15.3588665,42.5621498 14.4717975,41.3196592 C17.1646855,40.1651165 20.7657631,38.0741682 22.5927027,35.9444437 C23.9972286,36.7681506 26.2078058,37.8276502 28.971151,38.3698579 C26.9153489,40.914901 24.8174704,44.0618838 24.0605907,46.1633924 C23.1946424,46.55066 21.7655307,47.3179351 19.262729,48.8245993 C18.650229,47.867073 17.7489696,46.7687971 16.6120824,46.1808829 Z" id="Shape"></path><path d="M14.9646686,65.1226765 C13.9931169,65.1226765 13.2045562,65.9112372 13.2045562,66.8827889 L13.2045562,75.6830213 C13.2045562,76.654573 13.9931169,77.4431338 14.9646686,77.4431338 C15.9362204,77.4431338 16.7247811,76.654573 16.7247811,75.6830213 L16.7247811,66.8827889 C16.7246161,65.9112372 15.9362204,65.1226765 14.9646686,65.1226765 Z" id="Path"></path><path d="M68.4562803,10.7017544 L43.8155307,0.141409617 C43.0939621,-0.168305496 42.2455044,0.0429014009 41.7491682,0.658866514 L34.7088834,9.45909887 C34.3744174,9.87441743 34.2476933,10.4166251 34.3638571,10.9375471 C34.4800209,11.4584692 34.821417,11.8985385 35.2966325,12.1343312 L61.8841157,25.4263402 C62.6304351,25.7994174 63.4224609,25.9895036 64.2425377,25.9895036 C65.597727,25.9895036 66.9388908,25.4474609 67.9175377,24.500495 C68.9559166,23.5007274 69.5261754,22.1560985 69.5261754,20.7058661 L69.5261754,12.3209523 C69.5261754,11.6168743 69.1075566,10.9797885 68.4562803,10.7017544 Z M66.0064453,20.7058661 C66.0064453,21.3254613 65.7176859,21.7336847 65.4782631,21.9660123 C64.9467807,22.4729088 64.1370993,22.6207536 63.4612372,22.2793575 L38.8204876,9.95890019 L43.6642208,3.90435749 L66.0064453,13.4791251 L66.0064453,20.7058661 L66.0064453,20.7058661 Z" id="Shape"></path><path d="M23.2474441,63.087995 C22.6700902,62.5599778 21.8183324,62.4720299 21.1564958,62.8767881 L19.3260911,63.9715989 C17.2386079,65.2211847 14.362729,64.5664433 13.0181001,62.5459523 C12.8420393,62.2819437 12.7012897,62.0073747 12.5851259,61.7257105 C12.2155139,60.8315463 11.1876953,60.4056674 10.290066,60.7718144 C5.64697939,62.6797717 2.64437635,67.1537278 2.64437635,72.1629613 C2.64437635,78.9567282 8.1709018,84.4834186 14.9648336,84.4834186 C21.7587655,84.4834186 27.2852909,78.9568932 27.2887561,72.1629613 C27.2887561,68.7377795 25.8136079,65.4323916 23.2474441,63.087995 Z M14.9646686,80.9597286 C10.1140053,80.9597286 6.16443629,77.0101596 6.16443629,72.1594962 C6.16443629,69.1040915 7.72736732,66.3301859 10.2512897,64.7355738 C12.6450229,68.079738 17.5767039,69.1252121 21.1355401,66.9883924 L21.7586005,66.6153152 C23.060988,68.1853415 23.765066,70.1107893 23.765066,72.1594962 C23.765066,77.0101596 19.815332,80.9597286 14.9646686,80.9597286 Z" id="Shape"></path></g></g></g></svg>