<svg xmlns="http://www.w3.org/2000/svg" xmlns:xlink="http://www.w3.org/1999/xlink" width="62px" height="80px" viewBox="0 0 62 80"><title>icon-uf-interface</title><desc>Created with Sketch.</desc><g id="Page-1" stroke="none" stroke-width="1" fill="none" fill-rule="evenodd"><g id="TomoZ-5" transform="translate(-136.000000, -3659.000000)" fill="#00E8B5"><g id="icon-uf-interface" transform="translate(136.000000, 3659.000000)"><text id="TRC-21" stroke="#00E8B5" stroke-width="2" font-family="Helvetica" font-size="18" font-weight="normal"><tspan x="14" y="34">TR</tspan><tspan x="19.4975586" y="51">C</tspan><tspan x="15.9863281" y="68">21</tspan></text><g id="money-(14)" fill-rule="nonzero"><path d="M6.96470588,79.9372549 C4.23529412,79.9372549 1.83529412,78.3843137 0.705882353,75.8745098 C-0.423529412,73.3647059 0.0156862745,70.5411765 1.85098039,68.5019608 C1.92941176,68.4235294 1.92941176,68.2823529 1.85098039,68.2039216 C0.031372549,66.1647059 -0.407843137,63.3411765 0.705882353,60.8313725 C1.81960784,58.3215686 4.21960784,56.7686275 6.96470588,56.7686275 L14.2431373,56.7686275 C14.3372549,56.7686275 14.4313725,56.7058824 14.4627451,56.6117647 C14.4941176,56.5176471 14.4470588,56.4078431 14.3686275,56.3607843 C10.0862745,53.6627451 6.50980392,49.8980392 4.03137255,45.5058824 C1.4745098,40.972549 0.109803922,35.7960784 0.109803922,30.572549 C0.109803922,13.7411765 13.772549,0.062745098 30.5882353,0.062745098 C47.4039216,0.062745098 61.0666667,13.7411765 61.0666667,30.5411765 C61.0666667,35.7803922 59.7176471,40.9411765 57.145098,45.4745098 C54.6666667,49.8823529 51.0901961,53.6313725 46.8078431,56.3294118 C46.7294118,56.3764706 46.6823529,56.4862745 46.7137255,56.5803922 C46.745098,56.6745098 46.8235294,56.7372549 46.9333333,56.7372549 L54.2117647,56.7372549 C56.9568627,56.7372549 59.3411765,58.2901961 60.4705882,60.8 C61.6,63.3098039 61.1607843,66.1333333 59.3254902,68.172549 C59.2470588,68.2509804 59.2470588,68.3921569 59.3254902,68.4705882 C61.145098,70.5098039 61.5843137,73.3333333 60.4705882,75.8431373 C59.3568627,78.3529412 56.9568627,79.9058824 54.2117647,79.9058824 L6.96470588,79.9058824 L6.96470588,79.9372549 Z M6.96470588,70.4784314 C5.5372549,70.4784314 4.37647059,71.6392157 4.37647059,73.0666667 C4.37647059,74.4941176 5.5372549,75.654902 6.96470588,75.654902 L54.2117647,75.654902 C55.6392157,75.654902 56.8,74.4941176 56.8,73.0666667 C56.8,71.6392157 55.6392157,70.4784314 54.2117647,70.4784314 L6.96470588,70.4784314 Z M6.96470588,61.0352941 C5.5372549,61.0352941 4.37647059,62.1960784 4.37647059,63.6235294 C4.37647059,65.0509804 5.5372549,66.2117647 6.96470588,66.2117647 L54.2117647,66.2117647 C55.6392157,66.2117647 56.8,65.0509804 56.8,63.6235294 C56.8,62.1960784 55.6392157,61.0352941 54.2117647,61.0352941 L6.96470588,61.0352941 Z M30.5882353,4.34509804 C16.1411765,4.34509804 4.37647059,16.0941176 4.37647059,30.5568627 C4.37647059,45.0196078 16.1411765,56.7529412 30.5882353,56.7529412 C45.0352941,56.7529412 56.8,45.0039216 56.8,30.5411765 C56.8,16.0784314 45.0352941,4.34509804 30.5882353,4.34509804 Z" id="Shape"></path></g></g></g></g></svg>