<?xml version="1.0" encoding="UTF-8"?>
<svg width="137px" height="120px" viewBox="0 0 137 120" version="1.1" xmlns="http://www.w3.org/2000/svg" xmlns:xlink="http://www.w3.org/1999/xlink">
    <!-- Generator: Sketch 57.1 (83088) - https://sketch.com -->
    <title>privacy-technology-icon-2</title>
    <desc>Created with Sketch.</desc>
    <defs>
        <polygon id="path-1" points="2.72727273e-05 0.0927545455 136.543636 0.0927545455 136.543636 119.727273 2.72727273e-05 119.727273"></polygon>
    </defs>
    <g id="Page-1" stroke="none" stroke-width="1" fill="none" fill-rule="evenodd">
        <g id="Home-2-Copy-7" transform="translate(-614.000000, -4440.000000)">
            <g id="privacy-technology-icon-2" transform="translate(613.000000, 4440.000000)">
                <rect id="Rectangle" fill="#E6E5E6" x="29" y="45.1354402" width="80" height="26"></rect>
                <g id="Group-16">
                    <g id="Group-3" transform="translate(1.000000, 0.180000)">
                        <mask id="mask-2" fill="white">
                            <use xlink:href="#path-1"></use>
                        </mask>
                        <g id="Clip-2"></g>
                        <path d="M105.681845,68.4354818 C105.520936,69.1418455 104.899118,69.6382091 104.173664,69.6382091 L88.7263909,69.6382091 C87.8754818,69.6382091 87.1800273,68.9424818 87.1800273,68.0918455 L87.1800273,39.4554818 C87.1800273,38.4218455 86.5636636,37.5000273 85.6091182,37.1045727 C85.2982091,36.9761182 84.9736636,36.9109364 84.6382091,36.9109364 C83.9563909,36.9109364 83.3182091,37.1754818 82.8382091,37.6554818 L69.3654818,51.1254818 C69.0736636,51.4173 68.6863909,51.5779364 68.2718455,51.5779364 C67.8600273,51.5779364 67.4700273,51.4173 67.1782091,51.1254818 L53.7082091,37.6554818 C53.2282091,37.1754818 52.5873,36.9109364 51.9082091,36.9109364 C51.5727545,36.9109364 51.2454818,36.9736636 50.9345727,37.1045727 C49.9800273,37.5000273 49.3636636,38.4218455 49.3636636,39.4554818 L49.3636636,68.0918455 C49.3636636,68.9424818 48.6709364,69.6382091 47.8173,69.6382091 L32.3727545,69.6382091 C31.6445727,69.6382091 31.0254818,69.1418455 30.8645727,68.4354818 C30.2291182,65.6509364 29.9073,62.7818455 29.9073,59.9100273 C29.9073,38.7545727 47.1191182,21.5454818 68.2718455,21.5454818 C89.4273,21.5454818 106.636391,38.7545727 106.636391,59.9100273 C106.636391,62.7818455 106.314573,65.6509364 105.681845,68.4354818 M102.632755,76.9609364 C99.4936636,83.2554818 94.6882091,88.5763909 88.7345727,92.3482091 C82.6118455,96.2236636 75.5345727,98.2745727 68.2718455,98.2745727 C61.0091182,98.2745727 53.9345727,96.2261182 47.8118455,92.3482091 C41.8554818,88.5788455 37.0500273,83.2582091 33.9136636,76.9636636 C33.6736636,76.4809364 33.6982091,75.9188455 33.9818455,75.4582091 C34.2654818,75.0000273 34.7563909,74.7273 35.2963909,74.7273 L51.9082091,74.7273 C53.3127545,74.7273 54.4527545,73.5845727 54.4527545,72.1827545 L54.4527545,49.3309364 C54.4527545,48.7033909 54.8291182,48.1445727 55.4073,47.9045727 C55.5954818,47.8254818 55.7945727,47.7845727 55.9991182,47.7845727 C56.4136636,47.7845727 56.8009364,47.9454818 57.0927545,48.2370273 L66.4745727,57.6191182 C66.9545727,58.0991182 67.5927545,58.3636636 68.2718455,58.3636636 C68.9509364,58.3636636 69.5918455,58.0991182 70.0718455,57.6163909 L79.4509364,48.2370273 C79.7427545,47.9454818 80.1327545,47.7845727 80.5445727,47.7845727 C80.7491182,47.7845727 80.9482091,47.8254818 81.1363909,47.9018455 C81.7173,48.1445727 82.0909364,48.7033909 82.0909364,49.3309364 L82.0909364,72.1827545 C82.0909364,73.5845727 83.2336636,74.7245727 84.6354818,74.7245727 L101.2473,74.7245727 C101.7873,74.7245727 102.278209,74.9973 102.561845,75.4554818 C102.845482,75.9136636 102.872755,76.4752091 102.632755,76.9609364 M131.454573,109.000936 C131.454573,112.110027 128.926391,114.638209 125.8173,114.638209 C122.710936,114.638209 120.180027,112.110027 120.180027,109.000936 C120.180027,105.891845 122.710936,103.363664 125.8173,103.363664 C128.926391,103.363664 131.454573,105.891845 131.454573,109.000936 M16.3636636,109.000936 C16.3636636,112.110027 13.8354818,114.638209 10.7263909,114.638209 C7.62002727,114.638209 5.08911818,112.110027 5.08911818,109.000936 C5.08911818,105.891845 7.62002727,103.363664 10.7263909,103.363664 C13.8354818,103.363664 16.3636636,105.891845 16.3636636,109.000936 M5.08911818,10.8191182 C5.08911818,7.71002727 7.62002727,5.18184545 10.7263909,5.18184545 C13.8354818,5.18184545 16.3636636,7.71002727 16.3636636,10.8191182 C16.3636636,13.9254818 13.8354818,16.4563909 10.7263909,16.4563909 C7.62002727,16.4563909 5.08911818,13.9254818 5.08911818,10.8191182 M120.180027,10.8191182 C120.180027,7.71002727 122.710936,5.18184545 125.8173,5.18184545 C128.926391,5.18184545 131.454573,7.71002727 131.454573,10.8191182 C131.454573,13.9254818 128.926391,16.4563909 125.8173,16.4563909 C122.710936,16.4563909 120.180027,13.9254818 120.180027,10.8191182 M111.545482,63.8615727 C111.619118,63.0600273 112.279118,62.4545727 113.086391,62.4545727 L133.999118,62.4545727 C135.403664,62.4545727 136.543664,61.3118455 136.543664,59.9100273 C136.543664,58.5054818 135.403664,57.3654818 133.999118,57.3654818 L113.086391,57.3654818 C112.279118,57.3654818 111.619118,56.7597545 111.545482,55.9582091 C111.043664,50.4163909 109.505482,45.1006636 106.974573,40.1591182 C106.729118,39.6845727 106.750936,39.1036636 107.029118,38.6482091 C107.310027,38.1927545 107.814573,37.9091182 108.349118,37.9091182 L125.8173,37.9091182 C127.221845,37.9091182 128.361845,36.7663909 128.361845,35.3645727 L128.361845,22.3882091 C128.361845,21.7336636 128.776391,21.1500273 129.392755,20.9318455 C133.669118,19.4127545 136.543664,15.3491182 136.543664,10.8191182 C136.543664,4.90366364 131.732755,0.0927545455 125.8173,0.0927545455 C119.904573,0.0927545455 115.090936,4.90366364 115.090936,10.8191182 C115.090936,15.3491182 117.965482,19.4127545 122.244573,20.9318455 C122.860936,21.1500273 123.272755,21.7336636 123.272755,22.3882091 L123.272755,31.2736636 C123.272755,32.1245727 122.580027,32.8200273 121.726391,32.8200273 L102.960027,32.8200273 C102.496391,32.8200273 102.062755,32.6154818 101.768209,32.2582091 C97.9445727,27.6352091 93.3054818,23.9100273 87.9845727,21.1909364 C87.4036636,20.8936636 87.0682091,20.2582091 87.1554818,19.6118455 C87.1718455,19.4754818 87.1800273,19.3691182 87.1800273,19.2736636 L87.1800273,2.6373 C87.1800273,1.23275455 86.0400273,0.0927545455 84.6354818,0.0927545455 C83.2336636,0.0927545455 82.0909364,1.23275455 82.0909364,2.6373 L82.0909364,16.6118455 C82.0909364,17.0918455 81.8618455,17.5527545 81.4773,17.8445727 C81.2100273,18.0463909 80.8800273,18.1554818 80.5445727,18.1554818 C80.4027545,18.1554818 80.2609364,18.1363909 80.1218455,18.0982091 C76.2845727,17.0073 72.2973,16.4563909 68.2718455,16.4563909 C64.2491182,16.4563909 60.2618455,17.0073 56.4218455,18.0982091 C56.2854818,18.1363909 56.1436636,18.1554818 55.9991182,18.1554818 C55.6663909,18.1554818 55.3336636,18.0463909 55.0663909,17.8445727 C54.6818455,17.5527545 54.4527545,17.0918455 54.4527545,16.6118455 L54.4527545,2.6373 C54.4527545,1.23275455 53.3127545,0.0927545455 51.9082091,0.0927545455 C50.5063909,0.0927545455 49.3636636,1.23275455 49.3636636,2.6373 L49.3636636,19.2736636 C49.3636636,19.3691182 49.3718455,19.4754818 49.3909364,19.6118455 C49.4754818,20.2582091 49.1427545,20.8936636 48.5618455,21.1909364 C43.2382091,23.9100273 38.6018455,27.6352091 34.7754818,32.2582091 C34.4809364,32.6154818 34.0473,32.8200273 33.5863909,32.8200273 L14.8173,32.8200273 C13.9663909,32.8200273 13.2709364,32.1245727 13.2709364,31.2736636 L13.2709364,22.3882091 C13.2709364,21.7336636 13.6854818,21.1500273 14.3018455,20.9318455 C18.5782091,19.4127545 21.4527545,15.3491182 21.4527545,10.8191182 C21.4527545,4.90366364 16.6418455,0.0927545455 10.7263909,0.0927545455 C4.81366364,0.0927545455 2.72727273e-05,4.90366364 2.72727273e-05,10.8191182 C2.72727273e-05,15.3491182 2.87457273,19.4127545 7.15366364,20.9318455 C7.77002727,21.1500273 8.18184545,21.7336636 8.18184545,22.3882091 L8.18184545,35.3645727 C8.18184545,36.7663909 9.32457273,37.9063909 10.7263909,37.9063909 L28.1945727,37.9063909 C28.7291182,37.9063909 29.2363909,38.1900273 29.5145727,38.6454818 C29.7927545,39.1006636 29.8145727,39.6818455 29.5718455,40.1563909 C27.0409364,45.0982091 25.5027545,50.4136636 25.0009364,55.9582091 C24.9273,56.7597545 24.2645727,57.3654818 23.4600273,57.3654818 L2.54457273,57.3654818 C1.14275455,57.3654818 2.72727273e-05,58.5054818 2.72727273e-05,59.9100273 C2.72727273e-05,61.3118455 1.14275455,62.4545727 2.54457273,62.4545727 L23.4600273,62.4545727 C24.2645727,62.4545727 24.9273,63.0600273 25.0009364,63.8615727 C25.5027545,69.4036636 27.0409364,74.7191182 29.5718455,79.6579364 C29.8145727,80.1352091 29.7927545,80.7136636 29.5145727,81.1718455 C29.2363909,81.6273 28.7291182,81.9109364 28.1945727,81.9109364 L10.7263909,81.9109364 C9.32457273,81.9109364 8.18184545,83.0509364 8.18184545,84.4554818 L8.18184545,97.4318455 C8.18184545,98.0836636 7.77002727,98.6697545 7.15366364,98.8882091 C2.87457273,100.407027 2.72727273e-05,104.470936 2.72727273e-05,109.000936 C2.72727273e-05,114.916391 4.81366364,119.7273 10.7263909,119.7273 C16.6418455,119.7273 21.4527545,114.916391 21.4527545,109.000936 C21.4527545,104.470936 18.5782091,100.407027 14.3018455,98.8882091 C13.6854818,98.6697545 13.2709364,98.0836636 13.2709364,97.4318455 L13.2709364,88.5463909 C13.2709364,87.6924818 13.9663909,87.0000273 14.8173,87.0000273 L33.5863909,87.0000273 C34.0473,87.0000273 34.4809364,87.2045727 34.7754818,87.5618455 C38.5909364,92.1736636 43.2163909,95.8909364 48.5236636,98.6100273 C49.0418455,98.8773 49.3663909,99.4036636 49.3663909,99.9870273 L49.3636636,100.033391 L49.3636636,117.182755 C49.3636636,118.584573 50.5063909,119.7273 51.9082091,119.7273 C53.3127545,119.7273 54.4527545,118.584573 54.4527545,117.182755 L54.4527545,103.208209 C54.4527545,102.725209 54.6818455,102.264573 55.0663909,101.975209 C55.3336636,101.773664 55.6663909,101.661845 55.9991182,101.661845 C56.1436636,101.661845 56.2854818,101.680664 56.4218455,101.721845 C60.2618455,102.810027 64.2491182,103.363664 68.2718455,103.363664 C72.2973,103.363664 76.2845727,102.810027 80.1218455,101.721845 C80.2582091,101.680664 80.4027545,101.661845 80.5445727,101.661845 C80.8800273,101.661845 81.2100273,101.773664 81.4773,101.975209 C81.8618455,102.264573 82.0909364,102.725209 82.0909364,103.208209 L82.0909364,117.182755 C82.0909364,118.584573 83.2336636,119.7273 84.6354818,119.7273 C86.0400273,119.7273 87.1800273,118.584573 87.1800273,117.182755 L87.1800273,99.9870273 C87.1800273,99.4036636 87.5018455,98.8773 88.0227545,98.6100273 C93.3273,95.8909364 97.9527545,92.1736636 101.768209,87.5618455 C102.062755,87.2045727 102.496391,87.0000273 102.960027,87.0000273 L121.726391,87.0000273 C122.580027,87.0000273 123.272755,87.6924818 123.272755,88.5463909 L123.272755,97.4318455 C123.272755,98.0836636 122.860936,98.6697545 122.244573,98.8882091 C117.965482,100.407027 115.090936,104.470936 115.090936,109.000936 C115.090936,114.916391 119.904573,119.7273 125.8173,119.7273 C131.732755,119.7273 136.543664,114.916391 136.543664,109.000936 C136.543664,104.470936 133.669118,100.407027 129.392755,98.8882091 C128.776391,98.6697545 128.361845,98.0836636 128.361845,97.4318455 L128.361845,84.4554818 C128.361845,83.0509364 127.221845,81.9109364 125.8173,81.9109364 L108.349118,81.9109364 C107.814573,81.9109364 107.310027,81.6273 107.029118,81.1718455 C106.750936,80.7136636 106.729118,80.1352091 106.974573,79.6579364 C109.505482,74.7191182 111.043664,69.4036636 111.545482,63.8615727" id="Fill-1" fill="#151515" mask="url(#mask-2)"></path>
                    </g>
                    <path d="M132.454573,109.181018 C132.454573,112.289836 129.926391,114.818291 126.8173,114.818291 C123.710936,114.818291 121.180027,112.289836 121.180027,109.181018 C121.180027,106.071927 123.710936,103.543745 126.8173,103.543745 C129.926391,103.543745 132.454573,106.071927 132.454573,109.181018" id="Fill-4" fill="#00E8B4"></path>
                    <path d="M132.454573,10.9992 C132.454573,14.1055636 129.926391,16.6364727 126.8173,16.6364727 C123.710936,16.6364727 121.180027,14.1055636 121.180027,10.9992 C121.180027,7.89010909 123.710936,5.36192727 126.8173,5.36192727 C129.926391,5.36192727 132.454573,7.89010909 132.454573,10.9992" id="Fill-6" fill="#00E8B4"></path>
                    <path d="M103.6327,77.1408818 C100.493609,83.4354273 95.6881545,88.7563364 89.7345182,92.5281545 C83.6117909,96.4036091 76.5345182,98.4545182 69.2717909,98.4545182 C62.0090636,98.4545182 54.9345182,96.4063364 48.8117909,92.5281545 C42.8554273,88.7590636 38.0499727,83.4381545 34.9136091,77.1436091 C34.6736091,76.6608818 34.6981545,76.0990636 34.9817909,75.6381545 C35.2654273,75.1802455 35.7563364,74.9075182 36.2963364,74.9075182 L52.9081545,74.9075182 C54.3127,74.9075182 55.4527,73.7645182 55.4527,72.3627 L55.4527,49.5108818 C55.4527,48.8836091 55.8290636,48.3245182 56.4072455,48.0845182 C56.5954273,48.0054273 56.7945182,47.9647909 56.9990636,47.9647909 C57.4136091,47.9647909 57.8008818,48.1254273 58.0927,48.4172455 L67.4745182,57.7990636 C67.9545182,58.2790636 68.5927,58.5438818 69.2717909,58.5438818 C69.9508818,58.5438818 70.5917909,58.2790636 71.0717909,57.7963364 L80.4508818,48.4172455 C80.7427,48.1254273 81.1327,47.9647909 81.5445182,47.9647909 C81.7490636,47.9647909 81.9481545,48.0054273 82.1363364,48.0817909 C82.7172455,48.3245182 83.0908818,48.8836091 83.0908818,49.5108818 L83.0908818,72.3627 C83.0908818,73.7645182 84.2336091,74.9045182 85.6354273,74.9045182 L102.247245,74.9045182 C102.787245,74.9045182 103.278155,75.1772455 103.561791,75.6354273 C103.845427,76.0936091 103.8727,76.6554273 103.6327,77.1408818" id="Fill-10" fill="#00E8B4"></path>
                    <path d="M17.3636636,109.181018 C17.3636636,112.289836 14.8354818,114.818291 11.7263909,114.818291 C8.62002727,114.818291 6.08911818,112.289836 6.08911818,109.181018 C6.08911818,106.071927 8.62002727,103.543745 11.7263909,103.543745 C14.8354818,103.543745 17.3636636,106.071927 17.3636636,109.181018" id="Fill-12" fill="#00E8B4"></path>
                    <path d="M17.3636636,10.9992 C17.3636636,14.1055636 14.8354818,16.6364727 11.7263909,16.6364727 C8.62002727,16.6364727 6.08911818,14.1055636 6.08911818,10.9992 C6.08911818,7.89010909 8.62002727,5.36192727 11.7263909,5.36192727 C14.8354818,5.36192727 17.3636636,7.89010909 17.3636636,10.9992" id="Fill-14" fill="#00E8B4"></path>
                </g>
            </g>
        </g>
    </g>
</svg>