<?xml version="1.0" encoding="UTF-8"?>
<svg width="22px" height="32px" viewBox="0 0 22 32" version="1.1" xmlns="http://www.w3.org/2000/svg" xmlns:xlink="http://www.w3.org/1999/xlink">
    <!-- Generator: Sketch 57.1 (83088) - https://sketch.com -->
    <title>privacy-icon-mouse</title>
    <desc>Created with Sketch.</desc>
    <g id="Page-1" stroke="none" stroke-width="1" fill="none" fill-rule="evenodd">
        <g id="Home-2-Copy-2" transform="translate(-641.000000, -946.000000)" fill="#151515" fill-rule="nonzero" stroke="#151515">
            <g id="privacy-icon-mouse" transform="translate(642.000000, 947.000000)">
                <path d="M9.98203791,0 C4.48322275,0 0.00981042654,4.47156398 0.00981042654,9.96739336 L0.00981042654,19.9498578 C0.00981042654,25.445545 4.48322275,29.9166825 9.98203791,29.9166825 C15.4808531,29.9166825 19.9542654,25.4456872 19.9542654,19.9498578 L19.9542654,9.96739336 C19.9542654,4.47156398 15.4807109,0 9.98203791,0 Z M18.8462559,19.9498578 C18.8462559,24.8347393 14.869763,28.808673 9.98203791,28.808673 C5.0943128,28.808673 1.11781991,24.8347393 1.11781991,19.9498578 L1.11781991,9.96739336 C1.11781991,5.08251185 5.0943128,1.10800948 9.98203791,1.10800948 C14.869763,1.10800948 18.8462559,5.08236967 18.8462559,9.96739336 L18.8462559,19.9498578 Z" id="Shape"></path>
                <path d="M9.98203791,3.32402844 C9.67606635,3.32402844 9.42796209,3.57184834 9.42796209,3.87810427 L9.42796209,8.89507109 C9.42796209,9.20132701 9.67606635,9.44914692 9.98203791,9.44914692 C10.2880095,9.44914692 10.5361137,9.20132701 10.5361137,8.89507109 L10.5361137,3.87810427 C10.5359716,3.57184834 10.2880095,3.32402844 9.98203791,3.32402844 Z" id="Path"></path>
            </g>
        </g>
    </g>
</svg>