<svg xmlns="http://www.w3.org/2000/svg" viewBox="0 0 1960.01 500"><defs><style>.cls-1{fill:#242828;}.cls-2{fill:#00e8b5;}</style></defs><title>Asset 50</title><g id="Layer_2" data-name="Layer 2"><g id="Layer_1-2" data-name="Layer 1"><polygon class="cls-1" points="83.33 0 83.33 166.67 0 250 0 83.33 83.33 0"/><path class="cls-1" d="M333.33,333.33A166.67,166.67,0,1,1,0,333.33V250H83.33v83.33a83.34,83.34,0,1,0,166.67,0Z"/><polygon class="cls-2" points="333.33 166.67 250 250 0 250 83.33 166.67 333.33 166.67"/><path class="cls-1" d="M593,357V201H533.34V166.69H694.8V201H635.13V357Z"/><path class="cls-1" d="M718.83,350.7a59.64,59.64,0,0,1-24.57-24q-8.64-15.53-8.64-36.59t8.64-36.58a58.86,58.86,0,0,1,24.57-23.9q15.93-8.35,37-8.37t37,8.37a58.86,58.86,0,0,1,24.57,23.9Q826,269,826,290.08t-8.64,36.59a59.64,59.64,0,0,1-24.57,24q-15.93,8.51-37,8.5T718.83,350.7Zm66.69-60.62q0-19.15-7.7-28.62t-22-9.45q-29.7,0-29.7,38.07t29.7,38.07Q785.52,328.15,785.52,290.08Z"/><path class="cls-1" d="M1048,235Q1059,248.77,1059,277.12V357h-40.77V278.47q0-13.49-4.19-19.44t-14.17-5.94q-11.61,0-18.09,8.1t-6.48,22.68V357H934.56V278.47q0-13.49-4.19-19.44t-14.17-5.94q-11.61,0-18.09,8.1t-6.48,22.68V357H850.86V224.47h39.69v17.82a41.47,41.47,0,0,1,16.61-15.66,51,51,0,0,1,23.89-5.4q29.43,0,39.42,24.57a47.48,47.48,0,0,1,18.09-18,50.9,50.9,0,0,1,25.65-6.62Q1036.89,221.23,1048,235Z"/><path class="cls-1" d="M1116.54,350.7a59.64,59.64,0,0,1-24.57-24q-8.64-15.53-8.64-36.59T1092,253.5a58.86,58.86,0,0,1,24.57-23.9q15.93-8.35,37-8.37t37,8.37a58.92,58.92,0,0,1,24.57,23.9q8.64,15.53,8.64,36.58t-8.64,36.59a59.7,59.7,0,0,1-24.57,24q-15.93,8.51-37,8.5T1116.54,350.7Zm66.69-60.62q0-19.15-7.7-28.62t-22-9.45q-29.7,0-29.7,38.07t29.7,38.07Q1183.23,328.15,1183.23,290.08Z"/><path class="cls-1" d="M1290.82,347.32A81.79,81.79,0,0,1,1257.88,313q-11.48-22.12-11.47-51.3t11.47-51.3a81,81,0,0,1,32.94-34.15q21.47-12,50.36-12a112.85,112.85,0,0,1,36.18,5.81q17.27,5.81,28.35,16.06l-13.5,30a91.51,91.51,0,0,0-24.71-13.77A76.58,76.58,0,0,0,1342,198q-25.38,0-39,16.2t-13.63,47.52q0,31.33,13.63,47.66t39,16.33a76.33,76.33,0,0,0,25.51-4.32,90.44,90.44,0,0,0,24.71-13.77l13.5,30q-11.09,10.27-28.35,16.07a112.84,112.84,0,0,1-36.18,5.8Q1312.28,359.47,1290.82,347.32Z"/><path class="cls-1" d="M1550.16,235.14q11.6,13.91,11.61,42V357H1521V279q0-13.49-5-19.71t-15.52-6.21q-12.7,0-20.39,8.1t-7.69,21.6V357h-40.77V166.69h40.77V242a45.21,45.21,0,0,1,17.95-15.52,55.59,55.59,0,0,1,24.44-5.27Q1538.54,221.23,1550.16,235.14Z"/><path class="cls-1" d="M1726.46,224.47V357H1686V337.33a41.45,41.45,0,0,1-16.87,16.07,51.88,51.88,0,0,1-24.71,5.8q-17.28,0-30.51-8.37t-20.65-23.89q-7.42-15.53-7.43-36.05t7.43-36.31q7.42-15.79,20.79-24.57a54.09,54.09,0,0,1,30.37-8.78,51.89,51.89,0,0,1,24.71,5.81A41.56,41.56,0,0,1,1686,243.1V224.47Zm-48.19,94q7.7-9.72,7.69-28.08t-7.69-28.21q-7.69-9.85-22-9.86t-22.14,10.13q-7.83,10.13-7.83,28.48,0,18.09,7.83,27.68t22.14,9.58Q1670.57,328.15,1678.27,318.43Z"/><path class="cls-1" d="M1756.43,160.75h43.74v38.07h-43.74ZM1757.78,357V224.47h40.77V357Z"/><path class="cls-1" d="M1948.4,235.14Q1960,249,1960,277.12V357h-40.77V279q0-13.49-5-19.71t-15.53-6.21q-12.69,0-20.38,8.1t-7.7,21.6V357h-40.77V224.47h39.69v18.9a46.48,46.48,0,0,1,18.23-16.47,55.07,55.07,0,0,1,25.24-5.67Q1936.79,221.23,1948.4,235.14Z"/></g></g></svg>