<?xml version="1.0" encoding="UTF-8"?>
<svg width="110px" height="120px" viewBox="0 0 110 120" version="1.1" xmlns="http://www.w3.org/2000/svg" xmlns:xlink="http://www.w3.org/1999/xlink">
    <!-- Generator: Sketch 57.1 (83088) - https://sketch.com -->
    <title>privacy-technology-icon-3</title>
    <desc>Created with Sketch.</desc>
    <g id="Page-1" stroke="none" stroke-width="1" fill="none" fill-rule="evenodd">
        <g id="Home-2-Copy-7" transform="translate(-1040.000000, -4441.000000)" fill-rule="nonzero">
            <g id="privacy-technology-icon-3" transform="translate(1040.000000, 4441.000000)">
                <path d="M79.2077637,54.0472411 C94.7140502,56.2234498 106.644287,69.5288086 106.644287,85.6356811 C106.644287,103.243103 92.362976,117.524414 74.7555541,117.524414 C62.6513672,117.524414 52.0962525,110.771484 46.7193605,100.816956 C44.2684936,96.2905884 42.8677369,91.1132812 42.8677369,85.610962 C42.8677369,68.0035402 57.149048,53.7222291 74.7555541,53.7222291 C76.257019,53.7469481 77.7328491,53.8476562 79.2077637,54.0472411 Z" id="Path" fill="#00E8B4"></path>
                <path d="M79.2077637,37.0472411 C77.7575684,36.8476562 79.7952994,53.7469481 74.7555541,53.7469481 C57.1490477,53.7469481 42.8677369,68.0282592 42.8677369,85.6356811 C42.8677369,91.1380005 44.2684936,96.3153075 46.7193605,100.841675 L46.6690064,100.86731 L13.406067,100.86731 C7.32788086,100.86731 2.40051281,95.9399414 2.40051281,89.8626708 L2.40051281,37.0472411 L79.2077637,37.0472411 Z" id="Path" fill="#E6E5E6"></path>
                <path d="M53.7725831,2.52594 L79.2077637,29.2373658 L62.2760011,29.2373658 C57.5738527,29.2373658 53.7725831,25.4351808 53.7725831,20.7339478 L53.7725831,2.52594 Z" id="Path" fill="#00E8B4"></path>
                <path d="M81.7840575,51.9470215 L81.7840575,29.2373658 C81.7840575,28.5864258 81.4837645,27.9867553 81.0589598,27.5115966 L55.5981445,0.775451719 C55.1229858,0.275573672 54.4473267,0 53.7725831,0 L13.406067,0 C5.95275891,0 0,6.07727062 0,13.5305787 L0,89.8626708 C0,97.3159791 5.95275891,103.293457 13.406067,103.293457 L45.2691652,103.293457 C51.4709473,113.797302 62.6257324,120 74.7564698,120 C93.7142944,120 109.145508,104.593506 109.145508,85.610962 C109.145508,77.2576903 106.169128,69.2285156 100.666809,62.9516602 C95.6900025,57.2991942 89.0368652,53.4475709 81.7840575,51.9470215 Z M56.2738036,8.77899164 L73.3557129,26.7608644 L62.2760011,26.7608644 C58.9746094,26.7608644 56.2728881,24.0353393 56.2728881,20.7339478 L56.2728881,8.77899164 L56.2738036,8.77899164 Z M5.00244141,89.8626708 L5.00244141,13.5305787 C5.00244141,8.82843023 8.72863781,5.00244141 13.406067,5.00244141 L51.2713622,5.00244141 L51.2713622,20.7339478 C51.2713622,26.8112182 56.1987305,31.7633058 62.2760011,31.7633058 L76.7825318,31.7633058 L76.7825318,51.2960815 C76.0317994,51.2713622 75.4312134,51.1715698 74.7811889,51.1715698 C66.0525513,51.1715698 58.0242919,54.5223998 51.9717408,59.7747802 L20.208435,59.7747802 C18.833313,59.7747802 17.7072143,60.8999634 17.7072143,62.2760011 C17.7072143,63.6520385 18.8323973,64.7772216 20.208435,64.7772216 L47.3199464,64.7772216 C45.5438231,67.2784425 44.0679933,69.779663 42.9180909,72.5308228 L20.208435,72.5308228 C18.833313,72.5308228 17.7072143,73.6560059 17.7072143,75.0311278 C17.7072143,76.4071655 18.8323973,77.5323487 20.208435,77.5323487 L41.2921144,77.5323487 C40.6668091,80.0335692 40.3417969,82.8094481 40.3417969,85.5862427 C40.3417969,89.9624634 41.166687,94.2892455 42.7679442,98.2910156 L13.406067,98.2910156 C8.72863781,98.2910156 5.00244141,94.5391847 5.00244141,89.8626708 Z M74.7564698,115.023193 C63.9770508,115.023193 54.0472411,109.120789 48.8955689,99.6414185 C46.5692137,95.3649902 45.3442383,90.5374146 45.3442383,85.6356811 C45.3442383,69.4290162 58.5241699,56.2481691 74.7308348,56.2481691 C76.1068725,56.2481691 77.4819947,56.348877 78.8323973,56.5237427 C85.7858276,57.4987793 92.1881105,60.9503175 96.8399048,66.2530519 C101.542053,71.6052246 104.118382,78.482666 104.118382,85.6356811 C104.143066,101.842346 90.9631348,115.023193 74.7564698,115.023193 Z" id="Shape" fill="#151515"></path>
                <path d="M20.208435,52.2720337 L45.5438231,52.2720337 C46.9198608,52.2720337 48.0450441,51.145935 48.0450441,49.770813 C48.0450441,48.3947754 46.9198608,47.2695923 45.5438231,47.2695923 L20.208435,47.2695923 C18.833313,47.2695923 17.7072143,48.3947754 17.7072143,49.770813 C17.7072143,51.145935 18.833313,52.2720337 20.208435,52.2720337 Z" id="Path" fill="#151515"></path>
                <path d="M88.3621216,74.3811035 L69.4537355,91.6882324 L60.1995848,81.6339112 C59.2749023,80.6085206 57.6736451,80.5581666 56.6738892,81.4837645 C55.6484986,82.4093627 55.5981445,84.0097045 56.5237427,85.0103761 L67.4780273,96.8902589 C67.9779052,97.4157715 68.6535645,97.6904297 69.3292237,97.6904297 C69.928894,97.6904297 70.5294799,97.4652098 71.029358,97.0404052 L91.7633058,78.0322266 C92.7886964,77.1066284 92.8637695,75.5062866 91.913452,74.5056152 C90.9631348,73.5058594 89.3875123,73.4307862 88.3621216,74.3811035 Z" id="Path" fill="#151515"></path>
            </g>
        </g>
    </g>
</svg>