<svg xmlns="http://www.w3.org/2000/svg" viewBox="0 0 1550.18 500"><defs><style>.cls-1{fill:#fff;}.cls-2{fill:#00e8b4;}.cls-3{fill:#242828;}</style></defs><title>Asset 32</title><g id="Layer_2" data-name="Layer 2"><g id="Layer_1-2" data-name="Layer 1"><circle class="cls-1" cx="250" cy="250" r="250"/><polygon class="cls-2" points="227.77 301.21 227.77 397 153.91 397 153.91 227.36 227.77 301.21"/><path class="cls-3" d="M299,127H153.91V227.36l73.85,73.84H299a87.35,87.35,0,0,0,87.09-87.1C386.09,166.2,346.89,127,299,127Zm4.81,106.49a27.68,27.68,0,0,1-19.61,8.16H258.28l-55.52-55.51H284.2a27.71,27.71,0,0,1,19.61,47.35Z"/><path class="cls-1" d="M738.29,374.09V218H678.62V183.75H840.08V218H780.41v156Z"/><path class="cls-1" d="M864.11,367.75a59.64,59.64,0,0,1-24.57-24q-8.64-15.53-8.64-36.59t8.64-36.58a58.86,58.86,0,0,1,24.57-23.9q15.93-8.35,37-8.36t37,8.36a58.86,58.86,0,0,1,24.57,23.9q8.64,15.52,8.64,36.58t-8.64,36.59a59.64,59.64,0,0,1-24.57,24q-15.93,8.5-37,8.5T864.11,367.75Zm66.69-60.62q0-19.15-7.69-28.62t-22-9.45q-29.7,0-29.7,38.07t29.7,38.08Q930.8,345.21,930.8,307.13Z"/><path class="cls-1" d="M1193.24,252.05q11.07,13.77,11.07,42.12v79.92h-40.77V295.52q0-13.49-4.18-19.44t-14.18-5.94q-11.61,0-18.09,8.11t-6.48,22.67v73.17h-40.77V295.52q0-13.49-4.18-19.44t-14.18-5.94q-11.61,0-18.09,8.11t-6.48,22.67v73.17H996.14V241.52h39.69v17.82a41.54,41.54,0,0,1,16.61-15.66,51.16,51.16,0,0,1,23.89-5.39q29.43,0,39.42,24.56a47.48,47.48,0,0,1,18.09-18,50.9,50.9,0,0,1,25.65-6.61Q1182.17,238.29,1193.24,252.05Z"/><path class="cls-1" d="M1261.82,367.75a59.64,59.64,0,0,1-24.57-24q-8.64-15.53-8.64-36.59t8.64-36.58a58.86,58.86,0,0,1,24.57-23.9q15.93-8.35,37-8.36t37,8.36a58.86,58.86,0,0,1,24.57,23.9q8.64,15.52,8.64,36.58t-8.64,36.59a59.64,59.64,0,0,1-24.57,24q-15.93,8.5-37,8.5T1261.82,367.75Zm66.69-60.62q0-19.15-7.7-28.62t-22-9.45q-29.7,0-29.7,38.07t29.7,38.08Q1328.51,345.21,1328.51,307.13Z"/><path class="cls-1" d="M1397.09,183.75h87.48q31,0,48.33,15.65t17.28,43.74q0,28.1-17.28,43.74t-48.33,15.66h-45.36v71.55h-42.12Zm82.08,86.93q31.59,0,31.59-27.26,0-14-7.83-20.8t-23.76-6.74h-40v54.8Z"/></g></g></svg>