<?xml version="1.0" encoding="UTF-8"?>
<svg width="163px" height="120px" viewBox="0 0 163 120" version="1.1" xmlns="http://www.w3.org/2000/svg" xmlns:xlink="http://www.w3.org/1999/xlink">
    <!-- Generator: Sketch 57.1 (83088) - https://sketch.com -->
    <title>privacy-technology-icon-1</title>
    <desc>Created with Sketch.</desc>
    <g id="Page-1" stroke="none" stroke-width="1" fill="none" fill-rule="evenodd">
        <g id="Home-2-Copy-7" transform="translate(-205.000000, -4441.000000)">
            <g id="privacy-technology-icon-1" transform="translate(205.000000, 4441.000000)">
                <path d="M112.795585,10.4777804 C110.973507,5.01546588 105.37054,1.76335905 99.7234184,2.89143027 L84.9822908,5.84051039 C82.3949911,6.35789911 79.7314896,6.35789911 77.1456142,5.84051039 L62.4041306,2.89143027 C56.7570089,1.76335905 51.1543976,5.01404154 49.3319644,10.4777804 L29.6850801,69.4205697 L81.0639525,72.2749318 L132.442825,69.4205697 L112.795585,10.4777804 Z" id="Fill-1" fill="#FFFFFF"></path>
                <path d="M132.442754,69.4206766 L119.598481,30.8864332 C105.164653,32.2844154 98.9570564,31.9546825 83.0251869,31.9546825 C67.1015074,31.9546825 57.3330801,31.2190148 42.885365,29.818184 L29.6850089,69.4206766 L81.0638813,72.2750386 L132.442754,69.4206766 Z" id="Fill-3" fill="#E6E5E6"></path>
                <path d="M101.044843,40.8769852 C101.044843,51.9112878 92.0996795,60.8578754 81.0639525,60.8578754 C70.0292938,60.8578754 61.0827062,51.9112878 61.0827062,40.8769852 C61.0827062,29.8426825 70.0292938,20.896095 81.0639525,20.896095 C92.0996795,20.896095 101.044843,29.8426825 101.044843,40.8769852" id="Fill-5" fill="#00E8B4"></path>
                <path d="M81.0638457,69.604273 C64.487822,69.604273 48.2817685,68.8251632 33.1931039,67.341365 L36.9942908,55.9338872 C42.0171988,56.3775668 47.1775549,56.7518101 52.3713828,57.038457 C52.4212344,57.0413056 52.4714421,57.04273 52.5216499,57.04273 C53.9292463,57.04273 55.1071691,55.9424332 55.1851513,54.5195252 C55.2674065,53.0478338 54.1393353,51.7876558 52.6662196,51.7054006 C47.9662789,51.4454599 43.2966053,51.1128783 38.7316202,50.7236795 L51.8650326,11.3220178 C53.2573175,7.14658754 57.5609377,4.64688427 61.8784451,5.51074184 L76.620997,8.45946588 C79.5686528,9.04913947 82.5576142,9.04913947 85.50527,8.45946588 L100.247822,5.51074184 C104.565329,4.64830861 108.86895,7.14658754 110.261234,11.3220178 L122.263015,47.309911 C122.272985,47.344095 122.280107,47.378635 122.291501,47.4131751 L123.394647,50.7236795 C118.832154,51.1128783 114.162837,51.4454599 109.462896,51.7054006 C107.98978,51.7876558 106.861709,53.0478338 106.943964,54.5195252 C107.021591,55.9424332 108.199869,57.04273 109.607466,57.04273 C109.657674,57.04273 109.707525,57.0413056 109.757733,57.038457 C114.952985,56.7503858 120.110493,56.3764985 125.131976,55.9324629 L128.934588,67.341365 C113.844499,68.8251632 97.6384451,69.604273 81.0638457,69.604273 M162.060641,64.1277151 C161.732332,62.6894955 160.300878,61.7910979 158.862659,62.1179822 C148.511323,64.4770326 146.923905,65.3675964 134.374825,66.7694955 L128.143015,48.07727 C128.133045,48.0409496 128.125211,48.0049852 128.113104,47.9686647 L115.328653,9.63347181 C113.086398,2.90670623 106.150967,-1.11703264 99.2005816,0.273827893 L84.4590979,3.22255193 C82.2058042,3.67335312 79.9218872,3.67335312 77.6685935,3.22255193 L62.9271098,0.273827893 C55.9738754,-1.11560831 49.0412938,2.90670623 46.7990386,9.63347181 L27.7528665,66.7694955 C15.2037864,65.3686647 13.616368,64.4770326 3.26503264,62.1179822 C1.82788131,61.7910979 0.39535905,62.6909199 0.0670504451,64.1277151 C-0.259833828,65.5659347 0.640344214,66.9973887 2.0785638,67.3256973 C26.5008783,72.8905638 48.0442611,74.9455193 81.0638457,74.9455193 C114.08343,74.9455193 135.625745,72.8905638 160.049128,67.3256973 C161.487347,66.9973887 162.387525,65.5659347 162.060641,64.1277151" id="Fill-7" fill="#151515"></path>
                <path d="M105.975953,114.665804 C98.2475252,114.665804 91.9590979,108.373816 91.9590979,100.645389 C91.9590979,92.9169614 98.2475252,86.6249733 105.975953,86.6249733 C113.707941,86.6249733 119.996368,92.9169614 119.996368,100.645389 C119.996368,108.373816 113.707941,114.665804 105.975953,114.665804 M56.1517389,114.665804 C48.4197507,114.665804 42.1313234,108.373816 42.1313234,100.645389 C42.1313234,92.9169614 48.4197507,86.6249733 56.1517389,86.6249733 C63.8801662,86.6249733 70.1685935,92.9169614 70.1685935,100.645389 C70.1685935,108.373816 63.8801662,114.665804 56.1517389,114.665804 M105.975953,81.4450326 C98.2233116,81.4450326 91.5342908,86.0687715 88.5058042,92.6997507 C86.5580297,90.8726884 83.9404629,89.7503145 81.0640237,89.7503145 C78.1872285,89.7503145 75.5696617,90.8726884 73.6218872,92.6997507 C70.5934006,86.0687715 63.9043798,81.4450326 56.1517389,81.4450326 C45.5639644,81.4450326 36.9513828,90.0576142 36.9513828,100.645389 C36.9513828,111.233163 45.5639644,119.845745 56.1517389,119.845745 C66.7363086,119.845745 75.3485341,111.233163 75.3485341,100.645389 C75.3485341,97.4958338 77.9144688,94.9302552 81.0640237,94.9302552 C84.2132226,94.9302552 86.7791573,97.4958338 86.7791573,100.645389 C86.7791573,111.233163 95.3913828,119.845745 105.975953,119.845745 C116.563727,119.845745 125.176309,111.233163 125.176309,100.645389 C125.176309,90.0576142 116.563727,81.4450326 105.975953,81.4450326" id="Fill-9" fill="#151515"></path>
                <path d="M119.996368,100.645389 C119.996368,108.373816 113.707941,114.665804 105.975953,114.665804 C98.2475252,114.665804 91.9590979,108.373816 91.9590979,100.645389 C91.9590979,92.9169614 98.2475252,86.6249733 105.975953,86.6249733 C113.707941,86.6249733 119.996368,92.9169614 119.996368,100.645389" id="Fill-11" fill="#00E8B4"></path>
                <path d="M70.1687359,100.645389 C70.1687359,108.373816 63.8803086,114.665804 56.1518813,114.665804 C48.4198932,114.665804 42.1314659,108.373816 42.1314659,100.645389 C42.1314659,92.9169614 48.4198932,86.6249733 56.1518813,86.6249733 C63.8803086,86.6249733 70.1687359,92.9169614 70.1687359,100.645389" id="Fill-13" fill="#00E8B4"></path>
                <path d="M89.6362611,55.906184 C91.0773294,52.4788843 91.9728783,48.1709911 92.2235608,43.5476083 L98.168368,43.5476083 C97.3447478,48.8400712 94.1136499,53.3427418 89.6362611,55.906184 L89.6362611,55.906184 Z M63.9608902,43.5476083 L69.904273,43.5476083 C70.1545994,48.1709911 71.0505045,52.4788843 72.4926409,55.906184 C68.0138279,53.3427418 64.7841543,48.8400712 63.9608902,43.5476083 L63.9608902,43.5476083 Z M72.4926409,25.8477864 C71.0505045,29.2750861 70.1545994,33.5829792 69.904273,38.206362 L63.9608902,38.206362 C64.7841543,32.9138991 68.0138279,28.4112285 72.4926409,25.8477864 L72.4926409,25.8477864 Z M75.2497923,38.206362 C75.8045697,28.7117626 79.2290208,23.5667181 81.0639169,23.5667181 C82.898457,23.5667181 86.322908,28.7117626 86.8780415,38.206362 L75.2497923,38.206362 Z M81.0639169,58.1872522 C79.2290208,58.1872522 75.8045697,53.0422077 75.2497923,43.5476083 L86.8780415,43.5476083 C86.322908,53.0422077 82.898457,58.1872522 81.0639169,58.1872522 L81.0639169,58.1872522 Z M98.1669436,38.206362 L92.2235608,38.206362 C91.9728783,33.5829792 91.0773294,29.2750861 89.6348368,25.8477864 C94.1136499,28.4112285 97.3447478,32.9138991 98.1669436,38.206362 L98.1669436,38.206362 Z M81.0639169,18.2254718 C68.5746588,18.2254718 58.4120475,28.387727 58.4120475,40.8769852 C58.4120475,53.3662433 68.5746588,63.5284985 81.0639169,63.5284985 C93.5545994,63.5284985 103.71543,53.3662433 103.71543,40.8769852 C103.71543,28.387727 93.5545994,18.2254718 81.0639169,18.2254718 L81.0639169,18.2254718 Z" id="Fill-15" fill="#151515"></path>
            </g>
        </g>
    </g>
</svg>