<?xml version="1.0" encoding="UTF-8"?>
<svg width="334px" height="360px" viewBox="0 0 334 360" version="1.1" xmlns="http://www.w3.org/2000/svg" xmlns:xlink="http://www.w3.org/1999/xlink">
    <!-- Generator: Sketch 57.1 (83088) - https://sketch.com -->
    <title>privacy-icon-1</title>
    <desc>Created with Sketch.</desc>
    <defs>
        <polygon id="path-1" points="0 0.686678509 37.2797964 0.686678509 37.2797964 49.8430218 0 49.8430218"></polygon>
        <polygon id="path-3" points="0.820701977 0.256019417 160.362269 0.256019417 160.362269 225.242438 0.820701977 225.242438"></polygon>
        <polygon id="path-5" points="0.448623648 0.596659475 13.2474897 0.596659475 13.2474897 28.2766913 0.448623648 28.2766913"></polygon>
        <polygon id="path-7" points="0.448623648 0.596659475 13.2474897 0.596659475 13.2474897 28.2766913 0.448623648 28.2766913"></polygon>
    </defs>
    <g id="Page-1" stroke="none" stroke-width="1" fill="none" fill-rule="evenodd">
        <g id="Home-2-Copy-7" transform="translate(-135.000000, -2518.000000)">
            <g id="privacy-icon-1" transform="translate(135.000000, 2518.000000)">
                <g id="Group-3" transform="translate(0.000000, 176.248835)">
                    <mask id="mask-2" fill="white">
                        <use xlink:href="#path-1"></use>
                    </mask>
                    <g id="Clip-2"></g>
                    <path d="M35.7947557,48.8523495 C35.3016188,49.1206019 26.1755315,51.714 22.7942708,47.2437087 C19.4138829,42.7734175 25.0234241,35.8049709 21.8516374,33.2369126 C18.6807236,30.6688544 9.79465871,33.251767 7.6554047,27.8421553 C5.51615069,22.4325437 11.8571056,20.1143883 8.29342783,14.6698252 C6.04856397,11.2402136 0.537650131,9.31963107 0.0523685192,6.14953398 C-0.759343529,0.850893204 8.01151063,-1.58347573 15.5124282,3.41807767 C23.0142186,8.42050485 27.5493323,6.12856311 29.9294815,5.79302913 C32.3096307,5.45662136 37.4408728,6.19759223 37.275912,14.5614757 C37.1109511,22.926233 35.7947557,48.8523495 35.7947557,48.8523495" id="Fill-1" fill="#00E8B4" mask="url(#mask-2)"></path>
                </g>
                <path d="M36.3978665,213.205631 C36.1587169,213.205631 35.9474972,213.032621 35.907348,212.788835 C33.2959045,196.915631 14.8648042,183.997573 5.28223797,181.225049 C5.01777695,181.149029 4.86590824,180.872913 4.9418426,180.609029 C5.01777695,180.346019 5.29358448,180.193981 5.55804551,180.269126 C15.3579411,183.103689 34.2088624,196.34068 36.8892577,212.627184 C36.933771,212.898058 36.7496084,213.154078 36.4790377,213.199515 C36.4519806,213.203883 36.4249235,213.205631 36.3978665,213.205631" id="Fill-4" fill="#FFFFFF"></path>
                <path d="M14.6679858,199.920058 C14.4977881,199.920058 14.3337001,199.83268 14.2394368,199.677146 C14.0997874,199.441223 14.1774674,199.135398 14.4131257,198.994718 C14.7116263,198.81734 21.8023238,194.667728 28.7900298,196.608408 C29.0544909,196.681806 29.2098508,196.956175 29.1356621,197.220932 C29.0623461,197.485689 28.7909026,197.644718 28.5238232,197.567825 C21.9507012,195.740738 14.990925,199.809961 14.9219731,199.850155 C14.8416747,199.898214 14.7543939,199.920058 14.6679858,199.920058" id="Fill-6" fill="#FFFFFF"></path>
                <path d="M39.332511,231.197155 C39.332511,233.460262 41.024887,236.273854 43.1126453,237.47968 L149.006155,298.68667 C151.093041,299.892495 154.477793,299.892495 156.564678,298.68667 L301.457024,214.939485 C303.544783,213.732786 305.237159,210.919194 305.237159,208.656087 C305.237159,206.392107 303.544783,203.579388 301.457897,202.372689 L195.563514,141.166573 C193.475756,139.959874 190.091877,139.959874 188.004119,141.166573 L43.1117725,224.914631 C41.0240142,226.120456 39.332511,228.933175 39.332511,231.197155" id="Fill-8" fill="#2B454E"></path>
                <path d="M152.787337,291.401388 L152.787337,299.588767 C151.417027,299.588767 150.046718,299.29168 149.008075,298.688767 L43.1102014,237.480029 C41.0241887,236.274204 39.3309399,233.460612 39.3309399,231.197505 C39.3309399,229.074204 40.8234427,226.47032 42.7261656,225.159641 C41.0329168,226.374204 41.1638381,228.156728 43.1102014,229.283913 L149.008075,290.49265 C150.046718,291.095563 151.417027,291.401388 152.787337,291.401388" id="Fill-10" fill="#1A2E35"></path>
                <g id="Group-14" transform="translate(31.421112, 0.617767)">
                    <mask id="mask-4" fill="white">
                        <use xlink:href="#path-3"></use>
                    </mask>
                    <g id="Clip-13"></g>
                    <path d="M4.36605073,224.431777 C2.40834092,223.300223 0.820701977,220.42634 0.820701977,218.013816 L0.820701977,91.5026505 C0.820701977,89.0892524 2.51220515,86.1550777 4.59996345,84.9492524 L149.49231,1.20206796 C151.579195,-0.00463106796 154.85921,-0.0649223301 156.81692,1.06663107 C158.775502,2.19818447 160.362269,5.07206796 160.362269,7.48459223 L160.362269,133.995757 C160.362269,136.408282 158.670765,139.342456 156.583007,140.549155 L11.6906609,224.29634 C9.60290265,225.503039 6.32376054,225.56333 4.36605073,224.431777" id="Fill-12" fill="#375A64" mask="url(#mask-4)"></path>
                </g>
                <path d="M42.6651563,225.142078 C40.5791436,226.120718 37.6115942,226.103243 35.7874241,225.045961 C33.8323327,223.918777 32.243821,221.044019 32.243821,218.632369 L32.243821,92.116835 C32.243821,90.9110097 32.6627691,89.5741165 33.352288,88.3945049 L40.4394942,92.4838252 L40.4394942,92.4925631 C39.7587035,93.6809126 39.3310272,95.009068 39.3310272,96.2148932 L39.3310272,222.730427 C39.3310272,224.96732 40.7886177,225.972175 42.6651563,225.142078" id="Fill-15" fill="#1A2E35"></path>
                <path d="M39.3320746,96.2189126 L39.3320746,222.730078 C39.3320746,225.142602 41.0235778,226.120369 43.1113361,224.914544 L188.004555,141.166485 C190.091441,139.96066 191.783816,137.026485 191.783816,134.613087 L191.783816,8.10279612 C191.783816,5.68939806 190.091441,4.71163107 188.004555,5.9183301 L43.1113361,89.6655146 C41.0235778,90.8713398 39.3320746,93.8055146 39.3320746,96.2189126" id="Fill-17" fill="#2B454E"></path>
                <path d="M43.1114233,229.283214 L149.006679,290.48933 C151.093564,291.696029 154.477443,291.696029 156.565202,290.48933 L301.457548,206.742146 C303.545306,205.535447 303.545306,203.579039 301.457548,202.373214 L195.563165,141.167097 C193.47628,139.960398 190.091528,139.960398 188.004642,141.167097 L43.1114233,224.914282 C41.0236651,226.120107 41.0236651,228.076515 43.1114233,229.283214" id="Fill-19" fill="#375A64"></path>
                <path d="M45.144282,96.6865631 L184.839925,15.9644272 C186.092406,15.2400583 187.107482,15.8263689 187.107482,17.2751068 L187.107482,126.789379 C187.107482,128.237243 186.092406,129.997922 184.839925,130.721417 L45.144282,211.44268 C43.8918016,212.166175 42.8767251,211.579864 42.8767251,210.132 L42.8767251,100.618602 C42.8767251,99.1707379 43.8918016,97.4100583 45.144282,96.6865631" id="Fill-21" fill="#FFFFFF"></path>
                <path d="M45.144282,96.6865631 L184.839925,15.9644272 C186.092406,15.2400583 187.107482,15.8263689 187.107482,17.2751068 L187.107482,126.789379 C187.107482,128.237243 186.092406,129.997922 184.839925,130.721417 L45.144282,211.44268 C43.8918016,212.166175 42.8767251,211.579864 42.8767251,210.132 L42.8767251,100.618602 C42.8767251,99.1707379 43.8918016,97.4100583 45.144282,96.6865631" id="Fill-23" fill="#FFFFFF"></path>
                <path d="M114.991755,105.759274 C118.847678,103.385047 121.974224,105.309705 121.974224,110.05623 C121.974224,114.80372 118.847678,120.575765 114.991755,122.949028 C111.135832,125.322291 108.009285,123.398597 108.009285,118.651107 C108.009285,113.904582 111.135832,108.132537 114.991755,105.759274" id="Fill-25" fill="#00E8B4"></path>
                <path d="M128.956693,130.824362 C128.956693,123.343578 123.62419,120.022383 117.047812,123.762776 L112.935697,126.101215 C106.360259,129.841607 101.026816,138.938108 101.026816,146.418892 L101.026816,148.431597 L128.956693,132.559453 L128.956693,130.824362 Z" id="Fill-27" fill="#00E8B4"></path>
                <path d="M55.4031876,226.006951 L189.895146,148.272291 C190.939025,147.668505 192.631401,147.668505 193.674407,148.272291 L200.553885,152.248019 C201.597764,152.850932 201.596891,153.828699 200.553012,154.431612 L66.0409795,232.154913 C64.9979731,232.757825 63.3055972,232.757825 62.261718,232.154913 L55.4031876,228.191417 C54.3593085,227.588505 54.3593085,226.609864 55.4031876,226.006951" id="Fill-47" fill="#2B454E"></path>
                <path d="M73.131677,236.252971 L207.62189,158.517437 C208.665769,157.91365 210.358145,157.91365 211.401151,158.517437 L253.712296,182.972971 C254.756175,183.576757 254.756175,184.554524 253.712296,185.157437 L119.375698,262.786369 C118.331819,263.389282 116.63857,263.391903 115.592072,262.792485 L73.1351682,238.43132 C72.0895435,237.831903 72.0886706,236.855883 73.131677,236.252971" id="Fill-49" fill="#1A2E35"></path>
                <path d="M145.487427,203.149835 C145.679445,203.260806 145.980564,203.266922 146.15949,203.163816 L150.369919,200.729447 C150.548844,200.62634 150.539244,200.452456 150.346353,200.341485 L145.476953,197.527019 C145.284935,197.416049 144.983816,197.409932 144.805764,197.513039 L140.594462,199.947408 C140.415536,200.050515 140.42601,200.224398 140.618028,200.335369 L145.487427,203.149835 Z M195.592753,172.123427 C195.784771,172.235272 196.08589,172.241388 196.264816,172.137408 L200.475245,169.703913 C200.654171,169.599932 200.643697,169.426922 200.451679,169.315078 L199.155558,168.566243 C198.96354,168.455272 198.662421,168.449155 198.483496,168.553136 L194.273067,170.986631 C194.094141,171.090612 194.104615,171.263621 194.296633,171.374592 L195.592753,172.123427 Z M233.515417,186.55401 L237.726718,184.120515 C237.905644,184.017408 237.89517,183.843524 237.703153,183.732553 L232.833753,180.918087 C232.641735,180.807117 232.340616,180.801 232.16169,180.904107 L227.950389,183.337602 C227.771463,183.441583 227.782809,183.615466 227.974827,183.726437 L232.843354,186.540903 C233.035372,186.651874 233.336491,186.657117 233.515417,186.55401 L233.515417,186.55401 Z M218.130419,170.921971 C218.322436,171.032942 218.622683,171.038184 218.802481,170.935078 L223.01291,168.501583 C223.191836,168.398476 223.181362,168.224592 222.989344,168.113621 L218.119945,165.299155 C217.927927,165.187311 217.626808,165.181194 217.447882,165.285175 L213.237453,167.719544 C213.057655,167.82265 213.069001,167.996534 213.261019,168.107505 L218.130419,170.921971 Z M207.901974,165.009932 C208.093992,165.120903 208.394238,165.127019 208.573164,165.023039 L212.784465,162.589544 C212.963391,162.485563 212.952045,162.312553 212.760027,162.201583 L211.463906,161.451874 C211.271888,161.340903 210.971642,161.334786 210.792716,161.438767 L206.581414,163.872262 C206.402489,163.975369 206.412962,164.149252 206.605853,164.260223 L207.901974,165.009932 Z M189.437707,175.681485 C189.630598,175.792456 189.930844,175.798573 190.109769,175.695466 L194.321071,173.260223 C194.499997,173.15799 194.489523,172.984107 194.297505,172.873136 L193.001385,172.123427 C192.808494,172.012456 192.508248,172.00634 192.329322,172.109447 L188.118893,174.543816 C187.939967,174.646922 187.949568,174.820806 188.142459,174.931777 L189.437707,175.681485 Z M157.796648,196.035466 C157.988665,196.146437 158.288912,196.152553 158.46871,196.049447 L162.679139,193.615078 C162.858065,193.511971 162.847591,193.338087 162.6547,193.227117 L157.786174,190.41265 C157.594156,190.30168 157.293037,190.295563 157.114111,190.39867 L152.903682,192.832165 C152.724756,192.936146 152.73523,193.110029 152.927248,193.221 L157.796648,196.035466 Z M151.641601,199.59265 C151.833619,199.703621 152.134738,199.709738 152.313664,199.605757 L156.524965,197.172262 C156.703891,197.069155 156.692545,196.895272 156.501399,196.783427 L151.632,193.969835 C151.439109,193.858864 151.138863,193.852748 150.959937,193.956728 L146.748636,196.390223 C146.56971,196.49333 146.581056,196.667214 146.773074,196.778184 L151.641601,199.59265 Z M177.62075,184.577505 C177.811896,184.688476 178.113015,184.694592 178.29194,184.591485 L182.503242,182.157117 C182.681295,182.053136 182.671694,181.880126 182.478803,181.769155 L177.609404,178.954689 C177.417386,178.843718 177.11714,178.837602 176.938214,178.940709 L172.726912,181.374204 C172.547987,181.478184 172.559333,181.651194 172.751351,181.763039 L177.62075,184.577505 Z M163.950821,192.478282 C164.143712,192.589252 164.443958,192.595369 164.622884,192.491388 L168.834186,190.057893 C169.012239,189.954786 169.001765,189.780903 168.809747,189.669932 L163.940348,186.855466 C163.74833,186.744495 163.448084,186.738379 163.269158,186.841485 L159.057856,189.275854 C158.87893,189.378961 158.889404,189.552845 159.082295,189.663816 L163.950821,192.478282 Z M183.774924,181.019447 C183.966942,181.131291 184.268061,181.137408 184.446114,181.033427 L188.657416,178.599932 C188.836342,178.496825 188.824995,178.322942 188.63385,178.211097 L183.764451,175.396631 C183.572433,175.28566 183.271314,175.279544 183.092388,175.383524 L178.881086,177.817019 C178.703033,177.920126 178.713507,178.094883 178.905525,178.205854 L183.774924,181.019447 Z M171.466577,188.133816 C171.657722,188.244786 171.958841,188.251777 172.137767,188.14867 L176.348195,185.714301 C176.527121,185.611194 176.516648,185.437311 176.32463,185.32634 L171.45523,182.511874 C171.263212,182.400029 170.962093,182.394786 170.78404,182.497893 L166.572739,184.931388 C166.393813,185.035369 166.404286,185.209252 166.596304,185.320223 L171.466577,188.133816 Z M201.746927,168.566243 C201.939818,168.678087 202.240064,168.684204 202.41899,168.580223 L206.630292,166.146728 C206.809217,166.043621 206.797871,165.869738 206.605853,165.758767 L205.309732,165.009058 C205.117714,164.898087 204.817468,164.891971 204.638542,164.995078 L200.427241,167.429447 C200.248315,167.532553 200.258789,167.706437 200.451679,167.817408 L201.746927,168.566243 Z M173.590993,221.190029 L177.801422,218.756534 C177.980348,218.653427 177.969874,218.479544 177.777856,218.368573 L172.908457,215.554107 C172.716439,215.443136 172.416192,215.437019 172.236394,215.540126 L168.025965,217.974495 C167.847039,218.076728 167.857513,218.251485 168.050404,218.362456 L172.91893,221.176922 C173.110948,221.287893 173.412067,221.29401 173.590993,221.190029 L173.590993,221.190029 Z M161.281772,228.305272 L165.492201,225.870903 C165.671127,225.767796 165.661526,225.594786 165.469508,225.482942 L160.599236,222.668476 C160.408091,222.557505 160.106972,222.551388 159.928046,222.654495 L155.716744,225.08799 C155.538692,225.191971 155.549165,225.365854 155.741183,225.476825 L160.610583,228.291291 C160.801728,228.402262 161.102847,228.408379 161.281772,228.305272 L161.281772,228.305272 Z M167.435946,224.748087 L171.647248,222.314592 C171.826174,222.210612 171.8157,222.036728 171.623682,221.925757 L166.754283,219.111291 C166.562265,219.00032 166.261146,218.994204 166.08222,219.097311 L161.870918,221.53168 C161.692865,221.634786 161.703339,221.80867 161.895357,221.919641 L166.763884,224.734107 C166.956774,224.845078 167.257893,224.851194 167.435946,224.748087 L167.435946,224.748087 Z M142.818378,238.976825 L147.02968,236.542456 C147.208606,236.43935 147.197259,236.265466 147.005241,236.154495 L142.136715,233.340903 C141.944697,233.229058 141.643578,233.222942 141.464652,233.326922 L137.25335,235.760417 C137.074424,235.863524 137.085771,236.037408 137.277789,236.148379 L142.147188,238.962845 C142.339206,239.073816 142.639452,239.080806 142.818378,238.976825 L142.818378,238.976825 Z M155.127599,231.862456 L159.3389,229.428087 C159.516953,229.324981 159.50648,229.151097 159.314462,229.040126 L154.445062,226.22566 C154.253044,226.114689 153.952798,226.108573 153.773872,226.212553 L149.562571,228.646049 C149.383645,228.749155 149.394991,228.923039 149.586137,229.034883 L154.455536,231.848476 C154.648427,231.959447 154.948673,231.966437 155.127599,231.862456 L155.127599,231.862456 Z M148.973425,235.419641 L153.183854,232.985272 C153.36278,232.882165 153.352306,232.708282 153.160288,232.597311 L148.290888,229.782845 C148.098871,229.671874 147.797752,229.665757 147.618826,229.768864 L143.408397,232.203233 C143.229471,232.30634 143.239945,232.480223 143.431963,232.591194 L148.301362,235.40566 C148.49338,235.516631 148.794499,235.522748 148.973425,235.419641 L148.973425,235.419641 Z M206.929665,201.518476 C207.122556,201.629447 207.422802,201.635563 207.602601,201.532456 L211.813029,199.098087 C211.991955,198.994981 211.981482,198.821097 211.789464,198.710126 L206.920064,195.89566 C206.728046,195.784689 206.426927,195.778573 206.248001,195.88168 L202.037573,198.315175 C201.857774,198.419155 201.86912,198.593039 202.061138,198.70401 L206.929665,201.518476 Z M179.745167,217.633718 L183.956468,215.19935 C184.135394,215.096243 184.124048,214.922359 183.93203,214.811388 L179.063503,211.996922 C178.871485,211.885951 178.570366,211.879835 178.391441,211.982942 L174.180139,214.417311 C174.001213,214.520417 174.012559,214.694301 174.204577,214.805272 L179.073104,217.619738 C179.265995,217.730709 179.566241,217.736825 179.745167,217.633718 L179.745167,217.633718 Z M214.250784,189.648087 L218.462086,187.214592 C218.640139,187.111485 218.629665,186.936728 218.437647,186.826631 L213.568248,184.012165 C213.37623,183.90032 213.075984,183.894204 212.897058,183.998184 L208.686629,186.43168 C208.507703,186.53566 208.517304,186.709544 208.710195,186.820515 L213.579594,189.634107 C213.770739,189.745951 214.071858,189.752068 214.250784,189.648087 L214.250784,189.648087 Z M220.535006,193.655272 C220.727024,193.766243 221.028143,193.772359 221.206196,193.668379 L225.417498,191.234883 C225.596424,191.131777 225.58595,190.957893 225.393932,190.846049 L220.524533,188.032456 C220.332515,187.920612 220.031396,187.914495 219.853343,188.018476 L215.641168,190.452845 C215.463115,190.555078 215.473589,190.729835 215.665607,190.840806 L220.535006,193.655272 Z M185.899341,214.07566 L198.208561,206.961291 C198.387487,206.858184 198.377013,206.684301 198.184122,206.57333 L193.315596,203.758864 C193.123578,203.647893 192.822459,203.641777 192.643533,203.745757 L180.335185,210.860126 C180.15626,210.962359 180.166733,211.137117 180.358751,211.248087 L185.228151,214.06168 C185.420169,214.173524 185.720415,214.179641 185.899341,214.07566 L185.899341,214.07566 Z M199.844204,189.933816 L204.055506,187.499447 C204.234432,187.39634 204.223085,187.222456 204.03194,187.111485 L199.162541,184.297019 C198.970523,184.186049 198.670277,184.179932 198.490478,184.283913 L194.280049,186.717408 C194.101123,186.821388 194.111597,186.994398 194.303615,187.105369 L199.173015,189.919835 C199.365032,190.030806 199.665279,190.037796 199.844204,189.933816 L199.844204,189.933816 Z M227.361243,190.111194 L231.571672,187.677699 C231.750598,187.573718 231.740124,187.400709 231.548106,187.288864 L226.678706,184.475272 C226.486689,184.363427 226.186442,184.358184 226.006644,184.461291 L221.796215,186.894786 C221.618162,186.998767 221.627763,187.17265 221.820653,187.283621 L226.690053,190.097214 C226.881198,190.208184 227.182317,190.215175 227.361243,190.111194 L227.361243,190.111194 Z M213.875476,199.915951 C213.683458,199.804981 213.383212,199.798864 213.204286,199.901971 L208.992985,202.33634 C208.814059,202.439447 208.825405,202.61333 209.017423,202.724301 L213.886823,205.538767 C214.077968,205.649738 214.379087,205.655854 214.558013,205.552748 L218.768442,203.119252 C218.94824,203.015272 218.936894,202.841388 218.744876,202.730417 L213.875476,199.915951 Z M191.849277,212.647893 C191.657259,212.536049 191.357013,212.529932 191.178087,212.633913 L185.995349,215.629252 C185.816424,215.732359 185.826897,215.906243 186.018915,216.017214 L190.888315,218.83168 C191.080333,218.94265 191.381452,218.948767 191.559505,218.84566 L196.743115,215.85032 C196.922041,215.747214 196.910695,215.572456 196.718677,215.461485 L191.849277,212.647893 Z M126.742116,250.279252 C126.550098,250.168282 126.248979,250.162165 126.070053,250.265272 L120.887315,253.260612 C120.708389,253.364592 120.719736,253.537602 120.911754,253.649447 L125.78028,256.463913 C125.973171,256.574883 126.273417,256.581 126.452343,256.477893 L131.635081,253.482553 C131.814007,253.378573 131.803533,253.204689 131.611515,253.093718 L126.742116,250.279252 Z M177.597185,220.885078 C177.405167,220.774107 177.104921,220.76799 176.925995,220.871097 L171.743257,223.866437 C171.563458,223.970417 171.574805,224.144301 171.766823,224.255272 L176.636222,227.069738 C176.827367,227.180709 177.128486,227.186825 177.308285,227.083718 L182.49015,224.087505 C182.669076,223.984398 182.658602,223.810515 182.465711,223.699544 L177.597185,220.885078 Z M133.868598,246.160223 C133.67658,246.049252 133.375461,246.043136 133.196536,246.146243 L128.013798,249.141583 C127.834872,249.244689 127.846219,249.419447 128.038236,249.530417 L132.906763,252.344883 C133.098781,252.455854 133.3999,252.461971 133.577953,252.35799 L138.761564,249.36265 C138.940489,249.259544 138.930016,249.08566 138.737998,248.974689 L133.868598,246.160223 Z M170.471575,225.004107 C170.278684,224.893136 169.978438,224.887019 169.799512,224.990126 L135.14028,245.023427 C134.961355,245.126534 134.971828,245.300417 135.163846,245.411388 L140.033246,248.225854 C140.225264,248.336825 140.52551,248.342942 140.705308,248.239835 L175.363667,228.206534 C175.543466,228.103427 175.532119,227.929544 175.340101,227.818573 L170.471575,225.004107 Z M200.271881,207.779155 C200.07899,207.668184 199.778744,207.662942 199.599818,207.766049 L193.121832,211.510223 C192.942906,211.61333 192.95338,211.787214 193.145398,211.898184 L198.014797,214.71265 C198.205943,214.823621 198.507062,214.829738 198.685987,214.726631 L205.164846,210.981583 C205.343772,210.878476 205.332425,210.704592 205.140407,210.594495 L200.271881,207.779155 Z M184.723667,216.766049 C184.531649,216.655078 184.23053,216.648961 184.051605,216.752068 L178.868867,219.748282 C178.689941,219.851388 178.700415,220.025272 178.892433,220.136243 L183.761832,222.950709 C183.95385,223.06168 184.254969,223.067796 184.433895,222.964689 L189.616633,219.96935 C189.795558,219.865369 189.784212,219.691485 189.592194,219.580515 L184.723667,216.766049 Z M250.813611,184.19566 L238.987927,177.360029 C238.795909,177.249058 238.495663,177.242942 238.315864,177.346049 L234.105435,179.780417 C233.92651,179.884398 233.936983,180.058282 234.129001,180.168379 L245.953813,187.00401 C246.146703,187.114981 246.44695,187.121097 246.625875,187.01799 L250.837177,184.583621 C251.016103,184.480515 251.004756,184.306631 250.813611,184.19566 L250.813611,184.19566 Z M239.789165,184.938379 C239.597147,184.827408 239.296901,184.820417 239.117103,184.924398 L234.906674,187.358767 C234.728621,187.461874 234.738222,187.635757 234.931112,187.746728 L239.799639,190.561194 C239.991657,190.672165 240.292776,190.678282 240.471702,190.574301 L244.682131,188.140806 C244.861056,188.037699 244.850583,187.863816 244.658565,187.752845 L239.789165,184.938379 Z M207.721302,203.473136 C207.529285,203.362165 207.228166,203.356049 207.050113,203.459155 L202.838811,205.893524 C202.659885,205.996631 202.670359,206.170515 202.862377,206.281485 L207.731776,209.095951 C207.923794,209.206922 208.22404,209.213039 208.402966,209.109932 L212.614268,206.676437 C212.793194,206.572456 212.78272,206.398573 212.590702,206.287602 L207.721302,203.473136 Z M136.664204,242.53401 L140.875506,240.100515 C141.053559,239.996534 141.043085,239.82265 140.851068,239.71168 L135.981668,236.897214 C135.78965,236.786243 135.489404,236.780126 135.310478,236.883233 L131.100049,239.317602 C130.920251,239.420709 130.931597,239.594592 131.123615,239.705563 L135.992142,242.520029 C136.18416,242.631 136.485279,242.637117 136.664204,242.53401 L136.664204,242.53401 Z M220.030523,196.359641 C219.838505,196.247796 219.537386,196.24168 219.35846,196.344786 L215.148031,198.779155 C214.968233,198.882262 214.979579,199.056146 215.171597,199.167117 L220.040124,201.981583 C220.233015,202.092553 220.533261,202.09867 220.713059,201.995563 L224.923488,199.561194 C225.102414,199.458087 225.09194,199.284204 224.89905,199.173233 L220.030523,196.359641 Z M233.634991,188.495563 C233.442101,188.384592 233.141855,188.378476 232.962929,188.481583 L222.598326,194.473136 C222.4194,194.576243 222.429874,194.750126 222.621892,194.861097 L227.491291,197.675563 C227.682436,197.786534 227.983555,197.79265 228.163354,197.68867 L238.527957,191.69799 C238.706883,191.594883 238.696409,191.421 238.504391,191.310029 L233.634991,188.495563 Z M103.205957,227.588767 C103.397975,227.699738 103.698222,227.705854 103.877147,227.602748 L108.087576,225.168379 C108.266502,225.065272 108.256028,224.891388 108.064883,224.780417 L103.195484,221.965951 C103.003466,221.854981 102.702347,221.848864 102.523421,221.951971 L98.3121194,224.38634 C98.1340664,224.489447 98.1445401,224.66333 98.336558,224.774301 L103.205957,227.588767 Z M109.360131,224.031583 C109.552149,224.142553 109.852395,224.14867 110.031321,224.045563 L114.242623,221.611194 C114.421549,221.508087 114.411075,221.334204 114.219057,221.223233 L109.349658,218.408767 C109.15764,218.296922 108.856521,218.29168 108.677595,218.394786 L104.467166,220.828282 C104.28824,220.932262 104.298714,221.106146 104.490732,221.217117 L109.360131,224.031583 Z M119.615633,254.398282 C119.423615,254.287311 119.123369,254.281194 118.944443,254.384301 L112.466457,258.128476 C112.286659,258.232456 112.298005,258.40634 112.490023,258.517311 L117.35855,261.330903 C117.551441,261.441874 117.851687,261.448864 118.030612,261.344883 L124.508598,257.600709 C124.687524,257.497602 124.67705,257.323718 124.485032,257.212748 L119.615633,254.398282 Z M118.192082,218.926922 C118.3841,219.037019 118.685219,219.043136 118.864145,218.940029 L123.074574,216.506534 C123.253499,216.402553 123.243026,216.22867 123.051008,216.117699 L118.181608,213.304107 C117.98959,213.193136 117.689344,213.186146 117.510419,213.290126 L113.299117,215.723621 C113.120191,215.827602 113.131537,216.001485 113.323555,216.112456 L118.192082,218.926922 Z M130.501302,211.81168 C130.69332,211.923524 130.994439,211.929641 131.173365,211.82566 L135.383794,209.392165 C135.56272,209.288184 135.552246,209.114301 135.359355,209.00333 L130.490829,206.189738 C130.298811,206.078767 129.997692,206.071777 129.818766,206.175757 L125.608337,208.609252 C125.429411,208.712359 125.439885,208.886243 125.631903,208.997214 L130.501302,211.81168 Z M97.0509109,231.145951 C97.2429288,231.256922 97.5440477,231.263039 97.7229735,231.159932 L101.934275,228.726437 C102.112328,228.622456 102.101855,228.448573 101.909837,228.337602 L97.0404372,225.523136 C96.8484192,225.413039 96.5481731,225.406049 96.3692473,225.509155 L92.1579455,227.943524 C91.9790198,228.046631 91.9903663,228.220515 92.1823842,228.331485 L97.0509109,231.145951 Z M124.346256,215.368864 C124.539147,215.480709 124.839393,215.486825 125.018319,215.382845 L129.22962,212.948476 C129.408546,212.845369 129.3972,212.671485 129.205182,212.561388 L124.336655,209.746049 C124.143764,209.635078 123.843518,209.629835 123.664592,209.732942 L119.453291,212.166437 C119.274365,212.270417 119.285711,212.443427 119.476856,212.555272 L124.346256,215.368864 Z M136.655476,208.254495 C136.847494,208.365466 137.148613,208.372456 137.326666,208.268476 L141.537968,205.834107 C141.716894,205.731 141.70642,205.557117 141.514402,205.446146 L136.645875,202.632553 C136.452985,202.520709 136.151866,202.514592 135.97294,202.618573 L131.762511,205.052068 C131.583585,205.155175 131.594059,205.329058 131.786077,205.440029 L136.655476,208.254495 Z M116.233499,253.940417 L111.3641,251.126825 C111.172955,251.015854 110.870963,251.008864 110.69291,251.112845 L105.510172,254.108184 C105.331247,254.211291 105.34172,254.386049 105.533738,254.496146 L110.403138,257.310612 C110.595156,257.421583 110.896275,257.427699 111.074327,257.324592 L116.257938,254.329252 C116.435991,254.226146 116.425517,254.051388 116.233499,253.940417 L116.233499,253.940417 Z M112.193268,248.235466 L107.323869,245.421 C107.131851,245.310029 106.830732,245.303913 106.651806,245.407019 L98.5538874,250.087893 C98.3749616,250.191 98.3854353,250.364883 98.5774532,250.475854 L103.446853,253.29032 C103.638871,253.401291 103.939117,253.407408 104.118915,253.304301 L112.216834,248.623427 C112.39576,248.52032 112.385286,248.346437 112.193268,248.235466 L112.193268,248.235466 Z M90.896737,234.703136 C91.0887549,234.814107 91.3898739,234.820223 91.5687997,234.717117 L95.7792286,232.282748 C95.9581544,232.179641 95.9476807,232.005757 95.7556628,231.894786 L90.8862633,229.08032 C90.6942454,228.96935 90.3931264,228.963233 90.2142007,229.06634 L86.0037717,231.499835 C85.824846,231.603816 85.8353197,231.777699 86.0273376,231.88867 L90.896737,234.703136 Z M86.9228392,236.999447 L82.0543126,234.185854 C81.8622947,234.074883 81.5611757,234.067893 81.3822499,234.171 L76.1995121,237.167214 C76.0214592,237.27032 76.0310601,237.445078 76.2239508,237.555175 L81.0924774,240.369641 C81.2844953,240.480612 81.5864871,240.486728 81.7645401,240.383621 L86.9472779,237.388282 C87.1262037,237.284301 87.11573,237.110417 86.9228392,236.999447 L86.9228392,236.999447 Z M103.61705,245.151 L98.7476509,242.336534 C98.5565058,242.225563 98.2553868,242.219447 98.076461,242.323427 L91.5976024,246.067602 C91.4186766,246.170709 91.4300231,246.344592 91.622041,246.455563 L96.4914405,249.270029 C96.6834584,249.381 96.9837046,249.387117 97.1626304,249.283136 L103.641489,245.538961 C103.820415,245.435854 103.809068,245.261971 103.61705,245.151 L103.61705,245.151 Z M94.3940813,242.440515 L89.5246818,239.626922 C89.3326639,239.515951 89.0315449,239.509835 88.8526192,239.612942 L84.6421902,242.047311 C84.4632645,242.150417 84.4737382,242.324301 84.6657561,242.434398 L89.5351555,245.249738 C89.7271734,245.360709 90.0282924,245.365951 90.2072182,245.262845 L94.4176471,242.82935 C94.5965729,242.725369 94.5860992,242.552359 94.3940813,242.440515 L94.3940813,242.440515 Z M130.510031,246.091194 L134.72046,243.656825 C134.899385,243.553718 134.888912,243.380709 134.696894,243.269738 L129.827494,240.454398 C129.635476,240.343427 129.33523,240.337311 129.156304,240.441291 L124.945003,242.874786 C124.766077,242.978767 124.776551,243.151777 124.968568,243.263621 L129.837968,246.077214 C130.029986,246.188184 130.331105,246.194301 130.510031,246.091194 L130.510031,246.091194 Z M135.002377,220.979447 L130.791948,223.412942 C130.613022,223.516922 130.623496,223.690806 130.815514,223.801777 L135.685786,226.615369 C135.876931,226.727214 136.17805,226.73333 136.356976,226.630223 L140.567405,224.195854 C140.74633,224.091874 140.735857,223.918864 140.543839,223.807893 L135.674439,220.993427 C135.483294,220.881583 135.181302,220.87634 135.002377,220.979447 L135.002377,220.979447 Z M128.849076,224.536631 L124.637774,226.970126 C124.458848,227.073233 124.469322,227.24799 124.66134,227.358961 L129.530739,230.172553 C129.722757,230.283524 130.023876,230.290515 130.202802,230.186534 L134.413231,227.753039 C134.592157,227.649058 134.581683,227.476049 134.389665,227.364204 L129.520266,224.550612 C129.328248,224.439641 129.027129,224.43265 128.849076,224.536631 L128.849076,224.536631 Z M153.466644,210.307019 L149.255342,212.741388 C149.076416,212.845369 149.087763,213.018379 149.278908,213.12935 L154.148307,215.944689 C154.340325,216.05566 154.641444,216.060903 154.82037,215.957796 L159.030799,213.524301 C159.209725,213.42032 159.199251,213.247311 159.007233,213.135466 L154.137834,210.321874 C153.945816,210.210903 153.64557,210.204786 153.466644,210.307019 L153.466644,210.307019 Z M141.157423,217.421388 L136.946122,219.855757 C136.768069,219.958864 136.77767,220.133621 136.97056,220.243718 L141.839087,223.058184 C142.031978,223.170029 142.332224,223.175272 142.51115,223.072165 L146.722451,220.63867 C146.901377,220.534689 146.890031,220.36168 146.698013,220.249835 L141.829486,217.436243 C141.636595,217.324398 141.336349,217.318282 141.157423,217.421388 L141.157423,217.421388 Z M147.311597,213.865078 L143.101168,216.298573 C142.922242,216.402553 142.932716,216.575563 143.124734,216.687408 L147.994134,219.501 C148.186151,219.611971 148.486398,219.618961 148.665323,219.514981 L152.876625,217.081485 C153.055551,216.978379 153.045077,216.803621 152.853059,216.69265 L147.98366,213.879058 C147.791642,213.767214 147.490523,213.761097 147.311597,213.865078 L147.311597,213.865078 Z M122.694029,228.093816 L118.4836,230.527311 C118.303802,230.631291 118.315148,230.804301 118.507166,230.916146 L123.376565,233.730612 C123.568583,233.841583 123.86883,233.847699 124.048628,233.744592 L128.259057,231.310223 C128.43711,231.206243 128.427509,231.033233 128.234618,230.922262 L123.366092,228.106922 C123.174074,227.996825 122.872955,227.990709 122.694029,228.093816 L122.694029,228.093816 Z M116.539855,231.651 L112.328554,234.084495 C112.149628,234.187602 112.160974,234.362359 112.352119,234.47333 L117.222392,237.286922 C117.413537,237.398767 117.714656,237.404883 117.893581,237.300903 L122.10401,234.867408 C122.283809,234.764301 122.272463,234.589544 122.080445,234.478573 L117.211918,231.664981 C117.019027,231.55401 116.718781,231.547893 116.539855,231.651 L116.539855,231.651 Z M138.778147,233.271 L142.988576,230.837505 C143.167502,230.733524 143.157028,230.560515 142.96501,230.44867 L138.095611,227.634204 C137.904465,227.524107 137.603347,227.517117 137.424421,227.621097 L133.213119,230.054592 C133.034193,230.157699 133.044667,230.332456 133.236685,230.442553 L138.106084,233.257893 C138.298102,233.36799 138.599221,233.374981 138.778147,233.271 L138.778147,233.271 Z M132.6231,236.828184 L136.834402,234.394689 C137.013328,234.291583 137.002854,234.117699 136.810836,234.006728 L131.940564,231.192262 C131.749419,231.080417 131.4483,231.074301 131.269374,231.178282 L127.058945,233.611777 C126.880019,233.715757 126.890493,233.889641 127.082511,234.000612 L131.95191,236.815078 C132.143928,236.926049 132.445047,236.932165 132.6231,236.828184 L132.6231,236.828184 Z M126.468927,240.385369 L130.679355,237.951874 C130.858281,237.848767 130.84868,237.674883 130.65579,237.563913 L125.787263,234.749447 C125.594372,234.638476 125.294126,234.631485 125.1152,234.735466 L120.903899,237.169835 C120.725846,237.272942 120.736319,237.446825 120.928337,237.557796 L125.797737,240.372262 C125.989755,240.483233 126.290001,240.48935 126.468927,240.385369 L126.468927,240.385369 Z M110.385681,235.208184 L106.17438,237.642553 C105.995454,237.74566 106.005928,237.919544 106.197946,238.030515 L111.067345,240.844981 C111.259363,240.955951 111.559609,240.962068 111.738535,240.858961 L115.949837,238.424592 C116.128762,238.321485 116.118289,238.147602 115.926271,238.036631 L111.056871,235.222165 C110.864853,235.111194 110.563734,235.105078 110.385681,235.208184 L110.385681,235.208184 Z M119.64269,243.928573 C119.834708,244.040417 120.135827,244.046534 120.314753,243.943427 L124.526054,241.509058 C124.704107,241.405951 124.693634,241.232068 124.501616,241.121097 L119.632216,238.306631 C119.440198,238.19566 119.139952,238.189544 118.961026,238.29265 L114.749725,240.726146 C114.570799,240.830126 114.582145,241.00401 114.774163,241.114981 L119.64269,243.928573 Z M165.774991,203.19265 L161.56369,205.627019 C161.384764,205.731 161.39611,205.90401 161.588128,206.014981 L166.457528,208.829447 C166.649546,208.940417 166.949792,208.946534 167.128718,208.843427 L171.340019,206.409058 C171.518945,206.305951 171.507599,206.132068 171.315581,206.021971 L166.447054,203.206631 C166.254163,203.09566 165.953917,203.089544 165.774991,203.19265 L165.774991,203.19265 Z M219.733768,186.076922 C219.924913,186.187893 220.226032,186.19401 220.404958,186.090903 L224.61626,183.657408 C224.795185,183.553427 224.784712,183.380417 224.592694,183.269447 L219.723294,180.454107 C219.531276,180.343136 219.230157,180.337019 219.051232,180.440126 L214.83993,182.874495 C214.661004,182.977602 214.672351,183.152359 214.864369,183.262456 L219.733768,186.076922 Z M159.620818,206.749835 L155.409516,209.184204 C155.23059,209.287311 155.241937,209.462068 155.433954,209.572165 L160.303354,212.386631 C160.495372,212.497602 160.795618,212.503718 160.974544,212.400612 L165.185846,209.967117 C165.364771,209.863136 165.353425,209.689252 165.161407,209.578282 L160.292007,206.763816 C160.09999,206.652845 159.799743,206.646728 159.620818,206.749835 L159.620818,206.749835 Z M205.940773,179.977893 L201.729471,182.411388 C201.550545,182.514495 201.561892,182.688379 201.75391,182.79935 L206.623309,185.613816 C206.815327,185.724786 207.115573,185.730903 207.294499,185.627796 L211.505801,183.194301 C211.684727,183.089447 211.674253,182.916437 211.482235,182.805466 L206.612836,179.991 C206.420818,179.880029 206.119699,179.873913 205.940773,179.977893 L205.940773,179.977893 Z M220.217304,172.127796 L232.042116,178.962553 C232.234134,179.073524 232.53438,179.079641 232.714178,178.976534 L236.924607,176.543039 C237.103533,176.439058 237.093059,176.265175 236.901041,176.154204 L225.07623,169.319447 C224.883339,169.208476 224.583093,169.202359 224.404167,169.305466 L220.192865,171.739835 C220.014812,171.842942 220.025286,172.016825 220.217304,172.127796 L220.217304,172.127796 Z M218.921183,172.876631 C218.730038,172.76566 218.428046,172.759544 218.249993,172.86265 L214.038692,175.297019 C213.859766,175.400126 213.870239,175.57401 214.062257,175.684981 L218.931657,178.499447 C219.123675,178.610417 219.424794,178.616534 219.60372,178.513427 L223.814148,176.079932 C223.993074,175.975951 223.983473,175.802068 223.790583,175.691097 L218.921183,172.876631 Z M213.449546,182.070612 L217.659975,179.636243 C217.8389,179.533136 217.828427,179.359252 217.636409,179.248282 L212.767009,176.433816 C212.574991,176.322845 212.274745,176.316728 212.094947,176.419835 L207.884518,178.854204 C207.705592,178.957311 207.716066,179.131194 207.908084,179.242165 L212.777483,182.056631 C212.969501,182.167602 213.27062,182.173718 213.449546,182.070612 L213.449546,182.070612 Z M226.560004,182.533718 L230.770433,180.100223 C230.949359,179.996243 230.938885,179.822359 230.746868,179.711388 L225.877468,176.897796 C225.68545,176.785951 225.385204,176.779835 225.205405,176.883816 L220.994977,179.317311 C220.816051,179.420417 220.826524,179.594301 221.018542,179.705272 L225.887942,182.519738 C226.07996,182.630709 226.380206,182.636825 226.560004,182.533718 L226.560004,182.533718 Z M151.087367,226.156631 L155.297796,223.723136 C155.476722,223.619155 155.466248,223.446146 155.273358,223.335175 L150.404831,220.519835 C150.212813,220.408864 149.911694,220.402748 149.732768,220.505854 L145.522339,222.940223 C145.342541,223.044204 145.353887,223.218087 145.545905,223.328184 L150.415305,226.14265 C150.607323,226.253621 150.907569,226.259738 151.087367,226.156631 L151.087367,226.156631 Z M211.965771,168.85634 C211.773753,168.745369 211.472634,168.739252 211.293708,168.842359 L207.083279,171.275854 C206.904354,171.379835 206.914827,171.553718 207.106845,171.664689 L211.976245,174.478282 C212.16739,174.590126 212.468509,174.596243 212.647435,174.493136 L216.857863,172.058767 C217.037662,171.95566 217.027188,171.781777 216.83517,171.670806 L211.965771,168.85634 Z M173.283764,205.286243 L177.494193,202.852748 C177.673119,202.748767 177.662645,202.574883 177.470627,202.463913 L172.601228,199.649447 C172.40921,199.538476 172.108091,199.532359 171.929165,199.63634 L167.718736,202.069835 C167.539811,202.172942 167.550284,202.346825 167.742302,202.457796 L172.611702,205.272262 C172.80372,205.383233 173.104838,205.38935 173.283764,205.286243 L173.283764,205.286243 Z M205.139535,172.399544 L200.929106,174.833913 C200.749307,174.937019 200.760653,175.110903 200.951799,175.221874 L205.821198,178.03634 C206.013216,178.147311 206.314335,178.153427 206.493261,178.049447 L210.70369,175.615951 C210.882615,175.512845 210.873015,175.338087 210.680124,175.227117 L205.811597,172.413524 C205.619579,172.302553 205.31846,172.296437 205.139535,172.399544 L205.139535,172.399544 Z M191.535066,180.262748 L187.323764,182.697117 C187.144838,182.800223 187.156185,182.974107 187.34733,183.085078 L192.21673,185.899544 C192.408747,186.010515 192.709866,186.016631 192.888792,185.913524 L197.099221,183.479155 C197.278147,183.376049 197.267673,183.202165 197.075655,183.091194 L192.206256,180.276728 C192.014238,180.165757 191.713992,180.159641 191.535066,180.262748 L191.535066,180.262748 Z M198.984488,175.956728 L194.774059,178.391097 C194.595133,178.494204 194.605607,178.668087 194.797625,178.779058 L199.667024,181.593524 C199.859042,181.704495 200.160161,181.710612 200.339087,181.607505 L204.549516,179.17401 C204.729314,179.070029 204.717968,178.896146 204.52595,178.785175 L199.656551,175.970709 C199.464533,175.859738 199.164286,175.853621 198.984488,175.956728 L198.984488,175.956728 Z M144.932321,229.713816 L149.14275,227.28032 C149.322548,227.177214 149.311202,227.002456 149.120057,226.891485 L144.250657,224.077893 C144.057767,223.966922 143.75752,223.960806 143.578595,224.063913 L139.367293,226.497408 C139.188367,226.601388 139.199714,226.775272 139.391731,226.886243 L144.260258,229.700709 C144.452276,229.81168 144.753395,229.817796 144.932321,229.713816 L144.932321,229.713816 Z M113.47106,225.384204 L109.259758,227.817699 C109.080833,227.92168 109.091306,228.094689 109.284197,228.20566 L114.152724,231.020126 C114.344742,231.131097 114.64586,231.137214 114.824786,231.034107 L119.035215,228.599738 C119.214141,228.496631 119.203667,228.322748 119.011649,228.211777 L114.14225,225.397311 C113.950232,225.28634 113.649986,225.281097 113.47106,225.384204 L113.47106,225.384204 Z M119.625234,221.827019 L115.413932,224.260515 C115.235006,224.363621 115.246353,224.538379 115.438371,224.648476 L120.306897,227.462942 C120.499788,227.573913 120.800034,227.580029 120.97896,227.476922 L125.190262,225.043427 C125.368315,224.939447 125.358714,224.765563 125.165823,224.654592 L120.297297,221.840126 C120.104406,221.729155 119.80416,221.723039 119.625234,221.827019 L119.625234,221.827019 Z M125.779408,218.269835 L121.568979,220.70333 C121.390053,220.806437 121.400527,220.98032 121.592545,221.091291 L126.461944,223.905757 C126.653089,224.016728 126.955081,224.022845 127.134007,223.919738 L131.344436,221.485369 C131.523361,221.382262 131.512888,221.208379 131.32087,221.097408 L126.450598,218.282942 C126.259452,218.171971 125.958333,218.165854 125.779408,218.269835 L125.779408,218.269835 Z M138.087755,211.154592 L133.877326,213.588961 C133.698401,213.692068 133.708874,213.865951 133.901765,213.976922 L138.770292,216.791388 C138.96231,216.902359 139.263429,216.90935 139.442354,216.804495 L143.652783,214.371 C143.832582,214.267893 143.821235,214.09401 143.63009,213.983039 L138.759818,211.168573 C138.5678,211.057602 138.267554,211.051485 138.087755,211.154592 L138.087755,211.154592 Z M107.316886,228.941388 L103.105584,231.374883 C102.926659,231.47799 102.938005,231.652748 103.12915,231.762845 L107.99855,234.577311 C108.190568,234.688282 108.490814,234.695272 108.66974,234.591291 L112.881041,232.157796 C113.059967,232.053816 113.048621,231.879932 112.856603,231.768961 L107.988076,228.954495 C107.796058,228.844398 107.495812,228.837408 107.316886,228.941388 L107.316886,228.941388 Z M131.933581,214.711777 L127.72228,217.146146 C127.544227,217.249252 127.5547,217.423136 127.746718,217.534107 L132.616118,220.348573 C132.808136,220.459544 133.108382,220.46566 133.287308,220.362553 L137.498609,217.928184 C137.677535,217.825078 137.667062,217.651194 137.475044,217.540223 L132.605644,214.725757 C132.413626,214.614786 132.112507,214.60867 131.933581,214.711777 L131.933581,214.711777 Z M101.16184,232.497699 L96.9514107,234.932068 C96.7716121,235.036049 96.7829586,235.209058 96.9749765,235.320029 L101.844376,238.135369 C102.036394,238.24634 102.33664,238.251583 102.515566,238.148476 L106.726868,235.714981 C106.905793,235.611 106.89532,235.43799 106.702429,235.327019 L101.833902,232.512553 C101.641884,232.401583 101.340765,232.394592 101.16184,232.497699 L101.16184,232.497699 Z M117.52962,253.191583 C117.721638,253.302553 118.021884,253.30867 118.20081,253.206437 L122.412112,250.771194 C122.591038,250.668087 122.579691,250.495078 122.387673,250.384107 L117.519147,247.568767 C117.326256,247.457796 117.02601,247.452553 116.847084,247.55566 L112.635782,249.989155 C112.457729,250.093136 112.46733,250.266146 112.660221,250.377117 L117.52962,253.191583 Z M124.354984,249.648379 L128.566286,247.214883 C128.745211,247.110903 128.734738,246.937019 128.54272,246.826049 L123.67332,244.011583 C123.481302,243.901485 123.180184,243.894495 123.001258,243.998476 L118.790829,246.431971 C118.611903,246.535078 118.622377,246.709835 118.814395,246.820806 L123.683794,249.634398 C123.875812,249.745369 124.176058,249.752359 124.354984,249.648379 L124.354984,249.648379 Z M104.913171,244.402165 C105.105189,244.513136 105.405435,244.519252 105.584361,244.416146 L109.795663,241.981777 C109.974589,241.87867 109.963242,241.704786 109.771224,241.593816 L104.902698,238.77935 C104.71068,238.668379 104.410433,238.662262 104.230635,238.765369 L100.020206,241.198864 C99.8412801,241.302845 99.8517538,241.476728 100.043772,241.587699 L104.913171,244.402165 Z M95.0076658,236.055757 L90.796364,238.489252 C90.6174383,238.593233 90.627912,238.767117 90.8208027,238.878087 L95.6893294,241.69168 C95.8822201,241.80265 96.1824662,241.809641 96.361392,241.70566 L100.572694,239.272165 C100.75162,239.169058 100.740273,238.994301 100.548255,238.884204 L95.6788557,236.069738 C95.4868377,235.958767 95.1865916,235.951777 95.0076658,236.055757 L95.0076658,236.055757 Z M113.488516,247.486631 C113.680534,247.597602 113.981653,247.603718 114.160579,247.500612 L118.371008,245.066243 C118.549934,244.963136 118.53946,244.788379 118.347442,244.677408 L113.478043,241.863816 C113.286025,241.752845 112.984906,241.746728 112.806853,241.849835 L108.595551,244.28333 C108.416625,244.387311 108.427972,244.561194 108.619117,244.672165 L113.488516,247.486631 Z M144.242802,207.597408 L140.032373,210.030903 C139.852574,210.134883 139.863921,210.308767 140.055939,210.419738 L144.924465,213.234204 C145.117356,213.345175 145.417602,213.351291 145.596528,213.248184 L149.80783,210.813816 C149.986756,210.710709 149.976282,210.536825 149.783391,210.425854 L144.914865,207.611388 C144.722847,207.500417 144.421728,207.494301 144.242802,207.597408 L144.242802,207.597408 Z M150.396976,204.040223 L146.186547,206.474592 C146.007621,206.577699 146.018095,206.751583 146.210985,206.862553 L151.079512,209.677019 C151.27153,209.78799 151.571776,209.794107 151.750702,209.691 L155.962004,207.256631 C156.14093,207.153524 156.130456,206.979641 155.938438,206.86867 L151.069038,204.054204 C150.877021,203.943233 150.576774,203.937117 150.396976,204.040223 L150.396976,204.040223 Z M181.859109,208.370709 L191.253149,202.941 C191.431202,202.837893 191.420728,202.66401 191.22871,202.553039 L179.403899,195.718282 C179.211881,195.607311 178.910762,195.601194 178.731836,195.704301 L173.87291,198.51265 C173.693984,198.616631 173.705331,198.789641 173.896476,198.900612 L180.158005,202.518961 C180.34915,202.629932 180.360497,202.803816 180.181571,202.907796 L176.294081,205.154301 C176.115156,205.257408 176.126502,205.431291 176.31852,205.542262 L181.187047,208.356728 C181.379065,208.467699 181.680184,208.473816 181.859109,208.370709 L181.859109,208.370709 Z M187.535857,197.048184 L191.746286,194.613816 C191.925211,194.510709 191.914738,194.337699 191.72272,194.226728 L186.85332,191.411388 C186.661302,191.300417 186.361056,191.295175 186.182131,191.398282 L181.971702,193.831777 C181.792776,193.935757 181.802377,194.108767 181.995267,194.220612 L186.863794,197.034204 C187.055812,197.145175 187.356931,197.151291 187.535857,197.048184 L187.535857,197.048184 Z M157.241541,222.599447 L161.452843,220.165951 C161.631769,220.061971 161.620422,219.888087 161.428404,219.777117 L156.559005,216.963524 C156.366987,216.852553 156.066741,216.845563 155.887815,216.94867 L151.676513,219.383039 C151.497587,219.486146 151.508061,219.660903 151.700952,219.771 L156.569479,222.585466 C156.761496,222.696437 157.062615,222.702553 157.241541,222.599447 L157.241541,222.599447 Z M163.395715,219.042262 L167.607017,216.607893 C167.785943,216.504786 167.774596,216.330903 167.582578,216.219932 L162.714051,213.405466 C162.522034,213.294495 162.220915,213.289252 162.041989,213.392359 L157.830687,215.825854 C157.651761,215.928961 157.663108,216.102845 157.855126,216.213816 L162.724525,219.028282 C162.916543,219.139252 163.216789,219.145369 163.395715,219.042262 L163.395715,219.042262 Z M169.549889,215.485078 L173.761191,213.051583 C173.940116,212.947602 173.92877,212.773718 173.736752,212.662748 L168.868225,209.849155 C168.676207,209.738184 168.375088,209.731194 168.196163,209.834301 L163.985734,212.26867 C163.806808,212.371777 163.817282,212.54566 164.0093,212.656631 L168.878699,215.471097 C169.070717,215.582068 169.370963,215.588184 169.549889,215.485078 L169.549889,215.485078 Z M175.704935,211.927893 L179.915364,209.493524 C180.09429,209.390417 180.083816,209.216534 179.890926,209.105563 L175.022399,206.291097 C174.830381,206.180126 174.529262,206.17401 174.351209,206.27799 L170.139907,208.711485 C169.960982,208.814592 169.971455,208.988476 170.163473,209.099447 L175.032873,211.913913 C175.224891,212.024883 175.52601,212.031 175.704935,211.927893 L175.704935,211.927893 Z M156.552022,200.483039 L152.340721,202.916534 C152.161795,203.020515 152.173141,203.194398 152.364286,203.305369 L157.233686,206.118961 C157.426577,206.230806 157.726823,206.236922 157.905749,206.133816 L162.116178,203.699447 C162.295976,203.595466 162.28463,203.422456 162.092612,203.311485 L157.223212,200.497019 C157.031194,200.386049 156.730948,200.379932 156.552022,200.483039 L156.552022,200.483039 Z M162.706196,196.925854 L158.495767,199.35935 C158.316841,199.46333 158.327315,199.63634 158.519333,199.748184 L163.388733,202.56265 C163.579878,202.673621 163.880997,202.679738 164.059922,202.576631 L168.271224,200.142262 C168.45015,200.038282 168.438803,199.865272 168.246786,199.754301 L163.378259,196.939835 C163.185368,196.828864 162.885122,196.822748 162.706196,196.925854 L162.706196,196.925854 Z M179.225846,187.377117 L175.014544,189.811485 C174.836491,189.914592 174.846965,190.088476 175.038982,190.199447 L179.908382,193.013913 C180.1004,193.124883 180.400646,193.131 180.579572,193.027893 L184.790874,190.593524 C184.969799,190.490417 184.959326,190.316534 184.766435,190.205563 L179.897908,187.391097 C179.70589,187.280126 179.404771,187.27401 179.225846,187.377117 L179.225846,187.377117 Z M171.776424,191.68401 L164.649941,195.803039 C164.471015,195.905272 164.481489,196.080029 164.673507,196.191 L169.542906,199.004592 C169.734924,199.116437 170.03517,199.122553 170.214969,199.018573 L177.340579,194.900417 C177.519505,194.796437 177.509031,194.622553 177.317013,194.511583 L172.447614,191.697117 C172.255596,191.586146 171.954477,191.580029 171.776424,191.68401 L171.776424,191.68401 Z M185.380019,183.819932 L181.16959,186.254301 C180.990665,186.357408 181.001138,186.531291 181.193156,186.642262 L186.062556,189.456728 C186.254574,189.567699 186.555693,189.573816 186.733746,189.470709 L190.945047,187.03634 C191.123973,186.933233 191.113499,186.75935 190.921482,186.648379 L186.052082,183.833913 C185.860064,183.722942 185.558945,183.716825 185.380019,183.819932 L185.380019,183.819932 Z M193.690031,193.491 L197.901332,191.057505 C198.080258,190.953524 198.069784,190.779641 197.876894,190.66867 L193.008367,187.854204 C192.816349,187.743233 192.51523,187.737117 192.336304,187.840223 L188.125003,190.274592 C187.946077,190.377699 187.957423,190.551583 188.149441,190.662553 L193.018841,193.477019 C193.210859,193.588864 193.511105,193.594107 193.690031,193.491 L193.690031,193.491 Z" id="Fill-51" fill="#375A64"></path>
                <path d="M172.780154,240.132583 L214.334574,216.113942 C215.587054,215.390447 217.61808,215.390447 218.869687,216.113942 L242.698236,229.886563 C243.950717,230.610932 243.950717,231.784427 242.698236,232.507922 L201.143816,256.526563 C199.891336,257.250058 197.86031,257.250058 196.60783,256.526563 L172.780154,242.753942 C171.527673,242.029573 171.527673,240.856951 172.780154,240.132583" id="Fill-53" fill="#1A2E35"></path>
                <path d="M249.198653,124.628505 C249.198653,124.619767 249.207382,124.619767 249.207382,124.619767 L249.155013,124.584816 L242.060824,120.493748 C241.650604,120.310252 241.048366,120.48501 240.323935,121.035495 C233.72201,126.093845 224.84991,127.662291 217.595125,125.352 C217.131664,124.919476 216.686531,124.461612 216.267583,123.973165 C216.223943,123.920738 216.180302,123.868311 216.136662,123.824621 L216.127934,123.824621 C215.883547,123.553748 215.639161,123.352777 215.394774,123.221709 L215.272581,123.151806 L208.169664,119.069476 C207.357952,118.68501 206.624793,119.069476 206.13602,120.275301 C199.275744,137.34035 184.656199,154.632583 174.906927,158.957825 C174.182495,159.281126 173.510433,159.779184 172.986747,160.390835 C172.297229,161.185981 171.869552,162.164621 171.904465,163.186951 L173.309687,201.502485 C173.309687,212.573359 177.979213,224.264621 187.501555,229.952971 L194.848859,234.20132 L194.97978,234.271223 C198.62812,236.359573 202.965979,237.582874 208.002085,237.582874 C209.023271,237.582874 210.061913,237.539184 211.135468,237.43433 C212.933454,237.259573 215.429687,235.957631 216.686531,234.655689 C237.99179,212.627534 248.352029,182.813942 248.352029,166.316854 L249.757251,126.236272 C249.792163,125.371223 249.582689,124.838214 249.198653,124.628505" id="Fill-55" fill="#00DFBF"></path>
                <path d="M249.756902,126.236534 L248.35168,166.317117 C248.35168,182.814204 237.991441,212.627796 216.686182,234.655951 C215.429338,235.957893 212.933105,237.259835 211.135119,237.434592 C210.061564,237.539447 209.022922,237.583136 208.001736,237.583136 C202.96563,237.583136 198.627771,236.359835 194.979431,234.271485 L194.84851,234.201583 L194.595395,234.044301 C185.073053,228.355951 180.403526,216.664689 180.403526,205.593816 L178.998304,167.278282 C178.963392,166.255951 179.391068,165.277311 180.080587,164.482165 C180.604272,163.870515 181.276335,163.372456 182.000766,163.049155 C191.750039,158.723913 206.369584,141.43168 213.22986,124.366631 C213.718633,123.160806 214.46052,122.767602 215.272232,123.152068 L215.394425,123.221971 C215.638812,123.353039 215.883198,123.55401 216.127584,123.824883 L216.136313,123.824883 C216.179953,123.868573 216.223593,123.921 216.267234,123.973427 C223.546458,132.457893 237.86052,132.449155 247.417775,125.126825 C248.142206,124.57634 248.744444,124.401583 249.154664,124.585078 L249.207032,124.620029 C249.207032,124.620029 249.198304,124.620029 249.198304,124.628767 C249.58234,124.838476 249.791814,125.371485 249.756902,126.236534" id="Fill-57" fill="#00E8B4"></path>
                <path d="M249.157719,124.580709 C248.747499,124.397214 248.145261,124.571971 247.42083,125.122456 C238.422172,132.016631 225.199121,132.427311 217.614414,125.349641 C224.867454,127.665175 233.726462,126.092359 240.324895,121.033136 C241.049326,120.48265 241.651564,120.307893 242.061784,120.491388 L249.157719,124.580709 Z" id="Fill-59" fill="#0EFFC9"></path>
                <path d="M215.275461,123.147612 C214.463749,122.763146 213.721862,123.15635 213.233089,124.362175 C206.372813,141.427223 191.753268,158.719456 182.003996,163.044699 C181.279564,163.368 180.607502,163.866058 180.083816,164.477709 C179.900527,164.687417 179.734693,164.914602 179.595044,165.150524 L172.507837,161.052466 C172.647487,160.825282 172.804592,160.598097 172.987882,160.388388 C173.083891,160.274796 173.188628,160.169942 173.302093,160.065087 L173.310821,160.05635 C173.354462,160.021398 173.389374,159.977709 173.433015,159.934019 C173.476655,159.899068 173.511567,159.864117 173.555208,159.820427 C173.9567,159.470913 174.419288,159.165087 174.908061,158.955379 C184.657334,154.630136 199.276879,137.337903 206.137155,120.272854 C206.625928,119.067029 207.359087,118.682563 208.170799,119.067029 L215.275461,123.147612 Z" id="Fill-61" fill="#0EFFC9"></path>
                <path d="M173.310734,160.047612 C173.345646,160.003922 173.389287,159.968971 173.432927,159.934019 C173.389287,159.977709 173.354374,160.021398 173.310734,160.05635 C173.310734,160.05635 173.302006,160.047612 173.310734,160.047612" id="Fill-63" fill="#00DFBF"></path>
                <path d="M173.432578,159.934107 C173.388938,159.977796 173.354025,160.021485 173.310385,160.056437 C173.310385,160.056437 173.301657,160.047699 173.310385,160.047699 C173.345297,160.00401 173.388938,159.969058 173.432578,159.934107" id="Fill-65" fill="#000000"></path>
                <path d="M194.98266,234.266942 L194.851739,234.205777 L187.50269,229.950437 C177.980348,224.262087 173.310821,212.570825 173.310821,201.499951 L171.905599,163.184417 C171.879415,162.432961 172.106345,161.698981 172.507837,161.052379 L179.595044,165.150437 C179.20228,165.797039 178.975349,166.522282 179.001534,167.273738 L180.406756,205.589272 C180.406756,216.660146 185.076282,228.351408 194.598624,234.039757 L194.851739,234.197039 L194.98266,234.266942 Z" id="Fill-67" fill="#00BF94"></path>
                <path d="M220.050336,199.012981 L208.706442,205.569 L210.464278,185.026282 C209.107934,184.308903 208.24298,182.541233 208.24298,180.003757 C208.24298,175.480165 210.990582,170.226087 214.378825,168.267058 C217.767068,166.308903 220.513797,168.388515 220.513797,172.911233 C220.513797,175.448709 219.649717,178.215117 218.292499,180.501816 L220.050336,199.012981 Z" id="Fill-69" fill="#375A64"></path>
                <polygon id="Fill-71" fill="#2B454E" points="220.050336 199.012981 209.776505 193.074728 208.706442 205.569"></polygon>
                <path d="M214.379174,168.267058 C212.161367,169.548903 210.225478,172.242786 209.146686,175.218029 L218.292848,180.504437 L218.292848,180.501816 C219.650066,178.215117 220.514146,175.448709 220.514146,172.911233 C220.514146,168.388515 217.767417,166.308903 214.379174,168.267058" id="Fill-73" fill="#2B454E"></path>
                <path d="M87.0156188,314.354883 C90.0093525,312.624786 94.8621686,312.624786 97.8559023,314.354883 C100.849636,316.084981 100.849636,318.889835 97.8559023,320.620806 C94.8621686,322.350903 90.0093525,322.350903 87.0156188,320.620806 C84.0218851,318.889835 84.0218851,316.084981 87.0156188,314.354883 M72.4894093,318.344592 L72.4894093,321.760223 C72.4754994,325.77265 75.1174912,329.789447 80.4154398,332.851194 C88.3929109,337.462165 100.110367,338.586728 109.922482,336.235369 L119.035477,341.502553 L126.037148,339.917505 L130.815775,342.680417 L131.075872,348.462262 L133.650658,349.95032 L140.116424,350.519155 L144.763258,353.114301 L144.763258,356.373524 L150.594492,359.743718 L165.423511,359.743718 L170.738916,356.673233 L170.738916,353.226146 L123.311367,329.260806 C125.496007,326.940029 126.592254,324.368476 126.597491,321.796922 L126.596618,318.344592 C125.883534,315.011971 123.109748,313.292359 118.68199,310.733039 C108.114895,304.625272 90.9816613,304.625272 80.4154398,310.733039 C75.6638695,313.47935 72.9686363,314.754204 72.4894093,318.344592" id="Fill-75" fill="#00DFBF"></path>
                <path d="M87.0156188,314.354883 C90.0093525,312.624786 94.8621686,312.624786 97.8559023,314.354883 C100.849636,316.084981 100.849636,318.889835 97.8559023,320.620806 C94.8621686,322.350903 90.0093525,322.350903 87.0156188,320.620806 C84.0218851,318.889835 84.0218851,316.084981 87.0156188,314.354883 M72.4894093,318.344592 L72.4894093,321.760223 C72.4754994,325.77265 75.1174912,329.789447 80.4154398,332.851194 C88.3929109,337.462165 100.110367,338.586728 109.922482,336.235369 L119.035477,341.502553 L126.037148,339.917505 L130.815775,342.680417 L131.075872,348.462262 L133.650658,349.95032 L140.116424,350.519155 L144.763258,353.114301 L144.763258,356.373524 L150.594492,359.743718 L165.423511,359.743718 L170.738916,356.673233 L170.738916,353.226146 L123.311367,329.260806 C125.496007,326.940029 126.592254,324.368476 126.597491,321.796922 L126.596618,318.344592 C125.883534,315.011971 123.109748,313.292359 118.68199,310.733039 C108.114895,304.625272 90.9816613,304.625272 80.4154398,310.733039 C75.6638695,313.47935 72.9686363,314.754204 72.4894093,318.344592" id="Fill-77" fill="#0EFFC9"></path>
                <path d="M87.0156188,310.907534 C90.0093525,309.177437 94.8621686,309.177437 97.8559023,310.907534 C100.849636,312.637631 100.849636,315.442485 97.8559023,317.173456 C94.8621686,318.903553 90.0093525,318.903553 87.0156188,317.173456 C84.0218851,315.442485 84.0218851,312.637631 87.0156188,310.907534 M80.4154398,329.403845 C88.3929109,334.014816 100.110367,335.139379 109.922482,332.788019 L119.035477,338.055204 L126.037148,336.470155 L130.815775,339.233068 L131.075872,345.014913 L133.650658,346.502971 L140.116424,347.071806 L145.157767,349.887146 L144.763258,352.926175 L150.594492,356.296369 L165.423511,356.296369 L170.738916,353.225883 L123.311367,325.813456 C128.897342,319.88132 127.36469,312.303845 118.68199,307.285689 C108.114895,301.177922 90.9816613,301.177922 80.4154398,307.285689 C69.8474726,313.393456 69.8483454,323.296078 80.4154398,329.403845" id="Fill-79" fill="#00E8B4"></path>
                <path d="M99.5486274,306.906816 C93.0479485,306.906816 86.9976389,308.333709 82.5131481,310.924485 C78.8106938,313.065262 76.6871503,315.770505 76.6871503,318.34468 C76.6871503,320.919728 78.8106938,323.624097 82.5140209,325.765748 C86.9976389,328.356524 93.0479485,329.783417 99.5486274,329.783417 C106.049306,329.783417 112.098743,328.356524 116.583234,325.765748 C120.285688,323.624097 122.409232,320.919728 122.409232,318.34468 C122.409232,315.770505 120.285688,313.065262 116.583234,310.924485 C112.098743,308.333709 106.049306,306.906816 99.5486274,306.906816 M99.5486274,330.984 C92.8402201,330.984 86.577818,329.499437 81.9144013,326.805553 C77.8296568,324.443709 75.4879112,321.360117 75.4879112,318.34468 C75.4879112,315.330117 77.8296568,312.24565 81.9135285,309.88468 C86.577818,307.189922 92.8402201,305.706233 99.5486274,305.706233 C106.257035,305.706233 112.519437,307.189922 117.182853,309.88468 C121.266725,312.24565 123.608471,315.330117 123.608471,318.34468 C123.608471,321.360117 121.266725,324.443709 117.182853,326.80468 C112.519437,329.499437 106.257035,330.984 99.5486274,330.984" id="Fill-81" fill="#2B454E"></path>
                <path d="M89.8096539,332.932718 L89.8096539,336.378058 C96.2745476,337.818932 103.505767,337.771748 109.922656,336.234757 L109.922656,332.788544 C103.505767,334.325534 96.2745476,334.373592 89.8096539,332.932718" id="Fill-83" fill="#00BF94"></path>
                <polygon id="Fill-85" fill="#00BF94" points="119.035477 338.055117 119.035477 341.503078 126.037148 339.918029 126.037148 336.470942"></polygon>
                <polygon id="Fill-87" fill="#000000" points="130.815863 339.232631 130.815863 342.679718 131.07596 348.462437 131.07596 345.01535"></polygon>
                <polygon id="Fill-89" fill="#00BF94" points="133.650745 346.502883 133.650745 349.949971 140.116512 350.518806 140.116512 347.071718"></polygon>
                <polygon id="Fill-91" fill="#00BF94" points="150.594405 359.743981 165.423424 359.743981 165.423424 356.296893 150.594405 356.296893"></polygon>
                <polygon id="Fill-93" fill="#00BF94" points="170.739178 353.226058 170.739178 356.673146 165.423773 359.743631 165.423773 356.296544 167.7533 354.950039 167.7533 356.438097 169.038947 355.695379 169.038947 354.191592"></polygon>
                <polygon id="Fill-95" fill="#00DFBF" points="169.038772 354.191592 167.753125 354.950039 167.753125 356.438097 169.038772 355.695379"></polygon>
                <polygon id="Fill-97" fill="#2B454E" points="169.038772 354.191592 169.038772 355.695379 120.400637 327.579553 121.687157 326.821107"></polygon>
                <polygon id="Fill-99" fill="#00BF94" points="121.687157 326.821282 121.687157 328.325068 120.400637 327.579728"></polygon>
                <path d="M333.124268,225.046573 C333.736107,202.288806 331.913682,196.834631 325.861627,192.664922 L323.517263,205.852107 C323.517263,205.852107 326.273593,221.392398 325.977711,226.567835 C325.718486,231.115019 325.275972,236.803369 324.202418,240.479388 C324.012145,241.130359 323.57225,241.678223 322.997942,242.038223 C321.456562,243.003757 320.835122,243.994631 319.675159,245.210942 C318.766565,246.163369 317.992384,246.400165 318.111959,246.703369 C318.265573,247.092204 318.91407,247.723078 320.027774,247.383175 C320.588117,247.211913 321.311675,246.773272 322.21416,246.195699 C322.21416,246.195699 321.569154,248.091816 319.975405,250.048223 C317.813458,252.701039 317.719195,254.329777 322.082366,254.368484 C324.816002,254.392689 326.998024,252.704534 329.055234,246.672786 C329.647871,244.935699 330.575667,242.192883 330.977159,239.900068 C332.02191,233.931233 333.02564,228.709485 333.124268,225.046573" id="Fill-101" fill="#FFAAA9"></path>
                <g id="Group-105" transform="translate(320.320776, 190.229417)">
                    <mask id="mask-6" fill="white">
                        <use xlink:href="#path-5"></use>
                    </mask>
                    <g id="Clip-104"></g>
                    <path d="M0.448623648,0.707417476 C3.33762029,0.288 7.26438642,0.894407767 9.80076837,5.43634951 C12.3371503,9.97741748 12.9585901,17.7899417 13.2483626,25.5587767 C13.2483626,25.5587767 8.20963819,29.7774175 2.16543827,27.7030485 L0.448623648,0.707417476 Z" id="Fill-103" fill="#00DFBF" mask="url(#mask-6)"></path>
                </g>
                <g id="Group-108" transform="translate(320.320776, 190.229417)">
                    <mask id="mask-8" fill="white">
                        <use xlink:href="#path-7"></use>
                    </mask>
                    <g id="Clip-107"></g>
                    <path d="M0.448623648,0.707417476 C3.33762029,0.288 7.26438642,0.894407767 9.80076837,5.43634951 C12.3371503,9.97741748 12.9585901,17.7899417 13.2483626,25.5587767 C13.2483626,25.5587767 8.20963819,29.7774175 2.16543827,27.7030485 L0.448623648,0.707417476 Z" id="Fill-106" fill="#2B454E" mask="url(#mask-8)"></path>
                </g>
                <path d="M329.268636,316.108922 C329.72686,316.282806 329.842944,317.157466 329.912768,318.896301 C329.965137,320.213097 330.247054,322.510282 328.706547,322.969019 C327.167785,323.427757 324.911575,323.193583 323.924428,321.952806 C322.692895,320.404456 321.860236,319.04135 320.102399,317.152223 C318.577602,315.513874 316.927994,313.983874 316.312664,311.685816 C315.756685,309.608825 316.219273,308.707951 317.634969,308.104165 C319.581332,307.274068 322.638781,309.987175 324.164451,310.413583 C325.478028,310.781447 328.809538,315.935039 329.268636,316.108922" id="Fill-109" fill="#1A2E35"></path>
                <path d="M329.268636,314.498709 L329.268636,316.634243 C329.268636,316.634243 327.049956,318.339874 323.878169,316.780165 C323.784779,316.573951 323.318699,313.725408 323.318699,313.725408 L329.268636,314.498709 Z" id="Fill-111" fill="#FFAAA9"></path>
                <path d="M311.994007,328.41568 C311.994007,328.41568 312.605846,330.272476 312.935767,331.896845 C313.19761,333.187427 313.57379,335.34568 313.121675,336.316456 C312.669561,337.288107 310.908233,337.914612 308.177214,337.893641 C306.408904,337.880534 303.652574,339.082864 301.764689,340.137524 C299.815708,341.226262 295.761511,341.65966 293.699937,341.417621 C291.270038,341.131893 288.752858,339.720728 288.360094,338.714126 C287.96733,337.70665 288.48927,336.660728 294.214894,334.217621 C294.267263,334.194903 302.175782,331.620728 304.946077,328.559854 L311.994007,328.41568 Z" id="Fill-113" fill="#1A2E35"></path>
                <path d="M311.99405,326.107136 C311.99405,326.107136 311.986151,327.691311 311.99405,328.597427 C312.001862,329.50267 310.933544,330.85267 308.167614,330.753932 C306.225614,330.684029 304.86927,330.161505 304.946077,328.559854 L304.946077,326.251311 L311.99405,326.107136 Z" id="Fill-115" fill="#FFAAA9"></path>
                <path d="M330.65579,286.159544 C329.679117,279.182359 328.136865,275.037117 328.136865,275.037117 C328.136865,275.037117 328.897954,265.442068 329.263661,256.344204 C329.65817,246.516728 329.242713,234.164883 329.429494,231.713039 C329.429494,231.713039 297.755268,225.296825 297.189688,236.656922 C296.624981,248.017019 298.440423,276.934107 298.814858,281.924301 C299.189293,286.915369 300.050755,291.328864 301.080669,299.416631 C302.096618,307.400417 304.946339,326.251485 304.946339,326.251485 C308.564131,328.209641 311.994269,326.107311 311.994269,326.107311 C311.994269,326.107311 314.222549,303.393233 313.989509,297.634107 C313.703228,290.602748 311.807488,285.066437 311.807488,285.066437 C311.807488,285.066437 312.408853,275.699447 312.938648,267.551388 C313.469315,259.404204 314.030531,255.490515 314.153597,251.946437 L314.836134,251.608282 C314.836134,251.608282 315.530016,265.66401 315.904451,270.655078 C316.278886,275.645272 317.072269,280.430126 318.514149,289.699252 C319.764884,297.740709 323.490904,314.755078 323.490904,314.755078 C327.109569,316.713233 329.268897,314.499058 329.268897,314.499058 C329.268897,314.499058 331.632463,293.136728 330.65579,286.159544" id="Fill-117" fill="#2B454E"></path>
                <path d="M314.153859,251.946612 C314.153859,251.946612 321.837194,248.156126 325.682789,244.737 C325.682789,244.737 322.113001,249.774379 317.425146,252.006903 C317.425146,252.006903 315.758081,269.467777 315.766809,269.121757 L314.804101,251.920398 L314.153859,251.946612 Z" id="Fill-119" fill="#1A2E35"></path>
                <polygon id="Fill-121" fill="#FFAAA9" points="307.314967 187.338495 309.188887 197.665777 318.506992 196.985097 316.551028 185.278107"></polygon>
                <path d="M328.348521,196.23032 C327.425962,193.421971 323.867521,190.36634 320.306462,191.027796 C313.764761,192.244107 308.575913,193.545175 304.71199,194.926631 C301.452922,196.092262 298.482754,198.912845 298.213056,209.648184 C298.213056,209.648184 297.1203,234.676049 297.101098,239.515951 C305.288043,242.759447 313.801419,242.658961 318.507603,241.629641 C328.304007,239.487117 329.48579,235.418767 329.48579,235.418767 C329.48579,235.418767 329.612348,217.421388 329.318211,209.648184 C329.069461,203.044981 328.98218,198.158767 328.348521,196.23032" id="Fill-123" fill="#00DFBF"></path>
                <path d="M328.348521,196.23032 C327.425962,193.421971 323.867521,190.36634 320.306462,191.027796 C313.764761,192.244107 308.575913,193.545175 304.71199,194.926631 C301.452922,196.092262 298.482754,198.912845 298.213056,209.648184 C298.213056,209.648184 297.1203,234.676049 297.101098,239.515951 C305.288043,242.759447 313.801419,242.658961 318.507603,241.629641 C328.304007,239.487117 329.48579,235.418767 329.48579,235.418767 C329.48579,235.418767 329.612348,217.421388 329.318211,209.648184 C329.069461,203.044981 328.98218,198.158767 328.348521,196.23032" id="Fill-125" fill="#ECECEC"></path>
                <path d="M300.12538,174.776942 C300.12538,174.776942 297.762687,178.548204 298.048968,178.90733 C298.336122,179.266456 300.143709,179.554806 300.143709,179.554806 L300.12538,174.776942 Z" id="Fill-127" fill="#FFAAA9"></path>
                <path d="M306.687679,164.342709 C301.759802,165.499602 300.379018,167.710282 300.090119,175.594456 C299.788127,183.833388 300.685374,186.400573 301.789477,187.484068 C302.535728,188.214553 306.588179,188.259117 308.618332,187.64834 C311.159951,186.885524 316.892558,184.704553 319.50662,180.50601 C322.579779,175.564748 323.268425,168.947563 319.798138,166.316592 C314.916519,162.615233 308.692521,163.871738 306.687679,164.342709" id="Fill-129" fill="#FFAAA9"></path>
                <path d="M300.144145,166.393223 C301.590389,168.872155 304.729009,170.05701 304.729009,170.05701 C305.673388,171.134388 305.153194,175.337301 306.816768,176.004874 C306.816768,176.004874 307.530725,172.945748 310.099401,173.269922 C312.685533,173.596718 313.1071,176.877786 311.528189,178.911961 C309.948405,180.94701 308.417499,180.214777 308.417499,180.214777 C308.417499,180.214777 308.595552,184.560117 310.574209,186.977883 C310.574209,186.977883 312.779796,187.637592 316.785988,186.687786 C319.249054,186.104097 322.679192,182.927883 324.076559,179.615359 C327.032762,172.607592 327.110442,166.360019 322.64428,164.589728 C322.093537,161.403029 319.547555,160.026816 316.666413,159.432641 C310.465108,158.152544 306.467644,162.026913 301.693381,161.690505 C298.960617,161.498272 298.450024,163.489631 300.144145,166.393223" id="Fill-131" fill="#1A2E35"></path>
                <path d="M322.74474,165.657233 L325.667776,163.842379 C325.166784,163.034126 324.107194,162.785097 323.299846,163.28665 C322.492498,163.788204 322.243748,164.848981 322.74474,165.657233" id="Fill-133" fill="#1A2E35"></path>
                <path d="M265.310265,213.517049 C266.842917,214.199476 284.896091,227.556175 287.710899,226.000835 C290.525707,224.445495 304.967199,207.55433 304.967199,207.55433 C309.161044,200.598117 304.967199,194.883553 304.967199,194.883553 C304.967199,194.883553 300.336076,195.739864 297.914905,199.407146 C295.494606,203.074427 285.027885,216.215301 285.027885,216.215301 C282.442626,214.919476 279.866095,213.606175 277.299164,212.276272 C275.184349,211.17967 273.064297,210.083942 270.993122,208.905204 C270.476419,208.610738 269.793883,208.32501 269.365334,207.90035 C268.345021,206.889379 268.519582,204.44365 268.538784,203.113748 C268.547512,202.492485 268.55624,201.868602 268.628683,201.251709 C268.716837,200.491515 268.861723,198.631223 267.495778,199.221903 C267.232189,199.336369 267.019224,199.543456 266.84379,199.770641 C266.628206,200.050252 266.462372,200.367437 266.355017,200.702971 C266.096665,201.506854 266.180455,202.387631 265.943051,203.197631 C265.909012,203.315592 265.864498,203.437049 265.775472,203.521806 C265.66288,203.627534 265.497919,203.658117 265.344304,203.653748 C263.354301,203.593456 261.471652,200.802583 260.557822,199.320641 C260.151093,198.660932 259.750474,197.926951 259.048736,197.598408 C257.95947,197.08899 256.652003,197.817728 255.951138,198.795495 C255.057382,200.041515 254.788557,201.659767 254.964864,203.18365 C255.210123,205.295592 256.019217,207.249379 257.558851,208.686757 C259.893614,210.865981 262.429123,212.235204 265.310265,213.517049" id="Fill-135" fill="#FFAAA9"></path>
                <path d="M306.437969,194.338136 C304.446219,194.567942 301.138275,194.718233 297.897536,198.392505 C294.108674,202.688913 289.117954,209.702796 289.117954,209.702796 C289.117954,209.702796 290.472553,216.505223 297.849532,217.932117 C297.849532,217.932117 304.681005,210.925223 306.581109,207.067456 C308.480341,203.209689 308.783206,196.942019 306.437969,194.338136" id="Fill-137" fill="#00DFBF"></path>
                <path d="M306.437969,194.338136 C304.446219,194.567942 301.138275,194.718233 297.897536,198.392505 C294.108674,202.688913 289.117954,209.702796 289.117954,209.702796 C289.117954,209.702796 290.472553,216.505223 297.849532,217.932117 C297.849532,217.932117 304.681005,210.925223 306.581109,207.067456 C308.480341,203.209689 308.783206,196.942019 306.437969,194.338136" id="Fill-139" fill="#2B454E"></path>
            </g>
        </g>
    </g>
</svg>