<?xml version="1.0" encoding="UTF-8"?>
<svg width="324px" height="309px" viewBox="0 0 324 309" version="1.1" xmlns="http://www.w3.org/2000/svg" xmlns:xlink="http://www.w3.org/1999/xlink">
    <!-- Generator: Sketch 57.1 (83088) - https://sketch.com -->
    <title>privacy-icon-3</title>
    <desc>Created with Sketch.</desc>
    <defs>
        <polygon id="path-1" points="0 0.225879543 55.1769115 0.225879543 55.1769115 46.5144017 0 46.5144017"></polygon>
        <polygon id="path-3" points="0.686902012 0.703985875 155.559127 0.703985875 155.559127 308.069671 0.686902012 308.069671"></polygon>
    </defs>
    <g id="Page-1" stroke="none" stroke-width="1" fill="none" fill-rule="evenodd">
        <g id="Home-2-Copy-7" transform="translate(-135.000000, -3376.000000)">
            <g id="privacy-icon-3" transform="translate(135.000000, 3376.000000)">
                <g id="Group-15" transform="translate(0.000000, 218.679055)">
                    <path d="M50.5637552,47.8538623 C49.9802899,40.5955542 46.6568716,28.6732579 38.2176297,17.3278921 C29.1865206,5.18621288 18.1753638,-2.41190546 9.99378013,1.14209829 C2.37512381,4.45244694 5.2644439,14.9660246 18.3760758,25.3395706 C27.5761564,32.6184168 37.1179143,42.0882917 42.244007,53.5260784 L50.5637552,68.079103 L50.5637552,47.8538623 Z" id="Fill-4" fill="#00DFBF"></path>
                    <path d="M50.5637552,47.8538623 C49.9802899,40.5955542 46.6568716,28.6732579 38.2176297,17.3278921 C29.1865206,5.18621288 18.1753638,-2.41190546 9.99378013,1.14209829 C2.37512381,4.45244694 5.2644439,14.9660246 18.3760758,25.3395706 C27.5761564,32.6184168 37.1179143,42.0882917 42.244007,53.5260784 L50.5637552,68.079103 L50.5637552,47.8538623 Z" id="Fill-6" fill="#00BF94"></path>
                    <path d="M49.827562,53.3863268 C49.6175145,53.3863268 49.4186695,53.2565641 49.3430524,53.0465166 C42.0343329,32.9239659 26.8156911,12.5614942 13.9421131,5.68313859 C13.6900561,5.54870819 13.5957681,5.2359708 13.7292649,4.98484734 C13.8655624,4.73185679 14.1773663,4.63943589 14.4275562,4.77293275 C27.4999792,11.7586459 42.9268014,32.360105 50.3130051,52.6936368 C50.4100937,52.9615641 50.2719292,53.2584312 50.0040019,53.3545863 C49.9451886,53.3760578 49.8863753,53.3863268 49.827562,53.3863268" id="Fill-8" fill="#FFFFFF"></path>
                    <g id="Group-12" transform="translate(0.000000, 32.674056)">
                        <mask id="mask-2" fill="white">
                            <use xlink:href="#path-1"></use>
                        </mask>
                        <g id="Clip-11"></g>
                        <path d="M49.8280288,39.9825889 C49.8280288,39.9825889 44.4405437,44.7670042 35.2656688,46.2195994 C26.0907939,47.6721946 22.041078,43.2845356 22.041078,43.2845356 C22.041078,43.2845356 25.653895,34.6791228 30.8649402,32.2649768 C30.8649402,32.2649768 22.030809,34.0657841 14.9405389,38.7960539 C14.9405389,38.7960539 9.33833856,38.8810064 7.10810085,30.3306727 C7.10810085,30.3306727 10.4277849,25.1849757 21.5649703,22.4048803 C21.5649703,22.4048803 14.7893047,20.6992945 5.02536317,23.1899912 C4.29253077,23.481257 1.17169165,12.42529 0.227878202,7.32533665 C-0.716868789,2.22444973 1.33319484,2.27766177 5.30916068,1.21622172 C9.28606007,0.154781671 22.8261889,-0.512702616 25.315952,1.67459205 C27.8047815,3.86095317 29.0697342,11.3395778 29.0697342,11.3395778 C29.0697342,11.3395778 31.4502726,7.10782079 30.8808105,3.33069992 C30.8808105,3.33069992 34.8726466,1.97612691 39.3405903,3.53327906 C43.8076006,5.09043122 43.5238031,7.26745689 43.5238031,10.5180587 C43.5238031,13.9936447 43.1802587,16.3013666 42.1851003,20.1970476 C42.1851003,20.1970476 45.2695312,17.5271105 45.3787559,7.68848544 C45.3787559,7.68848544 51.4159879,12.8547205 53.8404029,17.2955915 C56.2657514,21.737396 55.6505456,33.3553568 49.8280288,39.9825889" id="Fill-10" fill="#00E8B4" mask="url(#mask-2)"></path>
                    </g>
                    <path d="M49.827562,73.1721481 C49.6361854,73.1721481 49.4522771,73.0647905 49.3626569,72.8799487 C41.9596493,57.4979367 14.4322239,39.6242945 4.57212734,37.7067942 C4.29393109,37.6526486 4.11002283,37.3819207 4.16416841,37.1009238 C4.21924753,36.821794 4.49277606,36.64162 4.77003876,36.6929649 C14.7925721,38.6431393 42.771833,56.8052467 50.2924671,72.4327809 C50.415695,72.6895056 50.3083374,72.9975753 50.0516127,73.1208032 C49.9787962,73.1562779 49.9031791,73.1721481 49.827562,73.1721481" id="Fill-13" fill="#FFFFFF"></path>
                </g>
                <polygon id="Fill-16" fill="#2B454E" points="47.9245316 128.168652 47.9245316 295.759487 204.324035 205.462399 204.323102 54.2095263 97.4826727 115.834663 93.4730993 101.811892"></polygon>
                <polygon id="Fill-17" fill="#F0F0F0" points="47.9245316 295.759487 55.9436785 148.595539 212.342249 58.2993846 204.324035 205.462399"></polygon>
                <polygon id="Fill-18" fill="#375A64" points="47.9245316 295.759487 62.0836004 152.693799 218.48217 62.3967112 204.324035 205.462399"></polygon>
                <g id="Group-56" transform="translate(113.892424, 0.229652)">
                    <path d="M1.73135155,307.524668 C1.29631983,307.524668 1.23190527,307.022421 1.23190527,306.722753 L1.23190527,91.4119264 C1.23190527,90.4018313 1.97127248,89.1210083 2.84600363,88.6159608 L153.944842,1.43317745 C154.153956,1.31275022 154.350934,1.24833565 154.515237,1.24833565 C154.950269,1.24833565 155.014684,1.75151611 155.014684,2.05118388 L155.014684,217.361077 C155.014684,218.372106 154.275317,219.652929 153.400585,220.157976 L2.30081367,307.340759 C2.09169971,307.461187 1.89472183,307.524668 1.73135155,307.524668" id="Fill-19" fill="#FAFAFA"></path>
                    <g id="Group-23">
                        <mask id="mask-4" fill="white">
                            <use xlink:href="#path-3"></use>
                        </mask>
                        <g id="Clip-22"></g>
                        <path d="M154.515424,0.703985875 C154.262434,0.703985875 153.975835,0.786137788 153.672434,0.961644146 L2.57359536,88.1444275 C1.53175975,88.7456301 0.686902012,90.2084943 0.686902012,91.4127666 L0.686902012,306.72266 C0.686902012,307.575919 1.11166474,308.069764 1.73060472,308.069764 C1.98452881,308.069764 2.27112696,307.986679 2.57359536,307.812106 L153.672434,220.629323 C154.714269,220.02812 155.559127,218.564322 155.559127,217.360984 L155.559127,2.05109053 C155.559127,1.19689735 155.134364,0.703985875 154.515424,0.703985875 M154.443541,1.80556834 C154.457544,1.85784682 154.46968,1.93813165 154.46968,2.05109053 L154.46968,217.360984 C154.46968,218.172234 153.830203,219.280351 153.128177,219.685509 L2.02933894,306.868293 C1.92851614,306.926172 1.85289904,306.955112 1.80342118,306.968182 C1.78941802,306.915903 1.77634839,306.834685 1.77634839,306.72266 L1.77634839,91.4127666 C1.77634839,90.6015165 2.41582635,89.4933992 3.11878532,89.0873074 L154.217623,1.90545759 C154.318446,1.84664429 154.39313,1.81863796 154.443541,1.80556834" id="Fill-21" fill="#E7E7E7" mask="url(#mask-4)"></path>
                    </g>
                    <polygon id="Fill-24" fill="#00E8B4" points="13.9622776 96.8978071 58.2113514 71.3504295 58.2113514 122.445185 13.9622776 147.992562"></polygon>
                    <path d="M67.0617262,68.7961585 C67.0617262,70.2067442 68.3285461,70.6193708 69.892233,69.7166333 L139.454365,29.6087628 C141.017118,28.7060253 142.284872,26.8305345 142.284872,25.4199488 C142.284872,24.0084296 141.017118,23.5967365 139.454365,24.4985404 L69.8912995,64.6073445 C68.3285461,65.5091484 67.0617262,67.3846393 67.0617262,68.7961585" id="Fill-30" fill="#E1E1E1"></path>
                    <path d="M67.0617262,84.1240249 C67.0617262,85.5355441 68.3285461,85.9472373 69.892233,85.0454333 L139.454365,44.9366292 C141.017118,44.0348253 142.284872,42.1593345 142.284872,40.7478153 C142.284872,39.3372296 141.017118,38.9246029 139.454365,39.8273404 L69.8912995,79.9352109 C68.3285461,80.8379484 67.0617262,82.7134393 67.0617262,84.1240249" id="Fill-32" fill="#E1E1E1"></path>
                    <path d="M67.0617262,99.4527316 C67.0617262,100.863317 68.3285461,101.275944 69.892233,100.373206 L139.454365,60.2653359 C141.017118,59.3625984 142.284872,57.4871076 142.284872,56.0765219 C142.284872,54.6650027 141.017118,54.2533096 139.454365,55.1551135 L69.8912995,95.2639176 C68.3285461,96.1657215 67.0617262,98.0412123 67.0617262,99.4527316" id="Fill-34" fill="#E1E1E1"></path>
                    <path d="M67.0617262,114.780971 C67.0617262,116.192491 68.3285461,116.604184 69.892233,115.701446 L139.454365,75.5935757 C141.017118,74.6917718 142.284872,72.8153474 142.284872,71.4047618 C142.284872,69.9932425 141.017118,69.5815494 139.454365,70.4842869 L69.8912995,110.592157 C68.3285461,111.493961 67.0617262,113.370386 67.0617262,114.780971" id="Fill-36" fill="#E1E1E1"></path>
                    <path d="M13.9622776,160.771292 C13.9622776,162.181878 15.2290974,162.594505 16.7927844,161.691767 L139.454925,90.9225624 C141.017678,90.0198249 142.284498,88.1452677 142.284498,86.7337485 C142.284498,85.3231628 141.017678,84.9105361 139.454925,85.8132736 L16.7918509,156.582478 C15.2290974,157.484282 13.9622776,159.359773 13.9622776,160.771292" id="Fill-38" fill="#E1E1E1"></path>
                    <path d="M13.9622776,176.099532 C13.9622776,177.510118 15.2290974,177.922744 16.7927844,177.020007 L139.454925,106.250802 C141.017678,105.348065 142.284498,103.473508 142.284498,102.061988 C142.284498,100.651403 141.017678,100.238776 139.454925,101.141513 L16.7918509,171.910718 C15.2290974,172.812522 13.9622776,174.688013 13.9622776,176.099532" id="Fill-40" fill="#E1E1E1"></path>
                    <path d="M13.9622776,191.427772 C13.9622776,192.838358 15.2290974,193.250984 16.7927844,192.348247 L139.454925,121.579042 C141.017678,120.676305 142.284498,118.801747 142.284498,117.390228 C142.284498,115.979643 141.017678,115.567016 139.454925,116.469753 L16.7918509,187.238958 C15.2290974,188.140762 13.9622776,190.017186 13.9622776,191.427772" id="Fill-42" fill="#E1E1E1"></path>
                    <path d="M13.9622776,206.753771 C13.9622776,208.164357 15.2290974,208.576984 16.7927844,207.674246 L139.454925,136.905042 C141.017678,136.002304 142.284498,134.126813 142.284498,132.716228 C142.284498,131.304708 141.017678,130.893015 139.454925,131.795753 L16.7918509,202.564957 C15.2290974,203.466761 13.9622776,205.342252 13.9622776,206.753771" id="Fill-44" fill="#E1E1E1"></path>
                    <path d="M13.9622776,222.079304 C13.9622776,223.48989 15.2290974,223.902516 16.7927844,222.999779 L139.454925,152.230574 C141.017678,151.327837 142.284498,149.452346 142.284498,148.04176 C142.284498,146.631174 141.017678,146.218548 139.454925,147.121285 L16.7918509,217.89049 C15.2290974,218.792294 13.9622776,220.667785 13.9622776,222.079304" id="Fill-46" fill="#E1E1E1"></path>
                    <path d="M13.9622776,237.404837 C13.9622776,238.816356 15.2290974,239.228049 16.7927844,238.325311 L139.454925,167.556107 C141.017678,166.654303 142.284498,164.778812 142.284498,163.367293 C142.284498,161.956707 141.017678,161.54408 139.454925,162.446818 L16.7918509,233.216023 C15.2290974,234.11876 13.9622776,235.994251 13.9622776,237.404837" id="Fill-48" fill="#E1E1E1"></path>
                    <path d="M13.9622776,252.730836 C13.9622776,254.141422 15.2290974,254.554048 16.7927844,253.651311 L139.454925,182.882106 C141.017678,181.979369 142.284498,180.103878 142.284498,178.693292 C142.284498,177.281773 141.017678,176.87008 139.454925,177.772817 L16.7918509,248.542022 C15.2290974,249.443826 13.9622776,251.319317 13.9622776,252.730836" id="Fill-50" fill="#E1E1E1"></path>
                    <path d="M13.9622776,268.056369 C13.9622776,269.466954 15.2290974,269.879581 16.7927844,268.976843 L139.454925,198.207639 C141.017678,197.304901 142.284498,195.430344 142.284498,194.018825 C142.284498,192.608239 141.017678,192.195612 139.454925,193.09835 L16.7918509,263.867555 C15.2290974,264.769358 13.9622776,266.644849 13.9622776,268.056369" id="Fill-52" fill="#E1E1E1"></path>
                    <path d="M13.9622776,283.381901 C13.9622776,284.79342 15.2290974,285.205113 16.7927844,284.302376 L139.454925,213.533171 C141.017678,212.631367 142.284498,210.755876 142.284498,209.344357 C142.284498,207.933772 141.017678,207.521145 139.454925,208.423882 L16.7918509,279.193087 C15.2290974,280.095825 13.9622776,281.971315 13.9622776,283.381901" id="Fill-54" fill="#E1E1E1"></path>
                </g>
                <g id="Group-81" transform="translate(203.512692, 88.916375)">
                    <path d="M113.254346,84.3027053 C113.254346,75.3658842 117.732559,68.9421648 117.732559,68.9421648 L117.732559,60.2714039 C117.732559,59.1483499 117.361008,58.3417675 116.756071,57.9179383 L116.756071,57.9179383 C116.671119,57.8581915 116.580565,57.8068465 116.487211,57.76297 L88.3119054,41.4912901 C88.304437,41.4866223 88.2969687,41.4819546 88.2895003,41.4772869 L88.2605604,41.4604831 L88.2596269,41.4632837 C87.5800065,41.0945337 86.654864,41.1580147 85.6326328,41.7480148 L63.4609519,54.5487764 C61.3772807,55.7521152 59.8882773,58.6750429 59.7930557,61.080787 C59.5400652,67.4307564 57.4619952,79.182214 46.2529269,85.6535442 C34.967308,92.1696845 32.9368488,82.647531 32.7071968,76.5934952 C32.6157095,74.1886847 31.1276396,73.2159314 29.0439684,74.4192702 L6.87135398,87.2200318 C4.78768275,88.4243041 3.09796728,91.3500324 3.09796728,93.7567101 L3.09796728,102.427471 C3.09796728,102.427471 7.57618004,103.679354 7.57618004,112.617109 C7.57618004,121.554863 0.654881437,137.781733 0.654881437,160.286689 C0.654881437,171.555505 4.22848962,180.9703 11.7313864,185.291678 L11.7313864,185.293545 L39.9150936,201.556823 L39.9197613,201.553089 C47.398386,205.952884 58.8296379,205.248058 74.5794664,196.155335 C105.926022,178.056708 120.176578,146.485168 120.176578,123.980212 C120.176578,101.476189 113.254346,93.24046 113.254346,84.3027053" id="Fill-57" fill="#00E8B4"></path>
                    <path d="M85.6318859,41.7456809 L63.4611386,54.5473761 C61.3793345,55.7497813 59.888464,58.6783103 59.7923089,61.0831208 C59.5570557,66.9308433 57.779587,77.3716045 48.7251394,84.02871 L31.6702157,74.1816831 L31.583396,74.1294046 C30.9467187,73.7634552 30.0673198,73.8241356 29.0469557,74.4169363 L6.86780651,87.2186314 C6.56347102,87.3932043 6.27593932,87.6023182 5.99680953,87.8459733 C5.29945182,88.4303722 4.68051185,89.1884103 4.20160354,90.0342015 C3.52104963,91.2188694 3.09441981,92.5519709 3.09441981,93.7543762 L3.09441981,102.426071 C3.11215716,102.434473 4.32389786,103.13183 4.32389786,103.13183 C5.66540125,104.221277 7.57449966,106.774521 7.57449966,112.613841 C7.57449966,121.554397 0.654134601,137.781266 0.654134601,160.283422 C0.654134601,171.551304 4.22774278,180.971701 11.7315731,185.294012 L39.8480651,201.512479 C32.4833329,197.13789 28.9806741,187.794977 28.9806741,176.631652 C28.9806741,154.13043 35.9001056,137.903561 35.9001056,128.962072 C35.9001056,120.021517 31.4209593,118.775235 31.4209593,118.775235 L31.4209593,110.10354 C31.4209593,108.901135 31.8391872,107.568034 32.5272095,106.382432 C33.2077634,105.197764 34.1571781,104.168998 35.194346,103.567796 L57.3725617,90.7661004 C58.3490492,90.1994389 59.1948404,90.1126193 59.8221823,90.4346921 L59.909002,90.4785687 C60.5802204,90.8613219 60.9816445,91.7071132 61.0329895,92.9356577 C61.2598408,98.9924941 63.2903,108.517448 74.5759189,101.998507 C85.7859208,95.5262436 87.8658578,83.776653 88.1188484,77.4266836 C88.215937,75.0228067 89.7030733,72.099879 91.7876781,70.8965402 L113.957492,58.094845 C114.933979,57.5281835 115.822714,57.4497658 116.484597,57.7634367 L88.3158262,41.4926904 C87.5839274,41.0921998 86.6513165,41.1622156 85.6318859,41.7456809" id="Fill-59" fill="#00DFBF"></path>
                    <path d="M4.32371115,103.131737 L4.3414485,103.140139 C4.34704977,103.14574 4.35358458,103.151341 4.35918584,103.156009 L31.4207726,118.775141 L31.4207726,110.103447 C31.4207726,108.901042 31.8390005,107.56794 32.5270228,106.382339 C32.5270228,106.382339 32.5270228,106.382339 32.5279563,106.381405 L4.19954974,90.0369088 C3.52179647,91.2206432 3.09516665,92.5518776 3.09516665,93.7533493 L3.09516665,102.425977 L3.11197045,102.434379 L4.32371115,103.131737 Z" id="Fill-61" fill="#00BF94"></path>
                    <path d="M48.7249526,84.0291768 L31.6700289,74.1821499 L31.5832093,74.1298714 C30.946532,73.7629884 30.0671331,73.8246023 29.046769,74.4174031 L6.86855335,87.2190982 C6.56328431,87.393671 6.27575262,87.602785 5.99662282,87.8464401 C5.29926511,88.4299054 4.68032514,89.1879435 4.20141683,90.0337348 L32.5270228,106.382899 C33.2075767,105.197297 34.1579249,104.169465 35.1941593,103.568262 L57.3733085,90.7656336 C58.349796,90.1989721 59.1946537,90.1121525 59.8219956,90.4351589 L48.7249526,84.0291768 Z" id="Fill-63" fill="#0EFFC9"></path>
                    <path d="M116.48441,57.76325 L88.3156395,41.4925037 C87.5837407,41.0920131 86.6511298,41.1620289 85.6316992,41.7454942 L63.4609519,54.5471894 C62.4209834,55.148392 61.5285149,56.1799586 60.8825021,57.3618259 L89.2109087,73.7063223 C89.8550544,72.5263221 90.7465893,71.4966225 91.7874914,70.8963534 L113.957305,58.0946583 C114.933793,57.5279968 115.822527,57.4495791 116.48441,57.76325" id="Fill-65" fill="#0EFFC9"></path>
                    <path d="M89.2073612,73.702308 C88.5632155,74.8795076 88.1711269,76.221011 88.1179148,77.4234162 C87.8658578,83.7771198 85.7831201,95.5239097 74.5759189,101.998974 C63.2903,108.517915 61.2598408,98.9929609 61.0329895,92.9361245 C60.9816445,91.70758 60.5802204,90.8617887 59.909002,90.4781019 L59.8212488,90.4351589 L48.7251394,84.0291768 C57.779587,77.3711377 59.5570557,66.9313101 59.7923089,61.0835876 C59.8361855,59.8811823 60.2366761,58.5480808 60.8817553,57.3624794 L89.2073612,73.702308 Z" id="Fill-67" fill="#00BF94"></path>
                    <path d="M39.8480651,201.512199 L11.7315731,185.293731 C4.22774278,180.971421 0.654134601,171.551023 0.654134601,160.283142 C0.654134601,137.780986 7.57449966,121.55505 7.57449966,112.613561 C7.57449966,106.826519 5.69994239,104.264873 4.35843901,103.158623 L31.4209593,118.774955 C31.4209593,118.774955 35.9001056,120.021237 35.9001056,128.962725 C35.9001056,137.903281 28.9806741,154.131084 28.9806741,176.632306 C28.9806741,187.795631 32.4833329,197.13761 39.8480651,201.512199" id="Fill-69" fill="#00BF94"></path>
                    <path d="M81.0106542,162.986127 L68.8773768,169.990511 L70.7575354,148.04288 C69.3068073,147.27644 68.3816647,145.38788 68.3816647,142.676867 C68.3816647,137.843907 71.3195291,132.230504 74.9444823,130.137498 C78.5685019,128.045425 81.5063663,130.26726 81.5063663,135.099286 C81.5063663,137.8103 80.5821573,140.765901 79.1304956,143.208987 L81.0106542,162.986127 Z" id="Fill-71" fill="#375A64"></path>
                    <polygon id="Fill-73" fill="#2B454E" points="81.0106542 162.986127 70.0219024 156.641758 68.8773768 169.990511"></polygon>
                    <path d="M74.9443889,130.137498 C72.573186,131.507007 70.5016508,134.385125 69.3487234,137.563844 L79.1304023,143.211788 L79.1304023,143.208987 C80.5820639,140.765901 81.5062729,137.8103 81.5062729,135.099286 C81.5062729,130.26726 78.5684085,128.045425 74.9443889,130.137498" id="Fill-75" fill="#2B454E"></path>
                    <path d="M88.6531159,2.53914757 C82.6569598,-0.921501734 75.1148541,-0.535014329 67.9583023,3.59685344 L41.5081872,18.8677737 C30.0470619,25.4847368 21.4024402,40.4559893 21.4024402,53.690849 L21.4024402,89.3951904 C21.4033738,90.8748583 22.3901303,92.3535927 24.3440388,93.482248 C28.2546566,95.7395585 34.594357,95.7395585 38.5040411,93.482248 C40.4588832,92.3535927 41.4465733,90.8748583 41.4465733,89.3951904 L41.4465733,53.690849 C41.4465733,47.5976044 46.2533937,39.2731884 51.529787,36.2260993 L77.9799021,20.9551791 C78.0004401,20.943043 78.020978,20.9318405 78.041516,20.9197044 L78.041516,20.9906538 L78.041516,56.6949951 C78.041516,58.1737295 79.0282725,59.6533975 80.9831146,60.7820527 C84.8937323,63.0393632 91.2334327,63.0393632 95.1431169,60.7820527 C97.0988926,59.6533975 98.0856491,58.1737295 98.0856491,56.6949951 L98.0856491,20.9906538 C98.0856491,12.7250511 94.6474048,5.99979687 88.6531159,2.53914757" id="Fill-77" fill="#2B454E"></path>
                    <path d="M78.0413293,20.9902804 L78.0413293,56.6946217 C78.0413293,58.1742896 79.0290193,59.6530241 80.9829279,60.7826129 C81.8604597,61.288594 82.86402,61.6750814 83.9310613,61.9542112 L83.9310613,17.5202956 L78.0413293,20.9202645 L78.0413293,20.9902804 Z" id="Fill-79" fill="#1A2E35"></path>
                </g>
            </g>
        </g>
    </g>
</svg>