<svg xmlns="http://www.w3.org/2000/svg" xmlns:xlink="http://www.w3.org/1999/xlink" width="116px" height="73px" viewBox="0 0 116 73"><title>01</title><desc>Created with Sketch.</desc><g id="Page-1" stroke="none" stroke-width="1" fill="none" fill-rule="evenodd"><g id="Developer-hub" transform="translate(-128.000000, -2625.000000)" fill="#00E8B4" fill-rule="nonzero"><path d="M155,2697.9 C146.266623,2697.9 139.600023,2694.80003 135,2688.6 C130.399977,2682.39997 128.1,2673.43339 128.1,2661.7 C128.1,2650.16661 130.416643,2641.30003 135.05,2635.1 C139.683357,2628.89997 146.33329,2625.8 155,2625.8 C163.66671,2625.8 170.316643,2628.89997 174.95,2635.1 C179.583357,2641.30003 181.9,2650.16661 181.9,2661.7 C181.9,2673.43339 179.600023,2682.39997 175,2688.6 C170.399977,2694.80003 163.733377,2697.9 155,2697.9 Z M155,2684 C158.200016,2684 160.5,2682.26668 161.9,2678.8 C163.300007,2675.33332 164,2669.63337 164,2661.7 C164,2653.89996 163.300007,2648.28335 161.9,2644.85 C160.5,2641.41665 158.200016,2639.7 155,2639.7 C151.799984,2639.7 149.5,2641.41665 148.1,2644.85 C146.699993,2648.28335 146,2653.89996 146,2661.7 C146,2669.63337 146.699993,2675.33332 148.1,2678.8 C149.5,2682.26668 151.799984,2684 155,2684 Z M228,2682.4 L243.1,2682.4 L243.1,2697 L194.5,2697 L194.5,2682.4 L209.6,2682.4 L209.6,2646.5 L197.7,2653.3 L191.1,2640.1 L215,2626.5 L228,2626.5 L228,2682.4 Z" id="01"></path></g></g></svg>