<svg xmlns="http://www.w3.org/2000/svg" xmlns:xlink="http://www.w3.org/1999/xlink" width="113px" height="73px" viewBox="0 0 113 73"><title>02</title><desc>Created with Sketch.</desc><g id="Page-1" stroke="none" stroke-width="1" fill="none" fill-rule="evenodd"><g id="Developer-hub" transform="translate(-536.000000, -2625.000000)" fill="#00E8B4" fill-rule="nonzero"><path d="M563,2697.9 C554.266623,2697.9 547.600023,2694.80003 543,2688.6 C538.399977,2682.39997 536.1,2673.43339 536.1,2661.7 C536.1,2650.16661 538.416643,2641.30003 543.05,2635.1 C547.683356,2628.89997 554.33329,2625.8 563,2625.8 C571.66671,2625.8 578.316644,2628.89997 582.95,2635.1 C587.583357,2641.30003 589.9,2650.16661 589.9,2661.7 C589.9,2673.43339 587.600023,2682.39997 583,2688.6 C578.399977,2694.80003 571.733377,2697.9 563,2697.9 Z M563,2684 C566.200016,2684 568.5,2682.26668 569.9,2678.8 C571.300007,2675.33332 572,2669.63337 572,2661.7 C572,2653.89996 571.300007,2648.28335 569.9,2644.85 C568.5,2641.41665 566.200016,2639.7 563,2639.7 C559.799984,2639.7 557.5,2641.41665 556.1,2644.85 C554.699993,2648.28335 554,2653.89996 554,2661.7 C554,2669.63337 554.699993,2675.33332 556.1,2678.8 C557.5,2682.26668 559.799984,2684 563,2684 Z M648.6,2682.4 L648.6,2697 L598.9,2697 L598.9,2683.4 L621.9,2659.5 C626.300022,2654.89998 628.5,2650.66669 628.5,2646.8 C628.5,2642.13331 625.733361,2639.8 620.2,2639.8 C617.53332,2639.8 614.650015,2640.34999 611.55,2641.45 C608.449985,2642.55001 605.333349,2644.1 602.2,2646.1 L596.5,2633.1 C599.300014,2630.83332 602.949978,2629.01667 607.45,2627.65 C611.950023,2626.28333 616.53331,2625.6 621.2,2625.6 C626.266692,2625.6 630.716648,2626.41666 634.55,2628.05 C638.383353,2629.68334 641.333323,2631.99998 643.4,2635 C645.466677,2638.00002 646.5,2641.49998 646.5,2645.5 C646.5,2649.56669 645.683341,2653.28332 644.05,2656.65 C642.416659,2660.01668 639.633353,2663.76665 635.7,2667.9 L621.5,2682.4 L648.6,2682.4 Z" id="02"></path></g></g></svg>