<svg xmlns="http://www.w3.org/2000/svg" xmlns:xlink="http://www.w3.org/1999/xlink" width="113px" height="73px" viewBox="0 0 113 73"><title>03</title><desc>Created with Sketch.</desc><g id="Page-1" stroke="none" stroke-width="1" fill="none" fill-rule="evenodd"><g id="Developer-hub" transform="translate(-936.000000, -2625.000000)" fill="#00E8B4" fill-rule="nonzero"><path d="M963,2697.9 C954.266623,2697.9 947.600023,2694.80003 943,2688.6 C938.399977,2682.39997 936.1,2673.43339 936.1,2661.7 C936.1,2650.16661 938.416643,2641.30003 943.05,2635.1 C947.683356,2628.89997 954.33329,2625.8 963,2625.8 C971.66671,2625.8 978.316644,2628.89997 982.95,2635.1 C987.583357,2641.30003 989.9,2650.16661 989.9,2661.7 C989.9,2673.43339 987.600023,2682.39997 983,2688.6 C978.399977,2694.80003 971.733377,2697.9 963,2697.9 Z M963,2684 C966.200016,2684 968.5,2682.26668 969.9,2678.8 C971.300007,2675.33332 972,2669.63337 972,2661.7 C972,2653.89996 971.300007,2648.28335 969.9,2644.85 C968.5,2641.41665 966.200016,2639.7 963,2639.7 C959.799984,2639.7 957.5,2641.41665 956.1,2644.85 C954.699993,2648.28335 954,2653.89996 954,2661.7 C954,2669.63337 954.699993,2675.33332 956.1,2678.8 C957.5,2682.26668 959.799984,2684 963,2684 Z M1035.6,2660.7 C1039.60002,2661.83334 1042.71666,2663.89999 1044.95,2666.9 C1047.18334,2669.90002 1048.3,2673.53331 1048.3,2677.8 C1048.3,2684.00003 1045.85002,2688.88332 1040.95,2692.45 C1036.04998,2696.01668 1029.36671,2697.8 1020.9,2697.8 C1015.89998,2697.8 1011.10002,2697.11667 1006.5,2695.75 C1001.89998,2694.38333 998.233347,2692.56668 995.5,2690.3 L1001.2,2677.3 C1007.4667,2681.50002 1013.7333,2683.6 1020,2683.6 C1024.00002,2683.6 1026.84999,2683.00001 1028.55,2681.8 C1030.25001,2680.6 1031.1,2678.60001 1031.1,2675.8 C1031.1,2673.19999 1030.26668,2671.33334 1028.6,2670.2 C1026.93332,2669.06666 1024.20002,2668.5 1020.4,2668.5 L1009.5,2668.5 L1009.5,2654.3 L1018.6,2654.3 C1022.26669,2654.3 1024.93332,2653.76667 1026.6,2652.7 C1028.26668,2651.63333 1029.1,2649.93334 1029.1,2647.6 C1029.1,2645.13332 1028.31667,2643.21667 1026.75,2641.85 C1025.18333,2640.48333 1022.96668,2639.8 1020.1,2639.8 C1017.29999,2639.8 1014.33335,2640.34999 1011.2,2641.45 C1008.06665,2642.55001 1005.06668,2644.1 1002.2,2646.1 L996.5,2633.1 C999.300014,2630.83332 1002.98331,2629.01667 1007.55,2627.65 C1012.11669,2626.28333 1016.76664,2625.6 1021.5,2625.6 C1026.50003,2625.6 1030.88331,2626.39999 1034.65,2628 C1038.41669,2629.6 1041.33332,2631.86665 1043.4,2634.8 C1045.46668,2637.73335 1046.5,2641.13331 1046.5,2645 C1046.5,2648.73335 1045.55001,2651.96665 1043.65,2654.7 C1041.74999,2657.43335 1039.06668,2659.43333 1035.6,2660.7 Z" id="03"></path></g></g></svg>