<svg xmlns="http://www.w3.org/2000/svg" xmlns:xlink="http://www.w3.org/1999/xlink" width="532px" height="537px" viewBox="0 0 532 537"><title>developer-hub-visual</title><desc>Created with Sketch.</desc><g id="Page-1" stroke="none" stroke-width="1" fill="none" fill-rule="evenodd"><g id="Developer-hub" transform="translate(-774.000000, -226.000000)"><g id="developer-hub-visual" transform="translate(1056.902595, 501.767493) scale(1, -1) rotate(-7.000000) translate(-1056.902595, -501.767493) translate(782.402595, 240.767493)"><polygon id="Polygon-Copy" stroke="#FFFFFF" stroke-width="2" transform="translate(66.893747, 496.525263) rotate(8.000000) translate(-66.893747, -496.525263) " points="66.8937472 481.559626 79.8543688 489.042444 79.8543688 504.008081 66.8937472 511.4909 53.9331256 504.008081 53.9331256 489.042444"></polygon><path d="M68.8613103,482.04519 L67.4469256,495.0921" id="Line-Copy" stroke="#FFFFFF" stroke-width="2" stroke-linecap="square"></path><path d="M67.4469256,495.769514 L53.5215327,501.874659" id="Line-2-Copy-2" stroke="#FFFFFF" stroke-width="2" stroke-linecap="square"></path><path d="M67.4469256,495.769514 L78.2148333,504.867786" id="Line-2-Copy-3" stroke="#FFFFFF" stroke-width="2" stroke-linecap="square"></path><polygon id="Polygon" stroke="#FFFFFF" stroke-width="2" transform="translate(159.721761, 34.230876) rotate(-22.000000) translate(-159.721761, -34.230876) " points="159.721761 7.45026241 182.914452 20.840569 182.914452 47.6211821 159.721761 61.0114886 136.52907 47.6211821 136.52907 20.840569"></polygon><path d="M155.821418,9.09901753 L153.290414,32.4461195" id="Line" stroke="#FFFFFF" stroke-width="2" stroke-linecap="square" transform="translate(154.555916, 20.772569) rotate(-30.000000) translate(-154.555916, -20.772569) "></path><path d="M164.303355,38.0626652 L139.384231,48.9876608" id="Line-2" stroke="#FFFFFF" stroke-width="2" stroke-linecap="square" transform="translate(151.843793, 43.525163) rotate(-30.000000) translate(-151.843793, -43.525163) "></path><path d="M162.68235,26.6568701 L181.951238,42.9379883" id="Line-2-Copy" stroke="#FFFFFF" stroke-width="2" stroke-linecap="square" transform="translate(172.316794, 34.797429) rotate(-30.000000) translate(-172.316794, -34.797429) "></path><polygon id="Polygon" stroke="#FFFFFF" stroke-width="2" transform="translate(429.308219, 502.731737) scale(1, -1) rotate(1.000000) translate(-429.308219, -502.731737) " points="429.308219 484.615439 444.997393 493.673588 444.997393 511.789885 429.308219 520.848034 413.619046 511.789885 413.619046 493.673588"></polygon><path d="M430.504825,504.580762 L428.792675,520.37439" id="Line" stroke="#FFFFFF" stroke-width="2" stroke-linecap="square" transform="translate(429.648750, 512.477576) scale(1, -1) rotate(-7.000000) translate(-429.648750, -512.477576) "></path><path d="M430.374531,495.331306 L413.517476,502.721744" id="Line-2" stroke="#FFFFFF" stroke-width="2" stroke-linecap="square" transform="translate(421.946004, 499.026525) scale(1, -1) rotate(-7.000000) translate(-421.946004, -499.026525) "></path><path d="M430.483908,493.543002 L443.518744,504.5567" id="Line-2-Copy" stroke="#FFFFFF" stroke-width="2" stroke-linecap="square" transform="translate(437.001326, 499.049851) scale(1, -1) rotate(-7.000000) translate(-437.001326, -499.049851) "></path><polygon id="Star" stroke="#FFFFFF" stroke-width="2" transform="translate(503.717240, 299.498032) scale(1, -1) rotate(-39.000000) translate(-503.717240, -299.498032) " points="503.71724 308.128513 495.198446 312.607108 496.825391 303.121292 489.933542 296.403399 499.457843 295.019437 503.71724 286.388956 507.976637 295.019437 517.500938 296.403399 510.609089 303.121292 512.236033 312.607108"></polygon><polygon id="Star-Copy" stroke="#FFFFFF" stroke-width="2" transform="translate(534.856958, 45.885377) scale(1, -1) translate(-534.856958, -45.885377) " points="534.856958 54.5158583 526.338164 58.9944532 527.965109 49.5086369 521.07326 42.7907445 530.597561 41.4067825 534.856958 32.7763018 539.116355 41.4067825 548.640656 42.7907445 541.748807 49.5086369 543.375752 58.9944532"></polygon><polygon id="Star" stroke="#FFFFFF" stroke-width="2" transform="translate(19.888863, 146.756032) scale(1, -1) rotate(-39.000000) translate(-19.888863, -146.756032) " points="19.8888627 155.386512 11.3700689 159.865107 12.9970137 150.379291 6.10516478 143.661399 15.6294658 142.277437 19.8888627 133.646956 24.1482596 142.277437 33.6725606 143.661399 26.7807117 150.379291 28.4076565 159.865107"></polygon><polygon id="Fill-71" fill="#4AFFD0" transform="translate(260.994950, 266.193653) scale(-1, -1) rotate(7.000000) translate(-260.994950, -266.193653) " points="277.910657 224.968733 291.726591 278.885576 244.080615 307.418573 230.263309 253.501729"></polygon><polygon id="Fill-73" fill="#00BC92" transform="translate(305.224180, 265.444823) scale(-1, -1) rotate(7.000000) translate(-305.224180, -265.444823) " points="332.118137 300.536033 292.147528 284.270456 278.330222 230.353613 318.300832 246.61919"></polygon><polygon id="Fill-75" fill="#09E8B4" transform="translate(283.411579, 304.301222) scale(-1, -1) rotate(7.000000) translate(-283.411579, -304.301222) " points="279.57321 326.701195 239.6026 310.435618 287.249948 281.90125 327.220557 298.168199"></polygon><path d="M298.384703,309.592381 L278.679914,389.322425" id="Path-5-Copy" stroke="#00FFCD" stroke-width="2" transform="translate(288.532308, 349.457403) scale(1, -1) rotate(-7.000000) translate(-288.532308, -349.457403) "></path><polygon id="Fill-38" fill="#4AFFD0" transform="translate(286.166788, 420.653696) scale(-1, -1) rotate(7.000000) translate(-286.166788, -420.653696) " points="303.081809 379.428776 316.899115 433.344248 269.251767 461.878616 255.434462 407.961773"></polygon><polygon id="Fill-40" fill="#00BC92" transform="translate(330.396835, 419.904967) scale(-1, -1) rotate(7.000000) translate(-330.396835, -419.904967) " points="357.290792 454.996177 317.320183 438.729228 303.502877 384.813756 343.473487 401.079334"></polygon><polygon id="Fill-42" fill="#09E8B4" transform="translate(308.584014, 458.762030) scale(-1, -1) rotate(7.000000) translate(-308.584014, -458.762030) " points="304.745645 481.162003 264.775036 464.896425 312.422383 436.362057 352.392992 452.629006"></polygon><path d="M304.58503,263.693356 C305.415132,263.237201 325.514941,250.872689 364.884456,226.599821" id="Path-5-Copy-4" stroke="#00E8B4" stroke-width="2" transform="translate(334.734743, 245.146588) scale(-1, -1) rotate(7.000000) translate(-334.734743, -245.146588) "></path><polygon id="Fill-51" fill="#4AFFD0" transform="translate(389.786720, 211.578613) scale(-1, -1) rotate(7.000000) translate(-389.786720, -211.578613) " points="406.701055 170.354379 420.51836 224.271223 372.871013 252.802848 359.055079 198.887376"></polygon><polygon id="Fill-53" fill="#00BC92" transform="translate(434.016766, 210.829884) scale(-1, -1) rotate(7.000000) translate(-434.016766, -210.829884) " points="460.910724 245.921094 420.940115 229.655517 407.122809 175.738674 447.093418 192.004251"></polygon><polygon id="Fill-55" fill="#09E8B4" transform="translate(412.204793, 249.685670) scale(-1, -1) rotate(7.000000) translate(-412.204793, -249.685670) " points="408.367796 272.084956 368.395815 255.819379 416.043163 227.286383 456.013772 243.55196"></polygon><path d="M328.005912,420.103744 C328.005912,420.103744 349.065486,407.115187 391.184635,381.138073" id="Path-5-Copy-3" stroke="#00E8B4" stroke-width="2" transform="translate(359.595273, 400.620908) scale(-1, -1) rotate(7.000000) translate(-359.595273, -400.620908) "></path><path d="M426.62119,255.111786 L407.768039,333.030201" id="Path-5-Copy-2" stroke="#00FFCD" stroke-width="2" transform="translate(417.194615, 294.070993) scale(1, -1) rotate(-7.000000) translate(-417.194615, -294.070993) "></path><polygon id="Fill-61" fill="#4AFFD0" transform="translate(130.602457, 188.865945) scale(-1, -1) rotate(7.000000) translate(-130.602457, -188.865945) " points="147.518164 147.641025 161.334098 201.557868 113.688122 230.090865 99.8708166 176.175393"></polygon><polygon id="Fill-63" fill="#00BC92" transform="translate(174.831823, 188.117132) scale(-1, -1) rotate(7.000000) translate(-174.831823, -188.117132) " points="201.72578 223.209028 161.7538 206.942079 147.937866 153.025236 187.908475 169.292185"></polygon><path d="M188.030126,232.4541 L262.459518,260.453372" id="Path-7" stroke="#00E8B4" stroke-width="2" transform="translate(225.244822, 246.453736) scale(-1, -1) rotate(7.000000) translate(-225.244822, -246.453736) "></path><polygon id="Fill-65" fill="#09E8B4" transform="translate(153.019186, 226.972698) scale(-1, -1) rotate(7.000000) translate(-153.019186, -226.972698) " points="149.180817 249.37267 109.210208 233.105721 156.857555 204.572725 196.828164 220.838302"></polygon><path d="M263.138423,265.789955 C263.138423,266.947569 262.200262,267.884359 261.044019,267.884359 C259.887776,267.884359 258.949615,266.947569 258.949615,265.789955 C258.949615,264.633712 259.887776,263.696923 261.044019,263.696923 C262.200262,263.696923 263.138423,264.633712 263.138423,265.789955" id="Fill-95" fill="#00E8B4" transform="translate(261.044019, 265.790641) scale(-1, -1) rotate(7.000000) translate(-261.044019, -265.790641) "></path><path d="M388.949197,211.586444 C388.949197,212.742687 388.011036,213.679476 386.856165,213.679476 C385.698551,213.679476 384.761761,212.742687 384.761761,211.586444 C384.761761,210.430201 385.698551,209.493412 386.856165,209.493412 C388.011036,209.493412 388.949197,210.430201 388.949197,211.586444" id="Fill-101" fill="#00E8B4" transform="translate(386.855479, 211.586444) scale(-1, -1) rotate(7.000000) translate(-386.855479, -211.586444) "></path><path d="M153.27636,228.387545 C153.27636,229.543788 152.338199,230.480578 151.183328,230.480578 C150.025713,230.480578 149.087552,229.543788 149.087552,228.387545 C149.087552,227.231303 150.025713,226.294513 151.183328,226.294513 C152.338199,226.294513 153.27636,227.231303 153.27636,228.387545" id="Fill-105" fill="#00FFCD" transform="translate(151.181956, 228.387545) scale(-1, -1) rotate(7.000000) translate(-151.181956, -228.387545) "></path><path d="M285.76517,308.696926 C285.76517,309.853169 284.827008,310.789959 283.672137,310.789959 C282.514523,310.789959 281.576362,309.853169 281.576362,308.696926 C281.576362,307.540683 282.514523,306.603894 283.672137,306.603894 C284.827008,306.603894 285.76517,307.540683 285.76517,308.696926" id="Fill-105-Copy" fill="#00FFCD" transform="translate(283.670766, 308.696926) scale(-1, -1) rotate(7.000000) translate(-283.670766, -308.696926) "></path><path d="M414.73973,254.261474 C414.73973,255.417716 413.801569,256.354506 412.646698,256.354506 C411.489083,256.354506 410.550922,255.417716 410.550922,254.261474 C410.550922,253.105231 411.489083,252.168441 412.646698,252.168441 C413.801569,252.168441 414.73973,253.105231 414.73973,254.261474" id="Fill-105-Copy-2" fill="#00FFCD" transform="translate(412.645326, 254.261474) scale(-1, -1) rotate(7.000000) translate(-412.645326, -254.261474) "></path><path d="M328.781429,415.969834 C328.781429,417.126076 327.843268,418.064238 326.688397,418.064238 C325.530783,418.064238 324.593993,417.126076 324.593993,415.969834 C324.593993,414.813591 325.530783,413.876801 326.688397,413.876801 C327.843268,413.876801 328.781429,414.813591 328.781429,415.969834" id="Fill-107" fill="#00E8B4" transform="translate(326.687711, 415.970520) scale(-1, -1) rotate(7.000000) translate(-326.687711, -415.970520) "></path><path d="M305.463894,259.741872 C305.463894,260.898115 304.525733,261.836276 303.370862,261.836276 C302.213247,261.836276 301.276458,260.898115 301.276458,259.741872 C301.276458,258.58563 302.213247,257.64884 303.370862,257.64884 C304.525733,257.64884 305.463894,258.58563 305.463894,259.741872" id="Fill-107-Copy" fill="#00E8B4" transform="translate(303.370176, 259.742558) scale(-1, -1) rotate(7.000000) translate(-303.370176, -259.742558) "></path><path d="M173.615714,181.49497 C173.615714,182.651213 172.677552,183.589374 171.522681,183.589374 C170.365067,183.589374 169.428277,182.651213 169.428277,181.49497 C169.428277,180.338728 170.365067,179.401938 171.522681,179.401938 C172.677552,179.401938 173.615714,180.338728 173.615714,181.49497" id="Fill-107-Copy-2" fill="#00E8B4" transform="translate(171.521996, 181.495656) scale(-1, -1) rotate(7.000000) translate(-171.521996, -181.495656) "></path><polygon id="Star" stroke="#FFFFFF" stroke-width="2" transform="translate(202.006173, 434.574355) scale(1, -1) rotate(-61.000000) translate(-202.006173, -434.574355) " points="202.006173 443.204835 193.487379 447.68343 195.114324 438.197614 188.222475 431.479722 197.746776 430.09576 202.006173 421.465279 206.26557 430.09576 215.789871 431.479722 208.898022 438.197614 210.524967 447.68343"></polygon><polygon id="Polygon" stroke="#FFFFFF" stroke-width="2" transform="translate(400.151169, 115.852407) scale(1, -1) rotate(1.000000) translate(-400.151169, -115.852407) " points="400.151169 97.73611 415.840342 106.794259 415.840342 124.910556 400.151169 133.968704 384.461995 124.910556 384.461995 106.794259"></polygon><path d="M401.347775,117.701433 L399.635625,133.495061" id="Line" stroke="#FFFFFF" stroke-width="2" stroke-linecap="square" transform="translate(400.491700, 125.598247) scale(1, -1) rotate(-7.000000) translate(-400.491700, -125.598247) "></path><path d="M401.217481,108.451976 L384.360426,115.842414" id="Line-2" stroke="#FFFFFF" stroke-width="2" stroke-linecap="square" transform="translate(392.788953, 112.147195) scale(1, -1) rotate(-7.000000) translate(-392.788953, -112.147195) "></path><path d="M401.326858,106.663673 L414.361694,117.677371" id="Line-2-Copy" stroke="#FFFFFF" stroke-width="2" stroke-linecap="square" transform="translate(407.844276, 112.170522) scale(1, -1) rotate(-7.000000) translate(-407.844276, -112.170522) "></path><polygon id="Path-2" stroke="#00E8B4" stroke-width="2" transform="translate(170.046799, 351.424099) scale(1, -1) rotate(-7.000000) translate(-170.046799, -351.424099) " points="172.523777 302.588049 133.812636 318.870341 120.627953 372.290071 167.742255 400.26015 206.530988 383.453111 219.465645 330.110107"></polygon><polyline id="Path-3" stroke="#00E8B4" stroke-width="2" transform="translate(158.325823, 341.782659) scale(1, -1) rotate(-7.000000) translate(-158.325823, -341.782659) " points="134.900266 301.087755 181.751381 328.837111 168.829885 382.477564"></polyline><path d="M178.839074,376.299263 L217.654489,359.943322" id="Path-4" stroke="#00E8B4" stroke-width="2" transform="translate(198.246781, 368.121292) scale(1, -1) rotate(-7.000000) translate(-198.246781, -368.121292) "></path><polygon id="Path-2" stroke="#00E8B4" stroke-width="2" transform="translate(277.929762, 156.593702) scale(1, -1) rotate(-7.000000) translate(-277.929762, -156.593702) " points="280.40674 107.757651 241.695599 124.039944 228.510916 177.459674 275.625218 205.429752 314.413951 188.622713 327.348608 135.27971"></polygon><polyline id="Path-3" stroke="#00E8B4" stroke-width="2" transform="translate(266.208786, 146.952262) scale(1, -1) rotate(-7.000000) translate(-266.208786, -146.952262) " points="242.783228 106.257358 289.634343 134.006713 276.712847 187.647166"></polyline><path d="M286.722036,181.468865 L325.537451,165.112924" id="Path-4" stroke="#00E8B4" stroke-width="2" transform="translate(306.129744, 173.290895) scale(1, -1) rotate(-7.000000) translate(-306.129744, -173.290895) "></path><polygon id="Path-2" stroke="#00E8B4" stroke-width="2" transform="translate(435.475246, 374.888441) scale(1, -1) rotate(-7.000000) translate(-435.475246, -374.888441) " points="437.952224 326.05239 399.241083 342.334683 386.0564 395.754413 433.170702 423.724491 471.959435 406.917452 484.894092 353.574449"></polygon><polyline id="Path-3" stroke="#00E8B4" stroke-width="2" transform="translate(423.754270, 365.247001) scale(1, -1) rotate(-7.000000) translate(-423.754270, -365.247001) " points="400.328713 324.552097 447.179828 352.301452 434.258331 405.941905"></polyline><path d="M444.26752,399.763604 L483.082936,383.407663" id="Path-4" stroke="#00E8B4" stroke-width="2" transform="translate(463.675228, 391.585634) scale(1, -1) rotate(-7.000000) translate(-463.675228, -391.585634) "></path><path d="M165.065908,229.39319 L146.043796,307.293268" id="Path-5" stroke="#00FFCD" stroke-width="2" transform="translate(155.554852, 268.343229) scale(1, -1) rotate(-7.000000) translate(-155.554852, -268.343229) "></path><path d="M320.845317,207.813239 L388.781431,175.203904" id="Path-6" stroke="#00E8B4" stroke-width="2" transform="translate(354.813374, 191.508571) scale(1, -1) rotate(-7.000000) translate(-354.813374, -191.508571) "></path><path d="M172.699796,185.368031 C172.699796,185.368031 192.384554,173.231597 231.754069,148.958728" id="Path-5-Copy-5" stroke="#00E8B4" stroke-width="2" transform="translate(202.226933, 167.163379) scale(-1, -1) rotate(7.000000) translate(-202.226933, -167.163379) "></path></g></g></g></svg>