<svg xmlns="http://www.w3.org/2000/svg" xmlns:xlink="http://www.w3.org/1999/xlink" width="82px" height="85px" viewBox="0 0 82 85"><title>Group 17</title><desc>Created with Sketch.</desc><defs><polygon id="path-1" points="0 -0.000102000126 22.3543476 -0.000102000126 22.3543476 28.6921254 0 28.6921254"></polygon><polygon id="path-3" points="0 0.0005 19.837375 0.0005 19.837375 29.76175 0 29.76175"></polygon></defs><g id="Page-1" stroke="none" stroke-width="1" fill="none" fill-rule="evenodd"><g id="Home-Copy-20" transform="translate(-130.000000, -1610.000000)"><g id="Group-17" transform="translate(132.000000, 1612.000000)"><g id="Group-12" transform="translate(28.231103, 31.140717)"><path d="M24.9316605,-4.26325641e-14 C38.7010011,-4.26325641e-14 49.8633211,11.16232 49.8633211,24.9316605 C49.8633211,38.7010011 38.7010011,49.8633211 24.9316605,49.8633211 C11.16232,49.8633211 -1.42108547e-12,38.7010011 -1.42108547e-12,24.9316605 C-1.42108547e-12,11.16232 11.16232,-4.26325641e-14 24.9316605,-4.26325641e-14" id="Fill-1" fill="#E8D4D4"></path><path d="M25.7670604,40.6000278 L25.7670604,37.3758064 M20.9307283,40.6000278 L20.9307283,37.3758064 M25.7670604,11.5820352 L25.7670604,8.35781385 M20.9307283,11.5820352 L20.9307283,8.35781385 M17.7065069,22.8668101 L27.3791711,22.8668101 C30.4051029,22.9572899 32.9310788,20.577613 33.0215585,17.5518827 C33.0247827,17.4426622 33.0247827,17.3336432 33.0215585,17.2244227 C33.1120382,14.1986924 30.7323613,11.672515 27.7064295,11.5820352 C27.5974106,11.578811 27.4883916,11.578811 27.3791711,11.5820352 L17.7065069,11.5820352 L17.7065069,37.3758064 L27.9434098,37.3758064 C31.8124755,37.3758064 35.4397246,33.990374 35.4397246,30.1213083 C35.4397246,26.2522426 31.2482367,22.8668101 27.3791711,22.8668101" id="Stroke-13" stroke="#242828" stroke-width="3.5" stroke-linecap="square"></path><path d="M24.9316605,-4.26325641e-14 C38.7010011,-4.26325641e-14 49.8633211,11.16232 49.8633211,24.9316605 C49.8633211,38.7010011 38.7010011,49.8633211 24.9316605,49.8633211 C11.16232,49.8633211 -1.42108547e-12,38.7010011 -1.42108547e-12,24.9316605 C-1.42108547e-12,11.16232 11.16232,-4.26325641e-14 24.9316605,-4.26325641e-14 Z" id="Stroke-3" stroke="#242828" stroke-width="3.5" stroke-linecap="square"></path><path d="M26.7472458,47.0772763 C12.9779052,47.0864179 1.8081058,35.9315774 1.79896419,22.1622368 C1.79501668,15.9465661 4.11262229,9.95361821 8.29781704,5.35829764 C-1.77602817,14.7452756 -2.33283525,30.5211993 7.05393494,40.5950445 C16.4409129,50.6688897 32.2168366,51.2256968 42.2906818,41.8389266 C42.7197142,41.4389812 43.1346185,41.0240769 43.5345639,40.5950445 C38.9450608,44.7773306 32.9562681,47.0899499 26.7472458,47.0772763" id="Fill-7" fill="#000000" opacity="0.149999991"></path></g><g id="Group-8" transform="translate(0.110115, 0.110137)"><path d="M26.9261934,-3.55271368e-14 C41.7970812,-3.55271368e-14 53.8523868,12.0553055 53.8523868,26.9261934 C53.8523868,41.7970812 41.7970812,53.8523868 26.9261934,53.8523868 C12.0553055,53.8523868 -1.4033219e-12,41.7970812 -1.4033219e-12,26.9261934 C-1.4033219e-12,12.0553055 12.0553055,-3.55271368e-14 26.9261934,-3.55271368e-14" id="Fill-9" fill="#00E8B4"></path><g id="Group-3" transform="translate(14.151958, 13.133068)"><mask id="mask-2" fill="white"><use xlink:href="#path-1"></use></mask><g id="Clip-2"></g></g><g id="Group-3" transform="translate(17.889885, 11.889863)"><mask id="mask-4" fill="white"><use xlink:href="#path-3"></use></mask><g id="Clip-2"></g><path d="M14.874875,19.838 L19.837375,19.838 C19.837375,25.313 15.387375,29.76175 9.912375,29.76175 C4.437375,29.76175 -0.000125,25.313 -0.000125,19.838 L-0.000125,4.963 L4.951125,0.0005 L4.951125,9.913 L19.837375,9.913 L14.874875,14.87425 L4.951125,14.87425 L4.951125,19.838 C4.951125,22.57425 7.174875,24.8005 9.912375,24.8005 C12.649875,24.8005 14.874875,22.57425 14.874875,19.838" id="Fill-1" fill="#242828" mask="url(#mask-4)"></path></g><path d="M26.9261934,53.8523868 C12.0553055,53.8523868 -7.03437308e-13,41.7970812 -7.03437308e-13,26.9261934 C-7.03437308e-13,12.0553055 12.0553055,-3.90798505e-14 26.9261934,-3.90798505e-14 L26.9261934,53.8523868 Z" id="Fill-11" fill="#000000" opacity="0.149999991"></path><path d="M26.9261934,-3.90798505e-14 C41.7970812,-3.90798505e-14 53.8523868,12.0553055 53.8523868,26.9261934 C53.8523868,41.7970812 41.7970812,53.8523868 26.9261934,53.8523868 C12.0553055,53.8523868 -1.4033219e-12,41.7970812 -1.4033219e-12,26.9261934 C-1.4033219e-12,12.0553055 12.0553055,-3.90798505e-14 26.9261934,-3.90798505e-14 Z" id="Stroke-15" stroke="#242828" stroke-width="3.5" stroke-linecap="square"></path></g></g></g></g></svg>