<svg xmlns="http://www.w3.org/2000/svg" viewBox="0 0 235.96 376.26"><defs><style>.cls-1{isolation:isolate;}.cls-2{fill:#00e8b4;}.cls-3,.cls-4,.cls-5{fill:#5e5e5e;mix-blend-mode:multiply;}.cls-3{opacity:0.2;}.cls-4{opacity:0.4;}.cls-5{opacity:0.3;}</style></defs><g class="cls-1"><g id="Layer_2" data-name="Layer 2"><g id="Layer_2-2" data-name="Layer 2"><path class="cls-2" d="M236,188.13c0,103.9-21.42,188.13-47.83,188.13C84.22,376.26,0,292,0,188.13S84.22,0,188.13,0C214.54,0,236,84.23,236,188.13Z"></path><path class="cls-3" d="M217.19,337.54A167,167,0,0,1,199.34,5.21,19.34,19.34,0,0,0,192,.63c-1.3,0-2.61,0-3.92,0C84.55.59.58,84.55.58,188.13s84,187.54,187.54,187.54c1.31,0,2.62,0,3.92,0C201.46,372.63,210.1,358.89,217.19,337.54Z"></path><path class="cls-3" d="M197.71,372.22C93.8,372.22,9.58,289.8,9.58,188.13S93.8,4,197.71,4H198c-3.2-2.65-6.51-4-9.91-4C84.22,0,0,84.23,0,188.13S84.22,376.26,188.13,376.26c3.4,0,6.71-1.41,9.91-4.06Z"></path><path class="cls-2" d="M236,188.13c0,103.9-21.42,188.13-47.83,188.13S140.29,292,140.29,188.13,161.7,0,188.13,0,236,84.23,236,188.13Z"></path><path class="cls-3" d="M188.13,0a14.78,14.78,0,0,0-8.7,3.11,12.33,12.33,0,0,1,4.86-1c24.39,0,44.17,77.78,44.17,173.73s-19.78,173.73-44.17,173.73c-23,0-41.94-69.31-44-157.78C140.79,294,162,376.26,188.13,376.26,214.54,376.26,236,292,236,188.13S214.54,0,188.13,0Z"></path><path class="cls-3" d="M148.77,189.6C148.77,86.52,170,3,196.24,3l.39,0a14.65,14.65,0,0,0-8.5-3c-26.43,0-47.84,84.23-47.84,188.13s21.41,188.13,47.84,188.13a13,13,0,0,0,4.06-.68C167.87,367.5,148.77,287.33,148.77,189.6Z"></path><path class="cls-4" d="M219,189.58c0,47.63-9.81,86.23-21.92,86.23s-21.93-38.6-21.93-86.23,9.82-86.22,21.93-86.22S219,142,219,189.58Z"></path><path class="cls-5" d="M175.18,189.58c0,28.23,3.45,53.28,8.78,69,7.74-11.62,13.15-38.14,13.15-69s-5.41-57.38-13.15-69C178.63,136.3,175.18,161.36,175.18,189.58Z"></path><path class="cls-5" d="M175.18,189.58c0-46.4,9.32-84.23,21-86.13a5.73,5.73,0,0,0-.92-.09c-12.11,0-21.93,38.6-21.93,86.22s9.82,86.23,21.93,86.23a5.73,5.73,0,0,0,.92-.09C184.5,273.82,175.18,236,175.18,189.58Z"></path></g></g></g></svg>