<svg xmlns="http://www.w3.org/2000/svg" viewBox="0 0 280.69 447.58"><defs><style>.cls-1{isolation:isolate;}.cls-2{fill:#00cf9c;}.cls-2,.cls-3,.cls-4{fill-rule:evenodd;}.cls-3{fill:#48e2c3;}.cls-4{fill:#a2fbe6;}.cls-5{fill:none;}.cls-6{fill:#5e5e5e;opacity:0.2;mix-blend-mode:multiply;}.cls-7{fill:#00b588;}.cls-8{fill:#5b5b5b;opacity:0.35;mix-blend-mode:screen;}</style></defs><g class="cls-1"><g id="Layer_2" data-name="Layer 2"><g id="Layer_2-2" data-name="Layer 2"><path class="cls-2" d="M280.69,223.79c0,.62,0,1.25,0,1.87q0,6.12-.1,12.16-.19,12.83-.76,25.23-.35,7.68-.82,15.16c-.06,1-.13,1.9-.19,2.84l-.3,4.27c-.1,1.45-.21,2.89-.32,4.32q-.46,6-1,11.77l0,.36q-.24,2.58-.51,5.13c-.05.57-.11,1.14-.17,1.71-.25,2.37-.5,4.72-.77,7.05l-.45,3.8c-.19,1.62-.39,3.22-.6,4.82q-.57,4.44-1.18,8.76c-.09.61-.18,1.22-.26,1.82-.32,2.2-.66,4.38-1,6.54-.2,1.29-.4,2.58-.62,3.85-1.37,8.33-2.87,16.28-4.51,23.79a317.65,317.65,0,0,1-8.39,31.52q-2.06,6.29-4.25,11.82-1.67,4.22-3.41,8c-.39.83-.79,1.65-1.18,2.45-7.8,15.84-16.66,24.79-26.05,24.79a222.64,222.64,0,0,1-101.36-24.21q-8.24-4.2-16.08-9.05-4.14-2.55-8.17-5.29A225,225,0,0,1,40.27,351.9q-3.9-5.56-7.46-11.39-1.62-2.62-3.16-5.31-1.78-3.1-3.47-6.28c-.66-1.23-1.31-2.47-1.94-3.72q-.66-1.29-1.29-2.58A222.67,222.67,0,0,1,.07,229.32c0-1.84-.07-3.68-.07-5.53q0-3.31.1-6.62c.09-3.15.24-6.28.47-9.39q.43-6.25,1.22-12.4,1.26-10,3.38-19.64a222.58,222.58,0,0,1,27.15-67.88q1.18-2,2.41-3.87,4-6.3,8.4-12.3A223.35,223.35,0,0,1,223.79,0c6,0,11.71,3.61,17.11,10.3a78.27,78.27,0,0,1,8.91,14.42,169.23,169.23,0,0,1,8.7,21.8q.89,2.64,1.72,5.42c1.25,4.09,2.45,8.4,3.6,12.89q2.76,10.69,5.11,22.79c.32,1.64.64,3.29.95,5q2.22,12.09,4,25.34,1.41,10.31,2.55,21.24,1.41,13.64,2.38,28.13.87,13.11,1.33,26.82.22,6.44.34,13,.08,3.79.12,7.64c0,1.43,0,2.87,0,4.31S280.69,222.2,280.69,223.79Z"></path><path class="cls-3" d="M263.83,64.83C208.44,101.1,140,129.92,73.28,121.14a103.8,103.8,0,0,1-18.48-3.8c-4.67-1.52-9.19-3.45-13.73-5.34-2.61-1.09-5.59-2.48-8.75-4.14q1.18-2,2.41-3.87,4-6.3,8.4-12.3A224,224,0,0,1,74,57.53a118.81,118.81,0,0,0,13,3.9c53.91,12.69,102.11-1,149.14-28.09,4.72-2.72,9.25-5.6,13.64-8.62a169.23,169.23,0,0,1,8.7,21.8q.89,2.64,1.72,5.42C261.48,56,262.68,60.34,263.83,64.83Z"></path><path class="cls-3" d="M273.93,117.92l-.13.11-.94.8-1.08.91-1.17,1-1.24,1.06-1.26,1.08-.2.17-1.07.89-1.22,1-1.14,1-1,.86-.86.73-.37.33-.33.29-.3.26-.31.29-.46.45-.24.33-.41.65-.3.7h0l-.2.76-.07.78,0,.79.17.76.3.73h0l.4.67.5.61.59.51.66.42.37.18.36.17.07,0,.42.21.43.2.43.18.44.18.44.16.44.15h0l.45.13.45.13.9.22.45.1.46.09.46.08.46.07.46.06.46,0,.46,0,.46,0,.46,0,.46,0h1.86l.47,0,.47,0,.46,0,.47,0,.47,0,.24,0Q275.34,128.24,273.93,117.92Z"></path><path class="cls-3" d="M180,152.56v-.05l-.19-1.09-.36-1-.47-.85-.52-.68-.52-.53-.48-.4-.53-.38-.66-.37-.63-.27-.52-.19-.46-.15-.41-.11-.38-.09-.37-.08-.35-.07-.34-.07-.35-.06-.34-.05-.36-.06-.68-.1-.72-.1-.73-.09-.75-.08-.77-.09-.78-.08-.79-.07-.79-.08-.79-.07-.79-.06-1.52-.12L161.2,145l-1.32-.09-1.15-.07-.94-.06-.72,0h-.49l-1.7,0-.14,0-1.72.2-3.43.41-3.41.43-3.39.42-3.39.43L136,147l-3.37.41-3.36.4-1.67.2-3.34.38-1.38.14-.29,0-1.66.18-1.67.18-1.66.18-1.66.16-1.66.16-1.66.15-1.66.15-1.66.13-1.66.13-1.66.12-1.65.1-1.66.1-1.22.07-1.23,0L99,150.5l-1.23,0-1.22,0-1.23,0H94.13l-1.22,0H89.24l-1.23,0-1.22,0-1.22,0-1.23,0-1.22,0-1.22,0-1.23-.06-1.08-.06h-.14l-1.22-.07L77,150.13l-1.23-.08L74.56,150l-1.22-.09-1.23-.1-1.22-.1-1.23-.11-1.22-.12-1.23-.11L66,149.2l-1.23-.13-1.22-.14-1.23-.14-1.23-.15-1.23-.15-1.22-.15-1.23-.17L56.17,148l-1.23-.17-1.22-.18-1.24-.18-1.22-.18L50,147.11l-1.23-.19-1.23-.2-1.23-.2-1.24-.2-1.22-.21-2.48-.42-2.47-.45-2.46-.45-.83-.15-1.65-.3-2.49-.46L29,143.41l-2.49-.48L24,142.44l-1.9-.38-1.91-.39-1.89-.39-1.89-.41-.54-.12a221.9,221.9,0,0,0-10.74,35l1,.28,1.34.38,1.33.37,1.34.37,2.68.72,1.34.34,1.34.35,1.35.33,1.34.33,1.34.32,1.35.31,1.35.31,1.35.31.24,0,1.11.21,1.36.26,1.36.24,1.36.24,1.36.24,1.36.23,1.36.22,1.36.22,1.37.21,1.36.21,1.37.19,1.36.19,1.37.19,1.37.18,1.36.17,1.38.16,1.37.17,1.36.15,1.38.15,1.37.14,1.37.13,1.38.13,1.38.12,1.37.12,1.38.11,1.38.1,1.38.1,1.38.09,1.38.09,1.38.08,1.39.07,1.38.07,1.39.06,1.38.06,1.39.05,1.39,0,1.39,0,1.39,0h8.36l1.4,0,1.4,0,1.4,0,1.4,0,2.8-.1,1.4-.05,1.4-.06,1.41-.07,1.41-.08,1.4-.08,1.41-.08,1.41-.09,1.41-.1,1.41-.1,1.41-.11,1.41-.12,1.42-.11,1.41-.13,1.42-.13,1.42-.14,1.41-.14,1.43-.15,1.42-.15,1.42-.16,1.42-.17,1.42-.16,1.43-.18,2.6-.33,1.33-.17,1.06-.15.27,0,1.33-.26,1.35-.26,1.35-.28,1.35-.28,1.37-.29,2.74-.62,1.38-.33,1.38-.34,1.37-.35.7-.19.69-.18.7-.19.68-.2.7-.2.69-.2,1.38-.42,1.38-.44.69-.23.69-.23.68-.24.69-.24.68-.24.69-.26,1.36-.52.68-.27.68-.28.67-.28.21-.1.46-.19.67-.3.67-.3.67-.31.66-.32.66-.32.66-.33.66-.34.65-.35.65-.35.64-.36.65-.37,1.26-.76.64-.39.68-.44.76-.5.43-.28.43-.3.44-.3.46-.33.47-.34.47-.35.48-.37.49-.38.49-.4.5-.41.5-.43.49-.45.5-.46.49-.47.47-.48.26-.27.23-.26.24-.27.24-.27.23-.27.23-.29L177,161l.23-.29.21-.31.22-.31.21-.32.21-.33.21-.34.19-.35.19-.35.36-.76.17-.39.15-.41.14-.42.13-.43.12-.44.1-.46.08-.47.06-.49.06-.68Z"></path><path class="cls-3" d="M280.65,214.73l-.86.33-1.26.47-1.26.47-1.27.46-1.27.46-1.26.45-2.54.9-1.28.44-1.28.44-1.27.44-1.28.42-1.28.43-1.28.42-1.28.42-1.29.41-1.29.41-1.28.41-1.29.4-1.29.39-1.3.4-1.29.38-1.3.39-1.29.38-2.6.74-1.3.37-1.3.36-1.3.36-1.31.36-1.3.35-1.31.35-1.31.34-1.31.34-1.31.34-1.31.33-1.31.32-2.64.64-1.31.31-1.32.32-1.32.3-1.32.31-1.32.29-1.32.3-1.32.29-1.33.28-1.33.29-1.32.28-1.33.27-1.33.27-1.32.26-1.34.27-1.33.25-1.33.26-1.33.25-1.34.25-1.33.24-1.34.24-1.34.23-1.33.23-1.34.23-1.34.22-1.34.22-1.34.22-1.34.2-1.34.21-1.35.2-1.34.2-1.35.2-1.34.19-1.35.19-1.34.18-1.35.18-1.35.18-1.34.17-1.35.17-1.35.16-1.35.16-1.35.16-1.35.15-1.36.15-1.34.15-1.36.14-1.35.13-1.35.14-1.36.13-1.35.12-1.36.13-1.35.12-1.36.11-1.35.11-1.36.11-1.36.1-1.35.1-1.36.1-1.35.09-1.36.09-2.72.16-1.36.08-1.35.07-2.72.14-1.36.06-1.36.06-1.36.05-1.36.05-1.36,0-1.35.05-1.37,0-1.35,0-1.37,0-1.35,0-1.36,0-1.36,0-1.36,0H113.57l-1.36,0-1.36,0-1.36,0-1.36,0-1.35,0-1.36,0-1.36,0-1.35,0-1.36,0-1.36-.05-1.35-.05-1.36-.06-1.35-.06-1.36-.07-1.35-.06-1.35-.08L90.51,242l-1.35-.08-1.35-.09-1.36-.08-1.35-.09-1.35-.09-1.35-.1-1.35-.1-1.35-.1-1.35-.11L77,241.07l-2.69-.23-2.69-.25-2.69-.26-2.69-.27-2.68-.28-2.68-.3-5.36-.64-2.67-.35-2.67-.35-2.66-.37-2.66-.38L42.2,237l-2.65-.41-2.65-.43-2.64-.43-2.64-.45L29,234.82l-2.63-.48-2.63-.48-2.61-.5L18,232.75l-3.15-.59L8.48,231l-3.19-.61-3.19-.62-2-.4c0-1.84-.07-3.68-.07-5.53q0-3.31.1-6.62l1.2.26,3.16.68,3.17.67,3.16.66,6.31,1.33,3.15.66,3.13.66,2.56.54,2.56.52,2.57.51,2.56.5,2.58.49,2.58.47,2.58.46L44,226l2.59.44,2.6.42,2.6.4,2.61.4,2.61.38,2.61.37,2.62.35,2.62.34,2.62.32,2.63.32,2.62.3,2.64.29,2.64.27,1.31.13,1.32.13,1.32.12,1.32.12,1.33.12,1.32.12,1.32.1,1.33.11,1.32.11,1.32.09,1.33.1,1.32.09,1.33.09,1.33.09,1.32.08,2.66.16,1.33.07,1.33.07,1.33.07,1.33.06,1.33,0,1.33.06,1.33.05,1.33.05,1.33,0,1.33,0,1.33,0,1.33,0,1.33,0,1.34,0,1.33,0,1.33,0,1.34,0h9.33l1.34,0,1.33,0,1.33,0,1.34,0,1.33,0,1.34,0,1.33,0,1.33,0,1.34-.05,1.33,0,1.34-.05,1.33,0,1.33-.06,1.34-.06,4-.21,1.33-.07,1.34-.09,1.33-.08,1.33-.08,1.33-.1,1.34-.09,1.33-.1,1.33-.1,1.33-.11,1.33-.11,1.33-.11,2.66-.24,1.32-.12,1.33-.13,1.33-.13,1.33-.14,1.32-.14,1.33-.15,1.32-.14L183,230l1.32-.16,1.33-.16,1.32-.16,2.64-.34L191,229l1.32-.18,1.32-.19,1.32-.18,2.64-.38,1.31-.2,1.32-.2,1.31-.21,1.32-.21,1.31-.21,1.32-.22,1.31-.22,1.31-.23,1.31-.23,1.32-.23,1.31-.24,1.3-.24,1.31-.24,1.31-.25,1.31-.26,1.3-.25,1.31-.27,1.3-.26,2.6-.54,1.3-.28,1.3-.28,1.3-.28,1.3-.29,1.29-.29,1.3-.3,1.29-.3,1.29-.31,1.29-.31,1.3-.31,1.28-.31,1.29-.33,1.29-.32,1.29-.33,1.28-.34,1.28-.33,1.28-.34,1.29-.35,1.27-.35,1.28-.36,1.28-.35,1.28-.36,1.27-.37,2.54-.74,1.27-.38,1.27-.38,1.27-.39,1.26-.39,1.27-.4,2.52-.8,2.52-.82,1.26-.41,1.25-.43,1.25-.42,1.26-.43,1.24-.43,1.25-.44,1.25-.44,1.25-.44,1.24-.45,1.24-.46.75-.27Q280.61,210.89,280.65,214.73Z"></path><path class="cls-3" d="M278.86,167.29h0l-.55.07-.53.07-.54.08-.54.08-.53.08-.54.09-.53.1-.53.1-.52.1-.53.11-.53.11-.52.12-.52.12-.52.13-.53.13-1,.26-1,.28-1,.29h0l-.65-.3-.67-.35-.67-.37,0,0-.51.07-.53.07-1.12.13-1.12.12-1,.1-.12,0-1.14.19-2.34.38-1.21.21-1.18.2-.54.08-.55.08-.29,0-.3,0-.63.11-1.37.24-1.48.25-1.56.28-.83.15-.83.16-.86.16-.86.18-.88.19-.89.2-.9.22-.91.23-.89.25-.48.13-.46.14-.46.14-.45.18-.46.17-.45.19-.46.19-.46.2-.45.2-.46.22-.45.21-.46.23-.45.24-.46.24-.46.26-.45.27-.45.27-.45.3-.45.3-.46.32-.45.33-.44.34-.44.37-.44.38-.43.4-.49.48-.43.45-.47.57-.44.64-.41.71-.35.76-.3.81-.22.84-.15.84-.07.83v1l.16,1.29.34,1.26.44,1.06.46.86.46.71.44.58.43.49.4.42.38.36.36.32.35.28.33.26.32.23.32.22.34.23.56.35.58.34.58.32.57.3.56.28,1.1.52.55.24.53.23.52.22.51.21.5.2.91.35.83.31.74.26.64.22.45.13.49.14.7.14.54.1.54.09.54.09.54.08.54.07.54.06.54,0,.53.05.54,0,.54,0,.53,0,.53,0,.53,0h2.64l.52,0,.52,0,.52,0,.52,0,.52,0,.52-.05,1-.1.52-.06.5-.06.51-.07.51-.07.52-.08,1-.16,1-.18,1-.19,1-.2,1-.21,1-.23,1.9-.48.93-.26.92-.26.91-.27.78-.25.12,0,.88-.3.87-.29.87-.31.85-.31.58-.22.59-.21.58-.23.59-.23.58-.24.59-.25.59-.25.58-.25.59-.27.58-.26.07,0Q279.74,180.41,278.86,167.29Zm-36.93,13.2,0,0,0,0,0,0,.08.06,0,0Zm.13.1h0Zm0,0,0,0h0Zm0,0,0,0h0Z"></path><path class="cls-3" d="M223.79,0a224.89,224.89,0,0,0-41.64,3.87l.09.19.4.78.41.73.43.71.45.67.46.63.47.6.48.57.48.55.49.52.5.49.49.47.5.45.5.43.51.41.33.26.18.13.51.36.52.35.53.34.54.33.6.35.62.34.61.33.62.3.62.29.61.27.6.25.59.23.59.22.57.2.57.18.55.18.54.16.52.15.52.14.51.13.35.09.34.06.72.15.71.13.72.12.72.11.72.1.72.09.73.08.72.07.73.05.73,0,.72,0,.73,0h2.58l.48,0,.87-.06.87-.08.86-.08.85-.09.85-.11.85-.12.84-.12.84-.14.83-.15.84-.16.82-.17.82-.18L224,17l.81-.2.8-.21.8-.22.8-.23.79-.24.79-.24.78-.26.77-.26.77-.28.77-.28.76-.29.75-.3.75-.31.07,0,.67-.3.73-.34.73-.34.72-.36.71-.36.71-.37.7-.37.7-.38.69-.39.29-.17C235.5,3.61,229.75,0,223.79,0ZM208.65,1.36l.06-.16-.25.45.07-.17-.26.41.09-.16-.26.39.09-.17-.26.36.1-.16-.25.32.1-.16-.24.31.1-.17-.24.29.12-.16-.24.26.13-.16-.24.24.13-.16-.22.22.13-.15L207.1,3l.14-.17-.21.2.14-.16-.2.18.15-.16-.2.17.16-.16-.19.16.16-.16-.18.14.16-.15-.25.19.33-.31-.32.24.21-.2.22-.21-.28.18.26-.22.12-.09.14-.15-.23.14.28-.26.2-.21.21-.22.25-.22.26-.24.28-.23.12-.09Zm.19-.31V1h0Z"></path><path class="cls-3" d="M147.65,23.47l.59,0,.58.05.58.06.58.07.57.07.57.08.55.1.56.11.55.12.55.14.54.14.52.17.29.09.27.1.27.1.27.11.27.11.27.12.26.13.27.14.27.14.27.16.27.17.27.18.26.2,0,0,.2.19.23.26.23.27.22.29.21.29.2.32.18.33.18.33.15.35.13.37.12.37.09.37.06.38,0,.38,0,.38v.37l0,.46,0,.53-.13.57-.15.39,0,.32-.18.64-.21.54-.21.46-.26.45-.38.52-.39.46-.35.36-.33.29-.3.25-.29.22-.27.19-.27.19-.26.16-.27.17-.47.27-.47.26-.45.23-.41.21-.39.18-.6.28-.42.19-.42.17-.42.15-.47.16-.53.17-.58.18-.64.18-.68.19-.59.16-.14,0-.76.23-.8.22-.83.22-.84.21-.45.1-.45.1-.44.09-.45.1-.46.09-.46.08-.46.07-.46.07-.47.07-.26,0-2.44,2.53-.75.1-.41,0-.39,0-.38,0-.38,0-.37,0h-.36l-.36,0h-1.39l-.34,0-.34,0-.35,0-.34-.06-.35-.06-.35-.08-.36-.09-.36-.11-.38-.13-.38-.15-.4-.18-.4-.21-.41-.25-.42-.29-.42-.34-.42-.39-.41-.44-.39-.51-.35-.55-.31-.6-.26-.64-.06-.2-.14-.16-.2-.22-.2-.23-.18-.24-.18-.24-.18-.26-.16-.25-.15-.27-.15-.27-.14-.28-.1-.23,0,0-.11-.29-.15-.43-.14-.54,0-.63,0-.54.09-.45.11-.37.13-.3.13-.26.14-.25.22-.32.24-.29.23-.26.23-.22.22-.21.23-.2.22-.19.25-.2.46-.34.47-.34.47-.33.46-.3.43-.28.41-.26.24-.15.41-.24.44-.25.31-.18.37-.17.13-.06.18-.18.23-.22.24-.21.23-.2.23-.19.24-.18L132,28l.45-.3.46-.29.48-.27.48-.26.49-.24.48-.23.5-.21.51-.21.51-.2.52-.19.53-.18.53-.17.54-.17L139,25l.55-.15.56-.14.57-.14.56-.13.58-.13.57-.11L143,24l.59-.1.58-.09.59-.09.58-.08.59-.07.59-.06.59-.05.5,0Z"></path><path class="cls-3" d="M100.7,273.58l.81,0,.79,0,.78,0,.78.06.77.07.76.08.74.1.74.11.73.12.72.14.69.16.38.08.35.09.35.09.35.1.34.1.34.11.34.11.38.13.53.2.56.24.56.25.44.21.33,0,.36.06.36.07.36.08.37.09.37.1.37.11.37.12.38.13.37.15.38.16.37.17.38.19.37.2.37.22.37.23.37.26.35.26.35.28.35.29.34.31.32.33.32.34.3.35.29.37.28.37.26.38.25.4.23.4.22.41.21.42.18.42.17.43.16.43,0,.1h0l.24.34.23.34.23.35.22.36.22.37.21.39.21.4.19.42.18.43.17.45.16.46.14.48.13.5.1.52.09.53.06.56,0,.58v.6l0,.62-.08.6-.12.58-.15.56-.17.54-.2.51-.23.48-.23.45-.25.43-.26.4-.27.37-.27.36-.28.33-.27.31-.28.3-.29.28-.28.26-.28.25-.29.24-.28.23-.28.22-.28.2-.28.2-.28.2h0l-.3.19-.53.34-.54.32-.55.3-.53.29-.52.26-.52.25-.5.24-.49.22-.48.22-.87.37-.78.33-.67.28-.3.13.07,0-.25.11-.22.1.14-.07-.21.1-.81.41-.94.47-1,.47-.53.25-.53.24-.54.25-.55.24-.57.25-.58.24-.58.25-.6.24-.6.24-.62.25-.62.23-.63.24-.64.22-.65.23-.65.22-.67.21-.66.2-.68.2-.68.19-.68.19-.69.17-.07,0-.63.14-.7.15-.71.14-.71.13-.71.12-.72.1-.72.09-.73.07-.71.06-.38,0-.37,0h-.5l-.29,0-.47.07-.47.08-.47.06-.48.06-.48.06-.47.05-.48,0-.48,0-.48,0-.48,0-.48,0H83.11l-.49,0-.49,0-.49,0-.49,0-.36,0-.13,0-.49-.06-.5-.08-.5-.1-.5-.1-.49-.12-.5-.13-.5-.14-.5-.17-.5-.18-.5-.19-.5-.21-.5-.24-.5-.25-.49-.27-.48-.29-.49-.32-.47-.33-.47-.36-.45-.38-.45-.4-.43-.42-.41-.45-.4-.46-.38-.49-.36-.5-.34-.52-.31-.53-.3-.54-.27-.57-.25-.56-.22-.58-.2-.59-.18-.59-.15-.6-.14-.6-.11-.61-.09-.6-.06-.62,0-.61,0-.62v-1.24l0-.62,0-.63,0-.53.06-.54.08-.52.09-.53.11-.52.11-.52.14-.5.15-.5.15-.5.18-.49.18-.48.2-.48L68,289l.22-.46.23-.45.25-.45.25-.43.26-.43.27-.41.28-.41.29-.39.29-.39.31-.39.31-.37.31-.36.33-.35.33-.35.33-.33.34-.33.34-.32.35-.32.36-.3.36-.3.36-.28.37-.28.37-.28.37-.27.38-.25.38-.26.38-.24.39-.24.38-.24.4-.23.39-.22.4-.21.39-.21.4-.2.41-.2.4-.19.41-.19.41-.19.41-.17.41-.17.41-.17.42-.16.41-.16.42-.16.42-.14.42-.14.42-.14.42-.14.42-.13.42-.13.45-.12.83-.23.85-.22.22-.05.63-.14.86-.17.86-.16.85-.14.86-.13.85-.12.84-.09.85-.09.84-.08.84-.06.84,0,.82,0,.82,0h1.62Z"></path><path class="cls-3" d="M43.28,278.38l0-.48,0-.38v-.09l-.08-.47L43,276.5l-.11-.45-.11-.45-.14-.43-.3-.84-.17-.41-.18-.39-.19-.39-.19-.38-.21-.36-.21-.36L41,271.7l-.22-.34-.23-.33-.24-.33-.24-.31-.24-.3-.5-.58-.26-.28L38.8,269l-.27-.27-.26-.25-.27-.26-.27-.24-.27-.24-.27-.23h0l-.29-.22-.28-.22-.28-.21-.28-.21-.28-.21-.29-.19-.3-.21-.56-.35-.57-.35-.59-.33-.58-.31-.59-.3-.59-.27-.6-.26-.6-.23-.6-.22-.61-.2-.62-.18-.63-.16-.6-.13-.36-.06-.33-.05-.34,0-.34,0-.36,0-.35,0-.76,0-.39,0-.41,0-.43,0-.44.06-.47.09-.48.11-.51.15-.53.19-.55.23-.58.29-.59.35-.59.42-.59.5-.57.56-.53.65-.49.71-.42.76-.34.8-.26.81-.17.82v.07l-.06.72v.76l.07.7.11.66.16.61.18.56.21.52.22.47.24.44.25.4.25.38.27.35.28.34.28.31.28.3.3.28,0,0,.1.15.28.44.29.42.3.43.31.43.28.39,0,0,.36.38.74.76.76.74.39.36.4.36.4.35.4.35.4.34.41.34.42.33.41.32.42.32.42.31.43.3.42.29.44.29.43.28.44.26.45.26.45.25.47.23.47.23.48.21.51.21.52.18.55.17.54.14.34.07.32.06.33.05.34,0,.36,0h1.17l.42,0,.45-.06.46-.09.48-.13.49-.16.5-.2.51-.24.5-.29.5-.33.47-.38.45-.41.42-.45.38-.47.34-.5.29-.5.25-.51.21-.51.16-.46.16-.51.13-.48.11-.49.09-.48.08-.49.05-.5,0-.49,0-.49v-.48Zm-12.16-6.11-.09.6,0,.09-.15.54,0,.09,0,.06-.27-.17-.13-.09-.09-2.3-.16-.32.06.06-.13-.28-.11-.27.07.07-.1-.26-.09-.24.08.08-.07-.22-.07-.22.09.1-.09-.26.09.12v0l-.08-.2.1.12-.09-.22.1.14-.07-.22.11.15-.07-.21.12.17-.06-.2.12.19-.05-.2.13.22,0-.19.13.24,0-.18.14.27,0-.17.13.3v-.16l.13.33v-.15l.13.38v-.15l.12.42V270l.1.47v-.13l.08.52,0-.12,0,.58,0-.11v.62l0-.1-.05.67Zm4.12,3.44-.3-.07.23.08-.3-.09.19.08-.32-.1.18.07-.32-.11.15.07-.28-.11.09.05-.12-.05h.35l.21,0h-.12l.19,0H35l.25.05-.27,0,.29.07-.28-.05Z"></path><path class="cls-3" d="M279.8,238l-1.71.39-1.71.41-1.72.42-1.71.43-1.71.44-1.72.45-1.71.46-1.72.48-1.71.5-1.72.5-1.72.52-1.7.53-.87.27-.86.28-.85.28-.86.28-.86.29-.85.3-.86.29-.86.3-.86.31-.85.31-.86.32-.85.32-.86.32-.85.33-.6.23-.25.11-.85.34-.86.35-.85.35-.84.36-.86.37-.53.23-.54.24-.54.24-.55.26-1,.49-1,.51-1,.53-1,.53-1,.55-1,.55-1,.57-1,.57-1,.58-1,.59-.95.59-.95.61-.93.61-.93.61-.92.62-.91.62-.9.63-.9.63-.89.64-1.76,1.28-.87.64-.87.64-.85.65-.86.65-.85.65-1.67,1.29h0l-1.63,1.29-1.63,1.3-1.61,1.3-1.61,1.28-1.58,1.27-1.58,1.24-1.58,1.24-.77.6-.77.6-.78.59-.77.58-.78.59-.77.57-.77.56-.76.56-.77.54-.76.54-.77.53-.76.52-1.52,1-.77.49-.75.48-.77.47-.76.46-.76.44-.78.45-1.16.66-1.18.66-1.17.65-1.18.64-1.17.64-1.17.63-1.17.62-1.16.62-1.17.61-1.15.6-1.17.6-1.15.59-1.16.59-1.16.58-1.16.57-1.15.56-1.16.57-1.16.55-1.15.55-1.16.54-1,.46-.18.08-1.15.54-1.16.53-1.15.53-1.16.52-1.15.52-1.16.51-1.16.51-1.16.5-1.16.5-1.17.49-1.17.49-1.17.49-1.17.47-1.17.48-1.18.47-1.18.47-1.18.46-1.18.45-1.19.46-1.2.45-1.19.45-1.2.44-1.21.44-1.21.43-1.2.44-1.22.43-1.23.42-1.22.42-1.23.42-1.24.42-1.24.41-1.25.41-1.25.41-1.26.4-1.26.4-1.27.4-1.28.4-1.28.39-1.29.39-1.3.39-1.3.39-1.31.38-1.31.38-.76.22-.75.21-.76.21-2.28.6-.76.19-.77.19-.76.18-.77.18-.77.17-.77.17-.77.17-.78.16-.77.17-.77.15-.78.15-.78.15-.78.14-.78.15-.78.13-.2,0-.59.11-.78.13-.78.13-1.58.24-.78.12-.8.11-.79.11-.79.11-.8.1L86,324l-.8.1-.79.08-.8.09-.8.09-.8.08-.8.08-.8.07-.8.08-.8.06-.81.07-.8.06-.8.06-1.63.1-1.61.09-1.62.09-1.62.06-1.63.06-1.62,0-1.64,0-1.63,0h-4.9l-1.64,0-1.64,0-1.64,0-1.64-.06-1.65-.07-1.64-.08L47,325l-1.65-.1-1.64-.11-1.65-.12-1.64-.13-1.64-.14-1.64-.14-1.64-.16-1.64-.17-1.64-.17-1.64-.18-1.63-.18-1.63-.2L25.67,323,24,322.77,23,322.62q.63,1.29,1.29,2.58c.63,1.25,1.28,2.49,1.94,3.72q1.68,3.18,3.47,6.28,1.55,2.69,3.16,5.31l.72.1,1.72.23,1.72.23,1.72.22,1.73.2,1.74.2,1.73.19,1.74.18,1.74.17,1.74.15,1.75.15,1.74.14,1.75.12,1.76.12,1.75.1,1.76.09,1.75.08,1.76.07,3.52.1,1.77,0,1.76,0h3.53l1.77,0,1.75,0,.9,0,.88,0,.88,0,.89,0,.88,0,.88,0,.89,0,.88-.05.88-.06.89-.06.88-.06.88-.07.89-.07.88-.08.88-.08.75-.07h.14l.88-.09.88-.09.88-.1.89-.1.88-.1.88-.11.66-.09.22,0,.88-.12,2.64-.39.88-.14.88-.14,1.76-.3.88-.16.87-.16.88-.17.87-.17.88-.17.88-.19.87-.18,1.74-.38.8-.18.08,0,.87-.21.87-.21.86-.21,1.4-.35,1.38-.35,1.37-.35,1.37-.36,2.72-.72,1.35-.36,1.35-.37,1.34-.37,1.34-.38,1.33-.37,1.33-.39,1.32-.38,1.32-.39,1.32-.39,1.31-.4,1.3-.4.5-.16.81-.25,1.3-.41,1.29-.41,1.3-.41,1.29-.43,1.29-.42,1.28-.43,1.28-.44,1.28-.44,1.28-.44,1.28-.45,1.27-.45,1.27-.46,1.26-.46,1.27-.47,1.27-.47,2.52-1,1.26-.49,1.26-.49,1.26-.51,1.25-.5,1.26-.51,1.26-.52,1.25-.52,1.26-.52.2-.09,1-.45,1.25-.55,1.25-.54,1.26-.56,1.25-.56,1.25-.57,1.25-.57,1.26-.58,1.25-.59,1.26-.6,1.25-.6,1.26-.6,1.26-.61,1.26-.62,1.26-.63,1.27-.63,1.26-.64,1.27-.65,1.26-.65,1.28-.66,1.29-.68,1-.52,1-.55,1-.55,1-.57,1-.56,1-.58,1-.59.94-.59.94-.59.93-.6.91-.61.92-.61.9-.61.9-.62.9-.62.88-.62,1.76-1.26,1.74-1.26,1.7-1.25,1.69-1.26,1.68-1.25,1.66-1.25,1.64-1.23,1.63-1.22,1.61-1.19v0l1.6-1.2.79-.59.79-.58.79-.58.79-.57.78-.57.78-.55.78-.56.78-.54.78-.53.77-.53.78-.51.77-.51.77-.49.77-.49.76-.48.77-.46.77-.46,1.52-.88.77-.42.76-.41.76-.39.76-.39.76-.38.76-.36.78-.36.36-.15.38-.17.38-.16.39-.17.72-.3.74-.3.73-.29.74-.3.74-.29.21-.08.52-.2.74-.29.75-.28.74-.28.74-.28.75-.27.75-.27.75-.26.75-.27.75-.25.75-.26.76-.25.75-.25.76-.25.75-.24,1.54-.48,1.53-.46,1.54-.46,1.54-.45,1.55-.43,1.55-.42,1.56-.42,1.57-.4.86-.22q.56-12.39.76-25.23Z"></path><path class="cls-3" d="M272.17,335.2l-1.34.43-1.33.41-1.34.41-1.11.32-.23.07-1.34.38-1.34.37-1.33.35-1.34.35-1.34.32-1.33.32-1.32.31-1.33.28-1.32.28-1.32.26-1.31.25-1.33.24-.63.11h0l-1.28.24-.64.11-.65.11-.63.11-.64.09-.64.11-.63.09-.63.09-.63.09-.63.08-.62.08-.62.08-.62.07-.61.07-.62.06-.61.06-.61.06-.6.05-.61.05-.59.05-.6,0-.59.05-.59,0-.58,0-.58,0-.58,0-1.41,0-1.41,0-1.42,0-1.42,0h-1.43l-1.43,0h-1.44l-2.88,0-1.45,0-1.45,0-1.46,0-1.46,0-1.46,0-1.46-.06-1.47-.07-1.47-.07-1.48-.08-1.47-.09h-.07l-1.41-.1-1.48-.1-3-.22-1.48-.13-1.49-.13-1.48-.14-1.49-.14-1.48-.15L191.3,341l-1.49-.16-1.48-.17-3-.36-1.49-.19-3-.4-1.49-.21-1.48-.21-1.48-.22-1.48-.23-1.48-.23-1.47-.24-1.48-.24-1.47-.25-1.47-.26-.86-.15-.61-.1-1.46-.25-1.46-.26-1.46-.26-1.46-.27-1.45-.28-1.45-.28-1.45-.28-1.44-.29-1.44-.29-1.43-.3-1.43-.31-1.42-.3-1.42-.32-1.41-.31-1.41-.33-2.8-.66-1.45-.34-.77-.19-.23-.06-.58-.13-.82-.17-.82-.17-.81-.15-.8-.15-.8-.14-.8-.13-.79-.12-.79-.11-.79-.11-.79-.09-.77-.09-.77-.09-.78-.07-1.52-.14-.75-.06-.76,0-.74-.05-.75-.05-.75,0-1.44-.07-1.44,0-1.42-.05-1.41,0-1.38,0-1.37,0h-1.34l-2.64,0h-2.55l-1.25,0-1.22,0-1.21,0-1.18,0-1.19-.05-.56,0-.56,0-.57,0-.56,0-.55,0-.55-.05-.55,0-.53-.05-.53-.05-.58-.07-2.71-.31-2.75-.32-2.76-.3-2.53-.26-.21,0-1.4-.1-1.38-.11-1.38-.09-1.39-.1L78.64,327,77.25,327l-1.38-.08-1.39-.08-1.39-.08-1.39-.07-1.39-.06-1.4-.06-1.39-.06-1.39-.05-1.4-.05-1.4,0-1.41,0-1.4,0-1.41,0-1.41,0H56.3l-2.84,0H48.93l-1.57,0H45.79l-1.58,0-1.58,0-1.58,0-1.38,0h-.22l-1.59,0-1.59-.06-1.59-.06-1.59-.08-1.6-.07-1.59-.1-1.59-.1-1.59-.11-1.58-.12-.9-.07c.63,1.25,1.28,2.49,1.94,3.72q1.68,3.18,3.47,6.28,1.55,2.69,3.16,5.31,3.55,5.82,7.46,11.39l.81.08,1.71.15,1.7.14,1.69.14,1.68.13,1.68.12,1.65.12,1.33.09,1.3.1,1.3.1,1.3.11,1.3.11,1.3.12,1.29.12,1.3.13,1.29.13,1.29.14,1.29.14,1.3.15,2.58.3,1.29.16,1.29.16,1.29.17,1.3.17,1.29.18,1.3.18,1.29.19,1.3.18,1.29.19,1.29.2.21,0,2.41.31,2.62.35,2.63.36,2.68.37.72.1.76.1.76.09.76.08.74.08.75.08.75.07.74.06.73.06.75.05,1.43.1,1.42.09,1.42.07,1.39.06,1.38.05,1.36.05,1.35,0,2.63.09,1.28,0,1.27.05,1.25.05,1.23.06,1.21.06,1.19.07,1.19.09.56,0,1.71.15.55.06.56.06.54.06.55.07.54.07.53.08.53.08.52.08.52.09.51.09.5.09.51.1.5.1.49.11.49.12.48.11.49.12.53.15,1.44.38,1.5.4,1.51.39,1.51.38,1.52.38,1.53.37,1.53.37,1.53.36,1.54.37,1.55.35,1.55.35,1.55.34,1.56.34,1.56.33,1.57.33,1.57.32,1.58.32,1.57.31.66.13.93.17,1.58.28,1.59.29,1.6.27,1.59.27,1.6.26,1.61.25,1.6.25,1.6.25,1.61.23,1.62.23,1.61.22,1.61.22,1.62.21,1.62.2,1.61.2,1.62.19,1.62.18,1.63.17,1.61.17,1.63.17,1.62.15,1.63.14,1.62.14,1.62.13,1.63.12,1.62.12,1.63.11,1.62.1,1.62.09,3.24.16,1.62.06,1.61.07,1.62.05,1.61,0,1.62,0,1.61,0,3.22,0h3.21l1.6,0,1.6,0,1.59,0,1.6,0,.76,0,.78,0,1.54-.08.78,0,.78-.05.78-.06.78-.06.78-.07.78-.07.78-.07.79-.08.78-.08.79-.09.79-.09.79-.09.79-.1.79-.11.79-.11.79-.11,1.58-.24.8-.12,1.58-.26.8-.14.78-.14h0l.81-.17,1.57-.31,1.59-.34,1.59-.35,1.59-.38,1.6-.38,1.59-.4.82-.22c1.64-7.51,3.14-15.46,4.51-23.79.22-1.27.42-2.56.62-3.85.34-2.16.68-4.34,1-6.54Z"></path><path class="cls-3" d="M274.64,324.28q-.57,4.44-1.18,8.76c-.09.61-.18,1.22-.26,1.82-.32,2.2-.66,4.38-1,6.54l-.47.22-.69.31-.68.3-.68.31-.69.3-.68.3-.69.29-.7.29-1.36.57-1.38.55-1.39.54-1.38.53-1.39.51-1.39.5-.58.21-.81.27-1.41.45-1.4.44-1.4.43-1.41.41-1.42.41-1.41.39-1.41.38-2.84.72-1.42.34-1.43.33-1.42.32-1.43.31-1.42.3-.28.06-1.16.19-1.45.22-1.44.21-1.44.2-1.45.2-1.45.18-1.44.18-1.45.16-1.45.16-1.45.14-1.45.14-.63.06-.82.06-1.46.1-1.46.09-1.45.08-1.46.08-2.92.12-1.46.06-1.46.05-1.46,0-1.47,0-1.46,0-1.46,0h-1.47l-1.46,0h0l-1.43,0h-1.47l-1.47,0-1.47,0-1.48,0-1.25,0-1.23,0-1.21-.05-1.19-.07-1.17-.07-1.15-.08-1.13-.1-1.12-.1-1.1-.12-1.09-.12-1.08-.13-1.07-.14-1.05-.15-1-.16-1-.17-1-.17-1-.18-1-.18-1-.19-1-.2-1-.2-1-.21-1-.22-.3-.06-.73-.24-2-.68-2.09-.69-2.16-.69-2.21-.7-.32-.1-.34-.1-.77-.21-.84-.22-.92-.23-1-.25-.5-.13-.49-.14-.51-.14-.5-.16-.51-.15-.51-.17-.5-.18-.51-.19-.49-.2-.25-.1-.25-.11-.25-.09v0l-.24-.12-.24-.12-.24-.12-.23-.13-.23-.13-.23-.14-.22-.14-.23-.14-.21-.15-.21-.16-.21-.16-.21-.17-.2-.17-.38-.36-.18-.19-.18-.2-.17-.2-.16-.21v0l-.14-.2-.15-.22-.13-.23-.11-.21.42-1.93L146,341l.09.12.14.16,0,0,.12.13.09.08.11.1.12.1.17.13,0,0,.13.09.13.09.14.08.18.11,0,0,.15.08.19.1,0,0,.16.08.16.07.21.08,0,0,.17.07.21.07.18.06,0,0,.22.07.19.05.16,0h0l.18,0,.19,0,.22,0,.18,0,.45.08.41.05.47.05.42,0,.48,0,.46,0,.46,0h4.95l.4,0,2.35.05,2.26,0,2.19,0h2.88l.29,0,1,.11,1,.1,1,.09,1,.08,1,.09,1,.07,1,.06,1,.06,1,0,1,.05,1,0,1,0,1,0h2l1,0,1,0,1,0,1.05-.05,1.08-.06,1.09-.08,1.11-.09,1.15-.1,1.41-.13,1.43-.15,1.42-.14,1.42-.15,1.38-.15h0l1.4-.14,1.41-.15,1.41-.16,1.4-.15,1.4-.17h.08l1.31-.16,1.39-.18,1.38-.18,1.38-.19,1.38-.2,2.74-.42,1.37-.22,1.36-.22.76-.14.6-.08,1.35-.22,1.35-.23,1.34-.23,1.35-.24,1.34-.25,1.33-.25,1.33-.27,1.33-.27,2.64-.58,1.06-.24.25,0,1.32-.25,1.32-.27,1.32-.27,1.31-.29L241,336l1.31-.31,1.3-.31,1.3-.33,1.29-.33,1.29-.35,1.29-.35,1.28-.38,1.28-.37,1.28-.4.74-.23.54-.16,1.28-.4,1-.34.09,0,.16-.05,1.25-.42,1.27-.43,1.27-.45,1.27-.46.62-.24.26-.09,0,0,.34-.12.63-.25L264,329l1.89-.75.62-.26.63-.26.62-.27.63-.27.62-.27.62-.27.63-.28.62-.29.62-.29.62-.28.62-.3.62-.29.62-.31.61-.3Z"></path><path class="cls-3" d="M276.91,301.75l.23,0q-.24,2.58-.51,5.13h-1.32l-.36,0H275l-.38,0-.34,0-.76.08-.38,0-.39.05-.39.06-.4.07-.4.07-.4.07-.8.16-1.6.36-.77.2-.76.19-.73.2-.69.19-.65.2-.6.18-.56.17-.48.16-.43.14-.35.12-.24.09-.22.08-3.56-1.68,1.68-3.57.24-.08.34-.11.41-.13.47-.14.55-.16.6-.17.65-.19.71-.18.75-.19.79-.19.82-.19.85-.19.87-.18.89-.16.45-.09.45-.07.45-.08.46-.06.45-.07.46-.05.9-.1.45,0,.45,0,.44,0,.45,0h1.31l.42,0Z"></path><path class="cls-3" d="M279,278.21c-.06,1-.13,1.9-.19,2.84l-.3,4.27h-.67l-.76,0-.76,0-.76,0-.76.06-.75.06-.76.07-.75.09-.75.09-.75.11-.75.12-.47.08-.27,0-.74.14-.74.16-.73.17-.74.17-.73.18-1.46.4-.72.21-.73.23-.72.23-.66.22-.05,0-.7.3-.69.31-.69.33-.68.33-.69.33-.67.34-.67.35-1.34.72-.66.38-.43.24-.23.14-.65.4-.65.4-.64.41-.64.41-.64.43-.63.43-.63.44-.62.44-.62.45-.62.45-.61.46-.61.47-.6.47-1.2,1-.6.49-.48.4-.11.09-.58.5-.59.5-.58.51-.57.52-.58.51-.56.52-.57.53-.51.49-.05,0-.56.54-.55.54-1.05,1-.5.5-.48.49-.46.47-.44.47-.42.46-.37.41,0,0-.4.43-.15.19-.2.23-.15.18L233,310l-.14.18-.18.22-.12.17-.16.23-.11.16-.15.22-.14.23-.1.15-.13.22,0-.07-.13.22-.07.14-.11.22-.11.23-.08.18,0,.08-.07.17-.11.28,0-.1-.06.17-.1.29v.06l-.08.29,0,.18,0-.12,0,.22,0,.08-.05.17-.05.18,0-.12-.08.3,0,.18h0l0,.19v-.12l-.05.32,0,.2,0,.21v.38l0,.29v1l0,.22v.24l0,.34,0,.35v0l-.08-.18.07.2h0l0,0,0,0,0,0,0,0,.1.12,0,.06,0,0,.17.16.08.07-.1-.07.1.08.09.08.11.09.12.09.12.09.13.09.11.07.1.07.11.07.18.11-.07,0,.2.11.13.08.19.11.2.1-.06,0,.16.08.42.2.34.16.44.19.44.18.37.14.42.15.41.15.42.14.42.13.41.13.4.11.38.12.76.2.67.18.18.05.23.06.18,0,.24,0,.19,0,.22.05.41.07.51.07.42.05.52.06.45,0,.54,0,.51,0h1.58l.54,0,.55,0,.56,0,.24,0,.32,0,.57-.06.57-.07.58-.08.58-.09.59-.1.59-.11.59-.12.59-.13.6-.13.59-.15.6-.15.6-.17.6-.16.59-.18.6-.19.59-.19.59-.2.59-.21.59-.21.58-.22.58-.23.57-.23.57-.24.57-.25.56-.25.55-.26.55-.26.54-.27.54-.28.52-.28.52-.28.51-.29.5-.29.5-.3.48-.3.47-.3.47-.31.45-.31.43-.31.43-.32.42-.31.4-.33.12-.09h0l.27-.21.35-.3.38-.34.37-.35,0,.05.39-.38.19-.19.18-.16,0-.05.23-.21.24-.21.48-.42.51-.43,1.07-.88.53-.46L276,309l.26-.22.21-.2c-.25,2.37-.5,4.72-.77,7.05l-.3.34-.4.42-.41.43-.42.42-.44.41-.45.41-.45.4-.47.41-.48.39-.49.4-.5.39-.52.39-.52.38-.53.37-.54.38-.54.36-.56.36-.57.36-.57.36-.58.34-.59.34-.59.34-.6.33-.61.32L263,325l-.63.31-.62.3-1.26.6-.64.28-.64.27-.65.27-.64.27-.66.25-.65.25-.66.23-.66.24-.66.21-.67.22-.66.2-.67.19-.67.18-.67.18-.66.16-.67.16-.67.14-.67.14-.38.07-.28.05-.67.11-.67.1-.66.09-.67.07-.66.06-.66.05-.65,0-.66,0h-2l-.65,0-.63-.05-.33,0-.32,0-.31,0-.32-.05-.32,0-.3,0-.75-.13-.84-.15-.47-.09-.48-.09-.5-.11-.52-.11-.53-.12-.54-.13-.56-.15-.48-.14h-.08l-.58-.17-.58-.18-.58-.2-.58-.22-.3-.12-.3-.12-.29-.13-.3-.13-.3-.14-.29-.16h0l-.3-.15-.14-.08-.15-.08-.29-.17-.29-.17-.29-.19-.29-.19-.28-.2-.29-.21L225,326l-.27-.24-.28-.24-.13-.12v0l-.13-.12L224,325l-.26-.29-.26-.29-.24-.31-.24-.32-.23-.34-.21-.35-.2-.37-.19-.38-.17-.39-.16-.41-.14-.42-.12-.43-.08-.41-.11-.51-.08-.47-.07-.47-.07-.47-.05-.46,0-.47,0-.26v0l0-.17v-.46l0-.46,0-.9,0-.44,0-.45,0-.43.06-.44.06-.43.08-.43.09-.42.09-.42,0-.11.1-.3.14-.4.15-.39.16-.39.16-.38.36-.74.19-.36.19-.36.2-.34.21-.35.22-.33.21-.33.23-.32.23-.31.24-.31.23-.3.25-.3.24-.29.25-.29.26-.28.26-.28.52-.54.26-.27.27-.26.28-.26.53-.5.05,0,.52-.45.57-.48.58-.47.58-.46.59-.46.6-.46,1.2-.91.66-.49.66-.5.67-.49.67-.48.67-.48.67-.48.68-.47.69-.47.68-.46.69-.45.13-.09.56-.36.7-.44.7-.45.69-.43.71-.43.71-.42.71-.41.71-.41.72-.41.71-.4.73-.39.72-.38.73-.38.73-.37.73-.36.74-.36.74-.35.26-.12.48-.23.74-.34.74-.34,1.5-.66,1.5-.62.77-.3.76-.29.76-.28.77-.28.06,0,.69-.29.75-.32.76-.3.76-.3.78-.29.77-.28.77-.27.78-.26.79-.26.79-.24.79-.23.28-.08.52-.15.8-.23.81-.22.81-.21.81-.19.82-.19.83-.18.83-.17.83-.16.84-.14.84-.14.85-.13.86-.11Z"></path><path class="cls-3" d="M258,400.69l-2.44.48-2.44.47-2.44.46-2.45.45-2.44.44-2.45.42-2.45.42-2.46.41-2.45.39-2.46.38-2.46.38-1.84.27-.63.1-2.46.37-2.46.38-2.46.35-2.47.35-2.48.33-2.47.33-2.48.31-2.48.3-2.48.3-2.48.27-2.49.27-2.49.26-2.49.25-2.5.23-2.49.23-2.51.21-2.5.2-2.5.19-2.51.18-2.51.16-2.51.16-2.15.12-.36,0-1.55.11-1.56.11-1.55.09-1.56.09-3.12.14-1.56.05-1.57,0-1.56,0-1.58,0h-.24l-1.33,0-1.57,0-1.58,0-1.58,0h-6.34l-1.59,0-1.59,0-1.59-.05-.89,0-.7,0-1.6,0-1.6,0-1.6-.05-1.6-.06-1.6-.07-1.6-.07-1.6-.09-1.6-.09-1.61-.09-1.6-.11-1.61-.11-1.6-.12-1.61-.12-1.61-.14-1.6-.14-1.61-.15-1.6-.15-1.61-.16-1.61-.17-1.6-.17-1.61-.18-1.6-.18-1.6-.2-.45-.06-1.15-.12-1.61-.18-1-.12q4,2.73,8.17,5.29,7.83,4.85,16.08,9.05a223.08,223.08,0,0,0,25.5,11h.32l1.7.08,1.7.07,1.71.06,1.7,0,1.7,0,1.44,0h3.67l1.71,0,1.7,0,1.7-.05,1.7-.06,1.7-.07,1.7-.08,1.7-.09,1.69-.1.38,0,2.24-.19,2.61-.24,2.61-.25,2.6-.26,2.61-.28,2.59-.28,2.6-.3,2.59-.31,2.59-.32,2.58-.33,2.58-.35,2.57-.35,2.58-.37,2.56-.38,2.57-.39,2.56-.4,2.56-.41,2.56-.42,2.55-.43,2.54-.44,2.55-.46,2.54-.46.65-.13,1.88-.37,2.53-.52,2.53-.52,2.52-.54,2.52-.54,2.51-.56,2.51-.57c.39-.8.79-1.62,1.18-2.45q1.74-3.75,3.41-8,2.19-5.53,4.25-11.82Z"></path><path class="cls-4" d="M260.23,51.94l-1.5,1-2.44,1.59-2.45,1.61-2.44,1.61L249,59.34l-2.09,1.38-2.1,1.38-2.1,1.36-2.11,1.36-2.12,1.33-1.07.67-1.06.66-1.07.66-1.06.66-1.07.66L232,70.1l-1.08.65-1.07.64-1.07.65-1.08.63-1.08.64-1.09.63-1.08.63-1.08.62-1.09.62-1.09.62-2.18,1.22-1.09.61-1.1.6-1.1.6-1.09.59-1.11.59-1.1.59-1.1.58-1.11.59-1.11.57-.42.22-.69.35-1.11.57-1.12.56-1.11.56-1.12.56-1.12.55-1.12.54-1.12.55-1.13.54L198,88.5l-1.13.53-2.26,1-1.14.52-1.14.51-1.14.51-2.28,1-1.14.49-1.15.49-1.15.49-1.15.47-1.16.48L182,95.5,180.8,96l-1.15.46-1.17.45-1.16.46-1.17.44-1.16.44-2.34.86-1.17.42-1.18.42-1.18.41-1.18.41-1.18.4-1.18.4-2.38.78-1.19.38-1.19.37-1.2.37-1.19.37-1.2.35-1.2.35-1.2.35-1.21.34-1.21.33-1.21.33-1.21.32-1.21.32-1.22.31-1.22.31-1.21.3-1.23.29-1.22.28-1.23.28-1.23.28-1.23.26-1.23.26-1.24.26-1.24.24-1.24.25-1.24.23-1.24.23-1.25.22-1.25.21-1.25.21-1.25.2-1.26.2-1.26.18-2.52.36-1.26.16-1.27.17-1.27.15-1.27.14-1.28.14h0l-1.26.12-1.28.13-1.29.11-1.28.1-1.28.09-1.29.09-1.29.08-1.29.08-1.3.06-1.3.06-1.29,0-1.3,0-1.82.05-1.83,0-1.84,0-1.85,0-1.86,0-1.87,0H81.07l-.95,0-1,0-1,0-1,0-1,0-1,0-1,0-1-.06-1-.06-1-.06-1-.07-1-.08-1-.08-1-.1-1-.09-1-.11-1-.11-1-.11-1-.13-1-.13-1-.15-1-.15-1-.16-1-.16-1-.17-1-.19-1-.19-1-.2-1-.22-1-.21-1-.24-.95-.24-1-.25-.95-.26-1-.27-1-.29-1-.29-1.9-.62-1-.33-.1,0-.83-.35L40.7,107l-.92-.42-.92-.43-.81-.4-.81-.4-1.58-.84-.78-.43-.15-.09q4-6.3,8.4-12.3l.42.18.65.26.66.26.76.29.78.27.77.27.71.24.07,0,.77.31.76.29.78.29.78.29.78.27.79.26.8.26.8.25L55,96l.81.23.81.22.81.22.83.22.82.2.83.2.83.19.84.18.84.18.84.16.85.17.85.15.86.15.85.15.86.14.87.13.86.12L71,99.2l.88.11.87.1.88.1.88.1.89.09.88.08.89.08.89.07L79,100l.9.06.89.07.89,0,.89.06.9,0,.9,0,.89,0,1.8.08,1.8.07,1.8.06,1.79.05,1.8,0,1.8,0,1.79,0,1.78,0h4.9l1.22,0,1.22,0,1.22,0,1.21,0,1.22,0,2.42-.12,1.2-.07h0l1.21-.07,1.21-.07,1.2-.09,1.2-.09,1.21-.1,1.2-.1,1.2-.11,2.4-.24,1.2-.13,1.19-.14,1.2-.15L129.8,99l1.19-.16,1.19-.16,1.19-.17,2.38-.36,1.18-.2,1.19-.19,1.18-.21,1.19-.2,1.17-.22,1.18-.23,1.18-.22,1.18-.24,1.17-.24,1.18-.24,1.17-.26,1.17-.26,1.17-.27,1.17-.27,1.17-.27,1.17-.29,1.16-.29,1.16-.29,1.17-.3,1.16-.31,1.16-.31,1.16-.32,1.16-.33,1.15-.33,1.16-.33,1.15-.34,1.15-.35,1.15-.35,1.15-.36,1.15-.36,1.15-.37,1.15-.37,1.14-.38,2.28-.78,1.14-.39,1.14-.4,1.14-.41,1.14-.4,1.13-.42,1.14-.42,3.39-1.29,1.13-.45,1.13-.44,1.12-.45,1.13-.45,1.12-.46,1.12-.47,1.13-.47,1.12-.47,1.11-.48,1.12-.48L199,79l1.12-.49,3.33-1.5,1.11-.52.69-.32.42-.19,1.11-.52,1.1-.52,1.11-.52,1.1-.53,1.1-.54,1.1-.54,1.09-.54,1.1-.55,1.09-.55,1.1-.56,1.09-.56,1.09-.56,1.1-.56,1.08-.57,1.09-.58,1.08-.58,1.09-.58,1.08-.58,1.08-.59,1.08-.59,1.08-.6,1.08-.6,1.08-.6,1.07-.61,1.07-.61,1.08-.61,1.07-.62,2.14-1.24,2.13-1.26,2.12-1.26,2.12-1.28,2.12-1.3,2.5-1.53,2.51-1.53,2.51-1.53,2.51-1.52,2.51-1.51.24-.14Q259.4,49.16,260.23,51.94Z"></path><path class="cls-4" d="M268.94,87.62c.32,1.64.64,3.29.95,5l-.25.08-3.88,1.22L261.9,95.1l-3.85,1.24-3.82,1.25-1.91.63-1.89.64-1.89.65-1.88.65-1.87.66-1.86.67-1,.37-.81.33-1.82.76-1.8.76-1.79.78-1.78.77-1.77.79-.95.43-1,.43-.95.44-.95.46-1.9.9-1.88.91-.72.37-.83.43-.94.5-.49.27-.52.28-.54.31-.56.31-.56.33-.59.35-.6.35-.6.38-.62.38-.62.39-.63.4-.63.42-.64.42-.64.43-.63.44-.63.46-.63.46-.08,0-.51.46-.57.53-.57.54-.54.54-.54.55-.51.55-.5.57-.24.27-.23.28-.24.28-.22.28-.22.28-.21.28-.21.28-.19.28-.1.14-.11.11-.23.25-.22.24-.22.25-.21.24-.2.24-.2.25-.18.23-.19.25-.16.22-.18.26-.15.22-.13.22-.14.23-.15.26-.13.24-.11.22-.09.2-.11.26-.09.22-.07.18-.07.22-.08.26,0,.17,0,.21v0l0,.21v-.06l0,.27,0,.14v.6l0,.26,0,.19,0-.05,0,.19.06.26,0,.14,0,.06,0,.13.1.26.06.14.1.2.12.23.14.22,0,0,.17.24.12.16.16.21.21.24.19.2.18.19.22.21.24.2.28.24,0,0,.27.22.3.21.29.2,0,0,.31.2.33.2.36.21.37.2.4.21.41.2.33.16.35.14h0l.34.14.33.13.34.13.35.12.33.11.34.11.35.1.34.1.36.09.35.09.36.09.36.08.37.08.37.07.72,1-1,.71-.39-.05-.38-.07-.38-.06-.39-.08-.38-.07-.38-.09-.38-.08-.37-.09L210,139l-.37-.11-.38-.11-.38-.12-.37-.13-.38-.13-.38-.15-.37-.15-.46-.2-.45-.2-.43-.2-.41-.21-.4-.22-.38-.21-.36-.23-.35-.23-.34-.23-.32-.24-.31-.23-.29-.25-.28-.25-.27-.26-.25-.26-.24-.26-.21-.27-.21-.28-.19-.28-.18-.28-.17-.29-.15-.29-.13-.3-.12-.3-.1-.31-.09-.3-.07-.31-.06-.32,0-.31,0-.31,0-.32v-.63l0-.31,0-.31.05-.32.06-.31.07-.31.08-.31.09-.31.22-.62.12-.3.13-.31.14-.3.15-.3.16-.3.17-.3.17-.3.18-.29.19-.3.19-.3.2-.29.21-.29.21-.29.23-.3.22-.29.24-.28.23-.29.13-.15.14-.12.29-.24.29-.25.6-.48.31-.24.3-.24.32-.23.31-.24,1.28-.92.67-.45.66-.44.66-.44.68-.43.6-.37.07-.06.64-.47.65-.46.64-.45.65-.45,1.28-.86.64-.41.63-.4.62-.39.61-.38.61-.36.59-.36.58-.34.56-.32.54-.31.53-.29.5-.29,1-.5.84-.45.74-.37,1.89-.93.95-.46.94-.46,1-.46,1-.45,1-.44,1-.44,1.77-.8,1.78-.79,1.8-.78,1.81-.78,1.81-.77.81-.34,1-.46,1.8-.83,1.81-.83,1.81-.84,1.82-.83,1.83-.83L253.2,95l3.67-1.68,3.66-1.7,3.67-1.72,3.66-1.75Z"></path><path class="cls-4" d="M227.1,200l-.61.37-6.09.85-6.08,1-3.52.61-8.64,1.57-6.08,1.22-5,1.07-1.07.14-6.13.83-6.13.82-3.07.42-3.07.41-3.07.41-2.38.32-.7.08-3.07.35-3.09.35-3.08.34-3.08.34-3.08.33-3.09.33-3.09.32-3.09.32-2.37.23-.72.06-3.1.22-3.1.22-6.2.4-3.1.19-3.11.18-3.1.17-3.11.16-3.1.15-1.38.06-1.73.07-3.11.11-3.11.11-3.11.09-3.11.07-3.12.07-3.11.05-3.11,0-3.11,0H72.42l-1.56,0h-.34l-1.22,0-1.56,0-1.55,0-1.56,0-1.56,0-1.56-.05L60,215.1l-1.56,0L56.84,215l-1.56-.06-1.56-.08-1.56-.07-1.56-.08-1.55-.08-1.56-.1-1.56-.09-1.56-.1-1.55-.1-4.68-.33-1.55-.13L35,213.64l-1.56-.13-1.18-.11-.38,0-1.55-.16-1.57-.16-1.44-.16-1.45-.17-1.44-.19-1.44-.2-1.44-.2-1.43-.22-2.86-.46-1.43-.25-.68-.12-.74-.15L13,210.65l-1.41-.29-1.41-.3-1.41-.31-1.39-.31L6,209.12l-1.4-.33-1.39-.34-1.39-.34-.71-.18-.55-.15q.43-6.25,1.22-12.4l.09,0,1.35.24.67.12.69.14,1.34.27,1.35.26,1.34.26,1.35.25,1.35.24,1.34.23,1.34.23,1.35.21,1.34.21.7.1.64.1,1.34.21,1.34.2,1.34.18,1.34.18,1.34.17,1.34.16,1.34.14,1.34.14,1.35.12,1.5.13,1.52.12.36,0,1.15.1,1.52.14,1.51.12,1.52.12,3,.24,1.51.1,1.52.11,1.52.1,1.52.1,1.52.08,1.52.09,1.52.09,1.52.07,3,.14,1.53.07,3,.12,1.52,0,1.53.05,1.52,0,1.52,0,1.53,0,1.2,0h.32l1.53,0,1.52,0,1.53,0,1.53,0,1.52,0,1.53,0,1.52,0,3.06,0,3.06,0H91l6.12,0,6.12-.08,3.07-.06,1.71,0,1.35,0,3.07-.06,3.07-.07,6.14-.18,3.07-.1,3.07-.11,3.07-.13,3.07-.12,3.08-.14.71,0,2.36-.05,3.08-.07,3.08-.08,3.08-.09,3.08-.1,3.08-.1,3.08-.11,3.08-.12,3.09-.12.69,0,2.39-.05,3.09-.08,3.08-.08,3.09-.09,6.17-.2,6.16-.22,1.09,0,5.11.2,6.19.15,8.79,0h3.57l6.16-.08,6.14-.2Z"></path><path class="cls-4" d="M280.67,219c0,1.58,0,3.16,0,4.75,0,.62,0,1.25,0,1.87l-2.22.5-4.54,1-4.54,1-4.53,1-2.93.66-1.59.36-2.26.52-2.26.51-2.26.53-2.25.52-2.25.53-4.5,1.08-2.24.55-2.24.55-2.23.57-2.23.57-2.23.58-2.22.59-2.21.6-1.95.53-.27.07-2.21.61-2.21.62-2.2.63-1.1.32-1.09.32-1.1.33-1.09.33-1.1.33-1.09.34-1.09.34-1.08.34-1.09.34-1.09.36-1.08.35-1.08.36-1.09.36-1.08.37-1.07.37-1.08.37-1.07.38-1.07.39-1.07.38-.23.09-.84.29-1.08.37-1.07.39-1.08.38-1.06.39-.5.18-.49.19-1,.38-1,.39-1,.4-1,.41-.94.41-.93.44-.92.43-.91.45-.4.21-.5.24-.9.46-.89.47-.89.48-.87.48-.87.49-.87.5-.85.51-.85.51-.85.52-.84.53-.83.54-.83.55-1.64,1.1-.82.57L170.27,262l-.8.59-.8.58-.8.59-.33.25-.46.35-.8.6-.79.61-.78.61-.79.61-.79.62-1.56,1.25L160,269.88l-1.56,1.27-1.57,1.29L153.73,275l-1.59,1.31-1.59,1.3-3.22,2.62-.82.66-.83.65-.82.65-.83.65-.84.65-.84.65-.85.65-.85.64,0,0-.71.54-.72.56-.73.55-.74.55-.73.54-.74.53-.74.53-.74.53-.74.53-2.25,1.53-1.5,1-1.52,1-.76.48-.64.4-.13.08-.76.47-.77.47-.77.47-.77.46-.78.45-.78.45-.78.45-.78.44-.78.43-.79.43-.79.43-.79.42-.79.42-.8.42-.79.4-.8.41-.81.4,0,0-.76.37-.8.4-.81.39-.82.38-.81.38-.82.37-.81.37-.82.37-.82.36-.83.36-.83.35-.83.35-.83.34-.84.34-.83.34-.85.33-.84.33-.84.32-.85.32-.85.31-.85.32-.86.3-.85.3-.86.31-.86.29-.87.29-.86.29-.87.28-.87.28-1.46-.75.75-1.46.86-.27.86-.29.85-.28.85-.29.86-.3.84-.3.84-.3.84-.31.85-.31.83-.31.84-.32.83-.32.83-.33.82-.33.83-.33.82-.34.82-.35.82-.35.81-.34.81-.36.81-.36.81-.37.8-.37.81-.37.79-.37.8-.38.79-.39.8-.39.75-.37,0,0,.79-.4.78-.4.78-.41.78-.41.78-.42.78-.42.77-.42.77-.44.77-.43.76-.44.77-.45.76-.44.75-.46.76-.45.75-.47.76-.46.75-.48.75-.47.74-.49.18-.11.56-.37.74-.49.74-.5.74-.49.73-.51.74-.51.72-.51,1.46-1,.72-.53.72-.54.72-.54.71-.54.72-.55.71-.55.69-.54,0,0,1.62-1.34.81-.68.79-.67.8-.68.78-.68.78-.69.78-.68,1.55-1.37,1.54-1.37,1.52-1.37,1.52-1.38,3-2.74,1.51-1.37,1.51-1.36,1.51-1.35,1.52-1.35.77-.67.76-.66.77-.66.77-.66.78-.67.45-.37.33-.28.78-.65.79-.64.79-.65.8-.63.81-.64.81-.63.81-.62.82-.62.83-.61.83-.61.85-.61.84-.59.86-.59.87-.59.87-.58.89-.57.89-.56.91-.56.91-.55.92-.54.51-.3.42-.23.95-.52.95-.52,1-.5,1-.5,1-.48,1-.48,1-.46,1-.46.52-.22.52-.22,1.08-.46,1.07-.44,2.16-.88.85-.34.23-.09,1.1-.41,1.09-.4,1.09-.4,1.1-.39,1.1-.39,1.09-.38,1.1-.38,1.1-.38,1.11-.37,1.1-.37,1.1-.36,2.22-.72,1.11-.35,1.1-.35,1.12-.35,1.11-.34,1.11-.34,1.12-.33,2.23-.67,2.23-.65,2.24-.63.27-.08,2-.54,2.26-.6,2.25-.59,2.25-.58,2.26-.57,2.26-.57,2.26-.56,2.26-.54,2.26-.54,2.27-.54,2.27-.53,2.27-.52,2.27-.52,2.26-.52,2.27-.51,1.6-.36,2.95-.66,4.54-1,4.54-1,4.53-1Z"></path><path class="cls-4" d="M278.81,281.05l-.3,4.27c-.1,1.45-.21,2.89-.32,4.32l-.27,0-.73.08-.73.1-.73.1-.74.1-.74.1-.73.12-.74.12-.74.13-.74.13-.73.14-.74.15-.74.15-.73.15-.74.17-.73.17-.74.17-.73.19-.73.18-.74.2-.73.2-.73.2-.72.21-.73.22-.72.23-.72.23-.73.24-.72.24-.71.25-.71.25-.71.27-.72.26-.7.28-.7.28-.71.29-.28.12-.41.17-.7.3-.69.3-.69.32-.68.32-.69.32-.67.33-1.34.68-.67.35-.66.36-.66.36-.65.37-.65.38-.64.38-.64.39-.64.4-.63.4-.62.41-.62.42-.61.42-.36.26-.05,0-.2.13-.61.44-.59.44-1.18.9-.58.47-.57.47-.57.47-.48.42-.49.42-.48.44-.49.45-.5.47-.48.48-.49.48-.48.51-.47.51-.48.52-.23.26-.22.27-.23.27-.23.27-.21.27-.22.28-.22.27L228,314l-.2.28-.21.28-.2.28-.19.29-.18.27-.19.3-.17.28-.19.3-.18.31-.16.27-.16.31-.15.28-.16.31-.13.28-.13.27-.1.23,0,.09-.13.31-.11.28-.1.28-.11.31-.09.28-.1.32-.09.32-.07.27-.07.3v0l0,.27-.06.27v.05l0,.27,0,.27,0,.36,0,.23v1.18l0,.36v.19l0,.12,0,.15,0,.08,0,.09v0l0,.08,0,.06v0l.05.13,0,.08v0l0,0,0,.1,0,.07,0,.07,0,.08,0,.07,0,.07,0,0,.06.07.09.12,0,0,.1.11.14.15.15.14.17.14.1.09.19.14.06,0,.2.13.18.12h0l.17.1.23.13.24.12.25.12.27.12.29.12.26.1.3.11.27.09.32.1.32.1.29.08.33.09.31.07.34.08h0l.34.07.33.07.33.06.34.06h.07l.26,0,.34.06.68.09.67.09.67.07.65.06.65,0,.62,0,.34,0h.85l.55,0,.52,0,.93,0,.48,0,.47,0,.48,0,.48,0,.47,0,.48-.05.48-.06.47-.07,1-.14.48-.08.47-.09.48-.09.47-.09.47-.11.48-.1.47-.11.47-.12.47-.12.47-.13.47-.13.46-.14.46-.14.47-.15.45-.15.46-.16.46-.16.45-.17.45-.17.45-.18.44-.18.44-.19.45-.19.43-.2.44-.2.43-.21.43-.21.42-.21.84-.46.4-.22.41-.24.08-.05.34-.16.42-.22.41-.23.4-.22.41-.23.4-.24.39-.24.4-.24.39-.25.38-.25.38-.26.38-.27.37-.27.36-.27.37-.27L265,320l.36-.28.35-.29.34-.29.34-.3.33-.31.32-.3.23-.22.28-.28.27-.29.21-.25.27-.29,0,0,.26-.3.25-.32,0,0,.25-.32.46-.62.22-.32.23-.32.22-.33.22-.33.23-.35h0l.18-.28.13-.2.12-.2.09-.15.11-.21.09-.17.11-.21.08-.17.08-.17.11-.23.09-.22v.05l.09-.23.1-.22.15-.4.14-.39.1-.32.1-.31.07-.24.08-.29.06-.21.06-.27,0-.22,0-.2,0-.19v-.53h-.9l-.16,0-.16,0-.17,0-.21,0-.13,0-.42.09-.37.08-.44.11-.4.11-.47.14-.45.15-.46.15-.46.17-.48.17-.47.19-.48.2-.49.2-.47.21-.48.22-.48.22-.48.22-.47.24-.46.23-.46.24-.45.23-.43.24-.43.23-.42.24-.4.23-.38.23-.37.22-.36.22-.33.21-.31.21-.32.21-.24.16,0,0-.67-.45,0,0-.66-.39-.57-.28,0,0-.5-.19-1.72-2.2,0-.54-.06-.67-.1-.79-.13-.83,0,0,.36-.24.38-.24.39-.25.41-.26.43-.25.44-.26.46-.25.47-.27.48-.26,1-.52.52-.27.53-.26.53-.25.54-.26.56-.26,1.12-.48.57-.24.57-.23.58-.23.58-.22.58-.2.58-.2.58-.19.58-.17.59-.17.59-.15.58-.14.58-.12.57-.11.31-.05.29,0,.29,0,.29,0,.29,0,.3,0h.3l.29,0H273l.3,0,.3,0,.3,0,.31,0,.3.06.31.06.31.08.31.09.31.11.31.13.31.14.31.15.31.18.19.13,0,.36q-.24,2.58-.51,5.13c-.05.57-.11,1.14-.17,1.71-.25,2.37-.5,4.72-.77,7.05l-.45,3.8-.17.22-.29.39-.31.37-.62.76-.33.37-.34.36-.34.37-.36.36-.36.35-.38.34-.41.37-.42.37-.43.35-.43.35-.43.34-.44.33-.44.33-.45.32-.45.32-.45.31-.46.3-.47.3-.46.29-.48.29-.47.27-.47.28-.49.26-.48.26-.49.26-.49.24-.22.11,0,0-.25.12-.4.19-.09,0-.51.21-.52.19-.52.19-.51.19-.52.18-.52.17-.53.16-.52.17-.53.15-.52.14-.16.05-.09,0-.28.08-.53.13-.52.13-.53.13-.54.12-.53.11-.53.11-.53.1-.53.1-.54.09-.53.08-.53.08-.54.08-.53.07-.53.06-.54.06-.53.05-.53.05-.53,0-.53,0-.53,0-.53,0-.53,0h-3.14l-.52,0-.53,0-.51,0-1-.06-.54,0-.58,0-.61,0-.28,0h-.36l-.66,0-.69,0-.71,0-.73-.05-.74-.07-.74-.07-.38-.05-.38,0-.38-.06-.38-.05-.38-.07-.38-.06-.37-.08-.39-.07-.74-.18-.38-.1-.37-.1L227,332l-.37-.11-.36-.13-.36-.13-.36-.14-.35-.15-.34-.16-.34-.17-.34-.18-.33-.19-.32-.2-.32-.21-.31-.23-.3-.24-.29-.25-.27-.26-.15-.15-.13-.15-.13-.14-.13-.15-.12-.16-.12-.16-.11-.16-.12-.17-.1-.16-.11-.18-.09-.18-.1-.18-.08-.18-.09-.19-.08-.19-.07-.2-.07-.19-.06-.21-.06-.2-.05-.21,0-.2,0-.21,0-.22,0-.21,0-.42,0-.41,0-.42v-1.23l0-.41,0-.41,0-.4.06-.41.06-.4.08-.4.08-.4.09-.39.11-.4.1-.39.12-.38.13-.39.13-.38.07-.16v0l.07-.2,0-.11.1-.27.16-.38.15-.37.34-.74.18-.36.18-.37.18-.36.2-.36.19-.35.2-.35.21-.35.21-.35.22-.34.21-.34.23-.33.22-.34.23-.33.24-.33.23-.33.24-.32.24-.31.24-.32.25-.31,1-1.22.51-.58.51-.58.51-.55.51-.55.51-.53.51-.51.51-.5.5-.48.59-.55.59-.54.61-.54,1.22-1.06.62-.51.63-.52.63-.5.65-.5.64-.48.65-.49.66-.47.66-.47.67-.47.67-.45.68-.45.68-.44.69-.44.69-.42.7-.43.7-.42.71-.4.71-.4.71-.4.72-.39.73-.38.72-.38.73-.37.43-.21.31-.15.74-.35.73-.35.75-.34.75-.33.75-.34.75-.32.76-.31.75-.31.76-.31.77-.29.76-.29.77-.29.77-.27,1.54-.54.78-.25.78-.26.78-.24.78-.24.78-.23.78-.23.78-.22.79-.21.79-.21.78-.2.79-.2.79-.18.78-.19,1.58-.34.78-.17.8-.15.78-.16.79-.14.79-.14.43-.07.45-.07Z"></path><path class="cls-4" d="M272.82,333.44l.64-.4c-.09.61-.18,1.22-.26,1.82-.32,2.2-.66,4.38-1,6.54-.2,1.29-.4,2.58-.62,3.85l-.71.35-1,.48-1,.47-1,.46-1,.46-1,.44-1.05.42-.1.05-.95.37-1.05.41-1.06.4-1.06.38-1.07.38-1.06.37-1.07.36-1.08.34-1.07.33-1.08.33-1.08.32-1.08.3-1.09.3-1.09.28-1.09.28-1.09.27-1.09.25-1.1.25-1.09.24-1.1.23L242,355l-1.11.21-1.09.2-1.11.19-1.09.19-1.1.17-1.11.16-1.1.15-1.1.15-1.1.13-1.31.15-1.31.14-1.32.13-1.31.11-1.31.1-1.32.09-1.31.09-1.32.07-1.32,0-1.32.05-1.31,0-1.32,0h-5.27l-1.32,0-1.31,0-.73,0h-.59l-1.32,0-1.31,0-1.32,0-1.32-.05-1.31-.07-1.32-.07-1.31-.07-1.32-.08-1.32-.09-1.31-.09-1.31-.1-1.32-.11-1.31-.12-1.31-.11-3.93-.39-1.31-.14-1.3-.14-1.3-.15-1.31-.15-1.3-.16-1.31-.16-1.29-.16-1.3-.17-2.59-.34-2.59-.36-2.58-.37-2.57-.37-2.56-.38-2.55-.39-2.54-.38-2.54-.39-5-.79-11.38-1.75-5.68-.87-5.69-.87-5.68-.86-5.69-.85L109,345l-5.69-.83-2.51-.37-3.17-.45-5.69-.81-.69-.1-2.15-.3-2.85-.39-2.84-.39L80.56,341l-2.85-.38-2.85-.38L72,339.86l-2.85-.37-5.7-.72-2.85-.36-2.85-.34-3-.36-3-.35-3-.35-3-.33-1.48-.16-1.49-.15-1.48-.16-3-.28L37,335.79l-3-.26-1.48-.12-1.47-.11-1.43-.1q-1.78-3.1-3.47-6.28l.81,0,1.51.08,1.5.09,1.5.1,1.51.1,1.5.11,1.5.12,1.51.12,3,.26,1.51.14,1.5.14,3,.3,3,.31,3,.33,3,.33,3,.34,2.87.33,2.86.33,2.87.34,5.72.7,2.86.35,2.85.36,2.86.36,5.72.74,2.85.38,2.86.37,5.71.77,3.17.43,2.53.35,5.7.79,3.33.47,2.37.33,5.7.81,5.71.82,5.69.83,5.7.83,5.75.84,5.64.83,5,.74,2.53.37,2.54.37,2.54.36,2.54.36,2.56.35,2.55.34,2.56.33,2.56.33,1.28.15,1.27.15,1.29.15,1.28.14,1.28.14,1.28.14,1.28.13,1.29.13,1.28.12,1.28.12,1.28.11,1.28.11,1.28.1,1.28.09,1.28.09,1.28.08,1.28.08,1.28.07,1.27.06,1.28.05,1.28.05,1.27,0,1.27,0,1.28,0,1.27,0h2.54l1.26,0,1.27,0,1.26,0,1.27-.05,1.25-.06,1.26-.07,1.26-.08,1.25-.09,1.25-.09,1.25-.11,1.24-.12,1.25-.13,2.48-.28,1.23-.17,1.23-.17,1.24-.19,1-.16,1-.17,1-.18,1-.19,1-.19,1-.21,1-.22,1-.22,1-.23,1-.24,1-.25,2-.52,1-.28,1-.28,1-.3,1-.3,1-.31,1-.32,1-.33,1-.33,1-.35,1-.35,1-.37,1-.37,1-.38,1-.4,1-.4,1-.41.85-.37.1,0,.94-.42.94-.44.93-.45.93-.45.92-.47.92-.47.47-.25.44-.23.9-.49.9-.51.9-.51.88-.52L272,334Z"></path><path class="cls-4" d="M254.43,412.38q-1.67,4.22-3.41,8l-1.22.25-.4.08-1.09.21-1.5.28-3,.54-1.5.26-1.5.25-3,.48-1.51.22-1.51.23-1.5.22-1.51.21-1.51.2-1.51.2-1.52.19-1.51.18-1.51.17-1.51.18-1.52.16-1.52.16-1.44.14h-.08l-3,.24-1.52.11-1.52.11-1.52.09-1.52.1-1.53.09L206,426l-1.52.08-1.53.07-1.52.07-1.53.06-1.53.05-1.52.05-1.53,0-1.52,0-1.53,0-1.53,0-1.52,0-1.53,0-1.53,0H178.5l-1.52,0-3.06,0-1.52,0-1.53,0-1.53,0-1.52,0-1.53,0-1.52-.05-1.53-.06-1.52-.06-1.53-.06-1.52-.06-1.52-.07-1.53-.08-1.52-.07-1.52-.08-1.53-.09-3-.18-3-.19-3-.2L141,425l-2.12-.16-3-.24-3-.25-3-.26-3-.28-3-.28-1.37-.13q-8.24-4.2-16.08-9.05l.7.06,2.12.17,2.12.19,4.24.38,3,.28,3,.27,3,.25,3,.25,3,.24,3,.23,3,.21,3,.21,2.11.13.9.07,6,.36,3,.17,1.5.07,1.51.08,1.5.06,1.51.07,1.5.06,1.51.06,1.5.06,1.51.05,1.5,0,1.5.05,1.51,0,1.5,0,1.51,0,1.5,0,1.51,0,1.5,0h9l1.51,0,1.5,0,1.5,0,1.5,0,1.5,0,1.5,0,1.5,0,3-.1,1.49-.07,1.5-.06,1.49-.07,1.5-.07,1.49-.09,1.5-.09,1.49-.08,1.49-.1,1.49-.11,3-.22,1.49-.12,1.49-.13h.07l1.41-.11,1.49-.11,1.48-.12,1.49-.13,3-.28,1.49-.15,1.48-.15,1.48-.17,1.48-.16,1.48-.18,1.47-.18,1.48-.19,1.47-.19,1.47-.21,1.48-.21,1.47-.21,1.46-.22,1.47-.23,1.47-.24,1.07-.18.39-.06,1.47-.23,1.47-.25,1.46-.25,1.47-.25Z"></path><path class="cls-5" d="M280.69,223.79c0,.62,0,1.25,0,1.87q0,6.12-.1,12.16-.19,12.83-.76,25.23-.35,7.68-.82,15.16c-.06,1-.13,1.9-.19,2.84l-.3,4.27c-.1,1.45-.21,2.89-.32,4.32q-.46,6-1,11.77l0,.36q-.24,2.58-.51,5.13c-.05.57-.11,1.14-.17,1.71-.25,2.37-.5,4.72-.77,7.05l-.45,3.8c-.19,1.62-.39,3.22-.6,4.82q-.57,4.44-1.18,8.76c-.09.61-.18,1.22-.26,1.82-.32,2.2-.66,4.38-1,6.54-.2,1.29-.4,2.58-.62,3.85-1.37,8.33-2.87,16.28-4.51,23.79a317.65,317.65,0,0,1-8.39,31.52q-2.06,6.29-4.25,11.82-1.67,4.22-3.41,8c-.39.83-.79,1.65-1.18,2.45-7.8,15.84-16.66,24.79-26.05,24.79a222.64,222.64,0,0,1-101.36-24.21q-8.24-4.2-16.08-9.05-4.14-2.55-8.17-5.29A225,225,0,0,1,40.27,351.9q-3.9-5.56-7.46-11.39-1.62-2.62-3.16-5.31-1.78-3.1-3.47-6.28c-.66-1.23-1.31-2.47-1.94-3.72q-.66-1.29-1.29-2.58A222.67,222.67,0,0,1,.07,229.32c0-1.84-.07-3.68-.07-5.53q0-3.31.1-6.62c.09-3.15.24-6.28.47-9.39q.43-6.25,1.22-12.4,1.26-10,3.38-19.64a222.58,222.58,0,0,1,27.15-67.88q1.18-2,2.41-3.87,4-6.3,8.4-12.3A223.35,223.35,0,0,1,223.79,0c6,0,11.71,3.61,17.11,10.3a78.27,78.27,0,0,1,8.91,14.42,169.23,169.23,0,0,1,8.7,21.8q.89,2.64,1.72,5.42c1.25,4.09,2.45,8.4,3.6,12.89q2.76,10.69,5.11,22.79c.32,1.64.64,3.29.95,5q2.22,12.09,4,25.34,1.41,10.31,2.55,21.24,1.41,13.64,2.38,28.13.87,13.11,1.33,26.82.22,6.44.34,13,.08,3.79.12,7.64c0,1.43,0,2.87,0,4.31S280.69,222.2,280.69,223.79Z"></path><path class="cls-6" d="M258.36,401.52C151.61,398.13,66.1,310.53,66.1,203c0-100.34,74.39-183.29,171-196.75A23,23,0,0,0,228.44.75c-1.55,0-3.1-.05-4.66-.05C100.57.7.69,100.58.69,223.79s99.88,223.09,223.09,223.09c1.56,0,3.11,0,4.66-.05C239.65,443.27,249.93,426.93,258.36,401.52Z"></path><path class="cls-6" d="M235.19,442.78c-123.61,0-223.79-98-223.79-219S111.58,4.8,235.19,4.8l.39,0C231.78,1.67,227.83,0,223.79,0,100.18,0,0,100.2,0,223.79S100.18,447.58,223.79,447.58c4,0,8-1.67,11.79-4.82Z"></path><path class="cls-7" d="M280.69,223.79c0,123.59-25.48,223.79-56.9,223.79s-56.91-100.2-56.91-223.79S192.36,0,223.79,0,280.69,100.2,280.69,223.79Z"></path><path class="cls-6" d="M271.65,223.79c0,117.45-19.17,212.66-42.82,212.66S186,341.24,186,223.79,205.18,11.13,228.83,11.13,271.65,106.34,271.65,223.79Z"></path><path class="cls-8" d="M186,223.79C186,109.33,204.21,16,227,11.35a9.22,9.22,0,0,0-1.8-.22c-23.66,0-42.83,95.21-42.83,212.66s19.17,212.66,42.83,212.66a9.22,9.22,0,0,0,1.8-.22C204.21,431.55,186,338.25,186,223.79Z"></path><path class="cls-6" d="M186,223.79c0,75.92,8.74,142.54,21.89,180.17,12.6-38.09,20.91-103.26,20.91-177.27,0-75.92-8.75-142.54-21.9-180.17C194.31,84.61,186,149.78,186,223.79Z"></path></g></g></g></svg>