<svg xmlns="http://www.w3.org/2000/svg" xmlns:xlink="http://www.w3.org/1999/xlink" width="74px" height="74px" viewBox="0 0 74 74"><title>technology-scalable</title><desc>Created with Sketch.</desc><g id="Page-1" stroke="none" stroke-width="1" fill="none" fill-rule="evenodd" stroke-linecap="square"><g id="Developer-hub" transform="translate(-133.000000, -1196.000000)" stroke="#00E8B4" stroke-width="4"><g id="technology-scalable" transform="translate(135.000000, 1198.000000)"><path d="M0,0 L11.6666667,0 L11.6666667,11.6666667 L0,11.6666667 L0,0 Z M58.3333333,0 L70,0 L70,11.6666667 L58.3333333,11.6666667 L58.3333333,0 Z M0,58.3333333 L11.6666667,58.3333333 L11.6666667,70 L0,70 L0,58.3333333 Z M58.3333333,58.3333333 L70,58.3333333 L70,70 L58.3333333,70 L58.3333333,58.3333333 Z" id="Shape"></path><path d="M58.3333333,64.1666667 L11.6666667,64.1666667 M64.1666667,11.6666667 L64.1666667,58.3333333 M11.6666667,5.83333333 L58.3333333,5.83333333 M5.83333333,58.3333333 L5.83333333,11.6666667" id="Shape"></path></g></g></g></svg>