<svg xmlns="http://www.w3.org/2000/svg" xmlns:xlink="http://www.w3.org/1999/xlink" width="92px" height="74px" viewBox="0 0 92 74"><title>technology-friendly</title><desc>Created with Sketch.</desc><g id="Page-1" stroke="none" stroke-width="1" fill="none" fill-rule="evenodd" stroke-linecap="square"><g id="Developer-hub" transform="translate(-133.000000, -1580.000000)" stroke="#00E8B4" stroke-width="4"><g id="technology-friendly" transform="translate(135.000000, 1582.000000)"><path d="M40.6217617,43.8860104 C43.575117,43.4541637 46.4869296,42.7747408 49.3264249,41.8549223 C53.8238342,40.2590674 53.6787565,37.9378238 53.6787565,36.6321244 L53.6787565,33.7305699 M52.5181347,3.2642487 C54.8904223,1.33033204 57.8725609,0.302008385 60.9326425,0.362694301 C66.7357513,0.362694301 73.9896373,3.84455959 73.9896373,12.8393782 L73.9896373,21.253886 C73.9592987,26.0582545 71.8412876,30.6119784 68.1865285,33.7305699 L68.1865285,36.4870466 C68.1865285,38.2279793 68.0414508,41.2746114 76.746114,43.015544 C85.4507772,44.7564767 87.0466321,52.5906736 87.0466321,52.5906736 L87.0466321,58.3937824 L72.5388601,58.3937824" id="Shape"></path><path d="M51.357513,52.4455959 C40.4766839,50.9948187 40.6217617,47.0777202 40.6217617,45.0466321 L40.6217617,41.7098446 C44.5388601,38.2279793 46.4248705,32.4248705 46.4248705,25.8963731 L46.4248705,15.7409326 C46.4248705,4.71502591 39.0259067,0.362694301 31.9170984,0.362694301 C24.8082902,0.362694301 17.4093264,4.71502591 17.4093264,15.7409326 L17.4093264,25.8963731 C17.4093264,32.4248705 19.2953368,38.373057 23.2124352,41.8549223 L23.2124352,45.3367876 C23.2124352,47.5129534 23.357513,50.9948187 12.4766839,52.4455959 C1.59585492,53.8963731 0,64.1968912 0,64.1968912 L0,70 L63.8341969,70 L63.8341969,64.1968912 C63.8341969,64.1968912 63.8341969,54.3316062 51.357513,52.4455959 Z" id="Path"></path></g></g></g></svg>