<svg xmlns="http://www.w3.org/2000/svg" xmlns:xlink="http://www.w3.org/1999/xlink" width="96px" height="94px" viewBox="0 0 96 94"><g id="Page-1" stroke="none" stroke-width="1" fill="none" fill-rule="evenodd"><g id="TomoX9" transform="translate(-720.000000, -1520.000000)"><g id="icon-heigh-performance" transform="translate(720.000000, 1520.000000)"><circle id="Oval-Copy" fill="#00E8B5" cx="20" cy="62" r="20"></circle><g id="Group-3" transform="translate(15.000000, 0.084779)" fill="#242828" stroke="#242828" stroke-width="0.3"><path d="M77.0050753,62.1108265 L3.07989017,62.1108265 L3.07989017,59.0309364 L12.3195607,59.0309364 C13.1704801,59.0309364 13.8602879,58.3411285 13.8602879,57.4902092 C13.8602879,56.6392898 13.1704801,55.949482 12.3195607,55.949482 L3.07989017,55.949482 L3.07989017,28.9969235 C3.07989017,26.0249625 5.49812796,23.6067247 8.47008903,23.6067247 L29.3848739,23.6067247 C29.3582827,24.8486916 29.4005158,26.0937868 29.5131375,27.3357537 C27.0323321,30.0042619 25.6699226,33.44548 25.6699226,37.1103772 C25.6699226,40.8081225 27.0776937,44.32755 29.6351444,47.010136 C30.2608204,47.66866 31.8594226,47.3667713 31.6028954,45.9152029 C31.4683751,45.1550066 31.3010067,44.4182731 31.3010067,43.6909247 C31.3010067,41.8811568 31.8484733,40.1605478 32.8636326,38.7074153 C33.0325651,38.7981383 33.2218321,38.8528849 33.4220484,38.8528849 L46.6613529,38.8528849 C46.8646976,38.8528849 47.0524004,38.7981383 47.2213329,38.7074153 C48.2364922,40.1605478 48.7839587,41.8811568 48.7839587,43.6909247 C48.7839587,44.4182731 48.5946917,45.1424931 48.4836342,45.9152029 C48.2474416,47.5231903 49.9242533,47.5779369 50.4498211,47.010136 C52.9978867,44.3166007 54.4150428,40.8081225 54.4150428,37.1103772 C54.4040935,33.44548 53.0526333,29.9933126 50.5718279,27.3357537 C50.6844496,26.0937868 50.7266828,24.8486916 50.7000915,23.6067247 L71.6148764,23.6067247 C74.5868375,23.6067247 77.0050753,26.0249625 77.0050753,28.9969235 L77.0050753,62.1108265 Z M77.0050753,69.0401884 C77.0050753,72.0137136 74.5868375,74.4319514 71.6148764,74.4319514 L8.47008903,74.4319514 C5.49812796,74.4319514 3.07989017,72.0137136 3.07989017,69.0401884 L3.07989017,65.1907167 L77.0050753,65.1907167 L77.0050753,69.0401884 Z M29.6007322,89.8329665 L32.0643315,77.5118416 L48.020634,77.5118416 L50.4842333,89.8329665 L29.6007322,89.8329665 Z M40.0370081,2.90154123 C42.1142524,5.13520459 43.8129628,7.64885797 45.131575,10.3204946 L34.9533905,10.3204946 C36.2594891,7.63790864 37.9597637,5.13520459 40.0370081,2.90154123 L40.0370081,2.90154123 Z M50.1260338,30.5298298 C51.3992845,32.4631686 52.0797071,34.7312442 52.0797071,37.1103772 C52.0797071,38.8638343 51.7011731,40.5625446 50.9972876,42.1157853 C50.695399,40.0275916 49.8131958,38.0833034 48.4273234,36.4737519 C49.0748981,34.8094537 50.1150844,30.5970899 50.1260338,30.5298298 L50.1260338,30.5298298 Z M31.6576421,36.4737519 C30.2608204,38.0833034 29.3786172,40.0275916 29.0876778,42.1157853 C28.372843,40.5625446 28.0052583,38.8638343 28.0052583,37.1103772 C28.0052583,34.7421935 28.685681,32.474118 29.9604959,30.5298298 C29.969881,30.6205528 31.1899492,35.2787107 31.6576421,36.4737519 L31.6576421,36.4737519 Z M31.9141692,23.6067247 C31.9360679,22.5790518 32.0080206,21.5498148 32.1315916,20.5268345 C32.4413013,17.9036878 33.081055,15.3118249 34.0492886,12.8278912 L46.0262917,12.8278912 C46.9945253,15.3118249 47.6327149,17.9036878 47.9439887,20.5268345 C48.0659955,21.5498148 48.1379482,22.5790518 48.1598469,23.6067247 C48.2521341,27.9583014 47.4512688,32.3114422 45.7619436,36.3235896 L34.3136367,36.3235896 C32.6243115,32.3114422 31.8234462,27.9567372 31.9141692,23.6067247 L31.9141692,23.6067247 Z M71.6148764,20.5268345 L50.4967468,20.5268345 C49.6645977,13.0672122 46.3719777,5.90635028 40.8644646,0.398837174 C40.4280556,-0.0375718446 39.6569099,-0.0375718446 39.2220651,0.398837174 C33.7129878,5.90635028 30.4188036,13.0640839 29.5866545,20.5268345 L8.47008903,20.5268345 C3.79941759,20.5268345 0,24.3262521 0,28.9969235 L0,69.0401884 C0,73.7108598 3.79941759,77.5118416 8.47008903,77.5118416 L28.9234379,77.5118416 L26.4582744,89.8329665 L18.4809052,89.8329665 C17.6299859,89.8329665 16.9401781,90.5227743 16.9401781,91.3721295 C16.9401781,92.2230488 17.6299859,92.9128566 18.4809052,92.9128566 L61.6040602,92.9128566 C62.4549796,92.9128566 63.1447874,92.2230488 63.1447874,91.3721295 C63.1447874,90.5227743 62.4549796,89.8329665 61.6040602,89.8329665 L53.6266911,89.8329665 L51.1615276,77.5118416 L71.6148764,77.5118416 C76.2855479,77.5118416 80.0865297,73.712424 80.0865297,69.0401884 L80.0865297,28.9969235 C80.0865297,24.3262521 76.2855479,20.5268345 71.6148764,20.5268345 L71.6148764,20.5268345 Z" id="Fill-1"></path></g><path d="M50.333473,40.6864754 C49.584226,40.6864754 48.9757561,41.2965095 48.9757561,42.0441924 L48.9757561,47.8880063 C48.9757561,48.6356892 49.584226,49.2441591 50.333473,49.2441591 C51.0811558,49.2441591 51.6911899,48.6356892 51.6911899,47.8880063 L51.6911899,42.0441924 C51.6911899,41.2965095 51.0811558,40.6864754 50.333473,40.6864754" id="Fill-4" stroke="#242828" stroke-width="0.3" fill="#242828"></path><path d="M55.0369611,40.6864754 C54.6740691,40.6864754 54.3315114,40.8303809 54.0718559,41.0916006 L54.0609066,41.1009858 C53.9029234,41.258969 53.7856091,41.4670062 53.7183489,41.7110199 C53.6948861,41.8158206 53.6682949,41.9331349 53.6682949,42.066091 L53.6682949,53.7412054 C53.6682949,53.8460062 53.6808084,53.9523711 53.7073996,54.0556076 C53.8544335,54.6703343 54.3956432,55.0989224 55.0260118,55.0989224 C55.6548162,55.0989224 56.1975901,54.6703343 56.344624,54.0571718 C56.3698075,53.9523711 56.3837288,53.8460062 56.3837288,53.7412054 L56.3837288,42.0441924 C56.3837288,41.9002869 56.3665227,41.7814084 56.3321105,41.6844287 C56.1850766,41.0962932 55.653252,40.6864754 55.0369611,40.6864754" id="Fill-6" stroke="#242828" stroke-width="0.3" fill="#242828"></path><path d="M59.7405275,40.6864754 C58.9912805,40.6864754 58.3828105,41.2965095 58.3828105,42.0441924 L58.3828105,47.8880063 C58.3828105,48.6356892 58.9912805,49.2441591 59.7405275,49.2441591 C60.4882103,49.2441591 61.0982444,48.6356892 61.0982444,47.8880063 L61.0982444,42.0473207 C61.1045012,41.687557 60.9684167,41.3481278 60.7181463,41.0931648 C60.4600549,40.8319451 60.1128047,40.6864754 59.7405275,40.6864754" id="Fill-8" stroke="#242828" stroke-width="0.3" fill="#242828"></path></g></g></g></svg>