<svg xmlns="http://www.w3.org/2000/svg" xmlns:xlink="http://www.w3.org/1999/xlink" width="76px" height="78px" viewBox="0 0 76 78"><title>features-icon-launch-dex</title><desc>Created with Sketch.</desc><g id="Page-1" stroke="none" stroke-width="1" fill="none" fill-rule="evenodd"><g id="Home-Copy-20" transform="translate(-733.000000, -1767.000000)" fill-rule="nonzero"><g id="features-icon-launch-dex" transform="translate(733.000000, 1767.000000)"><circle id="Oval" fill="#FEDB41" cx="13.0136641" cy="41.5706641" r="11.8983047"></circle><circle id="Oval" fill="#FEDB41" cx="38" cy="13.0148516" r="11.8983047"></circle><circle id="Oval" fill="#FEDB41" cx="62.9863359" cy="34.4317109" r="11.8983047"></circle><polygon id="Rectangle" fill="#00E8B4" transform="translate(15.162816, 68.057000) scale(-1, 1) translate(-15.162816, -68.057000) " points="10.4035391 59.4180469 19.9220938 59.4180469 19.9220938 76.6959531 10.4035391 76.6959531"></polygon><rect id="Rectangle" fill="#02D9A9" transform="translate(12.188277, 68.057000) scale(-1, 1) translate(-12.188277, -68.057000) " x="10.4035391" y="59.4180469" width="3.56947656" height="17.2779062"></rect><polygon id="Rectangle" fill="#00E8B4" transform="translate(70.115863, 68.057000) scale(-1, 1) translate(-70.115863, -68.057000) " points="65.3565859 59.4180469 74.8751406 59.4180469 74.8751406 76.6959531 65.3565859 76.6959531"></polygon><polygon id="Rectangle" fill="#02D9A9" transform="translate(67.141324, 68.057000) scale(-1, 1) translate(-67.141324, -68.057000) " points="65.3565859 59.4180469 68.9260625 59.4180469 68.9260625 76.6959531 65.3565859 76.6959531"></polygon><polygon id="Rectangle" fill="#00E8B4" transform="translate(33.480449, 60.918047) scale(-1, 1) translate(-33.480449, -60.918047) " points="28.7211719 45.1401406 38.2397266 45.1401406 38.2397266 76.6959531 28.7211719 76.6959531"></polygon><polygon id="Rectangle" fill="#02D9A9" transform="translate(30.505910, 60.918047) scale(-1, 1) translate(-30.505910, -60.918047) " points="28.7211719 45.1401406 32.2906484 45.1401406 32.2906484 76.6959531 28.7211719 76.6959531"></polygon><polygon id="Rectangle" fill="#00E8B4" transform="translate(51.798230, 64.487523) scale(-1, 1) translate(-51.798230, -64.487523) " points="47.0389531 52.2790937 56.5575078 52.2790937 56.5575078 76.6959531 47.0389531 76.6959531"></polygon><rect id="Rectangle" fill="#02D9A9" transform="translate(48.823691, 64.487523) scale(-1, 1) translate(-48.823691, -64.487523) " x="47.0389531" y="52.2790937" width="3.56947656" height="24.4168594"></rect><path d="M14.1291719,35.0585625 L14.1291719,33.8367734 C14.1291719,33.2206094 13.6296797,32.7212656 13.0136641,32.7212656 C12.3976484,32.7212656 11.8981562,33.2206094 11.8981562,33.8367734 L11.8981562,35.112 C10.1379844,35.4532578 8.80457031,37.0054687 8.80457031,38.8637578 C8.80457031,40.9714219 10.5193203,42.6860234 12.6268359,42.6860234 L13.4001953,42.6860234 C14.2777578,42.6860234 14.9915937,43.3998594 14.9915937,44.2774219 C14.9915937,45.1549844 14.2777578,45.8688203 13.4001953,45.8688203 L12.2401562,45.8688203 C11.5758984,45.8688203 11.0354375,45.3283594 11.0354375,44.6639531 C11.0354375,44.0477891 10.5359453,43.5484453 9.91992969,43.5484453 C9.30391406,43.5484453 8.80442187,44.0477891 8.80442187,44.6639531 C8.80442187,46.4428281 10.1635156,47.9102812 11.8980078,48.0824687 L11.8980078,49.3042578 C11.8980078,49.9204219 12.3975,50.4197656 13.0135156,50.4197656 C13.6295313,50.4197656 14.1290234,49.9204219 14.1290234,49.3042578 L14.1290234,48.0290312 C15.8891953,47.6877734 17.2226094,46.1355625 17.2226094,44.2772734 C17.2226094,42.1696094 15.5078594,40.4550078 13.4003438,40.4550078 L12.6269844,40.4550078 C11.7494219,40.4550078 11.0355859,39.7411719 11.0355859,38.8636094 C11.0355859,37.9860469 11.7494219,37.2722109 12.6269844,37.2722109 L13.7870234,37.2722109 C14.4512813,37.2722109 14.9917422,37.8126719 14.9917422,38.4770781 L14.9917422,39.2504375 C14.9917422,39.8666016 15.4912344,40.3659453 16.10725,40.3659453 C16.7232656,40.3659453 17.2227578,39.8666016 17.2227578,39.2504375 L17.2227578,38.4770781 C17.2227578,36.6982031 15.8635156,35.23075 14.1291719,35.0585625 Z" id="Path" fill="#2F3A58"></path><path d="M39.1155078,6.50275 L39.1155078,5.28096094 C39.1155078,4.66479688 38.6161641,4.16545313 38,4.16545313 C37.3839844,4.16545313 36.8844922,4.66479688 36.8844922,5.28096094 L36.8844922,6.5561875 C35.1243203,6.89744531 33.7909062,8.44965625 33.7909062,10.3079453 C33.7909062,12.4156094 35.5056562,14.1302109 37.6131719,14.1302109 L38.3865312,14.1302109 C39.2640937,14.1302109 39.9779297,14.8440469 39.9779297,15.7216094 C39.9779297,16.5991719 39.2640937,17.3130078 38.3865312,17.3130078 L37.2264922,17.3130078 C36.5622344,17.3130078 36.0217734,16.7725469 36.0217734,16.1081406 C36.0217734,15.4919766 35.5222812,14.9926328 34.9062656,14.9926328 C34.29025,14.9926328 33.7907578,15.4919766 33.7907578,16.1081406 C33.7907578,17.8870156 35.1498516,19.3544688 36.8843437,19.5266563 L36.8843437,20.7484453 C36.8843437,21.3646094 37.3838359,21.8639531 37.9998516,21.8639531 C38.6160156,21.8639531 39.1153594,21.3646094 39.1153594,20.7484453 L39.1153594,19.4732188 C40.8753828,19.1319609 42.2089453,17.57975 42.2089453,15.7214609 C42.2089453,13.6137969 40.4941953,11.8991953 38.3866797,11.8991953 L37.6133203,11.8991953 C36.7357578,11.8991953 36.0219219,11.1853594 36.0219219,10.3077969 C36.0219219,9.43023437 36.7357578,8.71639844 37.6133203,8.71639844 L38.7733594,8.71639844 C39.4376172,8.71639844 39.9780781,9.25685937 39.9780781,9.92126562 L39.9780781,10.694625 C39.9780781,11.3107891 40.4774219,11.8101328 41.0935859,11.8101328 C41.70975,11.8101328 42.2090937,11.3107891 42.2090937,10.694625 L42.2090937,9.92126562 C42.2089453,8.14239063 40.8498516,6.67508594 39.1155078,6.50275 Z" id="Path" fill="#2F3A58"></path><path d="M62.9863359,21.4180469 C59.7619766,21.4180469 56.8080703,22.5973828 54.5322266,24.5465156 L49.0102031,19.9448047 C50.2786016,17.9368906 51.0136641,15.5602578 51.0136641,13.0148516 C51.0136641,5.83908594 45.1757656,0.0011875 38,0.0011875 C30.8242344,0.0011875 24.9863359,5.83908594 24.9863359,13.0148516 C24.9863359,16.7799687 26.5940625,20.1759219 29.1584688,22.5544844 L20.0648906,30.6376484 C18.0317422,29.3218984 15.6104297,28.557 13.0136641,28.557 C5.83789844,28.557 0,34.39475 0,41.5706641 C0,48.7465781 5.83789844,54.5843281 13.0136641,54.5843281 C20.1894297,54.5843281 26.0273281,48.7464297 26.0273281,41.5706641 C26.0273281,37.8055469 24.4196016,34.4095937 21.8551953,32.0311797 L30.9487734,23.9480156 C32.9819219,25.2637656 35.4032344,26.0286641 38,26.0286641 C41.8293906,26.0286641 45.2774453,24.3657187 47.6609063,21.7245703 L52.9620547,26.1420703 C51.09575,28.3949062 49.9726719,31.2845391 49.9726719,34.4317109 C49.9726719,41.6074766 55.8105703,47.445375 62.9863359,47.445375 C70.1621016,47.445375 76,41.6074766 76,34.4317109 C76,27.2559453 70.1621016,21.4180469 62.9863359,21.4180469 Z M23.7964609,41.5706641 C23.7964609,47.5163281 18.9593281,52.3534609 13.0136641,52.3534609 C7.068,52.3534609 2.23086719,47.5163281 2.23086719,41.5706641 C2.23086719,35.625 7.068,30.7878672 13.0136641,30.7878672 C18.9593281,30.7878672 23.7964609,35.625 23.7964609,41.5706641 Z M38,23.7976484 C32.0543359,23.7976484 27.2172031,18.9605156 27.2172031,13.0148516 C27.2172031,7.0691875 32.0543359,2.23205469 38,2.23205469 C43.9456641,2.23205469 48.7827969,7.0691875 48.7827969,13.0148516 C48.7827969,18.9605156 43.9456641,23.7976484 38,23.7976484 Z M62.9863359,45.2145078 C57.0406719,45.2145078 52.2035391,40.377375 52.2035391,34.4317109 C52.2035391,31.6262422 53.2811953,29.0682187 55.0434453,27.1481797 C55.2208281,27.0828672 55.3845547,26.9727266 55.5144375,26.8170156 C55.5983047,26.716375 55.6602031,26.60475 55.70325,26.4885234 C57.6232891,24.7267187 60.1810156,23.6490625 62.9863359,23.6490625 C68.932,23.6490625 73.7691328,28.4861953 73.7691328,34.4318594 C73.7691328,40.3775234 68.932,45.2145078 62.9863359,45.2145078 Z" id="Shape" fill="#2F3A58"></path><path d="M64.1016953,27.9196094 L64.1016953,26.6978203 C64.1016953,26.0816563 63.6023516,25.5823125 62.9861875,25.5823125 C62.3700234,25.5823125 61.8706797,26.0816563 61.8706797,26.6978203 L61.8706797,27.9730469 C60.1106562,28.3143047 58.7770937,29.8665156 58.7770937,31.7248047 C58.7770937,33.8324688 60.4918438,35.5470703 62.5993594,35.5470703 L63.3725703,35.5470703 C64.2501328,35.5470703 64.9639687,36.2609063 64.9639687,37.1384688 C64.9639687,38.0160313 64.2501328,38.7298672 63.3725703,38.7298672 L62.2125312,38.7298672 C61.5482734,38.7298672 61.0078125,38.1894063 61.0078125,37.525 C61.0078125,36.9088359 60.5084687,36.4094922 59.8923047,36.4094922 C59.2761406,36.4094922 58.7767969,36.9088359 58.7767969,37.525 C58.7767969,39.303875 60.1358906,40.7713281 61.8703828,40.9435156 L61.8703828,42.1653047 C61.8703828,42.7814688 62.3697266,43.2808125 62.9858906,43.2808125 C63.6020547,43.2808125 64.1013984,42.7814688 64.1013984,42.1653047 L64.1013984,40.8900781 C65.8614219,40.5488203 67.1949844,38.9966094 67.1949844,37.1383203 C67.1949844,35.0306563 65.4802344,33.3160547 63.3727188,33.3160547 L62.5995078,33.3160547 C61.7219453,33.3160547 61.0081094,32.6022188 61.0081094,31.7246563 C61.0081094,30.8470938 61.7219453,30.1332578 62.5995078,30.1332578 L63.7595469,30.1332578 C64.4238047,30.1332578 64.9642656,30.6737188 64.9642656,31.338125 L64.9642656,32.1114844 C64.9642656,32.7276484 65.4636094,33.2269922 66.0797734,33.2269922 C66.6959375,33.2269922 67.1952812,32.7276484 67.1952812,32.1114844 L67.1952812,31.338125 C67.1952812,29.55925 65.8360391,28.0917969 64.1016953,27.9196094 Z" id="Path" fill="#2F3A58"></path><path d="M19.9220938,58.3025391 L10.4035391,58.3025391 C9.78752344,58.3025391 9.28803125,58.8018828 9.28803125,59.4180469 L9.28803125,76.6959531 C9.28803125,77.3121172 9.78752344,77.8114609 10.4035391,77.8114609 L19.9220938,77.8114609 C20.5381094,77.8114609 21.0376016,77.3121172 21.0376016,76.6959531 L21.0376016,59.4180469 C21.0376016,58.8018828 20.5381094,58.3025391 19.9220938,58.3025391 Z M18.8065859,75.5804453 L11.5188984,75.5804453 L11.5188984,60.5334062 L18.8065859,60.5334062 L18.8065859,75.5804453 Z" id="Shape" fill="#2F3A58" transform="translate(15.162816, 68.057000) scale(-1, 1) translate(-15.162816, -68.057000) "></path><path d="M74.8752891,58.3025391 L65.3567344,58.3025391 C64.7405703,58.3025391 64.2412266,58.8018828 64.2412266,59.4180469 L64.2412266,76.6959531 C64.2412266,77.3121172 64.7405703,77.8114609 65.3567344,77.8114609 L74.8752891,77.8114609 C75.4914531,77.8114609 75.9907969,77.3121172 75.9907969,76.6959531 L75.9907969,59.4180469 C75.9906484,58.8018828 75.4914531,58.3025391 74.8752891,58.3025391 Z M73.7597812,75.5804453 L66.4720937,75.5804453 L66.4720937,60.5334062 L73.7597812,60.5334062 L73.7597812,75.5804453 Z" id="Shape" fill="#2F3A58" transform="translate(70.116012, 68.057000) scale(-1, 1) translate(-70.116012, -68.057000) "></path><path d="M38.239875,44.0246328 L28.7211719,44.0246328 C28.1051562,44.0246328 27.6056641,44.5239766 27.6056641,45.1401406 L27.6056641,76.6959531 C27.6056641,77.3121172 28.1051562,77.8114609 28.7211719,77.8114609 L38.2397266,77.8114609 C38.8558906,77.8114609 39.3552344,77.3121172 39.3552344,76.6959531 L39.3552344,67.0778672 C39.3552344,66.4617031 38.8558906,65.9623594 38.2397266,65.9623594 C37.6235625,65.9623594 37.1242187,66.4617031 37.1242187,67.0778672 L37.1242187,75.5804453 L29.8365312,75.5804453 L29.8365312,46.2555 L37.1242187,46.2555 L37.1242187,68.8723125 C37.1242187,69.4884766 37.6235625,69.9878203 38.2397266,69.9878203 C38.8558906,69.9878203 39.3552344,69.4884766 39.3552344,68.8723125 L39.3552344,45.1401406 C39.3552344,44.5239766 38.8560391,44.0246328 38.239875,44.0246328 Z" id="Path" fill="#2F3A58" transform="translate(33.480449, 60.918047) scale(-1, 1) translate(-33.480449, -60.918047) "></path><path d="M56.5575078,51.1635859 L47.0389531,51.1635859 C46.4227891,51.1635859 45.9234453,51.6629297 45.9234453,52.2790937 L45.9234453,76.6959531 C45.9234453,77.3121172 46.4227891,77.8114609 47.0389531,77.8114609 L56.5575078,77.8114609 C57.1736719,77.8114609 57.6730156,77.3121172 57.6730156,76.6959531 L57.6730156,52.2790937 C57.6730156,51.6629297 57.1736719,51.1635859 56.5575078,51.1635859 Z M55.442,75.5804453 L48.1543125,75.5804453 L48.1543125,53.3944531 L55.442,53.3944531 L55.442,75.5804453 Z" id="Shape" fill="#2F3A58" transform="translate(51.798230, 64.487523) scale(-1, 1) translate(-51.798230, -64.487523) "></path></g></g></g></svg>