<svg xmlns="http://www.w3.org/2000/svg" xmlns:xlink="http://www.w3.org/1999/xlink" width="80px" height="65px" viewBox="0 0 80 65"><title>features-icon-developer-platform</title><desc>Created with Sketch.</desc><g id="Page-1" stroke="none" stroke-width="1" fill="none" fill-rule="evenodd"><g id="Home-Copy-20" transform="translate(-134.000000, -1784.000000)" fill-rule="nonzero"><g id="features-icon-developer-platform" transform="translate(134.000000, 1784.000000)"><polygon id="Path" fill="#5C9CEE" points="60.7623291 1.71875 78.4375 19.3969727 70.5377197 27.2985841 52.8607178 9.16259766"></polygon><path d="M29.796753,11.9622803 L9.77966312,31.9830322 L1.5625,23.7719727 L21.5844727,3.75 C21.5844727,3.75 26.5563966,8.72192375 29.796753,11.9622803 Z" id="Path" fill="#ED5575"></path><path d="M70.5377197,27.2985841 L52.8607178,9.16259766 C51.1529541,10.8703613 49.2938233,11.8298341 46.8780517,11.8298341 C43.6340331,11.8298341 40.9436034,12.6733398 38.6499023,14.9670409 L37.8125,15.8044434 L36.9750977,14.9670409 C34.9090577,12.9016113 32.6892091,12.1813966 29.796753,11.9622803 L9.77966312,31.9830322 L15.715332,37.9016113 L14.0576172,39.5593262 C12.5329591,41.0845947 12.5329591,43.5577392 14.0576172,45.0830078 C15.5841064,46.6076659 18.0560303,46.6076659 19.5825195,45.0830078 C18.0560303,46.6076659 18.0560303,49.0814209 19.5825195,50.6079102 C21.1077881,52.1331787 23.5809327,52.1331787 25.1062012,50.6079102 C23.5809327,52.1331787 23.5809327,54.6063233 25.1062012,56.1315919 C26.6326905,57.65625 29.1046142,57.65625 30.6311034,56.1315919 C29.1046142,57.65625 29.1046142,60.1300048 30.6311034,61.6564941 C32.156372,63.1811523 34.6295166,63.1811523 36.1547852,61.6564941 L37.8125,59.9987794 L39.4702148,61.6564941 C40.9954834,63.1811523 43.468628,63.1811523 44.9938966,61.6564941 C46.5203858,60.1300048 46.5203858,57.65625 44.9938966,56.1315919 C46.5185547,57.65625 48.9935303,57.65625 50.5187987,56.1315919 C52.043457,54.6063233 52.043457,52.1331787 50.5187987,50.6079102 C52.043457,52.1325684 54.5172119,52.1331787 56.0418702,50.6079102 C57.5689697,49.0814209 57.5689697,46.6076659 56.0418702,45.0830078 C57.5689697,46.6076659 60.0402831,46.6076659 61.5673828,45.0830078 C63.0920409,43.5577392 63.0920409,41.0845947 61.5673828,39.5593262 L59.9090577,37.9016113 C60.1269531,37.6849366 58.1506347,39.656372 70.5377197,27.2985841 Z" id="Path" fill="#FFCEBF"></path><path d="M63.8092041,12.331543 C64.4189453,11.7205811 64.4189453,10.7312012 63.8092041,10.1220703 C63.1982422,9.51110844 62.2094727,9.51110844 61.5997314,10.1220703 C60.9887695,10.7312012 60.9887695,11.7205811 61.5997314,12.331543 C62.2094727,12.9406738 63.1982422,12.9406738 63.8092041,12.331543 Z" id="Path" fill="#2F3A58"></path><path d="M20.3887939,15.5670166 C20.9985352,14.9578858 20.9985352,13.9685059 20.3887939,13.3575439 C19.777832,12.7484131 18.7890625,12.7484131 18.1793212,13.3575439 C17.5683594,13.9685059 17.5683594,14.9578858 18.1793212,15.5670166 C18.7890625,16.1779784 19.777832,16.1779784 20.3887939,15.5670166 Z" id="Path" fill="#2F3A58"></path><path d="M11.1938477,24.5642091 L15.8703612,19.8858642 C16.4807128,19.2755127 16.4801025,18.2867431 15.8703612,17.6763916 C15.2600097,17.06604 14.2706298,17.0666503 13.6602783,17.6763916 L8.98376469,22.3547363 C8.37402344,22.9650878 8.37402344,23.9544678 8.984375,24.5642091 C9.59411625,25.1745606 10.5834961,25.1745606 11.1938477,24.5642091 Z" id="Path" fill="#2F3A58"></path><path d="M68.9636231,20.0329591 C69.5739747,20.6433106 70.5633545,20.6433106 71.1737061,20.0329591 C71.7840577,19.4232178 71.7840577,18.4338378 71.1737061,17.8234863 L68.0566406,14.7064209 C67.4462891,14.0960694 66.4569092,14.0960694 65.8465577,14.7064209 C65.2368164,15.3161622 65.2368164,16.305542 65.8465577,16.9158936 L68.9636231,20.0329591 Z" id="Path" fill="#2F3A58"></path><path d="M79.5422363,18.2922362 L61.8670655,0.61401375 C61.2701416,0.0164795312 60.3057861,0.00183109375 59.6911622,0.581665 C58.3184814,1.875 51.866455,7.95104984 51.7730713,8.04199219 C51.7675781,8.04748531 51.7614747,8.05236813 51.7559814,8.05786125 C50.2276611,9.58618156 48.7231445,10.2673341 46.8774414,10.2673341 C43.1042481,10.2673341 40.2136231,11.3330078 37.8131103,13.6065673 C35.8447266,11.7425538 33.6138916,10.7788086 30.5004883,10.4571533 L22.6892091,2.64526375 C22.0788575,2.03491219 21.0894775,2.03491219 20.4791259,2.64526375 L0.45776375,22.6672363 C-0.13671875,23.2611084 -0.15625,24.2205811 0.422973594,24.8388672 C0.435180625,24.8516845 0.445556562,24.8645019 0.45776375,24.8767091 C0.477295,24.8968506 13.4863281,37.8851319 13.5046387,37.902832 L12.9528809,38.4545898 C10.8166503,40.5908203 10.8154297,44.050293 12.9534912,46.1883545 C13.9654541,47.1990967 15.355835,47.7996827 16.8768311,47.7844238 C16.8603516,49.2852783 17.4401856,50.6750488 18.4777831,51.7126466 C19.5318603,52.7667236 20.9405517,53.3258056 22.4011231,53.3105469 C22.3852539,54.8101806 22.9644775,56.1993408 24.0020752,57.2369384 C25.0140381,58.2476806 26.4038086,58.8482666 27.925415,58.8330078 C27.9089356,60.3338623 28.4887695,61.7236328 29.5263672,62.7612305 C31.6583252,64.8931884 35.1269531,64.8931884 37.2595216,62.7612305 L37.8125,62.2082519 L38.3654784,62.7612305 C40.4974366,64.8931884 43.9660644,64.8931884 46.0986328,62.7612305 C47.1337891,61.7260742 47.7148437,60.3387452 47.7001953,58.8360595 C49.1925048,58.8513184 50.5828858,58.2769775 51.6235352,57.2363281 C52.7038575,56.1560059 53.2360841,54.7320556 53.2214356,53.3129883 C54.7363281,53.3288575 56.1206055,52.7392578 57.1472169,51.7126466 C58.1866455,50.6738281 58.7652587,49.2816162 58.7481689,47.7844237 C60.2001953,47.7990722 61.6119384,47.2473144 62.6721191,46.1877441 C64.80896,44.0509033 64.80896,40.5920409 62.6721191,38.4545898 L62.1209717,37.9034423 C73.0151367,27.0214844 59.2340088,40.8135986 79.5422362,20.5017091 C80.1525878,19.8913575 80.1525878,18.9025878 79.5422362,18.2922362 L79.5422363,18.2922362 Z M3.77258297,23.7713623 L21.5844727,5.96008297 L27.5872803,11.9628906 L9.77905281,29.7735595 L3.77258297,23.7713623 Z M15.1623534,43.9782716 C14.2468263,43.0627441 14.2468263,41.5802002 15.1623534,40.6640625 L20.6872559,35.1391602 C21.6015625,34.2254639 23.0877686,34.2260742 24.0014648,35.1391602 C24.9188233,36.0571289 24.9188233,37.5372314 24.0014648,38.4545898 L18.4783936,43.9776611 C17.5640869,44.890747 16.0760498,44.890747 15.1623534,43.9782716 L15.1623534,43.9782716 Z M20.6872559,49.5031737 C19.7711181,48.5864258 19.7698975,47.1044922 20.6872559,46.1877441 L26.2109375,40.6640625 C27.1282959,39.7473144 28.6090088,39.7467041 29.5263672,40.6640625 C30.4400634,41.5777587 30.4437256,43.0609131 29.5263672,43.9776611 C29.5257569,43.9782716 29.5257569,43.9782716 29.5257569,43.9788819 L24.0014648,49.5031737 C23.0877686,50.4168702 21.6009522,50.4168702 20.6872559,49.5031737 L20.6872559,49.5031737 Z M26.2109375,55.0262452 C25.2954102,54.1113281 25.2954102,52.6281738 26.2109375,51.7126466 L31.7358398,46.1877441 C32.6495361,45.2740478 34.1357422,45.2740478 35.0506592,46.1889648 C35.9527588,47.0892334 35.9796142,48.5723877 35.0500488,49.5025634 C35.0500488,49.5025634 35.0500488,49.5025634 35.0494384,49.5031737 L29.5269775,55.0256347 C28.6126709,55.9393311 27.1246338,55.9393311 26.2109375,55.0262452 L26.2109375,55.0262452 Z M31.7358398,60.5517578 C30.8197022,59.6350097 30.8184814,58.1530763 31.7358398,57.2363281 L37.2595216,51.7126466 C38.1756592,50.7965088 39.6575928,50.7952881 40.5743408,51.7126466 C41.496582,52.6348877 41.4831544,54.1186523 40.5743408,55.0268555 L35.0500488,60.5517578 C34.1357422,61.4648438 32.6495361,61.4648438 31.7358398,60.5517578 Z M43.8885498,60.5517578 C42.9754639,61.4654541 41.4886475,61.4654541 40.5749513,60.5517578 L40.0219727,59.9987794 L42.7844238,57.2363281 C42.9711914,57.0495606 43.1396484,56.8499756 43.2958984,56.6430664 L43.8879394,57.2357178 C43.8885498,57.2357178 43.8885498,57.2357178 43.8891602,57.2363281 C43.8891602,57.2363281 43.8897705,57.2369384 43.8897705,57.2369384 C44.8059081,58.1530763 44.8059081,59.6343994 43.8885498,60.5517578 Z M60.4626466,43.9776611 C59.5483398,44.890747 58.0609131,44.890747 57.1472169,43.9776611 L49.9658203,36.796875 C49.3554687,36.1865234 48.3660889,36.1865234 47.7557373,36.796875 C47.1459961,37.4066163 47.1459961,38.3959961 47.7557373,39.0063477 L54.9377441,46.1883545 C55.8538819,47.1038819 55.8544922,48.5858155 54.9371337,49.5031738 C54.0197753,50.4205322 52.5372314,50.4168702 51.6235352,49.5031738 L44.4421388,42.3199463 C43.8323975,41.710205 42.8430175,41.710205 42.2326659,42.3199463 C41.6223144,42.9302978 41.6223144,43.9196778 42.2320556,44.5300294 L49.4134522,51.7126466 C50.3271484,52.6263428 50.3271484,54.1131592 49.4134522,55.0262452 C48.9715577,55.46875 48.3825684,55.7128906 47.7557373,55.7128906 C46.2707519,55.7128906 45.7922363,54.543457 44.3841553,53.312378 C44.3701172,51.8731689 43.8037109,50.5224609 42.7850342,49.5037842 C41.7486572,48.4661866 40.3607178,47.8869628 38.8610841,47.9016113 C38.8763428,46.3995361 38.2946778,45.0115967 37.2595216,43.9776611 C36.1791992,42.8973389 34.7552491,42.3657227 33.3361816,42.3803711 C33.3673095,39.2987061 30.871582,36.8218994 27.8125,36.8536377 C27.8277588,35.3356934 27.234497,33.953247 26.2109375,32.9296875 C24.0789795,30.7971191 20.6097413,30.7971191 18.4777831,32.9296875 L15.7141113,35.6933594 L11.9909669,31.9812013 L30.3808594,13.5882569 C32.6580811,13.8482666 34.1912842,14.5031738 35.5969238,15.8099366 L31.1822509,20.2239991 C28.7475586,22.6605225 28.7475586,26.6253663 31.1828613,29.0631103 C33.6199952,31.4984131 37.5854492,31.4990234 40.0219727,29.0625 L44.4421388,24.6429444 C47.2985841,27.5 58.3801269,38.5821533 60.4620361,40.6646728 C61.3757325,41.5777588 61.3757325,43.0645752 60.4626466,43.9776611 L60.4626466,43.9776611 Z M59.9108888,35.6933594 L46.6516113,22.4334717 L47.7563477,21.3287353 C48.3666992,20.7183838 48.3666992,19.7290039 47.7563477,19.1186523 C47.1459961,18.5089111 46.1572266,18.5089111 45.5462647,19.1186523 L37.8118897,26.8536377 C36.5942383,28.0712891 34.6105956,28.0712891 33.3923341,26.8536377 C32.1746827,25.6347656 32.1746827,23.6517334 33.3917236,22.4334717 C34.9945069,20.8312988 38.1536866,17.6727295 39.7546388,16.0723877 C41.6076659,14.2193603 43.8049316,13.3923341 46.8774414,13.3923341 C49.0875244,13.3923341 50.9954834,12.7282716 52.7832031,11.3220216 L68.3416748,27.2845459 C58.1713867,37.4285889 60.178833,35.4260253 59.9108888,35.6933594 Z M70.5517578,25.0744628 L55.0891113,9.210205 L60.7299805,3.89587406 L76.2280273,19.3969727 L70.5517578,25.0744628 Z" id="Shape" fill="#2F3A58"></path></g></g></g></svg>