<svg xmlns="http://www.w3.org/2000/svg" xmlns:xlink="http://www.w3.org/1999/xlink" width="76px" height="46px" viewBox="0 0 76 46"><title>features-icon-privacy</title><desc>Created with Sketch.</desc><g id="Page-1" stroke="none" stroke-width="1" fill="none" fill-rule="evenodd"><g id="Home-Copy-20" transform="translate(-733.000000, -1421.000000)" fill-rule="nonzero"><g id="features-icon-privacy" transform="translate(733.000000, 1421.000000)"><path d="M74.9175937,0.175453125 C74.2681797,-0.02553125 73.5599844,0.1816875 73.1502969,0.728976563 C70.3160312,4.50834375 68.5966797,4.301125 64.0090703,3.75992188 C62.1473672,3.53726563 59.8296641,3.26191406 57,3.26191406 C50.8646328,3.26191406 46.6310469,6.76919531 43.2293047,9.58653906 C41.1728516,11.2906016 39.3962031,12.7628047 38,12.7628047 C36.6037969,12.7628047 34.8271484,11.2906016 32.7706953,9.58653906 C29.3689531,6.76919531 25.1353672,3.26191406 19,3.26191406 C16.1703359,3.26191406 13.8526328,3.53726563 11.9909297,3.75992188 C7.40480469,4.301125 5.68545312,4.50834375 2.84970312,0.728976563 C2.4415,0.181539063 1.7301875,-0.0286484375 1.08240625,0.175453125 C0.435960938,0.392023438 0,0.99809375 0,1.67867969 C0,22.8359219 6.80957031,36.0769688 20.2400469,39.0613047 C28.9236406,40.9911406 32.1398359,42.9055391 34.0618047,44.0498438 C35.3591484,44.8229063 36.382625,45.4323906 38,45.4323906 C39.617375,45.4323906 40.641,44.8230547 41.9381953,44.0498438 C43.8601641,42.9056875 47.0763594,40.9912891 55.7599531,39.0613047 C69.1904297,36.0768203 76,22.8357734 76,1.67867969 C76,0.99809375 75.5640391,0.392023438 74.9175937,0.175453125 Z M28.5,27.953875 C21.671875,27.4220234 17.1630859,23.4976328 15.1329063,20.0990078 L19,20.0990078 C23.1670859,20.0990078 28.4103438,24.5304609 28.5,25.9035078 L28.5,27.953875 Z M47.5,27.953875 L47.5,25.9097422 C47.5896562,24.5304609 52.8329141,20.0990078 57,20.0990078 L60.8670938,20.0990078 C58.8369141,23.4976328 54.328125,27.421875 47.5,27.953875 Z" id="Shape" fill="#2F3A58"></path><path d="M63.6348594,6.90546094 C61.7639531,6.68592188 59.6424844,6.43224219 57,6.43224219 C52.0056719,6.43224219 48.4168984,9.40410938 45.2502813,12.0295234 C42.7222422,14.1230859 40.538875,15.9322422 38,15.9322422 C35.461125,15.9322422 33.2777578,14.1230859 30.7497187,12.0295234 C27.5831016,9.40396094 23.9943281,6.43224219 19,6.43224219 C16.3575156,6.43224219 14.2360469,6.68577344 12.3651406,6.90546094 C8.8551875,7.31989844 6.07361719,7.657 3.25330469,5.63127344 C4.028,22.6708594 9.96386719,33.5326016 20.9267188,35.9695 C30.1066875,38.0105156 33.5964531,40.0886406 35.6822969,41.3286875 C36.8758828,42.0398516 37.2872031,42.265625 38,42.265625 C38.7127969,42.265625 39.1241172,42.0398516 40.3178516,41.3285391 C42.4036953,40.0884922 45.8936094,38.0103672 55.0734297,35.9693516 C66.0361328,33.5324531 71.9721484,22.6707109 72.7468438,5.63127344 C69.9311328,7.65076563 67.1385781,7.31989844 63.6348594,6.90546094 Z M31.6666172,29.5990078 C31.6666172,30.4741953 30.9584219,31.1823906 30.0832344,31.1823906 C20.3343047,31.1823906 13.05775,24.9046719 11.1589375,19.0011641 C11.0042656,18.5187422 11.0893203,17.9929766 11.3878281,17.5816563 C11.6847031,17.1734531 12.1608906,16.9322422 12.6666172,16.9322422 L19,16.9322422 C24.2092656,16.9322422 31.6666172,22.2140938 31.6666172,25.9035078 L31.6666172,29.5990078 Z M64.8409141,19.0011641 C62.9421016,24.9046719 55.6655469,31.1823906 45.9166172,31.1823906 C45.0414297,31.1823906 44.3332344,30.4741953 44.3332344,29.5990078 L44.3332344,25.9035078 C44.3332344,22.2142422 51.7907344,16.9322422 56.9998516,16.9322422 L63.3332344,16.9322422 C63.8388125,16.9322422 64.3151484,17.1734531 64.6120234,17.5816563 C64.9105313,17.9929766 64.9955859,18.5187422 64.8409141,19.0011641 Z" id="Shape" fill="#AB47BC"></path><path d="M55.8938437,33.6037031 C46.2728672,35.6447187 42.6152187,37.7228437 40.4290312,38.9628906 C39.1781484,39.6742031 38.7469375,39.8999766 37.9998516,39.8999766 C37.2527656,39.8999766 36.8215547,39.6742031 35.5706719,38.9628906 C33.3844844,37.7228437 29.7269844,35.6447187 20.1058594,33.6037031 C14.7710156,32.4723125 10.6229297,29.6699609 7.57372656,25.3614141 C10.5405469,31.0424141 14.9623516,34.6438047 20.9262734,35.9695 C30.1062422,38.0105156 33.5960078,40.0886406 35.6818516,41.3286875 C36.8758828,42.0398516 37.2872031,42.265625 38,42.265625 C38.7127969,42.265625 39.1241172,42.0398516 40.3178516,41.3285391 C42.4036953,40.0884922 45.8936094,38.0103672 55.0734297,35.9693516 C61.0373516,34.6436562 65.4591562,31.0422656 68.4259766,25.3614141 C65.3769219,29.6699609 61.2286875,32.4723125 55.8938437,33.6037031 Z" id="Path" fill="#000000" opacity="0.1"></path></g></g></g></svg>