<svg xmlns="http://www.w3.org/2000/svg" xmlns:xlink="http://www.w3.org/1999/xlink" width="70px" height="70px" viewBox="0 0 70 70"><title>features-icon-scalable-fast-bm</title><desc>Created with Sketch.</desc><g id="Page-1" stroke="none" stroke-width="1" fill="none" fill-rule="evenodd"><g id="Home-Copy-20" transform="translate(-736.000000, -1595.000000)" fill-rule="nonzero"><g id="features-icon-scalable-fast-bm" transform="translate(736.000000, 1595.000000)"><polygon id="Path" fill="#FFC119" points="40.8091286 60.415505 54.7510373 68.5482851 68.6929461 60.415505 68.6929461 42.9881191 54.7510373 34.855339 40.8091286 42.9881191"></polygon><polygon id="Path" fill="#EA732D" points="68.6929461 60.415505 54.7510373 68.5482851 54.7510373 51.1208992 68.6929461 42.9881191"></polygon><polygon id="Path" fill="#FAAC2B" points="40.8091286 60.415505 54.7510373 68.5482851 54.7510373 51.1208992 40.8091286 42.9881191"></polygon><polygon id="Path" fill="#FFC119" points="1.30705394 60.415505 15.2489627 68.5482851 29.1908714 60.415505 29.1908714 42.9881191 15.2489627 34.855339 1.30705394 42.9881191"></polygon><polygon id="Path" fill="#EA732D" points="29.1908714 60.415505 15.2489627 68.5482851 15.2489627 51.1208992 29.1908714 42.9881191"></polygon><polygon id="Path" fill="#FAAC2B" points="1.30705394 60.415505 15.2489627 68.5482851 15.2489627 51.1208992 1.30705394 42.9881191"></polygon><polygon id="Path" fill="#FFC119" points="21.0580913 26.722559 35 34.855339 48.9419087 26.722559 48.9419087 9.29517307 35 1.16239299 21.0580913 9.29517307"></polygon><polygon id="Path" fill="#EA732D" points="48.9419087 26.722559 35 34.855339 35 17.4279532 48.9419087 9.29517307"></polygon><polygon id="Path" fill="#FAAC2B" points="21.0580913 26.722559 35 34.855339 35 17.4279532 21.0580913 9.29517307"></polygon><path d="M69.7640041,42.5637804 C69.7464179,42.5104545 69.7248606,42.4582631 69.6993323,42.4083409 C69.6777749,42.3765723 69.655083,42.3459381 69.6306891,42.3164386 C69.5955168,42.2642472 69.5569405,42.2148924 69.5143932,42.1689412 C69.4945377,42.1490858 69.4690093,42.1349034 69.4468847,42.1167498 C69.3946933,42.0668276 69.3373963,42.0225785 69.2761281,41.9840022 L55.3342194,33.8512222 C54.9722835,33.6401874 54.5252528,33.6401874 54.1633169,33.8512222 L51.4828352,35.4152619 L47.5049436,28.9089244 L49.5228216,27.7261086 C49.8813537,27.519045 50.1031672,27.1366864 50.1037344,26.722559 L50.1037344,9.29517307 C50.1037344,9.19305948 50.0901193,9.09151315 50.062889,8.99280342 C50.0492739,8.95139073 50.0328223,8.91054529 50.0129668,8.87083438 C49.9953805,8.81750846 49.9738233,8.76531707 49.9482949,8.71539488 C49.9267376,8.6836262 49.9040456,8.65299205 49.8796518,8.62349257 C49.8444794,8.57130118 49.8059032,8.52194639 49.7633558,8.47599517 C49.7435004,8.45613971 49.717972,8.4419573 49.6958473,8.42380378 C49.643656,8.37388158 49.5863589,8.32963243 49.5250908,8.29105618 L35.5831821,0.1582761 C35.2212462,-0.0527586515 34.7742154,-0.0527586515 34.4122796,0.1582761 L20.4703709,8.29105618 C20.4074008,8.33076695 20.3484018,8.37615077 20.2950759,8.42720763 C20.2752204,8.4447939 20.2508266,8.45727438 20.2332403,8.47599517 C20.1901259,8.52308091 20.1515495,8.57357037 20.1169443,8.62689643 C20.0959544,8.65696317 20.0692913,8.68249154 20.0511378,8.71539488 C20.022773,8.76985546 19.9989464,8.82658523 19.9802256,8.88501693 C19.9632068,8.91962205 19.948457,8.9553617 19.9359765,8.99166876 C19.9093134,9.09037863 19.8956983,9.19249222 19.8962656,9.29517307 L19.8962656,26.722559 C19.8974001,27.1366864 20.1186463,27.519045 20.4771784,27.7261086 L22.4978928,28.9055206 L18.519434,35.4118582 L15.8298755,33.8512222 C15.4679395,33.6401874 15.020909,33.6401874 14.658973,33.8512222 L0.717064315,41.9840022 C0.654094232,42.023713 0.59509527,42.0690968 0.54120195,42.1201537 C0.5219139,42.13774 0.497520062,42.1502204 0.479933942,42.1689412 C0.43681917,42.216027 0.398243071,42.2665164 0.363637801,42.3198425 C0.342647822,42.3499092 0.315984793,42.3754376 0.297264004,42.4083409 C0.269466452,42.4628015 0.245639876,42.5195313 0.226351826,42.577963 C0.209900083,42.6125681 0.195150415,42.6483078 0.182669793,42.6846148 C0.15657417,42.783892 0.14409362,42.8854383 0.145157304,42.9881191 L0.145157304,60.415505 C0.146362811,60.8296324 0.367608921,61.211991 0.726141079,61.4190546 L14.6680498,69.5518347 C14.7270488,69.5824689 14.7883169,69.6079972 14.8518543,69.6272854 C14.8841902,69.6391987 14.9142569,69.6579194 14.9471603,69.6669962 C15.1434454,69.7191876 15.3499416,69.7191876 15.5462267,69.6669962 C15.57913,69.6579194 15.6091967,69.6391987 15.6415327,69.6272854 C15.70507,69.6079972 15.7663382,69.5824689 15.8253371,69.5518347 L29.7672459,61.4190546 C30.1274799,61.2131257 30.3509952,60.830767 30.3526971,60.415505 L30.3526971,56.9300278 L39.6473029,56.9300278 L39.6473029,60.415505 C39.6484374,60.8296324 39.8696836,61.211991 40.2282158,61.4190546 L54.1701245,69.5518347 C54.2291234,69.5824689 54.2903916,69.6079972 54.3539289,69.6272854 C54.3862649,69.6391987 54.4163316,69.6579194 54.449235,69.6669962 C54.64552,69.7191876 54.8520163,69.7191876 55.0483013,69.6669962 C55.0812047,69.6579194 55.1112714,69.6391987 55.1436074,69.6272854 C55.2071447,69.6079972 55.2684129,69.5824689 55.3274118,69.5518347 L69.2693205,61.4190546 C69.6295546,61.2131257 69.8530699,60.830767 69.8547718,60.415505 L69.8547718,42.9881191 C69.8547718,42.8860055 69.8411566,42.7844592 69.8139263,42.6857495 C69.8003112,42.6443368 69.7838596,42.6034913 69.7640041,42.5637804 Z M54.7510373,36.1992673 L66.3868809,42.9881191 L54.7510373,49.775269 L43.1151938,42.9881191 L50.6846473,38.572841 L51.6144483,40.1005738 L53.5971539,38.8888259 L52.6889101,37.4019385 L54.7510373,36.1992673 Z M46.2943302,26.9222478 L45.1659751,25.0751264 L43.1827023,26.2868743 L44.2866636,28.0931502 L36.1618257,32.8323555 L36.1618257,18.0956625 L47.780083,11.3187241 L47.780083,26.0554168 L46.2943302,26.9222478 Z M35,2.50632124 L46.6358435,9.29517307 L35,16.082323 L23.3641565,9.29517307 L35,2.50632124 Z M22.219917,26.0554168 L22.219917,11.3187241 L33.8381743,18.0956625 L33.8381743,32.8323555 L25.7133364,28.0931502 L26.8172977,26.2868743 L24.8340249,25.0751264 L23.706237,26.9222478 L22.219917,26.0554168 Z M15.2489627,36.1992673 L17.3031477,37.3985348 L16.3943368,38.885422 L18.3776096,40.09717 L19.3074105,38.5694372 L26.8848062,42.9881191 L15.2489627,49.775269 L3.61311913,42.9881191 L15.2489627,36.1992673 Z M2.46887967,45.0116701 L14.0871369,51.7886086 L14.0871369,66.5253015 L2.46887967,59.7483629 L2.46887967,45.0116701 Z M28.0290456,59.7483629 L16.4107884,66.5253015 L16.4107884,51.7886086 L28.0290456,45.0116701 L28.0290456,54.6063764 L24.5435685,54.6063764 L24.5435685,56.9300278 L28.0290456,56.9300278 L28.0290456,59.7483629 Z M30.3526971,54.6063764 L30.3526971,42.9881191 C30.3526971,42.8860055 30.339082,42.7844592 30.3118517,42.6857495 C30.2982365,42.6443368 30.2817849,42.6034913 30.2619295,42.5637804 C30.2443432,42.5104545 30.222786,42.4582631 30.1972576,42.4083409 C30.1757002,42.3765723 30.1530083,42.3459381 30.1286145,42.3164386 C30.0934421,42.2642472 30.0548658,42.2148924 30.0123185,42.1689412 C29.992463,42.1490858 29.9669346,42.1349034 29.94481,42.1167498 C29.8926186,42.0668276 29.8353216,42.0225785 29.7740534,41.9840022 L20.5236968,36.5861644 L24.5015885,30.0798269 L34.4190871,35.8588887 L34.42476,35.8588887 C34.483759,35.8895228 34.5450273,35.9150512 34.6085646,35.9343394 C34.6409006,35.9462526 34.6715346,35.9649734 34.7038707,35.9740501 C34.9001556,36.0262415 35.106652,36.0262415 35.3035043,35.9740501 C35.3358402,35.9649734 35.365907,35.9462526 35.3988103,35.9343394 C35.4617804,35.9150512 35.5236158,35.8895228 35.5820474,35.8588887 L45.4950078,30.0764231 L49.4728994,36.5827607 L40.2282158,41.9840022 C40.1652457,42.023713 40.106814,42.0690968 40.0529208,42.1201537 C40.0330654,42.13774 40.0086715,42.1502204 39.9910854,42.1689412 C39.948538,42.216027 39.9093945,42.2665164 39.8753565,42.3198425 C39.8543665,42.3499092 39.8277037,42.3754376 39.8089827,42.4083409 C39.7806179,42.4628015 39.7567913,42.5195313 39.7380705,42.577963 C39.7210515,42.6125681 39.7063019,42.6483078 39.6938212,42.6846148 C39.6648892,42.7833247 39.6490048,42.8854383 39.6473029,42.9881191 L39.6473029,54.6063764 L30.3526971,54.6063764 Z M41.9709544,56.9300278 L45.4564315,56.9300278 L45.4564315,54.6063764 L41.9709544,54.6063764 L41.9709544,45.0116701 L53.5892116,51.7886086 L53.5892116,66.5253015 L41.9709544,59.7483629 L41.9709544,56.9300278 Z M55.9128631,66.5253015 L55.9128631,51.7886086 L67.5311203,45.0116701 L67.5311203,59.7483629 L55.9128631,66.5253015 Z" id="Shape" fill="#000000"></path><polygon id="Path" fill="#000000" points="40.9804526 22.68113 42.963158 21.4693821 44.0988881 23.3272822 42.1161826 24.5390301"></polygon><polygon id="Path" fill="#000000" points="52.5641046 41.6992187 54.5462429 40.4886055 55.7075014 42.3890527 53.7253631 43.6002334"></polygon><polygon id="Path" fill="#000000" points="25.9033811 23.3261476 27.0391112 21.4682476 29.0218167 22.6805628 27.8860866 24.5378956"></polygon><polygon id="Path" fill="#000000" points="14.256759 42.3822452 15.4185847 40.4806632 17.4012901 41.6924111 16.2394644 43.5934258"></polygon><polygon id="Path" fill="#000000" points="47.780083 54.6063764 50.1037344 54.6063764 50.1037344 56.9300278 47.780083 56.9300278"></polygon><polygon id="Path" fill="#000000" points="19.8962656 54.6063764 22.219917 54.6063764 22.219917 56.9300278 19.8962656 56.9300278"></polygon></g></g></g></svg>