<svg xmlns="http://www.w3.org/2000/svg" xmlns:xlink="http://www.w3.org/1999/xlink" width="50px" height="65px" viewBox="0 0 50 65"><title>features-icon-security</title><desc>Created with Sketch.</desc><g id="Page-1" stroke="none" stroke-width="1" fill="none" fill-rule="evenodd"><g id="Home-Copy-20" transform="translate(-145.000000, -1408.000000)" fill-rule="nonzero"><g id="features-icon-security" transform="translate(145.000000, 1408.000000)"><path d="M47.6140909,14.5454545 L47.6140909,31.4854545 C47.6140909,37.8972727 45.7142424,43.9925758 42.3104545,49.0587879 C38.9066667,54.2040909 33.9987879,58.2412121 28.1410606,60.7742424 L24.6580303,62.2783333 L21.5707576,60.9325758 C10.0134848,55.8663636 2.49348485,44.4675758 2.49348485,31.8021212 L2.49348485,27.6859091 L2.49348485,14.5454545 L24.7371212,2.355 L47.6140909,14.5454545 Z" id="Path" fill="#4DCFE0"></path><g id="Group" fill="#2F3A58"><path d="M24.6580303,64.6530303 C24.3413636,64.6530303 24.024697,64.5739394 23.7081818,64.494697 L20.6209091,63.1489394 C8.1930303,57.6869697 0.118787879,45.4172727 0.118787879,31.8019697 L0.118787879,14.5454545 C0.118787879,13.674697 0.593787879,12.8831818 1.38530303,12.4872727 L23.6289394,0.296818182 C24.3413636,-0.0989393939 25.2121212,-0.0989393939 25.9245455,0.296818182 L48.7222727,12.4872727 C49.5137879,12.8830303 49.9887879,13.674697 49.9887879,14.5454545 L49.9887879,31.4854545 C49.9887879,38.2931818 48.0098485,44.8633333 44.2893939,50.4043939 C40.6480303,55.8663636 35.4236364,60.2201515 29.0909091,62.9906061 L29.0909091,62.9906061 L25.6078788,64.494697 C25.2912121,64.5739394 24.974697,64.6530303 24.6580303,64.6530303 Z M4.11878788,15.3835163 L4.11878788,31.881389 C4.11878788,44.0073017 11.3659234,55.060829 22.4834731,60.0101908 L24.706983,61 L27.342219,59.8451963 C33.0245747,57.3705943 37.7187564,53.4934601 41.0128802,48.5440983 C44.3892862,43.5947365 46.1187879,37.7379838 46.1187879,31.6338183 L46.1187879,15.3835163 L24.7892652,4 L4.11878788,15.3835163 Z" id="Shape"></path><path d="M21.4916667,41.2219697 C20.8583333,41.2219697 20.1459091,40.905303 19.6710606,40.3512121 L13.655,33.3060606 C12.7842424,32.2769697 12.9425758,30.7730303 13.8924242,29.9813636 C14.9215152,29.1106061 16.4254545,29.2689394 17.2171212,30.2187879 L21.7292424,35.5224242 L33.919697,25.5483333 C34.9487879,24.7568182 36.4527273,24.8359091 37.2443939,25.865 C38.0359091,26.8940909 37.9568182,28.3980303 36.9277273,29.189697 L22.9957576,40.6677273 C22.5207576,41.0636364 22.0457576,41.2219697 21.4916667,41.2219697 Z" id="Path"></path></g></g></g></g></svg>