<svg xmlns="http://www.w3.org/2000/svg" xmlns:xlink="http://www.w3.org/1999/xlink" width="76px" height="53px" viewBox="0 0 76 53"><title>features-icon-payfee-token</title><desc>Created with Sketch.</desc><g id="Page-1" stroke="none" stroke-width="1" fill="none" fill-rule="evenodd"><g id="Home-Copy-20" transform="translate(-132.000000, -1607.000000)" fill-rule="nonzero"><g id="features-icon-payfee-token" transform="translate(132.000000, 1607.000000)"><g id="Group" transform="translate(40.483168, 29.497030)" fill="#F4B844"><path d="M33.8121743,8.24622574 L33.8121743,16.5806416 C33.8121743,19.4111525 26.264095,21.7700119 16.9862257,21.7700119 C7.70835644,21.7700119 0.317544554,19.4897109 0.317544554,16.6592 L0.317544554,9.11112079 L0.317544554,9.11112079 C1.65424158,11.5485386 8.57325149,13.435596 16.8289584,13.435596 C25.0846653,13.435596 33.8121743,11.0767366 33.8121743,8.24622574 Z" id="Path"></path><path d="M33.8121743,0.0690772277 L33.8121743,8.24622574 L33.6549069,8.24622574 C33.6549069,11.0767366 25.9495604,13.435596 16.6716911,13.435596 C7.39382178,13.435596 1.49682376,11.5485386 0.160277228,9.11112079 L0.160277228,9.11112079 L0.160277228,7.38133069 L0.00300990099,0.462320792 C0.86790495,3.05700594 8.02289109,5.1011802 16.6716911,5.1011802 C25.3204911,5.1011802 33.4976396,2.89958812 33.7334653,0.0690772277 L33.8121743,0.0690772277 L33.8121743,0.0690772277 Z" id="Path"></path></g><path d="M40.4861782,29.9592 C40.4861782,29.8019327 40.4076198,29.6446653 40.4076198,29.4088396 C40.4076198,29.1730139 40.4861782,29.094305 40.4861782,28.9370376 C41.3510733,26.3423525 48.4273505,24.2981782 56.9975921,24.2981782 L57.1548594,24.2981782 C66.4327287,24.2981782 74.2166337,26.5783287 74.2166337,29.4088396 L74.2166337,29.5661069 C73.9808079,32.3966178 66.3540198,34.5982099 57.1548594,34.5982099 C47.955699,34.5982099 41.3510733,32.5538851 40.4861782,29.9592 Z" id="Path" fill="#FEDB41"></path><g id="Group" transform="translate(23.025743, 6.621782)" fill="#F4B844"><path d="M33.9718495,17.4405703 L33.9718495,17.676396 C25.4016079,17.676396 18.3253307,19.7207208 17.4604356,22.3152554 L16.7528079,21.9221624 C15.1017267,21.9221624 13.450495,21.843604 11.8779723,21.6863366 L11.4848792,21.6863366 C10.6986931,18.148198 8.81163564,14.8458851 6.05968317,12.4870257 L6.2169505,12.4870257 C9.67653069,13.2733624 13.2146693,13.6664554 16.7528079,13.5877465 C26.0306772,13.5877465 33.8145822,11.307596 33.8145822,8.47708515 L33.9718495,8.47708515 L33.9718495,17.4405703 Z" id="Path"></path><path d="M33.9718495,0.142819802 L33.9718495,8.47723564 L33.8145822,8.47723564 C33.8145822,11.3077465 26.0306772,13.587897 16.7528079,13.587897 C13.2146693,13.6664554 9.67653069,13.2733624 6.2169505,12.4871762 L6.05968317,12.4871762 C4.32989307,11.0719208 2.36427723,9.9712 0.241394059,9.26357228 L0.241394059,9.10630495 L0.0841267327,0.37879604 C0.634487129,3.0520396 7.86803168,5.25363168 16.7528079,5.25363168 C25.6375842,5.25363168 33.8145822,2.89492277 33.8145822,0.0642613861 L33.9718495,0.142819802 Z" id="Path"></path></g><path d="M56.8404752,6.76460198 L56.8404752,6.76460198 C56.8404752,9.59511287 49.0565703,11.9539723 39.778701,11.9539723 C30.5008317,11.9539723 23.6603802,9.7523802 23.1100198,7.07913663 C23.0314614,7.00057822 23.0314614,6.84331089 23.0314614,6.76460198 C23.0314614,3.93409109 30.5795406,1.57523168 39.7788515,1.57523168 C48.9781624,1.57523168 56.8404752,3.93409109 56.8404752,6.76460198 Z" id="Path" fill="#FEDB41"></path><g id="Group" transform="translate(29.346535, 28.293069)" fill="#F4B844"><path d="M11.2969109,10.3150812 L11.2969109,16.9197069 L10.5107248,16.9197069 C7.05114455,16.9982653 3.59156436,16.6051723 0.210693069,15.8189861 L0.0534257426,15.5831604 C2.25501782,13.6175446 3.82754059,11.1014178 4.69228515,8.27090693 L5.08537822,8.27090693 C6.81516832,8.50673267 8.62351683,8.58544158 10.3533069,8.58544158 L11.218202,8.58544158 L11.2969109,10.3150812 Z" id="Path"></path><path d="M11.1396436,1.66613069 L11.2969109,8.58514059 L10.4320158,8.58514059 C8.70222574,8.58514059 6.89387723,8.50658218 5.16408713,8.27060594 L4.77099406,8.27060594 C5.24279604,6.69808317 5.47862178,5.04700198 5.47862178,3.3957703 C5.47862178,2.2950495 5.40006337,1.19417822 5.16408713,0.0934574257 L5.5571802,0.0934574257 C7.12970297,0.250724752 8.78078416,0.329283168 10.4320158,0.329283168 L11.1396436,0.722376238 C11.1396436,0.879643564 11.0610851,1.03691089 11.0610851,1.19417822 C11.0610851,1.35159604 11.1396436,1.50886337 11.1396436,1.66613069 Z" id="Path"></path></g><path d="M34.5106218,28.3866772 C34.7464475,29.487398 34.8251564,30.5882693 34.8251564,31.6889901 C34.8251564,36.3278495 32.938099,40.7310337 29.4785188,43.8760792 C22.7953347,50.0874614 12.3380356,49.6943683 6.12665347,43.0111842 C-0.0847287129,36.328 0.308364356,25.870701 6.99154851,19.6591683 C10.0578851,16.8286574 14.1465347,15.2561347 18.392301,15.2561347 C20.0433822,15.2561347 21.6946139,15.4919604 23.2671366,15.9637624 C25.3900198,16.6713901 27.3556356,17.7721109 29.0854257,19.1873663 C31.8373782,21.5462257 33.7244356,24.8485386 34.5106218,28.3866772 Z" id="Path" fill="#FEDB41"></path><g id="Group" fill="#2F3A58"><path d="M75.8678653,29.2515723 C75.5533307,24.927097 67.2190653,22.8829228 58.5701149,22.7256554 L58.5701149,6.76460198 C58.5701149,6.45006733 58.4915564,6.21424158 58.3342891,5.97841584 C57.3908356,1.88991683 48.3487921,0.00285940594 39.8571089,0.00285940594 C31.3654257,0.00285940594 21.5373465,2.12559208 21.5373465,6.76460198 L21.5373465,7.23640396 L21.6946139,13.998297 C20.5938931,13.7624713 19.4930218,13.6837624 18.392301,13.6837624 C8.40680396,13.6050535 0.229655446,21.6249347 0.150524779,31.6104317 C0.0725386139,41.5959287 8.09226931,49.7730772 18.0777663,49.8516356 C22.3235327,49.8516356 26.4121822,48.4363802 29.6357861,45.7631366 C32.7808317,46.3922059 36.0044356,46.785299 39.2281901,46.785299 C40.0930851,50.9525069 49.0564198,52.8395644 57.4693941,52.8395644 C65.8823683,52.8395644 75.7893069,50.7165307 75.7893069,46.0775208 L75.7893069,29.2515723 L75.8678653,29.2515723 Z M42.2159683,38.0576396 L42.2159683,33.4973386 C45.7541069,35.3056871 51.651105,36.1705822 57.3121267,36.1705822 C62.9731485,36.1705822 68.7915881,35.3056871 72.7228198,33.3400713 L72.7228198,37.271303 C72.7228198,37.4285703 72.6442614,37.5858376 72.6442614,37.743105 C72.6442614,37.9003723 67.3763327,41.3599525 57.2335683,41.3599525 C48.9778614,41.3599525 43.395398,39.4730455 42.2159683,38.0576396 Z M24.9182178,14.8630416 L24.7609505,10.853101 C28.2990891,12.6614495 34.1960871,13.4477861 39.8571089,13.4477861 C45.5181307,13.4477861 51.4936871,12.5828911 55.4250693,10.6172752 L55.4250693,14.4699485 C55.4250693,14.6272158 55.267802,14.8630416 55.267802,15.0203089 C55.267802,15.1775762 49.9998733,18.6371564 39.8571089,18.6371564 C36.3975287,18.6371564 33.0166574,18.3226218 29.6357861,17.5364356 L29.4785188,17.5364356 C28.0632634,16.4355644 26.5694495,15.5706693 24.9182178,14.8630416 Z M39.8572594,21.782202 C45.7542574,21.782202 51.4938376,20.9173069 55.4252198,18.9516911 L55.4252198,22.7256554 C49.1351287,22.9614812 42.4519446,24.2981782 39.9359683,26.9714218 L39.8574099,26.9714218 L35.7689109,26.8141545 C35.2185505,24.8485386 34.3536554,23.0401901 33.1742257,21.3889584 C35.3755168,21.6249347 37.6556673,21.782202 39.8572594,21.782202 Z M36.3976792,30.0379089 L38.9923644,30.0379089 L38.9923644,35.2272792 L36.0045861,35.0700119 C36.2404119,33.9692911 36.3976792,32.7898614 36.3976792,31.6104317 C36.4762376,31.1386297 36.3976792,30.5882693 36.3976792,30.0379089 Z M35.2182495,38.2149069 C36.4762376,38.3721743 37.7342257,38.3721743 39.0709228,38.4507327 L39.0709228,43.640103 C36.8693307,43.5615446 34.5891802,43.4042772 32.3877386,43.0897426 C33.5671683,41.6744871 34.5891802,40.0234059 35.2182495,38.2149069 Z M72.7228198,29.4088396 L72.7228198,29.4088396 C72.7228198,30.5095604 67.061798,33.0256871 57.2335683,33.0256871 C47.4053386,33.0256871 42.2946772,30.5882693 42.058701,29.3302812 C41.8228752,28.0722931 47.7984317,25.6348752 56.9975921,25.6348752 L57.2334178,25.6348752 C67.2976238,25.6348752 72.7228198,28.4653861 72.7228198,29.4088396 Z M39.8572594,3.14775446 C49.6854891,3.14775446 55.1893941,5.66373069 55.2679525,6.76460198 C55.3465109,7.86547327 49.9213149,10.3814495 39.8572594,10.3814495 C29.793204,10.3814495 24.9183683,8.33712475 24.6823921,6.76460198 L24.6823921,6.76460198 C24.6823921,6.13553267 28.7708911,3.14775446 39.8572594,3.14775446 Z M28.4563564,42.6966495 C22.4020911,48.200404 12.967105,47.7287525 7.4632,41.6744871 C1.95944554,35.6202218 2.43109703,26.1850851 8.48536238,20.6813307 C11.2373149,18.2439129 14.6967446,16.8286574 18.392301,16.8286574 C19.8861149,16.8286574 21.3800792,17.0644832 22.8740436,17.4577267 C24.8396594,18.086796 26.5694495,19.1088079 28.1419723,20.445505 C30.6579485,22.5683881 32.3877386,25.4776079 33.0168079,28.7012119 C33.2526337,29.6446653 33.3313426,30.6668277 33.3313426,31.6889901 C33.3313426,35.856198 31.5228436,39.8661386 28.4563564,42.6966495 Z M57.548103,49.6943683 C47.7198733,49.6943683 42.3732356,47.1783921 42.3732356,46.0775208 L42.3732356,41.8317545 C45.9900832,43.640103 51.8869307,44.504998 57.3121267,44.504998 C62.7373228,44.504998 68.7915881,43.5615446 72.7228198,41.6744871 L72.7228198,46.0775208 C72.7228198,46.9424158 68.0052515,49.6943683 57.548103,49.6943683 Z" id="Shape"></path></g></g></g></g></svg>