<svg xmlns="http://www.w3.org/2000/svg" xmlns:xlink="http://www.w3.org/1999/xlink" width="71px" height="70px" viewBox="0 0 71 70"><title>icon-low-development-2</title><desc>Created with Sketch.</desc><g id="Page-1" stroke="none" stroke-width="1" fill="none" fill-rule="evenodd"><g id="TomoX9" transform="translate(-295.000000, -5636.000000)" fill="#00E8B5" fill-rule="nonzero"><g id="icon-low-development-2" transform="translate(295.000000, 5636.000000)"><path d="M5.71713147,70 C2.56573705,70 0,67.4342629 0,64.2828685 L0,5.71713147 C0,2.56573705 2.56573705,0 5.71713147,0 L64.561753,0 C67.7131474,0 70.2788845,2.56573705 70.2788845,5.71713147 L70.2788845,64.2828685 C70.2788845,67.4342629 67.7131474,70 64.561753,70 L5.71713147,70 Z M3.62549801,19.8007968 C3.3187251,19.8007968 3.06772908,20.0517928 3.06772908,20.3585657 L3.06772908,64.2828685 C3.06772908,65.747012 4.25298805,66.9322709 5.71713147,66.9322709 L64.561753,66.9322709 C66.0258964,66.9322709 67.2111554,65.747012 67.2111554,64.2828685 L67.2111554,20.3585657 C67.2111554,20.0517928 66.9601594,19.8007968 66.6533865,19.8007968 L3.62549801,19.8007968 Z M5.71713147,3.06772908 C4.25298805,3.06772908 3.06772908,4.25298805 3.06772908,5.71713147 L3.06772908,16.1752988 C3.06772908,16.4820717 3.3187251,16.7330677 3.62549801,16.7330677 L66.6533865,16.7330677 C66.9601594,16.7330677 67.2111554,16.4820717 67.2111554,16.1752988 L67.2111554,5.71713147 C67.2111554,4.25298805 66.0258964,3.06772908 64.561753,3.06772908 L5.71713147,3.06772908 Z" id="Shape"></path><path d="M28.8645418,59.5418327 C28.6553785,59.5418327 28.4601594,59.5 28.2649402,59.4163347 C27.8884462,59.249004 27.5956175,58.9561753 27.4422311,58.5796813 C27.2888446,58.2031873 27.2888446,57.7848606 27.4561753,57.4083665 L40.0059761,28.125498 C40.2430279,27.5537849 40.8007968,27.1912351 41.4143426,27.1912351 C41.623506,27.1912351 41.8187251,27.2330677 42.0139442,27.3167331 C42.3904382,27.4840637 42.6832669,27.7768924 42.8366534,28.1533865 C42.9900398,28.5298805 42.9900398,28.9482072 42.8227092,29.3247012 L30.2729084,58.6075697 C30.0358566,59.1792829 29.4780876,59.5418327 28.8645418,59.5418327 Z" id="Path"></path><path d="M22.5896414,53.2669323 C22.2410359,53.2669323 21.9063745,53.1553785 21.62749,52.9322709 L11.1693227,44.5657371 C10.8067729,44.2729084 10.5976096,43.8406375 10.5976096,43.3665339 C10.5976096,42.8924303 10.8067729,42.4601594 11.1693227,42.1673307 L21.62749,33.8007968 C21.9063745,33.5776892 22.2270916,33.4661355 22.5896414,33.4661355 C23.063745,33.4661355 23.4960159,33.6752988 23.7888446,34.0378486 C24.0398406,34.3585657 24.1653386,34.7629482 24.1095618,35.1673307 C24.0677291,35.5717131 23.8585657,35.9342629 23.5378486,36.1992032 L15.1155378,42.9342629 C14.9900398,43.0458167 14.9063745,43.1992032 14.9063745,43.3665339 C14.9063745,43.5338645 14.9900398,43.7011952 15.1155378,43.7988048 L23.5378486,50.5338645 C23.8585657,50.7848606 24.0537849,51.1613546 24.1095618,51.5657371 C24.1513944,51.9701195 24.0398406,52.374502 23.7888446,52.6952191 C23.4960159,53.0577689 23.063745,53.2669323 22.5896414,53.2669323 C22.5896414,53.2669323 22.5896414,53.2669323 22.5896414,53.2669323 Z" id="Path"></path><path d="M47.689243,53.2669323 C47.2151394,53.2669323 46.7828685,53.0577689 46.4900398,52.6952191 C46.2390438,52.374502 46.1135458,51.9701195 46.1693227,51.5657371 C46.2250996,51.1613546 46.4203187,50.7988048 46.7410359,50.5338645 L55.1633466,43.7988048 C55.2888446,43.687251 55.37251,43.5338645 55.37251,43.3665339 C55.37251,43.1992032 55.2888446,43.0318725 55.1633466,42.9342629 L46.7410359,36.1992032 C46.4203187,35.9482072 46.2250996,35.5717131 46.1693227,35.1673307 C46.12749,34.7629482 46.2390438,34.3585657 46.4900398,34.0378486 C46.7828685,33.6752988 47.2151394,33.4661355 47.689243,33.4661355 C48.0378486,33.4661355 48.37251,33.5776892 48.6513944,33.8007968 L59.1095618,42.1673307 C59.4721116,42.4601594 59.6812749,42.8924303 59.6812749,43.3665339 C59.6812749,43.8406375 59.4721116,44.2729084 59.1095618,44.5657371 L48.6513944,52.9322709 C48.37251,53.1553785 48.0378486,53.2669323 47.689243,53.2669323 C47.689243,53.2669323 47.689243,53.2669323 47.689243,53.2669323 Z" id="Path"></path><circle id="Oval" cx="10.0398406" cy="9.90039841" r="1.53386454"></circle><circle id="Oval" cx="18.4063745" cy="9.90039841" r="1.53386454"></circle><circle id="Oval" cx="26.7729084" cy="9.90039841" r="1.53386454"></circle><path d="M47.689243,11.4342629 C46.8386454,11.4342629 46.1553785,10.750996 46.1553785,9.90039841 C46.1553785,9.0498008 46.8386454,8.36653386 47.689243,8.36653386 L60.2390438,8.36653386 C61.0896414,8.36653386 61.7729084,9.0498008 61.7729084,9.90039841 C61.7729084,10.750996 61.0896414,11.4342629 60.2390438,11.4342629 L47.689243,11.4342629 Z" id="Path"></path></g></g></g></svg>