<svg xmlns="http://www.w3.org/2000/svg" xmlns:xlink="http://www.w3.org/1999/xlink" width="211px" height="121px" viewBox="0 0 211 121"><title>Group 12</title><g id="Page-1" stroke="none" stroke-width="1" fill="none" fill-rule="evenodd"><g id="Staking-2-Copy" transform="translate(-923.000000, -2924.000000)"><g id="Group-12" transform="translate(923.000000, 2924.000000)"><rect id="Rectangle-Copy-13" fill="#00E8B5" opacity="0.1" x="0" y="35" width="60" height="40"></rect><path d="M143,66.1111111 L129.834694,66.9182031 L120.120925,76.9665683 L114.888889,90.7168142 L120.120925,107 L141.472373,96.8781343 C142.404884,96.4300639 143,95.473144 143,94.4222284 L143,66.1111111 Z" id="Path" fill="#E5E7F1" fill-rule="nonzero"></path><polygon id="Path" fill="#EDEEF5" fill-rule="nonzero" points="97.2604388 66.1111111 91.8888889 83.0840708 97.2604388 96.1445428 120 107 120 76.9665683 110.689314 67.0687378"></polygon><polygon id="Path" fill="#FFFFFF" fill-rule="nonzero" points="119.820313 55.8888889 103.064453 55.8888889 97 66.75 119.820313 77.6111111 143 66.75"></polygon><polygon id="Path" fill="#E5E7F1" fill-rule="nonzero" points="97 66.1111111 83.9295882 66.9182031 74.1541446 76.9665683 68.8888889 90.7168142 74.1541446 107 97 96.1445428"></polygon><path d="M51,66.1111111 L51,94.4222284 C51,95.473144 51.6029358,96.4300639 52.5476989,96.8781343 L74,107 L74,76.9665683 L64.65625,67.0687378 L51,66.1111111 Z" id="Path" fill="#EDEEF5" fill-rule="nonzero"></path><polygon id="Path" fill="#FFFFFF" fill-rule="nonzero" points="74 56.2914093 51 66.9512602 74 77.6111111 97 66.9512602 84.6794739 55.8888889"></polygon><polygon id="Path" fill="#E5E7F1" fill-rule="nonzero" points="120 25.2222222 106.977489 26.0293142 97.2604388 36.0776794 91.8888889 49.8279253 97.2604388 66.1111111 120 55.2556539"></polygon><polygon id="Path" fill="#EDEEF5" fill-rule="nonzero" points="74 25.2222222 74 55.2556539 97 66.1111111 97 36.0776794 87.5664062 26.1798489"></polygon><path d="M95.9380821,15.2587999 L74,25.8611111 L97.0901961,36.7222222 L120,25.8611111 L98.2423101,15.2587999 C97.5129902,14.9137334 96.667402,14.9137334 95.9380821,15.2587999 Z" id="Path" fill="#FFFFFF" fill-rule="nonzero"></path><circle id="Oval" fill="#242828" cx="151" cy="103" r="18"></circle><g id="Group-5" transform="translate(144.000000, 92.000000)"><polygon id="Fill-18" fill="#FFFFFF" points="3.74712626 0 3.74712626 7.32804938 0.000257575757 10.9924938 0.000257575757 3.66444444"></polygon><path d="M14.9891919,14.6568543 C14.9891919,18.7032741 11.6338384,21.9849037 7.49459596,21.9849037 C3.35449495,21.9849037 1.91846539e-13,18.7032741 1.91846539e-13,14.6568543 L1.91846539e-13,10.9924099 L3.74686869,10.9924099 L3.74686869,14.6568543 C3.74686869,16.6767062 5.4279798,18.3204593 7.49459596,18.3204593 C9.56121212,18.3204593 11.2423232,16.6767062 11.2423232,14.6568543 L14.9891919,14.6568543 Z" id="Fill-19" fill="#FFFFFF"></path><polygon id="Fill-20" fill="#00E8B4" points="14.9891919 7.32838519 11.2423232 10.9919901 1.91846539e-13 10.9919901 3.74686869 7.32838519"></polygon></g><path d="M147,0 L195,0 C203.836556,-1.623249e-15 211,7.163444 211,16 C211,24.836556 203.836556,32 195,32 L131,32 L131,32 L131,16 C131,7.163444 138.163444,1.623249e-15 147,0 Z" id="Rectangle-Copy-12" fill="#00E8B5"></path><g id="telegram-logo" transform="translate(17.000000, 45.000000)" fill="#00E8B5" fill-rule="nonzero"><path d="M17.839883,19.9387135 C17.6667836,19.9387135 17.4948538,19.8874854 17.3473684,19.7874854 L11.7753216,16.0078363 L8.78678363,18.1582456 C8.55239766,18.3267836 8.2502924,18.3692398 7.97812865,18.2719298 C7.70631579,18.174386 7.49988304,17.9492398 7.42619883,17.6700585 L5.92561404,11.9832749 L0.563859649,9.93309942 C0.226315789,9.80397661 0.00245614035,9.48105263 -2.04102137e-05,9.11964912 C-0.00245614035,8.75824561 0.216959064,8.4322807 0.552865497,8.29859649 L20.9402339,0.186315789 C21.0327485,0.147017544 21.1306433,0.124327485 21.2293567,0.118245614 C21.2646784,0.116140351 21.300117,0.116140351 21.3353216,0.118128655 C21.5397661,0.130292398 21.7405848,0.213567251 21.8973099,0.367251462 C21.9135673,0.383157895 21.9290058,0.399415205 21.9436257,0.416374269 C22.0734503,0.564678363 22.1447953,0.745497076 22.1582456,0.929707602 C22.1615205,0.976023392 22.1612865,1.02292398 22.157193,1.06982456 C22.154386,1.10327485 22.1495906,1.13660819 22.142807,1.1697076 L18.7015205,19.225731 C18.6461988,19.5157895 18.4487719,19.7585965 18.1760234,19.8716959 C18.0678363,19.9166082 17.9535673,19.9387135 17.839883,19.9387135 Z M12.2645614,14.2197661 L17.2279532,17.5864327 L19.905614,3.53684211 L10.2346199,12.842807 L12.2411696,14.2039766 C12.2492398,14.2090058 12.2569591,14.214386 12.2645614,14.2197661 Z M8.13274854,13.4711111 L8.79730994,15.9892398 L10.2291228,14.9589474 L8.35426901,13.6871345 C8.2671345,13.6281871 8.19251462,13.5547368 8.13274854,13.4711111 Z M3.29076023,9.09730994 L6.97239766,10.5049123 C7.23614035,10.605731 7.43520468,10.8274854 7.50725146,11.1004678 L7.97415205,12.8699415 C7.99555556,12.665848 8.08807018,12.4738012 8.23836257,12.3291228 L17.4534503,3.4619883 L3.29076023,9.09730994 Z" id="Shape"></path></g><g id="Group-8" transform="translate(141.000000, 10.500000)" stroke="#FFFFFF" stroke-linecap="round" stroke-width="1.5"><line x1="0" y1="1" x2="15.251462" y2="1" id="Line-3"></line><line x1="0" y1="12" x2="27" y2="12" id="Line-3-Copy-3"></line><line x1="30" y1="1" x2="40.5299145" y2="1" id="Line-3-Copy-2"></line><line x1="19" y1="1" x2="24" y2="1" id="Line-3-Copy"></line><line x1="31" y1="12" x2="36" y2="12" id="Line-3-Copy-4"></line></g><g transform="translate(187.000000, 10.000000)" fill="#FFFFFF" fill-rule="nonzero"><path d="M3.87472152,0.019257384 C2.92331224,0.019257384 2.14914768,0.786362869 2.14914768,1.72569198 L2.0864135,10.5732194 L3.02763291,10.5799536 L3.09039662,1.72914768 C3.09039662,1.30527848 3.44225738,0.960476793 3.87475105,0.960476793 L13.3340844,0.960476793 L13.3340844,0.019257384 L3.87472152,0.019257384 Z" id="Path"></path><path d="M13.3340253,0.019257384 C12.3479409,0.019257384 11.5456878,0.821481013 11.5456878,1.80759494 L11.5456878,11.7375232 C11.5456878,12.4553629 10.9614979,13.0395527 10.2436582,13.0395527 C9.52581857,13.0395527 8.94162869,12.4553629 8.94162869,11.7375232 L8.94162869,10.5923586 C8.94162869,10.3324135 8.73094937,10.1217342 8.47100422,10.1217342 L0.470624473,10.1217342 C0.210679325,10.1217342 1.92734717e-13,10.3324135 1.92734717e-13,10.5923586 L1.92734717e-13,11.7375232 C1.92734717e-13,12.9744557 1.00631646,13.9807722 2.24324895,13.9807722 L2.24324895,13.0395527 C1.5252616,13.0395527 0.941219409,12.4553629 0.941219409,11.7375232 L0.941219409,11.0629536 L8.00040928,11.0629536 L8.00040928,11.7374937 C8.00040928,12.9744262 9.00672574,13.9807722 10.2436582,13.9807722 C11.4805907,13.9807722 12.4869072,12.9744262 12.4869072,11.7374937 L12.4869072,4.38025738 L14.6517384,4.38025738 C14.9116835,4.38025738 15.1223629,4.16957806 15.1223629,3.90963291 L15.1223629,1.8075654 C15.1223629,0.821481013 14.3201392,0.019257384 13.3340253,0.019257384 Z M14.1811435,3.43903797 L12.4869367,3.43903797 L12.4869367,1.8075654 C12.4869367,1.34039662 12.8670338,0.960476793 13.3340253,0.960476793 C13.8010169,0.960476793 14.1811139,1.34042616 14.1811139,1.8075654 L14.1811139,3.43903797 L14.1811435,3.43903797 Z" id="Shape"></path><rect id="Rectangle" x="2.14911814" y="13.0395232" width="7.98457806" height="1"></rect><path d="M6.9964557,2.639 L4.56494515,2.639 C4.305,2.639 4.09432068,2.84967932 4.09432068,3.10962447 C4.09432068,3.36956962 4.305,3.58024895 4.56494515,3.58024895 L6.9964557,3.58024895 C7.25640084,3.58024895 7.46708017,3.36956962 7.46708017,3.10962447 C7.46708017,2.84967932 7.25637131,2.639 6.9964557,2.639 Z" id="Path"></path><path d="M9.82011392,4.52143882 L4.56494515,4.52143882 C4.305,4.52143882 4.09432068,4.73211814 4.09432068,4.99206329 C4.09432068,5.25200844 4.305,5.46268776 4.56494515,5.46268776 L9.82011392,5.46268776 C10.0800591,5.46268776 10.2907384,5.25200844 10.2907384,4.99206329 C10.2907384,4.73211814 10.0800591,4.52143882 9.82011392,4.52143882 Z" id="Path"></path><path d="M9.82011392,6.40387764 L4.56494515,6.40387764 C4.305,6.40387764 4.09432068,6.61455696 4.09432068,6.87450211 C4.09432068,7.13444726 4.305,7.34512658 4.56494515,7.34512658 L9.82011392,7.34512658 C10.0800591,7.34512658 10.2907384,7.13459494 10.2907384,6.87450211 C10.2907384,6.61455696 10.0800591,6.40387764 9.82011392,6.40387764 Z" id="Path"></path><path d="M9.82011392,8.28634599 L4.56494515,8.28634599 C4.305,8.28634599 4.09432068,8.49702532 4.09432068,8.75697046 C4.09432068,9.01691561 4.305,9.22759494 4.56494515,9.22759494 L9.82011392,9.22759494 C10.0800591,9.22759494 10.2907384,9.01691561 10.2907384,8.75697046 C10.2907384,8.49702532 10.0800591,8.28634599 9.82011392,8.28634599 Z" id="Path"></path></g></g></g></g></svg>