<svg xmlns="http://www.w3.org/2000/svg" xmlns:xlink="http://www.w3.org/1999/xlink" id="Layer_1" x="0px" y="0px" viewBox="0 0 60 60.2" style="enable-background:new 0 0 60 60.2;" xml:space="preserve">
<style type="text/css">
	.st0{fill:#333745;}
</style>
<path class="st0" d="M50.5,0H22.8v37.2H60V9.7C60,4.4,55.7,0,50.5,0z"></path>
<path class="st0" d="M14.3,0H9.7C4.5,0,0,4.3,0,9.7v4.6h14.3V0z"></path>
<rect y="23" class="st0" width="14.3" height="14.3"></rect>
<path class="st0" d="M45.7,60.2h4.6c5.2,0,9.7-4.3,9.7-9.7v-4.6H45.7L45.7,60.2L45.7,60.2z"></path>
<rect x="22.8" y="45.9" class="st0" width="14.3" height="14.3"></rect>
<path class="st0" d="M0,45.9v4.6c0,5.2,4.3,9.7,9.7,9.7h4.6V45.9H0z"></path>
</svg>