<svg xmlns="http://www.w3.org/2000/svg" xmlns:xlink="http://www.w3.org/1999/xlink" id="Layer_1" x="0px" y="0px" viewBox="0 0 517.2 518.9" style="enable-background:new 0 0 517.2 518.9;" xml:space="preserve">
<style type="text/css">
	.st0{fill:#333745;}
</style>
<path class="st0" d="M435.5,0H196.8v320.3h320.3v-237C517.2,38.3,480.5,0,435.5,0z"></path>
<path class="st0" d="M123.5,0h-40C38.5,0,0,36.6,0,83.5v40h123.5V0z"></path>
<rect y="198.5" class="st0" width="123.5" height="123.5"></rect>
<path class="st0" d="M393.7,518.8h40c45,0,83.5-36.6,83.5-83.5v-39.9H393.7L393.7,518.8L393.7,518.8z"></path>
<rect x="196.8" y="395.4" class="st0" width="123.5" height="123.5"></rect>
<path class="st0" d="M0,395.4v40c0,45,36.6,83.5,83.5,83.5h40V395.4H0z"></path>
</svg>