<svg xmlns="http://www.w3.org/2000/svg" xmlns:xlink="http://www.w3.org/1999/xlink" width="60px" height="60px" viewBox="0 0 60 60"><title>More</title><g id="Page-1" stroke="none" stroke-width="1" fill="none" fill-rule="evenodd"><g id="Staking-2-Copy" transform="translate(-1075.000000, -3467.000000)" fill="#242828" fill-rule="nonzero"><g id="More" transform="translate(1075.000000, 3467.000000)"><path d="M30,0 C46.5685425,0 60,13.4314575 60,30 C60,46.5685425 46.5685425,60 30,60 C13.4314575,60 0,46.5685425 0,30 C0,13.4314575 13.4314575,0 30,0 Z M30,3 C15.0883118,3 3,15.0883118 3,30 C3,44.9116882 15.0883118,57 30,57 C44.9116882,57 57,44.9116882 57,30 C57,15.0883118 44.9116882,3 30,3 Z" id="Oval-Copy-2"></path><circle id="Oval-Copy-3" cx="30" cy="30" r="4"></circle><circle id="Oval-Copy-5" cx="44" cy="30" r="4"></circle><circle id="Oval-Copy-4" cx="16" cy="30" r="4"></circle></g></g></g></svg>