<svg xmlns="http://www.w3.org/2000/svg" xmlns:xlink="http://www.w3.org/1999/xlink" id="Layer_1" x="0px" y="0px" viewBox="0 0 51 60" style="enable-background:new 0 0 51 60;" xml:space="preserve">
<style type="text/css">
	.st0{fill:#3375BB;}
</style>
<g>
	<path class="st0" d="M25.5,60c-0.6,0-1.2-0.2-1.7-0.5c-3.4-2.4-6.3-4-8.8-5.4C3.8,48,0.5,44.7,0,10.1C0,9.3,0.3,8.6,0.8,8   c0.5-0.5,1.3-0.9,2-0.9l0.5,0c3.4,0,12.4,0.1,20.3-6.5c1.1-0.9,2.6-0.9,3.7,0c7.9,6.6,16.9,6.5,20.3,6.5l0.5,0c0.8,0,1.5,0.3,2,0.9   c0.5,0.5,0.8,1.3,0.8,2.1c-0.5,34.6-3.8,37.9-15,44c-2.5,1.4-5.4,2.9-8.8,5.4C26.7,59.8,26.1,60,25.5,60z M5.8,12.9   C6.1,27.8,7,36,8.8,40.7c1.7,4.4,4.3,5.8,8.9,8.3c2.2,1.2,4.8,2.6,7.7,4.6c3-2,5.6-3.4,7.8-4.6c4.7-2.5,7.2-3.9,8.9-8.3   c1.8-4.7,2.7-12.9,3.1-27.8c-4.5-0.1-12.4-1.1-19.7-6.4C18.1,11.8,10.3,12.7,5.8,12.9z"></path>
</g>
</svg>