<svg xmlns="http://www.w3.org/2000/svg" xmlns:xlink="http://www.w3.org/1999/xlink" width="78px" height="95px" viewBox="0 0 78 95"><title>icon-regulatory</title><desc>Created with Sketch.</desc><g id="Page-1" stroke="none" stroke-width="1" fill="none" fill-rule="evenodd"><g id="TomoP2" transform="translate(-735.000000, -1887.000000)"><g id="icon-regulatory" transform="translate(735.000000, 1887.000000)"><circle id="Oval-Copy-3" fill="#00E8B5" cx="58" cy="20" r="20"></circle><g id="Group-5" transform="translate(0.000000, 11.000000)" fill="#000000"><path d="M1.96057874,83.7889704 C0.879408681,83.7889704 0,82.9092053 0,81.8283917 L0,27.4983644 C0,27.3240512 0.0253092892,27.1443909 0.0755713986,26.9654435 C0.111218285,26.838897 0.111218285,26.7052212 0.0752149298,26.5790312 C-0.117991193,25.8949675 0.0730761166,25.1585028 0.574271336,24.6573076 L24.6573076,0.574271336 C25.0251835,0.20675194 25.5156846,0.00427762634 26.0389809,0.00427762634 C26.2193542,0.00427762634 26.3990145,0.0288739778 26.5726148,0.0777102118 C26.6357098,0.0955336549 26.7005871,0.104445376 26.7654645,0.104445376 C26.8314112,0.104445376 26.8973579,0.095177186 26.9611659,0.0769972741 C27.1401132,0.0260222269 27.3211994,0 27.4987209,0 L64.3709373,0 C65.4517509,0 66.331516,0.879408681 66.331516,1.96057874 L66.331516,38.4766408 C66.331516,39.5578109 65.4517509,40.4372195 64.3709373,40.4372195 C63.2897672,40.4372195 62.4103586,39.5578109 62.4103586,38.4766408 L62.4103586,4.6340952 C62.4103586,4.24019711 62.0909625,3.92115748 61.6974208,3.92115748 L28.7174879,3.92115748 C28.3239463,3.92115748 28.0045502,4.24019711 28.0045502,4.6340952 L28.0045502,26.043615 C28.0045502,27.1247851 27.1251415,28.0041938 26.0439715,28.0041938 L16.3640596,28.0041938 C15.2828895,28.0041938 14.4034808,27.1247851 14.4034808,26.043615 C14.4034808,24.962445 15.2828895,24.0830363 16.3640596,24.0830363 L23.370455,24.0830363 C23.7643531,24.0830363 24.0833927,23.7636402 24.0833927,23.3700986 L24.0833927,8.41516041 C24.0833927,8.1267771 23.9097924,7.8669113 23.6431537,7.75640596 C23.5551059,7.72004613 23.462424,7.70222269 23.3708115,7.70222269 C23.1850912,7.70222269 23.0025792,7.77458587 22.8664081,7.91111344 L4.1086601,26.6688614 C3.95359614,26.8235689 3.87873768,27.0410149 3.90475991,27.2581044 C3.91438457,27.336884 3.92151394,27.4167331 3.92151394,27.4983644 L3.92151394,79.1545188 C3.92151394,79.5484169 4.24055358,79.8674565 4.63445167,79.8674565 L61.6974208,79.8674565 C62.0909625,79.8674565 62.4103586,79.5484169 62.4103586,79.1545188 L62.4103586,70.0185783 C62.4103586,68.9374083 63.2897672,68.0579996 64.3709373,68.0579996 C64.8945901,68.0579996 65.3868736,68.2618998 65.7572447,68.6322709 C66.1276159,69.0026421 66.331516,69.4949256 66.331516,70.0189348 L66.331516,81.8283917 C66.331516,82.9092053 65.4513944,83.7889704 64.3705808,83.7889704 L1.96057874,83.7889704 Z" id="Fill-1"></path><path d="M32.1097924,41.679373 C28.2071713,41.679373 25.0324596,44.8540847 25.0324596,48.7567058 C25.0324596,52.6593269 28.2071713,55.8340386 32.1097924,55.8340386 C36.0117006,55.8340386 39.1867687,52.6593269 39.1871252,48.7567058 C39.1871252,44.8540847 36.012057,41.679373 32.1097924,41.679373 L32.1097924,41.679373 Z M66.2937303,50.7172845 C65.8998322,50.7172845 65.5807926,51.0366806 65.5807926,51.4302223 L65.5807926,56.8742147 C65.5807926,57.2677563 65.8998322,57.5871524 66.2937303,57.5871524 L72.3098553,57.5871524 C72.7037534,57.5871524 73.022793,57.2677563 73.022793,56.8742147 L73.022793,51.4302223 C73.022793,51.0366806 72.7037534,50.7172845 72.3098553,50.7172845 L66.2937303,50.7172845 Z M63.6202139,61.5079534 C62.5390438,61.5079534 61.6596351,60.6281883 61.6596351,59.5473747 L61.6596351,51.4302223 C61.6596351,51.0363242 61.340239,50.7172845 60.9466974,50.7172845 L43.5093101,50.7172845 C43.178507,50.7172845 42.8908367,50.9450681 42.8152653,51.2669595 C41.6431956,56.2650094 37.2411617,59.7551961 32.1097924,59.7551961 C26.0451877,59.7551961 21.1113022,54.8213105 21.1113022,48.7567058 C21.1113022,42.6921011 26.0451877,37.7582156 32.1097924,37.7582156 C37.2415181,37.7582156 41.6435521,41.2484022 42.8152653,46.2457391 C42.8908367,46.567987 43.178507,46.7961271 43.5093101,46.7961271 L74.9833718,46.7961271 C76.0645418,46.7961271 76.9439505,47.6755358 76.9439505,48.7567058 L76.9439505,59.5473747 C76.9439505,60.6281883 76.0645418,61.5079534 74.9833718,61.5079534 L63.6202139,61.5079534 Z" id="Fill-3"></path></g></g></g></g></svg>