<svg xmlns="http://www.w3.org/2000/svg" xmlns:xlink="http://www.w3.org/1999/xlink" width="71px" height="70px" viewBox="0 0 71 70"><title>icon-easy</title><desc>Created with Sketch.</desc><g id="Page-1" stroke="none" stroke-width="1" fill="none" fill-rule="evenodd"><g id="TomoX9" transform="translate(-265.000000, -4011.000000)" fill="#00E8B5" fill-rule="nonzero"><g id="icon-easy" transform="translate(265.000000, 4011.000000)"><path d="M62.3347929,36.7087179 C60.5312229,33.8983629 57.9902367,31.6495266 54.9865878,30.2056213 C54.2991519,29.8750888 53.4742012,30.1644773 53.1439448,30.8517751 C52.8135503,31.539073 53.1028008,32.3638856 53.7900986,32.6942801 C59.024359,35.2104142 62.4063116,40.5866075 62.4063116,46.3906706 C62.4063116,48.8742209 61.7941223,51.3371992 60.6361538,53.5136884 C60.2780079,54.1867653 60.5332939,55.0228994 61.2065089,55.3810454 C61.4130572,55.4909467 61.635069,55.5431361 61.8537673,55.5431361 C62.3477712,55.5431361 62.8256213,55.2772189 63.0738659,54.8106903 C64.4436292,52.236568 65.1676529,49.3248718 65.1676529,46.3906706 C65.1676529,42.9445168 64.1880671,39.5965286 62.3347929,36.7087179 Z" id="Path"></path><path d="M49.38286,28.4420907 L49.2899408,28.4419527 C48.5275345,28.4419527 47.9092702,29.0600789 47.9092702,29.8226233 C47.9092702,30.5851677 48.5275345,31.2032939 49.2899408,31.2032939 L49.3698817,31.203432 C49.3720907,31.203432 49.3741617,31.203432 49.3765089,31.203432 C50.1360158,31.203432 50.7534517,30.5895858 50.7570559,29.8292505 C50.7604931,29.0667061 50.1452663,28.4456805 49.38286,28.4420907 Z" id="Path"></path><path d="M40.6479093,60.0870611 C35.413787,57.570789 32.0318343,52.1945957 32.0318343,46.3906706 C32.0318343,43.9071203 32.6440237,41.444142 33.8019921,39.2676529 C34.1601381,38.5945759 33.9048521,37.7584418 33.2316371,37.4002959 C32.5586982,37.0421499 31.722288,37.2974359 31.3642801,37.9706509 C29.9945168,40.5449112 29.2704931,43.4564694 29.2704931,46.3906706 C29.2704931,49.8368245 30.2500789,53.1846746 32.1033531,56.0726233 C33.9069231,58.8829783 36.4479093,61.1318146 39.4515582,62.575858 C39.6444379,62.6686391 39.8482249,62.7124063 40.0488363,62.7124063 C40.562998,62.7124063 41.0564497,62.4239842 41.2942012,61.9297041 C41.6243195,61.2424063 41.3352071,60.4174556 40.6479093,60.0870611 Z" id="Path"></path><path d="M45.1482051,61.5780473 L45.0682643,61.5777689 C44.3022682,61.5763905 43.6848323,62.1892702 43.681365,62.9519527 C43.6777909,63.714497 44.2932939,64.3355227 45.0557002,64.3391124 L45.1482051,64.3393886 C45.9106114,64.3393886 46.5288757,63.7211243 46.5288757,62.9587179 C46.5288757,62.1963116 45.9106114,61.5780473 45.1482051,61.5780473 Z" id="Path"></path><path d="M53.4884221,23.7707298 C53.3203945,23.3703353 53.1145365,22.992998 52.8749901,22.642998 L56.469428,22.642998 C59.9713609,22.642998 62.8205128,19.7938462 62.8205128,16.2919132 C62.8205128,12.7899803 59.9713609,9.9408284 56.469428,9.9408284 L45.4130178,9.9408284 C46.1159172,8.91885602 46.5285996,7.68246548 46.5285996,6.35108481 C46.5285996,2.84915187 43.6794477,0 40.1775148,0 L6.35108481,0 C2.84915187,0 0,2.84915187 0,6.35108481 C0,9.85301775 2.84915187,12.7021696 6.35108481,12.7021696 L17.4074951,12.7021696 C16.7045957,13.724142 16.2919132,14.9605325 16.2919132,16.2919132 C16.2919132,17.6232939 16.7044576,18.8596844 17.4074951,19.8816568 L13.8067061,19.8816568 C10.3047732,19.8816568 7.4556213,22.7308087 7.4556213,26.2327416 C7.4556213,28.2439645 8.39641026,30.0386982 9.86005917,31.2031558 C8.39641026,32.3676134 7.4556213,34.1623471 7.4556213,36.17357 C7.4556213,38.1847929 8.39641026,39.9795266 9.86005917,41.1439842 C8.39641026,42.3084418 7.4556213,44.1031755 7.4556213,46.1143984 C7.4556213,48.1256213 8.39641026,49.920355 9.86005917,51.0848126 C8.39641026,52.2492702 7.4556213,54.0440039 7.4556213,56.0552268 C7.4556213,59.5571598 10.3047732,62.4063116 13.8067061,62.4063116 L30.0779093,62.4063116 C34.3643393,66.9911045 40.4622091,69.862071 47.219073,69.862071 C60.1612032,69.862071 70.6904734,59.3328008 70.6904734,46.3906706 C70.6904734,35.6190927 63.3963905,26.5203353 53.4884221,23.7707298 Z M56.469428,12.7021696 C58.4488955,12.7021696 60.0591716,14.3125838 60.0591716,16.2919132 C60.0591716,18.2712426 58.4488955,19.8816568 56.469428,19.8816568 L47.6331361,19.8816568 L22.642998,19.8816568 C20.6635306,19.8816568 19.0532544,18.2712426 19.0532544,16.2919132 C19.0532544,14.3125838 20.6635306,12.7021696 22.642998,12.7021696 L56.469428,12.7021696 Z M6.35108481,9.9408284 C4.37161736,9.9408284 2.76134122,8.3304142 2.76134122,6.35108481 C2.76134122,4.37175542 4.37161736,2.76134122 6.35108481,2.76134122 L40.1775148,2.76134122 C42.1569822,2.76134122 43.7672584,4.37175542 43.7672584,6.35108481 C43.7672584,8.3304142 42.1569822,9.9408284 40.1775148,9.9408284 L6.35108481,9.9408284 Z M13.8067061,22.642998 L47.6331361,22.642998 C48.1892702,22.642998 48.7217949,22.7722288 49.1995069,23.0036292 C48.5464497,22.9488166 47.886213,22.9192702 47.219073,22.9192702 C40.7375148,22.9192702 34.8613807,25.560355 30.6097436,29.8224852 L13.8067061,29.8224852 C11.8273767,29.8224852 10.2169625,28.212071 10.2169625,26.2327416 C10.2169625,24.2534122 11.8273767,22.642998 13.8067061,22.642998 Z M13.8067061,32.5838264 L28.2505917,32.5838264 C26.6832544,34.7311834 25.4714398,37.1531558 24.701854,39.7633136 L13.8067061,39.7633136 C11.8272387,39.7633136 10.2169625,38.1530375 10.2169625,36.17357 C10.2169625,34.1942406 11.8272387,32.5838264 13.8067061,32.5838264 Z M13.8067061,42.5246548 L24.0678501,42.5246548 C23.8584024,43.78286 23.7476726,45.073925 23.7476726,46.3906706 C23.7476726,47.5153649 23.8289941,48.6212821 23.9826627,49.704142 L13.8067061,49.704142 C11.8272387,49.704142 10.2169625,48.0938659 10.2169625,46.1143984 C10.2169625,44.134931 11.8272387,42.5246548 13.8067061,42.5246548 Z M13.8067061,59.6449704 C11.8272387,59.6449704 10.2169625,58.0346943 10.2169625,56.0552268 C10.2169625,54.0757594 11.8272387,52.4654832 13.8067061,52.4654832 L24.5463905,52.4654832 C25.2430769,55.0629389 26.3748126,57.4836686 27.8590335,59.6449704 L13.8067061,59.6449704 Z M47.219073,67.1007298 C35.7995464,67.1007298 26.5090138,57.8101972 26.5090138,46.3906706 C26.5090138,34.971144 35.7995464,25.6806114 47.219073,25.6806114 C58.6385996,25.6806114 67.9291321,34.971144 67.9291321,46.3906706 C67.9291321,57.8101972 58.6385996,67.1007298 47.219073,67.1007298 Z" id="Shape"></path></g></g></g></svg>