<svg xmlns="http://www.w3.org/2000/svg" xmlns:xlink="http://www.w3.org/1999/xlink" width="70px" height="70px" viewBox="0 0 70 70"><title>icon-frictionless-exper-2</title><desc>Created with Sketch.</desc><g id="Page-1" stroke="none" stroke-width="1" fill="none" fill-rule="evenodd"><g id="TomoX9" transform="translate(-1005.000000, -10064.000000)" fill="#00E8B5" fill-rule="nonzero"><g id="icon-frictionless-exper-2" transform="translate(1005.000000, 10064.000000)"><path d="M34.853637,23.0580913 C28.2582787,23.0580913 22.9117285,28.4046416 22.9117285,34.9999998 C22.9117285,41.595358 28.2582787,46.9419083 34.853637,46.9419083 C41.4489953,46.9419083 46.7955455,41.595358 46.7955455,34.9999998 C46.7882568,28.407557 41.4460797,23.0653801 34.853637,23.0580913 Z M34.853637,44.9515902 C29.3574242,44.9515902 24.9020466,40.4962127 24.9020466,34.9999998 C24.9020466,29.5037869 29.3574242,25.0484094 34.853637,25.0484094 C40.3498498,25.0484094 44.8052275,29.5037869 44.8052275,34.9999998 C44.7989104,40.493783 40.3474202,44.9457592 34.853637,44.9515902 Z" id="Shape"></path><path d="M54.6046746,43.1327801 L58.2064478,43.1327801 C58.8026777,46.0549307 61.5149281,48.050684 64.4818951,47.7505835 C67.4488622,47.4510503 69.7072744,44.9532384 69.7072744,41.9709544 C69.7072744,38.9886703 67.4488622,36.4908584 64.4818951,36.1913252 C61.5149281,35.8912248 58.8026777,37.886978 58.2064478,40.8091286 L55.7665003,40.8091286 L55.7665003,35 C55.7665003,34.3583862 55.2462882,33.8381743 54.6046746,33.8381743 L52.2214568,33.8381743 C51.9650382,29.956156 50.4100752,26.2726919 47.806746,23.3817427 L55.8827963,23.3817427 C56.4790263,26.3038933 59.1912766,28.2996466 62.1582436,27.9995462 C65.1252107,27.700013 67.3836229,25.2022011 67.3836229,22.219917 C67.3836229,19.2376329 65.1252107,16.7398211 62.1582436,16.4402879 C59.1912766,16.1401874 56.4790263,18.1359407 55.8827963,21.0580913 L45.3100688,21.0580913 L45.3100688,21.0904272 C44.9333831,20.8073458 44.5476207,20.5361774 44.1482431,20.2774896 L44.1482431,17.5726141 L51.1191974,17.5726141 C51.760811,17.5726141 52.2810232,17.0524021 52.2810232,16.4107884 L52.2810232,7.11618257 L58.2064478,7.11618257 C58.8026777,10.0383332 61.5149281,12.0340865 64.4818951,11.733986 C67.4488622,11.4344528 69.7072744,8.93664091 69.7072744,5.95435685 C69.7072744,2.97207278 67.4488622,0.474260892 64.4818951,0.174727697 C61.5149281,-0.125372759 58.8026777,1.87038054 58.2064478,4.79253112 L51.1191974,4.79253112 C50.4775837,4.79253112 49.9573717,5.31274309 49.9573717,5.95435685 L49.9573717,15.2489627 L42.9864173,15.2489627 C42.3448036,15.2489627 41.8245916,15.7691746 41.8245916,16.4107884 L41.8245916,19.0379441 C39.6274474,18.0718361 37.2538738,17.5726141 34.8536373,17.5726141 C34.4610671,17.5726141 34.077574,17.6060847 33.6918115,17.6316131 L33.6918115,7.11618257 L34.9699333,7.11618257 C35.5661632,10.0383332 38.2784135,12.0340865 41.2453805,11.733986 C44.2123477,11.4344528 46.4707599,8.93664091 46.4707599,5.95435685 C46.4707599,2.97207278 44.2123477,0.474260892 41.2453805,0.174727697 C38.2784135,-0.125372759 35.5661632,1.87038054 34.9699333,4.79253112 L32.5299858,4.79253112 C31.8883721,4.79253112 31.3681601,5.31274309 31.3681601,5.95435685 L31.3681601,17.920935 C30.9733209,18.0014912 30.5909621,18.111547 30.2063344,18.2187662 L30.2063344,15.2489627 C30.2063344,14.6073489 29.6861222,14.0871369 29.0445086,14.0871369 L20.9117285,14.0871369 L20.9117285,5.95435685 C20.9117285,5.31274309 20.3915164,4.79253112 19.7499028,4.79253112 L11.5008266,4.79253112 C10.9045968,1.87038054 8.19234631,-0.125372759 5.22537932,0.174727697 C2.25841218,0.474260892 1.42108547e-13,2.97207278 1.42108547e-13,5.95435685 C1.42108547e-13,8.93664091 2.25841218,11.4344528 5.22537932,11.733986 C8.19234631,12.0340865 10.9045968,10.0383332 11.5008266,7.11618257 L18.5880771,7.11618257 L18.5880771,15.2489627 C18.5880771,15.8905764 19.1082891,16.4107884 19.7499028,16.4107884 L27.8826829,16.4107884 L27.8826829,19.0379441 C23.4725104,20.9781023 20.0573781,24.6513551 18.4428489,29.1908714 L9.29347129,29.1908714 L9.29347129,27.9127496 C12.2156217,27.3165197 14.2108078,24.6042694 13.9112746,21.6373022 C13.6117414,18.6703352 11.1139296,16.4119229 8.13164556,16.4119229 C5.14936135,16.4119229 2.65154946,18.6703352 2.35201627,21.6373022 C2.05191581,24.6042694 4.04766925,27.3165197 6.96981983,27.9127496 L6.96981983,30.3526971 C6.96981983,30.9943109 7.4900318,31.5145228 8.13164556,31.5145228 L17.7745721,31.5145228 C17.6259402,32.2815093 17.5283648,33.0581399 17.482981,33.8381743 L15.1025999,33.8381743 C14.4609862,33.8381743 13.9407742,34.3583862 13.9407742,35 L13.9407742,40.8091286 L11.5008266,40.8091286 C10.9045968,37.886978 8.19234631,35.8912248 5.22537932,36.1913252 C2.25841218,36.4908584 1.42108547e-13,38.9886703 1.42108547e-13,41.9709544 C1.42108547e-13,44.9532384 2.25841218,47.4510503 5.22537932,47.7505835 C8.19234631,48.050684 10.9045968,46.0549307 11.5008266,43.1327801 L15.1025999,43.1327801 C15.7442135,43.1327801 16.2644256,42.6125681 16.2644256,41.9709544 L16.2644256,36.1618257 L17.4852503,36.1618257 C17.7416688,40.043844 19.2971992,43.7273081 21.9005284,46.6182573 L18.5880771,46.6182573 C17.9464633,46.6182573 17.4262514,47.1384692 17.4262514,47.780083 L17.4262514,62.8838174 L11.5008266,62.8838174 C10.9045968,59.9616668 8.19234631,57.9659135 5.22537932,58.266014 C2.25841218,58.5655472 1.42108547e-13,61.0633591 1.42108547e-13,64.0456432 C1.42108547e-13,67.0279272 2.25841218,69.5257391 5.22537932,69.8252723 C8.19234631,70.1253728 10.9045968,68.1296195 11.5008266,65.2074689 L18.5880771,65.2074689 C19.2296907,65.2074689 19.7499028,64.6872569 19.7499028,64.0456432 L19.7499028,48.9419087 L24.3972057,48.9419087 L24.3972057,48.9095728 C27.4055854,51.1912441 31.0777037,52.4262514 34.8536373,52.4273859 L34.8536373,53.5892116 L31.3681601,53.5892116 C30.7265463,53.5892116 30.2063344,54.1094236 30.2063344,54.7510373 L30.2063344,58.3528105 C27.2841838,58.9490405 25.2884303,61.6612908 25.5885308,64.6282579 C25.888064,67.5952249 28.3858759,69.8536373 31.3681601,69.8536373 C34.3504441,69.8536373 36.8482559,67.5952249 37.1477891,64.6282579 C37.4473223,61.6612908 35.4521362,58.9490405 32.5299858,58.3528105 L32.5299858,55.9128631 L36.015463,55.9128631 C36.6570766,55.9128631 37.1772887,55.3926511 37.1772887,54.7510373 L37.1772887,52.2543601 C40.1306406,51.8572517 42.9319568,50.70507 45.3100688,48.9095728 L45.3100688,48.9419087 L48.795546,48.9419087 L48.795546,64.0456432 C48.795546,64.6872569 49.3157579,65.2074689 49.9573717,65.2074689 L58.2064478,65.2074689 C58.8026777,68.1296195 61.5149281,70.1253728 64.4818951,69.8252723 C67.4488622,69.5257391 69.7072744,67.0279272 69.7072744,64.0456432 C69.7072744,61.0633591 67.4488622,58.5655472 64.4818951,58.266014 C61.5149281,57.9659135 58.8026777,59.9616668 58.2064478,62.8838174 L51.1191974,62.8838174 L51.1191974,47.780083 C51.1191974,47.1384692 50.5989853,46.6182573 49.9573717,46.6182573 L47.806746,46.6182573 C50.4100752,43.7273081 51.9650382,40.043844 52.2214568,36.1618257 L53.4428489,36.1618257 L53.4428489,41.9709544 C53.4428489,42.6125681 53.9630609,43.1327801 54.6046746,43.1327801 L54.6046746,43.1327801 Z M63.8992804,38.4854772 C65.8241215,38.4854772 67.3847576,40.0461132 67.3847576,41.9709544 C67.3847576,43.8957955 65.8241215,45.4564315 63.8992804,45.4564315 C61.9744391,45.4564315 60.4138032,43.8957955 60.4138032,41.9709544 C60.4138032,40.0461132 61.9744391,38.4854772 63.8992804,38.4854772 Z M61.575629,18.7344398 C63.5004701,18.7344398 65.0611061,20.2950759 65.0611061,22.219917 C65.0611061,24.1447581 63.5004701,25.7053942 61.575629,25.7053942 C59.6507877,25.7053942 58.0901518,24.1447581 58.0901518,22.219917 C58.0901518,20.2950759 59.6507877,18.7344398 61.575629,18.7344398 Z M63.8992804,2.46887967 C65.8241215,2.46887967 67.3847576,4.02951573 67.3847576,5.95435685 C67.3847576,7.87919797 65.8241215,9.43983402 63.8992804,9.43983402 C61.9744391,9.43983402 60.4138032,7.87919797 60.4138032,5.95435685 C60.4138032,4.02951573 61.9744391,2.46887967 63.8992804,2.46887967 Z M40.6627659,2.46887967 C42.587607,2.46887967 44.1482431,4.02951573 44.1482431,5.95435685 C44.1482431,7.87919797 42.587607,9.43983402 40.6627659,9.43983402 C38.7379246,9.43983402 37.1772887,7.87919797 37.1772887,5.95435685 C37.1772887,4.02951573 38.7379246,2.46887967 40.6627659,2.46887967 Z M5.80799411,9.43983402 C3.88315284,9.43983402 2.32251693,7.87919797 2.32251693,5.95435685 C2.32251693,4.02951573 3.88315284,2.46887967 5.80799411,2.46887967 C7.73283523,2.46887967 9.29347129,4.02951573 9.29347129,5.95435685 C9.29347129,7.87919797 7.73283523,9.43983402 5.80799411,9.43983402 Z M4.64616838,22.219917 C4.64616838,20.2950759 6.20680429,18.7344398 8.13164556,18.7344398 C10.0564867,18.7344398 11.6171227,20.2950759 11.6171227,22.219917 C11.6171227,24.1447581 10.0564867,25.7053942 8.13164556,25.7053942 C6.20680429,25.7053942 4.64616838,24.1447581 4.64616838,22.219917 Z M5.80799411,45.4564315 C3.88315284,45.4564315 2.32251693,43.8957955 2.32251693,41.9709544 C2.32251693,40.0461132 3.88315284,38.4854772 5.80799411,38.4854772 C7.73283523,38.4854772 9.29347129,40.0461132 9.29347129,41.9709544 C9.29347129,43.8957955 7.73283523,45.4564315 5.80799411,45.4564315 Z M5.80799411,67.5311203 C3.88315284,67.5311203 2.32251693,65.9704843 2.32251693,64.0456432 C2.32251693,62.120802 3.88315284,60.560166 5.80799411,60.560166 C7.73283523,60.560166 9.29347129,62.120802 9.29347129,64.0456432 C9.29347129,65.9704843 7.73283523,67.5311203 5.80799411,67.5311203 Z M34.8536373,64.0456432 C34.8536373,65.9704843 33.2930012,67.5311203 31.3681601,67.5311203 C29.4433188,67.5311203 27.8826829,65.9704843 27.8826829,64.0456432 C27.8826829,62.120802 29.4433188,60.560166 31.3681601,60.560166 C33.2930012,60.560166 34.8536373,62.120802 34.8536373,64.0456432 Z M63.8992804,60.560166 C65.8241215,60.560166 67.3847576,62.120802 67.3847576,64.0456432 C67.3847576,65.9704843 65.8241215,67.5311203 63.8992804,67.5311203 C61.9744391,67.5311203 60.4138032,65.9704843 60.4138032,64.0456432 C60.4138032,62.120802 61.9744391,60.560166 63.8992804,60.560166 Z M34.8536373,50.1037344 C26.5120916,50.1037344 19.7499028,43.3415456 19.7499028,35 C19.7499028,26.6584544 26.5120916,19.8962656 34.8536373,19.8962656 C43.1951829,19.8962656 49.9573717,26.6584544 49.9573717,35 C49.9477275,43.3375745 43.1912118,50.0940904 34.8536373,50.1037344 Z" id="Shape"></path></g></g></g></svg>