<svg xmlns="http://www.w3.org/2000/svg" xmlns:xlink="http://www.w3.org/1999/xlink" width="250px" height="172px" viewBox="0 0 250 172"><title>icon-staking-nodes</title><desc>Created with Sketch.</desc><defs><rect id="path-1" x="66" y="32" width="132" height="110"></rect><filter x="-34.1%" y="-40.9%" width="168.2%" height="181.8%" filterUnits="objectBoundingBox" id="filter-2"><feGaussianBlur stdDeviation="10"></feGaussianBlur></filter></defs><g id="Page-1" stroke="none" stroke-width="1" fill="none" fill-rule="evenodd"><g id="Staking-2-Copy" transform="translate(-606.000000, -2516.000000)"><g id="icon-staking-nodes" transform="translate(606.000000, 2516.000000)"><rect id="Rectangle-Copy-13" fill="#00E8B5" opacity="0.1" x="183" y="103" width="67" height="51"></rect><rect id="Rectangle-Copy-14" fill="#00E8B5" x="0" y="111" width="100" height="56"></rect><g id="Shape-3" transform="translate(206.000000, 115.000000)" fill="#00E8B5" fill-rule="nonzero" stroke="#00E8B5" stroke-width="0.4"><path d="M22.0902842,5.39628582 L17.5986085,9.88796146 C18.092522,10.5811028 18.3636364,11.4069489 18.3636364,12.2727273 C18.3636364,13.1384783 18.0925435,13.9643325 17.5985703,14.6579458 L21.1352997,18.1946751 C21.4340317,18.0441253 21.7571144,17.9636364 22.0909091,17.9636364 C23.2843115,17.9636364 24.2545455,18.9338703 24.2545455,20.1272727 C24.2545455,21.3206751 23.2843115,22.2909091 22.0909091,22.2909091 C20.8975067,22.2909091 19.9272727,21.3206751 19.9272727,20.1272727 C19.9272727,19.7932702 20.0078589,19.470107 20.1587438,19.1711137 L16.6220565,15.6344265 C16.1183932,15.9928158 15.5414176,16.2342369 14.9277636,16.3382644 L14.9277636,20.9888829 C16.3461504,21.3080575 17.3823091,22.5739756 17.3823091,24.0545455 C17.3823091,25.7894206 15.9717297,27.2 14.2368545,27.2 C12.5019794,27.2 11.0914,25.7894206 11.0914,24.0545455 C11.0914,22.5735142 12.1275542,21.3075629 13.5459455,20.9888293 L13.5459455,16.3382644 C12.9322915,16.2342369 12.3553159,15.9928158 11.8516518,15.6344273 L5.77897478,21.7071043 C5.98310785,22.1292415 6.09090909,22.5934524 6.09090909,23.0727273 C6.09090909,24.8076024 4.68032968,26.2181818 2.94545455,26.2181818 C1.21057941,26.2181818 -0.2,24.8076024 -0.2,23.0727273 C-0.2,21.3378521 1.21057941,19.9272727 2.94545455,19.9272727 C3.6695996,19.9272727 4.35622244,20.1763142 4.91015009,20.6219423 L10.8741228,14.6574987 C10.3802067,13.9643562 10.1090909,13.138508 10.1090909,12.2727273 C10.1090909,11.4069763 10.3801838,10.5811221 10.8741569,9.88750875 L7.33742762,6.35077942 C7.03869555,6.50132924 6.71561284,6.58181818 6.38181818,6.58181818 C5.18841578,6.58181818 4.21818182,5.61158422 4.21818182,4.41818182 C4.21818182,3.22477941 5.18841578,2.25454545 6.38181818,2.25454545 C7.57522059,2.25454545 8.54545455,3.22477941 8.54545455,4.41818182 C8.54545455,4.75197648 8.4649656,5.07505919 8.31441578,5.37379125 L11.8511451,8.91052058 C12.5447584,8.41654744 13.3706126,8.14545455 14.2363636,8.14545455 C15.1023229,8.14545455 15.9281793,8.41667856 16.621183,8.91091978 L21.2210252,4.31107752 C21.0168922,3.8889403 20.9090909,3.42472941 20.9090909,2.94545455 C20.9090909,1.21057941 22.3196703,-0.2 24.0545455,-0.2 C25.7894206,-0.2 27.2,1.21057941 27.2,2.94545455 C27.2,4.68032968 25.7894206,6.09090909 24.0545455,6.09090909 C23.3303796,6.09090909 22.6437692,5.84184896 22.0902842,5.39628582 Z M5.6,4.41818182 C5.6,4.8491976 5.9508024,5.2 6.38181818,5.2 C6.81283396,5.2 7.16363636,4.8491976 7.16363636,4.41818182 C7.16363636,3.98716604 6.81283396,3.63636364 6.38181818,3.63636364 C5.9508024,3.63636364 5.6,3.98716604 5.6,4.41818182 Z M2.94545455,24.8363636 C3.91794305,24.8363636 4.70909091,24.0452158 4.70909091,23.0727273 C4.70909091,22.1002388 3.91794305,21.3090909 2.94545455,21.3090909 C1.97296604,21.3090909 1.18181818,22.1002388 1.18181818,23.0727273 C1.18181818,24.0452158 1.97296604,24.8363636 2.94545455,24.8363636 Z M16,24.0545455 C16,23.0820569 15.2088521,22.2909091 14.2363636,22.2909091 C13.2638751,22.2909091 12.4727273,23.0820569 12.4727273,24.0545455 C12.4727273,25.027034 13.2638751,25.8181818 14.2363636,25.8181818 C15.2088521,25.8181818 16,25.027034 16,24.0545455 Z M14.2363636,15.0181818 C15.7503249,15.0181818 16.9818182,13.7866885 16.9818182,12.2727273 C16.9818182,10.758766 15.7503249,9.52727273 14.2363636,9.52727273 C12.7224024,9.52727273 11.4909091,10.758766 11.4909091,12.2727273 C11.4909091,13.7866885 12.7224024,15.0181818 14.2363636,15.0181818 Z M22.8727273,20.1272727 C22.8727273,19.6962569 22.5219249,19.3454545 22.0909091,19.3454545 C21.6598933,19.3454545 21.3090909,19.6962569 21.3090909,20.1272727 C21.3090909,20.5582885 21.6598933,20.9090909 22.0909091,20.9090909 C22.5219249,20.9090909 22.8727273,20.5582885 22.8727273,20.1272727 Z M24.0545455,4.70909091 C25.027034,4.70909091 25.8181818,3.91794305 25.8181818,2.94545455 C25.8181818,1.97296604 25.027034,1.18181818 24.0545455,1.18181818 C23.0820569,1.18181818 22.2909091,1.97296604 22.2909091,2.94545455 C22.2909091,3.91794305 23.0820569,4.70909091 24.0545455,4.70909091 Z" id="Shape"></path></g><g id="Rectangle-Copy"><use fill="black" fill-opacity="1" filter="url(#filter-2)" xlink:href="#path-1"></use><use fill="#FFFFFF" fill-rule="evenodd" xlink:href="#path-1"></use></g><polygon id="Rectangle-Copy-15" fill="#EDEEF5" points="198 32 198 142 106 142"></polygon><path d="M195,0 L204,0 C219.463973,-2.84068575e-15 232,12.536027 232,28 C232,43.463973 219.463973,56 204,56 L165,56 L165,56 L165,30 C165,13.4314575 178.431458,3.04359188e-15 195,0 Z" id="Rectangle-Copy-12" fill="#242828"></path><text id="150" font-family="NunitoSans-ExtraBold, Nunito Sans" font-size="40" font-weight="600" fill="#242828"><tspan x="98" y="102">150</tspan></text><g id="Shape-2" transform="translate(186.000000, 16.000000)" fill="#FFFFFF" fill-rule="nonzero"><path d="M0.739192766,20.0256379 L11.2203626,24.8773291 C11.5672067,25.0434761 11.9747236,25.0405267 12.3195454,24.8704472 C12.3195454,24.8704472 12.3286465,24.8792952 12.3337024,24.8773291 L22.8148721,20.0256379 C23.2658709,19.8172167 23.5530537,19.3748131 23.5530537,18.8901356 L23.5530537,12.4998636 C23.5530537,11.8047988 22.9736316,11.2414716 22.2587076,11.2414716 C21.5437838,11.2414716 20.9643615,11.8047988 20.9643615,12.4998636 L20.9643615,18.0957756 L13.0708729,21.749045 L13.0708729,11.7585922 L22.8138609,7.24705993 C23.4600228,6.94917513 23.73406,6.19807239 23.4266528,5.56985943 C23.3305882,5.38503311 23.1880077,5.2277341 23.0130688,5.11074291 C22.95543,5.05372214 22.887679,5.0075155 22.8128498,4.97507264 L12.3316799,0.122398382 C11.9797796,-0.0407994605 11.5712516,-0.0407994605 11.2193512,0.122398382 L0.738181623,4.97507264 C0.71998001,4.98588701 0.701778139,4.99768418 0.68458767,5.01046492 C0.659307279,5.02422845 0.629982315,5.03111035 0.60369104,5.04684025 C0.228532851,5.27689017 0,5.67898568 0,6.11057489 L0,18.8901356 C0.00101114316,19.3748131 0.288194181,19.8172167 0.739192766,20.0256379 Z M2.58970332,8.1043395 L10.4821808,11.7576091 L10.4821808,21.7480619 L2.58970332,18.0947926 L2.58970332,8.1043395 Z M11.7765268,2.65294597 L19.2473307,6.11155794 L11.7765268,9.5691866 L4.30572302,6.11057489 L11.7765268,2.65294597 Z" id="Shape"></path></g><g id="vote" transform="translate(22.000000, 121.000000)" fill="#FFFFFF" fill-rule="nonzero"><path d="M32.0332031,13.5975048 L26.9451445,13.5975048 L30.1901016,11.7238426 C30.6541641,11.4558819 30.811752,10.8609795 30.5412422,10.3983492 L24.7404609,0.478904165 C24.4731094,0.0216885566 23.8876172,-0.135271828 23.4273574,0.126887467 L6.68191992,9.66698476 C6.21624609,9.9323026 6.05524219,10.5264315 6.32323828,10.9906088 L7.8281543,13.5975048 L0.966796875,13.5975048 C0.432867188,13.5975048 0,14.030419 0,14.5644066 L0,32.0330982 C0,32.5670859 0.432867188,33 0.966796875,33 L32.0332031,33 C32.5671328,33 33,32.5670859 33,32.0330982 L33,14.5644066 C33,14.030419 32.5671328,13.5975048 32.0332031,13.5975048 Z M23.5538789,2.28037105 L28.3812891,10.535327 L16.3797305,17.4651118 L12.2935313,17.4651118 L8.48396484,10.8659429 L23.5538789,2.28037105 Z M31.0664063,31.0661965 L1.93359375,31.0661965 L1.93359375,23.2665224 L31.0664063,23.2665224 L31.0664063,31.0661965 Z M31.0664063,21.3327189 L1.93359375,21.3327189 L1.93359375,15.5313083 L8.94454688,15.5313083 L10.060875,17.4651118 L6.83203125,17.4651118 C6.29810156,17.4651118 5.86523438,17.898026 5.86523438,18.4320136 C5.86523438,18.9660012 6.29810156,19.3989154 6.83203125,19.3989154 C6.96660938,19.3989154 25.7423203,19.3989154 26.1679688,19.3989154 C26.7018984,19.3989154 27.1347656,18.9660012 27.1347656,18.4320136 C27.1347656,17.898026 26.7018984,17.4651118 26.1679688,17.4651118 L20.2469824,17.4651118 L23.5960957,15.5313083 L31.0664063,15.5313083 L31.0664063,21.3327189 Z" id="Shape"></path><path d="M20.5978409,5.91398091 C20.0854452,5.75381868 19.5318544,6.01346359 19.3610776,6.49370586 L17.9058894,10.5863672 L17.0690829,9.8018717 C16.6873119,9.44390515 16.0682133,9.44390515 15.6863771,9.8018717 C15.304541,10.1598383 15.304541,10.7401743 15.6863771,11.0981408 L17.6418371,12.9313598 C18.1559928,13.4133742 19.0313218,13.2183197 19.2607625,12.5730877 L21.2162225,7.0734308 C21.3869993,6.59318854 21.1101062,6.07408203 20.5978409,5.91398091 Z" id="Path"></path></g></g></g></g></svg>