<svg xmlns="http://www.w3.org/2000/svg" xmlns:xlink="http://www.w3.org/1999/xlink" width="95px" height="70px" viewBox="0 0 95 70"><title>icon-tomoz-integration</title><desc>Created with Sketch.</desc><defs><polygon id="path-1" points="0 0.0894674556 94.2947633 0.0894674556 94.2947633 43.6786331 0 43.6786331"></polygon><polygon id="path-3" points="0.159840237 0.0327633136 51.4721183 0.0327633136 51.4721183 22.3668639 0.159840237 22.3668639"></polygon></defs><g id="Page-1" stroke="none" stroke-width="1" fill="none" fill-rule="evenodd"><g id="TomoP2" transform="translate(-165.000000, -3562.000000)"><g id="icon-tomoz-integration" transform="translate(165.000000, 3562.000000)"><g id="Group-3" transform="translate(0.000000, 0.117426)"><mask id="mask-2" fill="white"><use xlink:href="#path-1"></use></mask><g id="Clip-2"></g><path d="M47.1472574,40.5721243 C37.5065178,40.5721243 28.0809556,40.1189882 19.3052751,39.256 L21.516074,32.6213254 C24.4374349,32.8793728 27.4387367,33.0970355 30.4595059,33.2637515 C30.4885,33.2654083 30.5177012,33.2662367 30.5469024,33.2662367 C31.365571,33.2662367 32.0506598,32.6262959 32.0960148,31.7987219 C32.143855,30.9427751 31.4877604,30.2098462 30.6309852,30.1620059 C27.8974645,30.0108225 25.1815473,29.8173905 22.5265178,29.5910296 L30.1650089,6.67472781 C30.9747722,4.24605917 33.4777899,2.79242012 35.9888846,3.29463905 L44.5632633,5.00984615 C46.277642,5.35280473 48.0160444,5.35280473 49.7304231,5.00984615 L58.3048018,3.29463905 C60.8158964,2.79324852 63.3189142,4.24605917 64.1286775,6.67472781 L71.109003,27.6053491 C71.1150089,27.6254379 71.1191509,27.6455266 71.125571,27.6656154 L71.7671686,29.5910296 C69.1135888,29.8173905 66.3978787,30.0108225 63.664358,30.1620059 C62.8075828,30.2098462 62.1514882,30.9427751 62.1993284,31.7987219 C62.2444763,32.6262959 62.9297722,33.2662367 63.7484408,33.2662367 C63.777642,33.2662367 63.8066361,33.2654083 63.8358373,33.2637515 C66.8574349,33.0962071 69.8570799,32.8787515 72.7776124,32.620497 L74.9894467,39.256 C66.2127308,40.1189882 56.7871686,40.5721243 47.1472574,40.5721243 M94.2558077,37.3867101 C94.0648609,36.5502308 93.2323166,36.027716 92.3958373,36.2178343 C86.3754231,37.5898757 85.4519615,38.1080414 78.1533225,38.9233964 L74.5290621,28.051858 C74.5230562,28.0307337 74.5185,28.0096095 74.5114586,27.9886923 L67.075926,5.6926568 C65.7718136,1.78031953 61.7381154,-0.56012426 57.6957189,0.248810651 L49.1219615,1.96401775 C47.811429,2.226 46.4830858,2.226 45.1725533,1.96401775 L36.5987959,0.248810651 C32.5547426,-0.559295858 28.5227012,1.78031953 27.2185888,5.6926568 L16.1411923,38.9233964 C8.84255325,38.1086627 7.91929882,37.5898757 1.89888462,36.2178343 C1.06302663,36.027716 0.229860947,36.5510592 0.0389142012,37.3867101 C-0.151204142,38.2231893 0.372346154,39.0557337 1.20882544,39.2466805 C15.4130266,42.4834556 27.9428195,43.6786331 47.1472574,43.6786331 C66.3516953,43.6786331 78.881074,42.4834556 93.0858964,39.2466805 C93.9223757,39.0557337 94.445926,38.2231893 94.2558077,37.3867101" id="Fill-1" fill="#00E8B5" mask="url(#mask-2)"></path></g><g id="Group-6" transform="translate(21.331361, 47.543462)"><mask id="mask-4" fill="white"><use xlink:href="#path-3"></use></mask><g id="Clip-5"></g><path d="M40.3050473,19.354213 C35.8101361,19.354213 32.1527396,15.6947456 32.1527396,11.1998343 C32.1527396,6.70492308 35.8101361,3.04545562 40.3050473,3.04545562 C44.8020296,3.04545562 48.459426,6.70492308 48.459426,11.1998343 C48.459426,15.6947456 44.8020296,19.354213 40.3050473,19.354213 M11.3269112,19.354213 C6.82992899,19.354213 3.17253254,15.6947456 3.17253254,11.1998343 C3.17253254,6.70492308 6.82992899,3.04545562 11.3269112,3.04545562 C15.8218225,3.04545562 19.4792189,6.70492308 19.4792189,11.1998343 C19.4792189,15.6947456 15.8218225,19.354213 11.3269112,19.354213 M40.3050473,0.0327633136 C35.7960533,0.0327633136 31.9056686,2.7219645 30.144071,6.57838462 C29.0114379,5.51595858 27.4890414,4.86297041 25.8158757,4.86297041 C24.1429172,4.86297041 22.6205207,5.51595858 21.4878876,6.57838462 C19.7262899,2.7219645 15.8361124,0.0327633136 11.3269112,0.0327633136 C5.16898225,0.0327633136 0.159840237,5.04190533 0.159840237,11.1998343 C0.159840237,17.3577633 5.16898225,22.3669053 11.3269112,22.3669053 C17.4829763,22.3669053 22.4919112,17.3577633 22.4919112,11.1998343 C22.4919112,9.36802959 23.9842781,7.87566272 25.8158757,7.87566272 C27.6476805,7.87566272 29.1400473,9.36802959 29.1400473,11.1998343 C29.1400473,17.3577633 34.1489822,22.3669053 40.3050473,22.3669053 C46.4629763,22.3669053 51.4721183,17.3577633 51.4721183,11.1998343 C51.4721183,5.04190533 46.4629763,0.0327633136 40.3050473,0.0327633136" id="Fill-4" fill="#00E8B5" mask="url(#mask-4)"></path></g><path d="M52.1330385,32.7226391 C52.9711746,30.7292959 53.4922396,28.2237929 53.6378314,25.5347988 L57.0953757,25.5347988 C56.6163521,28.6129349 54.7371213,31.2317219 52.1330385,32.7226391 L52.1330385,32.7226391 Z M37.2000503,25.5347988 L40.6567663,25.5347988 C40.802358,28.2237929 41.3234231,30.7292959 42.1621805,32.7226391 C39.5572692,31.2317219 37.6788669,28.6129349 37.2000503,25.5347988 L37.2000503,25.5347988 Z M42.1621805,15.2404497 C41.3234231,17.2337929 40.802358,19.7392959 40.6567663,22.4282899 L37.2000503,22.4282899 C37.6788669,19.3501538 39.5572692,16.7313669 42.1621805,15.2404497 L42.1621805,15.2404497 Z M43.7657604,22.4282899 C44.0884231,16.9061598 46.0801095,13.9137633 47.1472988,13.9137633 C48.2142811,13.9137633 50.2059675,16.9061598 50.5288373,22.4282899 L43.7657604,22.4282899 Z M47.1472988,34.0493254 C46.0801095,34.0493254 44.0884231,31.056929 43.7657604,25.5347988 L50.5288373,25.5347988 C50.2059675,31.056929 48.2142811,34.0493254 47.1472988,34.0493254 L47.1472988,34.0493254 Z M57.0945473,22.4282899 L53.6378314,22.4282899 C53.4922396,19.7392959 52.9711746,17.2337929 52.1322101,15.2404497 C54.7371213,16.7313669 56.6163521,19.3501538 57.0945473,22.4282899 L57.0945473,22.4282899 Z M47.1472988,10.8070473 C39.8834527,10.8070473 33.9728018,16.7176982 33.9728018,23.9815444 C33.9728018,31.2453905 39.8834527,37.1558343 47.1472988,37.1558343 C54.4119734,37.1558343 60.3215888,31.2453905 60.3215888,23.9815444 C60.3215888,16.7176982 54.4119734,10.8070473 47.1472988,10.8070473 L47.1472988,10.8070473 Z" id="Fill-7" fill="#00E8B5"></path></g></g></g></svg>