<svg xmlns="http://www.w3.org/2000/svg" xmlns:xlink="http://www.w3.org/1999/xlink" width="74px" height="70px" viewBox="0 0 74 70"><title>icon-customizable</title><desc>Created with Sketch.</desc><g id="Page-1" stroke="none" stroke-width="1" fill="none" fill-rule="evenodd"><g id="TomoX9" transform="translate(-603.000000, -8434.000000)" fill="#00E8B5" fill-rule="nonzero"><g id="icon-customizable" transform="translate(603.000000, 8434.000000)"><path d="M73.46036,57.7115952 C73.1150539,56.0496342 72.1380903,54.6296682 70.7091408,53.7127823 C69.2801913,52.7964579 67.5828575,52.5005614 65.9276341,52.8789945 L58.2567858,54.635283 L58.2567858,51.4994545 C59.7952226,50.0502919 61.3971061,48.158127 62.5363354,46.4287892 C64.5340573,43.3962717 65.9478472,40.0661737 66.7384016,36.5328221 C67.6783078,32.3290715 67.6985209,27.878834 66.7962334,23.6616081 C66.6300373,22.885652 65.865872,22.3904326 65.089916,22.5571901 C64.3133984,22.7228248 63.8193018,23.4869899 63.9849365,24.2635075 C64.8013186,28.0775956 64.7833515,32.1033592 63.9327194,35.905095 C63.2185253,39.0976321 61.9406122,42.1065676 60.1354755,44.8471188 C59.6003915,45.6595707 58.9513282,46.5118872 58.2567858,47.3260234 L58.2567858,31.3936569 C58.2567858,30.5997337 57.6133374,29.9562853 56.8194141,29.9562853 L45.4490182,29.9562853 L45.4490182,14.6067281 C45.4490182,13.8150507 44.8083771,13.1721638 44.0166999,13.1693564 L31.2089322,13.1261229 C31.2072478,13.1261229 31.2061249,13.1261229 31.2044405,13.1261229 C30.8237615,13.1261229 30.4588039,13.2765979 30.1898582,13.5455435 C29.9192281,13.8150507 29.7670688,14.1811313 29.7670688,14.5634945 L29.7670688,22.5482065 L18.3949884,22.5482065 C17.6016266,22.5482065 16.9576167,23.1916549 16.9576167,23.9855782 L16.9576167,38.219488 L13.754973,38.219488 L13.754973,36.2672452 C13.754973,35.4738835 13.1115246,34.830435 12.3176013,34.830435 L10.8431725,34.830435 C10.5921939,33.4486492 10.4467724,32.044966 10.4125224,30.6435286 C10.3283015,27.2359471 10.8684387,23.9019186 12.0172132,20.7329634 C12.2850359,19.9940644 12.5893545,19.2574114 12.9211852,18.5443403 C13.2563847,17.8245315 12.9442057,16.9694078 12.2249583,16.6342081 C11.5051495,16.3001316 10.6500257,16.6111877 10.3153876,17.3309966 C9.94762253,18.120428 9.61073854,18.9356872 9.31484222,19.7531923 C8.04366665,23.2595931 7.44625906,26.9479114 7.53834053,30.7142743 C7.57259051,32.0910068 7.7039752,33.4688623 7.92688021,34.830435 L1.43737166,34.830435 C0.643448337,34.830435 0,35.4738835 0,36.2678067 L0,61.5329825 C0,62.3269059 0.643448337,62.9703542 1.43737166,62.9703542 L12.3176013,62.9703542 C13.1115246,62.9703542 13.754973,62.3269059 13.754973,61.5329825 L13.754973,60.1663566 L19.161961,60.1663566 L41.0644731,68.756898 C43.109359,69.5592435 45.2513795,69.9629428 47.4046297,69.9629428 C48.8403169,69.9629428 50.2821804,69.7832714 51.7021465,69.422244 L68.8691927,65.0590349 C72.1279839,64.2308617 74.1442344,61.0035132 73.46036,57.7115952 L73.46036,57.7115952 Z M55.382604,32.8310286 L55.382604,55.2933297 L51.5398806,56.1731584 C51.1266362,56.267486 50.7089001,56.3421619 50.2889182,56.4005551 C48.6875962,56.6212141 47.0537089,56.5746117 45.4692313,56.2607481 C45.4624935,56.2590638 45.455756,56.2579408 45.4490182,56.2562563 L45.4490182,54.076617 C46.545014,52.4416068 46.9082873,50.3686473 46.3339001,48.4764822 C46.1738802,47.9486975 45.9464836,47.4394411 45.6573248,46.969488 C45.5916324,46.862808 45.5231328,46.758374 45.4518256,46.6561858 C45.4512642,46.6545014 45.4501412,46.6533785 45.4490182,46.651694 L45.4490182,32.8304671 L55.382604,32.8304671 L55.382604,32.8310286 Z M32.6418121,16.0059196 L42.5748364,16.0390465 L42.5748364,44.3687437 L37.0235498,42.0711947 L32.6418121,40.2570746 L32.6418121,16.0059196 Z M19.83236,25.4229499 L29.7653843,25.4229499 L29.7653843,39.0661896 L27.9827067,38.3284138 C27.8080885,38.2559837 27.6211177,38.2189264 27.4330243,38.2189264 L19.83236,38.2189264 L19.83236,25.4229499 Z M10.8802297,60.0956109 L2.87474333,60.0956109 L2.87474333,37.7046169 L9.65621799,37.7046169 C9.65902532,37.7046169 9.66239409,37.7051783 9.665763,37.7051783 C9.66857033,37.7051783 9.67081622,37.7046169 9.67362355,37.7046169 L10.8802297,37.7046169 L10.8802297,60.0956109 Z M68.1611749,62.2730044 L50.9941287,66.6362134 C48.0306725,67.3891492 44.959975,67.1965638 42.1138669,66.0809163 L19.9586916,57.390994 C19.7913725,57.3253015 19.6133855,57.2921747 19.4337141,57.2921747 L13.754973,57.2921747 L13.754973,41.0942313 L27.1466728,41.0942313 L36.4469167,44.9436923 L41.5361107,47.0503402 C43.3367556,47.7970996 44.1986172,49.9093621 43.4602798,51.7077611 C43.3120508,52.0687885 43.128449,52.4118487 42.8847697,52.7178516 C41.9847279,53.8537122 40.5029998,54.3545464 39.1172837,54.0176624 C39.1060543,54.0148549 39.0948248,54.0120476 39.0835953,54.0092402 C39.0004973,53.9884658 38.9179607,53.9643224 38.8359856,53.9373717 L29.164608,50.2192954 C29.0860017,50.1889759 29.0444526,50.1732546 29.0444526,50.1732546 C28.3038693,49.8880262 27.4723274,50.2580371 27.1870989,50.9991819 C26.9024319,51.7397652 27.2718814,52.5718686 28.0130262,52.8565356 C28.0130262,52.8565356 33.4660549,54.9530768 37.6243262,56.5566446 C37.7079858,56.5892101 37.7910838,56.6195296 37.8747433,56.6476033 L41.0678421,57.8755455 C42.0330147,58.2466793 42.9936954,58.6161287 43.9981711,58.8727221 C45.7039271,59.3084254 47.4742524,59.4836051 49.2327868,59.3875931 C50.2243487,59.3336916 51.2142262,59.1966922 52.182206,58.9754716 L57.1405768,57.8407341 C57.1456301,57.8396112 57.1506834,57.8373652 57.1557367,57.8362423 L66.569398,55.6813077 C67.464948,55.47637 68.3840798,55.6363898 69.156667,56.1321708 C69.9303773,56.6285132 70.4587237,57.3971701 70.6456944,58.2966504 C71.0162666,60.0782052 69.9247625,61.8249487 68.1611749,62.2730044 L68.1611749,62.2730044 Z" id="Shape"></path><path d="M18.3809516,10.223306 C18.7245732,10.223306 19.0693179,10.1009048 19.3438783,9.85273357 C21.9086884,7.53609478 24.9715253,5.6882861 28.2028042,4.50863072 C31.7035902,3.23071733 35.5412603,2.68552686 39.301447,2.93257511 C41.9925886,3.1094391 44.6292673,3.68382632 47.1379299,4.63945396 C47.8790746,4.92187507 48.7100551,4.55017967 48.9924762,3.80791203 C49.2754588,3.06620569 48.9032019,2.23578678 48.1609343,1.95336567 C45.3850103,0.895549959 42.467595,0.259962177 39.490102,0.064007885 C35.3340767,-0.20886807 31.0898999,0.394154333 27.216857,1.80850548 C23.6419565,3.11336945 20.2534651,5.15769372 17.4174634,7.71913501 C16.8279165,8.2514117 16.7818756,9.16043702 17.3141523,9.74942248 C17.5976964,10.0638475 17.9884818,10.223306 18.3809516,10.223306 Z" id="Path"></path><path d="M51.0104114,20.4814233 C51.2827259,20.7178036 51.618487,20.833467 51.9525635,20.833467 C52.3540169,20.833467 52.7537859,20.666148 53.0384529,20.3393705 L64.8642036,6.72645021 C65.3852509,6.12735815 65.321243,5.21945585 64.7221509,4.69897006 C64.1224974,4.17848427 63.2151566,4.24193086 62.6946708,4.84102292 L50.8683586,18.4539432 C50.3473114,19.0530352 50.4113193,19.9609375 51.0104114,20.4814233 Z" id="Path"></path><path d="M61.60822,14.3360979 C59.6183586,14.3360979 57.9996311,15.9548255 57.9996311,17.9446869 C57.9996311,19.9345483 59.6183586,21.5532758 61.60822,21.5532758 C63.5980814,21.5532758 65.2168089,19.9339868 65.2168089,17.9446869 C65.2168089,15.9548255 63.5980814,14.3360979 61.60822,14.3360979 L61.60822,14.3360979 Z M61.60822,18.6785325 C61.2033977,18.6785325 60.8743744,18.3495091 60.8743744,17.9446869 C60.8743744,17.5404261 61.2033977,17.2108412 61.60822,17.2108412 C62.0124808,17.2108412 62.3420655,17.5404261 62.3420655,17.9446869 C62.3420655,18.3495091 62.0124808,18.6785325 61.60822,18.6785325 Z" id="Shape"></path><path d="M53.6263155,11.1362615 C55.6161769,11.1362615 57.2349044,9.51753405 57.2349044,7.52767265 C57.2349044,5.53781125 55.6161769,3.91908368 53.6263155,3.91908368 C51.6364541,3.91908368 50.0177266,5.53781125 50.0177266,7.52767265 C50.0177266,9.51753405 51.6364541,11.1362615 53.6263155,11.1362615 L53.6263155,11.1362615 Z M53.6263155,6.79326556 C54.0311377,6.79326556 54.360161,7.12285043 54.360161,7.52767265 C54.360161,7.93193343 54.0311377,8.26151815 53.6263155,8.26151815 C53.2214932,8.26151815 52.8924699,7.93193343 52.8924699,7.52767265 C52.8924699,7.12285043 53.2214932,6.79326556 53.6263155,6.79326556 Z" id="Shape"></path><path d="M13.2709831,13.6011294 C13.5011872,14.1536191 14.0677137,14.5185767 14.6679286,14.4871342 C15.2614059,14.4562532 15.7813302,14.0547998 15.9649319,13.4910806 C16.1502182,12.9223082 15.9480878,12.2743679 15.4725199,11.9110948 C14.9879685,11.5416453 14.3074627,11.5186249 13.7998908,11.8560703 C13.2367332,12.2305731 13.0110209,12.9773325 13.2709831,13.6011294 Z" id="Path"></path></g></g></g></svg>