<svg xmlns="http://www.w3.org/2000/svg" xmlns:xlink="http://www.w3.org/1999/xlink" width="72px" height="66px" viewBox="0 0 72 66"><title>icon-secure-trans</title><desc>Created with Sketch.</desc><g id="Page-1" stroke="none" stroke-width="1" fill="none" fill-rule="evenodd"><g id="TomoX9" transform="translate(-645.000000, -10068.000000)" fill="#00E8B5" fill-rule="nonzero"><g id="icon-secure-trans" transform="translate(645.000000, 10068.000000)"><circle id="Oval" cx="7.48931489" cy="7.53621702" r="1.49791915"></circle><circle id="Oval" cx="13.4808511" cy="7.53621702" r="1.49791915"></circle><circle id="Oval" cx="19.4723872" cy="7.53621702" r="1.49791915"></circle><path d="M16.4765489,30.0043021 L49.4297872,30.0043021 C50.2577362,30.0043021 50.9277064,29.3343319 50.9277064,28.506383 C50.9277064,27.678434 50.2577362,27.0084638 49.4297872,27.0084638 L16.4765489,27.0084638 C15.6486,27.0084638 14.9786298,27.678434 14.9786298,28.506383 C14.9786298,29.3343319 15.6487404,30.0043021 16.4765489,30.0043021 Z" id="Path"></path><path d="M34.451017,44.9829319 L16.4765489,44.9829319 C15.6486,44.9829319 14.9786298,45.6529021 14.9786298,46.4808511 C14.9786298,47.3088 15.6486,47.9787702 16.4765489,47.9787702 L34.451017,47.9787702 C35.278966,47.9787702 35.9489362,47.3088 35.9489362,46.4808511 C35.9489362,45.6529021 35.278966,44.9829319 34.451017,44.9829319 Z" id="Path"></path><path d="M66.1638766,18.0212298 C66.0770936,18.0212298 65.9929787,18.0429957 65.9064766,18.0470681 L65.9064766,6.03829787 C65.9064766,2.73394468 63.2178894,0.0467617021 59.9149404,0.0467617021 L5.99153617,0.0467617021 C2.68858723,0.0467617021 0,2.73394468 0,6.03829787 L0,59.9617021 C0,63.2660553 2.68858723,65.9532383 5.99153617,65.9532383 L59.9149404,65.9532383 C63.2178894,65.9532383 65.9064766,63.2661957 65.9064766,59.9617021 L65.9064766,32.1216383 L70.2186638,27.8101532 C70.2186638,27.8101532 70.2186638,27.8101532 70.2186638,27.8087489 C71.2864596,26.7409532 71.8978723,25.2635362 71.8978723,23.755366 C71.8978723,20.5928426 69.3264,18.0212298 66.1638766,18.0212298 Z M2.99569787,6.03829787 C2.99569787,4.38689362 4.33858723,3.0426 5.99139574,3.0426 L59.9148,3.0426 C61.5678894,3.0426 62.9106383,4.38689362 62.9106383,6.03829787 L62.9106383,12.029834 L2.99569787,12.029834 L2.99569787,6.03829787 Z M62.9106383,59.9617021 C62.9106383,61.6131064 61.5677489,62.9574 59.9149404,62.9574 L5.99153617,62.9574 C4.33858723,62.9574 2.9958383,61.6131064 2.9958383,59.9617021 L2.9958383,15.0255319 L62.9106383,15.0255319 L62.9106383,19.0445106 C62.6262766,19.239983 62.3542723,19.4549745 62.1090894,19.7005787 L45.8113021,35.9958383 L16.4765489,35.9958383 C15.6486,35.9958383 14.9786298,36.6658085 14.9786298,37.4937574 C14.9786298,38.3217064 15.6486,38.9916766 16.4765489,38.9916766 L43.4080596,38.9916766 L41.9696809,46.1870809 C41.8702596,46.6785702 42.0252894,47.1862085 42.3793021,47.5400809 C42.6631021,47.8238809 43.0463234,47.9789106 43.4383915,47.9789106 C43.5350043,47.9789106 43.6344255,47.9686596 43.7308979,47.9497021 L51.2174043,46.451783 C51.5099106,46.3932255 51.7761574,46.2513957 51.9838468,46.0421617 L62.9106383,35.1170553 L62.9106383,59.9617021 Z M50.1875234,43.6035319 L45.3487404,44.5719064 L46.3171149,39.7272255 L59.9142383,26.1301021 L63.7881574,30.0040213 L50.1875234,43.6035319 Z M68.1004851,25.6919745 L65.9063362,27.8861234 L62.0321362,24.0119234 L64.2269872,21.8170723 C64.7360298,21.309434 65.4411064,21.0169277 66.1637362,21.0169277 C67.6733106,21.0169277 68.9020341,22.2456511 68.9020341,23.7552255 C68.9021745,24.4750468 68.6095277,25.1815277 68.1004851,25.6919745 Z" id="Shape"></path></g></g></g></svg>