<svg xmlns="http://www.w3.org/2000/svg" xmlns:xlink="http://www.w3.org/1999/xlink" width="59px" height="76px" viewBox="0 0 59 76"><title>icon-safety-lenders</title><desc>Created with Sketch.</desc><g id="Page-1" stroke="none" stroke-width="1" fill="none" fill-rule="evenodd"><g id="TomoX9" transform="translate(-934.000000, -8429.000000)" fill="#00E8B5" fill-rule="nonzero" stroke="#00E8B5" stroke-width="0.8"><g id="icon-safety-lenders" transform="translate(935.000000, 8430.000000)"><path d="M56.7657082,14.9472292 L29.0195625,0.162645883 C28.6079375,-0.057041568 28.1146041,-0.053958432 27.7060625,0.170354117 L0.727666667,14.9549375 C0.285208235,15.19775 0.0107916667,15.6617918 0.0107916667,16.1666875 L0.0107916667,35.4791459 C0.026979216,51.3544584 9.43268745,65.7166251 23.9783125,72.0767708 L27.7230208,73.7086251 C28.0729792,73.86125 28.4715,73.8620208 28.8222292,73.7101667 L33.0417708,71.8879167 C47.8571875,65.66575 57.4956875,51.1648333 57.4972292,35.0960416 L57.4972292,16.1666875 C57.4972292,15.6563959 57.2158749,15.1869584 56.7657082,14.9472292 L56.7657082,14.9472292 Z M54.7345625,35.0960416 C54.7314792,50.0571459 45.7551251,63.55675 31.9602918,69.3464792 L31.9510416,69.3511041 L28.2764792,70.9374792 L25.0836875,69.5445833 C11.544,63.6245833 2.78810412,50.2567918 2.77268745,35.4791459 L2.77268745,16.9845416 L28.379,2.95075 L54.7345625,16.9945625 L54.7345625,35.0960416 Z" id="Shape"></path><path d="M18.1878125,34.5834375 C17.6921667,34.003 16.8203541,33.9343959 16.2399167,34.4300416 C15.6594792,34.9249167 15.5908749,35.7975 16.0865208,36.3771667 L23.3832292,44.9218541 C23.8703959,45.4922708 24.7237082,45.5701251 25.3049167,45.0968333 L42.2987082,31.2711667 C42.8907082,30.7901667 42.9801251,29.9198959 42.4983541,29.3278959 C42.0173541,28.7366667 41.1470833,28.6464792 40.5550833,29.12825 L24.6080833,42.1013749 L18.1878125,34.5834375 Z" id="Path"></path></g></g></g></svg>