<svg xmlns="http://www.w3.org/2000/svg" xmlns:xlink="http://www.w3.org/1999/xlink" width="105px" height="89px" viewBox="0 0 105 89"><title>icon-wallet-feature-4</title><desc>Created with Sketch.</desc><g id="Page-1" stroke="none" stroke-width="1" fill="none" fill-rule="evenodd"><g id="Wallet-1" transform="translate(-721.000000, -1985.000000)"><g id="icon-wallet-feature-4" transform="translate(721.000000, 1985.000000)"><circle id="Oval-Copy-3" fill="#00E8B5" cx="20" cy="20" r="20"></circle><g id="computer-(1)" transform="translate(14.000000, 5.000000)" fill="#242828" fill-rule="nonzero"><path d="M89.1041667,15.3856136 C90.1658333,15.3856136 91,16.2606879 91,17.287949 C91,18.3532569 90.1658333,19.1902845 89.1041667,19.1902845 L87.2083333,19.1902845 L87.2083333,15.3856136 L89.1041667,15.3856136 Z" id="Path"></path><polygon id="Path" points="3.79166667 15.3856136 87.2083333 15.3856136 87.2083333 19.1902845 3.79166667 19.1902845"></polygon><g id="Group-7" transform="translate(17.750000, 30.408968)"><path d="M18.9583333,9.51167728 C18.9583333,8.48441614 19.7925,7.60934183 20.8541667,7.60934183 L24.6458333,7.60934183 C25.7075,7.60934183 26.5416667,8.48441614 26.5416667,9.51167728 C26.5416667,10.5769851 25.7075,11.4140127 24.6458333,11.4140127 L20.8541667,11.4140127 C19.7925,11.4140127 18.9583333,10.5769851 18.9583333,9.51167728 Z" id="Path"></path><path d="M7.58333333,9.51167728 C7.58333333,8.48441614 8.4175,7.60934183 9.47916667,7.60934183 L13.2708333,7.60934183 C14.3325,7.60934183 15.1666667,8.48441614 15.1666667,9.51167728 C15.1666667,10.5769851 14.3325,11.4140127 13.2708333,11.4140127 L9.47916667,11.4140127 C8.4175,11.4140127 7.58333333,10.5769851 7.58333333,9.51167728 Z" id="Path"></path><path d="M9.3275,19.0233546 C7.28,18.9853079 5.34625,18.3004671 3.82958333,17.1210191 C5.38416667,15.9035244 7.35583333,15.2186837 9.47916667,15.2186837 L36.0208333,15.2186837 L36.1725,15.2186837 C38.22,15.2567304 40.15375,15.9415711 41.6704167,17.1210191 C40.1158333,18.3385138 38.1441667,19.0233546 36.0208333,19.0233546 L9.47916667,19.0233546 C9.44125,19.0233546 9.36541667,19.0233546 9.3275,19.0233546 Z" id="Path-Copy"></path><path d="M9.47916667,3.80467091 C6.33208333,3.80467091 3.79166667,6.39184713 3.79166667,9.51167728 C3.79166667,12.6695541 6.33208333,15.2186837 9.47916667,15.2186837 C7.35583333,15.2186837 5.38416667,15.9035244 3.82958333,17.1210191 C1.51666667,15.4089172 0,12.6315074 0,9.51167728 C0,4.29927813 4.24666667,3.51718654e-13 9.47916667,3.51718654e-13 L36.0208333,3.51718654e-13 C41.2533333,3.51718654e-13 45.5,4.29927813 45.5,9.51167728 C45.5,12.6315074 43.9833333,15.4089172 41.6704167,17.1210191 C40.15375,15.9415711 38.22,15.2567304 36.1725,15.2186837 C39.24375,15.1425902 41.7083333,12.6315074 41.7083333,9.51167728 C41.7083333,6.39184713 39.1679167,3.80467091 36.0208333,3.80467091 L9.47916667,3.80467091 Z" id="Path"></path></g><g id="Group-8" transform="translate(30.750000, 52.627652)"><path d="M18.9583333,9.51167728 C18.9583333,8.48441614 19.7925,7.60934183 20.8541667,7.60934183 L24.6458333,7.60934183 C25.7075,7.60934183 26.5416667,8.48441614 26.5416667,9.51167728 C26.5416667,10.5769851 25.7075,11.4140127 24.6458333,11.4140127 L20.8541667,11.4140127 C19.7925,11.4140127 18.9583333,10.5769851 18.9583333,9.51167728 Z" id="Path"></path><path d="M7.58333333,9.51167728 C7.58333333,8.48441614 8.4175,7.60934183 9.47916667,7.60934183 L13.2708333,7.60934183 C14.3325,7.60934183 15.1666667,8.48441614 15.1666667,9.51167728 C15.1666667,10.5769851 14.3325,11.4140127 13.2708333,11.4140127 L9.47916667,11.4140127 C8.4175,11.4140127 7.58333333,10.5769851 7.58333333,9.51167728 Z" id="Path"></path><path d="M9.3275,3.80467091 C7.28,3.7666242 5.34625,3.08178344 3.82958333,1.90233546 C5.38416667,0.684840764 7.35583333,4.86721774e-13 9.47916667,4.86721774e-13 L36.0208333,4.86721774e-13 L36.1725,4.86721774e-13 C38.22,0.0380467091 40.15375,0.722887473 41.6704167,1.90233546 C40.1158333,3.11983015 38.1441667,3.80467091 36.0208333,3.80467091 L9.47916667,3.80467091 C9.44125,3.80467091 9.36541667,3.80467091 9.3275,3.80467091 Z" id="Path"></path><path d="M3.79166667,9.51167728 C3.79166667,12.6695541 6.33208333,15.2186837 9.47916667,15.2186837 L36.0208333,15.2186837 C39.1679167,15.2186837 41.7083333,12.6695541 41.7083333,9.51167728 C41.7083333,6.39184713 39.1679167,3.80467091 36.0208333,3.80467091 C38.1441667,3.80467091 40.1158333,3.11983015 41.6704167,1.90233546 C43.9833333,3.61443737 45.5,6.39184713 45.5,9.51167728 C45.5,14.7621231 41.2533333,19.0233546 36.0208333,19.0233546 L9.47916667,19.0233546 C4.24666667,19.0233546 0,14.7621231 0,9.51167728 C0,6.39184713 1.51666667,3.61443737 3.82958333,1.90233546 C5.34625,3.08178344 7.28,3.7666242 9.3275,3.80467091 C6.25625,3.88076433 3.79166667,6.42989384 3.79166667,9.51167728 Z" id="Path"></path></g><path d="M3.79166667,15.3856136 L3.79166667,19.1902845 L1.89583333,19.1902845 C0.834166667,19.1902845 0,18.3532569 0,17.287949 C0,16.2606879 0.834166667,15.3856136 1.89583333,15.3856136 L3.79166667,15.3856136 Z" id="Path"></path><path d="M81.5208333,3.97160085 L9.47916667,3.97160085 C6.33208333,3.97160085 3.79166667,6.55877707 3.79166667,9.67860722 L3.79166667,15.3856136 L1.89583333,15.3856136 C0.834166667,15.3856136 0,16.2606879 0,17.287949 L0,9.67860722 C0,4.46620807 4.24666667,0.166929936 9.47916667,0.166929936 L81.5208333,0.166929936 C86.7533333,0.166929936 91,4.46620807 91,9.67860722 L91,17.287949 C91,16.2606879 90.1658333,15.3856136 89.1041667,15.3856136 L87.2083333,15.3856136 L87.2083333,9.67860722 C87.2083333,6.55877707 84.6679167,3.97160085 81.5208333,3.97160085 Z" id="Path"></path><path d="M81.5208333,83.86969 L9.47916667,83.86969 C4.24666667,83.86969 0,79.6084586 0,74.3580127 L0,17.287949 C0,18.3532569 0.834166667,19.1902845 1.89583333,19.1902845 L3.79166667,19.1902845 L3.79166667,74.3580127 C3.79166667,77.5158896 6.33208333,80.0650191 9.47916667,80.0650191 L81.5208333,80.0650191 C84.6679167,80.0650191 87.2083333,77.5158896 87.2083333,74.3580127 L87.2083333,19.1902845 L89.1041667,19.1902845 C90.1658333,19.1902845 91,18.3532569 91,17.287949 L91,74.3580127 C91,79.6084586 86.7533333,83.86969 81.5208333,83.86969 Z" id="Path"></path></g></g></g></g></svg>