<svg xmlns="http://www.w3.org/2000/svg" xmlns:xlink="http://www.w3.org/1999/xlink" width="90px" height="90px" viewBox="0 0 90 90"><title>icon-full-decentralization</title><desc>Created with Sketch.</desc><g id="Page-1" stroke="none" stroke-width="1" fill="none" fill-rule="evenodd"><g id="TomoX9" transform="translate(-134.000000, -1984.000000)"><g id="icon-full-decentralization" transform="translate(134.000000, 1984.000000)"><circle id="Oval-Copy-2" fill="#00E8B5" cx="70" cy="25" r="20"></circle><path d="M45,90 C44.6964286,90 44.3928571,89.9285714 44.125,89.7857143 L1.08928571,68.1785714 C0.410714286,67.8392857 0,67.1785714 0,66.4285714 C0,65.6785714 0.428571429,65 1.08928571,64.6785714 L17.8214286,56.375 C18.0714286,56.25 18.2142857,56 18.2142857,55.7321429 C18.2142857,55.4642857 18.0535714,55.2142857 17.8214286,55.0892857 L1.08928571,46.75 C0.410714286,46.4285714 0,45.75 0,45 C0,44.25 0.410714286,43.5714286 1.08928571,43.25 L17.8214286,34.9464286 C18.0714286,34.8214286 18.2142857,34.5714286 18.2142857,34.3035714 C18.2142857,34.0357143 18.0535714,33.7857143 17.8214286,33.6607143 L1.08928571,25.3214286 C0.410714286,25 0,24.3214286 0,23.5714286 C0,22.8214286 0.410714286,22.1428571 1.08928571,21.8214286 L44.125,0.214285714 C44.3928571,0.0714285714 44.6964286,0 45,0 C45.3035714,0 45.6071429,0.0714285714 45.875,0.214285714 L88.9107143,21.8214286 C89.5714286,22.1607143 90,22.8392857 90,23.5714286 C90,24.3214286 89.5892857,25 88.9107143,25.3214286 L72.1785714,33.6607143 C71.9285714,33.7857143 71.7857143,34.0357143 71.7857143,34.3035714 C71.7857143,34.5714286 71.9464286,34.8214286 72.1785714,34.9464286 L88.9107143,43.25 C89.5892857,43.5892857 90,44.25 90,45 C90,45.75 89.5892857,46.4285714 88.9107143,46.7678571 L72.1785714,55.1071429 C71.9285714,55.2321429 71.7857143,55.4821429 71.7857143,55.75 C71.7857143,56.0178571 71.9464286,56.2678571 72.1785714,56.3928571 L88.9107143,64.6964286 C89.5892857,65.0357143 90,65.6964286 90,66.4464286 C90,67.1964286 89.5892857,67.875 88.9107143,68.2142857 L45.875,89.8214286 C45.6071429,89.9285714 45.3035714,90 45,90 Z M23.5178571,58.0178571 C23.4107143,58.0178571 23.3035714,58.0357143 23.1964286,58.0892857 L7.64285714,65.8035714 C7.39285714,65.9285714 7.25,66.1785714 7.25,66.4464286 C7.25,66.7142857 7.41071429,66.9642857 7.64285714,67.0892857 L44.6785714,85.6785714 C44.7857143,85.7321429 44.8928571,85.75 45,85.75 C45.1071429,85.75 45.2142857,85.7321429 45.3214286,85.6785714 L82.3571429,67.0892857 C82.6071429,66.9642857 82.75,66.7142857 82.75,66.4464286 C82.75,66.1785714 82.5892857,65.9285714 82.3571429,65.8035714 L66.7857143,58.0892857 C66.6785714,58.0357143 66.5714286,58.0178571 66.4642857,58.0178571 C66.3571429,58.0178571 66.25,58.0357143 66.1428571,58.0892857 L45.8571429,68.1964286 C45.5892857,68.3392857 45.2857143,68.4107143 44.9821429,68.4107143 C44.6785714,68.4107143 44.375,68.3392857 44.1071429,68.1964286 L23.8214286,58.0892857 C23.75,58.0357143 23.625,58.0178571 23.5178571,58.0178571 Z M23.5178571,36.5892857 C23.4107143,36.5892857 23.3035714,36.6071429 23.1964286,36.6607143 L7.66071429,44.375 C7.41071429,44.5 7.26785714,44.75 7.26785714,45.0178571 C7.26785714,45.2857143 7.42857143,45.5357143 7.66071429,45.6607143 C10.1785714,46.9107143 43.2678571,63.3928571 44.6785714,64.0892857 C44.7857143,64.1428571 44.8928571,64.1607143 45,64.1607143 C45.1071429,64.1607143 45.2142857,64.1428571 45.3214286,64.0892857 C46.25,63.625 82.3392857,45.6607143 82.3392857,45.6607143 C82.5892857,45.5357143 82.7321429,45.2857143 82.7321429,45.0178571 C82.7321429,44.75 82.5714286,44.5 82.3392857,44.375 L66.8035714,36.6607143 C66.6964286,36.6071429 66.5892857,36.5892857 66.4821429,36.5892857 C66.375,36.5892857 66.2678571,36.6071429 66.1607143,36.6607143 L45.875,46.7678571 C45.6071429,46.9107143 45.3035714,46.9821429 45,46.9821429 C44.6964286,46.9821429 44.3928571,46.9107143 44.125,46.7678571 L23.8392857,36.6607143 C23.75,36.6071429 23.625,36.5892857 23.5178571,36.5892857 Z M45,4.25 C44.8928571,4.25 44.7857143,4.26785714 44.6785714,4.32142857 L7.625,22.9285714 C7.375,23.0535714 7.23214286,23.3035714 7.23214286,23.5714286 C7.23214286,23.8392857 7.39285714,24.0892857 7.625,24.2142857 L44.6785714,42.6607143 C44.7857143,42.7142857 44.8928571,42.7321429 45,42.7321429 C45.1071429,42.7321429 45.2142857,42.7142857 45.3214286,42.6607143 L82.375,24.2142857 C82.625,24.0892857 82.7678571,23.8392857 82.7678571,23.5714286 C82.7678571,23.3035714 82.6071429,23.0535714 82.375,22.9285714 L45.3214286,4.32142857 C45.2142857,4.26785714 45.1071429,4.25 45,4.25 Z" id="Shape" fill="#242828" fill-rule="nonzero"></path></g></g></g></svg>