<svg xmlns="http://www.w3.org/2000/svg" xmlns:xlink="http://www.w3.org/1999/xlink" width="97px" height="92px" viewBox="0 0 97 92"><title>icon-effortless-dex-management</title><desc>Created with Sketch.</desc><g id="Page-1" stroke="none" stroke-width="1" fill="none" fill-rule="evenodd"><g id="TomoX9" transform="translate(-128.000000, -2472.000000)"><g id="icon-effortless-dex-management" transform="translate(128.000000, 2472.000000)"><circle id="Oval-Copy-5" fill="#00E8B5" cx="20" cy="20" r="20"></circle><path d="M35.8695652,20.6956522 C35.8695652,21.6562501 35.0910327,22.4347826 34.1304348,22.4347826 C33.1698369,22.4347826 32.3913043,21.6562501 32.3913043,20.6956522 C32.3913043,19.7350543 33.1698369,18.9565217 34.1304348,18.9565217 C35.0910327,18.9565217 35.8695652,19.7350543 35.8695652,20.6956522 Z" id="Path" fill="#242828" fill-rule="nonzero"></path><path d="M28.9130435,20.6956522 C28.9130435,21.6562501 28.134511,22.4347826 27.173913,22.4347826 C26.2133151,22.4347826 25.4347826,21.6562501 25.4347826,20.6956522 C25.4347826,19.7350543 26.2133151,18.9565217 27.173913,18.9565217 C28.134511,18.9565217 28.9130435,19.7350543 28.9130435,20.6956522 Z" id="Path" fill="#242828" fill-rule="nonzero"></path><path d="M21.9565217,20.6956522 C21.9565217,21.6562501 21.1779892,22.4347826 20.2173913,22.4347826 C19.2567934,22.4347826 18.4782609,21.6562501 18.4782609,20.6956522 C18.4782609,19.7350543 19.2567934,18.9565217 20.2173913,18.9565217 C21.1779892,18.9565217 21.9565217,19.7350543 21.9565217,20.6956522 Z" id="Path" fill="#242828" fill-rule="nonzero"></path><path d="M82.826087,36.3478261 L20.2173913,36.3478261 C19.2567934,36.3478261 18.4782609,37.1263586 18.4782609,38.0869565 L18.4782609,48.5217391 C18.4782609,49.482337 19.2567934,50.2608696 20.2173913,50.2608696 L82.826087,50.2608696 C83.7866849,50.2608696 84.5652174,49.482337 84.5652174,48.5217391 L84.5652174,38.0869565 C84.5652174,37.1263586 83.7866849,36.3478261 82.826087,36.3478261 Z M81.0869565,46.7826087 L21.9565217,46.7826087 L21.9565217,39.826087 L81.0869565,39.826087 L81.0869565,46.7826087 Z" id="Shape" fill="#242828" fill-rule="nonzero"></path><path d="M51.5217391,57.2173913 L20.2173913,57.2173913 C19.2567934,57.2173913 18.4782609,57.9959238 18.4782609,58.9565217 L18.4782609,79.826087 C18.4782609,80.7866849 19.2567934,81.5652174 20.2173913,81.5652174 L51.5217391,81.5652174 C52.482337,81.5652174 53.2608696,80.7866849 53.2608696,79.826087 L53.2608696,58.9565217 C53.2608696,57.9959238 52.482337,57.2173913 51.5217391,57.2173913 Z M49.7826087,78.0869565 L21.9565217,78.0869565 L21.9565217,60.6956522 L49.7826087,60.6956522 L49.7826087,78.0869565 Z" id="Shape" fill="#242828" fill-rule="nonzero"></path><path d="M82.826087,57.2173913 L61.9565217,57.2173913 C60.9959238,57.2173913 60.2173913,57.9959238 60.2173913,58.9565217 L60.2173913,79.826087 C60.2173913,80.7866849 60.9959238,81.5652174 61.9565217,81.5652174 L82.826087,81.5652174 C83.7866849,81.5652174 84.5652174,80.7866849 84.5652174,79.826087 L84.5652174,58.9565217 C84.5652174,57.9959238 83.7866849,57.2173913 82.826087,57.2173913 Z M81.0869565,78.0869565 L63.6956522,78.0869565 L63.6956522,60.6956522 L81.0869565,60.6956522 L81.0869565,78.0869565 Z" id="Shape" fill="#242828" fill-rule="nonzero"></path><path d="M53.2608696,13.7391304 C53.2608696,14.6997283 52.482337,15.4782609 51.5217391,15.4782609 C50.5611412,15.4782609 49.7826087,14.6997283 49.7826087,13.7391304 C49.7826087,12.7785325 50.5611412,12 51.5217391,12 C52.482337,12 53.2608696,12.7785325 53.2608696,13.7391304 Z" id="Path" fill="#242828" fill-rule="nonzero"></path><path d="M90.826087,12 L59.3478261,12 C58.3872282,12 57.6086957,12.7785325 57.6086957,13.7391304 C57.6086957,14.6997283 58.3872282,15.4782609 59.3478261,15.4782609 L90.826087,15.4782609 C91.7853261,15.4782609 92.5652174,16.2581522 92.5652174,17.2173913 L92.5652174,25.9130435 L10.4782609,25.9130435 L10.4782609,17.2173913 C10.4782609,16.2581522 11.2581522,15.4782609 12.2173913,15.4782609 L67.6956522,15.4782609 C68.6562501,15.4782609 69.4347826,14.6997283 69.4347826,13.7391304 C69.4347826,12.7785325 68.6562501,12 67.6956522,12 L12.2173913,12 C9.34035322,12 7,14.3403532 7,17.2173913 L7,86.7826087 C7,89.6596468 9.34035322,92 12.2173913,92 L90.826087,92 C93.703125,92 96.0434783,89.6596468 96.0434783,86.7826087 L96.0434783,17.2173913 C96.0434783,14.3403532 93.703125,12 90.826087,12 Z M90.826087,88.5217391 L12.2173913,88.5217391 C11.2581522,88.5217391 10.4782609,87.7418478 10.4782609,86.7826087 L10.4782609,29.3913043 L92.5652174,29.3913043 L92.5652174,86.7826087 C92.5652174,87.7418478 91.7853261,88.5217391 90.826087,88.5217391 Z" id="Shape" fill="#242828" fill-rule="nonzero"></path></g></g></g></svg>