<svg xmlns="http://www.w3.org/2000/svg" xmlns:xlink="http://www.w3.org/1999/xlink" width="70px" height="68px" viewBox="0 0 70 68"><title>icon-easy-use</title><desc>Created with Sketch.</desc><g id="Page-1" stroke="none" stroke-width="1" fill="none" fill-rule="evenodd"><g id="TomoX9" transform="translate(-275.000000, -8436.000000)" fill="#00E8B5" fill-rule="nonzero"><g id="icon-easy-use" transform="translate(275.000000, 8436.000000)"><path d="M65.0985577,0.0681089744 L4.64503205,0.0681089744 C2.08413462,0.0681089744 0,2.16586538 0,4.72676282 L0,43.0857372 C0,43.7259615 0.517628205,44.2435897 1.15785256,44.2435897 L68.5721154,44.2435897 C69.2123397,44.2435897 69.7300343,43.7259615 69.7300343,43.0857372 L69.7300343,4.72676282 C69.7435897,2.16586538 67.6594551,0.0681089744 65.0985577,0.0681089744 Z M67.4142628,41.9142628 L2.32932692,41.9142628 L2.32932692,4.72676282 C2.32932692,3.4463141 3.37820513,2.3974359 4.65865385,2.3974359 L65.0985577,2.3974359 C66.3790064,2.3974359 67.4278846,3.4463141 67.4278846,4.72676282 L67.4278846,41.9142628 L67.4142628,41.9142628 Z" id="Shape"></path><path d="M68.5857372,41.9142628 L1.15785256,41.9142628 C0.517628205,41.9142628 1.8189894e-12,42.431891 1.8189894e-12,43.0721154 L1.8189894e-12,48.8886218 C1.8189894e-12,51.4495192 2.08413462,53.5336538 4.64503205,53.5336538 L65.0849359,53.5336538 C67.6458333,53.5336538 69.7302308,51.4495192 69.7302308,48.8886218 L69.7302308,43.0721154 C69.7435897,42.4455128 69.2259615,41.9142628 68.5857372,41.9142628 Z M67.4142628,48.8886218 C67.4142628,50.1690705 66.3653846,51.2179487 65.0849359,51.2179487 L4.64503205,51.2179487 C3.36458333,51.2179487 2.31570513,50.1690705 2.31570513,48.8886218 L2.31570513,44.2435897 L67.4142628,44.2435897 L67.4142628,48.8886218 L67.4142628,48.8886218 Z" id="Shape"></path><path d="M38.3589744,46.5729167 L31.3846154,46.5729167 C30.744391,46.5729167 30.2267628,47.0905449 30.2267628,47.7307692 C30.2267628,48.3709936 30.744391,48.8886218 31.3846154,48.8886218 L38.3589744,48.8886218 C38.9991987,48.8886218 39.5168269,48.3709936 39.5168269,47.7307692 C39.5168269,47.0905449 38.9991987,46.5729167 38.3589744,46.5729167 Z" id="Path"></path><path d="M49.9783654,60.5216346 L19.7652244,60.5216346 C17.8445513,60.5216346 16.2780449,62.088141 16.2780449,64.0088141 C16.2780449,65.9294872 17.8445513,67.4959936 19.7652244,67.4959936 L49.9919872,67.4959936 C51.9126603,67.4959936 53.4791667,65.9294872 53.4791667,64.0088141 C53.4791667,62.088141 51.8990385,60.5216346 49.9783654,60.5216346 Z M49.9783654,65.1666667 L19.7652244,65.1666667 C19.125,65.1666667 18.6073718,64.6490385 18.6073718,64.0088141 C18.6073718,63.3685897 19.125,62.8509615 19.7652244,62.8509615 L49.9919872,62.8509615 C50.6322115,62.8509615 51.1498397,63.3685897 51.1498397,64.0088141 C51.1498397,64.6490385 50.6185897,65.1666667 49.9783654,65.1666667 Z" id="Shape"></path><path d="M47.6626603,60.5216346 C43.8076923,60.5216346 41.8461538,57.7836538 41.8461538,52.3894231 C41.8461538,51.7491987 41.3285256,51.2315705 40.6883013,51.2315705 L29.0689103,51.2315705 C28.4286859,51.2315705 27.9110577,51.7491987 27.9110577,52.3894231 C27.9110577,57.7836538 25.9495192,60.5216346 22.0945513,60.5216346 C21.4543269,60.5216346 20.9366987,61.0392628 20.9366987,61.6794872 C20.9366987,62.3197115 21.4543269,62.8373397 22.0945513,62.8373397 L47.6626603,62.8373397 C48.3028846,62.8373397 48.8205128,62.3197115 48.8205128,61.6794872 C48.8205128,61.0392628 48.3028846,60.5216346 47.6626603,60.5216346 Z M27.7475962,60.5216346 C29.1778846,58.9415064 30.0224359,56.5713141 30.1858974,53.5472756 L39.5440705,53.5472756 C39.7075321,56.5713141 40.5520833,58.9415064 41.9823718,60.5216346 L27.7475962,60.5216346 Z" id="Shape"></path><path d="M55.5496795,34.3269231 L52.7435897,31.5208333 L54.3100962,29.9543269 C54.5961538,29.6682692 54.71875,29.2459936 54.6097756,28.8509615 C54.5144231,28.4559295 54.2147436,28.1426282 53.8197115,28.0200321 L42.2003205,24.5328526 C41.7916667,24.4102564 41.3421474,24.5192308 41.0424679,24.8189103 C40.7427885,25.1185897 40.6338141,25.568109 40.7564103,25.9767628 L44.2435897,37.5961538 C44.3661859,37.9911859 44.6794872,38.2908654 45.0745192,38.3862179 C45.4695513,38.4815705 45.8918269,38.3725962 46.1778846,38.0865385 L47.8261218,36.4383013 L50.6322115,39.244391 C50.8501603,39.4623397 51.1498397,39.5849359 51.4495192,39.5849359 C51.7491987,39.5849359 52.0488782,39.4623397 52.2668269,39.244391 L55.5496795,35.9615385 C55.9991987,35.5120192 55.9991987,34.7764423 55.5496795,34.3269231 Z M51.4358974,36.7924679 L48.875,34.2315705 C48.5753205,33.931891 48.1939103,33.7820513 47.7988782,33.7820513 C47.4038462,33.7820513 47.0224359,33.931891 46.7227564,34.2315705 L45.8782051,35.0761218 L43.5897436,27.3798077 L51.2860577,29.681891 L50.3870192,30.5809295 C50.1418269,30.8261218 50.005609,31.1530449 50.005609,31.5072115 C50.005609,31.8613782 50.1418269,32.1883013 50.3870192,32.4334936 L53.0841346,35.130609 L51.4358974,36.7924679 Z" id="Shape"></path><path d="M48.8205128,9.37179487 L16.2780449,9.37179487 C15.6378205,9.37179487 15.1201923,9.88942308 15.1201923,10.5296474 L15.1201923,16.3461538 C15.1201923,16.9863782 15.6378205,17.5040064 16.2780449,17.5040064 L48.8205128,17.5040064 C49.4607372,17.5040064 49.9783654,16.9863782 49.9783654,16.3461538 L49.9783654,10.5296474 C49.9783654,9.88942308 49.4607372,9.37179487 48.8205128,9.37179487 Z M47.6626603,15.1883013 L17.4358974,15.1883013 L17.4358974,11.7011218 L47.6626603,11.7011218 L47.6626603,15.1883013 Z" id="Shape"></path><path d="M30.2267628,22.1626603 L20.9230769,22.1626603 C20.2828526,22.1626603 19.7652244,22.6802885 19.7652244,23.3205128 L19.7652244,27.9655449 C19.7652244,28.6057692 20.2828526,29.1233974 20.9230769,29.1233974 L30.2267628,29.1233974 C30.8669872,29.1233974 31.3846154,28.6057692 31.3846154,27.9655449 L31.3846154,23.3205128 C31.3846154,22.6802885 30.8669872,22.1626603 30.2267628,22.1626603 Z M29.0552885,26.8076923 L22.0809295,26.8076923 L22.0809295,24.4783654 L29.0552885,24.4783654 L29.0552885,26.8076923 Z" id="Shape"></path><path d="M48.8205128,9.37179487 L16.2780449,9.37179487 C15.6378205,9.37179487 15.1201923,9.88942308 15.1201923,10.5296474 L15.1201923,32.6105769 C15.1201923,33.2508013 15.6378205,33.7684295 16.2780449,33.7684295 L43.9439103,33.7684295 C44.3116987,33.7684295 44.6522436,33.5913462 44.8701923,33.3052885 C45.088141,33.005609 45.15625,32.6241987 45.0472756,32.2700321 L43.5897436,27.3798077 L48.4935897,28.8509615 C48.8477564,28.9599359 49.2291667,28.8918269 49.5152244,28.6738782 C49.8149038,28.4559295 49.9783654,28.1153846 49.9783654,27.7475962 L49.9783654,10.5296474 C49.9783654,9.88942308 49.4607372,9.37179487 48.8205128,9.37179487 Z M47.6626603,26.1674679 L42.1866987,24.5328526 C41.7780449,24.4102564 41.3285256,24.5192308 41.0288462,24.8189103 C40.7291667,25.1185897 40.6201923,25.568109 40.7427885,25.9767628 L42.3910256,31.4527244 L17.4358974,31.4527244 L17.4358974,11.7011218 L47.6626603,11.7011218 L47.6626603,26.1674679 Z" id="Shape"></path></g></g></g></svg>