<svg xmlns="http://www.w3.org/2000/svg" xmlns:xlink="http://www.w3.org/1999/xlink" width="66px" height="66px" viewBox="0 0 66 66"><title>icon-technology-stack</title><desc>Created with Sketch.</desc><g id="Page-1" stroke="none" stroke-width="1" fill="none" fill-rule="evenodd"><g id="TomoP2" transform="translate(-565.000000, -3566.000000)" fill="#00E8B5" fill-rule="nonzero"><g id="icon-technology-stack" transform="translate(565.000000, 3566.000000)"><path d="M64.558952,46.6539301 L1.31777084,46.6539301 C0.589366166,46.6539301 -2.84217094e-14,47.2438592 -2.84217094e-14,47.971701 L-2.84217094e-14,64.558952 C-2.84217094e-14,65.2867938 0.589366166,65.8767228 1.31777084,65.8767228 L64.558952,65.8767228 C65.2873568,65.8767228 65.8767228,65.2867938 65.8767228,64.558952 L65.8767228,47.971701 C65.8767228,47.2438592 65.2873568,46.6539301 64.558952,46.6539301 Z M63.2411811,63.2411811 L2.63497881,63.2411811 L2.63497881,49.2889089 L63.2411811,49.2889089 L63.2411811,63.2411811 Z" id="Shape"></path><path d="M7.96066465,60.8763987 L14.5483931,60.8763987 C15.2762349,60.8763987 15.8656011,60.2864696 15.8656011,59.5591908 L15.8656011,52.9714622 C15.8656011,52.2436203 15.2762349,51.6536912 14.5483931,51.6536912 L7.96066465,51.6536912 C7.23225983,51.6536912 6.64289366,52.2436203 6.64289366,52.9714622 L6.64289366,59.5591908 C6.64289366,60.2864696 7.23225983,60.8763987 7.96066465,60.8763987 L7.96066465,60.8763987 Z M9.27787247,54.2886702 L13.2306223,54.2886702 L13.2306223,58.2414199 L9.27787247,58.2414199 L9.27787247,54.2886702 Z" id="Shape"></path><path d="M22.6723014,57.5828159 L57.9160583,57.5828159 C58.644463,57.5828159 59.2332663,56.9928869 59.2332663,56.265045 C59.2332663,55.5377662 58.644463,54.9478371 57.9160583,54.9478371 L22.6723014,54.9478371 C21.9438967,54.9478371 21.3545306,55.5377662 21.3545306,56.265045 C21.3545306,56.9928869 21.9438967,57.5828159 22.6723014,57.5828159 Z" id="Path"></path><path d="M64.558952,23.3269651 L1.31777084,23.3269651 C0.589366166,23.3269651 -2.84217094e-14,23.9168941 -2.84217094e-14,24.6447359 L-2.84217094e-14,41.2319869 C-2.84217094e-14,41.9598287 0.589366166,42.5497577 1.31777084,42.5497577 L64.558952,42.5497577 C65.2873568,42.5497577 65.8767228,41.9598287 65.8767228,41.2319869 L65.8767228,24.6447359 C65.8767228,23.9168941 65.2873568,23.3269651 64.558952,23.3269651 Z M63.2411811,39.9142161 L2.63497881,39.9142161 L2.63497881,25.9619439 L63.2411811,25.9619439 L63.2411811,39.9142161 Z" id="Shape"></path><path d="M7.96066465,37.5494336 L14.5483931,37.5494336 C15.2762349,37.5494336 15.8656011,36.9595046 15.8656011,36.2322258 L15.8656011,29.6444972 C15.8656011,28.9166552 15.2762349,28.3267262 14.5483931,28.3267262 L7.96066465,28.3267262 C7.23225983,28.3267262 6.64289366,28.9166552 6.64289366,29.6444972 L6.64289366,36.2322258 C6.64289366,36.9595046 7.23225983,37.5494336 7.96066465,37.5494336 Z M9.27787247,30.9617051 L13.2306223,30.9617051 L13.2306223,34.9144548 L9.27787247,34.9144548 L9.27787247,30.9617051 Z" id="Shape"></path><path d="M22.6723014,34.2558509 L57.9160583,34.2558509 C58.644463,34.2558509 59.2332663,33.6659218 59.2332663,32.9380799 C59.2332663,32.2108011 58.644463,31.6208721 57.9160583,31.6208721 L22.6723014,31.6208721 C21.9438967,31.6208721 21.3545306,32.2108011 21.3545306,32.9380799 C21.3545306,33.6659218 21.9438967,34.2558509 22.6723014,34.2558509 Z" id="Path"></path><path d="M64.558952,0 L1.31777084,0 C0.589366166,0 -2.84217094e-14,0.589929039 -2.84217094e-14,1.31777084 L-2.84217094e-14,17.9050218 C-2.84217094e-14,18.6328636 0.589366166,19.2227927 1.31777084,19.2227927 L64.558952,19.2227927 C65.2873568,19.2227927 65.8767228,18.6328636 65.8767228,17.9050218 L65.8767228,1.31777084 C65.8767228,0.589929039 65.2873568,0 64.558952,0 Z M63.2411811,16.587251 L2.63497881,16.587251 L2.63497881,2.63497881 L63.2411811,2.63497881 L63.2411811,16.587251 Z" id="Shape"></path><path d="M7.96066465,14.2224685 L14.5483931,14.2224685 C15.2762349,14.2224685 15.8656011,13.6325395 15.8656011,12.9052607 L15.8656011,6.3175321 C15.8656011,5.58969016 15.2762349,4.99976112 14.5483931,4.99976112 L7.96066465,4.99976112 C7.23225983,4.99976112 6.64289366,5.58969016 6.64289366,6.3175321 L6.64289366,12.9052607 C6.64289366,13.6325395 7.23225983,14.2224685 7.96066465,14.2224685 Z M9.27787247,7.63474007 L13.2306223,7.63474007 L13.2306223,11.5874897 L9.27787247,11.5874897 L9.27787247,7.63474007 Z" id="Shape"></path><path d="M22.6723014,10.9288858 L57.9160583,10.9288858 C58.644463,10.9288858 59.2332663,10.3389568 59.2332663,9.61111483 C59.2332663,8.88383604 58.644463,8.293907 57.9160583,8.293907 L22.6723014,8.293907 C21.9438967,8.293907 21.3545306,8.88383604 21.3545306,9.61111483 C21.3545306,10.3389568 21.9438967,10.9288858 22.6723014,10.9288858 Z" id="Path"></path></g></g></g></svg>