<svg xmlns="http://www.w3.org/2000/svg" xmlns:xlink="http://www.w3.org/1999/xlink" width="95px" height="100px" viewBox="0 0 95 100"><title>icon-multiple-chain</title><desc>Created with Sketch.</desc><g id="Page-1" stroke="none" stroke-width="1" fill="none" fill-rule="evenodd"><g id="TomoP2" transform="translate(-135.000000, -1884.000000)"><g id="icon-multiple-chain" transform="translate(135.000000, 1884.000000)"><circle id="Oval-Copy-2" fill="#00E8B5" cx="75" cy="70" r="20"></circle><g id="commerce-and-shopping" fill="#242828" fill-rule="nonzero"><path d="M94.3107605,24.4186402 C94.3107605,19.8951721 90.6311035,16.2155152 86.1076355,16.2155152 C83.7852479,16.2155152 81.6864014,17.1875 80.192566,18.7438965 L48.1803895,0.261688281 C47.5761414,-0.086975 46.8322754,-0.086975 46.2280273,0.261688281 L14.2150879,18.7438965 C12.7212523,17.1875 10.6231689,16.2155152 8.30078125,16.2155152 C3.77731328,16.2155152 0.09765625,19.8951721 0.09765625,24.4186402 C0.09765625,28.2684326 2.76412969,31.5055848 6.34765625,32.384491 L6.34765625,69.3359375 C6.34765625,70.0332641 6.7199707,70.677948 7.32421875,71.0273742 L39.326477,89.504242 C39.1143799,90.2320861 38.9984131,91.0011291 38.9984131,91.796875 C38.9984131,96.3195801 42.6780701,100 47.2015381,100 C51.7242432,100 55.4039002,96.3195801 55.4039002,91.796875 C55.4039002,91.0018922 55.2886963,90.234375 55.0765992,89.5065309 L87.084198,71.0273742 C87.6884461,70.6787109 88.0607605,70.0332641 88.0607605,69.3359375 L88.0607605,32.384491 C91.6442871,31.5055848 94.3107605,28.2684326 94.3107605,24.4186402 Z M4.00390625,24.4186402 C4.00390625,22.0489502 5.93109141,20.1217652 8.30078125,20.1217652 C10.6697082,20.1217652 12.5968934,22.0489502 12.5968934,24.4186402 C12.5968934,26.7875672 10.6697082,28.7155152 8.30078125,28.7155152 C5.93109141,28.7155152 4.00390625,26.7875672 4.00390625,24.4186402 Z M47.2015381,96.09375 C44.831848,96.09375 42.9046631,94.1665648 42.9046631,91.796875 C42.9046631,89.427948 44.831848,87.5 47.2015381,87.5 C49.570465,87.5 51.4984131,89.427948 51.4984131,91.796875 C51.4984131,94.1665648 49.570465,96.09375 47.2015381,96.09375 Z M53.1204223,86.1259461 C51.625824,84.5672607 49.5262146,83.59375 47.2015381,83.59375 C44.8783875,83.59375 42.7787781,84.5664979 41.2849426,86.1236572 L10.2539062,68.2083129 L10.2539062,32.384491 C13.8366699,31.5055848 16.5031434,28.2684326 16.5031434,24.4186402 C16.5031434,23.6221313 16.3871766,22.8523254 16.1743164,22.1229553 L47.203827,4.20837402 L78.2341004,22.1229553 C78.0212402,22.8523254 77.9052734,23.6213684 77.9052734,24.4186402 C77.9052734,28.2684326 80.5717469,31.5055848 84.1545105,32.384491 L84.1545105,68.2083129 L53.1204223,86.1259461 Z M86.1076355,28.7155152 C83.7387086,28.7155152 81.8107605,26.7875672 81.8107605,24.4186402 C81.8107605,22.0489502 83.7387086,20.1217652 86.1076355,20.1217652 C88.4773254,20.1217652 90.4045105,22.0489502 90.4045105,24.4186402 C90.4045105,26.7875672 88.4773254,28.7155152 86.1076355,28.7155152 Z" id="Shape"></path><path d="M73.9616395,30.2986145 L48.1803895,15.4144287 C47.5761414,15.0657654 46.8322754,15.0657654 46.2280273,15.4144287 L20.4467773,30.2986145 C19.8425293,30.6480408 19.4702148,31.2927246 19.4702148,31.9900512 L19.4702148,61.7591857 C19.4702148,62.4565125 19.8425293,63.1019592 20.4467773,63.4506227 L46.2280273,78.3355713 C46.5301514,78.5095215 46.8666076,78.5972596 47.203827,78.5972596 C47.541809,78.5972596 47.8782654,78.5095215 48.1803895,78.3355713 L73.9616395,63.4506227 C74.5658875,63.1019592 74.938202,62.4565125 74.938202,61.7591857 L74.938202,31.9900512 C74.938202,31.2927246 74.5658875,30.6480408 73.9616395,30.2986145 Z M47.203827,19.3611145 L69.078827,31.9900512 L47.203827,44.619751 L25.3295898,31.9900512 L47.203827,19.3611145 Z M49.156952,73.2612609 L49.156952,64.453125 C49.156952,63.3743285 48.2826232,62.5 47.203827,62.5 C46.1257934,62.5 45.2514648,63.3743285 45.2514648,64.453125 L45.2514648,73.2612609 L23.3764648,60.6315613 L23.3764648,35.3729248 L46.2280273,48.5664367 C46.5301514,48.7403869 46.8666076,48.828125 47.203827,48.828125 C47.541809,48.828125 47.8782654,48.7403869 48.1803895,48.5664367 L71.031952,35.3729248 L71.031952,60.6315613 L49.156952,73.2612609 Z" id="Shape"></path></g></g></g></g></svg>