<svg xmlns="http://www.w3.org/2000/svg" xmlns:xlink="http://www.w3.org/1999/xlink" width="67px" height="79px" viewBox="0 0 67 79"><title>icon-low-development</title><desc>Created with Sketch.</desc><g id="Page-1" stroke="none" stroke-width="1" fill="none" fill-rule="evenodd"><g id="TomoX9" transform="translate(-735.000000, -2485.000000)"><g id="icon-low-development" transform="translate(735.000000, 2472.000000)"><circle id="Oval-Copy-4" fill="#00E8B5" cx="41" cy="48" r="20"></circle><path d="M28.8430275,35.3560452 L22.3301407,35.3560452 C21.3015606,35.3560452 20.4692411,36.1883647 20.4692411,37.2169448 C20.4692411,38.2455249 21.3015606,39.0778444 22.3301407,39.0778444 L26.0517654,39.0778444 L26.0517654,40.9387439 C26.0517654,41.967324 26.8840849,42.7996435 27.912665,42.7996435 C28.9412451,42.7996435 29.7735645,41.967324 29.7735645,40.9387439 L29.7735645,38.9838137 C32.9217593,38.5276168 35.3560888,35.8373635 35.3560888,32.5649575 C35.3560888,28.9741732 32.4339863,26.0520707 28.843202,26.0520707 L26.9823024,26.0520707 C25.4430958,26.0520707 24.1910403,24.8000152 24.1910403,23.2608086 C24.1910403,21.7216019 25.4430958,20.4695464 26.9823024,20.4695464 L33.4951892,20.4695464 C34.5237693,20.4695464 35.3560888,19.6372269 35.3560888,18.6086468 C35.3560888,17.5798923 34.5237693,16.7475728 33.4951892,16.7475728 L29.7735645,16.7475728 L29.7735645,14.8866732 C29.7735645,13.8580931 28.9412451,13.0257737 27.912665,13.0257737 C26.8840849,13.0257737 26.0517654,13.8580931 26.0517654,14.8866732 L26.0517654,16.8416035 C22.9035706,17.2978004 20.4692411,19.9880537 20.4692411,23.2604596 C20.4692411,26.8512439 23.3913437,29.7733465 26.982128,29.7733465 L28.8430275,29.7733465 C30.3822341,29.7733465 31.6342897,31.025402 31.6342897,32.5646086 C31.6342897,34.1039897 30.3822341,35.3560452 28.8430275,35.3560452 Z" id="Path" fill="#242828" fill-rule="nonzero"></path><path d="M65.1294353,73.3915276 C64.1008552,73.3915276 63.2685357,74.2238471 63.2685357,75.2524272 L63.2685357,85.6521465 L38.5325451,60.9109223 C38.1836374,60.5620146 37.7112162,60.3657539 37.2168139,60.3657539 C36.7225861,60.3657539 36.2499905,60.5620146 35.9010828,60.9109223 L22.3301407,74.4818644 L3.17649992,55.3283981 C2.44955059,54.6014487 1.27198688,54.6014487 0.545211999,55.3283981 C-0.181737333,56.0553474 -0.181737333,57.2329111 0.545211999,57.959686 L21.0144095,78.4288835 C21.7413588,79.1558328 22.9189226,79.1558328 23.6456974,78.4288835 L37.2168139,64.857767 L60.6320142,88.2782008 L50.2427621,88.2782008 C49.214182,88.2782008 48.3818625,89.1105203 48.3818625,90.1391004 C48.3818625,91.1676805 49.214182,92 50.2427621,92 L65.1294353,92 C66.1580154,92 66.9903349,91.1676805 66.9903349,90.1391004 L66.9903349,75.2524272 C66.9903349,74.2238471 66.1580154,73.3915276 65.1294353,73.3915276 Z" id="Path" fill="#242828" fill-rule="nonzero"></path></g></g></g></svg>