<svg xmlns="http://www.w3.org/2000/svg" xmlns:xlink="http://www.w3.org/1999/xlink" width="77px" height="90px" viewBox="0 0 77 90"><title>icon-security</title><desc>Created with Sketch.</desc><g id="Page-1" stroke="none" stroke-width="1" fill="none" fill-rule="evenodd"><g id="TomoX9" transform="translate(-135.000000, -1524.000000)"><g id="icon-security" transform="translate(135.000000, 1524.000000)"><circle id="Oval" fill="#00E8B5" cx="57" cy="63" r="20"></circle><path d="M69.1989474,9.12491228 L39.9615789,0.502280702 C37.6917544,-0.167368421 35.2912281,-0.167368421 33.0207018,0.502280702 L3.78368421,9.12473684 C1.62508772,9.76122807 0.11754386,11.7773684 0.11754386,14.0278947 L0.11754386,38.2408772 C0.11754386,49.4464912 3.45315789,60.2364912 9.76385965,69.444386 C15.9249123,78.434386 24.4991228,85.3505263 34.5585965,89.444386 C35.1817544,89.6978947 35.8364912,89.8247368 36.4912281,89.8247368 C37.1459649,89.8247368 37.8007018,89.6977193 38.4236842,89.444386 C48.4831579,85.3505263 57.0573684,78.4347368 63.2184211,69.444386 C69.5289474,60.2363158 72.8645615,49.4464912 72.8645615,38.2408772 L72.8645615,14.0280702 C72.8645615,11.7775439 71.3573684,9.76122807 69.1989474,9.12491228 Z M68.7754386,38.2407018 C68.7754386,48.6173684 65.6873684,58.6078947 59.8454386,67.1321053 C54.1384211,75.4594737 46.1980702,81.8650877 36.8824561,85.6561404 C36.6301754,85.7587719 36.3524561,85.7587719 36.1001754,85.6561404 C26.7845614,81.8650877 18.8440351,75.4596491 13.137193,67.1321053 C7.29526316,58.6078947 4.20719298,48.6175439 4.20719298,38.2407018 L4.20719298,14.0278947 C4.20719298,13.5778947 4.50877193,13.1747368 4.94052632,13.0473684 L34.1777193,4.42473684 C34.9345614,4.20140351 35.7129825,4.09 36.4914035,4.09 C37.2696491,4.09 38.0480702,4.20157895 38.8049123,4.42491228 L68.0424561,13.0473684 C68.4738596,13.1745614 68.7754386,13.5777193 68.7754386,14.0278947 L68.7754386,38.2407018 Z" id="Shape" fill="#242828" fill-rule="nonzero"></path><path d="M59.1491228,18.1675439 L37.3585965,11.7412281 C36.7912281,11.5740351 36.1915789,11.5736842 35.6238596,11.7412281 L13.8338596,18.1675439 C12.5387719,18.5496491 11.6340351,19.7594737 11.6340351,21.1096491 L11.6340351,38.2407018 C11.6340351,47.2929825 14.3722807,55.9754386 19.5522807,63.3498246 C23.5684211,69.0678947 28.9349123,73.7887719 35.0712281,77.0024561 C35.5157895,77.2354386 36.0035088,77.3517544 36.4914035,77.3517544 C36.9791228,77.3517544 37.4668421,77.2354386 37.9115789,77.0024561 C44.0477193,73.7889474 49.4142105,69.0677193 53.4305263,63.3498246 C58.6105263,55.975614 61.3487719,47.2929825 61.3487719,38.2407018 L61.3487719,21.1096491 C61.3487719,19.7591228 60.4440351,18.5494737 59.1491228,18.1675439 Z M57.2592982,38.2407018 C57.2592982,46.447193 54.7782456,54.3170175 50.084386,60.9991228 C46.5454386,66.037193 41.8542105,70.2205263 36.4914035,73.1254386 C31.1285965,70.2203509 26.437193,66.037193 22.8984211,60.9991228 C18.2045614,54.3170175 15.7235088,46.447193 15.7235088,38.2407018 L15.7235088,21.8740351 L36.4914035,15.7491228 L57.2592982,21.8740351 L57.2592982,38.2407018 Z" id="Shape" fill="#242828" fill-rule="nonzero"></path></g></g></g></svg>