<svg xmlns="http://www.w3.org/2000/svg" xmlns:xlink="http://www.w3.org/1999/xlink" width="102px" height="89px" viewBox="0 0 102 89"><title>icon-super-fast</title><desc>Created with Sketch.</desc><defs><polygon id="path-1" points="6.87595527e-06 6.29166355e-05 51.1768104 6.29166355e-05 51.1768104 79.7468354 6.87595527e-06 79.7468354"></polygon></defs><g id="Page-1" stroke="none" stroke-width="1" fill="none" fill-rule="evenodd"><g id="TomoP2" transform="translate(-135.000000, -1520.000000)"><g id="icon-super-fast" transform="translate(135.000000, 1520.000000)"><circle id="Oval" fill="#00E8B5" cx="43" cy="61" r="20"></circle><g id="Group-7"><g id="man-avatar" transform="translate(43.291139, 18.810127)" fill="#242828" fill-rule="nonzero"><path d="M28.8370106,33.8107925 C33.4819917,33.8107925 37.5036435,32.1448327 40.7905808,28.8578954 C44.076447,25.5714936 45.7429424,21.5503774 45.7429424,16.9048608 C45.7429424,12.2609507 44.0769825,8.23929884 40.7900453,4.95182617 C37.503108,1.66595993 33.4814563,0 28.8370106,0 C24.1914941,0 20.1703777,1.66595993 16.883976,4.95236164 C13.5975743,8.23876336 11.9310789,12.2604152 11.9310789,16.9048608 C11.9310789,21.5503774 13.5975743,25.5720291 16.883976,28.8584308 C20.1714488,32.1442971 24.1931005,33.8107925 28.8370106,33.8107925 Z M19.7928459,7.86069603 C22.3145448,5.33899708 25.2726811,4.11322334 28.8370106,4.11322334 C32.4008046,4.11322334 35.3594766,5.33899708 37.8817109,7.86069603 C40.4034098,10.3829303 41.6297191,13.3416022 41.6297191,16.9048608 C41.6297191,20.4691903 40.4034098,23.4273267 37.8817109,25.949561 C35.3594766,28.4717954 32.4008046,29.6975691 28.8370106,29.6975691 C25.2737522,29.6975691 22.3156158,28.4712599 19.7928459,25.949561 C17.2706116,23.4278622 16.0443022,20.4691903 16.0443022,16.9048608 C16.0443022,13.3416022 17.2706116,10.3829303 19.7928459,7.86069603 Z" id="Shape"></path><path d="M58.4178394,53.9726022 C58.3230549,52.6049192 58.1313436,51.1129989 57.8491319,49.5375395 C57.5642426,47.9502992 57.1974207,46.4498107 56.7583057,45.0783792 C56.3041964,43.6608942 55.6878287,42.261081 54.9247324,40.9196378 C54.1337896,39.5273216 53.2041508,38.3149354 52.1609846,37.3172874 C51.0701584,36.2735857 49.7346058,35.4344474 48.190206,34.8223639 C46.651161,34.2134932 44.9455737,33.9050416 43.1211039,33.9050416 C42.4045965,33.9050416 41.7116515,34.1990346 40.3734214,35.0703031 C39.5498129,35.6074159 38.5864371,36.2286032 37.5111406,36.9156577 C36.5916765,37.5015016 35.3460889,38.0503954 33.8075795,38.5473452 C32.3065555,39.0330493 30.7825048,39.2793823 29.2777323,39.2793823 C27.7740308,39.2793823 26.2499801,39.0330493 24.7478851,38.5473452 C23.2109822,38.0509309 21.9648591,37.5020371 21.0470015,36.9161932 C19.9818795,36.2355647 19.0179683,35.6143775 18.1820431,35.0697677 C16.8448841,34.1984991 16.1519389,33.9045061 15.4354317,33.9045061 C13.6104264,33.9045061 11.9053746,34.2134932 10.3668652,34.8228993 C8.82353617,35.4339119 7.48744822,36.2730502 6.39555098,37.3178229 C5.35238484,38.3160065 4.42274601,39.5278572 3.63233881,40.9196378 C2.87031341,42.261081 2.25341023,43.6603587 1.79930094,45.0789147 C1.3607213,46.4503461 0.993899569,47.9502992 0.709010253,49.5375395 C0.426262962,51.1108569 0.235087271,52.6033128 0.140302702,53.9742088 C0.0471245485,55.3145809 0,56.7095746 0,58.119027 C0,61.7829606 1.16472609,64.7491297 3.46151229,66.9366726 C5.7299167,69.0952983 8.73089363,70.189873 12.3814396,70.189873 L46.178309,70.189873 C49.827784,70.189873 52.8287609,69.0952983 55.0977008,66.9366726 C57.3950226,64.7507362 58.5597486,61.7834962 58.5597486,58.1184914 C58.5597486,56.7042195 58.5115531,55.3092258 58.4178394,53.9726022 L58.4178394,53.9726022 Z M52.2616598,63.9565804 C50.7627778,65.3831691 48.7728368,66.0766497 46.1777735,66.0766497 L12.3814396,66.0766497 C9.78584084,66.0766497 7.79589981,65.3831691 6.2975533,63.9571159 C4.82758873,62.5578382 4.11322334,60.6476874 4.11322334,58.119027 C4.11322334,56.8038237 4.15659931,55.505221 4.24335139,54.2585625 C4.32796131,53.0354664 4.50092986,51.6918812 4.75743738,50.2642216 C5.01073179,48.8542337 5.33310661,47.5309978 5.71652907,46.3330702 C6.08442175,45.1844094 6.5861912,44.0469942 7.20844937,42.9513485 C7.80232575,41.9071113 8.48563184,41.0112094 9.23962462,40.289347 C9.94488629,39.6140736 10.8338266,39.0614312 11.8812768,38.6469493 C12.8500076,38.2635268 13.9386917,38.0536084 15.120554,38.0220135 C15.2646051,38.0985909 15.5211127,38.2447841 15.9366655,38.5157503 C16.7822299,39.0667862 17.7568512,39.6954706 18.8342898,40.3835961 C20.0488179,41.157938 21.613567,41.8573092 23.4830193,42.4608248 C25.3942411,43.0787989 27.3434837,43.3926056 29.2782677,43.3926056 C31.2130518,43.3926056 33.16283,43.0787989 35.0729808,42.4613602 C36.9440395,41.8567737 38.5082533,41.157938 39.7243879,40.382525 C40.8269952,39.6777989 41.7743057,39.0673217 42.6198701,38.5157503 C43.0354229,38.2453197 43.2919304,38.0985909 43.4359816,38.0220135 C44.6183794,38.0536084 45.7070635,38.2635268 46.6763298,38.6469493 C47.7232446,39.0614312 48.6121848,39.6146091 49.3174466,40.289347 C50.0714394,41.0106739 50.7547453,41.9065758 51.3486217,42.951884 C51.9714155,44.0469942 52.4737203,45.1849449 52.8410776,46.3325348 C53.2250355,47.5320687 53.5479458,48.8547692 53.8007048,50.2636861 C54.0566767,51.6940232 54.2301807,53.0381439 54.3147908,54.2590981 L54.3147908,54.260169 C54.4020783,55.502008 54.4459897,56.8000751 54.4465252,58.119027 C54.4459897,60.648223 53.7316244,62.5578382 52.2616598,63.9565804 L52.2616598,63.9565804 Z" id="Shape"></path></g><g id="Group-3"><mask id="mask-2" fill="white"><use xlink:href="#path-1"></use></mask><g id="Clip-2"></g><path d="M17.8674594,4.08036402 C17.731874,4.08036402 17.6117032,4.16718897 17.5689199,4.29585349 L5.00399596,42.129042 C4.97222305,42.2249899 4.98842409,42.3303753 5.04756573,42.4121669 C5.10670736,42.4942731 5.20155419,42.5427189 5.30253539,42.5427189 L25.5873305,42.5427189 C26.2734364,42.5427189 26.909209,42.8851427 27.2881245,43.4586278 C27.6673545,44.0325848 27.7329451,44.7521938 27.4636619,45.3838769 L19.030788,65.1552723 C18.9702307,65.2971493 19.021665,65.4619909 19.1520598,65.5445689 C19.203966,65.5772856 19.2621639,65.593172 19.3200472,65.593172 C19.4076586,65.593172 19.4940117,65.5568377 19.55567,65.4871575 L44.1397161,37.7273942 C44.221665,37.6345922 44.2417984,37.5024672 44.1909932,37.3896892 C44.1403453,37.2767538 44.0280391,37.2040851 43.9042506,37.2040851 L25.5873305,37.2040851 C24.8537226,37.2040851 24.1951427,36.8248551 23.8255075,36.1895543 C23.4554003,35.5533099 23.4511535,34.7926477 23.8137106,34.1549876 L40.6503595,4.55050858 C40.7058835,4.45314508 40.7052543,4.33360348 40.6487866,4.23686915 C40.5926335,4.13997753 40.4889784,4.08036402 40.3769867,4.08036402 L17.8674594,4.08036402 Z M11.4575125,79.7468984 C11.071519,79.7468984 10.6946483,79.6374234 10.3679537,79.4307423 C9.51794997,78.8932769 9.18748034,77.8314014 9.58212493,76.9058977 L22.3118905,47.0612344 C22.3534155,46.9640282 22.3433488,46.8525084 22.2851509,46.7642678 C22.2267957,46.6761846 22.1283312,46.6231773 22.0226313,46.6231773 L2.03967868,46.6231773 C1.38628942,46.6231773 0.767661598,46.3067066 0.385128455,45.7767913 C0.0027526028,45.2468759 -0.10247547,44.5599835 0.103576511,43.9396255 L14.2321362,1.3972841 C14.5095985,0.561436597 15.2875627,6.29166355e-05 16.1682383,6.29166355e-05 L44.4253577,6.29166355e-05 C45.1495281,6.29166355e-05 45.8252528,0.388573141 46.1885964,1.01412179 C46.5527264,1.64045689 46.5566587,2.41983672 46.1989776,3.0483739 L29.3616995,32.6536394 C29.3061756,32.7510029 29.3068047,32.8705445 29.3631151,32.9672789 C29.4194255,33.0641705 29.5230807,33.1236267 29.6350723,33.1236267 L49.1349824,33.1236267 C49.9464497,33.1236267 50.6580369,33.5848056 50.9922815,34.3269073 C51.3268407,35.0697955 51.2003782,35.9087889 50.662441,36.5167208 L12.9862295,79.0593768 C12.5989776,79.4961756 12.0416935,79.7468984 11.4575125,79.7468984 Z" id="Fill-1" fill="#242828" mask="url(#mask-2)"></path></g></g></g></g></g></svg>