<svg xmlns="http://www.w3.org/2000/svg" xmlns:xlink="http://www.w3.org/1999/xlink" width="175px" height="134px" viewBox="0 0 175 134"><title>Group 7</title><defs><path d="M124.041051,62.3448276 L104.073892,62.3448276 C90.2965517,62.3448276 79.1149425,73.4675862 79.1149425,87.1724138 L79.1149425,107.034483 C79.1149425,109.815503 81.3109973,112 84.1067323,112 L144.00821,112 C146.803945,112 149,109.815503 149,107.034483 L149,87.1724138 C149,73.4675862 137.818391,62.3448276 124.041051,62.3448276 Z" id="path-1"></path><filter x="-42.9%" y="-60.4%" width="185.9%" height="220.8%" filterUnits="objectBoundingBox" id="filter-2"><feGaussianBlur stdDeviation="10"></feGaussianBlur></filter><path d="M113.597701,32 C102.724467,32 93.8275862,41.1037854 93.8275862,52.2298851 C93.8275862,63.3559847 102.724467,72.4597701 113.597701,72.4597701 C124.470935,72.4597701 133.367816,63.3559847 133.367816,52.2298851 C133.367816,41.1037854 124.470935,32 113.597701,32 Z" id="path-3"></path><filter x="-75.9%" y="-74.1%" width="251.7%" height="248.3%" filterUnits="objectBoundingBox" id="filter-4"><feGaussianBlur stdDeviation="10"></feGaussianBlur></filter></defs><g id="Page-1" stroke="none" stroke-width="1" fill="none" fill-rule="evenodd"><g id="Staking-2-Copy" transform="translate(-343.000000, -2906.000000)"><g id="Group-7" transform="translate(343.000000, 2906.000000)"><g id="Group-11" transform="translate(143.000000, 92.000000)"><g id="Group-6" fill="#00E8B5"><circle id="Oval" cx="16" cy="16" r="16"></circle></g><g id="clipboard-verification-outlined-sign" transform="translate(9.777778, 8.000000)" fill="#FFFFFF" fill-rule="nonzero"><path d="M9.411743,2.10654366 C9.09785832,1.90144316 8.75611203,1.75188138 8.44025041,1.64375618 C8.29274465,1.25640857 8.05704119,0.907808896 7.75367381,0.634728171 C7.30841516,0.233911038 6.73976936,0.0131795717 6.15246129,0.0131795717 C5.56515321,0.0131795717 4.99650741,0.233911038 4.55122241,0.63475453 C4.24785502,0.907835255 4.01212521,1.25646129 3.8646458,1.64378254 C3.54878418,1.75190774 3.20703789,1.90144316 2.89312685,2.10657002 L1.55342339,2.10657002 C0.708375618,2.10657002 0.0209028007,2.79406919 0.0209028007,3.63909061 L0.0209028007,14.4494761 C0.0209028007,15.2945239 0.708401977,15.9820231 1.55342339,15.9820231 L10.7514465,15.9820231 C11.5964942,15.9820231 12.2839671,15.2945239 12.2839671,14.4494761 L12.2839671,3.63906425 C12.2839671,2.79404283 11.5964942,2.10654366 10.7514465,2.10654366 L9.411743,2.10654366 Z M4.84681384,2.30273476 C4.85975618,2.23549259 4.87710049,2.17004283 4.89813509,2.10657002 C5.08441516,1.54419769 5.57553871,1.14240527 6.15243493,1.14240527 C6.72933114,1.14240527 7.2204547,1.54419769 7.40673476,2.10657002 C7.42776936,2.17006919 7.44511367,2.23549259 7.45805601,2.30273476 C7.48752554,2.45588138 7.60495552,2.57628995 7.75578254,2.61601318 C8.30320923,2.76027677 8.74946952,2.97618451 9.03420099,3.23576936 C9.07909061,3.27670511 9.12010544,3.31869522 9.15671829,3.36168699 C9.33730478,3.57377265 9.18837562,3.89986161 8.90978583,3.89986161 L3.39508402,3.89986161 C3.11652059,3.89986161 2.96756507,3.57379901 3.14817792,3.36168699 C3.18479077,3.31866886 3.2258056,3.27670511 3.27069522,3.23576936 C3.55540033,2.97615815 4.00168699,2.76025041 4.54911367,2.61601318 C4.69994069,2.57626359 4.81737068,2.45585502 4.84681384,2.30273476 Z M11.1547414,3.63906425 L11.1547414,14.4494498 C11.1547414,14.6722109 10.9741812,14.852771 10.7514465,14.852771 L1.55344975,14.852771 C1.33071499,14.852771 1.15015486,14.6722109 1.15015486,14.4494498 L1.15015486,3.63906425 C1.15015486,3.41632949 1.33071499,3.23576936 1.55344975,3.23576936 L1.9798089,3.23576936 C1.96644481,3.29172982 1.95621746,3.34858649 1.94957496,3.4062603 C1.91889292,3.67188138 1.96220099,3.94114003 2.07478089,4.18485667 C2.18712356,4.42807249 2.3635453,4.63512356 2.58496211,4.78365733 C2.82430313,4.94423723 3.10444811,5.02908731 3.39511038,5.02908731 L8.90981219,5.02908731 C9.20050082,5.02908731 9.4806458,4.94421087 9.71996046,4.78365733 C9.94137727,4.63512356 10.1178254,4.42804613 10.2301417,4.18485667 C10.3427216,3.94114003 10.3860297,3.67190774 10.3553476,3.4062603 C10.3486787,3.34858649 10.3384514,3.29172982 10.3251137,3.23576936 L10.7514728,3.23576936 C10.9741812,3.23576936 11.1547414,3.41632949 11.1547414,3.63906425 Z" id="Shape"></path><path d="M6.15246129,2.8801318 C6.46721582,2.8801318 6.72239868,2.62497529 6.72239868,2.3101944 C6.72239868,2.23841845 6.70898188,2.1698056 6.68475783,2.10654366 C6.60280725,1.89237562 6.39541351,1.740257 6.15246129,1.740257 C5.90950906,1.740257 5.70214168,1.89237562 5.62013839,2.10654366 C5.59594069,2.16977924 5.58252389,2.23841845 5.58252389,2.3101944 C5.58252389,2.62497529 5.8376804,2.8801318 6.15246129,2.8801318 Z" id="Path"></path><path d="M8.69495881,7.43609885 L5.0552883,11.0757694 L3.6099374,9.63044481 C3.3894168,9.40995058 3.0319341,9.40995058 2.81143987,9.63044481 C2.59094563,9.85093904 2.59094563,10.2083954 2.81143987,10.4289423 L4.65602636,12.2735288 C4.7619374,12.3794399 4.90554201,12.4388797 5.05526194,12.4388797 C5.20498188,12.4388797 5.34861285,12.3794135 5.45449753,12.2735288 L9.49345634,8.23459638 C9.71392422,8.01410214 9.71392422,7.65661944 9.49345634,7.43609885 C9.27293575,7.21563097 8.91545305,7.21563097 8.69495881,7.43609885 Z" id="Path"></path></g></g><rect id="Rectangle-Copy-13" fill="#242828" x="32" y="90" width="58" height="44"></rect><path d="M26,0 L67,0 C79.7025492,-2.33342044e-15 90,10.2974508 90,23 C90,35.7025492 79.7025492,46 67,46 L0,46 L0,46 L0,26 C-5.31123343e-15,11.6405965 11.6405965,-9.1493405e-16 26,0 Z" id="Rectangle-Copy-12" fill="#00E8B5" opacity="0.1" transform="translate(45.000000, 23.000000) scale(-1, 1) translate(-45.000000, -23.000000) "></path><g id="Path" transform="translate(114.057471, 87.172414) scale(-1, 1) translate(-114.057471, -87.172414) "><use fill="black" fill-opacity="1" filter="url(#filter-2)" xlink:href="#path-1"></use><use fill="#FFFFFF" fill-rule="evenodd" xlink:href="#path-1"></use></g><path d="M114.057471,87.1724138 L114.057471,107.034483 C114.057471,109.815503 111.861417,112 109.065681,112 L79.1149425,112 L79.1149425,62.3448276 L89.0985222,62.3448276 C102.875862,62.3448276 114.057471,73.4675862 114.057471,87.1724138 Z" id="Path" fill="#E6E8F2" fill-rule="nonzero" transform="translate(96.586207, 87.172414) scale(-1, 1) translate(-96.586207, -87.172414) "></path><g id="Path" transform="translate(113.597701, 52.229885) scale(-1, 1) translate(-113.597701, -52.229885) "><use fill="black" fill-opacity="1" filter="url(#filter-4)" xlink:href="#path-3"></use><use fill="#FFFFFF" fill-rule="evenodd" xlink:href="#path-3"></use></g><path d="M114.057471,52.2298851 C114.057471,63.3559847 104.953686,72.4597701 93.8275862,72.4597701 L93.8275862,32 C104.953686,32 114.057471,41.1037854 114.057471,52.2298851 Z" id="Path" fill="#EDEEF5" fill-rule="nonzero" transform="translate(103.942529, 52.229885) scale(-1, 1) translate(-103.942529, -52.229885) "></path><rect id="Rectangle" fill="#242828" transform="translate(131.448276, 80.735632) scale(-1, 1) translate(-131.448276, -80.735632) " x="127.770115" y="77.0574713" width="7.35632184" height="7.35632184" rx="2"></rect><g id="shield" transform="translate(52.000000, 101.000000)" fill="#FFFFFF" fill-rule="nonzero"><path d="M18.6759107,6.00038074 L18.6752406,5.98329373 C18.665692,5.77238667 18.6593262,5.54925075 18.6554733,5.30098684 C18.6375487,4.09032345 17.6751493,3.08889195 16.4643184,3.02121407 C13.9397996,2.88033014 11.9868573,2.05713938 10.3181956,0.430692628 L10.3039565,0.417123517 C9.75968567,-0.0819170214 8.93867265,-0.0819170214 8.39423427,0.417123517 L8.37999513,0.430692628 C6.71133347,2.05713938 4.75839119,2.88033014 2.23387245,3.02138158 C1.02320906,3.08889195 0.0606420351,4.09032345 0.0427174815,5.30115435 C0.0390320312,5.54774304 0.0324987602,5.77087901 0.0229501598,5.98329373 L0.0219450643,6.02299584 C-0.0271381365,8.5972679 -0.0881152749,11.8010782 0.983674464,14.7090491 C1.57300806,16.3081902 2.46555192,17.6982669 3.63634565,18.8409174 C4.96980081,20.1422088 6.71635903,21.1753015 8.8274397,21.9113822 C8.89612267,21.9353375 8.967486,21.9547697 9.04018944,21.9693439 C9.14271137,21.9897813 9.24590338,22 9.34909538,22 C9.45228739,22 9.55564691,21.9897813 9.65800133,21.9693439 C9.73070481,21.9547697 9.80257066,21.9351699 9.87158869,21.9110471 C11.9801566,21.1736264 13.7248721,20.1400311 15.0571546,18.8389071 C16.2274458,17.6959217 17.1199896,16.3055099 17.7098258,14.7060338 C18.785636,11.7893519 18.7248264,8.57951085 18.6759107,6.00038074 Z M16.5010051,14.2602644 C15.3705836,17.325201 13.0630026,19.4300835 9.44642424,20.6948556 C9.43352521,20.6992111 9.41978863,20.7030641 9.40554944,20.7059119 C9.36819263,20.7132828 9.33016569,20.7132828 9.29230631,20.7057444 C9.27823463,20.7028966 9.26449805,20.6992111 9.25176657,20.6948556 C5.63133528,19.4324287 3.32224659,17.3287189 2.19266264,14.2636147 C1.20480019,11.5831353 1.26075173,8.64216312 1.31016995,6.04762121 L1.31050501,6.03321456 C1.32055618,5.8102461 1.32725696,5.57672391 1.33094236,5.32008409 C1.3389833,4.782514 1.76716312,4.33774978 2.3057383,4.30776378 C3.73434454,4.2280245 4.98940058,3.95195237 6.14260478,3.46380055 C7.2943013,2.97631885 8.31717531,2.28915386 9.26935611,1.36310611 C9.31776927,1.32223135 9.38058905,1.32206384 9.42883466,1.36310611 C10.381183,2.28915386 11.404057,2.97631885 12.555586,3.46380055 C13.7087902,3.95195237 14.9638463,4.2280245 16.39262,4.30776378 C16.9311952,4.33774978 17.359375,4.782514 17.3672484,5.32025159 C17.3711014,5.57823161 17.3778021,5.81175377 17.3878533,6.03321456 C17.437104,8.6307718 17.4917154,11.5740893 16.5010051,14.2602644 Z" id="Shape"></path><path d="M9.34876037,5.54975328 C6.33139926,5.54975328 3.87673613,8.00458395 3.87673613,11.0217775 C3.87673613,14.0391387 6.33139926,16.4939693 9.34876037,16.4939693 C12.3659539,16.4939693 14.8207846,14.0391387 14.8207846,11.0217775 C14.8207846,8.00458395 12.3659539,5.54975328 9.34876037,5.54975328 Z M9.34876037,15.2054094 C7.04184942,15.2054094 5.16512852,13.3286885 5.16512852,11.0217775 C5.16512852,8.7148666 7.04184942,6.83814571 9.34876037,6.83814571 C11.6555038,6.83814571 13.5322247,8.7148666 13.5322247,11.0217775 C13.5322247,13.3286885 11.6555038,15.2054094 9.34876037,15.2054094 Z" id="Shape"></path><path d="M10.9214334,9.32296234 L8.37982762,11.8645681 L7.68998232,11.1747228 C7.43836807,10.9231085 7.03045809,10.9231085 6.77884379,11.1747228 C6.52739704,11.4263371 6.52739704,11.8342471 6.77884379,12.0856938 L7.92434211,13.2311921 C8.05014926,13.3569993 8.21498844,13.4198191 8.37982762,13.4198191 C8.5446668,13.4198191 8.70950598,13.3569993 8.83531313,13.2311921 L11.8325719,10.2339334 C12.0840187,9.98231907 12.0840187,9.57440909 11.8325719,9.32296234 C11.5809576,9.07118058 11.1730476,9.07118058 10.9214334,9.32296234 Z" id="Path"></path></g><g id="startup" transform="translate(31.000000, 9.000000)" fill="#00E8B5" fill-rule="nonzero"><path d="M14.6638129,13.2823158 C14.4504016,13.0689045 14.1049045,13.0689045 13.8914932,13.2823158 C13.6786277,13.4951813 13.6786277,13.8406784 13.8914932,14.0540897 C14.1049045,14.2669552 14.4504016,14.2669552 14.6638129,14.0540897 C14.8766784,13.8406784 14.8766784,13.4951813 14.6638129,13.2823158 Z" id="Path"></path><path d="M21.6103782,6.33520468 C20.5438674,5.26874854 18.8173645,5.26869396 17.7507992,6.33520468 C16.6870721,7.39893177 16.6870175,9.13023782 17.750963,10.1948382 C18.8150721,11.2582924 20.5463782,11.258729 21.6103782,10.194729 C22.6767797,9.12832749 22.6769981,7.40176998 21.6103782,6.33520468 Z M20.8384951,9.42279142 C20.2002807,10.0610604 19.1613879,10.0610604 18.522846,9.42290058 C17.8845224,8.78419493 17.8844678,7.74530214 18.5227368,7.10708772 C19.1625887,6.46723587 20.1985341,6.46712671 20.8384951,7.10708772 C21.478347,7.74688499 21.4784561,8.78288499 20.8384951,9.42279142 Z" id="Shape"></path><path d="M27.7854971,0.159867446 C27.6783002,0.0527251462 27.5320234,-0.00534892788 27.379961,0.000382066277 C27.2565536,0.00480311891 24.318191,0.122916179 20.8252865,1.35748148 C18.0263782,2.3457232 15.6934269,3.76062378 13.8912203,5.56288499 C13.4873762,5.96672904 13.0943938,6.39497076 12.718386,6.83985965 C10.9364288,5.79092398 9.50848343,6.11982846 8.60576998,6.60292398 C6.52727485,7.71528265 5.24074854,10.7355712 5.24074854,12.895883 C5.24074854,13.1166082 5.37392593,13.3156647 5.57784016,13.4001014 C5.64535673,13.4281014 5.71631189,13.441692 5.78661209,13.441692 C5.92868616,13.441692 6.06824951,13.3861832 6.17266277,13.2818246 C7.26881092,12.1856764 8.62083431,12.25423 9.06250292,12.3123041 L9.25364522,12.5034464 C8.87747368,13.3985731 8.57444055,14.2886784 8.35218713,15.154386 C8.27195322,15.4676803 8.29902534,15.7992047 8.4182846,16.1024561 C7.89277973,16.3446316 7.38577778,16.7002261 6.94432749,17.1416764 C5.53936062,18.5466979 5.25406628,21.9707758 5.24260429,22.1158519 C5.23005068,22.2750643 5.28779727,22.4318207 5.40072515,22.5447485 C5.50350097,22.6474698 5.64251852,22.704616 5.78661209,22.704616 C5.80091228,22.704616 5.81526706,22.7040702 5.82962183,22.702924 C5.97469786,22.6915166 9.39888499,22.4062222 10.8038519,21.0012554 C11.2451384,20.5599688 11.6006784,20.0530214 11.8428538,19.5276257 C12.1638986,19.6538713 12.4943314,19.6694269 12.7914698,19.5932865 C13.6567953,19.3710877 14.5467914,19.0681637 15.4420273,18.6919376 L15.6331696,18.8830799 C15.6911891,19.3248031 15.7597427,20.6768265 14.6636491,21.7728655 C14.5076023,21.9289669 14.4608811,22.1637193 14.5453723,22.3676335 C14.629809,22.5716023 14.8288109,22.704616 15.0495906,22.704616 C17.2099025,22.704616 20.2301365,21.4180351 21.3424951,19.33954 C21.8255906,18.4369357 22.1544951,17.0089903 21.1055595,15.2269786 C21.55023,14.8511345 21.9785263,14.458152 22.3825341,14.0541442 C24.1847953,12.251883 25.5996413,9.91893177 26.587883,7.12024172 C27.8225029,3.62717349 27.9405614,0.688756335 27.9449825,0.565403509 C27.9504405,0.41394152 27.8926394,0.267064327 27.7854971,0.159867446 Z M6.46106823,11.7219025 C6.80012476,10.081037 7.78492788,8.28046784 9.12106823,7.56534893 C10.0139571,7.08754776 10.9899181,7.13437817 12.0276101,7.70240156 C11.1435634,8.86508382 10.3750097,10.1177154 9.73439376,11.4404834 C9.72626121,11.435462 9.62801559,11.3119454 9.44549708,11.2707914 C9.37044834,11.2538168 7.9262924,10.9431969 6.46106823,11.7219025 Z M10.0319688,20.2293177 C9.28148148,20.9798051 7.52097466,21.3756257 6.40823392,21.5372398 C6.56990253,20.4244444 6.96577778,18.6639922 7.71621053,17.9135595 C8.13648343,17.4932865 8.62378168,17.1746433 9.11359064,16.9951813 L10.950347,18.8319376 C10.770885,19.3217466 10.4522963,19.8090448 10.0319688,20.2293177 Z M12.5203119,18.5358363 C12.3623548,18.5762807 12.1793996,18.5168967 12.043384,18.3810994 C11.337271,17.6749864 11.061037,17.3987524 10.9743626,17.3121326 C10.815423,17.153193 10.4256608,16.7634308 9.56475634,15.9024717 C9.42863158,15.7660741 9.36924756,15.5831735 9.40958285,15.4254893 C9.58440546,14.7446472 9.81304483,14.0461209 10.0910799,13.3408811 L14.6046472,17.8544483 C13.8992982,18.132538 13.2008811,18.3611228 12.5203119,18.5358363 Z M20.3801793,18.82446 C19.6650604,20.1605458 17.8645458,21.1454035 16.2237349,21.4844055 C16.7468928,20.4999298 16.8622222,19.2466979 16.6710799,18.486768 C16.6267057,18.3102534 16.51154,18.2215049 16.5050994,18.2110799 C17.8277583,17.5704639 19.0803353,16.8019103 20.2431267,15.9178635 C20.8111501,16.9556647 20.8579259,17.9317349 20.3801793,18.82446 Z M21.6107602,13.2822612 C21.1189318,13.7740351 20.5893333,14.2491618 20.0366472,14.6943782 C18.708039,15.7641637 17.2457076,16.6703158 15.6855673,17.3916569 L10.5538713,12.2600702 C11.2752125,10.6998207 12.1813645,9.23748928 13.2510409,7.90904483 C13.6966394,7.35597661 14.1717115,6.82632359 14.6633216,6.33476803 C16.2802807,4.71775439 18.3671267,3.430846 20.8675867,2.50449903 L25.4410292,7.07794152 C24.5147914,9.57834698 23.227883,11.665193 21.6107602,13.2822612 Z M25.8337388,5.92677583 L22.0187524,2.11178947 C24.0972476,1.46620663 25.9054581,1.22446784 26.8080078,1.13757505 C26.7210604,2.0402885 26.4792671,3.84849903 25.8337388,5.92677583 Z" id="Shape"></path><path d="M13.1196647,22.5445848 C12.9064172,22.3314464 12.5608109,22.3315556 12.3477271,22.544694 L10.8041793,24.0887875 C10.5910955,24.3019805 10.5911501,24.6475867 10.8042885,24.8606706 C11.0175361,25.0737544 11.3631423,25.0737544 11.5762261,24.8605614 L13.1197739,23.3164678 C13.3328577,23.1032749 13.3328031,22.7576686 13.1196647,22.5445848 Z" id="Path"></path><path d="M5.40099805,14.8258635 C5.18791423,14.6126706 4.84236257,14.6126706 4.62911501,14.8257544 L3.08502144,16.3693021 C2.87182846,16.582386 2.87177388,16.9279922 3.0848577,17.1411852 C3.29788694,17.354269 3.6434386,17.3544873 3.85674074,17.1412943 L5.40083431,15.5977466 C5.61402729,15.3846628 5.61408187,15.0390565 5.40099805,14.8258635 Z" id="Path"></path><path d="M9.26035867,23.3169591 C9.04732943,23.1038207 8.70166862,23.1038207 8.48847563,23.3169045 L4.79116569,27.0136686 C4.57797271,27.226807 4.57797271,27.5724133 4.79111111,27.7855517 C5.00414035,27.9986901 5.34980117,27.9987992 5.56299415,27.7856062 L9.26030409,24.0888421 C9.47349708,23.8757037 9.47349708,23.5300975 9.26035867,23.3169591 Z" id="Path"></path><path d="M4.89388694,23.3169591 C4.68080312,23.1038207 4.3351423,23.1038207 4.1220039,23.3169045 L0.424693957,27.0136686 C0.211500975,27.226807 0.211500975,27.5724133 0.424639376,27.7855517 C0.637668616,27.9986901 0.983329435,27.9987992 1.19652242,27.7856062 L4.89383236,24.0888421 C5.10702534,23.8757037 5.10702534,23.5300975 4.89388694,23.3169591 Z" id="Path"></path><path d="M4.6285692,18.685115 C4.41548538,18.4720312 4.06982456,18.4720312 3.85668616,18.6851696 L0.159922027,22.3824795 C-0.0532163743,22.5956725 -0.0532163743,22.9412242 0.159976608,23.1544172 C0.37311501,23.3675556 0.718721248,23.3675556 0.931859649,23.1543626 L4.62862378,19.4570526 C4.84176218,19.2438596 4.84176218,18.898308 4.6285692,18.685115 Z" id="Path"></path><path d="M16.9791891,10.9663392 C16.7659961,10.7532008 16.420499,10.7532008 16.2072515,10.9663392 L15.4354776,11.7381131 C15.2223392,11.9512515 15.2223392,12.2968577 15.4354776,12.5100507 C15.6486706,12.7231891 15.9942222,12.7231891 16.2074152,12.5100507 L16.9791891,11.7382768 C17.1923275,11.5251384 17.1923275,11.1795322 16.9791891,10.9663392 Z" id="Path"></path></g></g></g></g></svg>