<svg xmlns="http://www.w3.org/2000/svg" xmlns:xlink="http://www.w3.org/1999/xlink" width="71px" height="70px" viewBox="0 0 71 70"><title>icon-frictionless-exper</title><desc>Created with Sketch.</desc><g id="Page-1" stroke="none" stroke-width="1" fill="none" fill-rule="evenodd"><g id="TomoX9" transform="translate(-1005.000000, -10074.000000)" fill="#00E8B5" fill-rule="nonzero"><g id="icon-frictionless-exper" transform="translate(1005.000000, 10074.000000)"><path d="M47.5837743,70 C45.9002548,70 44.3141289,69.2638889 43.228885,67.9722222 C43.1175779,67.8472222 42.9645307,67.7777778 42.7975701,67.7777778 C42.7280031,67.7777778 42.6723496,67.7916667 42.6027827,67.8194444 C38.6374682,69.3055556 33.5869097,70 26.7136978,70 C18.3517539,70 12.4663923,68.9444444 8.20889673,66.6666667 C2.76876347,63.75 0,58.75 0,51.8055556 C0,46.9027778 1.34959828,41.9861111 3.90966098,37.5833333 C6.40015677,33.3194444 9.87850284,29.75 13.9829512,27.2777778 C14.122085,27.1944444 14.2194787,27.0416667 14.2473055,26.8888889 C14.2751323,26.7222222 14.2194787,26.5555556 14.1081717,26.4305556 C13.1759749,25.3888889 12.6611797,24.0416667 12.6611797,22.6388889 C12.6611797,20.4583333 13.9412111,18.4305556 15.930825,17.4861111 C16.1812659,17.3611111 16.3064864,17.0833333 16.2230061,16.8055556 L12.74466,6.15277778 C12.5916128,5.69444444 12.6750931,5.18055556 12.9672742,4.77777778 C13.2594552,4.38888889 13.7185969,4.15277778 14.2055654,4.15277778 L20.8283363,4.15277778 C21.0648638,4.15277778 21.2735646,4 21.3570449,3.77777778 C22.1361944,1.52777778 24.3066823,0 26.7136978,0 C29.1207133,0 31.2912013,1.52777778 32.0981775,3.79166667 C32.1816578,4.01388889 32.3903586,4.16666667 32.6268861,4.16666667 L39.2357437,4.16666667 C39.7227121,4.16666667 40.1818538,4.40277778 40.4740349,4.79166667 C40.766216,5.18055556 40.8357829,5.69444444 40.696649,6.16666667 L37.218303,16.8194444 C37.1348227,17.0833333 37.2600431,17.375 37.510484,17.5 C39.500098,18.4444444 40.7801293,20.4583333 40.7801293,22.6527778 C40.7801293,24.0555556 40.2653341,25.4027778 39.3331374,26.4444444 C39.2218303,26.5694444 39.1661768,26.7361111 39.1940035,26.9027778 C39.2218303,27.0694444 39.319224,27.2083333 39.4583578,27.2916667 C42.1158142,28.8888889 44.5089163,30.9722222 46.5680972,33.4583333 C46.6794043,33.5833333 46.8324515,33.6666667 46.9994121,33.6666667 C47.0133255,33.6666667 47.0411523,33.6666667 47.0550656,33.6666667 C47.2359396,33.6527778 47.4168136,33.6388889 47.5976876,33.6388889 L64.4328826,33.6388889 C67.5773075,33.6388889 70.1373702,36.1944444 70.1373702,39.3333333 C70.1373702,40.7361111 69.622575,42.0833333 68.6764648,43.125 C68.4816774,43.3333333 68.4816774,43.6527778 68.6764648,43.8611111 C69.622575,44.9027778 70.1373702,46.25 70.1373702,47.6527778 C70.1373702,49.0555556 69.622575,50.4027778 68.6764648,51.4444444 C68.4816774,51.6527778 68.4816774,51.9722222 68.6764648,52.1805556 C69.622575,53.2222222 70.1373702,54.5694444 70.1373702,55.9722222 C70.1373702,57.375 69.622575,58.7222222 68.6764648,59.7638889 C68.4816774,59.9722222 68.4816774,60.2916667 68.6764648,60.5 C69.622575,61.5416667 70.1373702,62.8888889 70.1373702,64.2916667 C70.1373702,67.4305556 67.5773075,69.9861111 64.4328826,69.9861111 L47.5837743,69.9861111 L47.5837743,70 Z M47.5837743,61.6666667 C46.1228689,61.6666667 44.9402312,62.8472222 44.9402312,64.3055556 C44.9402312,65.7638889 46.1228689,66.9444444 47.5837743,66.9444444 L64.4189692,66.9444444 C65.8798746,66.9444444 67.0625122,65.7638889 67.0625122,64.3055556 C67.0625122,62.8472222 65.8798746,61.6666667 64.4189692,61.6666667 L47.5837743,61.6666667 Z M18.7691554,28.3333333 C18.6995885,28.3333333 18.6161082,28.3472222 18.5604546,28.375 C14.0664315,30.25 10.1985107,33.4861111 7.37409367,37.75 C4.54967666,42.0138889 3.06094454,46.875 3.06094454,51.8055556 C3.06094454,57.6944444 5.16186557,61.5694444 9.65588869,63.9722222 C13.4542426,66 18.8804625,66.9444444 26.7136978,66.9444444 C33.2112483,66.9444444 37.9139722,66.3055556 41.5175387,64.9583333 C41.7401529,64.875 41.8792867,64.6666667 41.8792867,64.4305556 L41.8792867,64.3888889 C41.8792867,64.3611111 41.8792867,64.3472222 41.8792867,64.3194444 C41.8792867,62.9166667 42.3940819,61.5694444 43.340192,60.5277778 C43.5349794,60.3194444 43.5349794,60 43.340192,59.7916667 C42.3940819,58.75 41.8792867,57.4027778 41.8792867,56 C41.8792867,54.5972222 42.3940819,53.25 43.340192,52.2083333 C43.5349794,52 43.5349794,51.6805556 43.340192,51.4722222 C42.3940819,50.4305556 41.8792867,49.0833333 41.8792867,47.6805556 C41.8792867,46.2777778 42.3940819,44.9305556 43.340192,43.8888889 C43.5349794,43.6805556 43.5349794,43.3611111 43.340192,43.1527778 C42.3940819,42.1111111 41.8792867,40.7638889 41.8792867,39.3611111 C41.8792867,37.875 42.4497354,36.4722222 43.4932393,35.4027778 C43.70194,35.1944444 43.70194,34.8611111 43.5071527,34.6388889 C41.058397,31.9166667 38.0670194,29.7638889 34.866941,28.4305556 C34.7973741,28.4027778 34.7278072,28.3888889 34.6582403,28.3888889 L18.7691554,28.3888889 L18.7691554,28.3333333 Z M47.5837743,53.3333333 C46.1228689,53.3333333 44.9402312,54.5138889 44.9402312,55.9722222 C44.9402312,57.4305556 46.1228689,58.6111111 47.5837743,58.6111111 L64.4189692,58.6111111 C65.8798746,58.6111111 67.0625122,57.4305556 67.0625122,55.9722222 C67.0625122,54.5138889 65.8798746,53.3333333 64.4189692,53.3333333 L47.5837743,53.3333333 Z M47.5837743,45 C46.1228689,45 44.9402312,46.1805556 44.9402312,47.6388889 C44.9402312,49.0972222 46.1228689,50.2777778 47.5837743,50.2777778 L64.4189692,50.2777778 C65.8798746,50.2777778 67.0625122,49.0972222 67.0625122,47.6388889 C67.0625122,46.1805556 65.8798746,45 64.4189692,45 L47.5837743,45 Z M47.5837743,36.6666667 C46.1228689,36.6666667 44.9402312,37.8472222 44.9402312,39.3055556 C44.9402312,40.7638889 46.1228689,41.9444444 47.5837743,41.9444444 L64.4189692,41.9444444 C65.8798746,41.9444444 67.0625122,40.7638889 67.0625122,39.3055556 C67.0625122,37.8472222 65.8798746,36.6666667 64.4189692,36.6666667 L47.5837743,36.6666667 Z M35.0617284,25.2777778 C36.5226337,25.2777778 37.7052714,24.0972222 37.7052714,22.6388889 C37.7052714,21.1944444 36.5226337,20 35.0756418,20 C35.0617284,20 35.0617284,20 35.047815,20 L18.3795806,20 C18.3656673,20 18.3656673,20 18.3517539,20 C16.8908485,20.0138889 15.7221242,21.1944444 15.7221242,22.6388889 C15.7221242,24.0972222 16.9047619,25.2777778 18.3656673,25.2777778 C18.3656673,25.2777778 35.0199882,25.2777778 35.0199882,25.2777778 L35.0617284,25.2777778 Z M17.0717225,7.22222222 C16.8908485,7.22222222 16.7238879,7.30555556 16.6264942,7.45833333 C16.5151871,7.59722222 16.4873604,7.79166667 16.5430139,7.95833333 L19.3535175,16.5694444 C19.4230845,16.7916667 19.6456986,16.9583333 19.8822261,16.9583333 L33.5451695,16.9583333 C33.781697,16.9583333 34.0043112,16.8055556 34.0738781,16.5694444 L36.8843817,7.95833333 C36.9400353,7.79166667 36.9122085,7.59722222 36.8009014,7.45833333 C36.6895944,7.31944444 36.5226337,7.22222222 36.3556731,7.22222222 L32.9747208,7.22222222 C32.6686263,7.22222222 32.4181854,7.47222222 32.4181854,7.77777778 L32.4181854,9.86111111 C32.4181854,10.7083333 31.7364296,11.3888889 30.8877131,11.3888889 C30.0389967,11.3888889 29.3572408,10.7083333 29.3572408,9.86111111 L29.3572408,5.69444444 C29.3572408,4.23611111 28.1746032,3.05555556 26.7136978,3.05555556 C25.2527925,3.05555556 24.0701548,4.23611111 24.0701548,5.69444444 C24.0701548,6.54166667 23.388399,7.22222222 22.5396825,7.22222222 L17.0717225,7.22222222 Z" id="Shape"></path><path d="M22.8596904,62.0416667 C22.8318636,62.0416667 22.8179502,62.0416667 22.7901235,62.0416667 C17.0299824,61.75 12.8837938,59.875 10.4350382,56.5 C6.66451107,51.2777778 8.5010778,44.4722222 8.5845581,44.1805556 C8.79325887,43.4444444 9.558495,43.0138889 10.2959044,43.2083333 C11.0333137,43.4166667 11.4646286,44.1805556 11.2698413,44.9166667 L11.2698413,44.9166667 C11.2559279,44.9722222 9.72545561,50.7638889 12.7168332,54.8888889 C14.6507937,57.5416667 18.0873996,59.0277778 22.9431707,59.2638889 C23.7084068,59.3055556 24.3066823,59.9583333 24.2649422,60.7222222 C24.2092887,61.4583333 23.5970997,62.0416667 22.8596904,62.0416667 Z" id="Path"></path></g></g></g></svg>