<svg xmlns="http://www.w3.org/2000/svg" xmlns:xlink="http://www.w3.org/1999/xlink" width="74px" height="70px" viewBox="0 0 74 70"><title>icon-easy-roi</title><desc>Created with Sketch.</desc><g id="Page-1" stroke="none" stroke-width="1" fill="none" fill-rule="evenodd"><g id="TomoX9" transform="translate(-265.000000, -7321.000000)" fill="#00E8B5" fill-rule="nonzero"><g id="icon-easy-roi" transform="translate(265.000000, 7321.000000)"><path d="M58.1748918,0 L15.7233512,0 C11.472167,0 8.01996435,3.46969697 8.01996435,7.74242424 L8.01996435,43.0606061 L3.15070028,38.1666667 C2.42709447,37.4393939 1.26631016,37.4393939 0.542704354,38.1666667 C-0.180901451,38.8939394 -0.180901451,40.0606061 0.542704354,40.7878788 L8.57774382,48.8636364 C8.93954673,49.2272727 9.40687548,49.4090909 9.88927935,49.4090909 C10.3716832,49.4090909 10.839012,49.2272727 11.2008149,48.8636364 L19.2358543,40.7878788 C19.9594601,40.0606061 19.9594601,38.8939394 19.2358543,38.1666667 C18.5122485,37.4393939 17.3514642,37.4393939 16.6278584,38.1666667 L11.7435192,43.0757576 L11.7435192,7.74242424 C11.7435192,5.51515152 13.5374586,3.71212121 15.7535014,3.71212121 L58.1899669,3.71212121 C60.4060097,3.71212121 62.1999491,5.51515152 62.1999491,7.74242424 L62.1999491,12.8939394 C62.1999491,13.9242424 63.0290807,14.7575758 64.0541889,14.7575758 C65.0792972,14.7575758 65.9084288,13.9242424 65.9084288,12.8939394 L65.9084288,7.74242424 C65.8632035,3.48484848 62.4110008,0 58.1748918,0 Z" id="Path"></path><path d="M62.7125032,21.1060606 L54.6774637,29.1818182 C53.9538579,29.9090909 53.9538579,31.0757576 54.6774637,31.8030303 C55.0392666,32.1666667 55.5065954,32.3484848 55.9889992,32.3484848 C56.4714031,32.3484848 56.9387319,32.1666667 57.3005348,31.8030303 L62.1848739,26.8939394 L62.1848739,62.2121212 C62.1848739,64.4393939 60.3909346,66.2424242 58.1748918,66.2424242 L15.7233512,66.2424242 C13.5073084,66.2424242 11.713369,64.4393939 11.713369,62.2121212 L11.713369,57.0606061 C11.713369,56.030303 10.8842373,55.1969697 9.85912911,55.1969697 C8.83402088,55.1969697 8.00488923,56.030303 8.00488923,57.0606061 L8.00488923,62.2121212 C8.00488923,66.4848485 11.4570919,69.9545455 15.708276,69.9545455 L58.1447415,69.9545455 C62.3959256,69.9545455 65.8481283,66.4848485 65.8481283,62.2121212 L65.8481283,26.8939394 L70.7324675,31.8030303 C71.4560733,32.530303 72.6168577,32.530303 73.3404635,31.8030303 C74.0640693,31.0757576 74.0640693,29.9090909 73.3404635,29.1818182 L65.305424,21.1060606 C64.6421187,20.4090909 63.4059587,20.4090909 62.7125032,21.1060606 Z" id="Path"></path><path d="M36.9491215,18.5606061 C35.9240132,18.5606061 35.0948816,19.3939394 35.0948816,20.4242424 L35.0948816,23.2727273 L34.8536797,23.2727273 C31.3261013,23.2727273 28.4467532,26.3181818 28.4467532,30.0454545 C28.4467532,33.7727273 31.3261013,36.8181818 34.8536797,36.8181818 L39.014413,36.8181818 C40.50685,36.8181818 41.7279348,38.1969697 41.7279348,39.8787879 C41.7279348,41.5757576 40.50685,42.9393939 39.014413,42.9393939 L31.537153,42.9393939 C30.5120448,42.9393939 29.6829132,43.7727273 29.6829132,44.8030303 C29.6829132,45.8333333 30.5120448,46.6666667 31.537153,46.6666667 L35.0948816,46.6666667 L35.0948816,49.5606061 C35.0948816,50.5909091 35.9240132,51.4242424 36.9491215,51.4242424 C37.9742297,51.4242424 38.8033613,50.5909091 38.8033613,49.5606061 L38.8033613,46.6515152 L39.0747135,46.6515152 C39.0897886,46.6515152 39.1048638,46.6515152 39.1199389,46.6515152 C42.6173669,46.6060606 45.4364146,43.5757576 45.4364146,39.8787879 C45.4364146,36.1363636 42.5570665,33.1060606 39.0294882,33.1060606 L34.8687548,33.1060606 C33.3763178,33.1060606 32.155233,31.7272727 32.155233,30.0454545 C32.155233,28.3636364 33.3763178,26.9848485 34.8687548,26.9848485 L42.2103387,26.9848485 C43.2354469,26.9848485 44.0645786,26.1515152 44.0645786,25.1212121 C44.0645786,24.0909091 43.2354469,23.2575758 42.2103387,23.2575758 L38.8033613,23.2575758 L38.8033613,20.4090909 C38.7882862,19.3939394 37.9742297,18.5606061 36.9491215,18.5606061 Z" id="Path"></path></g></g></g></svg>