<svg xmlns="http://www.w3.org/2000/svg" xmlns:xlink="http://www.w3.org/1999/xlink" width="55px" height="70px" viewBox="0 0 55 70"><title>icon-verification</title><desc>Created with Sketch.</desc><g id="Page-1" stroke="none" stroke-width="1" fill="none" fill-rule="evenodd"><g id="TomoP2" transform="translate(-965.000000, -3562.000000)" fill="#00E8B5" fill-rule="nonzero"><g id="icon-verification" transform="translate(965.000000, 3562.000000)"><path d="M6.87185355,69.9839817 C3.09153318,69.9839817 9.59232693e-14,67.1967963 9.59232693e-14,63.784897 L9.59232693e-14,15.826087 C0.176201373,12.1578947 3.20366133,9.24256293 6.87185355,9.21052632 L13.2311213,9.21052632 C13.3272311,9.21052632 13.3913043,9.14645309 13.3913043,9.05034325 L13.3913043,6.19908467 C13.3913043,5.38215103 14.2402746,5.01372998 15.0732265,5.01372998 L19.9267735,5.01372998 C19.9908467,5.01372998 20.0549199,4.96567506 20.0709382,4.90160183 C21.1441648,1.97025172 23.9633867,0 27.0869565,0 C27.1830664,0 27.2791762,0 27.375286,0 C30.8672769,0 33.6064073,1.84210526 34.6796339,4.91762014 C34.6956522,4.98169336 34.7597254,5.02974828 34.8237986,5.02974828 L39.7574371,5.02974828 C40.6064073,5.02974828 41.5194508,5.39816934 41.5194508,6.21510297 L41.5194508,9.06636156 C41.5194508,9.1624714 41.583524,9.22654462 41.6796339,9.22654462 L48.0549199,9.22654462 C51.7391304,9.25858124 54.7505721,12.173913 54.9267735,15.8581236 L54.9267735,63.8009153 C54.9267735,67.2128146 51.8512586,70 48.0549199,70 L6.87185355,70 L6.87185355,69.9839817 Z M6.87185355,12.2379863 C4.86956522,12.2700229 3.20366133,13.8077803 3.02745995,15.8100686 L3.02745995,63.784897 C3.02745995,65.771167 4.98169336,66.9565217 6.87185355,66.9565217 L48.0389016,66.9565217 C49.9290618,66.9565217 51.8832952,65.771167 51.8832952,63.784897 L51.8832952,15.826087 C51.7070938,13.8077803 50.0572082,12.2700229 48.0389016,12.2379863 L41.6796339,12.2379863 C41.583524,12.2379863 41.5194508,12.3020595 41.5194508,12.3981693 L41.5194508,16.6590389 C41.4073227,17.4759725 40.6864989,18.1006865 39.8535469,18.1006865 C39.8215103,18.1006865 39.7894737,18.1006865 39.7574371,18.1006865 L15.0572082,18.1006865 C15.0251716,18.1006865 14.993135,18.1006865 14.9610984,18.1006865 C14.1281465,18.1006865 13.4553776,17.4759725 13.375286,16.6590389 L13.375286,12.3981693 C13.375286,12.3020595 13.3112128,12.2379863 13.215103,12.2379863 L6.87185355,12.2379863 C6.87185355,12.2379863 6.87185355,12.2379863 6.87185355,12.2379863 Z M16.5789474,8.05720824 C16.4828375,8.05720824 16.4187643,8.12128146 16.4187643,8.2173913 L16.4187643,14.9130435 C16.4187643,15.0091533 16.4828375,15.0732265 16.5789474,15.0732265 L38.3318078,15.0732265 C38.4279176,15.0732265 38.4919908,15.0091533 38.4919908,14.9130435 L38.4919908,8.2173913 C38.4919908,8.12128146 38.4279176,8.05720824 38.3318078,8.05720824 L33.5583524,8.05720824 C32.805492,7.99313501 32.180778,7.43249428 32.0366133,6.67963387 C31.5560641,4.45308924 29.6338673,2.85125858 27.3592677,2.78718535 C25.0686499,2.85125858 23.1144165,4.45308924 22.6018307,6.67963387 C22.4736842,7.41647597 21.8970252,7.9610984 21.1601831,8.05720824 L16.5789474,8.05720824 Z" id="Shape"></path><path d="M13.2631579,46.1327231 C12.8787185,46.1327231 12.5102975,45.97254 12.2540046,45.6842105 L8.82608696,42.1601831 C8.23340961,41.5354691 8.23340961,40.5743707 8.82608696,39.9496568 C9.09839817,39.7093822 9.46681922,39.5652174 9.83524027,39.5652174 C10.2517162,39.5652174 10.6521739,39.7254005 10.9405034,40.0297483 L13.1990847,42.3684211 C13.2311213,42.4004577 13.2791762,42.416476 13.3112128,42.416476 C13.3432494,42.416476 13.3913043,42.4004577 13.423341,42.3684211 L18.7734554,37.2585812 C19.0457666,37.0022883 19.4141876,36.8581236 19.798627,36.8581236 C20.215103,36.8581236 20.6155606,37.0183066 20.9038902,37.3226545 C20.9359268,37.3546911 20.9679634,37.3867277 21,37.4187643 C21.2562929,37.7070938 21.4004577,38.0594966 21.3684211,38.4439359 C21.3524027,38.8283753 21.1922197,39.180778 20.9038902,39.4370709 L14.3684211,45.6361556 C14.0800915,45.9244851 13.7116705,46.0846682 13.3112128,46.1006865 L13.2631579,46.1327231 Z" id="Path"></path><path d="M25.7894737,44.0343249 C24.9565217,44.0343249 24.2837529,43.3615561 24.2837529,42.5286041 C24.2837529,41.6956522 24.9565217,41.0228833 25.7894737,41.0228833 L45.0434783,41.0228833 C45.8764302,41.0228833 46.5491991,41.6956522 46.5491991,42.5286041 C46.5491991,43.3615561 45.8764302,44.0343249 45.0434783,44.0343249 L25.7894737,44.0343249 Z" id="Path"></path><path d="M13.2631579,32.7414188 C12.8787185,32.7414188 12.5102975,32.5812357 12.2540046,32.2929062 L8.82608696,28.7688787 C8.23340961,28.1441648 8.23340961,27.1830664 8.82608696,26.5583524 C9.09839817,26.3180778 9.46681922,26.173913 9.83524027,26.173913 C10.2517162,26.173913 10.6521739,26.3340961 10.9405034,26.6384439 L13.1990847,28.9771167 C13.2311213,29.0091533 13.2791762,29.0251716 13.3112128,29.0251716 C13.3432494,29.0251716 13.3913043,29.0091533 13.423341,28.9771167 L18.7734554,23.8672769 C19.0457666,23.610984 19.4141876,23.4668192 19.798627,23.4668192 C20.215103,23.4668192 20.6155606,23.6270023 20.9038902,23.9313501 C20.9359268,23.9633867 20.9679634,23.9954233 21,24.02746 C21.2562929,24.3157895 21.4004577,24.6681922 21.3684211,25.0526316 C21.3524027,25.4370709 21.1922197,25.7894737 20.9038902,26.0457666 L14.3684211,32.2448513 C14.0800915,32.5331808 13.7116705,32.6933638 13.3112128,32.7093822 L13.2631579,32.7414188 Z" id="Path"></path><path d="M25.7894737,30.6430206 C24.9565217,30.6430206 24.2837529,29.9702517 24.2837529,29.1372998 C24.2837529,28.3043478 24.9565217,27.6315789 25.7894737,27.6315789 L45.0434783,27.6315789 C45.8764302,27.6315789 46.5491991,28.3043478 46.5491991,29.1372998 C46.5491991,29.9702517 45.8764302,30.6430206 45.0434783,30.6430206 L25.7894737,30.6430206 Z" id="Path"></path><path d="M13.2631579,59.5240275 C12.8787185,59.5240275 12.5102975,59.3638444 12.2540046,59.0755149 L8.81006865,55.5514874 C8.2173913,54.9267735 8.2173913,53.9656751 8.81006865,53.3409611 C9.08237986,53.1006865 9.45080092,52.9565217 9.81922197,52.9565217 C10.2356979,52.9565217 10.6361556,53.1167048 10.9244851,53.4210526 L13.1830664,55.7597254 C13.215103,55.791762 13.2631579,55.8077803 13.2951945,55.8077803 C13.3272311,55.8077803 13.375286,55.791762 13.4073227,55.7597254 L18.7574371,50.6498856 C19.0297483,50.3935927 19.3981693,50.2494279 19.7826087,50.2494279 C20.1990847,50.2494279 20.5995423,50.409611 20.8878719,50.7139588 C20.9199085,50.7459954 20.9519451,50.778032 20.9839817,50.8100686 C21.2402746,51.0983982 21.3684211,51.4508009 21.3524027,51.8352403 C21.3363844,52.2196796 21.1762014,52.5720824 20.8878719,52.8283753 L14.3524027,59.02746 C14.0640732,59.3157895 13.6956522,59.4759725 13.2951945,59.4919908 L13.2631579,59.5240275 Z" id="Path"></path><path d="M25.7894737,57.4256293 C24.9565217,57.4256293 24.2837529,56.7528604 24.2837529,55.9199085 C24.2837529,55.0869565 24.9565217,54.4141876 25.7894737,54.4141876 L45.0434783,54.4141876 C45.8764302,54.4141876 46.5491991,55.0869565 46.5491991,55.9199085 C46.5491991,56.7528604 45.8764302,57.4256293 45.0434783,57.4256293 L25.7894737,57.4256293 Z" id="Path"></path></g></g></g></svg>