<svg xmlns="http://www.w3.org/2000/svg" xmlns:xlink="http://www.w3.org/1999/xlink" width="64px" height="55px" viewBox="0 0 64 55"><title>icon-look-feel</title><desc>Created with Sketch.</desc><g id="Page-1" stroke="none" stroke-width="1" fill="none" fill-rule="evenodd"><g id="TomoX9" transform="translate(-839.000000, -7341.000000)" fill="#00E8B5" fill-rule="nonzero"><g id="icon-look-feel" transform="translate(839.000000, 7341.000000)"><path d="M5.1354616,0.0832282472 C2.33304573,0.0832282472 0.0552200173,2.37200504 0.0552200173,5.20176545 L0.0552200173,49.7427491 C0.0552200173,52.5586381 2.33304573,54.8612863 5.1354616,54.8612863 L58.8783434,54.8612863 C61.6807593,54.8612863 63.958585,52.5725095 63.958585,49.7427491 L63.958585,5.20176545 C63.958585,2.38587642 61.6807593,0.0832282472 58.8783434,0.0832282472 L5.1354616,0.0832282472 Z M58.8645384,51.4489281 L5.1354616,51.4489281 C4.19672131,51.4489281 3.43744607,50.6860025 3.43744607,49.7288777 L3.43744607,16.3266078 L60.5763589,16.3266078 L60.5763589,49.7427491 C60.5763589,50.6721311 59.8032787,51.4489281 58.8645384,51.4489281 Z M60.5763589,5.20176545 L60.5763589,12.9281211 L3.42364107,12.9281211 L3.42364107,5.20176545 C3.42364107,4.25851198 4.18291631,3.48171501 5.1216566,3.48171501 L58.8645384,3.48171501 C59.8032787,3.48171501 60.5763589,4.25851198 60.5763589,5.20176545 Z" id="Shape"></path><path d="M6.93011217,7.00504414 C6.61259707,7.32408575 6.43313201,7.75409836 6.43313201,8.21185372 C6.43313201,8.6557377 6.61259707,9.09962169 6.93011217,9.4186633 C7.24762726,9.73770492 7.6755824,9.91803279 8.11734254,9.91803279 C8.55910267,9.91803279 9.00086281,9.73770492 9.31837791,9.4186633 C9.63589301,9.09962169 9.81535807,8.6557377 9.81535807,8.21185372 C9.81535807,7.76796974 9.63589301,7.32408575 9.31837791,7.00504414 C8.69715272,6.36696091 7.56514236,6.36696091 6.93011217,7.00504414 Z" id="Path"></path><path d="M13.3218292,7.00504414 C13.0043141,7.32408575 12.824849,7.75409836 12.824849,8.21185372 C12.824849,8.6557377 13.0043141,9.09962169 13.3218292,9.4186633 C13.6393443,9.73770492 14.0672994,9.91803279 14.5228645,9.91803279 C14.9784297,9.91803279 15.4063848,9.73770492 15.7238999,9.4186633 C16.041415,9.09962169 16.2208801,8.66960908 16.2208801,8.21185372 C16.2208801,7.76796974 16.041415,7.32408575 15.7238999,7.00504414 C15.0888697,6.36696091 13.9430544,6.36696091 13.3218292,7.00504414 Z" id="Path"></path><path d="M19.7135462,7.00504414 C19.3960311,7.32408575 19.216566,7.75409836 19.216566,8.21185372 C19.216566,8.6557377 19.3960311,9.09962169 19.7135462,9.4186633 C20.0310613,9.73770492 20.4590164,9.91803279 20.9145815,9.91803279 C21.3563417,9.91803279 21.7981018,9.73770492 22.1018119,9.4186633 C22.419327,9.09962169 22.5987921,8.66960908 22.5987921,8.21185372 C22.5987921,7.76796974 22.419327,7.32408575 22.1018119,7.00504414 C21.4805867,6.36696091 20.3347714,6.36696091 19.7135462,7.00504414 Z" id="Path"></path><path d="M32.041415,37.369483 C27.1820535,37.369483 22.8196721,39.7831021 20.6246764,43.667087 C20.1691113,44.4854981 20.4452114,45.5258512 21.2597066,45.9836066 C21.5220017,46.1361917 21.8119068,46.2055485 22.0880069,46.2055485 C22.6816221,46.2055485 23.2476273,45.9003783 23.5651424,45.3455233 C25.1251079,42.5712484 28.4521139,40.7679697 32.041415,40.7679697 C35.6445211,40.7679697 38.8748921,42.5018916 40.4762726,45.2761665 C40.9456428,46.0945776 41.9810181,46.372005 42.7817084,45.9003783 C43.5962036,45.4287516 43.8723037,44.3883985 43.4029336,43.5838588 C41.2079379,39.7553594 36.8455565,37.369483 32.041415,37.369483 Z" id="Path" transform="translate(32.018609, 41.787516) scale(1, -1) translate(-32.018609, -41.787516) "></path><path d="M29.0733391,26.6052963 C29.0319241,25.9672131 28.645384,25.4123581 28.0793788,25.1626734 L19.8654012,21.4728878 C19.0094909,21.0844893 18.0155306,21.4728878 17.6289905,22.332913 C17.2424504,23.1929382 17.6289905,24.1916772 18.4849008,24.5800757 L23.7446074,26.9382093 L18.4710958,30.1424968 C17.6704055,30.627995 17.4081104,31.668348 17.8912856,32.4728878 C18.2088007,33 18.7610009,33.2912989 19.340811,33.2912989 C19.6445211,33.2912989 19.9344262,33.2080706 20.2105263,33.0416141 L28.2588438,28.1588903 C28.811044,27.8398487 29.1147541,27.2433796 29.0733391,26.6052963 Z" id="Path"></path><path d="M46.3710095,22.332913 C45.9844694,21.4728878 44.9905091,21.0983607 44.1345988,21.4728878 L35.9206212,25.1626734 C35.340811,25.4262295 34.9542709,25.9810845 34.9266609,26.6052963 C34.8852459,27.2433796 35.202761,27.8398487 35.7411562,28.1588903 L43.7894737,33.0416141 C44.0655738,33.2080706 44.3692839,33.2912989 44.659189,33.2912989 C45.2389991,33.2912989 45.7911993,33 46.1087144,32.4728878 C46.5918896,31.668348 46.3295945,30.627995 45.5289042,30.1424968 L40.2553926,26.9382093 L45.5150992,24.5800757 C46.3710095,24.1916772 46.7437446,23.1929382 46.3710095,22.332913 Z" id="Path"></path></g></g></g></svg>