<svg xmlns="http://www.w3.org/2000/svg" xmlns:xlink="http://www.w3.org/1999/xlink" width="115px" height="107px" viewBox="0 0 115 107"><title>icon-confidential</title><desc>Created with Sketch.</desc><g id="Page-1" stroke="none" stroke-width="1" fill="none" fill-rule="evenodd"><g id="TomoP2" transform="translate(-735.000000, -1517.000000)"><g id="icon-confidential" transform="translate(735.000000, 1517.000000)"><circle id="Oval-Copy" fill="#00E8B5" cx="95" cy="20" r="20"></circle><g id="shield-(9)" transform="translate(0.000000, 7.000000)" fill="#000000" fill-rule="nonzero"><path d="M94.8095238,0.22010582 L2.01058201,0.22010582 C0.988074385,0.22010582 0.158730159,1.04945005 0.158730159,2.07195767 L0.158730159,81.0518519 C0.158730159,82.0746014 0.987832474,82.9037037 2.01058201,82.9037037 L24.3301587,82.9037037 C27.9502646,90.1502646 33.4571429,96.4772487 42.2793651,99.6687831 C42.6867736,99.8169316 43.1333322,99.8169316 43.5407407,99.6687831 C52.362963,96.4772487 57.8698413,90.1449735 61.4899471,82.9037037 L79.8888889,82.9037037 C80.3798079,82.9038554 80.8506756,82.7089611 81.1978836,82.3619048 L96.1185185,67.4412698 C96.4658644,67.0941692 96.6613757,66.6233229 96.6613757,66.1322751 L96.6613757,2.07195767 C96.6613757,1.04945005 95.8320314,0.22010582 94.8095238,0.22010582 Z M92.957672,3.92380952 L92.957672,18.1216931 L3.86243386,18.1216931 L3.86243386,3.92380952 L92.957672,3.92380952 Z M42.9100529,95.9492063 C29.9153439,90.8857143 25.1216931,77.5439153 22.5396825,65.9100529 C26.6986146,64.2066255 29.4730866,60.2238088 29.6296296,55.7322751 L56.2010582,55.7322751 C56.3566909,60.2225355 59.128854,64.2050097 63.2857143,65.9100529 C60.6984127,77.5439153 55.9047619,90.8857143 42.9100529,95.9492063 Z M65.9058201,62.8867725 C59.1333333,61.1079365 59.8962963,54.3439153 59.9185185,54.1597884 C60.0003158,53.6261592 59.8450397,53.0834147 59.4933841,52.6737939 C59.1417285,52.2641731 58.6287508,52.0285121 58.0888889,52.0285714 L27.7280423,52.0285714 C27.1929187,52.0341479 26.6861787,52.2701638 26.3375661,52.6761905 C25.9855412,53.0842439 25.8252756,53.6235991 25.8973545,54.157672 C25.9068783,54.2275132 26.7439153,61.0931217 19.9111111,62.8878307 C18.9587588,63.1389898 18.3699278,64.0920031 18.5714286,65.0560847 C19.5157357,69.8826243 20.8865456,74.6158314 22.6677249,79.2 L3.86243386,79.2 L3.86243386,21.8253968 L92.957672,21.8253968 L92.957672,64.2857143 L79.8888889,64.2857143 C79.3976612,64.2854333 78.9264722,64.4804484 78.5791216,64.8277989 C78.2317711,65.1751494 78.0367561,65.6463384 78.037037,66.1375661 L78.037037,79.2 L63.1555556,79.2 C64.9356539,74.6157291 66.3054007,69.8825243 67.2486772,65.0560847 C67.4505715,64.0906855 66.8599481,63.1365657 65.9058201,62.8867725 Z M90.3375661,67.989418 L81.7407407,76.5809524 L81.7407407,67.989418 L90.3375661,67.989418 Z" id="Shape"></path><circle id="Oval" cx="14.6529101" cy="11.0232804" r="3.07089947"></circle><circle id="Oval" cx="27.0275132" cy="11.0232804" r="3.07089947"></circle><circle id="Oval" cx="39.4031746" cy="11.0232804" r="3.07089947"></circle><path d="M42.9100529,62.9523544 C39.6408015,62.9431441 36.8636094,65.3422136 36.3976501,68.5781017 C35.9316907,71.8139898 37.9191669,74.899159 41.0582011,75.8126984 L41.0582011,81.0518519 C41.0582011,82.0746014 41.8873034,82.9037037 42.9100529,82.9037037 C43.9328024,82.9037037 44.7619048,82.0746014 44.7619048,81.0518519 L44.7619048,75.8126984 C47.900939,74.899159 49.8884151,71.8139898 49.4224558,68.5781017 C48.9564964,65.3422136 46.1793043,62.9431441 42.9100529,62.9523544 L42.9100529,62.9523544 Z M42.9100529,72.378836 C41.3320965,72.378836 40.0529101,71.0996495 40.0529101,69.5216931 C40.0529101,67.9437367 41.3320965,66.6645503 42.9100529,66.6645503 C44.4880093,66.6645503 45.7671958,67.9437367 45.7671958,69.5216931 C45.763704,71.098201 44.4865608,72.3753443 42.9100529,72.378836 Z" id="Shape"></path></g></g></g></g></svg>