<svg xmlns="http://www.w3.org/2000/svg" xmlns:xlink="http://www.w3.org/1999/xlink" width="65px" height="65px" viewBox="0 0 65 65"><title>icon-enabling</title><desc>Created with Sketch.</desc><g id="Page-1" stroke="none" stroke-width="1" fill="none" fill-rule="evenodd"><g id="TomoX9" transform="translate(-839.000000, -7575.000000)" fill="#00E8B5"><g id="icon-enabling" transform="translate(839.000000, 7575.000000)"><path d="M32.5,44.8809524 C31.3622421,44.8809524 30.4365079,43.9552183 30.4365079,42.8174603 L30.4365079,35.0793651 C30.4365079,34.7944742 30.2055258,34.5634921 29.9206349,34.5634921 L22.1825397,34.5634921 C21.0447817,34.5634921 20.1190476,33.6377579 20.1190476,32.5 C20.1190476,31.3622421 21.0447817,30.4365079 22.1825397,30.4365079 L29.9206349,30.4365079 C30.2055258,30.4365079 30.4365079,30.2055258 30.4365079,29.9206349 L30.4365079,22.1825397 C30.4365079,21.0447817 31.3622421,20.1190476 32.5,20.1190476 C33.6377579,20.1190476 34.5634921,21.0447817 34.5634921,22.1825397 L34.5634921,29.9206349 C34.5634921,30.2055258 34.7944742,30.4365079 35.0793651,30.4365079 L42.8174603,30.4365079 C43.9552183,30.4365079 44.8809524,31.3622421 44.8809524,32.5 C44.8809524,33.6377579 43.9552183,34.5634921 42.8174603,34.5634921 L35.0793651,34.5634921 C34.7944742,34.5634921 34.5634921,34.7944742 34.5634921,35.0793651 L34.5634921,42.8174603 C34.5634921,43.9552183 33.6377579,44.8809524 32.5,44.8809524" id="Fill-1"></path><path d="M19.1852917,7.13550397 C18.347256,7.13550397 17.5984663,6.63523611 17.2777222,5.86103968 C16.8423254,4.80994841 17.3432381,3.60048413 18.3945873,3.16495833 L21.7307381,1.78293452 C21.9836448,1.67808333 22.2490615,1.62494841 22.5196369,1.62494841 C23.3575437,1.62494841 24.1060754,2.12521627 24.4269484,2.89967063 C24.8624742,3.9507619 24.3614325,5.16022619 23.3102123,5.59575198 L19.9740615,6.97777579 C19.7211548,7.08236905 19.4557381,7.13550397 19.1854206,7.13550397 L19.1852917,7.13550397 Z" id="Fill-3"></path><path d="M32.5,65 C23.8117956,65 15.6483631,61.6211607 9.51334325,55.485754 C3.37858135,49.3506052 0,41.1874306 0,32.5 C0,31.3622421 0.925734127,30.4365079 2.06349206,30.4365079 C3.20125,30.4365079 4.12698413,31.3622421 4.12698413,32.5 C4.12698413,40.084752 7.076875,47.2114087 12.4331845,52.5675893 C17.7893651,57.9233829 24.9157639,60.8730159 32.5,60.8730159 C40.084623,60.8730159 47.2114087,57.923125 52.5675893,52.5668155 C57.9233829,47.2106349 60.8730159,40.0842361 60.8730159,32.5 C60.8730159,24.915377 57.923125,17.7885913 52.5668155,12.4324107 C47.2106349,7.07661706 40.0842361,4.12698413 32.5,4.12698413 C31.3622421,4.12698413 30.4365079,3.20125 30.4365079,2.06349206 C30.4365079,0.925734127 31.3622421,0 32.5,0 C41.1882044,0 49.3516369,3.37896825 55.4866567,9.51424603 C61.6214187,15.6493948 65,23.8125694 65,32.5 C65,41.1880754 61.6210317,49.3516369 55.485754,55.4866567 C49.3506052,61.6214187 41.1874306,65 32.5,65" id="Fill-5"></path><path d="M9.70152083,14.318378 C9.15018155,14.318378 8.6319871,14.1037748 8.24237401,13.7140327 C7.85250298,13.3242907 7.6378998,12.8060962 7.6378998,12.2548859 C7.6378998,11.7038046 7.85250298,11.1854812 8.24237401,10.7957391 L10.7956875,8.24229663 C11.1854296,7.85255456 11.703495,7.63795139 12.2547054,7.63795139 C12.8060446,7.63795139 13.3242391,7.85255456 13.7141101,8.24229663 C14.1038522,8.63203869 14.3184554,9.15023313 14.3184554,9.70144345 C14.3184554,10.2526538 14.1038522,10.7708482 13.7139812,11.1605903 L11.1605387,13.7140327 C10.7709256,14.1037748 10.2527312,14.318378 9.70152083,14.318378 Z" id="Fill-7"></path><path d="M3.68831151,24.5848829 C3.41773611,24.5848829 3.15231944,24.531748 2.89954167,24.4270258 C1.84832143,23.9915 1.34740873,22.7819067 1.78293452,21.7306865 L3.16495833,18.3944067 C3.48570238,17.6203393 4.23449206,17.1200714 5.07239881,17.1200714 C5.34297421,17.1200714 5.60839087,17.1730774 5.86116865,17.2777996 C6.91225992,17.7133254 7.41317262,18.9229187 6.97777579,19.9740099 L5.59575198,23.3104187 C5.27500794,24.0846151 4.52634722,24.5848829 3.68844048,24.5848829 L3.68831151,24.5848829 Z" id="Fill-9"></path></g></g></g></svg>