<svg xmlns="http://www.w3.org/2000/svg" xmlns:xlink="http://www.w3.org/1999/xlink" width="72px" height="90px" viewBox="0 0 72 90"><title>icon-frictionless-user-experience</title><desc>Created with Sketch.</desc><g id="Page-1" stroke="none" stroke-width="1" fill="none" fill-rule="evenodd"><g id="TomoX9" transform="translate(-735.000000, -1984.000000)"><g id="icon-frictionless-user-experience" transform="translate(735.000000, 1984.000000)"><circle id="Oval-Copy-3" fill="#00E8B5" cx="52" cy="65" r="20"></circle><path d="M16.0180664,56.6791534 C18.6238862,54.0733338 18.6238862,49.8326112 16.0180664,47.2267914 C14.7553253,45.9647369 13.0771637,45.269165 11.2918853,45.269165 C10.2598573,45.269165 9.26422119,45.5026245 8.36402889,45.9427642 C5.18966684,41.4012909 3.51768498,36.0866547 3.51768498,30.4966737 C3.51768498,16.1904145 14.6935273,4.33891301 28.9599609,3.5149384 C29.930191,3.45863338 30.6703949,2.62710562 30.6147765,1.65756234 C30.5584717,0.687332109 29.7269439,-0.0508116797 28.7574005,0.00274658203 C12.6315308,0.934524492 0,14.3289185 0,30.4966737 C0,36.9470215 1.9713593,43.0739594 5.70877066,48.2780457 C4.00108342,50.8708192 4.28672795,54.4001769 6.56570426,56.6791534 C7.82844539,57.9412079 9.50660701,58.6367798 11.2918853,58.6367798 C13.0771637,58.6367798 14.7553253,57.9412079 16.0180664,56.6791534 Z M9.05273437,49.714508 C9.67002873,49.0972138 10.480957,48.7882232 11.2918853,48.7882232 C12.102127,48.7882232 12.9130555,49.0972138 13.5303497,49.714508 C14.7649384,50.9484101 14.7649384,52.9575347 13.5303497,54.1914367 C12.2957612,55.4260254 10.2873231,55.4260254 9.05273437,54.1914367 C7.81883244,52.9575347 7.81883244,50.9490967 9.05273437,49.714508 Z" id="Shape" fill="#242828" fill-rule="nonzero"></path><path d="M57.6638031,60.9377289 C56.552124,60.9377289 55.5070496,61.2274932 54.5999908,61.7356109 C53.7959289,59.1860962 51.4091493,57.3321533 48.5973359,57.3321533 C46.8182373,57.3321533 45.2094268,58.0744171 44.0641021,59.2650605 C43.7461854,58.9354706 43.3925629,58.6408996 43.0101014,58.3861542 C47.0640565,56.5713501 50.712204,53.8755799 53.6640929,50.4608917 C58.4527588,44.9196625 61.0901641,37.8293609 61.0901641,30.4966737 C61.0901641,24.0497589 59.1188048,17.9193878 55.3820801,12.7146148 C57.0897675,10.1218414 56.804123,6.59317008 54.5244599,4.31350699 C51.9186401,1.70768742 47.6786041,1.70768742 45.0720977,4.31350699 C42.4662782,6.91932674 42.4662782,11.1600494 45.0720977,13.7658691 C46.375351,15.0691222 48.0864716,15.7207489 49.7982788,15.7207489 C50.8014679,15.7207489 51.8032837,15.4948426 52.7240753,15.0471496 C55.8998107,19.5899962 57.5724793,24.9087524 57.5724793,30.4966737 C57.5724793,43.2202148 48.9351654,53.9751435 36.7561339,56.8082428 L36.7561339,47.3407745 C43.7310791,44.7658539 48.4963989,38.0236816 48.4963989,30.4966737 C48.4963989,20.5986786 40.4434204,12.5457001 30.5447388,12.5457001 C20.6467437,12.5457001 12.5937652,20.597992 12.5937652,30.4966737 C12.5937652,34.4029999 13.8276671,38.117752 16.1608887,41.2378692 C18.196106,43.9590454 21.0120391,46.0725402 24.1712951,47.2782899 L24.1712951,73.1504058 L21.9616699,69.5256043 C20.1049805,66.4775849 16.2288666,65.4888154 13.1382752,67.2727203 C10.1987457,68.970108 9.05204777,72.6944732 10.5358887,75.7665253 L17.0967865,89.0208436 C17.403717,89.6408844 18.0271912,90 18.6746978,90 C18.9369965,90 19.2027284,89.9416352 19.4533539,89.8173524 C20.3240204,89.3861388 20.6803895,88.3307647 20.2498627,87.460785 L13.6958312,74.2215728 C13.0167388,72.8146362 13.5440826,71.100769 14.8974609,70.3193664 C16.2961578,69.5118712 18.1178283,69.9767304 18.9582824,71.3562012 L24.4281006,80.3313446 C24.8387147,81.0042572 25.6468964,81.322174 26.4056396,81.109314 C27.1643829,80.8964539 27.6889801,80.2043153 27.6889801,79.4153595 L27.6889801,39.0598297 C27.6889801,37.5299835 28.9338683,36.2857818 30.4637147,36.2857818 C31.9935607,36.2857818 33.2384491,37.5299835 33.2384491,39.0598297 L33.2384491,46.016922 C33.2377625,46.0292817 33.2384491,46.0416412 33.2384491,46.0546875 L33.2384491,72.4644471 C33.2384491,73.4360504 34.0253448,74.2229462 34.9969482,74.2229462 C35.9685517,74.2229462 36.7561339,73.4360504 36.7561339,72.4644471 L36.7561339,63.6245728 C36.7561339,62.0947266 38.0003358,60.8498383 39.5301818,60.8498383 C41.0600282,60.8498383 42.3049164,62.0947266 42.3049164,63.6245728 L42.3049164,73.1044005 C42.3049164,74.076004 43.0924989,74.8635864 44.0634155,74.8635864 C45.035019,74.8635864 45.8226014,74.076004 45.8226014,73.1044005 L45.8226014,63.6245728 C45.8226014,62.0947266 47.0674897,60.8498383 48.5973359,60.8498383 C50.1271821,60.8498383 51.3713837,62.0947266 51.3713837,63.6245728 L51.3713837,73.2231904 C51.3713837,74.1947938 52.158966,74.9823761 53.1305694,74.9823761 C54.1021729,74.9823761 54.8890685,74.1947938 54.8890685,73.2231904 L54.8890685,67.2301484 C54.8890685,65.7003022 56.133957,64.4554139 57.6638031,64.4554139 C59.1936493,64.4554139 60.4385376,65.7003022 60.4385376,67.2301484 L60.4385376,88.2401275 C60.4385376,89.211731 61.2254334,90 62.1970367,90 C63.1686401,90 63.9562226,89.211731 63.9562226,88.2401275 L63.9562226,67.2301484 C63.9562226,63.7605285 61.1334229,60.9377289 57.6638031,60.9377289 L57.6638031,60.9377289 Z M47.5598145,11.278839 C46.3252257,10.0442505 46.3252257,8.03581242 47.5598145,6.80122371 C48.1771088,6.18392953 48.9873505,5.87562557 49.7982788,5.87562557 C50.6092071,5.87562557 51.4201356,6.18392953 52.0374298,6.80122371 C53.2713319,8.03581242 53.2713319,10.0442505 52.0374298,11.278839 C50.8028412,12.5127411 48.7937164,12.5127411 47.5598145,11.278839 Z M16.1114502,30.4966737 C16.1114502,22.5377655 22.5865174,16.0626983 30.5454254,16.0626983 C38.5036469,16.0626983 44.9787139,22.5377655 44.9787139,30.4966737 C44.9787139,36.1010742 41.6944884,41.1650849 36.7561339,43.527832 L36.7561339,39.0598297 C36.7561339,38.0724335 36.5267944,37.1372222 36.1189269,36.3043213 C37.6789855,34.8005675 38.6011505,32.7042388 38.6011505,30.4966737 C38.6011505,26.0540771 34.9873351,22.4402618 30.5454254,22.4402618 C26.102829,22.4402618 22.4890137,26.0540771 22.4890137,30.4966737 C22.4890137,32.6396943 23.3617402,34.6989442 24.8620605,36.1999512 C24.4219208,37.058258 24.1712951,38.030548 24.1712951,39.0598297 L24.1712951,43.4536743 C19.2734527,41.0600282 16.1114502,36.0962677 16.1114502,30.4966737 Z M27.2721864,33.6401367 C26.4612579,32.8010558 26.0066987,31.6893769 26.0066987,30.4966737 C26.0066987,27.9938507 28.0426025,25.9579468 30.5447388,25.9579468 C33.0475616,25.9579468 35.0834657,27.9938507 35.0834657,30.4966737 C35.0834657,31.706543 34.5918273,32.8587342 33.7554932,33.7005615 C32.796936,33.1093598 31.669464,32.7680968 30.4637147,32.7680968 C29.2991639,32.7680968 28.2087707,33.0867004 27.2721864,33.6401367 Z" id="Shape" fill="#242828" fill-rule="nonzero"></path><path d="M36.7733002,4.14459229 C37.2360992,4.14459229 37.6899718,3.95645133 38.0168153,3.62892146 C38.3443451,3.3020782 38.5324859,2.84820557 38.5324859,2.38540641 C38.5324859,1.92329402 38.3443451,1.46942139 38.0168153,1.14189152 C37.6899718,0.815048262 37.2360992,0.626907305 36.7733002,0.626907305 C36.3111877,0.626907305 35.857315,0.815048262 35.5304718,1.14189152 C35.2029419,1.46942139 35.0148009,1.92329402 35.0148009,2.38540641 C35.0148009,2.84820557 35.2029419,3.3020782 35.5304718,3.62892146 C35.857315,3.95645133 36.3111877,4.14459229 36.7733002,4.14459229 Z" id="Path" fill="#242828" fill-rule="nonzero"></path></g></g></g></svg>