<svg xmlns="http://www.w3.org/2000/svg" xmlns:xlink="http://www.w3.org/1999/xlink" width="109px" height="94px" viewBox="0 0 109 94"><title>icon-wallet-feature-2</title><desc>Created with Sketch.</desc><g id="Page-1" stroke="none" stroke-width="1" fill="none" fill-rule="evenodd"><g id="Wallet-1" transform="translate(-720.000000, -1520.000000)"><g id="icon-wallet-feature-2" transform="translate(720.000000, 1520.000000)"><circle id="Oval-Copy" fill="#00E8B5" cx="20" cy="62" r="20"></circle><g id="building" transform="translate(15.000000, 0.000000)" fill="#242828" fill-rule="nonzero"><path d="M35.4784722,34.7910156 C34.4644839,34.7910156 33.6425347,35.6131484 33.6425347,36.6269531 L33.6425347,40.4212852 C33.6425347,41.4350898 34.4644839,42.2572227 35.4784722,42.2572227 C36.4924605,42.2572227 37.3144097,41.4350898 37.3144097,40.4212852 L37.3144097,36.6269531 C37.3144097,35.6131484 36.4924605,34.7910156 35.4784722,34.7910156 Z" id="XMLID_666_"></path><path d="M47,34.7910156 C45.9860117,34.7910156 45.1640625,35.6131484 45.1640625,36.6269531 L45.1640625,40.4212852 C45.1640625,41.4350898 45.9860117,42.2572227 47,42.2572227 C48.0139883,42.2572227 48.8359375,41.4350898 48.8359375,40.4212852 L48.8359375,36.6269531 C48.8359375,35.6131484 48.0139883,34.7910156 47,34.7910156 Z" id="XMLID_1082_"></path><path d="M58.5215278,34.7910156 C57.5075395,34.7910156 56.6855903,35.6131484 56.6855903,36.6269531 L56.6855903,40.4212852 C56.6855903,41.4350898 57.5075395,42.2572227 58.5215278,42.2572227 C59.5355161,42.2572227 60.3574653,41.4350898 60.3574653,40.4212852 L60.3574653,36.6269531 C60.3574653,35.6131484 59.5355161,34.7910156 58.5215278,34.7910156 Z" id="XMLID_1380_"></path><path d="M21.296875,83.0148516 C20.8140234,83.0148516 20.3403516,83.2112969 19.9988672,83.5529648 C19.6573828,83.8942656 19.4609375,84.3679375 19.4609375,84.8507891 C19.4609375,85.3338242 19.6573828,85.8073125 19.9988672,86.1487969 C20.3403516,86.4902812 20.8140234,86.6867266 21.296875,86.6867266 C21.7797266,86.6867266 22.2533984,86.4904648 22.5948828,86.1487969 C22.9363672,85.8071289 23.1328125,85.3338242 23.1328125,84.8507891 C23.1328125,84.3679375 22.9363672,83.8942656 22.5948828,83.5529648 C22.2533984,83.2112969 21.7797266,83.0148516 21.296875,83.0148516 Z" id="XMLID_1438_"></path><path d="M21.296875,67.8378906 C20.2828867,67.8378906 19.4609375,68.6600234 19.4609375,69.6738281 L19.4609375,77.626375 C19.4609375,78.6401797 20.2828867,79.4623125 21.296875,79.4623125 C22.3108633,79.4623125 23.1328125,78.6401797 23.1328125,77.626375 L23.1328125,69.6738281 C23.1328125,68.6600234 22.3108633,67.8378906 21.296875,67.8378906 Z" id="XMLID_1439_"></path><path d="M31.578125,67.8378906 C30.5641367,67.8378906 29.7421875,68.6600234 29.7421875,69.6738281 L29.7421875,84.8509727 C29.7421875,85.8647773 30.5641367,86.6869102 31.578125,86.6869102 C32.5921133,86.6869102 33.4140625,85.8647773 33.4140625,84.8509727 L33.4140625,69.6738281 C33.4140625,68.6600234 32.5921133,67.8378906 31.578125,67.8378906 Z" id="XMLID_1455_"></path><path d="M41.859375,67.8378906 C40.8453867,67.8378906 40.0234375,68.6600234 40.0234375,69.6738281 L40.0234375,84.8509727 C40.0234375,85.8647773 40.8453867,86.6869102 41.859375,86.6869102 C42.8733633,86.6869102 43.6953125,85.8647773 43.6953125,84.8509727 L43.6953125,69.6738281 C43.6953125,68.6600234 42.8733633,67.8378906 41.859375,67.8378906 Z" id="XMLID_1456_"></path><path d="M52.140625,67.8378906 C51.1266367,67.8378906 50.3046875,68.6600234 50.3046875,69.6738281 L50.3046875,84.8509727 C50.3046875,85.8647773 51.1266367,86.6869102 52.140625,86.6869102 C53.1546133,86.6869102 53.9765625,85.8647773 53.9765625,84.8509727 L53.9765625,69.6738281 C53.9765625,68.6600234 53.1546133,67.8378906 52.140625,67.8378906 Z" id="XMLID_1471_"></path><path d="M62.421875,67.8378906 C61.4078867,67.8378906 60.5859375,68.6600234 60.5859375,69.6738281 L60.5859375,84.8509727 C60.5859375,85.8647773 61.4078867,86.6869102 62.421875,86.6869102 C63.4358633,86.6869102 64.2578125,85.8647773 64.2578125,84.8509727 L64.2578125,69.6738281 C64.2578125,68.6600234 63.4358633,67.8378906 62.421875,67.8378906 Z" id="XMLID_1480_"></path><path d="M72.703125,67.8371562 C72.2202734,67.8371562 71.7466016,68.0336016 71.4051172,68.3752695 C71.0636328,68.7185898 70.8671875,69.1902422 70.8671875,69.6730937 C70.8671875,70.1579648 71.0636328,70.6296172 71.4051172,70.9711016 C71.7466016,71.3144219 72.2202734,71.5090312 72.703125,71.5090312 C73.1859766,71.5090312 73.6596484,71.3144219 74.0011328,70.9711016 C74.3426172,70.6296172 74.5390625,70.1577812 74.5390625,69.6730937 C74.5390625,69.1902422 74.3426172,68.7185898 74.0011328,68.3752695 C73.6596484,68.0336016 73.1859766,67.8371562 72.703125,67.8371562 Z" id="XMLID_1584_"></path><path d="M72.703125,75.1816406 C71.6891367,75.1816406 70.8671875,76.0037734 70.8671875,77.0175781 L70.8671875,84.8509727 C70.8671875,85.8647773 71.6891367,86.6869102 72.703125,86.6869102 C73.7171133,86.6869102 74.5390625,85.8647773 74.5390625,84.8509727 L74.5390625,77.0175781 C74.5390625,76.0037734 73.7171133,75.1816406 72.703125,75.1816406 Z" id="XMLID_1585_"></path><path d="M28.640625,50.1210938 C27.6266367,50.1210938 26.8046875,50.9432266 26.8046875,51.9570312 L26.8046875,55.7513633 C26.8046875,56.765168 27.6266367,57.5873008 28.640625,57.5873008 C29.6546133,57.5873008 30.4765625,56.765168 30.4765625,55.7513633 L30.4765625,51.9570312 C30.4765625,50.9432266 29.6546133,50.1210938 28.640625,50.1210938 Z" id="XMLID_1598_"></path><path d="M41.2392361,50.1210937 C40.2252478,50.1210937 39.4032986,50.9432266 39.4032986,51.9570312 L39.4032986,55.7513633 C39.4032986,56.765168 40.2252478,57.5873008 41.2392361,57.5873008 C42.2532244,57.5873008 43.0751736,56.765168 43.0751736,55.7513633 L43.0751736,51.9570312 C43.0751736,50.9432266 42.2532244,50.1210937 41.2392361,50.1210937 Z" id="XMLID_1600_"></path><path d="M52.7607639,50.1210937 C51.7467756,50.1210937 50.9248264,50.9432266 50.9248264,51.9570312 L50.9248264,55.7513633 C50.9248264,56.765168 51.7467756,57.5873008 52.7607639,57.5873008 C53.7747522,57.5873008 54.5967014,56.765168 54.5967014,55.7513633 L54.5967014,51.9570312 C54.5967014,50.9432266 53.7747522,50.1210937 52.7607639,50.1210937 Z" id="XMLID_1601_"></path><path d="M65.359375,50.1210938 C64.3453867,50.1210938 63.5234375,50.9432266 63.5234375,51.9570312 L63.5234375,55.7513633 C63.5234375,56.765168 64.3453867,57.5873008 65.359375,57.5873008 C66.3733633,57.5873008 67.1953125,56.765168 67.1953125,55.7513633 L67.1953125,51.9570312 C67.1953125,50.9432266 66.3733633,50.1210938 65.359375,50.1210938 Z" id="XMLID_1604_"></path><path d="M92.1640625,65.3287148 L84.8203125,65.3287148 L84.8203125,61.2896523 C84.8203125,60.2758477 83.9983633,59.4537148 82.984375,59.4537148 L74.5390625,59.4537148 L74.5390625,46.9693398 L75.8242188,46.9693398 C76.838207,46.9693398 77.6601562,46.147207 77.6601562,45.1334023 C77.6601562,44.1195977 76.838207,43.2974648 75.8242188,43.2974648 L70.6835938,43.2974648 L70.6835938,33.7412266 C71.611293,33.6490625 72.3359375,32.8664023 72.3359375,31.9146523 C72.3359375,30.9008477 71.5139883,30.0787148 70.5,30.0787148 L68.8476562,30.0787148 L65.971293,30.0787148 L65.971293,28.4876914 C65.971293,18.6461484 58.4384414,10.5318555 48.8359375,9.60525781 L48.8359375,1.86659766 C48.8359375,0.852792969 48.0139883,0.0306601562 47,0.0306601562 C45.9860117,0.0306601562 45.1640625,0.852792969 45.1640625,1.86659766 L45.1640625,9.60525781 C35.561375,10.5318555 28.028707,18.6461484 28.028707,28.4876914 L28.028707,30.0787148 L25.1523438,30.0787148 L23.5,30.0787148 C22.4860117,30.0787148 21.6640625,30.9008477 21.6640625,31.9146523 C21.6640625,32.8665859 22.388707,33.6492461 23.3164062,33.7412266 L23.3164062,43.2974648 L18.1757812,43.2974648 C17.161793,43.2974648 16.3398438,44.1195977 16.3398438,45.1334023 C16.3398438,46.147207 17.161793,46.9693398 18.1757812,46.9693398 L19.4609375,46.9693398 L19.4609375,59.4537148 L11.015625,59.4537148 C10.0016367,59.4537148 9.1796875,60.2758477 9.1796875,61.2896523 L9.1796875,65.3287148 L1.8359375,65.3287148 C0.821949219,65.3287148 0,66.1508477 0,67.1646523 L0,92.1334023 C0,93.147207 0.821949219,93.9693398 1.8359375,93.9693398 L92.1640625,93.9693398 C93.1780508,93.9693398 94,93.147207 94,92.1334023 L94,67.1646523 C94,66.1508477 93.1780508,65.3287148 92.1640625,65.3287148 Z M31.700582,28.4876914 C31.700582,20.0515586 38.5638672,13.1880898 47,13.1880898 C55.4361328,13.1880898 62.299418,20.0515586 62.299418,28.4876914 L62.299418,30.0787148 L31.700582,30.0787148 L31.700582,28.4876914 Z M26.9882812,33.7505898 L29.8646445,33.7505898 L64.1355391,33.7505898 L67.0117188,33.7505898 L67.0117188,43.2974648 L26.9882812,43.2974648 L26.9882812,33.7505898 Z M23.1328125,46.9693398 L70.8671875,46.9693398 L70.8671875,59.4537148 L23.1328125,59.4537148 L23.1328125,46.9693398 Z M3.671875,69.0005898 L9.1796875,69.0005898 L9.1796875,90.2974648 L3.671875,90.2974648 L3.671875,69.0005898 Z M12.8515625,67.1646523 L12.8515625,63.1255898 L81.1484375,63.1255898 L81.1484375,67.1646523 L81.1484375,90.2974648 L12.8515625,90.2974648 L12.8515625,67.1646523 Z M90.328125,90.2974648 L84.8203125,90.2974648 L84.8203125,69.0005898 L90.328125,69.0005898 L90.328125,90.2974648 Z" id="XMLID_1608_"></path></g></g></g></g></svg>