<svg xmlns="http://www.w3.org/2000/svg" xmlns:xlink="http://www.w3.org/1999/xlink" width="81px" height="100px" viewBox="0 0 81 100"><title>icon-wallet-feature-3</title><desc>Created with Sketch.</desc><g id="Page-1" stroke="none" stroke-width="1" fill="none" fill-rule="evenodd"><g id="Wallet-1" transform="translate(-134.000000, -1983.000000)"><g id="icon-wallet-feature-3" transform="translate(135.000000, 1984.000000)"><circle id="Oval-Copy-2" fill="#00E8B5" cx="60" cy="79" r="20"></circle><g id="cup" fill="#242828" fill-rule="nonzero" stroke="#242828" stroke-width="0.5"><path d="M42.140625,61.5 L30.140625,61.5 C28.4845588,61.5019012 27.1425263,62.8439338 27.140625,64.5 L27.140625,69 C27.1425263,70.6560662 28.4845588,71.9980987 30.140625,72 L42.140625,72 C43.7966912,71.9980987 45.1387237,70.6560662 45.140625,69 L45.140625,64.5 C45.1387237,62.8439338 43.7966912,61.5019012 42.140625,61.5 Z M30.140625,69 L30.140625,64.5 L42.140625,64.5 L42.142125,69 L30.140625,69 Z" id="Shape"></path><path d="M9.890625,29.75685 C10.665525,30.11505 11.434575,30.47025 12.168525,30.85035 C14.1605802,31.8287649 15.8203389,33.372235 16.940625,35.2881 C18.1108618,37.731904 18.4548006,40.4899423 17.920575,43.1463 C17.693475,44.4888 16.757475,46.6863 14.752125,46.42305 C13.1123656,46.1423134 11.8838684,44.76618 11.790225,43.1052 C11.7504466,42.5176237 11.9496001,41.9388778 12.342525,41.5002 C12.8857797,40.8819742 12.8294506,39.9414802 12.2162894,39.3925156 C11.6031281,38.8435512 10.6621521,38.8911559 10.107525,39.4992 C9.17748232,40.5373806 8.70538299,41.9067391 8.798025,43.2975 C8.97790444,46.389385 11.2977583,48.9332161 14.360025,49.3965 C14.602323,49.4289889 14.8465086,49.4453749 15.090975,49.44555 C17.959125,49.44555 20.288175,47.15955 20.878575,43.64685 C21.0031758,42.8976993 21.0805783,42.1414591 21.110325,41.3826 C22.4645526,43.1036611 23.9579827,44.7104733 25.575525,46.1868 C25.0095765,47.0647018 24.6018123,48.0349695 24.370725,49.0536 L22.936875,55.5 L19.640625,55.5 C17.9845588,55.5019012 16.6425262,56.8439338 16.640625,58.5 L16.640625,75 L15.140625,75 C13.4845589,75.0019012 12.1425262,76.3439338 12.140625,78 L12.140625,81 L10.640625,81 C8.98455889,81.0019012 7.6425262,82.3439338 7.640625,84 L7.640625,87 C7.6425262,88.6560661 8.98455889,89.9980987 10.640625,90 L61.640625,90 C63.2966911,89.9980987 64.6387237,88.6560661 64.640625,87 L64.640625,84 C64.6387237,82.3439338 63.2966911,81.0019012 61.640625,81 L60.140625,81 L60.140625,78 C60.1387237,76.3439338 58.7966911,75.0019012 57.140625,75 L55.640625,75 L55.640625,58.5 C55.6387237,56.8439338 54.2966911,55.5019012 52.640625,55.5 L49.344225,55.5 L47.910675,49.05915 C47.6802084,48.0389658 47.2725273,47.0671312 46.706175,46.18785 C48.323448,44.7119692 49.8166287,43.1056072 51.170625,41.385 C51.200359,42.1423779 51.2774596,42.897153 51.401475,43.6449 C51.994725,47.16045 54.322425,49.44645 57.190575,49.44645 C57.4350399,49.4462301 57.6792226,49.4298444 57.921525,49.3974 C60.9751261,48.9382675 63.2926141,46.4076606 63.482025,43.32555 C63.5804278,41.9262336 63.108651,40.5466111 62.174025,39.50055 C61.6193979,38.8925059 60.6784219,38.8449012 60.0652606,39.3938657 C59.4520993,39.9428303 59.3957703,40.8833242 59.939025,41.50155 C60.3365434,41.9481706 60.5353699,42.5372317 60.489825,43.1334 C60.386745,44.784598 59.1605658,46.1475855 57.529425,46.4241 C55.506525,46.68705 54.586575,44.4891 54.359475,43.14435 C53.8263846,40.4882289 54.1707199,37.730808 55.340625,35.28735 C56.4606748,33.3722298 58.1200998,31.8295129 60.111675,30.85185 C60.846675,30.47025 61.616025,30.11505 62.391675,29.75685 C65.375625,28.37775 68.757825,26.81475 70.695825,23.48955 C72.8360124,19.892953 72.5870023,15.3588951 70.065825,12.0183 C67.4271199,8.90069844 63.7406077,6.85418301 59.699175,6.2634 C59.485575,4.8291 59.220375,3.4857 58.915425,2.26395 L58.913925,2.26395 C58.5801034,0.929812035 57.3791853,-0.004489875 56.003925,-1.61123683e-05 L16.277325,-1.61123683e-05 C14.9024337,-0.00340947 13.7021031,0.930435405 13.367325,2.26395 C13.062375,3.4857 12.797325,4.82895 12.583575,6.2634 C8.5448952,6.8529454 4.8604128,8.89675674 2.222175,12.01095 C-0.30426459,15.3543282 -0.554459835,19.8946693 1.589325,23.4954 C3.524475,26.81475 6.906675,28.37775 9.890625,29.75685 Z M61.642125,87 L10.640625,87 L10.640625,84 L61.640625,84 L61.642125,87 Z M57.140625,81 L15.140625,81 L15.140625,78 L57.140625,78 L57.140625,81 Z M52.640625,75 L19.640625,75 L19.640625,58.5 L52.640625,58.5 L52.640625,75 Z M44.981025,49.7058 L46.269975,55.5 L26.011275,55.5 L27.300225,49.7007 C27.4230193,49.1565567 27.62262,48.6326553 27.893025,48.14475 C29.5389991,49.4427126 31.2744534,50.6229899 33.086475,51.6768 C34.9759959,52.7714076 37.3067541,52.7714076 39.196275,51.6768 C41.0078274,50.6232045 42.7428303,49.4431781 44.388375,48.1455 C44.6590375,48.6348083 44.8585933,49.1601891 44.981025,49.7058 Z M67.712475,13.8786 C69.474648,16.2518433 69.6274399,19.4548437 68.099175,21.98505 C66.640125,24.4878 63.965325,25.7241 61.132275,27.03375 C60.314925,27.4116 59.503425,27.7866 58.727025,28.19025 C58.472925,28.32255 58.204725,28.47255 57.929475,28.63485 C59.8942613,22.4195217 60.6168869,15.8783277 60.056175,9.384 C63.0434091,9.97250154 65.7426146,11.5570593 67.712475,13.8786 L67.712475,13.8786 Z M56.002425,2.9898 L57.458475,2.62725 L56.002425,2.99055 L56.002425,2.9898 Z M56.005425,3.00075 C56.355525,4.41075 63.366225,34.158 37.688925,49.08255 C36.7319068,49.6377049 35.5508431,49.6377049 34.593825,49.08255 C8.847675,34.11915 15.962475,4.2546 16.277325,3 L56.005425,3.00075 Z M4.574775,13.8714 C6.5436177,11.5531211 9.24050172,9.97110775 12.224775,9.38385 C11.6641085,15.8782968 12.3868368,22.4195994 14.351775,28.635 C14.076075,28.47225 13.807425,28.32195 13.552725,28.1892 C12.777825,27.78705 11.966325,27.41205 11.148975,27.0342 C8.315925,25.72455 5.641125,24.48825 4.185075,21.99135 C2.65300722,19.4569502 2.80704129,16.2474327 4.574775,13.8714 Z" id="Shape"></path></g></g></g></g></svg>