<svg xmlns="http://www.w3.org/2000/svg" xmlns:xlink="http://www.w3.org/1999/xlink" width="70px" height="70px" viewBox="0 0 70 70"><title>icon-multi-chain</title><desc>Created with Sketch.</desc><g id="Page-1" stroke="none" stroke-width="1" fill="none" fill-rule="evenodd"><g id="TomoX9" transform="translate(-295.000000, -10064.000000)" fill="#00E8B5" fill-rule="nonzero"><g id="icon-multi-chain" transform="translate(295.000000, 10064.000000)"><path d="M69.4166667,25.5126667 C69.7783483,25.3038507 70.0008242,24.9176327 69.9999977,24.5 L69.9999977,15.1666667 C70.0008242,14.749034 69.7783483,14.3628159 69.4166667,14.154 L61.25,9.48733333 C60.8914114,9.2825017 60.4512552,9.2825017 60.0926667,9.48733333 L51.926,14.154 C51.5607233,14.3604272 51.334423,14.7470977 51.3333333,15.1666667 L51.3333333,17.9456667 L44.3333333,14.4456667 L44.3333333,5.83333333 C44.3341575,5.41570068 44.1116817,5.02948259 43.75,4.82066667 L35.5833333,0.154 C35.2247448,-0.0508316344 34.7845886,-0.0508316344 34.426,0.154 L26.2593333,4.82066667 C25.8940566,5.02709387 25.6677563,5.41376439 25.6666667,5.83333333 L25.6666667,14.4456667 L18.6666667,17.9456667 L18.6666667,15.1666667 C18.6674909,14.749034 18.445015,14.3628159 18.0833333,14.154 L9.91666667,9.48733333 C9.55807812,9.2825017 9.11792188,9.2825017 8.75933333,9.48733333 L0.592666667,14.154 C0.227389925,14.3604272 0.00108966811,14.7470977 -2.28205229e-06,15.1666667 L-2.28205229e-06,24.5 C-0.000824187925,24.9176327 0.221651674,25.3038507 0.583333333,25.5126667 L8.16666667,29.8433333 L8.16666667,40.1566667 L0.583333333,44.4873333 C0.221651674,44.6961493 -0.000824187925,45.0823673 -2.28205229e-06,45.5 L-2.28205229e-06,54.8333333 C-0.000824187925,55.250966 0.221651674,55.6371841 0.583333333,55.846 L8.75,60.5126667 C9.10858855,60.7174983 9.54874478,60.7174983 9.90733333,60.5126667 L17.4685,56.196 L25.6666667,61.3141667 L25.6666667,64.1666667 C25.6658425,64.5842993 25.8883183,64.9705174 26.25,65.1793333 L34.4166667,69.846 C34.7752552,70.0508316 35.2154114,70.0508316 35.574,69.846 L43.7406667,65.1793333 C44.1059434,64.9729061 44.3322437,64.5862356 44.3333333,64.1666667 L44.3333333,61.3141667 L52.5268333,56.1925 L60.088,60.5091667 C60.4465886,60.7139983 60.8867448,60.7139983 61.2453333,60.5091667 L69.412,55.8425 C69.7743948,55.6354972 69.998612,55.25068 69.9999977,54.8333333 L69.9999977,45.5 C70.0008242,45.0823673 69.7783483,44.6961493 69.4166667,44.4873333 L61.8333333,40.1566667 L61.8333333,29.8433333 L69.4166667,25.5126667 Z M61.8333333,27.1565 L61.8333333,20.5065 L67.6666667,17.1733333 L67.6666667,23.8233333 L61.8333333,27.1565 Z M60.6666667,48.8226667 L54.8508333,45.5 L60.6666667,42.1773333 L66.4825,45.5 L60.6666667,48.8226667 Z M53.6666667,17.1768333 L59.5,20.51 L59.5,27.16 L53.6666667,23.8233333 L53.6666667,17.1768333 Z M60.6666667,11.844 L66.4825,15.1666667 L60.6666667,18.4893333 L54.8508333,15.1666667 L60.6666667,11.844 Z M35,58.1606667 L29.1841667,54.8333333 L35,51.5106667 L40.8158333,54.8333333 L35,58.1606667 Z M28,32.3435 L33.8333333,35.6766667 L33.8333333,42.3266667 L28,38.99 L28,32.3435 Z M36.1666667,35.6766667 L42,32.3435 L42,38.9935 L36.1666667,42.3266667 L36.1666667,35.6766667 Z M35,33.656 L29.1841667,30.3333333 L35,27.0106667 L40.8158333,30.3333333 L35,33.656 Z M28,7.8435 L33.8333333,11.1766667 L33.8333333,17.8266667 L28,14.49 L28,7.8435 Z M36.1666667,11.1766667 L42,7.8435 L42,14.4935 L36.1666667,17.8266667 L36.1666667,11.1766667 Z M35,2.51066667 L40.8158333,5.83333333 L35,9.156 L29.1841667,5.83333333 L35,2.51066667 Z M10.5,20.51 L16.3333333,17.1768333 L16.3333333,23.8268333 L10.5,27.16 L10.5,20.51 Z M9.33333333,11.844 L15.1491667,15.1666667 L9.33333333,18.4893333 L3.5175,15.1666667 L9.33333333,11.844 Z M2.33333333,17.1768333 L8.16666667,20.51 L8.16666667,27.16 L2.33333333,23.8233333 L2.33333333,17.1768333 Z M9.33333333,48.8226667 L3.5175,45.5 L9.33333333,42.1773333 L15.1491667,45.5 L9.33333333,48.8226667 Z M2.33333333,47.5101667 L8.16666667,50.8433333 L8.16666667,57.4933333 L2.33333333,54.1566667 L2.33333333,47.5101667 Z M10.5,57.4898333 L10.5,50.8398333 L16.3333333,47.5066667 L16.3333333,54.1566667 L10.5,57.4898333 Z M18.6666667,54.1858333 L18.6666667,45.5 C18.6674909,45.0823673 18.445015,44.6961493 18.0833333,44.4873333 L10.5,40.1566667 L10.5,29.8433333 L18.0833333,25.5126667 C18.445015,25.3038507 18.6674909,24.9176327 18.6666667,24.5 L18.6666667,20.5543333 L26.7971667,16.4896667 L33.8333333,20.51 L33.8333333,24.99 L26.25,29.3206667 C25.8883183,29.5294826 25.6658425,29.9157007 25.6666667,30.3333333 L25.6666667,39.6666667 C25.6658425,40.0842993 25.8883183,40.4705174 26.25,40.6793333 L33.8333333,45.01 L33.8333333,49.49 L26.25,53.8206667 C25.8883183,54.0294826 25.6658425,54.4157007 25.6666667,54.8333333 L25.6666667,58.5666667 L18.6666667,54.1858333 Z M28,56.8435 L33.8333333,60.1766667 L33.8333333,66.8266667 L28,63.49 L28,56.8435 Z M36.1666667,66.8231667 L36.1666667,60.1731667 L42,56.84 L42,63.49 L36.1666667,66.8231667 Z M43.75,53.8206667 L36.1666667,49.49 L36.1666667,45.01 L43.75,40.6793333 C44.1116817,40.4705174 44.3341575,40.0842993 44.3333333,39.6666667 L44.3333333,30.3333333 C44.3341575,29.9157007 44.1116817,29.5294826 43.75,29.3206667 L36.1666667,24.99 L36.1666667,20.51 L43.2028333,16.4896667 L51.3333333,20.5543333 L51.3333333,24.5 C51.3325091,24.9176327 51.554985,25.3038507 51.9166667,25.5126667 L59.5,29.8433333 L59.5,40.1566667 L51.9166667,44.4873333 C51.554985,44.6961493 51.3325091,45.0823673 51.3333333,45.5 L51.3333333,54.1858333 L44.3333333,58.5666667 L44.3333333,54.8333333 C44.3341575,54.4157007 44.1116817,54.0294826 43.75,53.8206667 Z M53.6666667,47.5101667 L59.5,50.8433333 L59.5,57.4933333 L53.6666667,54.1566667 L53.6666667,47.5101667 Z M61.8333333,57.4898333 L61.8333333,50.8398333 L67.6666667,47.5066667 L67.6666667,54.1566667 L61.8333333,57.4898333 Z" id="Shape"></path></g></g></g></svg>