<svg xmlns="http://www.w3.org/2000/svg" xmlns:xlink="http://www.w3.org/1999/xlink" width="74px" height="74px" viewBox="0 0 74 74"><title>icon-share</title><desc>Created with Sketch.</desc><g id="Page-1" stroke="none" stroke-width="1" fill="none" fill-rule="evenodd"><g id="TomoX9" transform="translate(-596.000000, -4009.000000)" fill="#00E8B5" fill-rule="nonzero"><g id="icon-share" transform="translate(596.000000, 4009.000000)"><path d="M21.6796875,23.9921875 C22.4774322,23.9921875 23.125,23.3446197 23.125,22.546875 C23.125,21.7491303 22.4774322,21.1015625 21.6796875,21.1015625 C20.8819428,21.1015625 20.234375,21.7491303 20.234375,22.546875 C20.234375,23.3446197 20.8819428,23.9921875 21.6796875,23.9921875 Z" id="Path"></path><path d="M27.9137267,22.3741151 C27.1797791,22.0607758 26.330658,22.40065 26.0167541,23.1345977 C25.7028504,23.8685455 26.0427246,24.7176666 26.7766724,25.0321349 C31.5823364,27.0883179 34.6875,31.786148 34.6875,37 C34.6875,44.1723633 28.8520508,50.0078125 21.6796875,50.0078125 C14.5073242,50.0078125 8.671875,44.1723633 8.671875,37 C8.671875,31.786148 11.7770386,27.0883179 16.5827026,25.0321349 C17.3166504,24.7176666 17.6565246,23.8685455 17.3426209,23.1345977 C17.028717,22.40065 16.1784668,22.0602111 15.4456483,22.3741151 C9.57463077,24.8864746 5.78125,30.6270752 5.78125,37 C5.78125,45.7661591 12.9135284,52.8984375 21.6796875,52.8984375 C30.4458466,52.8984375 37.578125,45.7661591 37.578125,37 C37.578125,30.6270752 33.7847442,24.8864746 27.9137267,22.3741151 Z" id="Path"></path><path d="M21.8242188,38.3425597 C22.6213989,38.3425597 23.2695313,38.9912568 23.2695313,39.7878722 C23.2695313,40.5850526 22.6213989,41.2331847 21.8242188,41.2331847 C21.2065734,41.2331847 20.5403748,40.844757 19.9475708,40.1401672 C19.4338074,39.5287323 18.5220185,39.4502563 17.911148,39.9640197 C17.3002777,40.4772187 17.2212372,41.3890076 17.7350006,41.9998779 C18.5073394,42.9190063 19.4163056,43.5597992 20.3789063,43.8821717 L20.3789063,45.5691222 C20.3789063,46.3674316 21.0259094,47.0144347 21.8242188,47.0144347 C22.6225281,47.0144347 23.2695313,46.3674316 23.2695313,45.5691222 L23.2695313,43.8753967 C24.9519653,43.2786407 26.1601563,41.6724243 26.1601563,39.7878722 C26.1601563,37.3968964 24.2151947,35.4519347 21.8242188,35.4519347 C21.0270386,35.4519347 20.3789063,34.8038026 20.3789063,34.0066222 C20.3789063,33.2100068 21.0270386,32.5613097 21.8242188,32.5613097 C22.3362885,32.5613097 22.8765869,32.8227081 23.3875274,33.3167114 C23.9611358,33.8722534 24.8757476,33.8570099 25.4312896,33.2834015 C25.9862671,32.7097931 25.9710235,31.7946167 25.3974151,31.2396392 C24.6640321,30.5299683 23.9300842,30.1279907 23.2695313,29.9089355 L23.2695313,28.2253722 C23.2695313,27.427063 22.6225281,26.7800597 21.8242188,26.7800597 C21.0259094,26.7800597 20.3789063,27.427063 20.3789063,28.2253722 L20.3789063,29.9196625 C18.6964722,30.5158539 17.4882813,32.1226349 17.4882813,34.0066222 C17.4882813,36.3975982 19.4332428,38.3425597 21.8242188,38.3425597 Z" id="Path"></path><path d="M60.9921875,26.015625 C68.1645508,26.015625 74,20.1801758 74,13.0078125 C74,5.83544922 68.1645508,0 60.9921875,0 C53.8198242,0 47.984375,5.83544922 47.984375,13.0078125 C47.984375,14.930191 48.408371,16.8158722 49.2174072,18.5372619 L39.3469391,24.4494933 C35.2605439,18.7156678 28.7035675,15.3203125 21.6796875,15.3203125 C9.72537224,15.3203125 0,25.0456847 0,37 C0,48.9543153 9.72537224,58.6796875 21.6796875,58.6796875 C28.692276,58.6796875 35.2543335,55.2933654 39.3469391,49.5505067 L49.2174072,55.4627381 C48.408371,57.1841278 47.984375,59.069809 47.984375,60.9921875 C47.984375,68.1645508 53.8198242,74 60.9921875,74 C68.1645508,74 74,68.1645508 74,60.9921875 C74,53.8198242 68.1645508,47.984375 60.9921875,47.984375 C56.926117,47.984375 53.1852417,49.8361816 50.7299042,52.9989318 L40.8645172,47.0900879 C42.5000916,43.9905701 43.359375,40.5314179 43.359375,37 C43.359375,33.4685821 42.5000916,30.0094299 40.8645172,26.9099121 L50.7299042,21.0010682 C53.1852417,24.1638184 56.926117,26.015625 60.9921875,26.015625 Z M60.9921875,2.890625 C66.570755,2.890625 71.109375,7.42924503 71.109375,13.0078125 C71.109375,18.58638 66.570755,23.125 60.9921875,23.125 C55.2815094,23.125 50.875,18.4864502 50.875,13.0078125 C50.875,7.42924503 55.41362,2.890625 60.9921875,2.890625 Z M21.6796875,55.7890625 C11.3191681,55.7890625 2.890625,47.3605194 2.890625,37 C2.890625,26.6394806 11.3191681,18.2109375 21.6796875,18.2109375 C28.237793,18.2109375 34.218338,21.5549164 37.6780548,27.1571961 C39.503891,30.1104889 40.46875,33.5143127 40.46875,37 C40.46875,40.4856873 39.503891,43.8895111 37.6780548,46.8428039 L37.6780548,46.8433686 C34.218338,52.4450836 28.237793,55.7890625 21.6796875,55.7890625 Z M60.9921875,50.875 C66.570755,50.875 71.109375,55.41362 71.109375,60.9921875 C71.109375,66.570755 66.570755,71.109375 60.9921875,71.109375 C55.41362,71.109375 50.875,66.570755 50.875,60.9921875 C50.875,55.5033875 55.2916718,50.875 60.9921875,50.875 Z" id="Shape"></path></g></g></g></svg>