<svg xmlns="http://www.w3.org/2000/svg" xmlns:xlink="http://www.w3.org/1999/xlink" width="73px" height="99px" viewBox="0 0 73 99"><title>icon-wallet-feature-1</title><desc>Created with Sketch.</desc><g id="Page-1" stroke="none" stroke-width="1" fill="none" fill-rule="evenodd"><g id="Wallet-1" transform="translate(-134.000000, -1523.000000)"><g id="icon-wallet-feature-1" transform="translate(135.000000, 1524.000000)"><circle id="Oval" fill="#00E8B5" cx="52" cy="78" r="20"></circle><g id="electronics-(1)" fill="#242828" fill-rule="nonzero" stroke="#242828" stroke-width="0.5"><path d="M47.5483871,0 L5.80645161,0 C2.60137758,0.00419839948 0.00419839948,2.60137758 0,5.80645161 L0,84.1935484 C0.00419839948,87.3986224 2.60137758,89.9958016 5.80645161,90 L47.5483871,90 C50.7534611,89.9958016 53.3506403,87.3986224 53.3548387,84.1935484 L53.3548387,5.80645161 C53.3506403,2.60137758 50.7534611,0.00419839948 47.5483871,0 Z M33.4709677,2.90322581 L32.6544355,5.80645161 L20.5534274,5.80645161 L19.827621,2.90322581 L33.4709677,2.90322581 Z M50.4516129,84.1935484 C50.4495137,85.7960854 49.1509241,87.094675 47.5483871,87.0967742 L5.80645161,87.0967742 C4.2039146,87.094675 2.90532501,85.7960854 2.90322581,84.1935484 L2.90322581,5.80645161 C2.90532501,4.2039146 4.2039146,2.90532501 5.80645161,2.90322581 L16.8336694,2.90322581 L18.0112903,7.61008065 C18.1728041,8.25623654 18.7533187,8.70957658 19.4193548,8.70967742 L33.7540323,8.70967742 C34.4040863,8.70967162 34.9748825,8.27749738 35.1512097,7.65181452 L36.4866935,2.90322581 L47.5483871,2.90322581 C49.1509241,2.90532501 50.4495137,4.2039146 50.4516129,5.80645161 L50.4516129,84.1935484 Z" id="Shape"></path><path d="M19.4193548,79.2903226 L9.25806452,79.2903226 C8.45636085,79.2903226 7.80645161,79.9402318 7.80645161,80.7419355 C7.80645161,81.5436392 8.45636085,82.1935484 9.25806452,82.1935484 L19.4193548,82.1935484 C20.2210585,82.1935484 20.8709677,81.5436392 20.8709677,80.7419355 C20.8709677,79.9402318 20.2210585,79.2903226 19.4193548,79.2903226 Z" id="Path"></path><path d="M27.2258065,79.2903226 L25.7741935,79.2903226 C24.9724899,79.2903226 24.3225806,79.9402318 24.3225806,80.7419355 C24.3225806,81.5436392 24.9724899,82.1935484 25.7741935,82.1935484 L27.2258065,82.1935484 C28.0275101,82.1935484 28.6774194,81.5436392 28.6774194,80.7419355 C28.6774194,79.9402318 28.0275101,79.2903226 27.2258065,79.2903226 Z" id="Path"></path></g><path d="M11.4516129,32.7096774 L42.8709677,32.7096774 C43.6726714,32.7096774 44.3225806,32.0597682 44.3225806,31.2580645 L44.3225806,19.4516129 C44.3225806,18.6499092 43.6726714,18 42.8709677,18 L11.4516129,18 C10.6499092,18 10,18.6499092 10,19.4516129 L10,31.2580645 C10,32.0597682 10.6499092,32.7096774 11.4516129,32.7096774 Z M12.9032258,20.9032258 L41.4193548,20.9032258 L41.4193548,29.8064516 L12.9032258,29.8064516 L12.9032258,20.9032258 Z" id="Shape" stroke="#242828" stroke-width="0.5" fill="#242828" fill-rule="nonzero"></path><path d="M31.4516129,52.7096774 L42.8709677,52.7096774 C43.6726714,52.7096774 44.3225806,52.0597682 44.3225806,51.2580645 L44.3225806,39.4516129 C44.3225806,38.6499092 43.6726714,38 42.8709677,38 L31.4516129,38 C30.6499092,38 30,38.6499092 30,39.4516129 L30,51.2580645 C30,52.0597682 30.6499092,52.7096774 31.4516129,52.7096774 Z M32.9032258,40.9032258 L41.4193548,40.9032258 L41.4193548,49.8064516 L32.9032258,49.8064516 L32.9032258,40.9032258 Z" id="Shape-Copy" stroke="#242828" stroke-width="0.5" fill="#242828" fill-rule="nonzero"></path></g></g></g></svg>