<svg xmlns="http://www.w3.org/2000/svg" xmlns:xlink="http://www.w3.org/1999/xlink" width="250px" height="167px" viewBox="0 0 250 167"><title>Group 5</title><g id="Page-1" stroke="none" stroke-width="1" fill="none" fill-rule="evenodd"><g id="Staking-2-Copy" transform="translate(-606.000000, -2516.000000)"><g id="Group-5" transform="translate(606.000000, 2516.000000)"><rect id="Rectangle-Copy-13" fill="#00E8B5" opacity="0.1" x="183" y="103" width="67" height="51"></rect><rect id="Rectangle-Copy-14" fill="#00E8B5" x="0" y="111" width="100" height="56"></rect><g id="Shape-3" transform="translate(206.000000, 115.000000)" fill="#00E8B5" fill-rule="nonzero" stroke="#00E8B5" stroke-width="0.4"><path d="M24.0545455,-0.2 C24.9219045,-0.2 25.708312,0.152610158 26.2778509,0.722149098 C26.8473898,1.29168804 27.2,2.07809545 27.2,2.94545455 C27.2,3.81281364 26.8473898,4.59922105 26.2778509,5.16875999 C25.708312,5.73829893 24.9219045,6.09090909 24.0545455,6.09090909 C23.3109485,6.09090909 22.6287766,5.82958193 22.0903001,5.39626993 L22.0903001,5.39626993 L17.5985996,9.88797037 C18.0787972,10.5620355 18.3636364,11.3837048 18.3636364,12.2727273 C18.3636364,13.1617661 18.0787891,13.9834528 17.5985615,14.6579369 L17.5985615,14.6579369 L21.1353068,18.1946823 C21.423818,18.0493148 21.7462356,17.9636364 22.0909091,17.9636364 C22.6875318,17.9636364 23.2284847,18.2061602 23.6202532,18.5979286 C24.0120217,18.9896971 24.2545455,19.53065 24.2545455,20.1272727 C24.2545455,20.7238955 24.0120217,21.2648483 23.6202532,21.6566168 C23.2284847,22.0483853 22.6875318,22.2909091 22.0909091,22.2909091 C21.4942864,22.2909091 20.9533335,22.0483853 20.561565,21.6566168 C20.1697965,21.2648483 19.9272727,20.7238955 19.9272727,20.1272727 C19.9272727,19.7825204 20.0129816,19.4600309 20.1587502,19.1711202 L20.1587502,19.1711202 L16.6220536,15.6344236 C16.1266567,15.9868941 15.5512666,16.2326008 14.9277636,16.3382692 L14.9277636,16.3382692 L14.9277636,20.9889145 C15.6075731,21.142132 16.2050473,21.5152281 16.6402224,22.0296051 C17.1029856,22.5765912 17.3823091,23.283154 17.3823091,24.0545455 C17.3823091,24.9219045 17.0296989,25.708312 16.46016,26.2778509 C15.8906211,26.8473898 15.1042136,27.2 14.2368545,27.2 C13.3694955,27.2 12.583088,26.8473898 12.0135491,26.2778509 C11.4440102,25.708312 11.0914,24.9219045 11.0914,24.0545455 C11.0914,23.2828993 11.3707307,22.5762146 11.8334904,22.0292326 C12.2686677,21.514853 12.8661395,21.1418659 13.5459455,20.988861 L13.5459455,20.988861 L13.5459455,16.3382692 C12.9224425,16.2326008 12.3470524,15.9868941 11.8516555,15.6344236 L11.8516555,15.6344236 L5.77897224,21.7071068 C5.97884115,22.1204614 6.09090909,22.5835953 6.09090909,23.0727273 C6.09090909,23.9400864 5.73829893,24.7264938 5.16875999,25.2960327 C4.59922105,25.8655717 3.81281364,26.2181818 2.94545455,26.2181818 C2.07809545,26.2181818 1.29168804,25.8655717 0.722149098,25.2960327 C0.152610158,24.7264938 -0.2,23.9400864 -0.2,23.0727273 C-0.2,22.2053682 0.152610158,21.4189608 0.722149098,20.8494218 C1.29168804,20.2798829 2.07809545,19.9272727 2.94545455,19.9272727 C3.68906857,19.9272727 4.37126081,20.1886091 4.91013429,20.6219581 L4.91013429,20.6219581 L10.8741317,14.6574898 C10.3939317,13.9834236 10.1090909,13.1617522 10.1090909,12.2727273 C10.1090909,11.3836885 10.3939381,10.5620017 10.8741658,9.8875176 L10.8741658,9.8875176 L7.33742047,6.35077228 C7.04890922,6.4961397 6.72649164,6.58181818 6.38181818,6.58181818 C5.78519545,6.58181818 5.24424258,6.33929439 4.8524741,5.9475259 C4.46070561,5.55575742 4.21818182,5.01480455 4.21818182,4.41818182 C4.21818182,3.82155909 4.46070561,3.28060622 4.8524741,2.88883773 C5.24424258,2.49706925 5.78519545,2.25454545 6.38181818,2.25454545 C6.97844091,2.25454545 7.51939378,2.49706925 7.91116227,2.88883773 C8.30293075,3.28060622 8.54545455,3.82155909 8.54545455,4.41818182 C8.54545455,4.76285528 8.45977607,5.08527286 8.31440864,5.37378411 L8.31440864,5.37378411 L11.851154,8.91052944 C12.5256381,8.43030178 13.3473248,8.14545455 14.2363636,8.14545455 C15.1254064,8.14545455 15.9470926,8.43030326 16.6211742,8.91092856 L16.6211742,8.91092856 L21.2210278,4.31107498 C21.0211588,3.89772038 20.9090909,3.43458649 20.9090909,2.94545455 C20.9090909,2.07809545 21.2617011,1.29168804 21.83124,0.722149098 C22.4007789,0.152610158 23.1871864,-0.2 24.0545455,-0.2 Z M14.2363636,22.2909091 C13.7500409,22.2909091 13.3091756,22.4887308 12.9898623,22.8080441 C12.6705489,23.1273574 12.4727273,23.5682227 12.4727273,24.0545455 C12.4727273,24.5408682 12.6705489,24.9817335 12.9898623,25.3010468 C13.3091756,25.6203602 13.7500409,25.8181818 14.2363636,25.8181818 C14.7226864,25.8181818 15.1635517,25.6203602 15.482865,25.3010468 C15.8021783,24.9817335 16,24.5408682 16,24.0545455 C16,23.5682227 15.8021783,23.1273574 15.482865,22.8080441 C15.1635517,22.4887308 14.7226864,22.2909091 14.2363636,22.2909091 Z M2.94545455,21.3090909 C2.45913182,21.3090909 2.01826651,21.5069126 1.69895317,21.8262259 C1.37963984,22.1455392 1.18181818,22.5864045 1.18181818,23.0727273 C1.18181818,23.55905 1.37963984,23.9999153 1.69895317,24.3192286 C2.01826651,24.638542 2.45913182,24.8363636 2.94545455,24.8363636 C3.43177727,24.8363636 3.87264258,24.638542 4.19195592,24.3192286 C4.51126925,23.9999153 4.70909091,23.55905 4.70909091,23.0727273 C4.70909091,22.5864045 4.51126925,22.1455392 4.19195592,21.8262259 C3.87264258,21.5069126 3.43177727,21.3090909 2.94545455,21.3090909 Z M22.0909091,19.3454545 C21.8753227,19.3454545 21.679912,19.4331898 21.5383691,19.5747327 C21.3968262,19.7162756 21.3090909,19.9116864 21.3090909,20.1272727 C21.3090909,20.3428591 21.3968262,20.5382699 21.5383691,20.6798127 C21.679912,20.8213556 21.8753227,20.9090909 22.0909091,20.9090909 C22.3064955,20.9090909 22.5019062,20.8213556 22.6434491,20.6798127 C22.784992,20.5382699 22.8727273,20.3428591 22.8727273,20.1272727 C22.8727273,19.9116864 22.784992,19.7162756 22.6434491,19.5747327 C22.5019062,19.4331898 22.3064955,19.3454545 22.0909091,19.3454545 Z M14.2363636,9.52727273 C13.4793045,9.52727273 12.7929847,9.83518075 12.2959009,10.3322645 C11.7988171,10.8293483 11.4909091,11.5156682 11.4909091,12.2727273 C11.4909091,13.0297864 11.7988171,13.7161062 12.2959009,14.21319 C12.7929847,14.7102738 13.4793045,15.0181818 14.2363636,15.0181818 C14.9934227,15.0181818 15.6797426,14.7102738 16.1768264,14.21319 C16.6739102,13.7161062 16.9818182,13.0297864 16.9818182,12.2727273 C16.9818182,11.5156682 16.6739102,10.8293483 16.1768264,10.3322645 C15.6797426,9.83518075 14.9934227,9.52727273 14.2363636,9.52727273 Z M6.38181818,3.63636364 C6.16623182,3.63636364 5.97082105,3.72409893 5.82927817,3.86564181 C5.6877353,4.00718469 5.6,4.20259545 5.6,4.41818182 C5.6,4.63376818 5.6877353,4.82917895 5.82927817,4.97072183 C5.97082105,5.1122647 6.16623182,5.2 6.38181818,5.2 C6.59740455,5.2 6.79281531,5.1122647 6.93435819,4.97072183 C7.07590107,4.82917895 7.16363636,4.63376818 7.16363636,4.41818182 C7.16363636,4.20259545 7.07590107,4.00718469 6.93435819,3.86564181 C6.79281531,3.72409893 6.59740455,3.63636364 6.38181818,3.63636364 Z M24.0545455,1.18181818 C23.5682227,1.18181818 23.1273574,1.37963984 22.8080441,1.69895317 C22.4887308,2.01826651 22.2909091,2.45913182 22.2909091,2.94545455 C22.2909091,3.43177727 22.4887308,3.87264258 22.8080441,4.19195592 C23.1273574,4.51126925 23.5682227,4.70909091 24.0545455,4.70909091 C24.5408682,4.70909091 24.9817335,4.51126925 25.3010468,4.19195592 C25.6203602,3.87264258 25.8181818,3.43177727 25.8181818,2.94545455 C25.8181818,2.45913182 25.6203602,2.01826651 25.3010468,1.69895317 C24.9817335,1.37963984 24.5408682,1.18181818 24.0545455,1.18181818 Z" id="Shape"></path></g><rect id="Rectangle-Copy" fill="#F8F8F9" x="66" y="32" width="132" height="110"></rect><polygon id="Rectangle-Copy-15" fill="#EDEEF5" points="198 32 198 142 106 142"></polygon><path d="M195,0 L204,0 C219.463973,-2.84068575e-15 232,12.536027 232,28 C232,43.463973 219.463973,56 204,56 L165,56 L165,56 L165,30 C165,13.4314575 178.431458,3.04359188e-15 195,0 Z" id="Rectangle-Copy-12" fill="#242828"></path><text id="150" font-family="NunitoSans-ExtraBold, Nunito Sans" font-size="40" font-weight="600" fill="#242828"><tspan x="98" y="102">150</tspan></text><g id="Shape-2" transform="translate(186.000000, 16.000000)" fill="#FFFFFF" fill-rule="nonzero"><path d="M0.739192766,20.0256379 L11.2203626,24.8773291 C11.5672067,25.0434761 11.9747236,25.0405267 12.3195454,24.8704472 C12.3195454,24.8704472 12.3286465,24.8792952 12.3337024,24.8773291 L22.8148721,20.0256379 C23.2658709,19.8172167 23.5530537,19.3748131 23.5530537,18.8901356 L23.5530537,12.4998636 C23.5530537,11.8047988 22.9736316,11.2414716 22.2587076,11.2414716 C21.5437838,11.2414716 20.9643615,11.8047988 20.9643615,12.4998636 L20.9643615,18.0957756 L13.0708729,21.749045 L13.0708729,11.7585922 L22.8138609,7.24705993 C23.4600228,6.94917513 23.73406,6.19807239 23.4266528,5.56985943 C23.3305882,5.38503311 23.1880077,5.2277341 23.0130688,5.11074291 C22.95543,5.05372214 22.887679,5.0075155 22.8128498,4.97507264 L12.3316799,0.122398382 C11.9797796,-0.0407994605 11.5712516,-0.0407994605 11.2193512,0.122398382 L0.738181623,4.97507264 C0.71998001,4.98588701 0.701778139,4.99768418 0.68458767,5.01046492 C0.659307279,5.02422845 0.629982315,5.03111035 0.60369104,5.04684025 C0.228532851,5.27689017 0,5.67898568 0,6.11057489 L0,18.8901356 C0.00101114316,19.3748131 0.288194181,19.8172167 0.739192766,20.0256379 Z M2.58970332,8.1043395 L10.4821808,11.7576091 L10.4821808,21.7480619 L2.58970332,18.0947926 L2.58970332,8.1043395 Z M11.7765268,2.65294597 L19.2473307,6.11155794 L11.7765268,9.5691866 L4.30572302,6.11057489 L11.7765268,2.65294597 Z" id="Shape"></path></g><g id="vote" transform="translate(22.000000, 121.000000)" fill="#FFFFFF" fill-rule="nonzero"><path d="M32.0332031,13.5975048 L26.9451445,13.5975048 L30.1901016,11.7238426 C30.6541641,11.4558819 30.811752,10.8609795 30.5412422,10.3983492 L24.7404609,0.478904165 C24.4731094,0.0216885566 23.8876172,-0.135271828 23.4273574,0.126887467 L6.68191992,9.66698476 C6.21624609,9.9323026 6.05524219,10.5264315 6.32323828,10.9906088 L7.8281543,13.5975048 L0.966796875,13.5975048 C0.432867188,13.5975048 0,14.030419 0,14.5644066 L0,32.0330982 C0,32.5670859 0.432867188,33 0.966796875,33 L32.0332031,33 C32.5671328,33 33,32.5670859 33,32.0330982 L33,14.5644066 C33,14.030419 32.5671328,13.5975048 32.0332031,13.5975048 Z M23.5538789,2.28037105 L28.3812891,10.535327 L16.3797305,17.4651118 L12.2935313,17.4651118 L8.48396484,10.8659429 L23.5538789,2.28037105 Z M31.0664063,31.0661965 L1.93359375,31.0661965 L1.93359375,23.2665224 L31.0664063,23.2665224 L31.0664063,31.0661965 Z M31.0664063,21.3327189 L1.93359375,21.3327189 L1.93359375,15.5313083 L8.94454688,15.5313083 L10.060875,17.4651118 L6.83203125,17.4651118 C6.29810156,17.4651118 5.86523438,17.898026 5.86523438,18.4320136 C5.86523438,18.9660012 6.29810156,19.3989154 6.83203125,19.3989154 C6.96660938,19.3989154 25.7423203,19.3989154 26.1679688,19.3989154 C26.7018984,19.3989154 27.1347656,18.9660012 27.1347656,18.4320136 C27.1347656,17.898026 26.7018984,17.4651118 26.1679688,17.4651118 L20.2469824,17.4651118 L23.5960957,15.5313083 L31.0664063,15.5313083 L31.0664063,21.3327189 Z" id="Shape"></path><path d="M20.5978409,5.91398091 C20.0854452,5.75381868 19.5318544,6.01346359 19.3610776,6.49370586 L17.9058894,10.5863672 L17.0690829,9.8018717 C16.6873119,9.44390515 16.0682133,9.44390515 15.6863771,9.8018717 C15.304541,10.1598383 15.304541,10.7401743 15.6863771,11.0981408 L17.6418371,12.9313598 C18.1559928,13.4133742 19.0313218,13.2183197 19.2607625,12.5730877 L21.2162225,7.0734308 C21.3869993,6.59318854 21.1101062,6.07408203 20.5978409,5.91398091 Z" id="Path"></path></g></g></g></g></svg>